<svg width="102" height="45" viewBox="0 0 102 45" fill="none" xmlns="http://www.w3.org/2000/svg">
<path d="M28.2631 16.9024C28.2701 16.3907 28.0735 15.8972 27.7167 15.5305C27.3598 15.1637 26.8719 14.9537 26.3602 14.9467C25.8486 14.9397 25.3551 15.1363 24.9883 15.4931C24.6216 15.85 24.4116 16.3379 24.4046 16.8496C24.4046 16.8496 24.4046 16.8496 24.4046 16.8496C24.3986 17.2919 24.3915 17.7334 24.3831 18.1743C24.3189 21.607 24.1718 25.0098 23.8264 28.3836C23.8264 28.3838 23.8264 28.3839 23.8264 28.384C23.5711 30.8308 23.1797 33.3225 22.8017 35.7776C22.8017 35.7778 22.8017 35.7779 22.8016 35.7781L22.8106 35.7252C22.4453 37.6446 22.7652 39.6675 22.3807 41.5586C22.3719 41.5995 22.3628 41.6403 22.3536 41.6804C22.3536 41.6806 22.3535 41.6809 22.3535 41.6811L22.3752 41.6403C22.2869 41.9769 22.4301 42.4914 22.3105 42.9717C22.7643 42.8915 23.4108 42.773 23.7152 42.4091L23.7369 42.3683C23.7371 42.3681 23.7373 42.3679 23.7374 42.3677C23.7667 42.3303 23.7962 42.2921 23.8256 42.2536C25.1677 40.4738 26.3082 38.4902 26.6983 36.4404L26.7073 36.3875C26.7074 36.3873 26.7074 36.3871 26.7074 36.3869C27.0965 33.857 27.3967 31.3452 27.6654 28.7744C27.6654 28.7742 27.6654 28.7741 27.6654 28.774C28.0253 25.2585 28.176 21.7366 28.2412 18.2476C28.2497 17.7991 28.2569 17.3507 28.2631 16.9024Z" fill="white"/>
<path d="M24.6079 20.4135C24.3725 20.6338 24.2342 20.9386 24.2235 21.2609C24.2129 21.5831 24.3306 21.8964 24.551 22.1318C24.7713 22.3672 25.0761 22.5054 25.3983 22.5161C25.7206 22.5268 26.0338 22.409 26.2693 22.1887C26.2693 22.1887 26.2693 22.1887 26.2693 22.1887C27.6628 20.8855 29.0297 19.6018 30.4845 18.5252C31.0095 18.1373 31.5453 17.7782 32.094 17.4626C32.1029 17.4574 32.1117 17.4524 32.1206 17.4473C33.8529 16.4551 35.8409 15.9222 37.8928 15.5919C37.9121 15.5888 37.9313 15.5857 37.9505 15.5826C39.1924 15.3848 40.4842 15.2629 41.3749 15.4722C41.3927 15.4764 41.4102 15.4807 41.4274 15.4851C41.8953 15.5938 42.3233 15.8913 42.4433 16.0773C42.4473 16.083 42.4506 16.088 42.4531 16.0919C42.3375 15.9132 42.3016 15.7031 42.3042 15.5941C42.3056 15.4805 42.3223 15.4428 42.3238 15.4347C42.3295 15.4234 42.2918 15.513 42.232 15.607C42.1087 15.8067 41.9144 16.0533 41.7015 16.2971C41.2711 16.7889 40.7717 17.2801 40.2527 17.7675C39.2148 18.7379 38.1091 19.6805 36.9872 20.6128C36.984 20.6155 36.9808 20.6182 36.9775 20.6209C35.8477 21.5561 34.5928 22.4553 33.3461 23.4342C32.7213 23.9271 32.0953 24.4333 31.4747 25.034C30.9006 25.6976 30.0761 26.1379 29.8569 27.8828C29.8556 27.9564 29.8577 28.0303 29.8634 28.1038C29.921 28.8948 30.3981 29.4836 30.7732 29.8045C31.1657 30.142 31.5329 30.3372 31.8889 30.508C32.5989 30.8383 33.2663 31.0361 33.9269 31.2152C35.2411 31.5633 36.5246 31.7947 37.7613 32.0553C37.8563 32.0753 37.9495 32.0951 38.0425 32.1152C40.0352 32.5532 42.017 33.0371 43.5731 33.9539C43.6382 33.9923 43.7021 34.0312 43.7654 34.071C44.2064 34.348 44.6143 34.668 44.9187 35.0004C45.2307 35.3171 45.375 35.7162 45.34 35.6935C45.3392 35.6885 45.3394 35.6798 45.3399 35.6741C45.3865 35.6117 45.1384 35.9252 44.714 36.1334C44.2979 36.3573 43.7833 36.5555 43.2536 36.7422C43.1802 36.768 43.1039 36.7945 43.0296 36.8199C40.9087 37.5345 38.5875 38.0004 36.268 38.3595C36.197 38.3703 36.1257 38.381 36.0541 38.3917C32.9603 38.8486 29.8151 39.0336 26.6785 39.2368C26.6217 39.2404 26.5649 39.2441 26.5081 39.2477C23.1012 39.4685 19.7047 39.5283 16.3161 39.3723C16.2765 39.3705 16.2369 39.3687 16.1973 39.3668C12.9707 39.2014 9.66076 38.9365 6.69027 38.2168C6.66844 38.2113 6.64674 38.2057 6.62518 38.2001C5.13606 37.8079 3.7732 37.4712 2.95827 36.5706C2.95019 36.5618 2.94219 36.553 2.93426 36.5442C2.42106 35.9701 2.08771 35.3261 2.05929 34.5094C2.05901 34.5011 2.05876 34.4928 2.05855 34.4845C2.04795 34.1256 2.02708 33.695 2.09982 33.2317C2.18998 32.637 2.4302 32.0103 2.86821 31.5864C2.87247 31.5823 2.87675 31.5782 2.88104 31.5741C3.8227 30.6825 4.90913 29.9657 5.9794 29.2399C4.90913 29.9657 3.8227 30.6825 2.88104 31.5741C2.87675 31.5782 2.87244 31.5822 2.86812 31.5863C2.42709 32.0042 1.85567 32.3002 1.30612 32.7434C0.884307 33.0829 0.477775 33.5278 0.26575 34.0918C0.2609 34.1047 0.256111 34.1176 0.251382 34.1305C-0.233501 35.3843 0.0155721 36.9476 0.719372 38.0848C0.729943 38.1026 0.740617 38.1204 0.751394 38.1381C1.9246 40.0839 3.97475 41.0754 5.72504 41.5641C5.75123 41.5713 5.77752 41.5784 5.80393 41.5855C9.28365 42.4716 12.6315 42.7579 16.0296 42.9394C16.071 42.9413 16.1124 42.9432 16.1538 42.9451C19.6926 43.1078 23.2391 43.0245 26.7487 42.7689C26.8072 42.7647 26.8656 42.7604 26.9241 42.756C30.1539 42.5109 33.3613 42.0194 36.5638 41.4236C36.6379 41.4098 36.7118 41.3959 36.7856 41.3819C39.1965 40.916 41.6009 40.4069 44.008 39.5019C44.093 39.4693 44.1807 39.4347 44.2654 39.4003C44.8768 39.1501 45.4882 38.8662 46.1201 38.4615C46.7151 38.0419 47.5378 37.5527 47.8895 36.2758C47.9294 36.1032 47.9512 35.9241 47.954 35.7474C47.6729 33.3117 46.2259 32.7063 45.13 31.8901C45.0456 31.8375 44.9612 31.7866 44.8756 31.7365C42.8061 30.5464 40.649 30.0805 38.581 29.6156C38.4843 29.5948 38.3876 29.5742 38.2892 29.5534C37.0166 29.2846 35.7704 29.0452 34.6075 28.7215C34.0302 28.5597 33.4662 28.3738 33.0148 28.1539C32.7922 28.0461 32.6003 27.9237 32.5062 27.8361C32.4011 27.7391 32.4769 27.7637 32.4913 27.9063C32.4924 27.9175 32.4928 27.9285 32.4928 27.9384C32.4728 28.0636 32.5231 27.8486 32.6889 27.6483C32.8483 27.4374 33.0762 27.1989 33.324 26.9672C33.8239 26.5009 34.4073 26.0439 35.0067 25.5919C36.2113 24.6844 37.4938 23.8066 38.7553 22.7839C38.7586 22.7812 38.762 22.7785 38.7653 22.7758C39.9211 21.8327 41.0644 20.878 42.1857 19.8446C42.7495 19.3215 43.2989 18.7927 43.8449 18.1754C44.1187 17.8613 44.3853 17.5423 44.6565 17.1118C44.7894 16.8936 44.9272 16.658 45.0458 16.2941C45.1469 15.9593 45.3099 15.2956 44.8684 14.5698C44.8397 14.5243 44.8098 14.4795 44.7799 14.437C44.0177 13.4061 43.0342 12.9738 42.0595 12.7468C42.025 12.7393 41.9904 12.732 41.9556 12.7251C40.2288 12.422 38.8419 12.7423 37.4838 12.9868C37.4632 12.9909 37.4425 12.995 37.4217 12.9991C35.2022 13.4368 32.9602 14.1624 30.9129 15.3371C30.9024 15.3431 30.8919 15.3491 30.8815 15.3551C30.2349 15.7272 29.6239 16.1382 29.0397 16.5697C27.423 17.768 26.0034 19.1103 24.6079 20.4135Z" fill="white"/>
<path d="M46.4505 18.3504C46.2015 18.5313 46.0345 18.8038 45.9863 19.1079C45.9382 19.4119 46.0127 19.7227 46.1937 19.9718C46.3746 20.2208 46.6471 20.3878 46.9512 20.436C47.2553 20.4841 47.566 20.4096 47.8151 20.2286C47.8151 20.2286 47.8151 20.2286 47.8151 20.2286C48.0642 20.0476 48.3029 19.8743 48.5025 19.7522C48.5768 19.7066 48.6454 19.6697 48.6839 19.6526C48.7149 19.6322 48.747 19.653 48.5504 19.6637C48.5296 19.6638 48.5051 19.663 48.4788 19.6606C48.493 19.6639 48.4208 19.6527 48.361 19.6063C48.3 19.5609 48.2901 19.5257 48.3021 19.5612C48.3302 19.6298 48.3668 19.8869 48.3565 20.1574C48.3411 20.7148 48.2211 21.3766 48.0812 22.0319C47.8002 23.3637 47.3969 24.7064 47.2001 26.2588L47.1962 26.298C47.1893 26.376 47.1824 26.457 47.1761 26.535C47.0325 28.4024 47.5513 30.2637 47.5826 32.1335C47.5832 32.1596 47.5838 32.1854 47.5842 32.2109C47.5966 32.8061 47.6251 33.4123 47.7354 34.0451C47.7936 34.3835 47.8869 34.728 47.9744 35.0244C48.029 35.2121 48.1559 35.3705 48.3272 35.4647C48.4986 35.5589 48.7003 35.5812 48.8881 35.5267C49.0759 35.4721 49.2343 35.3452 49.3285 35.1738C49.4227 35.0025 49.4449 34.8008 49.3904 34.613C49.3904 34.613 49.3904 34.613 49.3904 34.613C49.3027 34.3151 49.2348 34.0611 49.1875 33.7887C49.0989 33.2852 49.0693 32.7385 49.0585 32.1838C49.0581 32.1599 49.0578 32.1358 49.0576 32.1115C49.0599 30.3274 49.7789 28.5332 49.9163 26.7559C49.9223 26.6813 49.9285 26.6041 49.9345 26.5298L49.9306 26.569C50.0744 25.3217 50.3715 23.9164 50.5716 22.4665C50.6693 21.7347 50.764 20.9895 50.743 20.1346C50.7227 19.7037 50.7003 19.2403 50.4588 18.6534C50.2757 18.064 49.3913 17.3422 48.6845 17.3482C48.6348 17.3437 48.5856 17.342 48.541 17.3422C47.7302 17.4107 47.5769 17.6305 47.2921 17.7711C46.9637 17.9736 46.7032 18.1679 46.4505 18.3504Z" fill="white"/>
<path d="M47.8319 24.4327C47.7094 24.714 47.7037 25.0324 47.816 25.318C47.9282 25.6035 48.1493 25.8327 48.4306 25.9553C48.7119 26.0778 49.0304 26.0835 49.3159 25.9712C49.6015 25.859 49.8307 25.6378 49.9532 25.3565C49.9532 25.3565 49.9532 25.3565 49.9532 25.3565C50.2918 24.5792 50.6573 23.8201 51.0571 23.0872C52.2639 20.8883 53.8734 18.7046 55.8722 17.9478C55.8968 17.9388 55.9215 17.9303 55.9462 17.9225C56.5768 17.715 57.2246 17.8217 57.5683 17.9721C57.5872 17.9797 57.6053 17.9876 57.6226 17.9956C57.7551 18.1016 57.6168 18.0009 57.6916 18.1677C57.6957 18.183 57.6998 18.2 57.7038 18.2191C57.9104 18.8917 56.999 20.5386 55.9421 21.7686C55.9055 21.8128 55.8684 21.8572 55.8309 21.9017C54.4308 23.5707 52.5418 24.766 50.4298 26.3515C50.3595 26.4073 50.284 26.4691 50.2124 26.5302C50.0917 26.6599 49.9453 26.6749 49.6688 27.2756C49.5971 27.4633 49.5394 27.7043 49.561 28.0029C49.5805 28.3251 49.7257 28.6639 49.8875 28.872C50.0293 29.0603 50.1793 29.1818 50.3059 29.2662C50.4334 29.3489 50.4974 29.3774 50.5779 29.4135C50.8775 29.5353 50.9866 29.5364 51.0944 29.5563C51.2084 29.5722 51.2756 29.5763 51.354 29.5805C51.6283 29.5918 51.8116 29.5781 51.9993 29.5652C52.3643 29.5372 52.6888 29.4957 53.0074 29.4572C53.6218 29.3809 54.31 29.3031 54.6627 29.3341C54.6585 29.3332 54.6526 29.3319 54.6466 29.3304C54.5673 29.299 54.6903 29.335 54.8291 29.5983C54.8376 29.6146 54.8474 29.6348 54.857 29.6563C55.2769 30.6915 55.124 32.9459 55.2541 34.8605C55.2571 34.9108 55.2606 34.961 55.2645 35.0111C55.4946 37.853 56.8988 40.2024 58.3053 42.1781L58.3859 42.2817C58.4003 42.2987 58.4148 42.3157 58.4293 42.3327C59.1961 43.2236 60.8529 43.0305 61.8192 43.3903C61.9484 43.4392 62.0678 43.4991 62.1756 43.5745C62.1819 43.5789 62.1881 43.5834 62.1943 43.5879C62.7878 44.0243 63.4305 44.3891 64.0907 44.7146C63.4305 44.3891 62.7878 44.0243 62.1943 43.5879C62.1881 43.5834 62.1819 43.5788 62.1758 43.5741C62.0709 43.4947 61.9797 43.3967 61.9003 43.285C61.2769 42.4164 61.4458 40.8554 60.9049 40.2195C60.894 40.2067 60.8832 40.1939 60.8724 40.1811L60.953 40.2847C59.6673 38.4915 58.6533 36.6152 58.5173 34.7568C58.5147 34.7236 58.5123 34.6904 58.5101 34.6571C58.3044 32.7255 58.53 30.966 57.5046 28.3575C57.467 28.2827 57.4235 28.2025 57.3784 28.1259C57.0262 27.5343 56.4198 26.7648 55.3535 26.4916C55.2315 26.4612 55.1077 26.439 54.9845 26.4249C54.0594 26.3431 53.4579 26.3923 52.792 26.3974C52.4708 26.4035 52.1533 26.4104 51.8768 26.4081C51.7428 26.4071 51.604 26.4017 51.5598 26.3936C51.5511 26.392 51.5489 26.3898 51.5771 26.3929C51.6098 26.401 51.638 26.3869 51.8609 26.4761C51.9221 26.5036 51.9728 26.5255 52.0814 26.5959C52.1896 26.6681 52.3249 26.7762 52.4558 26.9501C52.6053 27.1418 52.7428 27.4613 52.7608 27.7633C52.7811 28.043 52.7267 28.2656 52.6628 28.4326C52.4168 28.9611 52.3273 28.9227 52.2745 28.9942C52.3226 28.9551 52.377 28.9115 52.4301 28.8693C54.2167 27.5146 56.5034 26.0172 58.2292 23.8808C58.2717 23.8284 58.3138 23.7759 58.3556 23.7234C59.4542 22.1634 61.0823 20.5289 60.5666 17.4911C60.5464 17.4149 60.5237 17.3386 60.4976 17.2605C60.2762 16.4178 59.3191 15.4744 58.4299 15.3053C58.3669 15.2892 58.3035 15.2748 58.2404 15.2621C57.0337 15.0348 56.0524 15.4316 55.194 15.7325C55.1555 15.7464 55.1171 15.7603 55.0786 15.7744C52.0135 17.014 50.3913 19.583 49.0261 21.9789C48.5881 22.782 48.1942 23.6013 47.8319 24.4327Z" fill="white"/>
<path d="M66.4021 20.69C66.5175 20.2428 66.4506 19.7682 66.216 19.3704C65.9814 18.9726 65.5984 18.6843 65.1513 18.5689C64.7041 18.4536 64.2295 18.5205 63.8317 18.7551C63.4339 18.9897 63.1456 19.3727 63.0302 19.8198C63.0302 19.8198 63.0302 19.8198 63.0302 19.8198C62.9547 20.1126 62.8792 20.405 62.8037 20.6973C62.3785 22.3429 61.9499 23.9784 61.5014 25.6073C61.5012 25.6081 61.501 25.609 61.5008 25.6098C60.9543 27.6065 60.3634 29.5999 59.8647 31.7093C59.8644 31.7109 59.864 31.7125 59.8636 31.7141L59.8477 31.7906C59.5812 33.5069 59.638 35.1388 60.24 37.2529C60.259 37.3033 60.2807 37.3581 60.3047 37.4119C60.3053 37.4134 60.306 37.4148 60.3066 37.4163L60.3868 37.5956C60.7343 38.0899 61.3224 38.1018 61.5839 38.0795C61.6797 38.0762 61.7924 38.0265 61.8874 37.9636C61.983 37.8993 62.053 37.827 62.0919 37.7403C62.1308 37.6536 62.1384 37.5533 62.123 37.4392C62.107 37.3263 62.0693 37.209 62.0081 37.1352C62.0081 37.1352 62.0081 37.1352 62.0081 37.1352C61.9129 37.0227 61.8524 36.8979 61.8558 36.8088C61.8562 36.717 61.9253 36.6849 61.9497 36.6811L62.0299 36.8603C62.03 36.86 62.03 36.8597 62.0301 36.8594C62.0332 36.8482 62.0355 36.8327 62.0381 36.8155C62.1748 35.6365 63.0006 33.9584 63.2717 32.4252L63.2558 32.5016C63.2561 32.5002 63.2564 32.4987 63.2568 32.4972C63.715 30.5545 64.3051 28.552 64.8584 26.5335C64.8586 26.5327 64.8588 26.5319 64.859 26.5311C65.3145 24.877 65.7487 23.2198 66.1752 21.5689C66.251 21.2757 66.3266 20.9827 66.4021 20.69Z" fill="white"/>
<path d="M67.1813 19.9906C67.1454 19.598 66.955 19.2358 66.652 18.9837C66.3491 18.7315 65.9583 18.61 65.5658 18.6459C65.1732 18.6818 64.811 18.8722 64.5588 19.1751C64.3067 19.4781 64.1852 19.8688 64.2211 20.2614C64.2211 20.2614 64.2211 20.2614 64.2211 20.2614C64.2539 20.6207 64.2894 20.9802 64.3278 21.3399C64.6681 24.5891 65.2839 27.8363 66.1776 30.987C66.1779 30.9881 66.1782 30.9891 66.1785 30.9902C66.8728 33.3873 67.9135 35.5193 68.9238 37.6211C68.9242 37.622 68.9247 37.6229 68.9251 37.6238C69.3301 38.422 70.1385 38.961 70.875 39.747C70.9421 39.8128 71.0144 39.8819 71.0887 39.9486C71.0899 39.9497 71.0911 39.9508 71.0923 39.9518C71.3511 40.2383 72.0111 40.4337 72.2909 40.4057C72.4697 40.4124 72.6438 40.3479 72.775 40.2263C72.9062 40.1046 72.9836 39.9359 72.9904 39.7571C72.9971 39.5783 72.9326 39.4042 72.8109 39.273C72.6893 39.1419 72.5205 39.0644 72.3418 39.0576C72.3418 39.0576 72.3418 39.0576 72.3418 39.0576C72.0581 39.04 72.1438 39.0559 71.992 38.9467C71.9915 38.9462 71.991 38.9458 71.9906 38.9453C71.9602 38.9181 71.9329 38.8846 71.9075 38.8445C71.5756 38.2958 71.7298 37.237 71.4109 36.4969C71.4105 36.4959 71.4101 36.495 71.4097 36.4941C70.5067 34.3703 69.6346 32.2505 69.0394 30.183C69.0391 30.182 69.0388 30.181 69.0385 30.18C68.1887 27.1812 67.6096 24.1307 67.2835 21.0247C67.2469 20.6807 67.2129 20.336 67.1813 19.9906Z" fill="white"/>
<path d="M58.4245 33.4607C58.2053 33.5097 58.0145 33.6438 57.8942 33.8335C57.7738 34.0232 57.7337 34.2529 57.7827 34.4722C57.8317 34.6914 57.9658 34.8822 58.1555 35.0026C58.3452 35.1229 58.575 35.163 58.7942 35.114C58.7942 35.114 58.7942 35.114 58.7942 35.114C59.1289 35.0392 59.4636 34.9643 59.7982 34.8895C63.6107 34.0398 67.4264 33.1781 71.2366 32.3884C71.2366 32.3884 71.2367 32.3884 71.2367 32.3884C73.0649 32.0143 74.7412 30.8268 76.6115 30.5749C76.6115 30.5748 76.6116 30.5748 76.6116 30.5748C76.9955 30.5218 77.3793 30.4699 77.7634 30.4199C78.1034 30.3756 78.4436 30.3332 78.7839 30.291C78.4436 30.3332 78.1034 30.3756 77.7634 30.4199C77.3793 30.4699 76.9955 30.5218 76.6116 30.5748C76.6116 30.5748 76.6115 30.5748 76.6115 30.5749C74.7596 30.8236 72.749 30.3497 70.8958 30.7289C70.8957 30.729 70.8957 30.729 70.8956 30.729C67.0561 31.5248 63.2437 32.386 59.4287 33.2362C59.0939 33.311 58.7593 33.3859 58.4245 33.4607Z" fill="white"/>
<path d="M76.7114 21.9452C76.831 21.586 76.8031 21.194 76.6337 20.8554C76.4643 20.5169 76.1673 20.2595 75.8082 20.1398C75.449 20.0202 75.057 20.0482 74.7184 20.2176C74.3798 20.3869 74.1224 20.6839 74.0028 21.0431C74.0028 21.0431 74.0028 21.0431 74.0028 21.0431C73.9307 21.2594 73.8586 21.4759 73.7866 21.6924C72.8994 24.3854 71.9786 27.0524 71.2505 29.9007C71.2499 29.9029 71.2494 29.9052 71.2488 29.9074C70.9311 31.2244 71.6562 32.7282 71.7569 34.036C71.7608 34.0818 71.7642 34.131 71.7666 34.1767C71.7669 34.1813 71.7671 34.1858 71.7673 34.1903C71.774 34.2892 71.7727 34.3648 71.8011 34.5134C71.8072 34.5373 71.8087 34.5557 71.8342 34.6139C71.8604 34.645 71.8343 34.6956 72.0245 34.7976C72.1235 34.8467 72.287 34.8091 72.332 34.7729C72.3964 34.7314 72.4075 34.7117 72.4275 34.6892C72.5132 34.5638 72.4948 34.5602 72.5119 34.5224C72.5312 34.4627 72.5424 34.418 72.5542 34.3742C72.5771 34.2877 72.5647 34.1957 72.5198 34.1183C72.4749 34.041 72.4011 33.9846 72.3147 33.9617C72.2282 33.9388 72.1362 33.9511 72.0588 33.996C71.9815 34.0409 71.9251 34.1147 71.9022 34.2012C71.9022 34.2012 71.9022 34.2012 71.9022 34.2012C71.8909 34.2438 71.8796 34.286 71.8713 34.3114C71.874 34.3154 71.8421 34.3558 71.9016 34.2668C71.9175 34.2492 71.9257 34.2326 71.9847 34.1947C72.0252 34.1613 72.1823 34.1249 72.2764 34.1718C72.4562 34.269 72.4248 34.3094 72.4459 34.3299C72.462 34.3672 72.4584 34.365 72.4594 34.3665C72.4531 34.339 72.4447 34.2354 72.441 34.156C72.4408 34.152 72.4406 34.1479 72.4404 34.1438C72.4386 34.1024 72.4384 34.0581 72.4398 34.0168C72.4981 32.7681 73.7404 31.751 74.0204 30.5923C74.0209 30.5903 74.0214 30.5883 74.0219 30.5862C74.6922 27.9569 75.6127 25.2687 76.4954 22.5939C76.5673 22.3778 76.6394 22.1615 76.7114 21.9452Z" fill="white"/>
<path d="M77.481 21.7884C77.481 21.4857 77.3608 21.1954 77.1468 20.9814C76.9328 20.7674 76.6425 20.6472 76.3398 20.6472C76.0372 20.6472 75.7469 20.7674 75.5329 20.9814C75.3189 21.1954 75.1987 21.4857 75.1987 21.7884C75.1987 22.5448 75.2172 23.3022 75.257 24.0601C75.3544 25.8598 75.5562 27.6649 75.99 29.4684C75.9907 29.4711 75.9913 29.4738 75.992 29.4764C76.2984 30.8729 77.2424 32.3079 78.5592 33.0537C78.5599 33.0541 78.5605 33.0544 78.5612 33.0548C79.6257 33.6419 80.7065 33.225 81.2717 32.7035C81.2729 32.7024 81.2741 32.7013 81.2754 32.7002C83.0151 30.6084 82.7631 29.1415 83.1109 27.6672C83.1122 27.659 83.1134 27.6509 83.1146 27.6427C83.5434 24.4853 83.3623 21.5884 83.2344 18.6971C83.2341 18.6921 83.2339 18.6872 83.2336 18.6822C83.0391 15.4321 82.5013 12.3397 82.1182 9.27887L82.1209 9.31534C82.1207 9.31357 82.1206 9.3118 82.1204 9.31003C81.9108 6.97126 81.4018 4.55748 81.6877 2.4856C81.7001 2.41077 81.714 2.33725 81.7293 2.26532C81.7294 2.26488 81.7295 2.26444 81.7295 2.264L81.6626 2.41562C81.794 2.02726 82.1292 1.5884 82.6039 1.12917C82.7127 1.02113 82.7768 0.863274 82.7894 0.700354C82.8016 0.536851 82.7613 0.381656 82.6699 0.258876C82.5786 0.136097 82.4415 0.052904 82.2814 0.0175672C82.1217 -0.0171869 81.9521 -0.00121462 81.8174 0.0720033C81.8174 0.0720033 81.8174 0.0720033 81.8174 0.0720033C81.2563 0.379206 80.524 0.750065 80.0289 1.51336L79.9619 1.66498C79.9617 1.66555 79.9614 1.66612 79.9612 1.6667C79.9202 1.76089 79.8812 1.85639 79.8442 1.9526C78.9415 4.57508 78.886 7.05823 78.9111 9.51324C78.9112 9.51508 78.9112 9.51692 78.9113 9.51876L78.914 9.55523C79.0813 12.7378 79.3825 15.8716 79.5605 18.8806C79.5608 18.8851 79.561 18.8896 79.5612 18.8941C79.6968 21.7545 80.0075 24.6393 79.7688 27.2187C79.7681 27.2254 79.7675 27.2321 79.7668 27.2388C79.6885 27.9865 79.6484 28.7155 79.5788 29.3697C79.5267 30.0089 79.3431 30.6332 79.3047 30.7001C79.3047 30.7002 79.3047 30.7003 79.3046 30.7004C79.314 30.7136 79.3339 30.7316 79.4071 30.7431C79.4738 30.7535 79.6432 30.7803 79.7709 30.8648C79.7711 30.8649 79.7712 30.865 79.7714 30.8651C78.9927 30.4917 78.4288 29.8481 78.2096 28.9367C78.209 28.9343 78.2084 28.9319 78.2079 28.9296C77.8213 27.3266 77.6271 25.6364 77.5362 23.9403C77.4987 23.2253 77.481 22.5072 77.481 21.7884Z" fill="white"/>
<path d="M90.2873 20.2601C90.3371 19.8564 90.2245 19.4496 89.9743 19.129C89.7242 18.8084 89.3569 18.6003 88.9533 18.5505C88.5497 18.5007 88.1428 18.6132 87.8222 18.8634C87.5016 19.1136 87.2935 19.4809 87.2437 19.8845C87.2088 20.1676 87.1742 20.449 87.1396 20.7323C86.8013 23.5089 86.4771 26.3085 86.2882 29.1422L86.2859 29.1852C86.2859 29.1853 86.2859 29.1854 86.2859 29.1855C86.2214 30.9816 86.3023 32.7373 86.4045 34.516C86.4045 34.5161 86.4045 34.5163 86.4046 34.5164C86.4412 35.1 86.5982 35.7019 86.8145 36.3257C86.9217 36.6325 87.0426 36.9215 87.1484 37.196C87.2176 37.3724 87.3696 37.5267 87.5494 37.6286C87.7305 37.7303 87.9247 37.7714 88.1107 37.739C88.2967 37.7066 88.4656 37.6024 88.6017 37.4455C88.7365 37.2888 88.8274 37.0922 88.8329 36.9029C88.8329 36.9029 88.8329 36.9029 88.8329 36.9029C88.8412 36.6175 88.8702 36.3459 88.9141 36.0885C89.0025 35.5732 89.1362 35.0295 89.1492 34.4659C89.1492 34.4657 89.1492 34.4656 89.1492 34.4655C89.1962 32.7473 89.2889 31.0025 89.3503 29.3034C89.3503 29.3033 89.3503 29.3032 89.3503 29.3031L89.3481 29.3462C89.5301 26.6118 89.8469 23.8659 90.1836 21.104C90.218 20.8223 90.2525 20.5422 90.2873 20.2601Z" fill="white"/>
<path d="M85.9245 20.6186C85.6569 20.8267 85.4828 21.1327 85.4407 21.4691C85.3986 21.8055 85.4919 22.1449 85.7 22.4126C85.9081 22.6803 86.2141 22.8543 86.5505 22.8964C86.887 22.9385 87.2263 22.8452 87.494 22.6371C88.271 22.0265 88.9985 21.4924 89.5894 21.3422C89.8728 21.2675 90.1102 21.2642 90.3774 21.3283C90.3831 21.3297 90.3888 21.3311 90.3946 21.3326C91.6506 21.7005 93.0273 23.3606 94.2526 24.7718C94.2613 24.7818 94.2699 24.7918 94.2786 24.8018C95.4049 26.1017 96.437 27.4365 97.312 28.8434C97.317 28.8514 97.3219 28.8593 97.3269 28.8673C98.4837 30.7065 99.1346 32.8078 98.5692 34.42C98.5694 34.4195 98.5695 34.419 98.5696 34.4185C98.6426 34.3726 98.1813 34.8534 97.5761 35.1292C96.9699 35.4359 96.2476 35.703 95.4978 35.9605C95.4823 35.9658 95.4668 35.9711 95.4513 35.9763C93.517 36.6391 91.1996 36.863 88.8501 37.0032C88.836 37.004 88.8219 37.0048 88.8078 37.0055C84.6633 37.2171 80.4626 37.3231 76.2628 37.4038C76.2557 37.4039 76.2486 37.404 76.2415 37.4042C73.2989 37.4582 70.3581 37.5409 67.4218 37.6369C66.4253 37.6693 65.4293 37.7029 64.4338 37.7365C64.0825 37.7483 63.7502 37.8993 63.5102 38.1561C63.2701 38.4129 63.1419 38.7546 63.1538 39.1059C63.1656 39.4572 63.3166 39.7895 63.5734 40.0295C63.8302 40.2696 64.1719 40.3978 64.5232 40.3859C64.5232 40.3859 64.5232 40.3859 64.5232 40.3859C65.5187 40.3524 66.5136 40.3188 67.508 40.2865C70.4381 40.1907 73.3633 40.1084 76.2906 40.0547C76.2977 40.0546 76.3047 40.0544 76.3118 40.0543C80.4975 39.9742 84.6845 40.048 88.924 39.9523C88.9385 39.9519 88.953 39.9515 88.9675 39.9512C91.3671 39.8668 93.8909 39.9348 96.4972 39.0669C96.5173 39.0601 96.5373 39.0533 96.5573 39.0464C97.3639 38.7673 98.1949 38.4666 99.058 38.0261C99.8819 37.548 100.965 37.1046 101.631 35.4784C101.635 35.465 101.64 35.4515 101.644 35.438C102.638 32.3236 101.422 29.3743 100.038 27.1677C100.032 27.1581 100.026 27.1484 100.02 27.1387C99.0023 25.5338 97.7941 24.0895 96.5326 22.7573C96.5229 22.747 96.5132 22.7368 96.5035 22.7266C95.0164 21.2676 93.633 19.7312 91.0293 18.8558C91.0147 18.8521 91.0001 18.8484 90.9854 18.8448C90.3196 18.6758 89.5691 18.6945 88.9271 18.8726C87.5793 19.2582 86.7161 20.0218 85.9245 20.6186Z" fill="white"/>
</svg>
