<svg width="102" height="45" viewBox="0 0 102 45" fill="none" xmlns="http://www.w3.org/2000/svg">
<path d="M28.2621 16.9024C28.2691 16.3907 28.0726 15.8972 27.7157 15.5305C27.3588 15.1637 26.8709 14.9537 26.3593 14.9467C25.8476 14.9397 25.3541 15.1363 24.9874 15.4931C24.6206 15.85 24.4106 16.3379 24.4036 16.8496C24.4036 16.8496 24.4036 16.8496 24.4036 16.8496C24.3976 17.2919 24.3905 17.7334 24.3821 18.1743C24.3179 21.607 24.1708 25.0098 23.8254 28.3836C23.8254 28.3838 23.8254 28.3839 23.8254 28.384C23.5701 30.8308 23.1787 33.3225 22.8007 35.7776C22.8007 35.7778 22.8007 35.7779 22.8007 35.7781L22.8097 35.7252C22.4443 37.6446 22.7642 39.6675 22.3797 41.5586C22.371 41.5995 22.3618 41.6403 22.3526 41.6804C22.3526 41.6806 22.3525 41.6809 22.3525 41.6811L22.3743 41.6403C22.2859 41.9769 22.4291 42.4914 22.3096 42.9717C22.7633 42.8915 23.4098 42.773 23.7142 42.4091L23.736 42.3683C23.7361 42.3681 23.7363 42.3679 23.7364 42.3677C23.7657 42.3303 23.7953 42.2921 23.8247 42.2536C25.1667 40.4738 26.3073 38.4902 26.6974 36.4404L26.7064 36.3875C26.7064 36.3873 26.7064 36.3871 26.7064 36.3869C27.0955 33.857 27.3957 31.3452 27.6644 28.7744C27.6644 28.7742 27.6645 28.7741 27.6645 28.774C28.0243 25.2585 28.175 21.7366 28.2403 18.2476C28.2488 17.7991 28.256 17.3507 28.2621 16.9024Z" fill="black"/>
<path d="M24.6079 20.4135C24.3725 20.6338 24.2342 20.9386 24.2235 21.2609C24.2129 21.5831 24.3306 21.8964 24.551 22.1318C24.7713 22.3672 25.0761 22.5054 25.3983 22.5161C25.7206 22.5268 26.0338 22.409 26.2693 22.1887C26.2693 22.1887 26.2693 22.1887 26.2693 22.1887C27.6628 20.8855 29.0297 19.6018 30.4845 18.5252C31.0095 18.1373 31.5453 17.7782 32.094 17.4626C32.1029 17.4574 32.1117 17.4524 32.1206 17.4473C33.8529 16.4551 35.8409 15.9222 37.8928 15.5919C37.9121 15.5888 37.9313 15.5857 37.9505 15.5826C39.1924 15.3848 40.4842 15.2629 41.3749 15.4722C41.3927 15.4764 41.4102 15.4807 41.4274 15.4851C41.8953 15.5938 42.3233 15.8913 42.4433 16.0773C42.4473 16.083 42.4506 16.088 42.4531 16.0919C42.3375 15.9132 42.3016 15.7031 42.3042 15.5941C42.3056 15.4805 42.3223 15.4428 42.3238 15.4347C42.3295 15.4234 42.2918 15.513 42.232 15.607C42.1087 15.8067 41.9144 16.0533 41.7015 16.2971C41.2711 16.7889 40.7717 17.2801 40.2527 17.7675C39.2148 18.7379 38.1091 19.6805 36.9872 20.6128C36.984 20.6155 36.9808 20.6182 36.9775 20.6209C35.8477 21.5561 34.5928 22.4553 33.3461 23.4342C32.7213 23.9271 32.0953 24.4333 31.4747 25.034C30.9006 25.6976 30.0761 26.1379 29.8569 27.8828C29.8556 27.9564 29.8577 28.0303 29.8634 28.1038C29.921 28.8948 30.3981 29.4836 30.7732 29.8045C31.1657 30.142 31.5329 30.3372 31.8889 30.508C32.5989 30.8383 33.2663 31.0361 33.9269 31.2152C35.2411 31.5633 36.5246 31.7947 37.7613 32.0553C37.8563 32.0753 37.9495 32.0951 38.0425 32.1152C40.0352 32.5532 42.017 33.0371 43.5731 33.9539C43.6382 33.9923 43.7021 34.0312 43.7654 34.071C44.2064 34.348 44.6143 34.668 44.9187 35.0004C45.2307 35.3171 45.375 35.7162 45.34 35.6935C45.3392 35.6885 45.3394 35.6798 45.3399 35.6741C45.3865 35.6117 45.1384 35.9252 44.714 36.1334C44.2979 36.3573 43.7833 36.5555 43.2536 36.7422C43.1802 36.768 43.1039 36.7945 43.0296 36.8199C40.9087 37.5345 38.5875 38.0004 36.268 38.3595C36.197 38.3703 36.1257 38.381 36.0541 38.3917C32.9603 38.8486 29.8151 39.0336 26.6785 39.2368C26.6217 39.2404 26.5649 39.2441 26.5081 39.2477C23.1012 39.4685 19.7047 39.5283 16.3161 39.3723C16.2765 39.3705 16.2369 39.3687 16.1973 39.3668C12.9707 39.2014 9.66076 38.9365 6.69027 38.2168C6.66844 38.2113 6.64674 38.2057 6.62518 38.2001C5.13606 37.8079 3.7732 37.4712 2.95827 36.5706C2.95019 36.5618 2.94219 36.553 2.93426 36.5442C2.42106 35.9701 2.08771 35.3261 2.05929 34.5094C2.05901 34.5011 2.05876 34.4928 2.05855 34.4845C2.04795 34.1256 2.02708 33.695 2.09982 33.2317C2.18998 32.637 2.4302 32.0103 2.86821 31.5864C2.87247 31.5823 2.87675 31.5782 2.88104 31.5741C3.8227 30.6825 4.90913 29.9657 5.9794 29.2399C4.90913 29.9657 3.8227 30.6825 2.88104 31.5741C2.87675 31.5782 2.87244 31.5822 2.86812 31.5863C2.42709 32.0042 1.85567 32.3002 1.30612 32.7434C0.884307 33.0829 0.477775 33.5278 0.26575 34.0918C0.2609 34.1047 0.256111 34.1176 0.251382 34.1305C-0.233501 35.3843 0.0155721 36.9476 0.719372 38.0848C0.729943 38.1026 0.740617 38.1204 0.751394 38.1381C1.9246 40.0839 3.97475 41.0754 5.72504 41.5641C5.75123 41.5713 5.77752 41.5784 5.80393 41.5855C9.28365 42.4716 12.6315 42.7579 16.0296 42.9394C16.071 42.9413 16.1124 42.9432 16.1538 42.9451C19.6926 43.1078 23.2391 43.0245 26.7487 42.7689C26.8072 42.7647 26.8656 42.7604 26.9241 42.756C30.1539 42.5109 33.3613 42.0194 36.5638 41.4236C36.6379 41.4098 36.7118 41.3959 36.7856 41.3819C39.1965 40.916 41.6009 40.4069 44.008 39.5019C44.093 39.4693 44.1807 39.4347 44.2654 39.4003C44.8768 39.1501 45.4882 38.8662 46.1201 38.4615C46.7151 38.0419 47.5378 37.5527 47.8895 36.2758C47.9294 36.1032 47.9512 35.9241 47.954 35.7474C47.6729 33.3117 46.2259 32.7063 45.13 31.8901C45.0456 31.8375 44.9612 31.7866 44.8756 31.7365C42.8061 30.5464 40.649 30.0805 38.581 29.6156C38.4843 29.5948 38.3876 29.5742 38.2892 29.5534C37.0166 29.2846 35.7704 29.0452 34.6075 28.7215C34.0302 28.5597 33.4662 28.3738 33.0148 28.1539C32.7922 28.0461 32.6003 27.9237 32.5062 27.8361C32.4011 27.7391 32.4769 27.7637 32.4913 27.9063C32.4924 27.9175 32.4928 27.9285 32.4928 27.9384C32.4728 28.0636 32.5231 27.8486 32.6889 27.6483C32.8483 27.4374 33.0762 27.1989 33.324 26.9672C33.8239 26.5009 34.4073 26.0439 35.0067 25.5919C36.2113 24.6844 37.4938 23.8066 38.7553 22.7839C38.7586 22.7812 38.762 22.7785 38.7653 22.7758C39.9211 21.8327 41.0644 20.878 42.1857 19.8446C42.7495 19.3215 43.2989 18.7927 43.8449 18.1754C44.1187 17.8613 44.3853 17.5423 44.6565 17.1118C44.7894 16.8936 44.9272 16.658 45.0458 16.2941C45.1469 15.9593 45.3099 15.2956 44.8684 14.5698C44.8397 14.5243 44.8098 14.4795 44.7799 14.437C44.0177 13.4061 43.0342 12.9738 42.0595 12.7468C42.025 12.7393 41.9904 12.732 41.9556 12.7251C40.2288 12.422 38.8419 12.7423 37.4838 12.9868C37.4632 12.9909 37.4425 12.995 37.4217 12.9991C35.2022 13.4368 32.9602 14.1624 30.9129 15.3371C30.9024 15.3431 30.8919 15.3491 30.8815 15.3551C30.2349 15.7272 29.6239 16.1382 29.0397 16.5697C27.423 17.768 26.0034 19.1103 24.6079 20.4135Z" fill="black"/>
<path d="M46.4515 18.3504C46.2025 18.5313 46.0355 18.8038 45.9873 19.1079C45.9391 19.4119 46.0137 19.7227 46.1947 19.9718C46.3756 20.2208 46.6481 20.3878 46.9522 20.436C47.2562 20.4841 47.567 20.4096 47.8161 20.2286C47.8161 20.2286 47.8161 20.2286 47.8161 20.2286C48.0652 20.0476 48.3039 19.8743 48.5035 19.7522C48.5778 19.7066 48.6464 19.6697 48.6849 19.6526C48.7158 19.6322 48.748 19.653 48.5514 19.6637C48.5306 19.6638 48.5061 19.663 48.4798 19.6606C48.494 19.6639 48.4217 19.6527 48.362 19.6063C48.3009 19.5609 48.2911 19.5257 48.3031 19.5612C48.3312 19.6298 48.3677 19.8869 48.3574 20.1574C48.3421 20.7148 48.2221 21.3766 48.0822 22.0319C47.8012 23.3637 47.3979 24.7064 47.201 26.2588L47.1971 26.298C47.1902 26.376 47.1834 26.457 47.1771 26.535C47.0335 28.4024 47.5523 30.2637 47.5836 32.1335C47.5842 32.1596 47.5848 32.1854 47.5852 32.2109C47.5976 32.8061 47.6261 33.4123 47.7364 34.0451C47.7946 34.3835 47.8879 34.728 47.9754 35.0244C48.03 35.2121 48.1569 35.3705 48.3282 35.4647C48.4996 35.5589 48.7013 35.5812 48.8891 35.5267C49.0768 35.4721 49.2353 35.3452 49.3295 35.1738C49.4236 35.0025 49.4459 34.8008 49.3914 34.613C49.3914 34.613 49.3914 34.613 49.3914 34.613C49.3037 34.3151 49.2358 34.0611 49.1884 33.7887C49.0999 33.2852 49.0703 32.7385 49.0595 32.1838C49.059 32.1599 49.0588 32.1358 49.0586 32.1115C49.0609 30.3274 49.7799 28.5332 49.9172 26.7559C49.9233 26.6813 49.9295 26.6041 49.9355 26.5298L49.9316 26.569C50.0754 25.3217 50.3725 23.9164 50.5726 22.4665C50.6703 21.7347 50.765 20.9895 50.744 20.1346C50.7237 19.7037 50.7013 19.2403 50.4598 18.6534C50.2767 18.064 49.3923 17.3422 48.6855 17.3482C48.6358 17.3437 48.5866 17.342 48.5419 17.3422C47.7312 17.4107 47.5779 17.6305 47.2931 17.7711C46.9647 17.9736 46.7041 18.1679 46.4515 18.3504Z" fill="black"/>
<path d="M47.8315 24.4327C47.7089 24.714 47.7032 25.0324 47.8155 25.318C47.9278 25.6035 48.1489 25.8327 48.4302 25.9553C48.7115 26.0778 49.0299 26.0835 49.3154 25.9712C49.601 25.859 49.8302 25.6378 49.9527 25.3565C49.9527 25.3565 49.9527 25.3565 49.9527 25.3565C50.2914 24.5792 50.6569 23.8201 51.0567 23.0872C52.2634 20.8883 53.8729 18.7046 55.8717 17.9478C55.8963 17.9388 55.921 17.9303 55.9457 17.9225C56.5764 17.715 57.2241 17.8217 57.5678 17.9721C57.5867 17.9797 57.6049 17.9876 57.6221 17.9956C57.7546 18.1016 57.6163 18.0009 57.6911 18.1677C57.6952 18.183 57.6993 18.2 57.7033 18.2191C57.9099 18.8917 56.9985 20.5386 55.9416 21.7686C55.905 21.8128 55.868 21.8572 55.8305 21.9017C54.4303 23.5707 52.5414 24.766 50.4293 26.3515C50.359 26.4073 50.2835 26.4691 50.2119 26.5302C50.0912 26.6599 49.9449 26.6749 49.6683 27.2756C49.5966 27.4633 49.5389 27.7043 49.5605 28.0029C49.58 28.3251 49.7253 28.6639 49.887 28.872C50.0288 29.0603 50.1788 29.1818 50.3054 29.2662C50.433 29.3489 50.4969 29.3774 50.5774 29.4135C50.877 29.5353 50.9861 29.5364 51.0939 29.5563C51.2079 29.5722 51.2752 29.5763 51.3535 29.5805C51.6278 29.5918 51.8111 29.5781 51.9988 29.5652C52.3638 29.5372 52.6883 29.4957 53.0069 29.4572C53.6213 29.3809 54.3095 29.3031 54.6623 29.3341C54.658 29.3332 54.6522 29.3319 54.6462 29.3304C54.5669 29.299 54.6898 29.335 54.8286 29.5983C54.8371 29.6146 54.8469 29.6348 54.8565 29.6563C55.2764 30.6915 55.1235 32.9459 55.2536 34.8605C55.2566 34.9108 55.2601 34.961 55.264 35.0111C55.4941 37.853 56.8983 40.2024 58.3048 42.1781L58.3854 42.2817C58.3999 42.2987 58.4143 42.3157 58.4288 42.3327C59.1956 43.2236 60.8524 43.0305 61.8188 43.3903C61.9479 43.4392 62.0673 43.4991 62.1751 43.5745C62.1814 43.5789 62.1876 43.5834 62.1938 43.5879C62.7873 44.0243 63.43 44.3891 64.0902 44.7146C63.43 44.3891 62.7873 44.0243 62.1938 43.5879C62.1876 43.5834 62.1815 43.5788 62.1753 43.5741C62.0705 43.4947 61.9792 43.3967 61.8998 43.285C61.2764 42.4164 61.4453 40.8554 60.9044 40.2195C60.8935 40.2067 60.8827 40.1939 60.8719 40.1811L60.9525 40.2847C59.6668 38.4915 58.6528 36.6152 58.5168 34.7568C58.5142 34.7236 58.5118 34.6904 58.5096 34.6571C58.3039 32.7255 58.5295 30.966 57.5041 28.3575C57.4665 28.2827 57.4231 28.2025 57.3779 28.1259C57.0258 27.5343 56.4193 26.7648 55.353 26.4916C55.231 26.4612 55.1072 26.439 54.984 26.4249C54.0589 26.3431 53.4574 26.3923 52.7915 26.3974C52.4703 26.4035 52.1529 26.4104 51.8763 26.4081C51.7424 26.4071 51.6035 26.4017 51.5593 26.3936C51.5506 26.392 51.5484 26.3898 51.5766 26.3929C51.6093 26.401 51.6375 26.3869 51.8604 26.4761C51.9216 26.5036 51.9723 26.5255 52.0809 26.5959C52.1891 26.6681 52.3244 26.7762 52.4553 26.9501C52.6048 27.1418 52.7423 27.4613 52.7603 27.7633C52.7806 28.043 52.7262 28.2656 52.6623 28.4326C52.4163 28.9611 52.3268 28.9227 52.2741 28.9942C52.3221 28.9551 52.3765 28.9115 52.4296 28.8693C54.2162 27.5146 56.503 26.0172 58.2287 23.8808C58.2712 23.8284 58.3133 23.7759 58.3551 23.7234C59.4538 22.1634 61.0818 20.5289 60.5661 17.4911C60.5459 17.4149 60.5232 17.3386 60.4971 17.2605C60.2757 16.4178 59.3186 15.4744 58.4294 15.3053C58.3664 15.2892 58.303 15.2748 58.2399 15.2621C57.0332 15.0348 56.0519 15.4316 55.1935 15.7325C55.1551 15.7464 55.1166 15.7603 55.0781 15.7744C52.013 17.014 50.3908 19.583 49.0256 21.9789C48.5876 22.782 48.1937 23.6013 47.8315 24.4327Z" fill="black"/>
<path d="M66.4016 20.69C66.517 20.2428 66.4501 19.7682 66.2155 19.3704C65.9809 18.9726 65.5979 18.6843 65.1508 18.5689C64.7036 18.4536 64.229 18.5205 63.8312 18.7551C63.4334 18.9897 63.1451 19.3727 63.0298 19.8198C63.0298 19.8198 63.0298 19.8198 63.0298 19.8198C62.9542 20.1126 62.8787 20.405 62.8032 20.6973C62.378 22.3429 61.9494 23.9784 61.501 25.6073C61.5007 25.6081 61.5005 25.609 61.5003 25.6098C60.9538 27.6065 60.3629 29.5999 59.8643 31.7093C59.8639 31.7109 59.8635 31.7125 59.8631 31.7141L59.8472 31.7906C59.5807 33.5069 59.6375 35.1388 60.2395 37.2529C60.2585 37.3033 60.2802 37.3581 60.3042 37.4119C60.3048 37.4134 60.3055 37.4148 60.3061 37.4163L60.3864 37.5956C60.7338 38.0899 61.3219 38.1018 61.5834 38.0795C61.6792 38.0762 61.792 38.0265 61.8869 37.9636C61.9825 37.8993 62.0525 37.827 62.0914 37.7403C62.1303 37.6536 62.138 37.5533 62.1225 37.4392C62.1065 37.3263 62.0688 37.209 62.0077 37.1352C62.0077 37.1352 62.0077 37.1352 62.0077 37.1352C61.9124 37.0227 61.8519 36.8979 61.8553 36.8088C61.8557 36.717 61.9248 36.6849 61.9492 36.6811L62.0294 36.8603C62.0295 36.86 62.0296 36.8597 62.0296 36.8594C62.0327 36.8482 62.0351 36.8327 62.0376 36.8155C62.1743 35.6365 63.0001 33.9584 63.2712 32.4252L63.2553 32.5016C63.2556 32.5002 63.256 32.4987 63.2563 32.4972C63.7145 30.5545 64.3046 28.552 64.8579 26.5335C64.8581 26.5327 64.8583 26.5319 64.8586 26.5311C65.314 24.877 65.7482 23.2198 66.1747 21.5689C66.2505 21.2757 66.3261 20.9827 66.4016 20.69Z" fill="black"/>
<path d="M67.1813 19.9906C67.1454 19.598 66.955 19.2358 66.652 18.9837C66.3491 18.7315 65.9583 18.61 65.5658 18.6459C65.1732 18.6818 64.811 18.8722 64.5588 19.1751C64.3067 19.4781 64.1852 19.8688 64.2211 20.2614C64.2211 20.2614 64.2211 20.2614 64.2211 20.2614C64.2539 20.6207 64.2894 20.9802 64.3278 21.3399C64.6681 24.5891 65.2839 27.8363 66.1776 30.987C66.1779 30.9881 66.1782 30.9891 66.1785 30.9902C66.8728 33.3873 67.9135 35.5193 68.9238 37.6211C68.9242 37.622 68.9247 37.6229 68.9251 37.6238C69.3301 38.422 70.1385 38.961 70.875 39.747C70.9421 39.8128 71.0144 39.8819 71.0887 39.9486C71.0899 39.9497 71.0911 39.9508 71.0923 39.9518C71.3511 40.2383 72.0111 40.4337 72.2909 40.4057C72.4697 40.4124 72.6438 40.3479 72.775 40.2263C72.9062 40.1046 72.9836 39.9359 72.9904 39.7571C72.9971 39.5783 72.9326 39.4042 72.8109 39.273C72.6893 39.1419 72.5205 39.0644 72.3418 39.0576C72.3418 39.0576 72.3418 39.0576 72.3418 39.0576C72.0581 39.04 72.1438 39.0559 71.992 38.9467C71.9915 38.9462 71.991 38.9458 71.9906 38.9453C71.9602 38.9181 71.9329 38.8846 71.9075 38.8445C71.5756 38.2958 71.7298 37.237 71.4109 36.4969C71.4105 36.4959 71.4101 36.495 71.4097 36.4941C70.5067 34.3703 69.6346 32.2505 69.0394 30.183C69.0391 30.182 69.0388 30.181 69.0385 30.18C68.1887 27.1812 67.6096 24.1307 67.2835 21.0247C67.2469 20.6807 67.2129 20.336 67.1813 19.9906Z" fill="black"/>
<path d="M58.4236 33.4607C58.2043 33.5097 58.0135 33.6438 57.8932 33.8335C57.7728 34.0232 57.7327 34.2529 57.7817 34.4722C57.8308 34.6914 57.9649 34.8822 58.1546 35.0026C58.3442 35.1229 58.574 35.163 58.7932 35.114C58.7932 35.114 58.7932 35.114 58.7932 35.114C59.1279 35.0392 59.4626 34.9643 59.7973 34.8895C63.6098 34.0398 67.4254 33.1781 71.2356 32.3884C71.2356 32.3884 71.2357 32.3884 71.2357 32.3884C73.0639 32.0143 74.7402 30.8268 76.6106 30.5749C76.6106 30.5748 76.6106 30.5748 76.6106 30.5748C76.9946 30.5218 77.3783 30.4699 77.7624 30.4199C78.1024 30.3756 78.4426 30.3332 78.7829 30.291C78.4426 30.3332 78.1024 30.3756 77.7624 30.4199C77.3783 30.4699 76.9946 30.5218 76.6106 30.5748C76.6106 30.5748 76.6106 30.5748 76.6106 30.5749C74.7586 30.8236 72.7481 30.3497 70.8948 30.7289C70.8947 30.729 70.8947 30.729 70.8947 30.729C67.0552 31.5248 63.2427 32.386 59.4277 33.2362C59.093 33.311 58.7583 33.3859 58.4236 33.4607Z" fill="black"/>
<path d="M76.7104 21.9452C76.8301 21.586 76.8021 21.194 76.6327 20.8554C76.4633 20.5169 76.1664 20.2595 75.8072 20.1398C75.448 20.0202 75.056 20.0482 74.7174 20.2176C74.3789 20.3869 74.1214 20.6839 74.0018 21.0431C74.0018 21.0431 74.0018 21.0431 74.0018 21.0431C73.9298 21.2594 73.8577 21.4759 73.7856 21.6924C72.8984 24.3854 71.9776 27.0524 71.2495 29.9007C71.249 29.9029 71.2484 29.9052 71.2479 29.9074C70.9301 31.2244 71.6552 32.7282 71.7559 34.036C71.7598 34.0818 71.7632 34.131 71.7657 34.1767C71.7659 34.1813 71.7661 34.1858 71.7664 34.1903C71.773 34.2892 71.7717 34.3648 71.8001 34.5134C71.8062 34.5373 71.8077 34.5557 71.8332 34.6139C71.8594 34.645 71.8333 34.6956 72.0236 34.7976C72.1225 34.8467 72.286 34.8091 72.331 34.7729C72.3954 34.7314 72.4066 34.7117 72.4265 34.6892C72.5122 34.5638 72.4938 34.5602 72.5109 34.5224C72.5303 34.4627 72.5414 34.418 72.5532 34.3742C72.5761 34.2877 72.5638 34.1957 72.5189 34.1183C72.474 34.041 72.4002 33.9846 72.3137 33.9617C72.2272 33.9388 72.1352 33.9511 72.0579 33.996C71.9805 34.0409 71.9242 34.1147 71.9012 34.2012C71.9012 34.2012 71.9012 34.2012 71.9012 34.2012C71.8899 34.2438 71.8786 34.286 71.8703 34.3114C71.873 34.3154 71.8411 34.3558 71.9006 34.2668C71.9165 34.2492 71.9247 34.2326 71.9837 34.1947C72.0243 34.1613 72.1813 34.1249 72.2754 34.1718C72.4552 34.269 72.4239 34.3094 72.445 34.3299C72.461 34.3672 72.4574 34.365 72.4584 34.3665C72.4522 34.339 72.4437 34.2354 72.44 34.156C72.4398 34.152 72.4396 34.1479 72.4394 34.1438C72.4376 34.1024 72.4374 34.0581 72.4389 34.0168C72.4971 32.7681 73.7395 31.751 74.0194 30.5923C74.0199 30.5903 74.0204 30.5883 74.0209 30.5862C74.6912 27.9569 75.6117 25.2687 76.4945 22.5939C76.5664 22.3778 76.6384 22.1615 76.7104 21.9452Z" fill="black"/>
<path d="M77.4808 21.7884C77.4808 21.4857 77.3605 21.1954 77.1465 20.9814C76.9325 20.7674 76.6423 20.6472 76.3396 20.6472C76.0369 20.6472 75.7467 20.7674 75.5327 20.9814C75.3187 21.1954 75.1984 21.4857 75.1984 21.7884C75.1985 22.5448 75.217 23.3022 75.2568 24.0601C75.3542 25.8598 75.5559 27.6649 75.9898 29.4684C75.9904 29.4711 75.9911 29.4738 75.9917 29.4764C76.2982 30.8729 77.2421 32.3079 78.559 33.0537C78.5596 33.0541 78.5603 33.0544 78.5609 33.0548C79.6255 33.6419 80.7062 33.225 81.2715 32.7035C81.2727 32.7024 81.2739 32.7013 81.2751 32.7002C83.0149 30.6084 82.7629 29.1415 83.1107 27.6672C83.1119 27.659 83.1131 27.6509 83.1144 27.6427C83.5432 24.4853 83.362 21.5884 83.2341 18.6971C83.2339 18.6921 83.2336 18.6872 83.2333 18.6822C83.0389 15.4321 82.5011 12.3397 82.1179 9.27887L82.1207 9.31534C82.1205 9.31357 82.1203 9.3118 82.1201 9.31003C81.9106 6.97126 81.4016 4.55748 81.6875 2.4856C81.6999 2.41077 81.7138 2.33725 81.729 2.26532C81.7291 2.26488 81.7292 2.26444 81.7293 2.264L81.6624 2.41562C81.7938 2.02726 82.1289 1.5884 82.6036 1.12917C82.7125 1.02113 82.7765 0.863274 82.7892 0.700354C82.8013 0.536851 82.761 0.381656 82.6697 0.258876C82.5783 0.136097 82.4413 0.052904 82.2812 0.0175672C82.1215 -0.0171869 81.9519 -0.00121462 81.8171 0.0720033C81.8171 0.0720033 81.8171 0.0720033 81.8171 0.0720033C81.256 0.379206 80.5238 0.750065 80.0286 1.51336L79.9617 1.66498C79.9614 1.66555 79.9612 1.66612 79.9609 1.6667C79.92 1.76089 79.881 1.85639 79.844 1.9526C78.9413 4.57508 78.8857 7.05823 78.9109 9.51324C78.9109 9.51508 78.911 9.51692 78.911 9.51876L78.9138 9.55523C79.0811 12.7378 79.3822 15.8716 79.5603 18.8806C79.5605 18.8851 79.5608 18.8896 79.561 18.8941C79.6966 21.7545 80.0072 24.6393 79.7686 27.2187C79.7679 27.2254 79.7672 27.2321 79.7665 27.2388C79.6883 27.9865 79.6481 28.7155 79.5786 29.3697C79.5265 30.0089 79.3428 30.6332 79.3044 30.7001C79.3044 30.7002 79.3044 30.7003 79.3044 30.7004C79.3137 30.7136 79.3336 30.7316 79.4068 30.7431C79.4736 30.7535 79.643 30.7803 79.7707 30.8648C79.7708 30.8649 79.771 30.865 79.7712 30.8651C78.9924 30.4917 78.4285 29.8481 78.2093 28.9367C78.2088 28.9343 78.2082 28.9319 78.2076 28.9296C77.821 27.3266 77.6269 25.6364 77.536 23.9403C77.4984 23.2253 77.4808 22.5072 77.4808 21.7884Z" fill="black"/>
<path d="M90.288 20.2601C90.3378 19.8564 90.2252 19.4496 89.9751 19.129C89.7249 18.8084 89.3576 18.6003 88.954 18.5505C88.5504 18.5007 88.1435 18.6132 87.8229 18.8634C87.5023 19.1136 87.2942 19.4809 87.2444 19.8845C87.2095 20.1676 87.1749 20.449 87.1403 20.7323C86.802 23.5089 86.4778 26.3085 86.2889 29.1422L86.2867 29.1852C86.2867 29.1853 86.2867 29.1854 86.2867 29.1855C86.2222 30.9816 86.303 32.7373 86.4053 34.516C86.4053 34.5161 86.4053 34.5163 86.4053 34.5164C86.4419 35.1 86.599 35.7019 86.8153 36.3257C86.9224 36.6325 87.0434 36.9215 87.1492 37.196C87.2183 37.3724 87.3703 37.5267 87.5501 37.6286C87.7312 37.7303 87.9254 37.7714 88.1114 37.739C88.2975 37.7066 88.4663 37.6024 88.6024 37.4455C88.7372 37.2888 88.8282 37.0922 88.8337 36.9029C88.8337 36.9029 88.8337 36.9029 88.8337 36.9029C88.842 36.6175 88.8709 36.3459 88.9148 36.0885C89.0032 35.5732 89.1369 35.0295 89.1499 34.4659C89.1499 34.4657 89.1499 34.4656 89.1499 34.4655C89.1969 32.7473 89.2897 31.0025 89.3511 29.3034C89.3511 29.3033 89.3511 29.3032 89.3511 29.3031L89.3488 29.3462C89.5309 26.6118 89.8477 23.8659 90.1844 21.104C90.2188 20.8223 90.2532 20.5422 90.288 20.2601Z" fill="black"/>
<path d="M85.9253 20.6186C85.6576 20.8267 85.4836 21.1327 85.4415 21.4691C85.3994 21.8055 85.4926 22.1449 85.7008 22.4126C85.9089 22.6803 86.2148 22.8543 86.5512 22.8964C86.8877 22.9385 87.2271 22.8452 87.4947 22.6371C88.2717 22.0265 88.9992 21.4924 89.5902 21.3422C89.8735 21.2675 90.111 21.2642 90.3781 21.3283C90.3838 21.3297 90.3895 21.3311 90.3953 21.3326C91.6514 21.7005 93.028 23.3606 94.2534 24.7718C94.262 24.7818 94.2707 24.7918 94.2793 24.8018C95.4057 26.1017 96.4377 27.4365 97.3127 28.8434C97.3177 28.8514 97.3227 28.8593 97.3276 28.8673C98.4844 30.7065 99.1353 32.8078 98.57 34.42C98.5701 34.4195 98.5702 34.419 98.5704 34.4185C98.6434 34.3726 98.182 34.8534 97.5769 35.1292C96.9706 35.4359 96.2484 35.703 95.4986 35.9605C95.4831 35.9658 95.4676 35.9711 95.4521 35.9763C93.5178 36.6391 91.2003 36.863 88.8508 37.0032C88.8368 37.004 88.8226 37.0048 88.8085 37.0055C84.664 37.2171 80.4633 37.3231 76.2635 37.4038C76.2564 37.4039 76.2493 37.404 76.2422 37.4042C73.2996 37.4582 70.3588 37.5409 67.4225 37.6369C66.426 37.6693 65.4301 37.7029 64.4346 37.7365C64.0832 37.7483 63.751 37.8993 63.5109 38.1561C63.2709 38.4129 63.1427 38.7546 63.1545 39.1059C63.1664 39.4572 63.3173 39.7895 63.5741 40.0295C63.8309 40.2696 64.1726 40.3978 64.5239 40.3859C64.5239 40.3859 64.5239 40.3859 64.5239 40.3859C65.5195 40.3524 66.5143 40.3188 67.5087 40.2865C70.4388 40.1907 73.3641 40.1084 76.2913 40.0547C76.2984 40.0546 76.3054 40.0544 76.3125 40.0543C80.4983 39.9742 84.6853 40.048 88.9247 39.9523C88.9392 39.9519 88.9537 39.9515 88.9682 39.9512C91.3678 39.8668 93.8916 39.9348 96.4979 39.0669C96.518 39.0601 96.538 39.0533 96.558 39.0464C97.3647 38.7673 98.1957 38.4666 99.0587 38.0261C99.8826 37.548 100.966 37.1046 101.631 35.4784C101.636 35.465 101.64 35.4515 101.645 35.438C102.638 32.3236 101.422 29.3743 100.039 27.1677C100.033 27.1581 100.027 27.1484 100.021 27.1387C99.003 25.5338 97.7948 24.0895 96.5334 22.7573C96.5237 22.747 96.514 22.7368 96.5042 22.7266C95.0172 21.2676 93.6337 19.7312 91.0301 18.8558C91.0155 18.8521 91.0008 18.8484 90.9862 18.8448C90.3203 18.6758 89.5699 18.6945 88.9278 18.8726C87.5801 19.2582 86.7168 20.0218 85.9253 20.6186Z" fill="black"/>
</svg>
