<svg width="166" height="45" viewBox="0 0 166 45" fill="none" xmlns="http://www.w3.org/2000/svg">
<path d="M0.437944 8.08702C0.192305 8.28873 0.0368555 8.57975 0.00579202 8.89608C-0.0252714 9.2124 0.0705959 9.5281 0.272304 9.77374C0.474013 10.0194 0.765039 10.1748 1.08136 10.2059C1.39768 10.237 1.71339 10.1411 1.95903 9.93938C1.95903 9.93938 1.95903 9.93938 1.95903 9.93938C2.75629 9.28477 3.55258 8.63985 4.35702 8.00353C6.74065 6.14797 9.20071 4.19705 11.7269 3.05858C12.0224 2.93392 12.3226 2.84634 12.5962 2.80573C13.2057 2.71544 13.9176 2.77754 14.5608 2.87929C15.0091 2.94791 15.48 3.0984 15.6754 3.23051C15.7711 3.33856 15.5987 3.16438 15.6631 3.28636C15.7124 3.43166 15.7286 3.8973 15.6968 4.3849C15.5724 6.55849 14.6124 9.06194 13.7651 11.4686C13.6285 11.8437 13.4915 12.2145 13.3491 12.5958C10.7629 19.441 7.93096 26.2593 5.2918 33.1884C5.23968 33.3262 5.19051 33.4626 5.14414 33.5975C4.41503 35.7835 4.06111 38.054 3.72254 40.4681C3.67848 40.8682 3.64981 41.3117 3.68711 41.7506C3.68938 41.7795 3.69186 41.8077 3.69446 41.8352C3.74022 42.5611 4.07155 43.3833 4.41165 43.9271C4.50666 44.0933 4.66377 44.2148 4.84841 44.2651C5.03306 44.3154 5.23012 44.2903 5.39625 44.1953C5.56237 44.1003 5.68395 43.9432 5.73423 43.7585C5.78452 43.5739 5.7594 43.3768 5.66439 43.2107C5.66439 43.2107 5.66439 43.2107 5.66439 43.2107C5.33684 42.6604 5.18266 42.2597 5.13116 41.699C5.1292 41.6784 5.12741 41.6579 5.1258 41.6374C5.10102 41.3421 5.14079 41.0473 5.22026 40.7223C5.78013 38.6944 7.13427 36.7436 7.97938 34.6761C8.03348 34.5468 8.0869 34.4146 8.13939 34.2793C10.811 27.4422 13.713 20.6609 16.3455 13.7171C16.4913 13.328 16.6317 12.9485 16.772 12.5633C17.6346 10.0511 18.6693 7.62685 18.8918 4.56423C18.9136 3.97025 18.9787 3.33336 18.7449 2.42461C18.5814 1.64064 17.7559 0.684215 16.9938 0.416772C16.153 0.0779461 15.4852 0.0372739 14.8062 0.00347078C13.8566 -0.0238752 12.9484 0.11095 12.0021 0.394522C11.5673 0.528986 11.1753 0.690534 10.7959 0.849922C7.7053 2.26179 5.33566 4.22164 2.87015 6.12359C2.05083 6.77169 1.24384 7.42532 0.437944 8.08702Z" fill="black"/>
<path d="M22.689 13.4491C22.7509 13.0293 22.6434 12.6021 22.3903 12.2615C22.1372 11.9209 21.7592 11.6948 21.3394 11.6329C20.9196 11.571 20.4924 11.6785 20.1518 11.9316C19.8112 12.1847 19.5851 12.5627 19.5232 12.9825C19.5232 12.9825 19.5232 12.9825 19.5232 12.9825C19.4639 13.385 19.4046 13.7869 19.3451 14.1883C18.8799 17.319 18.3993 20.4217 17.7083 23.4387C17.7037 23.4588 17.6991 23.4789 17.6945 23.499C17.0632 26.264 16.2117 28.9611 15.3878 31.8134C15.3829 31.8308 15.3781 31.8481 15.3733 31.8653C15.1011 32.9488 14.7962 34.0068 14.9311 35.5346C14.9346 35.5637 14.9382 35.5925 14.9423 35.6233C14.9641 35.7864 15.0416 35.9781 15.1756 36.1696C15.4016 36.5054 15.8084 36.7619 16.1702 36.8208C16.5361 36.8902 16.8652 36.8389 17.1402 36.8236C17.1402 36.8236 17.1402 36.8236 17.1402 36.8236C17.0987 36.5522 17.1254 36.2262 17.2379 35.9762C17.3456 35.7178 17.5628 35.6037 17.6934 35.5436C17.77 35.504 17.8165 35.459 17.8187 35.3852C17.8191 35.3715 17.8196 35.3574 17.8201 35.342C17.8422 34.7238 18.1907 33.6931 18.4563 32.7227C18.4607 32.7068 18.4652 32.6908 18.4697 32.6747C19.2542 29.9556 20.1525 27.1108 20.8127 24.2177C20.8176 24.1966 20.8224 24.1754 20.8273 24.1543C21.5532 20.9821 22.0423 17.8049 22.5104 14.658C22.5703 14.2546 22.6297 13.8516 22.689 13.4491Z" fill="black"/>
<path d="M21.3117 14.0312C21.2782 14.2281 21.3242 14.4302 21.4397 14.5931C21.5552 14.756 21.7306 14.8664 21.9275 14.8999C22.1244 14.9335 22.3265 14.8874 22.4894 14.772C22.6523 14.6565 22.7627 14.481 22.7962 14.2841C22.821 14.1377 22.8441 14.0077 22.869 13.9182C22.8882 13.828 22.9358 13.7928 22.8588 13.8769C22.8559 13.8796 22.8529 13.8823 22.8499 13.885C22.7547 13.9779 22.5967 14.0507 22.536 14.0903C22.4918 14.1193 22.4726 14.1454 22.4837 14.1631C22.4863 14.1672 22.4898 14.1721 22.4939 14.1778C23.1259 15.0063 23.3977 17.1934 23.7318 18.9241C23.7324 18.9274 23.733 18.9307 23.7336 18.934C24.3387 22.1687 24.2267 25.4337 24.4295 28.9718C24.4385 29.096 24.4488 29.2186 24.4606 29.3424C24.6413 31.1659 25.041 33.0158 25.9856 34.7879C26.1422 35.0774 26.3421 35.3283 26.5517 35.5321C27.2541 36.1933 28.0172 36.2923 28.6547 36.2958C28.81 36.2999 28.9625 36.2939 29.1116 36.2799C29.5997 36.2365 30.0212 35.6639 30.3027 35.3005C30.3911 35.1912 30.4738 35.1003 30.5617 35.0447C30.5936 35.0247 30.6257 35.0094 30.6598 34.9989C30.9738 34.9067 31.2607 34.7432 31.5337 34.5655C31.5337 34.5655 31.5337 34.5655 31.5337 34.5655C31.2607 34.7432 30.9738 34.9067 30.6598 34.9989C30.6257 35.0094 30.5901 35.0132 30.5529 35.0115C30.4498 35.0067 30.3384 34.9576 30.2317 34.8814C29.8625 34.6281 29.6164 34.0702 29.4511 33.9325C29.3945 33.8888 29.3434 33.8422 29.2974 33.7946C28.9857 33.5502 28.7989 33.2683 28.7853 33.2407C28.7769 33.2323 28.7871 33.2409 28.7987 33.2625C28.1501 32.0591 27.7904 30.5573 27.6463 29.0399C27.6364 28.9366 27.6275 28.8339 27.6192 28.7296C27.4086 25.4524 27.1942 21.829 26.3019 18.3724C26.301 18.3688 26.3001 18.3652 26.2992 18.3617C25.7155 16.5253 25.6545 14.7138 23.7736 12.6999C23.74 12.673 23.7052 12.6466 23.6689 12.6208C23.5141 12.5112 23.3119 12.4301 23.0676 12.396C22.7112 12.3374 22.1984 12.4399 21.8648 12.7459C21.8541 12.7552 21.8436 12.7646 21.8333 12.7742C21.299 13.3821 21.3967 13.7323 21.3117 14.0312Z" fill="black"/>
<path d="M35.0184 14.2479C35.0686 13.8265 34.9493 13.4025 34.6869 13.069C34.4244 12.7356 34.0403 12.52 33.6189 12.4698C33.1975 12.4196 32.7735 12.5389 32.44 12.8013C32.1066 13.0638 31.891 13.4479 31.8408 13.8693C31.8408 13.8693 31.8408 13.8693 31.8408 13.8693C31.7863 14.3272 31.7318 14.7848 31.6771 15.2425C31.1215 19.8619 30.5816 24.4874 29.8836 29.0394C29.8776 29.0776 29.8717 29.1158 29.8657 29.1538C29.4457 31.8932 28.9007 34.5384 28.3257 37.338C28.3162 37.3873 28.307 37.4359 28.298 37.4836C28.1641 38.2634 29.1131 39.3265 29.5823 40.0625C29.6348 40.1388 29.6843 40.2107 29.7292 40.2799C29.7585 40.3252 29.7859 40.3697 29.8118 40.4151C29.9741 40.7073 30.2726 40.882 30.5572 41.0389C30.5572 41.0389 30.5572 41.0389 30.5572 41.0389C30.2726 40.882 29.9741 40.7073 29.8118 40.4151C29.7859 40.3697 29.7681 40.3199 29.7585 40.2682C29.7436 40.1889 29.7481 40.1054 29.7688 40.0247C30.0095 39.2457 31.3246 38.7881 31.4428 38.0754C31.451 38.0322 31.4594 37.988 31.4681 37.9428C32.0181 35.2681 32.6017 32.4327 33.0272 29.6485C33.0333 29.6095 33.0394 29.5705 33.0455 29.5312C33.7586 24.8789 34.2977 20.2492 34.8546 15.6217C34.9093 15.1635 34.9638 14.7058 35.0184 14.2479Z" fill="black"/>
<path d="M37.5822 16.0367C37.556 16.4219 37.6839 16.8017 37.9378 17.0926C38.1917 17.3834 38.5507 17.5615 38.9359 17.5877C39.321 17.6139 39.7008 17.486 39.9917 17.2321C40.2826 16.9783 40.4607 16.6192 40.4869 16.2341C40.4869 16.2341 40.4869 16.2341 40.4869 16.2341C40.5009 16.0272 40.515 15.8204 40.529 15.6133C40.536 15.5102 40.543 15.4061 40.55 15.3026C40.5535 15.2506 40.557 15.1991 40.5605 15.1466C40.5623 15.1204 40.564 15.094 40.5657 15.0679C40.5667 15.0538 40.5675 15.0405 40.5684 15.0268C40.5689 15.0188 40.5693 15.0127 40.5699 15.003C40.5702 14.9983 40.5704 14.9966 40.5714 14.9763C40.5717 14.9692 40.5722 14.9651 40.5729 14.9357C40.5721 14.9106 40.578 14.9259 40.5676 14.7735C40.55 14.703 40.6028 14.7462 40.46 14.3392C40.4085 14.2319 40.3502 14.0548 40.0669 13.7988C39.9197 13.6721 39.6977 13.5332 39.3986 13.474C39.1049 13.4118 38.7749 13.4646 38.5633 13.5563C38.1121 13.7601 37.9989 13.9745 37.9082 14.0922C37.8276 14.2143 37.7963 14.2904 37.7725 14.3459C37.6924 14.5546 37.7011 14.5775 37.6891 14.6222C37.6821 14.6583 37.6796 14.6763 37.6774 14.6908C37.6607 14.8235 37.6689 14.7667 37.6668 14.783C37.6662 14.7894 37.6659 14.7933 37.6656 14.7974C37.6632 14.8287 37.6619 14.8449 37.6598 14.8703C37.6594 14.8749 37.659 14.8797 37.6586 14.8849C37.5163 16.3514 37.1753 17.8905 36.972 19.4176C36.9669 19.4548 36.962 19.4923 36.957 19.5301C36.3426 24.2094 35.6867 28.8952 35.0793 33.5987C35.0703 33.6687 35.0615 33.7377 35.0529 33.8056C34.9604 34.5353 34.9283 35.2735 34.9293 36.0315C34.9307 36.4081 34.9385 36.7936 34.962 37.2048C34.9747 37.415 34.9885 37.6216 35.0243 37.8906C35.0439 38.026 35.0653 38.1753 35.126 38.384C35.1809 38.5847 35.3333 38.93 35.5793 39.1602C35.7783 39.3554 36.0173 39.4835 36.2293 39.5518C36.5961 39.6681 36.9076 39.4564 37.0863 39.2047C37.3151 38.8909 37.3793 38.5188 37.4918 38.3889C37.5064 38.3723 37.5219 38.359 37.5393 38.3494C37.7797 38.2235 37.9267 37.9827 38.0408 37.7448C38.0408 37.7448 38.0408 37.7448 38.0408 37.7448C37.9267 37.9827 37.7797 38.2235 37.5393 38.3494C37.5218 38.359 37.5019 38.3642 37.4802 38.3651C37.3025 38.3745 37.0508 38.0895 36.9589 37.806C36.8761 37.5776 36.9183 37.3504 37.0372 37.3754C37.1017 37.3892 37.2031 37.4334 37.2931 37.5145C37.4098 37.613 37.4873 37.7874 37.4994 37.8086C37.5178 37.8411 37.5217 37.8073 37.5315 37.7602C37.5492 37.6598 37.5764 37.5071 37.6085 37.35C37.673 37.0335 37.7534 36.6826 37.8305 36.3389C37.9868 35.6416 38.1361 34.9291 38.2273 34.2092C38.2358 34.1421 38.2445 34.0739 38.2534 34.0046C38.8566 29.3332 39.5129 24.6449 40.1301 19.9446C40.135 19.9065 40.1399 19.8687 40.1446 19.8312C40.3378 18.2743 40.4038 16.7559 40.5594 15.1327C40.56 15.1261 40.5605 15.1198 40.561 15.1138C40.5635 15.0842 40.5666 15.0445 40.5682 15.0229C40.5683 15.0225 40.5682 15.023 40.5679 15.0269C40.5658 15.0426 40.5743 14.9823 40.5578 15.1141C40.5556 15.1285 40.5531 15.1464 40.5461 15.1826C40.5341 15.2272 40.5428 15.2501 40.4627 15.4588C40.4389 15.5143 40.4076 15.5904 40.327 15.7125C40.2363 15.8302 40.1231 16.0446 39.6719 16.2483C39.4603 16.3401 39.1303 16.3929 38.8366 16.3306C38.5375 16.2714 38.3155 16.1326 38.1683 16.0059C37.885 15.7499 37.8267 15.5728 37.7752 15.4655C37.6324 15.0585 37.6853 15.1017 37.6676 15.0312C37.6573 14.8789 37.6632 14.8944 37.6623 14.8696C37.663 14.8407 37.6634 14.8375 37.6637 14.8317C37.6645 14.8166 37.6641 14.8241 37.6641 14.8241C37.6638 14.828 37.6635 14.8332 37.6631 14.8396C37.6624 14.8508 37.6615 14.8631 37.6607 14.8763C37.659 14.901 37.6573 14.9268 37.6556 14.9525C37.6522 15.0039 37.6487 15.0551 37.6452 15.1068C37.6383 15.2097 37.6313 15.3135 37.6243 15.4164C37.6103 15.6231 37.5962 15.8298 37.5822 16.0367Z" fill="black"/>
<path d="M36.9643 14.8182C36.6157 14.9058 36.3161 15.1283 36.1316 15.4367C35.947 15.7451 35.8925 16.1143 35.9801 16.4629C36.0677 16.8115 36.2901 17.111 36.5986 17.2956C36.907 17.4802 37.2761 17.5347 37.6247 17.4471C37.6247 17.4471 37.6247 17.4471 37.6247 17.4471C38.4979 17.2277 39.3685 17.009 40.2368 16.7971C42.6531 16.2176 45.1045 15.6218 47.4131 15.4405C47.6142 15.4268 47.8193 15.4202 48.0124 15.4221C49.3849 15.4435 50.1931 15.8141 50.699 16.6202C50.7976 16.7662 50.8944 16.9336 50.9906 17.1199C51.6828 18.4442 51.8616 19.9488 51.6681 21.5365C51.6616 21.5907 51.6546 21.6455 51.6472 21.7007C51.3028 24.0976 50.2655 26.5742 48.8133 28.5598C48.7243 28.6804 48.6333 28.7992 48.5402 28.9167C47.0745 30.774 45.0529 32.2307 42.8485 33.5547C42.6869 33.6521 42.5246 33.7487 42.3618 33.8445C40.2933 35.0601 38.1329 36.1561 35.9303 37.163C35.8243 37.2114 35.7199 37.2589 35.6142 37.3065C34.3284 37.885 33.496 39.5542 32.2306 40.336C32.0795 40.4291 31.9229 40.5087 31.7606 40.5704C31.7188 40.5862 31.679 40.6001 31.6367 40.6135C30.9868 40.8222 30.3187 40.9798 29.6377 41.0389C29.6377 41.0389 29.6377 41.0389 29.6377 41.0389C30.3187 40.9798 30.9868 40.8222 31.6367 40.6135C31.679 40.6001 31.7194 40.5883 31.7626 40.5765C31.9302 40.5311 32.1029 40.499 32.2801 40.4772C33.7438 40.2969 35.5796 40.8313 36.9306 40.2232C37.0407 40.1736 37.1493 40.1242 37.2595 40.0739C39.5464 39.0282 41.7956 37.8886 43.9845 36.6025C44.1568 36.5011 44.3288 36.3988 44.5003 36.2954C46.827 34.8946 49.2109 33.2261 51.0471 30.9055C51.1631 30.7593 51.2767 30.6109 51.388 30.46C53.1834 27.9758 54.3604 25.2034 54.8184 22.1289C54.828 22.0575 54.8371 21.9865 54.8455 21.9159C55.1081 19.8704 54.8028 17.5578 53.7165 15.6496C53.5702 15.3865 53.4055 15.1162 53.2094 14.8453C52.0424 13.0395 49.5477 12.5747 47.9733 12.6972C47.7229 12.7054 47.4702 12.7197 47.2288 12.7362C44.5164 12.9559 42.064 13.5768 39.5943 14.1637C38.7137 14.3786 37.8375 14.5988 36.9643 14.8182Z" fill="black"/>
<path d="M57.3152 16.0648C57.1343 16.2669 57.041 16.5326 57.056 16.8034C57.0709 17.0743 57.1928 17.3281 57.3949 17.509C57.597 17.69 57.8627 17.7832 58.1335 17.7683C58.4044 17.7533 58.6582 17.6314 58.8391 17.4293C59.7144 16.4576 60.5904 15.4519 61.4709 14.6213C61.5477 14.5503 61.6232 14.4829 61.6968 14.4208C61.7374 14.3865 61.7807 14.3585 61.8226 14.3379C61.9329 14.2783 62.1241 14.2644 62.004 14.3719C61.9649 14.3968 61.8903 14.4341 61.737 14.4392C61.5892 14.4476 61.3402 14.3856 61.166 14.2565C60.8144 13.9771 60.8234 13.8125 60.8005 13.7825C60.7889 13.7392 60.7935 13.7823 60.7889 13.8372C60.651 15.4393 59.6263 17.5991 58.9 19.6407C58.8732 19.7136 58.8463 19.787 58.8194 19.8607C57.6551 23.1156 57.2325 26.4443 57.0731 29.7325C57.0723 29.7507 57.0715 29.7689 57.0707 29.7871C57.0208 30.8809 57.1267 32.2218 57.7857 33.4207C57.7877 33.4243 57.7896 33.4279 57.7916 33.4316C58.2123 34.2379 59.0513 34.9252 59.9106 35.2136C59.964 35.2327 60.0176 35.2502 60.0713 35.2662C60.9158 35.5307 61.841 35.3954 62.5339 35.1549C62.6779 35.1073 62.8161 35.0531 62.9489 34.994C64.548 34.2667 65.6111 32.9912 66.6303 31.8733C66.7916 31.6962 66.947 31.5144 67.0964 31.3292C68.6996 28.6939 69.0586 25.9762 69.8092 23.2832C69.8576 23.0891 69.9059 22.899 69.9558 22.7049C70.7135 19.9074 70.8971 16.8616 70.6975 14.0151C70.6915 13.8858 70.691 13.7573 70.6952 13.631C70.6922 13.5976 70.6886 13.5629 70.6772 13.5073C70.6698 13.472 70.6596 13.4304 70.6402 13.3751C70.6229 13.3346 70.5935 13.2175 70.4447 13.0434C70.4064 13.0003 70.3588 12.9537 70.298 12.9077C70.2223 12.8495 70.1007 12.7798 69.9659 12.7425C69.7 12.6517 69.3369 12.7507 69.2473 12.808C69.0128 12.9279 68.9242 13.0594 68.8789 13.1153C68.8114 13.2061 68.7788 13.2778 68.7651 13.3054C68.7035 13.4421 68.7006 13.4674 68.6846 13.5103C68.6587 13.5876 68.6438 13.6358 68.6283 13.6848C68.5986 13.7791 68.5735 13.8613 68.5489 13.9389C68.4995 14.0973 68.4523 14.2461 68.4049 14.3926C68.3103 14.6847 68.2149 14.9763 68.127 15.2621C67.9512 15.8365 67.804 16.4122 67.7735 16.989C67.7697 17.0605 67.766 17.1335 67.7622 17.2078C67.5498 21.6307 67.3812 26.0248 67.3097 30.4683C67.3093 30.4975 67.309 30.5266 67.3087 30.5555C67.3192 32.558 67.2669 34.5524 68.012 36.8427C68.1819 37.3262 68.4272 37.8325 68.7062 38.2659L68.9287 38.5424C69.0393 38.6521 69.1693 38.7636 69.3253 38.8675C69.6932 39.1266 70.3232 39.1299 70.7207 38.9181C71.1315 38.7145 71.3204 38.4151 71.506 38.2604C71.5397 38.2318 71.5736 38.2068 71.609 38.186C72.1945 37.8239 72.5248 37.4344 72.8757 37.0863C73.0257 36.9328 73.1086 36.726 73.1062 36.5113C73.1037 36.2967 73.0161 36.0918 72.8625 35.9417C72.709 35.7917 72.5022 35.7088 72.2875 35.7112C72.0729 35.7137 71.868 35.8013 71.7179 35.9549C71.7179 35.9549 71.7179 35.9549 71.7179 35.9549C71.3821 36.2995 71.0429 36.6422 70.789 36.7902C70.7749 36.7985 70.7588 36.8014 70.742 36.7992C70.6442 36.7925 70.5232 36.6036 70.6127 36.414C70.6892 36.2186 70.997 36.125 71.0992 36.2042C71.1429 36.2334 71.1691 36.2575 71.1835 36.2717L71.4061 36.5482C71.2435 36.293 71.1301 36.0585 71.0267 35.7694C70.5497 34.3789 70.4962 32.4276 70.5085 30.5899C70.5088 30.5628 70.5091 30.5356 70.5094 30.5083C70.5793 26.1531 70.7481 21.7373 70.9581 17.3701C70.9617 17.2977 70.9654 17.2268 70.9691 17.1573C70.9987 16.5973 70.9194 16.0299 70.83 15.4684C70.7853 15.1896 70.7385 14.9054 70.703 14.6342C70.6852 14.4989 70.6707 14.363 70.6613 14.2376C70.6563 14.1772 70.6533 14.115 70.6501 14.0701C70.6481 14.0488 70.6476 14.0272 70.6401 14.0356C70.633 14.0459 70.6398 14.0367 70.593 14.1399C70.5822 14.161 70.5555 14.2214 70.492 14.3071C70.4494 14.3592 70.3648 14.4866 70.1333 14.6052C70.0452 14.6617 69.6851 14.7599 69.4211 14.6698C69.2874 14.6329 69.167 14.5638 69.0922 14.5063C69.0321 14.4608 68.9852 14.4149 68.9476 14.3725C68.8013 14.2011 68.7746 14.09 68.7583 14.0526C68.7402 14.0011 68.7314 13.9639 68.725 13.9337C68.7154 13.8862 68.7131 13.8599 68.7111 13.8366C68.7419 13.9666 68.7695 14.0968 68.7924 14.227C69.3453 17.0003 69.6215 19.7399 68.9856 22.4712C68.9418 22.6661 68.8979 22.8567 68.852 23.0506C68.1744 25.6864 67.6725 28.623 66.3731 30.7463C66.2351 30.9177 66.0919 31.0854 65.9438 31.2479C64.9927 32.3014 63.579 32.8152 62.3401 32.9084C62.2478 32.9151 62.1586 32.9182 62.0733 32.9179C61.6393 32.9169 61.3611 32.7372 61.1307 32.5689C61.1143 32.5575 61.0984 32.5462 61.0829 32.535C60.8334 32.3494 60.7492 32.1642 60.6053 31.9074C60.6044 31.9057 60.6035 31.904 60.6025 31.9023C60.3236 31.401 60.2321 30.7465 60.2677 29.9269C60.2684 29.9097 60.2692 29.8925 60.27 29.8753C60.4155 26.7781 60.741 23.6707 61.6675 20.8587C61.6919 20.7861 61.7162 20.7137 61.7406 20.6416C62.3864 18.5359 63.314 16.6347 63.4091 13.8242C63.403 13.6634 63.3964 13.4918 63.3404 13.2377C63.2775 13.0264 63.2212 12.6706 62.7199 12.2718C62.4719 12.0839 62.1294 11.9903 61.8879 11.9936C61.6404 11.9931 61.4718 12.0467 61.3415 12.098C60.86 12.3186 60.7405 12.5289 60.5505 12.698C60.4931 12.7546 60.436 12.8083 60.3779 12.8573C60.2729 12.9459 60.1766 13.0322 60.0825 13.1191C59.0498 14.0965 58.2012 15.0839 57.3152 16.0648Z" fill="black"/>
<path d="M86.9521 18.9268C86.9067 18.6881 86.7684 18.4772 86.5676 18.3405C86.3667 18.2038 86.1198 18.1524 85.8811 18.1978C85.6424 18.2431 85.4315 18.3814 85.2948 18.5823C85.1581 18.7831 85.1068 19.03 85.1521 19.2687C85.1791 19.4084 85.2052 19.5578 85.2555 19.7486C85.283 19.8461 85.3097 19.9499 85.387 20.1124C85.43 20.1953 85.4775 20.2973 85.6207 20.4453C85.7417 20.5887 86.1329 20.8043 86.4793 20.7433C86.5185 20.7383 86.5574 20.7325 86.5961 20.7258C87.111 20.6611 87.8049 20.2716 88.0965 19.7024C88.3978 19.1506 88.4325 18.6464 88.4419 18.2056C88.4413 17.2426 88.222 16.4008 88.0412 15.6626C87.8984 15.1533 87.551 14.7939 87.271 14.5854C86.5638 14.0865 86.0172 13.9093 85.4632 13.7375C85.2706 13.6829 85.0754 13.6392 84.8792 13.6107C82.001 13.2272 79.301 13.891 76.806 14.8605C76.7598 14.8789 76.7138 14.8973 76.6679 14.9159C75.3509 15.438 74.074 16.3822 73.2342 17.5973C73.1892 17.6612 73.1454 17.7253 73.1024 17.7902C72.2159 19.166 71.734 20.7714 72.0178 22.5551C72.026 22.6021 72.0349 22.6491 72.0444 22.696C72.6325 25.1187 74.212 26.1999 75.3716 27.331C75.4308 27.3839 75.4907 27.4372 75.5515 27.491C77.6801 29.3661 79.8781 31.0716 81.7792 32.8843C81.8147 32.9187 81.8495 32.9526 81.8838 32.9862C82.8585 33.8951 83.6526 35.0695 83.4926 35.34C83.4884 35.3739 83.4814 35.4093 83.4711 35.4467C83.3909 35.8013 82.9067 36.3168 82.2482 36.5759C82.1664 36.6097 82.0822 36.641 81.9963 36.6696C79.9627 37.3352 77.1274 36.5229 74.6501 35.4144C74.564 35.3758 74.4736 35.3476 74.3796 35.3279L74.5386 35.4125C73.7557 35.2068 72.0584 35.5495 71.5842 34.453C71.5749 34.4295 71.5659 34.406 71.5571 34.3824C71.5366 34.3272 71.5176 34.2715 71.5002 34.2155C71.2117 33.2995 71.3953 32.3287 71.5672 31.4064C71.5672 31.4064 71.5672 31.4064 71.5672 31.4064C71.3953 32.3287 71.2117 33.2995 71.5002 34.2155C71.5176 34.2715 71.5366 34.3272 71.5571 34.3824C71.5659 34.406 71.5749 34.4295 71.5842 34.453C71.908 35.3541 71.8865 37.1955 72.9098 38.0898L73.0688 38.1744C73.1547 38.2375 73.2457 38.2917 73.3422 38.3349C76.1543 39.518 79.3158 40.7775 83.0067 39.7059C83.1619 39.6542 83.3169 39.5967 83.4701 39.5334C84.7477 38.9961 86.0554 38.0079 86.5568 36.2945C86.6065 36.1135 86.6443 35.9264 86.6681 35.7354C86.8047 32.9486 85.1101 31.8229 84.1243 30.7014C84.0846 30.6625 84.0445 30.6234 84.0038 30.5841C81.8921 28.5753 79.6985 26.8836 77.6725 25.0949C77.6157 25.0447 77.56 24.9951 77.5054 24.9462C76.3704 23.935 75.2841 22.8364 75.1802 22.0584C75.1766 22.0403 75.1731 22.0219 75.1698 22.0033C75.0348 21.2779 75.2733 20.2734 75.7577 19.5342C75.7837 19.494 75.81 19.4546 75.8369 19.4156C76.3409 18.681 77.0036 18.1176 77.8655 17.7261C77.9043 17.7086 77.9433 17.6911 77.9825 17.6738C80.094 16.7469 82.4196 16.1476 84.5412 16.3381C84.6857 16.3518 84.8299 16.3602 84.974 16.3682C85.3794 16.384 85.8196 16.4315 85.9328 16.4863C85.9779 16.505 85.9169 16.4554 85.8916 16.3313C86.1753 17.0514 86.419 17.6949 86.4831 18.2726C86.5137 18.5256 86.4846 18.7436 86.4541 18.8129C86.4234 18.873 86.4527 18.8809 86.2843 18.9204C86.2728 18.9223 86.2606 18.9242 86.2474 18.9259C86.5227 18.8755 86.8441 19.0569 86.9164 19.1499C87.01 19.2478 87.0212 19.2881 87.0331 19.3078C87.0492 19.3437 87.0343 19.3113 87.025 19.2735C87.0028 19.1915 86.978 19.0638 86.9521 18.9268Z" fill="black"/>
<path d="M82.4177 9.95929C82.0012 10.0406 81.6341 10.2841 81.3971 10.6361C81.1601 10.9881 81.0727 11.4198 81.154 11.8363C81.2353 12.2528 81.4788 12.6199 81.8308 12.8569C82.1828 13.0938 82.6145 13.1813 83.031 13.1C83.031 13.1 83.031 13.1 83.031 13.1C83.8647 12.9372 84.6986 12.7743 85.532 12.6117C95.8942 10.6027 106.256 8.5291 116.618 6.80732C116.633 6.80484 116.649 6.80236 116.664 6.79988C120.899 6.15334 124.934 3.81376 129.312 3.97302C129.313 3.97306 129.314 3.97311 129.315 3.97315C129.702 3.99225 130.086 4.01854 130.47 4.0572C131.316 4.1369 132.152 4.30678 132.967 4.54543C132.967 4.54543 132.967 4.54543 132.967 4.54543C132.152 4.30678 131.316 4.1369 130.47 4.0572C130.086 4.01854 129.702 3.99225 129.315 3.97315C129.314 3.97311 129.313 3.97306 129.312 3.97302C125.025 3.8054 120.467 2.98055 116.152 3.64106C116.137 3.64356 116.121 3.64608 116.106 3.6486C105.635 5.38889 95.2909 7.46035 84.919 9.47094C84.0854 9.63364 83.2514 9.79649 82.4177 9.95929Z" fill="black"/>
<path d="M100.367 14.5378C100.494 14.133 100.455 13.6942 100.259 13.318C100.062 12.9419 99.7243 12.6592 99.3195 12.5321C98.9146 12.405 98.4758 12.4439 98.0997 12.6403C97.7235 12.8367 97.4408 13.1745 97.3137 13.5793C97.3137 13.5793 97.3137 13.5793 97.3137 13.5793C97.1557 14.0826 96.9972 14.5873 96.8397 15.0941C96.047 17.6307 95.3068 20.2152 94.6669 22.8122C94.6667 22.8131 94.6665 22.8141 94.6662 22.815C93.7131 26.705 92.8893 30.5849 92.162 34.5196L92.1547 34.5636C92.1524 34.5782 92.1502 34.5928 92.148 34.6073C91.7831 37.4087 91.6507 40.3158 92.6303 43.3564L92.688 43.5073C92.7141 43.5504 92.7411 43.5924 92.7692 43.634C92.8166 43.7041 92.8706 43.7695 92.93 43.8301C93.465 44.3725 94.2074 44.3388 94.7626 44.4115C94.7626 44.4115 94.7626 44.4115 94.7626 44.4115C94.4292 43.9273 94.2577 43.3056 94.197 42.9648C94.1866 42.9232 94.1756 42.8842 94.1621 42.8467C94.1541 42.8244 94.1468 42.8021 94.1399 42.7792L94.1976 42.9301C93.9644 40.4926 94.9429 37.775 95.3113 35.0904C95.3134 35.0763 95.3156 35.0622 95.3178 35.0481L95.3104 35.0921C96.0207 31.247 96.8421 27.379 97.7724 23.584C97.7727 23.5831 97.7729 23.5822 97.7731 23.5813C98.3981 21.0456 99.1124 18.5503 99.8955 16.0438C100.051 15.5427 100.209 15.0411 100.367 14.5378Z" fill="black"/>
<path d="M101.578 19.4262C101.374 19.7041 101.289 20.0514 101.342 20.3919C101.394 20.7323 101.58 21.0379 101.858 21.2415C102.136 21.4451 102.483 21.53 102.824 21.4775C103.164 21.4249 103.47 21.2393 103.673 20.9615C103.673 20.9615 103.673 20.9615 103.673 20.9615C103.96 20.57 104.243 20.1828 104.517 19.8412C104.669 19.6478 104.872 19.4269 104.907 19.4037C104.901 19.4042 104.901 19.4226 104.748 19.4907C104.652 19.5289 104.531 19.5694 104.336 19.5738C104.132 19.5797 103.881 19.5124 103.702 19.3987C103.331 19.1479 103.301 18.9645 103.258 18.891C103.2 18.7334 103.222 18.7609 103.219 18.7842C103.223 18.847 103.221 18.9974 103.211 19.1384C103.189 19.4373 103.145 19.7689 103.092 20.1048C102.985 20.7794 102.845 21.4699 102.7 22.1641C102.406 23.5508 102.087 24.945 101.819 26.3556C101.805 26.4301 101.791 26.5053 101.776 26.5813C101.153 29.8304 100.304 33.0873 99.6346 36.4823C99.6088 36.6172 99.5845 36.7459 99.5597 36.8806C99.3566 38.3588 98.8723 39.5598 99.3116 41.7833C99.386 42.0452 99.4938 42.3256 99.6585 42.6067C100.063 43.3274 101.116 43.419 101.623 43.3328C101.635 43.3318 101.647 43.3309 101.659 43.33C101.816 43.3192 101.959 43.3182 102.091 43.349C102.531 43.4512 102.942 43.4758 103.308 43.5016C103.514 43.5157 103.717 43.4475 103.873 43.3119C104.028 43.1763 104.124 42.9845 104.138 42.7787C104.152 42.5728 104.084 42.3697 103.948 42.2142C103.812 42.0586 103.621 41.9633 103.415 41.9491C103.415 41.9491 103.415 41.9491 103.415 41.9491C103.047 41.9245 102.722 41.8991 102.444 41.8336C102.361 41.8142 102.291 41.7527 102.239 41.669C102.235 41.6625 102.231 41.6558 102.227 41.6491C102.14 41.4982 102.146 41.2934 102.222 41.164C102.295 41.0301 102.42 40.9864 102.419 40.988C102.419 40.9878 102.405 40.9628 102.39 40.9106C102.224 40.3617 102.469 38.7349 102.707 37.4614C102.73 37.3343 102.753 37.2121 102.778 37.0836C103.412 33.8491 104.244 30.5478 104.861 27.1518C104.876 27.0715 104.89 26.9918 104.903 26.9126C105.145 25.496 105.339 24.0729 105.515 22.629C105.603 21.9043 105.686 21.1813 105.755 20.4308C105.789 20.0529 105.82 19.6791 105.833 19.2563C105.837 19.0481 105.842 18.8267 105.814 18.5354C105.793 18.3819 105.79 18.2272 105.665 17.9038C105.589 17.751 105.514 17.4846 105.065 17.1848C104.848 17.0478 104.554 16.9685 104.304 16.9751C104.063 16.9804 103.903 17.0306 103.76 17.0879C103.491 17.2044 103.387 17.2975 103.282 17.3765C102.87 17.7248 102.706 17.9574 102.492 18.2136C102.157 18.632 101.867 19.0326 101.578 19.4262Z" fill="black"/>
<path d="M104.995 23.4917C105.221 23.5762 105.472 23.5675 105.691 23.4674C105.911 23.3674 106.082 23.1842 106.166 22.9582C106.251 22.7322 106.242 22.4819 106.142 22.2623C106.042 22.0427 105.859 21.8719 105.633 21.7874C105.633 21.7874 105.633 21.7874 105.633 21.7874C105.129 21.6004 104.498 21.3591 104.311 21.2222C104.309 21.2214 104.309 21.221 104.31 21.2212C104.31 21.2266 104.382 21.2455 104.468 21.4443C104.558 21.6564 104.49 21.9078 104.471 21.9514C104.43 22.0567 104.526 21.954 104.618 21.8789C104.626 21.8717 104.635 21.8642 104.643 21.8565C104.759 21.7505 104.903 21.6395 105.058 21.5315C106.392 20.6362 108.102 19.9563 109.766 19.3559C109.77 19.3546 109.774 19.3532 109.778 19.3519C111.722 18.6631 113.89 18.5563 116.1 18.6341C116.229 18.6385 116.359 18.645 116.488 18.6531C117.056 18.6912 117.573 18.9003 117.861 19.1346C117.923 19.1834 117.973 19.2336 118.012 19.2812C118.071 19.3682 118.083 19.4222 118.095 19.5595C118.104 19.6938 118.083 19.9059 118.018 20.152C118.01 20.1826 118.002 20.2129 117.993 20.2445C117.705 21.2234 116.837 22.3221 115.873 23.2894C115.816 23.3467 115.756 23.4061 115.698 23.4631C114.002 25.1063 111.992 26.5739 109.956 27.9566C109.819 28.0495 109.683 28.141 109.55 28.2311C108.412 28.9983 107.294 29.7789 106.159 30.564C105.594 30.9556 105.028 31.346 104.453 31.7424C104.166 31.9408 103.877 32.1404 103.579 32.3532C103.426 32.4638 103.28 32.5683 103.1 32.7117C102.999 32.7975 102.931 32.8336 102.72 33.0664C102.686 33.1071 102.647 33.1545 102.605 33.218C102.583 33.2498 102.561 33.2857 102.537 33.3281C102.504 33.3887 102.462 33.4726 102.427 33.5808C102.392 33.6894 102.36 33.8291 102.359 34.0051C102.354 34.2337 102.436 34.5583 102.609 34.793C102.691 34.9102 102.796 35.0129 102.879 35.0777C102.948 35.1315 103.015 35.1736 103.078 35.2073C103.203 35.2743 103.31 35.3087 103.399 35.3312C103.915 35.4232 103.914 35.3561 104.049 35.3519C104.249 35.3171 104.527 35.3145 104.822 35.3407C106.085 35.4643 107.529 35.9014 108.922 36.3483C109.173 36.4298 109.422 36.513 109.67 36.598C113.065 37.7279 116.242 39.3723 119.949 40.5246L120.019 40.543C120.171 40.5791 120.323 40.614 120.474 40.6475C121.887 40.9571 123.439 40.1861 124.845 40.0519C125.052 40.032 125.256 40.0256 125.458 40.0377C125.514 40.0412 125.568 40.0457 125.624 40.052C126.487 40.1521 127.358 40.2055 128.227 40.1963C128.227 40.1963 128.227 40.1963 128.227 40.1963C127.358 40.2055 126.487 40.1521 125.624 40.052C125.568 40.0457 125.515 40.0379 125.459 40.0282C125.26 39.9932 125.064 39.9365 124.87 39.8639C123.541 39.3651 122.372 38.1415 121.091 37.86C120.952 37.8293 120.813 37.7976 120.676 37.7654L120.746 37.7838C117.475 36.7873 114.07 35.1951 110.525 34.0522C110.263 33.9659 110.001 33.8812 109.736 33.7982C108.251 33.347 106.797 32.8844 105.052 32.7028C104.627 32.6673 104.175 32.6491 103.659 32.7187C103.699 32.7275 103.616 32.6717 104.049 32.7465C104.126 32.766 104.222 32.7966 104.339 32.8591C104.398 32.8904 104.461 32.9301 104.526 32.9812C104.606 33.0427 104.707 33.1411 104.785 33.2538C104.951 33.4797 105.031 33.7934 105.026 34.0106C105.025 34.1779 104.995 34.3081 104.963 34.4064C104.892 34.6115 104.843 34.665 104.815 34.7122C104.783 34.7589 104.759 34.7882 104.741 34.8094C104.645 34.9139 104.708 34.8465 104.747 34.8223C104.84 34.7531 104.971 34.6648 105.106 34.5767C105.374 34.4019 105.665 34.2214 105.954 34.0435C106.537 33.6861 107.13 33.3296 107.721 32.97C108.91 32.2478 110.085 31.5173 111.24 30.739C111.376 30.6476 111.513 30.5546 111.652 30.46C113.787 28.9992 115.852 27.4435 117.766 25.5476C117.833 25.481 117.901 25.4114 117.967 25.3437C119.062 24.181 120.193 22.9186 120.752 21.0117C120.769 20.9503 120.784 20.8898 120.799 20.8268C121.051 19.8794 120.983 18.3192 119.921 17.3553C119.738 17.183 119.543 17.0364 119.346 16.9119C118.405 16.3331 117.429 16.2262 116.538 16.2322C116.403 16.2348 116.268 16.2367 116.132 16.2375C113.813 16.2513 111.353 16.4081 109.018 17.3109C109.014 17.3125 109.011 17.314 109.007 17.3155C107.263 18.013 105.548 18.7 103.869 19.888C103.665 20.0402 103.462 20.204 103.256 20.405C103.241 20.4198 103.226 20.4348 103.211 20.45C103.085 20.5944 102.955 20.7117 102.768 21.0926C102.679 21.2729 102.575 21.6887 102.719 22.0487C102.857 22.3955 103.041 22.5297 103.161 22.6331C103.178 22.6468 103.195 22.6599 103.212 22.6726C103.97 23.1722 104.443 23.267 104.995 23.4917Z" fill="black"/>
<path d="M124.762 18.6433C124.577 19.0252 124.551 19.4649 124.69 19.8658C124.829 20.2667 125.122 20.5959 125.504 20.781C125.886 20.9661 126.325 20.992 126.726 20.8529C127.127 20.7138 127.456 20.4211 127.642 20.0393C127.642 20.0393 127.642 20.0393 127.642 20.0393C127.663 19.9944 127.684 19.9522 127.689 19.9418C127.686 19.9449 127.707 19.9202 127.631 20.0366C127.608 20.0654 127.582 20.1246 127.421 20.2826C127.352 20.3454 127.248 20.4467 127.016 20.5616C126.898 20.6175 126.74 20.678 126.526 20.7056C126.25 20.7521 125.769 20.6796 125.451 20.4569C125.123 20.2399 124.962 19.9737 124.878 19.7938C124.822 19.6689 124.809 19.621 124.789 19.5513C124.754 19.424 124.744 19.3362 124.737 19.267C124.723 18.8988 124.748 18.962 124.748 18.9101C124.769 18.8059 124.734 18.9638 124.713 19.031C124.666 19.1998 124.607 19.3955 124.549 19.5838C124.371 20.1642 124.181 20.7579 123.989 21.3556C123.965 21.4306 123.94 21.5076 123.915 21.5865C122.448 26.1216 120.941 30.6593 119.484 35.2245C119.469 35.2697 119.455 35.3145 119.441 35.3588C119.187 36.1586 118.958 36.973 118.746 37.8012C118.64 38.2168 118.538 38.6358 118.443 39.079C118.396 39.3013 118.349 39.5307 118.309 39.793C118.281 40.0631 118.194 40.3497 118.306 40.9659C118.329 41.0735 118.362 41.1922 118.417 41.3242C118.502 41.5379 118.74 41.7709 119.04 41.87C119.341 41.9746 119.654 41.9185 119.848 41.7899C120.23 41.5347 120.279 41.1526 120.38 41.0373C120.399 41.0145 120.418 40.9994 120.439 40.9935C120.698 40.9232 120.933 40.7915 121.165 40.6622C121.165 40.6622 121.165 40.6622 121.165 40.6622C120.933 40.7915 120.698 40.9232 120.439 40.9935C120.418 40.9994 120.393 40.9953 120.368 40.9824C120.236 40.9195 120.04 40.5703 120.185 40.2644C120.256 40.1093 120.452 39.9995 120.659 40.0211C120.865 40.038 121.033 40.1615 121.072 40.2597C121.098 40.321 121.111 40.3661 121.119 40.3984C121.152 40.6024 121.139 40.4644 121.182 40.3257C121.218 40.1804 121.27 39.9988 121.326 39.8179C121.44 39.4518 121.571 39.0649 121.702 38.6789C121.967 37.9056 122.241 37.1168 122.491 36.3269C122.505 36.283 122.519 36.2388 122.533 36.1941C123.98 31.6607 125.487 27.1245 126.96 22.5683C126.986 22.4887 127.011 22.411 127.035 22.3352C127.23 21.7302 127.421 21.1325 127.609 20.5211C127.67 20.3201 127.732 20.1147 127.794 19.896C127.828 19.7651 127.85 19.725 127.908 19.4201C127.912 19.3435 127.941 19.3803 127.925 18.9874C127.918 18.9146 127.908 18.8237 127.872 18.6939C127.851 18.6229 127.838 18.5741 127.781 18.4479C127.696 18.2659 127.534 17.9984 127.205 17.7805C126.886 17.5569 126.403 17.4841 126.125 17.5308C125.91 17.5586 125.751 17.6194 125.632 17.676C125.397 17.7921 125.291 17.8957 125.218 17.9614C125.051 18.1258 125.014 18.1989 124.985 18.2364C124.881 18.3953 124.877 18.4177 124.851 18.465C124.809 18.5459 124.785 18.5961 124.762 18.6433Z" fill="black"/>
<path d="M127.801 17.6414C127.633 17.2517 127.317 16.9446 126.923 16.7877C126.528 16.6309 126.088 16.6371 125.698 16.805C125.309 16.9728 125.001 17.2887 124.845 17.683C124.688 18.0772 124.694 18.5177 124.862 18.9074C124.862 18.9074 124.862 18.9074 124.862 18.9074C125.037 19.3146 125.213 19.7217 125.388 20.1287C126.729 23.2424 128.056 26.3515 129.337 29.4776C129.337 29.4795 129.338 29.4814 129.339 29.4833C130.709 32.8206 132.027 36.1778 133.41 39.5541C133.415 39.5661 133.419 39.5781 133.424 39.5901C133.798 40.4837 135.224 40.9458 135.966 41.6454C136.092 41.7613 136.201 41.8811 136.288 42.0135C136.292 42.0204 136.297 42.0274 136.301 42.0343C136.447 42.2688 136.601 42.4988 136.759 42.7254C136.601 42.4988 136.447 42.2688 136.301 42.0343C136.297 42.0274 136.292 42.0203 136.288 42.0132C136.206 41.8771 136.157 41.7219 136.135 41.5569C136.008 40.5556 136.721 39.2516 136.36 38.3817C136.356 38.37 136.351 38.3583 136.346 38.3465C134.996 35.0217 133.679 31.63 132.3 28.2698C132.299 28.2679 132.298 28.266 132.298 28.264C131.006 25.1111 129.67 21.9811 128.327 18.8635C128.152 18.4559 127.976 18.0486 127.801 17.6414Z" fill="black"/>
<path d="M119.611 31.9098C119.202 31.9323 118.819 32.1162 118.546 32.4212C118.273 32.7261 118.132 33.127 118.154 33.5358C118.177 33.9445 118.361 34.3276 118.666 34.6008C118.971 34.8739 119.372 35.0147 119.78 34.9922C119.78 34.9922 119.78 34.9922 119.78 34.9922C120.18 34.9705 120.605 34.9458 121.027 34.9097C122.517 34.7815 123.941 34.5429 125.346 34.2935C125.353 34.2921 125.361 34.2908 125.368 34.2894C129.24 33.5794 132.946 32.309 136.755 31.5492C136.756 31.5491 136.757 31.5489 136.757 31.5488C138.637 31.1737 140.507 30.8166 142.39 30.4946C142.784 30.4269 143.178 30.3602 143.574 30.2933C143.854 30.2459 144.105 30.0889 144.269 29.857C144.434 29.625 144.5 29.3371 144.453 29.0565C144.405 28.7759 144.249 28.5257 144.017 28.3608C143.785 28.196 143.497 28.13 143.216 28.1774C143.216 28.1774 143.216 28.1774 143.216 28.1774C142.82 28.2443 142.424 28.3114 142.026 28.3797C140.122 28.7054 138.227 29.0673 136.337 29.4444C136.337 29.4445 136.336 29.4447 136.336 29.4448C132.516 30.2069 128.603 30.5615 124.822 31.251C124.815 31.2523 124.808 31.2536 124.801 31.2549C123.438 31.4976 122.079 31.7217 120.766 31.8337C120.39 31.8659 120.012 31.8881 119.611 31.9098Z" fill="black"/>
<path d="M145.275 18.6774C145.158 18.2825 144.889 17.9502 144.527 17.7536C144.165 17.557 143.74 17.5122 143.345 17.6291C142.95 17.746 142.617 18.015 142.421 18.3769C142.224 18.7388 142.179 19.164 142.296 19.5589C142.296 19.5589 142.296 19.5589 142.296 19.5589C142.309 19.5757 142.345 19.904 142.338 20.1893C142.336 20.4894 142.315 20.8204 142.286 21.154C142.13 22.8182 141.81 24.5632 141.475 26.2967C141.422 26.571 141.369 26.8423 141.317 27.1149C140.74 30.3068 140.048 33.3124 139.903 36.8717C139.881 37.5927 140.065 39.013 141.082 39.8478C141.124 39.8841 141.164 39.9178 141.206 39.9514C142.225 40.7296 143.228 40.848 144.064 40.9258C146.734 41.0501 148.916 40.5036 151.16 40.0306L151.205 40.0203C151.637 39.9095 152.067 39.7956 152.495 39.6799C155.384 38.896 157.874 36.7752 160.694 35.8667C160.827 35.8238 160.956 35.7851 161.089 35.7481C161.755 35.5635 162.424 35.3782 163.092 35.194C163.794 35.0004 164.496 34.8078 165.198 34.6162C165.198 34.6162 165.198 34.6162 165.198 34.6162C164.496 34.8078 163.794 35.0004 163.092 35.194C162.424 35.3782 161.755 35.5635 161.089 35.7481C160.956 35.7851 160.826 35.8181 160.689 35.8502C157.803 36.5246 154.58 35.9926 151.728 36.6831C151.305 36.7851 150.882 36.8859 150.462 36.9838L150.507 36.9735C148.371 37.3919 146.127 37.8388 144.303 37.7347C143.754 37.7026 143.298 37.5466 143.199 37.4473C143.194 37.4436 143.19 37.4404 143.187 37.4375C143.153 37.4004 143.177 37.4446 143.148 37.3702C143.123 37.2992 143.096 37.1074 143.095 36.8583C143.183 34.0417 143.8 30.7727 144.367 27.699C144.419 27.4304 144.471 27.1629 144.524 26.8922C144.867 25.1042 145.198 23.3367 145.38 21.4285C145.423 20.6123 145.572 19.9609 145.275 18.6774Z" fill="black"/>
</svg>
