<svg width="173" height="75" viewBox="0 0 173 75" fill="none" xmlns="http://www.w3.org/2000/svg">
<path d="M0.02628 45.0886C-0.030005 45.3126 0.00497085 45.5497 0.123513 45.7478C0.242055 45.946 0.434454 46.0889 0.658383 46.1452C0.882312 46.2015 1.11943 46.1665 1.31757 46.048C1.51571 45.9294 1.65865 45.737 1.71493 45.5131C1.71493 45.5131 1.71493 45.5131 1.71493 45.5131C2.26897 43.2272 2.91011 41.0828 4.2482 39.3412C4.27588 39.3044 4.30393 39.2676 4.33236 39.2308C4.91474 38.4778 5.61514 37.7896 6.36412 37.1496C7.75365 35.9667 9.30551 34.9416 10.8818 33.9486C10.8883 33.9444 10.8949 33.9403 10.9015 33.9362C13.7579 32.1446 16.8184 30.5739 19.818 28.8771C19.8991 28.8316 19.9808 28.7856 20.0632 28.7393C24.7302 26.1139 29.3972 23.3282 33.564 19.7658C33.7348 19.6188 33.9056 19.4695 34.074 19.3198C37.4995 16.2401 40.4747 12.6956 42.6358 8.52561C42.7352 8.32687 42.8319 8.12719 42.9244 7.92785C43.5168 6.49376 44.5973 4.48235 43.1856 2.32629C43.0456 2.13035 42.8946 1.95684 42.7451 1.80278C41.8186 0.835762 40.5426 0.299251 39.3456 0.11178C39.0986 0.0714619 38.8524 0.0433924 38.6079 0.0255415C36.7129 -0.136479 34.8422 0.493543 33.3357 1.33199C33.0611 1.48254 32.7935 1.64046 32.5313 1.8043C29.7771 3.57023 27.4981 5.78443 25.4866 8.25765C25.2772 8.51837 25.0719 8.78259 24.8708 9.05059C22.5591 12.1165 20.9672 15.6074 19.6674 19.0858C19.5749 19.3328 19.4838 19.5801 19.3933 19.8289C17.7426 24.385 16.4461 29.0397 15.3631 33.7357C15.3332 33.8659 15.3034 33.9964 15.2738 34.127C14.0549 39.4988 13.1471 44.9433 12.5787 50.4258C12.5755 50.4566 12.5723 50.4873 12.5692 50.5181C12.0768 55.4509 11.7786 60.3804 11.9135 65.3847C11.9202 65.5804 11.9278 65.7701 11.9368 65.964C12.0655 67.9846 12.1311 70.0714 13.1579 72.2282C13.2921 72.4945 13.4446 72.7621 13.6357 73.0311C14.0268 73.5608 14.6446 74.287 15.7857 74.3852C16.2771 74.4564 17.0917 74.1472 17.4139 73.6947C18.1586 72.626 18.0102 71.9608 18.0683 71.2748C18.0728 70.9936 18.068 70.7223 18.0623 70.4542C17.9893 68.3676 17.7192 66.3984 17.1297 64.3636C17.0255 64.022 16.9028 63.6848 16.7596 63.3543C15.8759 61.1806 13.8667 59.5239 11.8794 58.6858C11.5266 58.5246 11.1582 58.3979 10.7865 58.306C10.4579 58.2242 10.1259 58.1697 9.81578 58.1323C9.66177 58.1134 9.51115 58.0984 9.38928 58.0837C9.32945 58.0765 9.27493 58.0686 9.24852 58.0631C9.22661 58.0627 9.21325 58.039 9.36351 58.1115C9.46592 58.1674 9.60902 58.2636 9.73383 58.4538C9.85834 58.6391 9.90521 58.8801 9.89893 59.0299C9.8821 59.3309 9.81199 59.4071 9.78759 59.4668C9.72818 59.5711 9.71992 59.5683 9.71751 59.5742C9.71679 59.5751 9.75254 59.539 9.79117 59.5047C9.87012 59.4337 9.97502 59.347 10.08 59.2629C10.7352 58.7435 11.467 58.2204 12.1871 57.7005C12.4218 57.5317 12.6594 57.3618 12.8984 57.1915C16.4693 54.6538 20.1251 52.2175 23.8613 49.9377C24.015 49.844 24.1691 49.7506 24.3234 49.6574C27.1267 47.9646 29.9611 46.303 32.811 44.647C34.0811 43.9077 35.3606 43.1697 36.6334 42.4141C36.6665 42.3945 36.6993 42.3749 36.7318 42.3556C38.0178 41.5591 39.0149 40.2124 40.082 39.1819C40.0828 39.1811 40.0836 39.1803 40.0844 39.1795C40.381 38.881 40.6557 38.5622 40.9173 38.233C40.9173 38.233 40.9173 38.233 40.9173 38.233C40.6557 38.5622 40.381 38.881 40.0844 39.1795C40.0836 39.1803 40.0828 39.1811 40.082 39.1819C38.9736 40.2368 37.2387 40.2423 35.9448 40.9625C35.912 40.98 35.8788 40.9977 35.8454 41.0155C34.5568 41.6999 33.2401 42.3722 31.9337 43.0497C29.0006 44.5684 26.0733 46.1204 23.2225 47.8264C23.0656 47.9203 22.9088 48.0146 22.7523 48.1091C18.951 50.4089 15.2578 52.8593 11.6423 55.4285C11.4001 55.601 11.1595 55.7737 10.9215 55.9459C10.1886 56.4787 9.47179 56.9949 8.72974 57.589C8.60591 57.6897 8.48006 57.794 8.34289 57.92C8.27179 57.9864 8.20115 58.0518 8.10302 58.1635C8.05288 58.2244 7.9975 58.2795 7.9025 58.4486C7.86117 58.54 7.77539 58.6521 7.75764 58.9894C7.75091 59.1577 7.80215 59.4173 7.93668 59.6179C8.0717 59.8237 8.22886 59.9311 8.34844 59.9964C8.62283 60.1343 8.75324 60.1417 8.86923 60.1669C8.98213 60.1864 9.06986 60.196 9.15019 60.2047C9.30948 60.2213 9.44213 60.2324 9.57018 60.2466C9.82408 60.274 10.0534 60.3108 10.276 60.366C10.5266 60.4281 10.7647 60.511 10.9943 60.617C12.7448 61.3884 14.0806 62.5696 14.7627 64.2141C14.8704 64.4663 14.964 64.7269 15.0446 64.9952C15.5431 66.724 15.812 68.6691 15.8603 70.4964C15.864 70.7282 15.8572 70.9576 15.8394 71.1741C15.8181 71.4359 15.7803 71.6839 15.7273 71.8868C15.6825 72.0844 15.5797 72.2455 15.6157 72.1771C15.633 72.1075 15.9419 71.9918 15.9491 72.0161C16.0152 72.0367 15.7976 71.9481 15.5909 71.6392C15.4916 71.4999 15.3937 71.3325 15.3023 71.1504C14.594 69.7247 14.4345 67.7505 14.3342 65.8529C14.3257 65.6695 14.3185 65.4894 14.3121 65.3029C14.1812 60.4951 14.4726 55.5971 14.9565 50.7639C14.9596 50.7337 14.9628 50.7035 14.9659 50.6733C15.5241 45.2895 16.416 39.9392 17.6143 34.6581C17.6434 34.5296 17.6727 34.4013 17.7022 34.2733C18.7667 29.6556 20.0426 25.0813 21.6488 20.649C21.7369 20.4069 21.8255 20.1666 21.9151 19.9271C23.1777 16.5471 24.6762 13.2939 26.7905 10.491C26.9753 10.2446 27.1645 10.0012 27.3578 9.76049C29.2031 7.48189 31.3928 5.37856 33.8032 3.83956C34.0304 3.69759 34.2591 3.56276 34.4896 3.43639C35.7806 2.72528 37.1021 2.30829 38.4332 2.41917C38.612 2.43222 38.7876 2.45245 38.9588 2.48041C39.7978 2.61571 40.5194 2.94126 41.0385 3.47016C41.1249 3.55742 41.1958 3.63935 41.253 3.71738C41.7639 4.25374 41.4657 5.6851 40.8691 6.9948C40.7916 7.16991 40.7084 7.34774 40.6208 7.52594C38.6903 11.3274 35.8478 14.7927 32.6263 17.6954C32.4673 17.8375 32.3058 17.9795 32.144 18.1194C28.1899 21.52 23.6322 24.2559 19.0088 26.8696C18.927 26.9158 18.8458 26.9617 18.7652 27.0072C15.7892 28.7019 12.7496 30.3211 9.81023 32.2321C9.80349 32.2365 9.79675 32.2409 9.79001 32.2453C8.17654 33.3013 6.61344 34.4635 5.16235 35.7974C4.37922 36.5211 3.62829 37.2959 2.95429 38.1666C2.92138 38.2092 2.88881 38.2519 2.85659 38.2948C1.2973 40.3198 0.576548 42.8171 0.02628 45.0886Z" fill="black"/>
<path d="M27.4715 30.9328C27.3161 31.0641 27.2192 31.2518 27.2022 31.4545C27.1852 31.6572 27.2494 31.8584 27.3807 32.0138C27.512 32.1692 27.6996 32.266 27.9024 32.2831C28.1051 32.3001 28.3063 32.2359 28.4616 32.1046C28.4616 32.1046 28.4616 32.1046 28.4616 32.1046C30.6622 30.2452 32.8618 28.3856 35.0708 26.5422C38.0034 24.1072 40.9389 21.6474 43.9794 19.4246C44.0553 19.3699 44.1298 19.3165 44.203 19.2645C44.902 18.7697 45.6166 18.2957 46.3341 17.9227C46.6856 17.7411 47.0599 17.58 47.3439 17.5253C47.4865 17.4964 47.5856 17.5061 47.6085 17.5171C47.6291 17.5274 47.6472 17.5279 47.7415 17.6394C47.7966 17.7057 47.8495 17.7724 47.9003 17.8394C49.7354 20.2138 48.903 23.3377 48.1155 26.6993C48.1009 26.816 48.0835 26.9456 48.0908 27.1355C48.106 27.3125 48.1127 27.6376 48.4444 27.9815C48.7933 28.3121 49.1667 28.3137 49.356 28.3099C49.5621 28.3 49.7003 28.2653 49.8347 28.2291C51.1154 27.79 51.8839 27.1732 52.8074 26.5847C53.1399 26.3628 53.4725 26.139 53.8092 25.9169C58.1051 23.0575 62.2739 20.0518 66.4982 17.1658C66.8624 16.9178 67.2147 16.6818 67.58 16.4423C69.5377 15.1995 71.8315 13.6886 73.6488 13.5472C73.6021 13.5512 73.4477 13.5223 73.3397 13.4288C73.232 13.3376 73.2114 13.2644 73.2067 13.2567C73.2032 13.2388 73.2229 13.3602 73.2194 13.4872C73.2189 13.567 73.2165 13.6456 73.2124 13.7255C73.1963 14.0378 73.0846 14.3402 73.015 14.6489C72.8749 15.2725 72.6405 15.891 72.363 16.5365C72.1131 17.2388 71.6752 17.6682 71.5979 19.0391C71.6017 19.3722 71.8184 19.7789 72.0386 19.9607C72.2572 20.1546 72.4353 20.2256 72.5809 20.2823C72.87 20.3855 73.0732 20.4102 73.2649 20.4352C73.6438 20.4782 73.9629 20.4812 74.2777 20.4833C74.443 20.4838 74.6047 20.4825 74.7642 20.4808C75.4091 20.476 76.0509 20.4283 76.6674 20.3739C80.5076 20.0012 84.2487 19.4856 88.0313 18.9879C88.5408 18.9198 89.0816 18.8469 89.5972 18.7771C103.508 16.892 117.319 14.3528 131.259 12.8578C131.526 12.8298 131.791 12.8025 132.054 12.7758C141.247 11.8352 150.482 11.3844 159.726 11.4237C159.813 11.4235 159.898 11.4234 159.983 11.4232C161.4 11.4204 162.818 11.3686 164.236 11.3129C165.876 11.2464 167.517 11.1844 169.156 11.1493C169.18 11.1487 169.203 11.1482 169.227 11.1477C170.443 11.1226 171.658 11.0487 172.871 10.9473C171.658 11.0487 170.443 11.1226 169.227 11.1477C169.203 11.1482 169.18 11.1487 169.156 11.1492C167.516 11.1803 165.876 11.0993 164.236 11.0295C162.819 10.9675 161.401 10.9068 159.984 10.8961C159.9 10.8955 159.814 10.8949 159.728 10.8942C150.472 10.7693 141.207 11.2318 131.985 12.0449C131.721 12.0679 131.455 12.0912 131.187 12.1148C117.205 13.378 103.211 14.7193 89.303 16.604C88.7878 16.6737 88.2477 16.7469 87.7391 16.8156C83.9738 17.3165 80.1986 17.856 76.4745 18.2273C75.8796 18.2813 75.3094 18.3221 74.7382 18.3282C74.582 18.3303 74.428 18.3322 74.2777 18.3327C73.9951 18.3336 73.7152 18.3305 73.4993 18.31C73.3964 18.3016 73.2992 18.2799 73.3071 18.2826C73.3125 18.288 73.354 18.2933 73.4608 18.387C73.5685 18.4698 73.7115 18.7348 73.7087 18.917C73.6884 18.9313 73.7584 18.5824 73.8687 18.2897C73.9776 17.9802 74.1132 17.6403 74.2444 17.2901C74.5087 16.5877 74.7605 15.8325 74.9065 15.0294C74.9796 14.6284 74.9614 14.2112 74.9756 13.7995C74.9793 13.6934 74.9806 13.5884 74.9794 13.4814C74.973 13.2642 74.9759 13.0359 74.8633 12.6893C74.8031 12.5194 74.6974 12.2878 74.4562 12.0858C74.2159 11.8802 73.885 11.802 73.6665 11.8055C70.5973 12.187 68.8109 13.7917 66.68 15.0741C66.3063 15.3209 65.947 15.5632 65.5764 15.8173C61.3379 18.7332 57.1753 21.7546 52.928 24.5814C52.5967 24.8 52.2642 25.0096 51.9328 25.2103C51.0658 25.7285 50.0736 26.3036 49.3615 26.5363C49.3103 26.5514 49.2688 26.5554 49.2875 26.5538C49.2924 26.5575 49.4601 26.5297 49.674 26.7265C49.8693 26.9363 49.8387 27.0622 49.845 27.0541C49.844 27.0559 49.846 26.9976 49.8555 26.9284C50.4937 24.1059 51.6518 19.9242 49.183 16.8518C49.1161 16.766 49.0465 16.6809 48.9743 16.5967C48.7905 16.3738 48.456 16.0829 48.0522 15.9762C47.6526 15.8659 47.3048 15.9079 47.0177 15.9684C46.452 16.0985 46.0186 16.3197 45.6028 16.5398C44.7765 16.9912 44.0439 17.4986 43.3145 18.0139C43.2384 18.068 43.1611 18.1233 43.0826 18.1799C39.9588 20.4644 37.0331 22.9197 34.0879 25.3642C31.8735 27.2122 29.672 29.0734 27.4715 30.9328Z" fill="black"/>
</svg>
