<svg width="203" height="71" viewBox="0 0 203 71" fill="none" xmlns="http://www.w3.org/2000/svg">
<path d="M27.2336 13.7336C27.4226 13.5983 27.5502 13.3934 27.5881 13.1641C27.6261 12.9347 27.5714 12.6997 27.4361 12.5107C27.3008 12.3217 27.096 12.1942 26.8666 12.1562C26.6373 12.1182 26.4023 12.1729 26.2132 12.3082C26.2132 12.3082 26.2132 12.3082 26.2132 12.3082C26.0115 12.4526 25.8121 12.5955 25.6592 12.6846C25.6038 12.728 25.4659 12.7508 25.6714 12.7115C25.7309 12.7078 25.8585 12.695 26.0478 12.7843C26.2418 12.8723 26.3843 13.078 26.4193 13.1856C26.4907 13.4079 26.4538 13.4119 26.4609 13.4173C26.4636 13.3939 26.4667 13.3704 26.4701 13.3466C26.5849 12.5521 27.0766 11.7182 27.6774 10.975C28.8292 9.56551 30.349 8.38318 31.8967 7.28492C31.9191 7.26917 31.9418 7.25346 31.9646 7.23781C33.4855 6.20266 35.404 5.55807 37.3526 4.99603C37.3747 4.98972 37.3969 4.98344 37.419 4.97719C39.4745 4.40126 41.6129 4.06181 43.6422 4.14499C43.6562 4.1456 43.6702 4.14624 43.6841 4.1469C45.5103 4.22453 46.7617 4.73954 47.3857 6.04089C47.3893 6.04802 47.3929 6.05519 47.3965 6.06241C48.376 8.15058 48.2122 11.1851 47.3534 13.6622C47.3525 13.6649 47.3516 13.6676 47.3507 13.6702C46.2235 16.9004 43.7462 19.6986 40.9793 22.098C40.9715 22.1047 40.9638 22.1114 40.956 22.1181C37.5309 25.082 33.5582 27.4119 29.3638 29.2899C29.3375 29.3017 29.3112 29.3135 29.2849 29.3253C24.5825 31.4152 19.6839 33.1415 14.682 34.1219C11.7202 34.6927 8.72925 35.1578 5.75028 35.0523C5.61832 35.0474 5.48673 35.0424 5.3555 35.037C3.85282 34.9758 2.32819 34.8699 0.8559 34.4897C0.694595 34.4476 0.516164 34.4738 0.362661 34.5547C0.208996 34.636 0.0928391 34.7654 0.0369442 34.9222C-0.0189508 35.0791 -0.0108104 35.2528 0.0567747 35.413C0.124522 35.5727 0.246172 35.7058 0.397762 35.7752C0.397762 35.7752 0.397762 35.7752 0.397762 35.7752C1.89756 36.4545 3.50029 36.9791 5.13401 37.2339C5.27634 37.2561 5.41928 37.2764 5.56278 37.2945C8.79699 37.6994 12.0682 37.5554 15.2216 36.9773C20.5379 35.983 25.629 34.2307 30.5082 32.0645C30.5358 32.0522 30.5633 32.0399 30.5908 32.0275C34.9785 30.0628 39.2179 27.589 42.9172 24.3883C42.9255 24.3811 42.9339 24.3739 42.9422 24.3667C45.9091 21.7776 48.7564 18.6912 50.1847 14.6542C50.1859 14.6509 50.187 14.6475 50.1882 14.6442C51.2055 11.5091 51.5715 8.12219 50.0319 4.73029C50.0255 4.71782 50.0191 4.70537 50.0127 4.69295C48.9227 2.24997 45.8381 1.24961 43.7744 1.32482C43.7572 1.32448 43.74 1.32417 43.7228 1.3239C41.2512 1.29701 38.9103 1.7916 36.6679 2.51265C36.6437 2.52051 36.6196 2.52839 36.5955 2.53631C34.5742 3.21517 32.4856 3.96571 30.6063 5.38171C30.5782 5.40329 30.5502 5.425 30.5224 5.44686C28.9297 6.7148 27.4278 8.12549 26.1867 9.85384C25.5436 10.7795 24.9358 11.8065 24.735 13.0971C24.7294 13.1359 24.7244 13.1747 24.7198 13.2136C24.7134 13.3434 24.6696 13.4774 24.7846 13.8185C24.8416 13.9845 25.025 14.2429 25.2759 14.3581C25.5215 14.4751 25.7158 14.4661 25.8362 14.4566C26.2921 14.3849 26.3784 14.2791 26.5403 14.2C26.8203 14.0346 27.0268 13.8802 27.2336 13.7336Z" fill="black"/>
<path d="M30.2499 0.267131C29.9226 0.448954 29.6809 0.753354 29.578 1.11337C29.4751 1.47338 29.5195 1.85951 29.7013 2.18683C29.8831 2.51414 30.1875 2.75582 30.5475 2.85869C30.9075 2.96157 31.2937 2.91722 31.621 2.7354C31.621 2.7354 31.621 2.7354 31.621 2.7354C31.5712 2.76654 31.3403 2.86517 31.0566 2.80474C30.7765 2.74343 30.6585 2.60652 30.6353 2.58275C30.5961 2.52534 30.7008 2.68712 30.76 2.86607C30.897 3.2444 31.0055 3.74941 31.0899 4.25659C31.4839 6.80095 31.536 9.57043 31.5675 12.2912C31.5683 12.3854 31.569 12.4796 31.5696 12.5739C31.6231 17.9449 31.3891 23.2921 31.1812 28.6786C31.1787 28.744 31.1762 28.8097 31.1736 28.8756C30.8063 38.2613 30.8388 47.689 30.4607 57.096C30.46 57.1149 30.4592 57.1338 30.4585 57.1526C30.3624 59.6768 30.2698 62.2105 30.2582 64.7571C30.2529 65.8933 30.2813 67.0526 30.3374 68.1793C30.3492 68.4364 30.4627 68.6783 30.6529 68.8518C30.843 69.0253 31.0943 69.1162 31.3515 69.1044C31.6086 69.0926 31.8505 68.9791 32.024 68.789C32.1975 68.5988 32.2884 68.3475 32.2766 68.0904C32.2766 68.0904 32.2766 68.0904 32.2766 68.0904C32.221 66.9688 32.1945 65.8792 32.1993 64.7626C32.2106 62.2697 32.3024 59.7415 32.3982 57.2283C32.3989 57.2095 32.3997 57.1907 32.4004 57.1719C32.7817 47.7851 33.8028 38.409 34.1714 28.9909C34.174 28.9247 34.1765 28.8587 34.179 28.7931C34.3833 23.3906 34.4471 17.9712 34.3931 12.5534C34.3924 12.4586 34.3917 12.3639 34.391 12.2693C34.3542 9.47353 34.3214 6.70818 33.8752 3.79337C33.7716 3.1903 33.6579 2.58974 33.4137 1.90138C33.2789 1.55535 33.1525 1.18731 32.7475 0.70893C32.5355 0.471954 32.1834 0.15717 31.626 0.0392169C31.0654 -0.0801029 30.5474 0.0968686 30.2499 0.267131Z" fill="black"/>
<path d="M42.7928 28.0758C42.7543 27.6798 42.5602 27.3153 42.253 27.0625C41.9458 26.8097 41.5508 26.6893 41.1549 26.7277C40.7589 26.7662 40.3944 26.9603 40.1416 27.2675C39.8888 27.5747 39.7684 27.9697 39.8068 28.3656C39.8068 28.3656 39.8068 28.3656 39.8068 28.3656C39.8407 28.7146 39.8746 29.0634 39.9083 29.4119C40.2218 32.6742 40.5331 35.9262 40.682 39.1499C40.6833 39.1781 40.6846 39.2062 40.6859 39.2342L40.6845 39.1843C40.8449 42.2728 40.936 44.9714 42.3211 48.4925C42.3765 48.5576 42.4545 48.6404 42.5816 48.7118C42.717 48.7914 42.9244 48.8341 43.0978 48.7974L43.2017 48.7702C43.2043 48.769 43.2068 48.7679 43.2094 48.7668C43.6271 48.5725 43.6175 48.0557 43.695 47.7311C43.3461 47.7643 42.9041 47.6227 42.7927 47.6226C42.7918 47.6228 42.791 47.6229 42.7901 47.623L42.894 47.5958C42.9968 47.5711 43.1369 47.5996 43.2105 47.6427C43.281 47.681 43.308 47.7122 43.3217 47.7229C43.1151 45.4807 43.7409 42.0325 43.6841 39.1518L43.6827 39.1019C43.6815 39.0728 43.6803 39.0437 43.6789 39.0146C43.5246 35.6799 43.2084 32.3947 42.8943 29.1232C42.8606 28.7739 42.8267 28.4247 42.7928 28.0758Z" fill="black"/>
<path d="M38.0421 31.5372C37.8472 31.7113 37.7295 31.9557 37.7149 32.2166C37.7002 32.4775 37.7898 32.7335 37.9639 32.9284C38.138 33.1233 38.3824 33.241 38.6433 33.2556C38.9042 33.2703 39.1603 33.1807 39.3551 33.0066C39.3551 33.0066 39.3551 33.0066 39.3551 33.0066C40.0133 32.4185 40.6806 31.8464 41.3603 31.2959C43.3939 29.683 45.6938 27.9505 47.8741 27.5585C47.8898 27.5565 47.9052 27.5548 47.9205 27.5533C48.0467 27.5679 47.888 27.5498 47.9368 27.633C47.9707 27.7278 48.0406 27.9752 48.1066 28.2541C48.1103 28.2691 48.114 28.2843 48.1176 28.2996C48.8564 31.4352 47.1645 34.9435 44.9611 37.5999C44.9532 37.6093 44.9453 37.6186 44.9374 37.6278C44.786 37.8026 44.526 38.0178 44.2469 38.2466C44.1054 38.3635 43.9565 38.4859 43.7928 38.6376C43.6249 38.8094 43.4616 38.9087 43.1872 39.3933C43.166 39.4347 43.1446 39.48 43.1241 39.5294C43.0394 39.7314 42.9511 40.0663 43.0285 40.4558C43.1048 40.8415 43.3073 41.1089 43.4465 41.2555C43.7339 41.5425 43.8826 41.5977 44.0137 41.6766C44.2602 41.8083 44.422 41.8754 44.5818 41.949C44.8945 42.0899 45.168 42.2186 45.4378 42.3605C45.9762 42.6427 46.4843 42.9666 46.9792 43.3308L46.9117 43.2782C46.9509 43.3108 46.9909 43.344 47.0317 43.378C49.8458 45.7479 53.2176 47.6096 56.1553 49.9193C56.1769 49.9363 56.1984 49.9533 56.2199 49.9703C58.5279 51.7981 60.9268 53.5074 63.3501 55.1581C64.0906 55.6634 64.8329 56.1645 65.5743 56.665C65.7062 56.754 65.868 56.787 66.0243 56.7567C66.1805 56.7264 66.3183 56.6353 66.4073 56.5034C66.4963 56.3715 66.5293 56.2096 66.499 56.0534C66.4687 55.8972 66.3776 55.7594 66.2457 55.6704C66.2457 55.6704 66.2457 55.6704 66.2457 55.6704C65.5043 55.1699 64.7637 54.67 64.0265 54.1669C61.6138 52.5234 59.2437 50.8342 56.9642 49.0289C56.9429 49.0121 56.9217 48.9953 56.9004 48.9784C53.9923 46.6603 51.7792 43.5776 48.8901 41.1441C48.8475 41.1086 48.8054 41.0738 48.764 41.0396L48.6965 40.987C48.0794 40.5359 47.4118 40.1348 46.716 39.8017C46.372 39.6361 46.0123 39.4854 45.6924 39.3568C45.5381 39.2948 45.3767 39.2281 45.3218 39.2022C45.3002 39.1991 45.2981 39.1683 45.4647 39.3315C45.5441 39.4155 45.698 39.6086 45.7576 39.9095C45.8178 40.2132 45.7456 40.4631 45.6946 40.583C45.6839 40.6083 45.674 40.6289 45.6653 40.6453C45.5632 40.8076 45.6577 40.6439 45.7419 40.5545C45.8336 40.4471 45.9502 40.3206 46.0737 40.1879C46.323 39.9177 46.5997 39.637 46.9127 39.2517C46.9216 39.2406 46.9305 39.2294 46.9394 39.2182C49.3325 36.1088 51.4054 32.0949 50.3308 27.7355C50.3249 27.7131 50.3187 27.6907 50.3125 27.6683C50.1896 27.2489 50.0168 26.7923 49.601 26.3116C49.2142 25.8074 48.2974 25.4738 47.6987 25.5945C47.6734 25.5976 47.6479 25.6008 47.6225 25.6041C44.4209 26.2417 42.3169 28.0812 40.1202 29.7645C39.4113 30.3387 38.7207 30.9309 38.0421 31.5372Z" fill="black"/>
<path d="M56.8023 26.3277C56.8618 25.9945 56.7864 25.6512 56.5928 25.3735C56.3991 25.0958 56.1031 24.9064 55.7698 24.847C55.4366 24.7875 55.0933 24.8629 54.8156 25.0566C54.5379 25.2502 54.3485 25.5462 54.2891 25.8795C54.2891 25.8795 54.2891 25.8795 54.2891 25.8795C54.1643 26.5789 54.0394 27.2795 53.916 27.9811C53.3854 31.2073 52.7075 34.312 52.6832 37.8666C52.6833 37.8703 52.6834 37.8739 52.6835 37.8776C52.7348 38.6021 52.6997 39.3524 53.3265 40.3706C53.6395 40.8817 54.3834 41.3413 54.9761 41.3957C55.5702 41.4733 55.9996 41.3796 56.3612 41.307C56.3645 41.3063 56.3677 41.3056 56.371 41.3049C59.2134 40.6928 61.1988 38.4361 62.3018 36.1631C62.3021 36.1623 62.3025 36.1615 62.3029 36.1607C63.2226 34.0648 62.9977 32.1281 62.3597 30.329C62.3588 30.3267 62.3579 30.3243 62.357 30.322C61.4667 28.0401 59.5572 26.7378 57.9441 25.7361C57.9438 25.7359 57.9435 25.7357 57.9431 25.7355C55.8011 24.4393 53.4364 23.7447 51.4426 22.5892C51.4406 22.588 51.4385 22.5868 51.4365 22.5856C51.3465 22.532 51.2601 22.4794 51.1752 22.4263C50.8994 22.2537 50.6314 22.0705 50.4348 21.9001C50.3374 21.8162 50.263 21.7362 50.2298 21.6885C50.195 21.6332 50.1996 21.6556 50.1438 21.4842C50.062 21.2303 49.8826 21.0193 49.6451 20.8977C49.4077 20.7761 49.1317 20.7538 48.8778 20.8356C48.6239 20.9175 48.4129 21.0969 48.2913 21.3344C48.1696 21.5718 48.1473 21.8478 48.2292 22.1017C48.2292 22.1017 48.2292 22.1017 48.2292 22.1017C48.2773 22.2691 48.4169 22.6256 48.5925 22.8575C48.7664 23.099 48.946 23.2705 49.1161 23.4194C49.4576 23.7128 49.7838 23.9271 50.108 24.1317C50.2072 24.1937 50.306 24.2538 50.4073 24.3142C50.4096 24.3155 50.4119 24.3169 50.4142 24.3183C52.5523 25.5539 54.5132 26.9189 56.4218 28.1559C56.4221 28.1561 56.4224 28.1563 56.4227 28.1565C57.8962 29.1123 59.1607 30.1465 59.6154 31.387C59.6159 31.3883 59.6164 31.3897 59.617 31.391C60.0876 32.5859 60.3961 34.1258 59.9657 35.0217C59.9655 35.022 59.9654 35.0224 59.9652 35.0227C59.0784 36.8809 57.5977 38.4123 55.8211 38.7878C55.8191 38.7883 55.817 38.7887 55.8149 38.7892C55.5661 38.8471 55.366 38.8584 55.337 38.8506C55.3061 38.8296 55.4708 38.9318 55.4382 38.9184C55.3741 38.8704 55.2389 38.3164 55.2352 37.7971C55.2351 37.7944 55.235 37.7917 55.235 37.7889C55.2449 34.8598 55.9004 31.577 56.4303 28.4233C56.553 27.7258 56.6776 27.0271 56.8023 26.3277Z" fill="black"/>
<path d="M67.5466 24.0319C67.4799 23.6746 67.274 23.3583 66.9742 23.1528C66.6744 22.9472 66.3052 22.8692 65.9479 22.9359C65.5906 23.0025 65.2743 23.2084 65.0688 23.5082C64.8632 23.808 64.7852 24.1772 64.8519 24.5345C64.8519 24.5345 64.8519 24.5345 64.8519 24.5345C64.9629 25.1296 65.0739 25.7249 65.185 26.3202C65.7264 29.2193 66.2708 32.1202 66.8326 35.02C66.8327 35.0204 66.8327 35.0208 66.8328 35.0212C67.4184 38.1087 67.9854 41.2301 68.1433 44.1559C68.1433 44.156 68.1433 44.1561 68.1433 44.1562C68.2237 45.9288 68.0157 47.5926 67.2258 48.8959C67.2256 48.8962 67.2255 48.8965 67.2253 48.8968L67.3709 48.6925C65.9371 50.3874 64.2922 52.0553 62.0307 52.7771C62.0306 52.7771 62.0304 52.7772 62.0303 52.7772L62.0788 52.7702C61.7608 52.8474 61.4399 52.9456 61.1075 53.0468C60.5316 53.2233 59.9173 53.4056 59.3037 53.5307C59.8988 53.7221 60.4948 53.968 61.1297 54.1187C61.4941 54.2056 61.8692 54.2608 62.2442 54.2609L62.2927 54.254C62.2929 54.2539 62.2931 54.2539 62.2932 54.2539C65.0343 54.0915 67.8498 52.7907 69.6596 50.632L69.8052 50.4278C69.8055 50.4274 69.8057 50.4269 69.806 50.4265C71.0218 48.4042 71.2306 46.0622 71.1283 44.0168C71.1283 44.0167 71.1283 44.0166 71.1283 44.0165C70.9218 40.6472 70.1054 37.5959 69.524 34.4999C69.5239 34.4995 69.5238 34.4991 69.5237 34.4986C68.964 31.6094 68.4207 28.7144 67.8796 25.817C67.7686 25.2221 67.6576 24.627 67.5466 24.0319Z" fill="black"/>
<path d="M57.2531 25.3039C57.0904 25.4314 56.9851 25.6184 56.9602 25.8236C56.9354 26.0288 56.9931 26.2355 57.1207 26.3982C57.2482 26.5608 57.4352 26.6662 57.6404 26.691C57.8456 26.7158 58.0523 26.6581 58.215 26.5305C58.215 26.5305 58.215 26.5305 58.215 26.5305C58.5649 26.2595 59.0326 25.999 59.4981 25.7583C62.0668 24.4774 64.865 23.4696 67.6347 22.4676C67.6354 22.4674 67.6361 22.4671 67.6368 22.4669C71.2007 21.2044 74.8513 20.1189 78.5044 19.1104C78.5047 19.1103 78.505 19.1102 78.5053 19.1101C80.9761 18.4343 83.3811 17.4208 85.9208 16.9971C85.9209 16.9971 85.9209 16.9971 85.921 16.9971C86.4416 16.9105 86.9598 16.8314 87.4785 16.7678C88.0168 16.7008 88.5505 16.6583 89.0988 16.6247C89.1969 16.6184 89.2884 16.5734 89.3533 16.4996C89.4182 16.4258 89.4511 16.3292 89.4448 16.2311C89.4386 16.1331 89.3935 16.0415 89.3197 15.9766C89.2459 15.9117 89.1494 15.8788 89.0513 15.8851C89.0513 15.8851 89.0513 15.8851 89.0513 15.8851C88.5029 15.9186 87.941 15.9632 87.3885 16.0321C86.8546 16.0976 86.327 16.1783 85.7993 16.2659C85.7993 16.2659 85.7992 16.2659 85.7992 16.266C83.238 16.6928 80.599 16.8666 78.0794 17.5557C78.0791 17.5557 78.0788 17.5558 78.0785 17.5559C74.3844 18.576 70.7342 19.7162 67.1126 20.9988C67.1119 20.9991 67.1111 20.9993 67.1104 20.9996C64.3087 22.0153 61.5241 23.0086 58.7847 24.3723C58.2746 24.6389 57.7744 24.9043 57.2531 25.3039Z" fill="black"/>
<path d="M71.4201 22.5797C71.4201 22.9183 71.5546 23.243 71.794 23.4823C72.0334 23.7217 72.358 23.8562 72.6966 23.8562C73.0351 23.8562 73.3598 23.7217 73.5992 23.4823C73.8386 23.243 73.9731 22.9183 73.9731 22.5797C73.973 22.4987 73.9732 22.4147 73.9718 22.3188C73.971 22.2699 73.9701 22.2202 73.9669 22.1532C73.965 22.1186 73.9633 22.0827 73.9568 22.0206C73.953 21.9876 73.9498 21.9523 73.9347 21.8749C73.9248 21.8313 73.92 21.7903 73.8751 21.6651C73.8486 21.6043 73.8297 21.5183 73.6831 21.3209C73.5826 21.2073 73.4965 21.0644 73.1194 20.907C72.7574 20.7595 72.2971 20.8405 72.065 20.9789C72.0361 20.9944 72.0079 21.0106 71.9803 21.0272C71.2042 21.5534 71.0777 22.0641 70.8981 22.4665C69.8302 26.4631 70.1639 29.7357 70.1395 33.241C70.1435 33.469 70.1485 33.7016 70.1537 33.9273C70.1608 34.3884 70.3082 35.0161 70.7147 35.5123C71.1161 36.01 71.6264 36.2583 72.0258 36.3908C72.3526 36.4982 72.6419 36.5458 72.9081 36.5757L73.1325 36.5845C77.3307 35.9401 79.8006 33.8615 82.7125 32.0723C82.7684 32.0354 82.8243 31.9981 82.8803 31.9606L82.8954 31.9513C83.9279 31.2352 84.9215 30.4547 85.891 29.662C86.2821 29.3427 86.6697 29.0224 87.058 28.7062C87.1979 28.592 87.2886 28.4204 87.3143 28.2355C87.3398 28.0501 87.2983 27.8665 87.1945 27.7188C87.0908 27.5712 86.9321 27.4698 86.7491 27.431C86.5664 27.3924 86.3743 27.4196 86.2194 27.5125C86.2194 27.5125 86.2194 27.5125 86.2194 27.5125C85.7902 27.7706 85.3605 28.0242 84.9301 28.2734C83.8631 28.8923 82.7894 29.4782 81.7208 30.0777L81.7359 30.0684C81.6782 30.0996 81.6207 30.1308 81.5635 30.1618C78.7584 31.6467 75.4448 33.3032 73.0252 33.5907L73.2497 33.5995C73.1223 33.5839 73.0194 33.5602 72.9698 33.5432C72.9011 33.5213 72.9584 33.5213 73.0477 33.6301C73.1383 33.7397 73.1473 33.8662 73.141 33.8327C73.1319 33.6063 73.1219 33.3739 73.1116 33.147C72.9951 29.7968 72.5929 26.0549 73.2961 23.3619C73.3481 23.1638 73.5155 23.0417 73.2998 23.2127C73.2916 23.2177 73.2829 23.2226 73.2738 23.2275C73.0442 23.3646 72.5863 23.4453 72.2267 23.2987C71.8521 23.1423 71.7675 23.0009 71.6688 22.8895C71.5251 22.6959 71.5085 22.615 71.4836 22.5586C71.4423 22.4432 71.4397 22.4117 71.4319 22.3781C71.4206 22.3203 71.4201 22.3052 71.4184 22.2923C71.4162 22.2704 71.4169 22.2746 71.4171 22.2803C71.4178 22.2941 71.4187 22.3246 71.4192 22.3567C71.4201 22.4222 71.4201 22.4994 71.4201 22.5797Z" fill="black"/>
<path d="M73.3659 27.198C73.1598 27.307 73.0053 27.4935 72.9366 27.7164C72.8679 27.9392 72.8905 28.1803 72.9995 28.3865C73.1085 28.5927 73.295 28.7471 73.5179 28.8158C73.7408 28.8845 73.9818 28.8619 74.188 28.7529C74.188 28.7529 74.188 28.7529 74.188 28.7529C74.3997 28.641 74.6122 28.53 74.8251 28.4201C78.0323 26.7653 81.3619 25.3438 84.7751 24.1708C85.3193 23.9839 85.5956 22.9664 86.1556 22.7888C86.2775 22.7501 86.3994 22.7118 86.5215 22.6738C86.753 22.6017 86.985 22.5307 87.2171 22.4609C86.985 22.5307 86.753 22.6017 86.5215 22.6738C86.3994 22.7118 86.2775 22.7501 86.1556 22.7888C85.6006 22.9648 84.766 22.3143 84.2038 22.5074C80.7089 23.7085 77.3027 25.1626 74.0184 26.8572C73.8004 26.9697 73.5828 27.0834 73.3659 27.198Z" fill="black"/>
<path d="M92.8678 18.2629C92.7992 18.0457 92.6472 17.8646 92.4451 17.7595C92.243 17.6544 92.0075 17.6339 91.7903 17.7024C91.5731 17.771 91.392 17.923 91.2869 18.1251C91.1818 18.3272 91.1612 18.5627 91.2298 18.78C91.2298 18.78 91.2298 18.78 91.2298 18.78C91.3741 19.2363 91.5179 19.695 91.6746 20.1614C91.7325 20.333 91.7916 20.5044 91.8583 20.6837C91.9371 20.8771 91.9579 20.9992 92.1595 21.3377C92.1751 21.3612 92.1935 21.3876 92.2159 21.4162C92.2818 21.483 92.2808 21.549 92.5786 21.7135C92.6797 21.7605 92.8179 21.8076 93.0082 21.799C93.222 21.7952 93.463 21.6676 93.5661 21.5622C93.672 21.4625 93.7279 21.3672 93.765 21.2915C93.7929 21.2333 93.8088 21.1874 93.8215 21.1453C93.8907 20.8619 93.8643 20.8204 93.8683 20.7222C93.8632 20.5621 93.8488 20.4452 93.8338 20.3262C93.8031 20.094 93.7649 19.8795 93.7208 19.6634C93.615 19.2179 93.5771 18.8564 93.2486 18.2516C93.178 18.1353 93.0948 18.0222 93.0009 17.9175C92.386 17.2382 91.56 17.0421 90.9483 16.9887C90.7719 16.9794 90.6136 16.9945 90.4709 17.0205C88.3633 17.7025 87.7469 18.8343 86.7772 19.8838C86.7273 19.9455 86.6789 20.0078 86.6319 20.071C85.1537 22.1075 85.1168 24.4535 85.1318 26.3824C85.1329 26.4409 85.1348 26.4994 85.1376 26.5575C85.2204 27.7784 85.5362 28.9514 86.5216 30.0222L86.8749 30.2996C86.9167 30.3208 86.9587 30.3412 87.001 30.361C89.7316 31.4328 91.8773 30.3701 93.8641 29.6533L93.8843 29.6481C93.8949 29.6434 93.9055 29.6386 93.9161 29.6339C94.314 29.4553 94.7009 29.2502 95.0731 29.0267C95.498 28.7723 95.9001 28.4937 96.302 28.2211C96.302 28.2211 96.302 28.2211 96.302 28.2211C95.8294 28.3354 95.3543 28.4397 94.8833 28.5196C94.4698 28.5904 94.0593 28.6447 93.6501 28.6943C93.6392 28.6957 93.6283 28.697 93.6174 28.6983L93.6376 28.6931C91.6261 28.8486 89.3774 28.6085 88.2555 27.9105C88.2384 27.8999 88.2217 27.8892 88.2055 27.8784L88.5587 28.1559C88.2893 27.806 88.0347 27.0666 88.0108 26.4184C88.0092 26.3873 88.0081 26.3562 88.0074 26.3254C87.9608 24.4817 87.9846 22.7385 88.7555 21.5812C88.78 21.5437 88.8052 21.5067 88.8312 21.4701C89.1895 20.9754 89.5619 20.4997 89.9495 20.0822C90.3084 19.6761 90.8319 19.2823 90.9372 19.2487C90.9403 19.2443 90.9296 19.2425 90.901 19.2363C91.2691 19.202 91.5057 19.2115 91.5899 19.2678C91.606 19.2782 91.622 19.2905 91.6388 19.3074C91.7173 19.3781 91.8924 19.7889 91.9882 20.102C92.0403 20.2678 92.086 20.4396 92.1167 20.5953C92.132 20.6714 92.1432 20.751 92.146 20.7859C92.1527 20.7892 92.1287 20.8453 92.1724 20.6584C92.1954 20.6049 92.1985 20.503 92.394 20.305C92.4887 20.2077 92.7175 20.0862 92.9188 20.0828C93.0979 20.0748 93.2249 20.1192 93.3133 20.1602C93.5689 20.3032 93.5367 20.333 93.568 20.3568C93.58 20.3721 93.5874 20.3829 93.5921 20.3901C93.612 20.4302 93.5144 20.2172 93.4678 20.0837C93.4116 19.9329 93.3567 19.7742 93.3024 19.6131C93.1544 19.1729 93.0118 18.7186 92.8678 18.2629Z" fill="black"/>
<path d="M89.6905 14.6792C89.9965 14.5759 90.2489 14.3553 90.3922 14.0659C90.5355 13.7765 90.558 13.4421 90.4547 13.1361C90.3514 12.8301 90.1308 12.5777 89.8414 12.4344C89.552 12.2911 89.2175 12.2686 88.9116 12.3719C88.9116 12.3719 88.9116 12.3719 88.9116 12.3719C88.8303 12.3993 88.7581 12.4233 88.678 12.4496C88.6382 12.4626 88.5996 12.4751 88.5614 12.4874C88.5481 12.4918 88.5483 12.4916 88.5273 12.4984C88.508 12.5053 88.5677 12.4835 88.4621 12.5214C88.4266 12.5405 88.4716 12.4989 88.235 12.6368C88.1971 12.6622 88.1479 12.693 88.0625 12.7722C87.9867 12.8615 87.8144 12.9597 87.7011 13.4314C87.6506 13.6617 87.6885 14.0129 87.8425 14.2668C87.9946 14.5272 88.1883 14.6592 88.3225 14.732C88.5993 14.8696 88.7145 14.8598 88.8019 14.8725C89.0926 14.882 89.0734 14.8581 89.1219 14.8554C89.2248 14.8342 89.2075 14.8354 89.2236 14.8317C89.2392 14.8274 89.245 14.8256 89.2449 14.8256C89.246 14.8253 89.247 14.825 89.2479 14.8247C89.2498 14.8242 89.2514 14.8237 89.2531 14.8232C89.2591 14.8214 89.2671 14.819 89.2727 14.8173C89.2886 14.8125 89.3144 14.8048 89.3311 14.7997C89.4934 14.751 89.6497 14.705 89.8145 14.6569C90.1345 14.5635 90.4657 14.4686 90.7902 14.3765C92.6527 13.8485 94.5068 13.3454 96.3858 12.8413C96.4616 12.821 96.5383 12.8005 96.6158 12.78C103.755 10.9449 111.019 9.23456 118.265 7.59856C118.29 7.59291 118.315 7.58727 118.341 7.58166C121.076 6.99177 123.709 5.78123 126.522 5.55321C126.635 5.54575 126.747 5.54024 126.859 5.53599C126.864 5.53582 126.868 5.53566 126.872 5.5355C127.438 5.51488 128.004 5.49573 128.57 5.49805C128.57 5.49805 128.57 5.49805 128.57 5.49805C128.004 5.49573 127.438 5.51488 126.872 5.5355C126.868 5.53566 126.864 5.53582 126.859 5.53598C126.747 5.54007 126.635 5.54336 126.521 5.5467C123.719 5.66905 120.829 5.61554 118.044 6.06927C118.018 6.07363 117.993 6.07802 117.967 6.08243C110.623 7.3507 103.278 8.554 95.9918 10.426C95.9122 10.4471 95.8334 10.4681 95.7553 10.489C93.8691 10.9951 92.0091 11.4998 90.1249 12.0338C89.7963 12.1271 89.4602 12.2234 89.1322 12.3192C88.9632 12.3685 88.8024 12.4158 88.6309 12.4673C88.6134 12.4725 88.5857 12.4809 88.5706 12.4854C88.5654 12.487 88.5582 12.4892 88.5566 12.4896C88.5561 12.4898 88.5559 12.4898 88.5561 12.4898C88.5562 12.4897 88.5564 12.4897 88.5568 12.4896C88.5569 12.4896 88.5578 12.4892 88.5726 12.4851C88.5879 12.4816 88.5702 12.483 88.6729 12.4618C88.7214 12.4591 88.7021 12.4352 88.9928 12.4447C89.0802 12.4574 89.1954 12.4475 89.4722 12.5852C89.6064 12.6579 89.8001 12.7899 89.9522 13.0504C90.1062 13.3042 90.1441 13.6555 90.0936 13.8858C89.9802 14.3574 89.808 14.4556 89.7322 14.545C89.6468 14.6241 89.5976 14.6549 89.5597 14.6803C89.3231 14.8182 89.3682 14.7766 89.3329 14.7957C89.2325 14.8317 89.2935 14.8096 89.2798 14.8146C89.2896 14.8114 89.2953 14.8096 89.308 14.8055C89.3492 14.7922 89.3925 14.7782 89.4361 14.7639C89.5239 14.7351 89.6024 14.709 89.6905 14.6792Z" fill="black"/>
<path d="M99.4267 11.3723C99.4135 11.0246 99.2628 10.6964 99.0077 10.4599C98.7526 10.2234 98.4139 10.0979 98.0663 10.111C97.7186 10.1242 97.3904 10.2749 97.1539 10.53C96.9174 10.7852 96.7919 11.1238 96.805 11.4715C96.805 11.4715 96.805 11.4715 96.805 11.4715C96.8267 12.0447 96.8484 12.6176 96.87 13.1909C97.0773 18.7209 97.2921 24.2562 97.4556 29.7745C97.4556 29.7745 97.4556 29.7745 97.4556 29.7746L97.4554 29.7624C97.5185 33.7838 98.9494 37.7876 98.7502 41.8236C98.7502 41.8236 98.7502 41.8236 98.7501 41.8237C98.6874 42.58 98.6064 43.3344 98.5215 44.0887C98.4571 44.6585 98.3899 45.2282 98.3227 45.7979C98.3227 45.7979 98.3227 45.7979 98.3227 45.7979C98.3899 45.2282 98.4571 44.6585 98.5215 44.0887C98.6064 43.3344 98.6874 42.58 98.7501 41.8237C98.7502 41.8236 98.7502 41.8236 98.7502 41.8236C98.9493 37.8124 100.142 33.7503 100.078 29.7112L100.078 29.699C100.078 29.699 100.078 29.699 100.078 29.699C99.9138 24.1573 99.699 18.6239 99.4917 13.0919C99.47 12.5185 99.4484 11.9455 99.4267 11.3723Z" fill="black"/>
<path d="M112.127 15.2897C111.929 15.4203 111.791 15.6242 111.744 15.8565C111.696 16.0888 111.743 16.3305 111.874 16.5284C112.004 16.7264 112.208 16.8643 112.44 16.9119C112.673 16.9595 112.914 16.9128 113.112 16.7822C113.112 16.7822 113.112 16.7822 113.112 16.7822C113.976 16.2202 114.154 15.1881 114.113 14.516C114.112 14.5127 114.112 14.5094 114.112 14.5061C114.103 14.2976 114.087 14.0846 114.048 13.8691C113.98 13.4844 113.823 13.0881 113.564 12.7918C113.559 12.7868 113.555 12.7819 113.551 12.7769C111.808 11.2226 110.204 11.695 108.823 11.7979C108.817 11.7989 108.81 11.7999 108.803 11.8009C105.886 12.2634 103.754 14.2703 102.212 16.2992C102.209 16.3031 102.206 16.307 102.203 16.3109C101.434 17.2885 101.262 18.7632 101.641 19.8544C101.645 19.8647 101.648 19.875 101.651 19.8852C102.433 21.6561 103.458 21.9255 104.324 22.4832C105.213 22.9618 106.097 23.3331 106.976 23.6772C108.739 24.3598 110.495 24.922 112.247 25.4821C112.255 25.485 112.264 25.4878 112.273 25.4906C112.623 25.6023 112.972 25.7273 113.242 25.8487C113.373 25.9048 113.496 25.9801 113.485 25.968C113.48 25.9519 113.405 25.927 113.295 25.6589C113.244 25.5281 113.218 25.3218 113.248 25.1595C113.275 24.9952 113.331 24.892 113.364 24.8397L113.958 24.316C113.951 24.3196 113.944 24.3232 113.936 24.3268C111.241 25.5645 107.896 26.1938 104.712 26.34C104.519 26.3456 104.325 26.3478 104.137 26.3464C104.136 26.3464 104.135 26.3464 104.135 26.3464L104.179 26.3517C103.723 26.2884 103.255 26.6804 102.792 26.3294C102.824 26.9095 103.499 27.4538 103.989 27.563L104.034 27.5683C104.035 27.5684 104.036 27.5686 104.037 27.5687C104.24 27.5995 104.448 27.6263 104.653 27.6495C108.071 27.9557 111.467 27.8811 114.941 26.6736C114.951 26.6699 114.961 26.6661 114.971 26.6623L115.395 26.4569L115.565 26.1386C115.742 25.901 115.914 25.2173 115.707 24.7476C115.524 24.2917 115.305 24.1194 115.15 23.9755C114.827 23.7081 114.599 23.5992 114.368 23.4816C113.918 23.2638 113.511 23.1184 113.107 22.9784C113.097 22.975 113.087 22.9715 113.077 22.968C111.357 22.3779 109.649 21.7742 108.015 21.0963C107.204 20.7575 106.403 20.3961 105.691 19.9982C105.338 19.8001 105.002 19.5863 104.745 19.3801C104.483 19.1835 104.328 18.934 104.37 19.0007C104.369 18.9969 104.367 18.9931 104.366 18.9893C104.239 18.5618 104.269 18.269 104.471 17.9541C104.473 17.9507 104.475 17.9473 104.478 17.944C105.718 16.1569 107.352 14.6174 109.225 14.2302C109.231 14.2291 109.237 14.2279 109.242 14.2268C110.354 13.9693 111.729 13.9603 111.999 14.2368C112 14.2379 112.001 14.239 112.003 14.24C112.076 14.3019 112.176 14.3376 112.251 14.4216C112.292 14.4671 112.322 14.5256 112.326 14.5899C112.326 14.5918 112.326 14.5936 112.326 14.5954C112.346 15.0152 112.235 15.23 112.127 15.2897Z" fill="black"/>
<path d="M127.473 17.4895C127.435 17.3658 127.349 17.2624 127.234 17.202C127.12 17.1415 126.986 17.1291 126.862 17.1674C126.739 17.2056 126.635 17.2914 126.575 17.406C126.514 17.5205 126.502 17.6543 126.54 17.778C126.54 17.778 126.54 17.778 126.54 17.778C126.577 17.8966 126.612 18.0275 126.641 18.1517C126.675 18.2943 126.389 18.499 126.397 18.6376C126.415 18.9101 126.427 19.1818 126.441 19.4622C126.472 20.0753 126.459 20.707 126.421 21.3414C126.281 23.6343 125.846 25.9262 125.42 28.2886C125.369 28.5856 125.314 28.8825 125.271 29.2215C125.296 29.1353 125.236 28.9583 125.589 28.5654C125.773 28.3791 126.046 28.2744 126.228 28.256C126.401 28.2351 126.511 28.2563 126.573 28.268C126.811 28.3296 126.75 28.3286 126.742 28.312C126.691 28.2752 126.572 28.1866 126.454 28.0986C126.207 27.918 125.916 27.7086 125.529 27.5269C125.257 27.402 124.928 27.279 124.502 27.2484C120.651 27.0768 118.023 29.8323 116.299 32.4005C116.172 32.5969 116.041 32.8002 115.919 33.0026C115.507 33.7023 115.579 34.5177 115.767 35.021C115.91 35.4138 116.1 35.7199 116.36 36.0161C116.993 36.7602 118.074 37.1534 118.918 37.1272C119.779 37.1204 120.484 36.8859 121.133 36.6496C121.325 36.5792 121.541 36.4865 121.668 36.4318C121.712 36.4121 121.77 36.3954 121.703 36.4127C121.674 36.4177 121.622 36.4374 121.459 36.4365C121.432 36.4354 121.276 36.4346 121.093 36.3656C120.909 36.3024 120.618 36.1105 120.471 35.8014C120.214 35.1967 120.436 34.8975 120.478 34.7812C120.63 34.5263 120.619 34.5896 120.626 34.5715C120.613 34.5882 120.501 34.686 120.407 34.763C120.212 34.9237 119.996 35.0942 119.781 35.2663C119.354 35.6082 118.916 35.9626 118.485 36.3318C117.628 37.0867 116.764 37.8151 116.015 38.968C115.929 39.1077 115.846 39.2596 115.772 39.4363C115.64 39.7956 115.36 40.3444 115.717 41.1472C115.907 41.5256 116.195 41.7508 116.439 41.8802C116.946 42.1352 117.357 42.1275 117.73 42.0991C117.866 42.0845 118 42.0675 118.133 42.0517C119.152 41.9311 120.066 41.5782 120.873 41.2139C121.276 41.0323 121.658 40.8443 122.002 40.6959C122.327 40.5441 122.702 40.4602 122.645 40.4907C122.526 40.4918 122.293 40.4394 122.135 40.3372C121.974 40.238 121.895 40.1376 121.854 40.0839C121.773 39.9703 121.781 39.9625 121.78 39.9695C122.022 41.0561 122.027 42.9543 122.199 44.4873C122.21 44.5995 122.223 44.7144 122.237 44.8316C122.949 50.8181 123.633 56.8368 124.544 62.8675C124.549 62.9025 124.555 62.9372 124.56 62.9718C124.803 64.5042 125.61 65.9681 126.353 67.3914C126.744 68.1147 127.087 68.8449 127.538 69.4825C127.541 69.4861 127.543 69.4897 127.546 69.4932C127.807 69.88 128.198 70.1954 128.667 70.2748C128.198 70.1954 127.807 69.88 127.546 69.4932C127.543 69.4897 127.541 69.4861 127.538 69.4824C127.083 68.8298 127.029 68.0105 127.029 67.2243C127.052 65.6687 127.391 64.0942 127.192 62.5942C127.188 62.5604 127.183 62.5263 127.179 62.4921C126.434 56.5397 125.932 50.5035 125.216 44.4732C125.202 44.3545 125.187 44.2382 125.171 44.1246C124.91 42.4603 124.689 41.1227 124.1 39.0875C124.051 38.9714 124.007 38.8445 123.85 38.6248C123.771 38.52 123.645 38.3698 123.43 38.2368C123.217 38.1001 122.918 38.0308 122.734 38.03C121.834 38.0491 121.425 38.3306 120.994 38.5179C120.58 38.7215 120.223 38.9183 119.871 39.0925C119.172 39.4419 118.507 39.6985 117.863 39.7735C117.778 39.7836 117.694 39.7852 117.61 39.7821C117.526 39.7756 117.463 39.715 117.559 39.7574C117.603 39.7816 117.708 39.8555 117.79 40.0327C117.906 40.3785 117.746 40.3803 117.803 40.2835C117.82 40.242 117.849 40.1849 117.888 40.1231C118.322 39.4386 119.131 38.7042 119.927 38.0466C120.332 37.7131 120.753 37.3872 121.182 37.0614C121.399 36.8961 121.615 36.7336 121.845 36.5542C121.968 36.4555 122.067 36.3853 122.251 36.2105C122.304 36.1472 122.348 36.1528 122.527 35.8479C122.58 35.7105 122.805 35.3952 122.543 34.7791C122.393 34.4637 122.096 34.267 121.903 34.2008C121.713 34.1286 121.541 34.1262 121.508 34.1252C121.321 34.1236 121.232 34.1491 121.162 34.1638C120.974 34.2114 120.909 34.2415 120.81 34.2783C120.609 34.358 120.493 34.4037 120.345 34.4542C119.885 34.6136 119.41 34.6498 119.087 34.5686C118.753 34.4804 118.668 34.3505 118.546 34.1716C118.53 34.138 118.498 34.0671 118.495 34.0542C118.487 34.0154 118.526 34.1955 118.405 34.3817C118.487 34.2157 118.577 34.045 118.674 33.8834C120.002 31.6718 122.165 29.6707 124.355 29.7714C124.336 29.765 124.401 29.7698 124.499 29.8112C124.641 29.8689 124.836 29.9795 125.068 30.126C125.188 30.2003 125.307 30.2809 125.505 30.3931C125.62 30.4487 125.688 30.5217 126.067 30.6169C126.163 30.6359 126.313 30.6615 126.52 30.6363C126.739 30.6133 127.046 30.4945 127.256 30.2823C127.662 29.8355 127.615 29.5886 127.647 29.4258C127.655 29.1893 127.683 28.8973 127.714 28.6155C127.984 26.2823 128.308 23.8576 128.308 21.3938C128.307 20.7068 128.28 20.0132 128.2 19.313C128.163 18.9925 128.104 18.6779 128.021 18.3588C127.977 18.1917 127.629 18.0875 127.592 17.9282C127.558 17.7851 127.517 17.6316 127.473 17.4895Z" fill="black"/>
<path d="M149.066 18.3856C148.851 18.5382 148.705 18.7699 148.661 19.0298C148.617 19.2897 148.677 19.5566 148.83 19.7716C148.983 19.9867 149.214 20.1323 149.474 20.1766C149.734 20.2208 150.001 20.1599 150.216 20.0074C150.216 20.0074 150.216 20.0074 150.216 20.0074C151.398 19.1669 152.592 18.3297 153.764 17.4008C154.362 16.9212 154.956 16.43 155.53 15.8099C155.535 15.8042 155.54 15.7985 155.545 15.7929C155.913 15.3792 156.314 14.9378 156.587 14.2523C156.886 13.5747 156.78 12.5833 156.466 12.0083C156.462 11.9997 156.458 11.991 156.454 11.9824C155.057 8.71009 150.829 7.8127 147.973 8.47901C144.061 9.2667 140.63 11.2511 137.949 14.2081C136.742 15.615 135.605 17.3257 135.429 19.5691C135.425 19.6305 135.422 19.692 135.42 19.7536C135.338 21.9071 136.048 24.0413 137.188 25.7541C137.215 25.7944 137.242 25.8346 137.269 25.8748C138.914 28.2539 141.026 29.865 143.055 31.4313C143.084 31.4531 143.113 31.475 143.142 31.4969C145.677 33.4153 148.308 35.1671 150.596 37.0821C150.615 37.0983 150.634 37.1144 150.653 37.1305C151.794 38.0949 152.892 39.3047 152.974 40.0965C152.976 40.1076 152.977 40.1186 152.979 40.1296C153.005 40.3935 152.977 40.5045 152.865 40.6911C152.752 40.8748 152.494 41.1148 152.148 41.3299C152.134 41.3387 152.12 41.3476 152.105 41.3565C150.721 42.1824 148.687 42.5925 146.737 42.8687C146.721 42.8709 146.705 42.8731 146.689 42.8753C143.818 43.249 140.821 43.5661 137.972 43.4701C137.964 43.4698 137.956 43.4694 137.947 43.4691C137.188 43.4384 136.413 43.6388 135.594 43.7127C134.819 43.7868 133.966 43.7157 133.345 43.2194C133.342 43.2173 133.34 43.2152 133.337 43.2131C132.806 42.8099 132.423 42.2365 132.215 41.6059C132.215 41.6059 132.215 41.6059 132.215 41.6059C132.423 42.2365 132.806 42.8099 133.337 43.2131C133.34 43.2152 133.342 43.2173 133.345 43.2194C133.948 43.7027 134.554 44.2784 135.276 44.7933C136.02 45.3261 136.856 45.78 137.719 45.903C137.729 45.9043 137.738 45.9056 137.747 45.9068C140.918 46.2883 143.984 46.2446 147.095 45.8476C147.113 45.8452 147.13 45.8429 147.147 45.8405C149.285 45.5112 151.45 45.195 153.675 43.913C153.699 43.8985 153.722 43.8838 153.746 43.869C154.314 43.507 154.917 43.0411 155.392 42.3076C155.878 41.5839 156.076 40.5656 155.955 39.7542C155.951 39.7206 155.946 39.687 155.941 39.6532C155.425 37.1528 153.861 36.0237 152.605 34.853C152.584 34.8348 152.563 34.8165 152.541 34.7982C150.015 32.6886 147.411 30.9695 144.95 29.1032C144.922 29.0821 144.894 29.0611 144.867 29.0401C142.912 27.5472 140.98 25.9942 139.756 24.1972C139.735 24.1668 139.715 24.1363 139.695 24.1059C138.835 22.8061 138.365 21.3315 138.419 19.8528C138.42 19.8217 138.421 19.7902 138.423 19.7586C138.491 18.6042 139.231 17.2815 140.199 16.1571C142.307 13.7447 145.354 11.8231 148.493 11.1046C150.905 10.5489 153.352 10.9978 154.402 13.0354C154.406 13.0411 154.409 13.0469 154.412 13.0527C154.55 13.3209 154.591 13.355 154.567 13.5896C154.534 13.8182 154.346 14.1602 154.073 14.4565C154.069 14.4607 154.066 14.4648 154.062 14.469C153.632 14.9365 153.083 15.4006 152.526 15.8452C151.425 16.7178 150.246 17.5469 149.066 18.3856Z" fill="black"/>
<path d="M154.241 24.2871C154.162 24.6771 154.241 25.0824 154.461 25.4139C154.68 25.7455 155.023 25.9761 155.413 26.0551C155.803 26.1341 156.208 26.0549 156.54 25.8351C156.871 25.6152 157.102 25.2727 157.181 24.8828C157.181 24.8828 157.181 24.8828 157.181 24.8828C157.185 24.8503 157.205 24.7982 157.161 24.9403C157.142 24.9859 157.142 25.0265 157.027 25.2221C156.97 25.2996 156.886 25.4859 156.522 25.7126C156.316 25.8395 155.971 25.9401 155.663 25.9121C155.362 25.8934 155.091 25.7649 154.955 25.6718C154.718 25.5137 154.61 25.3559 154.571 25.3042C154.522 25.2354 154.486 25.17 154.473 25.1453C154.438 25.0798 154.424 25.042 154.415 25.0209C154.368 24.8859 154.405 24.9932 154.412 25.0385C154.439 25.1612 154.467 25.3195 154.493 25.4771C154.561 25.8868 154.622 26.3067 154.683 26.7387C154.69 26.7889 154.697 26.8403 154.704 26.8929C155.185 30.3958 155.597 33.9255 156.2 37.5028C156.204 37.5245 156.208 37.5462 156.211 37.5677C156.335 38.2631 156.497 38.9574 156.73 39.6816C157.004 40.3621 157.127 41.3102 158.309 42.1523C158.323 42.1606 158.336 42.1689 158.349 42.1771C159.164 42.6738 160.104 42.1318 160.664 42.025C160.67 42.024 160.676 42.0232 160.681 42.0223C160.948 41.9821 161.198 41.9137 161.433 41.8349C161.796 41.7123 162.126 41.5658 162.441 41.4278C162.591 41.3621 162.709 41.2394 162.769 41.0868C162.828 40.9342 162.825 40.7642 162.759 40.6142C162.693 40.4642 162.571 40.3464 162.418 40.2868C162.265 40.2273 162.095 40.2307 161.945 40.2965C161.945 40.2965 161.945 40.2965 161.945 40.2965C161.63 40.4347 161.329 40.5666 161.04 40.6639C160.853 40.7268 160.671 40.7747 160.497 40.8008C160.494 40.8013 160.49 40.8018 160.486 40.8023C160.277 40.8282 160.068 40.6665 159.96 40.4823C159.845 40.2964 159.842 40.1111 159.781 40.0496C159.779 40.0473 159.777 40.045 159.775 40.0426C159.734 39.9969 159.77 40.0125 159.754 39.9727C159.742 39.936 159.71 39.855 159.678 39.7496C159.613 39.5366 159.548 39.2475 159.491 38.9518C159.377 38.3517 159.281 37.6978 159.166 37.0474C159.162 37.0273 159.159 37.007 159.155 36.9865C158.576 33.557 158.161 30.0206 157.676 26.4808C157.668 26.4269 157.661 26.3741 157.654 26.3224C157.591 25.8759 157.529 25.4451 157.452 24.9821C157.421 24.7993 157.391 24.6214 157.345 24.4055C157.315 24.2829 157.316 24.2224 157.208 23.9253C157.193 23.886 157.168 23.8255 157.125 23.7427C157.108 23.7109 157.064 23.6323 157.009 23.5561C156.966 23.4975 156.849 23.3284 156.604 23.1659C156.463 23.0698 156.187 22.9389 155.881 22.92C155.568 22.8916 155.218 22.9935 155.007 23.1233C154.634 23.3548 154.542 23.5516 154.48 23.6371C154.353 23.8521 154.345 23.913 154.32 23.9779C154.249 24.2031 154.253 24.2349 154.241 24.2871Z" fill="black"/>
<path d="M163.941 23.7183C163.938 23.3205 163.777 22.9404 163.493 22.6615C163.209 22.3827 162.826 22.228 162.428 22.2315C162.031 22.235 161.65 22.3964 161.372 22.6801C161.093 22.9639 160.938 23.3468 160.942 23.7446C160.942 23.7446 160.942 23.7446 160.942 23.7446C160.944 24.0498 160.948 24.3491 160.953 24.6535C161.089 28.9219 161.103 33.1223 162.557 37.6002L162.575 37.6442C162.575 37.6447 162.575 37.6451 162.575 37.6455C162.894 38.4206 163.279 39.2374 163.765 39.9945C163.765 39.9948 163.765 39.9951 163.766 39.9954C163.989 40.3665 164.461 40.8214 164.906 41.0013C165.253 41.1544 165.611 41.2226 165.994 41.2424C166.161 41.2463 166.327 41.2431 166.477 41.2062C166.627 41.169 166.752 41.0985 166.837 40.9916C166.923 40.8848 166.965 40.7482 166.969 40.5934C166.972 40.4389 166.94 40.2763 166.9 40.1138C166.9 40.1138 166.9 40.1138 166.9 40.1138C166.816 39.7585 166.716 39.4443 166.629 39.1865C166.504 38.8358 166.483 38.6782 166.297 38.3861C166.297 38.3859 166.297 38.3856 166.297 38.3854C165.928 37.8111 165.633 37.1916 165.35 36.5046C165.35 36.5042 165.35 36.5038 165.349 36.5034L165.367 36.5475C164.198 33.0263 164.056 28.6899 163.953 24.6036C163.948 24.3074 163.944 24.0158 163.941 23.7183Z" fill="black"/>
<path d="M151.788 38.2612C151.788 38.2612 151.788 38.2612 151.788 38.2612C152.113 38.0644 152.437 37.8676 152.762 37.6708C157.353 34.8888 161.942 32.0964 166.55 29.3478C166.551 29.3478 166.551 29.3478 166.551 29.3477C167.812 28.6003 169.067 27.8523 170.35 27.1519C170.683 26.971 171.021 26.7978 171.361 26.6289C171.361 26.6289 171.361 26.6289 171.361 26.6289C171.021 26.7978 170.683 26.971 170.35 27.1519C169.067 27.8523 167.812 28.6003 166.551 29.3477C166.551 29.3478 166.551 29.3478 166.55 29.3478C161.942 32.0964 157.353 34.8888 152.762 37.6708C152.437 37.8676 152.113 38.0644 151.788 38.2612Z" fill="black"/>
<path d="M155.711 33.3547C155.988 33.1748 156.265 32.9948 156.542 32.8149C160.338 30.3506 164.131 27.8815 167.937 25.4354C167.937 25.4354 167.937 25.4354 167.937 25.4353C169.136 24.667 170.329 23.9018 171.543 23.1619C171.825 22.9904 172.109 22.821 172.393 22.6523C172.109 22.821 171.825 22.9904 171.543 23.1619C170.329 23.9018 169.136 24.667 167.937 25.4353C167.937 25.4354 167.937 25.4354 167.937 25.4354C164.131 27.8815 160.338 30.3506 156.542 32.8149C156.265 32.9948 155.988 33.1748 155.711 33.3547Z" fill="black"/>
<path d="M153.77 34.583C153.77 34.583 153.77 34.583 153.77 34.583C154.008 34.4255 154.245 34.2679 154.483 34.1105C157.639 32.019 160.791 29.9231 163.96 27.854C163.96 27.8539 163.96 27.8539 163.96 27.8539C165.088 27.121 166.216 26.3905 167.365 25.694C167.609 25.5464 167.854 25.4006 168.099 25.2549C167.854 25.4006 167.609 25.5464 167.365 25.694C166.216 26.3905 165.088 27.121 163.96 27.8539C163.96 27.8539 163.96 27.8539 163.96 27.854C160.791 29.9231 157.639 32.019 154.483 34.1105C154.245 34.2679 154.008 34.4255 153.77 34.583Z" fill="black"/>
<path d="M146.908 34.9009C146.648 35.0671 146.464 35.3299 146.397 35.6316C146.331 35.9332 146.387 36.2489 146.553 36.5093C146.719 36.7697 146.982 36.9533 147.284 37.0199C147.585 37.0865 147.901 37.0305 148.162 36.8643C148.162 36.8643 148.162 36.8643 148.162 36.8643C148.518 36.6367 148.874 36.4093 149.23 36.1823C151.92 34.4708 154.606 32.7644 157.355 31.2502C157.355 31.2502 157.355 31.2502 157.355 31.2502C159.669 29.9765 161.999 28.7265 164.42 27.5777C164.42 27.5777 164.42 27.5777 164.42 27.5776C165.756 26.9406 166.84 25.6547 168.241 25.1424C168.241 25.1424 168.241 25.1424 168.241 25.1424C168.465 25.0608 168.69 24.9802 168.915 24.9023C169.314 24.7634 169.717 24.6347 170.121 24.5107C169.717 24.6347 169.314 24.7634 168.915 24.9023C168.69 24.9802 168.465 25.0608 168.241 25.1424C168.241 25.1424 168.241 25.1424 168.241 25.1424C166.849 25.6512 165.171 25.4789 163.758 25.9801C163.758 25.9802 163.758 25.9802 163.757 25.9802C161.204 26.8793 158.636 27.8854 156.234 29.2081C156.234 29.2081 156.234 29.2081 156.234 29.2081C153.388 30.7766 150.677 32.5012 147.978 34.218C147.621 34.4456 147.264 34.6733 146.908 34.9009Z" fill="black"/>
<path d="M172.775 24.8093C172.825 24.4343 172.723 24.0549 172.493 23.7546C172.263 23.4542 171.923 23.2576 171.548 23.2079C171.173 23.1583 170.794 23.2596 170.493 23.4897C170.193 23.7198 169.996 24.0597 169.947 24.4348C169.947 24.4348 169.947 24.4348 169.947 24.4348C169.861 25.0809 169.784 25.7188 169.713 26.3668C169.501 28.367 169.35 30.3872 169.407 32.4672C169.621 34.5159 169.229 36.8024 171.694 39.0776C171.711 39.0893 171.727 39.1008 171.744 39.1123C173.236 40.1387 175.022 39.8456 176.208 39.3726C176.22 39.3678 176.232 39.363 176.245 39.3581C177.884 38.6622 179.08 37.6384 180.089 36.2263C180.094 36.2186 180.1 36.211 180.105 36.2033C180.944 35.0206 181.313 33.3569 181.058 31.9709L180.929 31.5562C180.927 31.5522 180.925 31.5481 180.923 31.5441C178.955 27.8969 175.407 25.3321 171.561 24.4068L171.537 24.4C171.536 24.3996 171.534 24.3993 171.532 24.399C171.463 24.386 171.393 24.3762 171.323 24.3693C170.655 24.2975 169.917 24.498 169.296 24.6968C169.95 24.864 170.481 25.2545 171.049 25.4918C171.108 25.5164 171.169 25.5395 171.231 25.5606C171.232 25.5611 171.234 25.5616 171.235 25.5621L171.211 25.5553C174.554 26.8988 177.167 29.638 178.58 32.7253C178.582 32.7288 178.583 32.7322 178.585 32.7357L178.457 32.3209C178.542 33.2177 178.381 33.9634 177.878 34.6663C177.875 34.6708 177.871 34.6752 177.868 34.6797C177.241 35.5395 176.166 36.3464 175.213 36.7173C175.206 36.7199 175.199 36.7225 175.192 36.7251C174.377 37.0378 173.707 37.0203 173.354 36.7569C173.349 36.7537 173.344 36.7504 173.34 36.747C172.703 36.3617 172.278 34.1451 172.259 32.381C172.206 30.5183 172.345 28.5917 172.55 26.6733C172.617 26.0507 172.692 25.4351 172.775 24.8093Z" fill="black"/>
<path d="M166.664 19.8792C166.412 20.0625 166.243 20.3386 166.194 20.6468C166.145 20.955 166.22 21.2699 166.404 21.5224C166.587 21.7749 166.863 21.9442 167.171 21.9931C167.479 22.0421 167.794 21.9665 168.047 21.7832C168.047 21.7832 168.047 21.7832 168.047 21.7832C168.354 21.5634 168.912 21.3012 169.427 21.0814C172.083 19.9836 174.969 19.1153 177.82 18.2524C177.821 18.2523 177.821 18.2521 177.822 18.252C183.097 16.7158 188.516 15.3293 193.921 14.0483C193.921 14.0482 193.921 14.0481 193.921 14.0481C196.168 13.5394 198.299 12.3262 200.64 12.2264C200.695 12.2245 200.751 12.2232 200.805 12.2225C200.805 12.2225 200.805 12.2225 200.805 12.2225C201.355 12.2163 201.907 12.2148 202.454 12.2837C202.454 12.2837 202.454 12.2837 202.454 12.2837C201.907 12.2148 201.355 12.2163 200.805 12.2225C200.805 12.2225 200.805 12.2225 200.805 12.2225C200.751 12.2232 200.695 12.2237 200.64 12.2239C198.331 12.2493 195.892 11.9908 193.58 12.3888C193.579 12.3889 193.579 12.3889 193.579 12.3889C188.074 13.3931 182.58 14.4168 177.148 15.9975C177.148 15.9976 177.147 15.9978 177.147 15.9979C174.253 16.876 171.39 17.7268 168.504 18.9172C167.912 19.1785 167.349 19.4056 166.664 19.8792Z" fill="black"/>
<path d="M184.173 19.5716C184.155 19.1743 183.979 18.8006 183.684 18.5329C183.39 18.2653 183.001 18.1254 182.604 18.1443C182.207 18.1631 181.833 18.339 181.565 18.6333C181.298 18.9276 181.158 19.3161 181.177 19.7135C181.177 19.7135 181.177 19.7135 181.177 19.7135C181.192 20.0384 181.208 20.3574 181.223 20.6805C181.453 24.855 181.605 28.9726 182.259 33.2731L182.267 33.3169C182.268 33.3184 182.268 33.3199 182.268 33.3214C182.517 34.4943 182.899 35.6141 183.62 36.8159C183.621 36.8182 183.623 36.8204 183.624 36.8227C183.925 37.3562 184.752 37.8713 185.399 37.8474C185.826 37.8597 186.199 37.7794 186.557 37.7404C186.557 37.7404 186.557 37.7404 186.557 37.7404C186.308 37.4833 186.08 37.1722 185.945 36.8717C185.722 36.39 185.891 36.1189 185.78 35.7679C185.78 35.7664 185.779 35.7649 185.779 35.7634C185.54 34.8991 185.424 33.7767 185.209 32.7283C185.209 32.7269 185.208 32.7255 185.208 32.7242L185.216 32.7679C184.617 28.8566 184.442 24.6491 184.22 20.5326C184.204 20.2116 184.189 19.8946 184.173 19.5716Z" fill="black"/>
<path d="M196.433 21.5119C196.426 21.214 196.301 20.9311 196.085 20.7255C195.87 20.5198 195.581 20.4083 195.283 20.4153C194.986 20.4224 194.703 20.5475 194.497 20.7632C194.291 20.9788 194.18 21.2673 194.187 21.5652C194.187 21.5652 194.187 21.5652 194.187 21.5652C194.207 22.3887 194.224 23.2153 194.266 24.0627C194.299 24.5973 194.308 25.0759 194.438 25.7555C194.447 25.7932 194.458 25.8404 194.469 25.8836C194.493 25.9731 194.519 26.0659 194.574 26.1967C194.65 26.3269 194.659 26.5141 195.105 26.8293C195.331 26.989 195.792 27.0625 196.073 26.9664C196.359 26.8821 196.497 26.7598 196.592 26.6792C196.778 26.5062 196.837 26.4005 196.9 26.3037C197.114 25.941 197.181 25.7137 197.266 25.4569C197.274 25.4289 197.283 25.4013 197.291 25.3733C197.503 24.6204 197.611 23.8956 197.518 23.0422C197.512 22.9909 197.505 22.9391 197.496 22.8869C197.411 22.2302 197.026 21.4082 196.437 20.9288C196.379 20.8785 196.319 20.8309 196.26 20.7859C194.589 19.65 193.031 19.8869 191.71 20.0445C191.629 20.057 191.55 20.07 191.47 20.0839C188.11 21.0193 186.952 23.3484 185.495 25.2051C185.429 25.2988 185.364 25.3926 185.299 25.4862C184.664 26.3521 184.293 27.6926 184.51 28.8317C184.539 29.0158 184.579 29.1941 184.625 29.3643C185.248 31.2913 186.667 31.9139 187.709 32.476C188.814 33.0088 189.894 33.3664 190.966 33.6951C191.131 33.7451 191.294 33.7931 191.459 33.8411C192.551 34.1591 193.615 34.5046 194.577 34.9167C195.065 35.1275 195.51 35.3502 195.844 35.5819C196.005 35.6891 196.125 35.8178 196.108 35.7934C196.103 35.779 196.045 35.6901 196.034 35.4998C196.019 35.2978 196.115 35.0661 196.186 34.9847C196.383 34.7926 196.173 35.0142 195.929 35.0885C195.673 35.1882 195.366 35.2714 195.029 35.3395C194.367 35.4736 193.641 35.5473 192.907 35.5715C191.436 35.6158 189.908 35.4733 188.459 35.0134C188.243 34.9445 188.033 34.8689 187.827 34.7822C187.682 34.7214 187.54 34.6554 187.401 34.5832C186.85 34.3026 186.257 33.9849 185.699 33.612C186.079 34.1587 186.437 34.7575 186.983 35.2061C187.119 35.3185 187.259 35.4261 187.402 35.5289C187.607 35.6755 187.816 35.8117 188.03 35.9412C189.453 36.7997 191.043 37.41 192.718 37.7358C193.558 37.8954 194.419 37.9853 195.322 37.9461C195.787 37.9224 196.237 37.8734 196.748 37.7388C197.252 37.5726 197.822 37.4835 198.501 36.6611C198.746 36.341 198.939 35.8289 198.905 35.3283C198.892 35.0953 198.842 34.8831 198.769 34.6874C198.701 34.5073 198.627 34.3682 198.539 34.2284C198.209 33.7235 197.878 33.4644 197.565 33.223C196.934 32.7611 196.377 32.4857 195.779 32.2091C194.62 31.6864 193.469 31.3064 192.298 30.9613C192.142 30.9158 191.99 30.8707 191.837 30.8242C190.844 30.5218 189.867 30.1882 189.024 29.7794C188.179 29.3943 187.522 28.7939 187.52 28.579C187.499 28.5001 187.483 28.4251 187.471 28.3542C187.408 27.9234 187.481 27.6189 187.765 27.1944C187.827 27.1054 187.889 27.0165 187.951 26.9282C189.182 25.1605 190.749 23.1723 191.989 22.9123C192.053 22.8997 192.116 22.8878 192.179 22.8764C193.21 22.6748 194.304 22.6867 194.688 22.956C194.706 22.9671 194.722 22.9779 194.737 22.9884C194.873 23.0897 194.954 23.1288 195.039 23.3791C195.045 23.3984 195.051 23.4189 195.056 23.4403C195.15 23.8085 195.153 24.3405 195.058 24.7812C195.054 24.7979 195.05 24.8144 195.046 24.8308C195.017 24.9698 194.953 25.139 194.958 25.1326C194.968 25.1241 194.968 25.1037 195.078 25.0012C195.135 24.9542 195.228 24.8634 195.465 24.7929C195.696 24.7116 196.102 24.7768 196.285 24.9086C196.644 25.1676 196.601 25.2573 196.635 25.2943C196.65 25.331 196.646 25.3273 196.643 25.3142C196.641 25.3069 196.638 25.2935 196.635 25.2799C196.57 24.9621 196.535 24.4259 196.51 23.9496C196.471 23.1528 196.453 22.3338 196.433 21.5119Z" fill="black"/>
</svg>
