<svg width="192" height="86" viewBox="0 0 192 86" fill="none" xmlns="http://www.w3.org/2000/svg">
<path d="M24.9043 12.4804C25.0682 12.1931 25.1113 11.8525 25.0241 11.5335C24.9369 11.2145 24.7265 10.9431 24.4392 10.7792C24.1519 10.6153 23.8113 10.5722 23.4923 10.6595C23.1733 10.7467 22.9019 10.9571 22.738 11.2443C22.738 11.2443 22.738 11.2443 22.738 11.2443C22.1999 12.1851 21.6498 13.1592 21.1236 14.056C21.1226 14.0577 21.1216 14.0593 21.1206 14.0609C21.1195 14.0629 21.1207 14.0604 21.131 14.0447C21.1424 14.0286 21.1516 14.0093 21.2161 13.932C21.2333 13.9129 21.206 13.9408 21.2724 13.8706C21.3493 13.8141 21.3766 13.6962 21.8333 13.5421C22.0535 13.4693 22.5466 13.4671 22.9 13.7417C23.2493 14.0059 23.3363 14.3144 23.3722 14.4536C23.4049 14.5943 23.406 14.6814 23.4066 14.748C23.3978 14.9933 23.3727 15.0163 23.3646 15.0625C23.3303 15.1779 23.3454 15.1231 23.3471 15.1221C23.3562 15.0989 23.3724 15.0581 23.3862 15.0234C23.4161 14.9485 23.448 14.8684 23.4786 14.7901C23.5408 14.631 23.6023 14.4686 23.6611 14.3053C23.7786 13.9784 23.8879 13.643 23.9807 13.2907C24.1129 12.7837 24.2164 12.2436 24.222 11.6389C24.2226 11.4952 24.216 11.3537 24.2051 11.2201C23.9666 9.23594 23.24 7.47479 21.462 6.11C21.3377 6.02105 21.2102 5.93859 21.081 5.86255C18.6197 4.54475 16.3294 4.86183 14.2683 5.27765C14.1533 5.30394 14.0393 5.33144 13.9251 5.36055C11.873 5.87641 9.94422 6.83978 8.28793 8.01417C8.1976 8.07782 8.10825 8.14195 8.0199 8.20653C5.45804 10.1092 3.16841 12.5864 2.10218 16.0044C2.04647 16.1946 2.0056 16.3896 1.9803 16.5866C1.79482 18.7159 2.92658 19.9659 3.94773 20.8439C4.07328 20.9456 4.20724 21.0438 4.34699 21.1352C6.77334 22.464 8.31848 22.0739 9.9428 22.1785C10.0381 22.1788 10.1353 22.1787 10.2328 22.1785C13.4576 22.172 16.7804 21.9608 19.4179 22.4072C19.4867 22.421 19.5476 22.4343 19.6066 22.4485C19.8756 22.505 20.0312 22.6109 19.9168 22.5333C19.866 22.4951 19.7766 22.3854 19.7414 22.3012C19.7032 22.2158 19.7073 22.1822 19.7094 22.2155C19.7402 22.3879 19.5811 23.1409 19.3403 23.8003C18.8551 25.1697 18.1615 26.6306 17.4571 28.072C17.4444 28.0979 17.4316 28.1239 17.4187 28.15C13.0669 36.8149 8.17019 45.3639 3.52544 54.0445C3.52155 54.0518 3.51766 54.0591 3.51378 54.0663C2.2852 56.3932 1.50735 58.9403 0.670289 61.5387C0.428248 62.3332 0.142817 63.2232 0.0556259 64.1693C0.0554288 64.1711 0.0552321 64.173 0.0550357 64.1748C-0.0602992 65.1758 0.0245446 66.2253 0.138003 67.1228C0.16973 67.3934 0.307671 67.6404 0.52148 67.8093C0.735289 67.9782 1.00745 68.0553 1.27809 68.0236C1.54874 67.9919 1.79569 67.8539 1.96463 67.6401C2.13357 67.4263 2.21066 67.1541 2.17893 66.8835C2.17893 66.8835 2.17893 66.8835 2.17893 66.8835C2.0665 65.9784 2.00847 65.2007 2.09862 64.3902C2.09878 64.3887 2.09894 64.3872 2.09909 64.3857C2.15661 63.7351 2.44363 63.1002 2.80458 62.4221C4.01204 60.2293 5.7237 58.1817 6.94185 55.9054C6.94571 55.8982 6.94958 55.891 6.95345 55.8839C11.6089 47.284 16.5446 38.7999 21.0075 29.9165C21.0209 29.8894 21.0342 29.8623 21.0474 29.8354C21.7817 28.3264 22.5065 26.83 23.1166 25.1192C23.4004 24.2245 23.7551 23.387 23.6981 21.9143C23.6791 21.2006 23.247 20.0435 22.4628 19.4482C21.7088 18.8492 21.0657 18.6971 20.5412 18.5592C20.4239 18.531 20.3157 18.5076 20.203 18.485C16.512 17.8884 13.3853 18.1943 10.2222 18.1785C10.1307 18.1787 10.0402 18.1787 9.95241 18.1785C8.53785 18.1914 6.81113 18.0556 6.53702 17.788C6.51326 17.7724 6.48992 17.7555 6.46379 17.7344C6.27174 17.5809 6.09888 17.3763 6.01753 17.2284C5.9299 17.074 5.95423 17.0279 5.94769 17.0963C5.94633 17.1071 5.94384 17.1188 5.94102 17.1284C6.57978 14.9975 8.32615 12.9299 10.3804 11.4357C10.4513 11.384 10.5229 11.3324 10.5954 11.281C11.9636 10.3086 13.3948 9.55729 14.9347 9.11745C15.0206 9.09279 15.1062 9.06902 15.1927 9.04586C16.7398 8.62139 18.4742 8.46808 19.4146 8.90243C19.4646 8.92466 19.5123 8.94778 19.5577 8.97183C20.3209 9.35854 21.1756 10.534 21.3954 11.57C21.4089 11.6323 21.4199 11.6934 21.428 11.7463C21.4668 12.0339 21.4595 12.3872 21.4099 12.7524C21.3755 13.007 21.3216 13.2682 21.25 13.5297C21.2142 13.6604 21.1737 13.7919 21.1287 13.9236C21.1064 13.9887 21.0827 14.0549 21.0568 14.1245C21.0443 14.158 21.0304 14.1945 21.013 14.2411C21.0005 14.2783 21.0013 14.2608 20.9573 14.4097C20.9473 14.4632 20.9211 14.4914 20.9123 14.7397C20.9129 14.8071 20.914 14.8948 20.9469 15.0361C20.983 15.1759 21.0702 15.4848 21.4198 15.7493C21.7736 16.024 22.267 16.0219 22.4878 15.949C22.9455 15.7946 22.9742 15.6756 23.0529 15.6174C23.1216 15.5447 23.0935 15.5733 23.1115 15.5533C23.1803 15.471 23.1953 15.4436 23.2142 15.4162C23.2326 15.3881 23.2441 15.3693 23.2553 15.3508C23.2568 15.3484 23.2583 15.3459 23.2598 15.3434C23.8382 14.358 24.3593 13.4329 24.9043 12.4804Z" fill="white"/>
<path d="M27.2727 11.3928C27.2559 11.6919 27.3586 11.9853 27.5582 12.2087C27.7578 12.432 28.0379 12.567 28.337 12.5838C28.636 12.6006 28.9295 12.4979 29.1529 12.2983C29.3762 12.0987 29.5112 11.8185 29.528 11.5195C29.528 11.5195 29.528 11.5195 29.528 11.5195C29.5684 10.8071 29.6255 10.1017 29.7211 9.42489C29.7764 9.03682 29.8454 8.65562 29.9362 8.3197C30.0079 7.9993 30.2088 7.64202 30.1601 7.72474C30.1603 7.72452 30.1606 7.7243 30.1608 7.72408C30.1853 7.69891 30.3209 7.69297 30.6064 7.67173C30.6082 7.67173 30.61 7.67175 30.6117 7.6718C30.6651 7.67059 30.6345 7.71595 30.4867 7.73253C30.3398 7.75243 30.1243 7.69218 30.026 7.64431C29.8247 7.54297 29.8499 7.59128 29.8739 7.67683C29.8751 7.67974 29.8763 7.68265 29.8776 7.68556C30.5454 9.27263 30.1989 11.7395 29.5997 13.9263C29.5981 13.9319 29.5966 13.9375 29.595 13.9431C29.1184 15.6079 28.2227 17.4452 27.5504 19.3352C27.5487 19.3402 27.5469 19.3451 27.5451 19.35C26.5373 22.1554 25.4896 24.9153 24.6318 27.9449C24.6311 27.9477 24.6303 27.9505 24.6295 27.9533C24.4483 28.6347 24.2725 29.3211 24.1807 30.1771C24.1403 30.6069 24.1128 31.0956 24.2203 31.7036C24.3145 32.306 24.6681 33.0564 25.0867 33.5157C25.0871 33.5162 25.0875 33.5167 25.0879 33.5172L25.4921 33.8736C28.797 35.7208 31.5096 34.5933 34.0123 33.9569L34.0509 33.9512C34.0518 33.9509 34.0527 33.9506 34.0536 33.9503C34.4221 33.8243 34.7818 33.6625 35.1307 33.4773C35.829 33.1088 36.4615 32.6441 37.0948 32.226C36.3331 32.2595 35.5642 32.2305 34.8327 32.1896C34.4647 32.1703 34.1043 32.1513 33.7472 32.1487C33.7463 32.1487 33.7454 32.1487 33.7446 32.1487L33.7832 32.143C31.4043 32.0331 28.7752 31.2736 27.7095 30.5445L28.1137 30.9009C28.1137 30.9009 28.1137 30.9009 28.1136 30.9009C28.1035 30.8744 28.1716 31.0196 28.1549 30.9835C28.1472 30.9559 28.1377 30.7876 28.1607 30.5765C28.2041 30.1438 28.3347 29.5723 28.4899 29.0012C28.4905 28.9988 28.4912 28.9964 28.4918 28.994C29.2503 26.3054 30.3028 23.4972 31.3057 20.713C31.3075 20.7081 31.3093 20.7032 31.3111 20.6982C31.9682 18.8279 32.6319 16.9784 33.1007 14.7616C33.1022 14.7542 33.1036 14.7468 33.1051 14.7394C33.544 12.131 34.0244 9.31045 32.5234 6.31361C32.5203 6.30806 32.5172 6.30254 32.514 6.29702C32.3565 6.04109 32.1742 5.75041 31.661 5.41445C31.4076 5.25123 31.0047 5.11611 30.6641 5.12448C30.3223 5.12783 30.0992 5.21401 29.9661 5.26271C29.9616 5.2644 29.9573 5.26608 29.953 5.26775C29.607 5.41596 29.0989 5.63361 28.635 6.05849C28.631 6.06217 28.627 6.06588 28.623 6.06961C27.9698 6.75575 27.9153 7.24337 27.756 7.72887C27.6277 8.20648 27.5491 8.65931 27.4848 9.10695C27.3754 9.88307 27.3157 10.6384 27.2727 11.3928Z" fill="white"/>
<path d="M19.9322 22.0301C19.6826 22.1444 19.4885 22.3532 19.3927 22.6105C19.297 22.8678 19.3074 23.1527 19.4216 23.4023C19.5359 23.652 19.7446 23.8461 20.002 23.9418C20.2593 24.0376 20.5442 24.0272 20.7938 23.913C20.7938 23.913 20.7938 23.913 20.7938 23.913C21.3642 23.652 21.9338 23.3913 22.5032 23.1324C24.9452 22.0248 27.3866 20.9312 29.8624 20.0382C29.8626 20.0381 29.8627 20.0381 29.8629 20.038C32.7914 18.9636 35.8706 18.4167 39.0128 17.8492C39.0128 17.8492 39.0129 17.8492 39.013 17.8492C43.354 17.0718 47.5543 15.2875 51.9296 14.5899C51.9296 14.5899 51.9297 14.5899 51.9297 14.5899C52.8913 14.4373 53.8465 14.2864 54.8052 14.1402C55.4236 14.0459 56.046 13.9543 56.6665 13.8716C56.6665 13.8716 56.6665 13.8716 56.6665 13.8716C56.046 13.9543 55.4236 14.0459 54.8052 14.1402C53.8465 14.2864 52.8913 14.4373 51.9297 14.5899C51.9297 14.5899 51.9296 14.5899 51.9296 14.5899C47.5554 15.2873 43.0063 14.9191 38.6259 15.7035C38.6258 15.7035 38.6257 15.7035 38.6256 15.7035C35.4744 16.2724 32.2507 16.9562 29.1637 18.089C29.1635 18.0891 29.1633 18.0892 29.1631 18.0892C26.5765 19.0229 24.103 20.1337 21.6461 21.2475C21.0736 21.5078 20.5026 21.7692 19.9322 22.0301Z" fill="white"/>
<path d="M47.2095 21.002C47.6556 21.0097 48.0865 20.8399 48.4074 20.5299C48.7283 20.2199 48.9129 19.7951 48.9206 19.349C48.9283 18.9029 48.7585 18.472 48.4485 18.151C48.1385 17.8301 47.7137 17.6455 47.2676 17.6378C47.2676 17.6378 47.2676 17.6378 47.2676 17.6378C46.1032 17.6181 44.9226 17.6718 43.7336 17.8415C41.1043 18.2166 38.189 19.2191 36.2189 21.6127C36.2157 21.6166 36.2125 21.6205 36.2093 21.6244C34.0928 24.2401 34.0771 27.4468 34.0543 29.9242C34.0542 29.933 34.0542 29.9417 34.0542 29.9504C34.0404 31.2448 34.4975 32.6241 35.2742 33.6709C35.2783 33.6766 35.2824 33.6822 35.2865 33.6879C36.0338 34.6825 37.0612 35.2011 38.2144 35.5683C38.2201 35.57 38.2257 35.5716 38.2314 35.5733C39.0784 35.8799 40.2872 35.6601 40.9438 35.2044C40.9466 35.2027 40.9494 35.201 40.9522 35.1994C42.7401 34.0358 43.415 32.3456 44.1709 30.8675C44.1727 30.8638 44.1745 30.8601 44.1763 30.8564C45.4749 27.753 46.0314 24.8023 46.8578 21.8324C46.8581 21.8314 46.8583 21.8304 46.8586 21.8294C46.9698 21.4049 47.2123 21.0122 47.4591 20.6175C47.5823 20.4212 47.7068 20.2232 47.8162 20.0194C47.871 19.9171 47.9221 19.8127 47.9679 19.7016C47.9911 19.6445 48.0126 19.588 48.0338 19.5203C48.0448 19.4842 48.055 19.4496 48.0671 19.3982C48.0731 19.3724 48.0799 19.3411 48.0878 19.2936C48.0923 19.266 48.0976 19.2323 48.1035 19.1724C48.1071 19.1316 48.1113 19.0822 48.1117 18.9988C48.1109 18.9678 48.1151 18.8484 48.0804 18.6564C48.0571 18.548 48.0445 18.4469 47.9331 18.2001C47.8186 17.9609 47.535 17.481 46.8653 17.2395C46.1877 16.999 45.5651 17.2329 45.3097 17.3927C44.9659 17.6055 44.8688 17.7549 44.7829 17.8558C44.7069 17.9532 44.6564 18.0402 44.6482 18.0536C44.6136 18.112 44.5923 18.1538 44.5749 18.1888C44.5368 18.2676 44.5343 18.2759 44.5198 18.3094C43.8728 20.2174 43.7027 21.2537 43.4339 22.7071C43.4323 22.7164 43.4307 22.7257 43.4291 22.7351C42.8271 26.4131 42.3117 30.0321 41.9217 33.7657C41.9213 33.7693 41.921 33.7728 41.9207 33.7763C41.8309 35.3289 41.5882 36.6828 42.2651 38.8953C42.2935 38.9701 42.3233 39.0433 42.3531 39.1122C42.3537 39.1135 42.3542 39.1147 42.3547 39.116C42.7094 39.9358 43.8564 40.2365 44.4848 40.6736C44.4849 40.6737 44.485 40.6737 44.4851 40.6738C44.9929 41.0502 45.6081 41.214 46.0286 41.3159C46.2667 41.3754 46.5188 41.3379 46.7292 41.2116C46.9397 41.0853 47.0914 40.8806 47.1509 40.6425C47.2105 40.4044 47.173 40.1523 47.0467 39.9419C46.9204 39.7314 46.7157 39.5797 46.4775 39.5202C46.4775 39.5202 46.4775 39.5202 46.4775 39.5202C46.0396 39.4142 45.7807 39.3285 45.5691 39.1734C45.569 39.1734 45.569 39.1734 45.569 39.1733C45.4175 39.0643 45.4209 38.7774 45.4941 38.5272C45.5631 38.2712 45.6851 38.0487 45.6455 37.8844C45.6454 37.8838 45.6453 37.8833 45.6452 37.8828C45.6378 37.8524 45.6322 37.8246 45.6276 37.7984C45.5153 37.1598 45.7704 35.5257 45.9014 34.1684C45.9017 34.165 45.902 34.1617 45.9024 34.1584C46.2727 30.6041 46.791 26.9526 47.3738 23.3982C47.3753 23.3892 47.3768 23.3802 47.3783 23.3712C47.4897 22.7076 47.5892 22.0469 47.6904 21.3926C47.7404 21.0685 47.7919 20.741 47.8449 20.4271C47.8714 20.2699 47.8991 20.1128 47.9265 19.9668C47.9403 19.8931 47.954 19.8228 47.9667 19.7602C47.9709 19.719 48.0191 19.5726 47.9566 19.727C47.9463 19.7503 47.9457 19.754 47.9134 19.8207C47.8984 19.8509 47.8793 19.8885 47.8467 19.9436C47.839 19.9561 47.7912 20.0388 47.7166 20.1344C47.6323 20.2333 47.5367 20.3813 47.1941 20.5933C46.9397 20.7525 46.3181 20.9862 45.6413 20.746C44.9724 20.5048 44.6896 20.0256 44.5756 19.7876C44.4647 19.5419 44.4524 19.4419 44.4294 19.3351C44.3953 19.1457 44.3998 19.0326 44.3989 19.0039C44.3993 18.9261 44.4032 18.8835 44.4061 18.8509C44.4109 18.8034 44.4144 18.7841 44.4168 18.7707C44.4212 18.7483 44.4231 18.746 44.4243 18.7469C44.4265 18.7501 44.4265 18.7677 44.4261 18.7879C44.4254 18.828 44.4241 18.8775 44.4235 18.9295C44.4227 19.0324 44.4253 19.1442 44.4317 19.2566C44.4444 19.4816 44.4706 19.7159 44.497 19.9477C44.5489 20.4145 44.5997 20.8793 44.5219 21.3173C44.5217 21.3183 44.5215 21.3194 44.5214 21.3204C43.9554 24.3165 43.6432 27.5134 42.5571 30.0792C42.5557 30.082 42.5544 30.0848 42.553 30.0876C41.8687 31.5032 41.0306 32.9393 39.9766 33.5166C39.975 33.5175 39.9734 33.5184 39.9718 33.5192C39.5533 33.7314 39.3757 33.6634 39.0514 33.4686C39.0494 33.4673 39.0473 33.4659 39.0451 33.4645C38.5561 33.1515 38.2 32.433 37.9731 31.9495C37.9718 31.9467 37.9704 31.9439 37.9691 31.9411C37.65 31.3025 37.5526 30.6668 37.5522 29.9545C37.5523 29.9497 37.5523 29.9449 37.5523 29.9401C37.536 27.4391 37.6296 25.1609 38.813 23.7556C38.8149 23.7531 38.8169 23.7507 38.8189 23.7483C39.9973 22.2919 42.0293 21.4764 44.2104 21.1723C45.1835 21.0331 46.1919 20.9845 47.2095 21.002Z" fill="white"/>
<path d="M47.7125 17.4916C47.5145 17.7859 47.4415 18.1468 47.5097 18.4948C47.5778 18.8429 47.7814 19.1496 48.0756 19.3476C48.3699 19.5456 48.7308 19.6185 49.0788 19.5504C49.4269 19.4823 49.7336 19.2787 49.9316 18.9844C49.9316 18.9844 49.9316 18.9844 49.9316 18.9844C50.2222 18.5525 50.5159 18.1307 50.8183 17.7188C51.2572 17.1224 51.713 16.5448 52.1806 16.0567C52.4129 15.8148 52.6527 15.5953 52.8556 15.453C53.0459 15.2906 53.2465 15.3364 52.9018 15.3164C52.8904 15.3141 52.8792 15.3116 52.8683 15.3088C52.5421 15.1934 52.584 15.2068 52.5604 15.3787C52.5509 15.5388 52.5395 15.7643 52.5803 15.9848C52.5816 15.9927 52.5831 16.0006 52.5846 16.0086C52.8823 17.7429 51.9701 20.6159 51.3869 23.1873C51.3842 23.1989 51.3814 23.2104 51.3786 23.222C50.7605 25.8081 50.0757 28.4049 49.4722 31.0785C49.4709 31.084 49.4697 31.0895 49.4685 31.095C49.2293 32.3182 49.0227 33.3916 49.1654 35.1409C49.1659 35.1445 49.1663 35.1481 49.1668 35.1516C49.217 35.7784 49.9402 36.9091 50.9265 37.1202C50.9282 37.1206 50.93 37.1211 50.9317 37.1215C51.5023 37.2533 51.9236 36.9591 52.2584 36.7744C52.4631 36.6577 52.6427 36.5661 52.8207 36.5695C52.8215 36.5695 52.8224 36.5695 52.8232 36.5695C53.1779 36.5795 53.5323 36.5541 53.8846 36.5153C53.8846 36.5153 53.8846 36.5153 53.8846 36.5153C53.5323 36.5541 53.1779 36.5795 52.8232 36.5695C52.8224 36.5695 52.8215 36.5695 52.8207 36.5695C52.643 36.5644 52.4668 36.4524 52.3181 36.2921C52.0728 36.0329 51.9042 35.6137 51.9696 35.4395C51.9698 35.4389 51.97 35.4384 51.9702 35.4379C52.014 35.2925 52.2157 35.2533 52.3414 35.21C52.4723 35.1652 52.563 35.0842 52.5808 34.9565C52.581 34.9551 52.5812 34.9538 52.5814 34.9525C52.6714 34.3151 53.1178 33.0613 53.3575 31.9614C53.3587 31.9561 53.3598 31.9508 53.361 31.9455C53.942 29.3694 54.586 26.7449 55.1645 24.082C55.1671 24.07 55.1697 24.058 55.1723 24.046C55.6407 21.3336 56.6242 18.8293 55.8797 15.1545C55.8744 15.1362 55.869 15.118 55.8633 15.0998C55.7366 14.7036 55.5127 14.3216 55.1947 13.9204C54.8639 13.5445 54.4828 12.9984 53.5238 12.7159C53.4909 12.7076 53.4575 12.7 53.4238 12.6933C52.2959 12.5323 51.7538 12.9961 51.3178 13.2648C50.8861 13.5714 50.5603 13.8856 50.2526 14.2031C49.6469 14.8372 49.145 15.482 48.6629 16.1354C48.3326 16.5852 48.0194 17.0354 47.7125 17.4916Z" fill="white"/>
<path d="M54.8611 18.1133C54.6537 18.3206 54.5372 18.6019 54.5372 18.8952C54.5372 19.1885 54.6537 19.4698 54.8611 19.6772C55.0685 19.8846 55.3498 20.0011 55.6431 20.0011C55.9364 20.0011 56.2177 19.8846 56.425 19.6772C56.5654 19.5368 56.7008 19.4016 56.8343 19.2729C57.5001 18.6208 58.198 18.1267 59.0263 17.6916C59.0268 17.6913 59.0273 17.691 59.0278 17.6908C60.5176 16.9204 62.1704 16.1821 63.8158 15.4391C63.8162 15.4389 63.8166 15.4387 63.817 15.4385C64.5117 15.1237 65.1256 14.535 65.7048 13.9512C65.8556 13.799 66.0031 13.648 66.1531 13.5044C65.9486 13.5407 65.7402 13.5654 65.5315 13.5816C64.7355 13.6428 63.9268 13.5834 63.2007 13.8101C63.2003 13.8102 63.1999 13.8103 63.1995 13.8104C61.4719 14.3489 59.7175 14.848 57.9955 15.7347C57.995 15.735 57.9944 15.7353 57.9938 15.7356C57.0337 16.2336 56.0717 16.9172 55.2994 17.6805C55.147 17.8273 55.0014 17.9729 54.8611 18.1133Z" fill="white"/>
<path d="M67.0357 6.50894C67.02 6.98711 67.1948 7.45194 67.5218 7.80117C67.8488 8.1504 68.3012 8.35542 68.7794 8.37114C69.2575 8.38685 69.7224 8.21197 70.0716 7.88497C70.4208 7.55796 70.6259 7.10562 70.6416 6.62745C70.6416 6.62745 70.6416 6.62745 70.6416 6.62745C70.6697 5.76693 70.6986 4.90554 70.7205 4.03251C70.7292 3.67964 70.7368 3.32294 70.7405 2.95961C70.7422 2.77738 70.7431 2.59304 70.741 2.39894C70.7351 2.18731 70.7467 2.0628 70.7004 1.65165C70.6975 1.63044 70.6942 1.60809 70.6902 1.58395C70.6722 1.49692 70.6816 1.47119 70.5937 1.20897C70.5633 1.13318 70.5667 1.11797 70.4637 0.926338C70.3512 0.756984 70.2735 0.542025 69.7646 0.229877C69.4536 0.0457413 68.9582 -0.0524887 68.5598 0.0285293C68.3647 0.062283 68.1764 0.136368 68.0645 0.193953C67.9766 0.238236 67.9014 0.284879 67.8365 0.330441C67.5793 0.515787 67.4711 0.66667 67.3902 0.776724C67.2094 1.04682 67.1961 1.13089 67.1634 1.20145C67.1326 1.28082 67.1229 1.31163 67.1085 1.35525C67.0614 1.50303 67.0409 1.58786 67.0194 1.6707C66.9777 1.83503 66.9446 1.97773 66.912 2.11674C66.8472 2.39545 66.7864 2.65903 66.7239 2.92529C66.5989 3.45884 66.4725 3.97922 66.3447 4.50158C66.0896 5.54555 65.8321 6.5865 65.6126 7.64195C65.599 7.70721 65.5855 7.77312 65.572 7.83966C64.2577 14.3131 62.8836 20.7797 61.6464 27.3169C61.6398 27.352 61.6333 27.387 61.6269 27.4218C61.1863 30.0714 60.5448 32.5055 60.6363 35.6997C60.6378 35.7241 60.6393 35.7485 60.6408 35.7729C60.7393 36.7268 60.7531 37.7709 61.6888 39.1469C61.7099 39.1752 61.7316 39.2035 61.7539 39.2316C62.1662 39.796 63.0496 40.2618 63.7385 40.2726C64.4343 40.3062 64.9214 40.1131 65.3382 39.9575C65.353 39.9517 65.3677 39.946 65.3825 39.9402C66.8465 39.3191 67.6821 38.2119 68.7655 37.5352C68.7709 37.5317 68.7763 37.5283 68.7817 37.5248C69.1982 37.2576 69.594 36.9622 69.9713 36.6503C70.6519 36.088 71.2726 35.4745 71.8849 34.8706C71.9559 34.8005 71.9963 34.705 71.9969 34.6052C71.9976 34.5053 71.9586 34.4093 71.8885 34.3382C71.8184 34.2671 71.7229 34.2268 71.623 34.2261C71.5232 34.2255 71.4272 34.2645 71.3561 34.3346C71.3561 34.3346 71.3561 34.3346 71.3561 34.3346C70.7438 34.9388 70.1383 35.5359 69.4917 36.0699C69.1332 36.3662 68.7622 36.6428 68.375 36.8911C68.37 36.8943 68.365 36.8975 68.36 36.9007C67.353 37.5353 65.9055 37.4976 64.9356 37.3431C64.9266 37.3415 64.9176 37.3397 64.9088 37.3378C64.6567 37.2902 64.4513 37.1429 64.4816 37.0264C64.5044 36.8947 64.7877 36.957 64.8024 36.9696C64.8039 36.9697 64.8052 36.9696 64.8062 36.969C64.8019 36.9302 64.6599 36.2217 64.6328 35.5207C64.6317 35.5024 64.6306 35.4839 64.6295 35.4653C64.5357 33.3968 65.118 30.6691 65.5594 28.1535C65.5657 28.1194 65.5721 28.0852 65.5785 28.0507C66.799 21.6007 68.1741 15.1257 69.4922 8.63477C69.5057 8.56786 69.519 8.5015 69.5319 8.43569C69.7417 7.37186 69.9053 6.3046 70.0681 5.23984C70.1496 4.70766 70.2304 4.17713 70.3188 3.64805C70.3628 3.38521 70.4079 3.12545 70.4559 2.87653C70.4794 2.75465 70.5051 2.62931 70.5272 2.53377C70.5367 2.49085 70.5512 2.43847 70.5443 2.46047C70.541 2.46971 70.5394 2.47632 70.5229 2.51897C70.5016 2.56041 70.5042 2.60814 70.3392 2.85588C70.2647 2.95691 70.1625 3.10128 69.9111 3.28256C69.8477 3.32711 69.7739 3.37289 69.6875 3.41646C69.5774 3.4731 69.3916 3.54628 69.1985 3.57968C68.8044 3.65992 68.3132 3.56243 68.0062 3.38052C67.5039 3.0723 67.4303 2.86271 67.3228 2.70196C67.2256 2.52101 67.2301 2.50934 67.2028 2.4417C67.1272 2.21537 67.1411 2.21508 67.1298 2.16721C67.128 2.156 67.1267 2.14737 67.1258 2.14068C67.1207 2.07764 67.1338 2.3043 67.1334 2.43841C67.1351 2.5927 67.1344 2.75796 67.1328 2.92419C67.1295 3.25716 67.1222 3.60096 67.1138 3.9432C67.0925 4.7921 67.0638 5.64905 67.0357 6.50894Z" fill="white"/>
<path d="M80.7671 14.1629C81.1672 14.3043 81.6071 14.281 81.99 14.0981C82.3729 13.9152 82.6675 13.5876 82.8089 13.1876C82.9503 12.7875 82.927 12.3476 82.7441 11.9647C82.5612 11.5818 82.2336 11.2872 81.8335 11.1458C81.8335 11.1458 81.8335 11.1458 81.8335 11.1458C81.1001 10.8866 80.3659 10.6271 79.6307 10.3683C75.2511 8.84207 70.8845 7.27282 66.25 6.13343C66.2499 6.1334 66.2498 6.13338 66.2497 6.13335C62.7834 5.24932 58.9351 4.89594 55.4206 5.19537C55.4205 5.19537 55.4205 5.19538 55.4205 5.19538C51.9431 5.43617 48.5145 5.79875 45.0599 6.30101C45.0596 6.30105 45.0593 6.3011 45.059 6.30114L45.0014 6.3107C42.5159 6.78132 40.1051 7.7864 37.8199 9.12776C37.4763 9.33531 37.1401 9.55349 36.8098 9.79896C36.8098 9.79903 36.8097 9.7991 36.8096 9.79917L36.7869 9.81261C36.4405 10.0898 36.2949 10.6779 36.1677 11.1089C36.1677 11.1089 36.1677 11.1089 36.1677 11.1089C36.621 10.9712 37.1261 11.0657 37.4728 10.9191L37.4501 10.9326C37.4502 10.9326 37.4502 10.9325 37.4503 10.9325C37.7682 10.8125 38.1038 10.7185 38.4493 10.6384C40.7665 10.1333 43.2435 10.1541 45.6237 9.70511L45.5661 9.71467C45.5664 9.71462 45.5667 9.71458 45.567 9.71454C48.8938 9.23028 52.2906 8.8707 55.6507 8.63867C55.6507 8.63867 55.6507 8.63867 55.6508 8.63867C59.0585 8.36331 62.2273 8.42925 65.5066 9.24589C65.5068 9.24592 65.5069 9.24594 65.507 9.24597C69.8584 10.313 74.2171 11.8681 78.5683 13.3868C79.3008 13.6446 80.0337 13.9036 80.7671 14.1629Z" fill="white"/>
<path d="M90.0067 29.4398C89.7478 29.6882 89.5982 30.0293 89.5907 30.388C89.5833 30.7468 89.7186 31.0938 89.967 31.3527C90.2154 31.6117 90.5565 31.7613 90.9153 31.7688C91.274 31.7762 91.621 31.6408 91.88 31.3924C91.88 31.3924 91.88 31.3924 91.88 31.3924C92.6143 30.689 93.3973 30.0475 94.1961 29.5949C94.9361 29.1685 95.6993 28.9607 96.1721 29.0751C96.1683 29.0742 96.1644 29.0734 96.1606 29.0725C95.9064 29.0221 95.7234 28.8206 95.7022 28.8012C95.6669 28.7691 95.6792 28.8369 95.675 28.9326C95.6727 29.1311 95.639 29.4329 95.5884 29.743C95.4882 30.3718 95.3384 31.0704 95.342 31.8195C95.342 31.8564 95.3425 31.8933 95.3432 31.9302C95.3644 35.6701 94.8348 39.7892 94.4803 43.7868C94.4776 43.8151 94.4749 43.8435 94.4722 43.8719C93.4751 54.1731 92.3725 64.491 91.4075 74.8337C91.4071 74.8378 91.4067 74.842 91.4064 74.8461C91.1741 77.6075 91.0024 80.2405 91.1022 83.2619C91.158 83.7097 91.0812 84.2264 91.5675 85.1578C91.5683 85.1591 91.5691 85.1605 91.5698 85.1618C91.7948 85.5626 92.5327 85.7096 93.0699 85.5123C93.6273 85.3321 93.8965 84.9236 94.0965 84.9346C94.0968 84.9346 94.0971 84.9346 94.0974 84.9346C94.3884 84.9481 94.6724 84.8653 94.9425 84.7642C94.6724 84.8653 94.3884 84.9481 94.0974 84.9346C94.0971 84.9346 94.0968 84.9346 94.0965 84.9346C93.8777 84.933 93.7231 84.4336 93.9155 84.0421C94.0864 83.6363 94.5329 83.4593 94.5544 83.493C94.5545 83.493 94.5545 83.4931 94.5546 83.4932C94.6663 83.7479 94.5856 83.4694 94.6063 83.1612C94.7178 80.7218 95.1584 77.8905 95.3897 75.2108C95.3901 75.2067 95.3905 75.2026 95.3908 75.1985C96.3508 64.9088 97.4538 54.5848 98.4538 44.2546C98.4566 44.226 98.4593 44.1975 98.462 44.169C98.8154 40.101 99.3058 36.1769 99.2478 31.8275C99.2465 31.7862 99.2447 31.7452 99.2425 31.7043C99.2029 31.0287 99.0568 30.299 98.8561 29.5053C98.752 29.1042 98.6437 28.694 98.463 28.2009C98.3674 27.9522 98.2632 27.6812 98.0391 27.3435C97.8348 27.0241 97.3671 26.5593 96.76 26.4339C96.7503 26.4317 96.7406 26.4296 96.7309 26.4275C95.173 26.1222 93.884 26.6782 92.8658 27.2386C91.7623 27.8679 90.8514 28.6345 90.0067 29.4398Z" fill="white"/>
<path d="M81.7936 36.968C81.7103 37.3894 81.7979 37.8266 82.0371 38.1834C82.2762 38.5402 82.6473 38.7874 83.0687 38.8707C83.4901 38.9539 83.9273 38.8663 84.2841 38.6272C84.641 38.388 84.8882 38.017 84.9714 37.5956C84.9714 37.5956 84.9714 37.5956 84.9714 37.5956C85.2246 36.3162 85.5247 35.0599 85.9127 33.8637C86.4592 32.1815 87.1975 30.5869 88.2421 29.5078C88.2426 29.5073 88.2431 29.5068 88.2436 29.5063C89.0852 28.6401 90.5042 27.987 91.9206 27.335C91.9218 27.3344 91.923 27.3339 91.9242 27.3334C93.628 26.5549 95.4489 25.9521 97.2938 25.5733C97.2946 25.5732 97.2953 25.573 97.2961 25.5729C99.2098 25.1755 101.034 25.1033 102.666 25.5959C102.667 25.5962 102.668 25.5965 102.669 25.5968C104.362 26.0993 106.022 27.2403 106.949 28.5293C106.95 28.5305 106.951 28.5317 106.952 28.533C107.752 29.6338 107.996 31.0649 107.864 32.7453C107.864 32.7478 107.864 32.7503 107.863 32.7527C107.731 34.6347 107.106 36.3579 106.048 37.9933C106.047 37.9949 106.046 37.9965 106.045 37.9981C104.667 40.1062 102.734 42.0964 100.684 43.734C100.683 43.7351 100.681 43.7362 100.68 43.7373C98.928 45.1328 97.0185 46.1758 94.8731 47.0088C94.8719 47.0093 94.8708 47.0097 94.8696 47.0102C92.8447 47.8062 90.745 48.4776 88.597 49.0212C88.5964 49.0213 88.5957 49.0215 88.5951 49.0216C86.6722 49.5061 84.7461 50.0678 82.7879 50.5009C82.7878 50.5009 82.7878 50.5009 82.7877 50.5009C82.1875 50.6329 81.5989 50.9538 80.9873 51.2529C80.2754 51.6018 79.5232 51.9248 78.782 51.8502C78.7817 51.8502 78.7814 51.8501 78.7811 51.8501C78.1775 51.792 77.5785 51.6577 77.0261 51.4045C77.5785 51.6577 78.1775 51.792 78.7811 51.8501C78.7814 51.8501 78.7817 51.8502 78.782 51.8502C79.5153 51.9242 80.248 52.2666 81.0175 52.5839C81.673 52.854 82.3478 53.1016 83.01 53.1268C83.0101 53.1268 83.0102 53.1268 83.0102 53.1268C85.159 53.2065 87.3108 53.1036 89.4125 52.6965C89.4132 52.6964 89.4138 52.6963 89.4145 52.6961C91.7529 52.2406 94.0794 51.6185 96.3338 50.7325C96.3351 50.732 96.3364 50.7315 96.3377 50.731C98.7165 49.8145 101.117 48.5129 103.16 46.8753C103.162 46.874 103.164 46.8728 103.165 46.8715C105.552 44.9512 107.658 42.8189 109.409 40.1628C109.41 40.1608 109.411 40.1587 109.413 40.1567C110.756 38.1097 111.69 35.5709 111.852 33.0549C111.852 33.0516 111.853 33.0484 111.853 33.0451C112.04 30.8968 111.689 28.2392 110.145 26.2026C110.143 26.2004 110.141 26.1982 110.14 26.196C108.433 23.9728 106.159 22.7001 103.654 22.0119C103.652 22.0115 103.651 22.0111 103.649 22.0107C101.216 21.3667 98.7217 21.6244 96.5519 22.1228C96.551 22.123 96.5501 22.1232 96.5492 22.1234C94.446 22.6019 92.4087 23.2856 90.4566 24.2273C90.4553 24.228 90.4539 24.2286 90.4525 24.2293C88.9472 24.983 87.3787 25.7911 85.9159 27.2536C85.9151 27.2545 85.9143 27.2554 85.9134 27.2562C84.3061 28.9443 83.4684 30.9431 82.8319 32.8629C82.3884 34.232 82.0645 35.601 81.7936 36.968Z" fill="white"/>
<path d="M112.181 34.9741C112.087 35.2633 112.111 35.5782 112.249 35.8494C112.386 36.1207 112.626 36.3261 112.915 36.4206C113.205 36.515 113.519 36.4907 113.791 36.353C114.062 36.2152 114.267 35.9754 114.362 35.6862C114.362 35.6862 114.362 35.6862 114.362 35.6862C114.502 35.2583 114.661 34.8479 114.846 34.4762C115.145 33.872 115.516 33.3994 115.89 33.213C115.89 33.2129 115.891 33.2128 115.891 33.2127C115.896 33.2072 115.886 33.246 115.751 33.2971C115.628 33.3541 115.297 33.3544 115.082 33.2463C114.667 33.0215 114.671 32.9769 114.652 33.006C114.652 33.0062 114.652 33.0063 114.652 33.0065C114.985 34.8883 114.204 37.9517 113.879 40.617C113.879 40.6171 113.879 40.6171 113.879 40.6172C113.411 43.9189 112.629 47.2872 112.111 50.8509C112.11 50.8544 112.11 50.8579 112.109 50.8614C112.022 51.51 112.006 52.1755 112.049 52.8875C112.072 53.2469 112.107 53.6145 112.183 54.048C112.291 54.4627 112.279 55.0697 113.018 55.8756C113.025 55.8823 113.032 55.8889 113.039 55.8953C113.3 56.1429 113.744 56.2435 114.09 56.1485C114.442 56.0596 114.68 55.8214 114.825 55.5985C115.038 55.2698 115.095 54.974 115.249 54.9167C115.249 54.9167 115.249 54.9166 115.25 54.9165C115.557 54.8012 115.831 54.6149 116.092 54.4191C116.092 54.4191 116.092 54.4191 116.092 54.4191C115.831 54.6149 115.557 54.8012 115.25 54.9165C115.249 54.9166 115.249 54.9167 115.249 54.9167C115.098 54.9763 114.839 54.7736 114.725 54.4744C114.646 54.2715 114.654 54.0209 114.791 53.8657C114.92 53.7054 115.168 53.6829 115.274 53.7664C115.277 53.7684 115.279 53.7705 115.282 53.7727C115.434 53.9011 115.492 54.0296 115.514 54.0142C115.538 54.0091 115.551 53.9316 115.572 53.8387C115.611 53.6469 115.668 53.3854 115.73 53.1196C115.854 52.5828 115.99 51.9987 116.072 51.4047C116.073 51.4016 116.073 51.3985 116.074 51.3954C116.55 48.0915 117.268 44.6671 117.685 41.0849C117.685 41.0848 117.685 41.0847 117.685 41.0847C117.887 38.2233 118.407 35.6305 117.373 32.0438C117.373 32.0434 117.372 32.043 117.372 32.0426C117.252 31.7989 117.133 31.4682 116.471 31.0769C116.133 30.8874 115.647 30.8634 115.38 30.9449C115.1 31.0194 114.953 31.1174 114.828 31.1794C114.825 31.1813 114.821 31.1832 114.818 31.185C113.773 31.7444 113.2 32.6521 112.794 33.4521C112.541 33.9596 112.347 34.4666 112.181 34.9741Z" fill="white"/>
<path d="M115.344 34.0307C115.107 34.2803 114.979 34.6138 114.988 34.958C114.997 35.3021 115.142 35.6287 115.391 35.8658C115.641 36.1029 115.975 36.2311 116.319 36.2223C116.663 36.2134 116.989 36.0682 117.227 35.8186C117.227 35.8186 117.227 35.8186 117.227 35.8186C117.677 35.3446 118.135 34.8886 118.608 34.456C119.76 33.3818 121.339 32.2632 122.173 32.2819C122.178 32.2819 122.182 32.2821 122.185 32.2824C122.12 32.2857 121.986 32.263 121.905 32.2331C121.821 32.2043 121.788 32.1991 121.773 32.2373C121.747 32.3129 121.76 32.5144 121.81 32.7415C121.811 32.748 121.813 32.7546 121.814 32.7611C122.054 33.8574 121.512 35.477 120.849 37.0102C120.842 37.0269 120.834 37.0436 120.827 37.0603C119.972 39.0509 118.733 41.0035 117.302 41.6415C117.295 41.6448 117.288 41.6482 117.28 41.652C117.41 41.5942 117.563 41.5225 117.879 41.493C118.025 41.4801 118.257 41.4886 118.474 41.5508C118.718 41.6168 118.967 41.7518 119.154 41.9185C119.547 42.276 119.639 42.6098 119.692 42.8131C119.741 43.0262 119.739 43.1624 119.736 43.2663C119.705 43.6699 119.627 43.7706 119.566 43.9053C119.437 44.141 119.291 44.2814 119.111 44.4035C118.747 44.6518 118.299 44.6531 118.094 44.6014C118.091 44.5996 118.089 44.5984 118.087 44.5979C118.009 44.5092 118.616 45.0797 118.988 45.7319C119.405 46.3922 119.824 47.1447 120.32 47.8637L120.311 47.8515C120.322 47.867 120.332 47.8824 120.343 47.8979C122.326 50.3895 123.371 53.1501 127.883 54.8658L128.149 54.8952C128.159 54.8952 128.17 54.8952 128.18 54.8951C128.873 54.8893 129.458 54.782 130.021 54.6606C130.734 54.5031 131.401 54.3087 132.059 54.1359C132.386 54.0493 132.674 53.8254 132.864 53.5295C133.053 53.2327 133.129 52.8882 133.07 52.5557C133.011 52.2232 132.823 51.9252 132.543 51.7112C132.264 51.4981 131.916 51.3865 131.579 51.4171C131.579 51.4171 131.579 51.4171 131.579 51.4171C130.903 51.4789 130.237 51.5229 129.608 51.5441C129.118 51.5603 128.639 51.5619 128.268 51.5316C128.262 51.5311 128.257 51.5306 128.251 51.5302L128.517 51.5596C128.12 51.4654 126.917 50.2922 126.121 49.2217C125.257 48.1078 124.434 46.8911 123.601 45.6727C123.591 45.6581 123.58 45.6434 123.57 45.6288L123.562 45.6166C123.062 44.9033 122.504 44.2153 121.85 43.4975C121.143 42.8226 120.608 41.8884 118.804 41.3507C118.763 41.3417 118.722 41.3328 118.681 41.3242C118.283 41.236 117.624 41.2666 117.099 41.6332C116.839 41.8134 116.627 42.03 116.453 42.3541C116.37 42.5332 116.276 42.6806 116.242 43.1342C116.238 43.2501 116.237 43.399 116.288 43.6242C116.345 43.8393 116.442 44.1847 116.844 44.5506C117.237 44.9151 117.838 45.0252 118.154 44.9864C118.482 44.9558 118.646 44.8804 118.787 44.8169C118.791 44.8153 118.796 44.8133 118.801 44.8108C121.75 43.3181 122.983 40.7535 124.04 38.4436C124.049 38.424 124.057 38.4044 124.065 38.3847C124.795 36.5619 125.546 34.4566 124.854 31.9174C124.851 31.9072 124.848 31.897 124.844 31.8868C124.726 31.5234 124.538 31.1346 124.182 30.6894C123.865 30.2597 123.075 29.6745 122.28 29.6876C122.262 29.6871 122.245 29.6867 122.227 29.6863C119.5 29.91 118.281 31.3709 116.855 32.5406C116.328 33.0239 115.829 33.5206 115.344 34.0307Z" fill="white"/>
<path d="M133.26 35.4939C133.591 35.1168 133.758 34.624 133.725 34.1237C133.692 33.6235 133.461 33.1569 133.084 32.8266C132.707 32.4962 132.214 32.3292 131.714 32.3622C131.214 32.3952 130.747 32.6256 130.417 33.0027C130.417 33.0027 130.417 33.0027 130.417 33.0027C129.994 33.485 129.585 33.9821 129.192 34.4951C127.372 36.9082 125.75 39.6812 125.336 43.0703C125.334 43.0892 125.332 43.1081 125.33 43.127C125.073 45.0892 125.743 47.4845 127.324 48.9681C127.344 48.9877 127.364 49.0069 127.384 49.0259C128.387 49.9581 129.56 49.9535 130.26 49.9262C130.288 49.9249 130.317 49.9234 130.345 49.9218C131.328 49.918 132.567 49.3015 133.175 48.5782C133.201 48.5503 133.226 48.5219 133.252 48.4932C134.985 46.452 135.153 44.0971 135.198 42.108C135.198 42.0783 135.199 42.0486 135.199 42.0191C135.203 40.7115 135.092 39.4159 134.913 38.153C134.824 37.5219 134.717 36.8993 134.615 36.3043C134.565 36.0105 134.516 35.715 134.483 35.4688C134.466 35.3475 134.456 35.2331 134.452 35.1883C134.449 35.1694 134.453 35.1633 134.435 35.2497C134.425 35.2913 134.408 35.3699 134.351 35.4955C134.286 35.6314 134.157 35.8614 133.86 36.0644L133.105 36.334C133.112 36.3331 133.119 36.3323 133.126 36.3315C133.973 36.2286 134.841 35.8403 135.724 35.4166C135.907 35.3281 136.091 35.2373 136.275 35.1442L136.314 35.136C136.316 35.1347 136.319 35.1334 136.321 35.1321C136.806 34.8858 137.067 34.3163 137.287 33.9001C137.287 33.9001 137.287 33.9001 137.287 33.9001C136.785 33.9018 136.301 33.7381 135.966 33.6726C135.964 33.6724 135.962 33.6721 135.96 33.6719L135.999 33.6637C135.826 33.6372 135.65 33.6016 135.474 33.5617C134.62 33.3675 133.738 33.0887 132.841 33.1442C132.834 33.1446 132.826 33.1451 132.819 33.1455L132.361 33.2L132.063 33.4151C131.337 33.9734 131.356 34.4128 131.282 34.6243C131.235 34.8637 131.23 35.0049 131.224 35.1442C131.218 35.4053 131.23 35.5923 131.242 35.7776C131.268 36.1379 131.304 36.4545 131.338 36.7634C131.407 37.3804 131.473 37.965 131.527 38.5506C131.634 39.7178 131.69 40.863 131.685 42.0059C131.685 42.0305 131.685 42.0552 131.685 42.0799C131.683 43.7467 131.367 45.3525 130.621 46.1637C130.614 46.1715 130.608 46.179 130.601 46.186C130.405 46.3638 130.463 46.3002 130.236 46.3047C130.222 46.3043 130.208 46.3038 130.194 46.3033C130.02 46.2975 129.898 46.2595 129.872 46.2325C129.841 46.2033 129.934 46.2129 130.006 46.282C129.997 46.2732 129.988 46.2644 129.979 46.2555C129.277 45.5651 128.97 44.6581 129.09 43.5226C129.091 43.51 129.092 43.4975 129.094 43.4849C129.35 41.2149 130.612 38.86 132.194 36.7932C132.533 36.3509 132.889 35.9176 133.26 35.4939Z" fill="white"/>
<path d="M142.489 30.5887C142.707 30.1467 142.741 29.6361 142.583 29.1691C142.425 28.7022 142.087 28.3172 141.645 28.0988C141.203 27.8805 140.693 27.8466 140.226 28.0048C139.759 28.1629 139.374 28.5001 139.156 28.9421C139.156 28.9421 139.156 28.9421 139.156 28.9421C138.715 29.8329 138.322 30.7493 137.982 31.6872C137.325 33.4936 136.877 35.3816 136.632 37.2734C136.349 39.4281 136.184 41.5799 136.251 43.6685C136.321 45.9019 136.484 48.061 136.51 50.1536C136.513 50.3542 136.514 50.5543 136.514 50.754C136.514 52.4106 136.336 54.0488 135.948 55.6142C135.27 58.373 133.869 60.976 131.839 62.6057C130.494 63.6965 128.872 64.2818 127.438 64.0807C125.631 63.8899 123.741 62.5587 122.554 60.3181C122.31 59.8614 121.745 59.5523 121.248 59.1018L121.254 59.1252C121.211 59.0847 121.169 59.0439 121.128 59.0018C120.848 58.7143 120.629 58.3844 120.595 58.0326C120.539 57.462 120.528 56.8863 120.574 56.3151C120.574 56.3151 120.574 56.3151 120.574 56.3151C120.528 56.8863 120.539 57.462 120.595 58.0326C120.629 58.383 120.515 58.7528 120.377 59.1564C120.357 59.215 120.336 59.274 120.316 59.3339L120.321 59.3573C120.135 60.0258 119.896 60.7001 120.08 61.3131C120.839 64.1321 123.097 67.5617 126.91 68.0457C129.739 68.4225 132.4 67.2967 134.344 65.7248C137.284 63.3403 138.985 59.9631 139.83 56.5782C140.307 54.6557 140.514 52.6964 140.514 50.754C140.514 50.5359 140.513 50.3186 140.51 50.1021C140.48 47.8423 140.314 45.6593 140.249 43.5432C140.185 41.5669 140.072 39.6372 140.319 37.7546C140.533 36.1069 140.914 34.5028 141.477 32.9543C141.768 32.1506 142.107 31.3621 142.489 30.5887Z" fill="white"/>
<path d="M144.514 33.5208C144.799 33.3752 145.015 33.1222 145.114 32.8175C145.213 32.5128 145.186 32.1813 145.041 31.896C144.895 31.6106 144.642 31.3948 144.338 31.2959C144.033 31.1971 143.701 31.2233 143.416 31.3689C143.416 31.3689 143.416 31.3689 143.416 31.3689C143.305 31.4255 143.191 31.4835 143.064 31.5513C143 31.5856 142.934 31.6213 142.852 31.6705C142.81 31.696 142.765 31.7229 142.696 31.7712C142.66 31.7977 142.621 31.8245 142.547 31.89C142.507 31.9279 142.462 31.9656 142.378 32.0737C142.336 32.1322 142.279 32.2058 142.213 32.3667C142.152 32.5188 142.045 32.8795 142.228 33.3064C142.241 33.3374 142.256 33.3685 142.273 33.3993C142.378 33.602 142.551 33.7811 142.725 33.8913C142.884 33.9947 143.047 34.0485 143.149 34.0733C143.386 34.1274 143.508 34.1182 143.616 34.1159C146.147 33.5439 147.384 33.032 149.209 32.4745C149.236 32.4654 149.263 32.4562 149.29 32.4469C152.203 31.4715 155.072 30.2333 157.96 29.0776C157.969 29.0742 157.977 29.0709 157.986 29.0675C158.931 28.6914 159.688 27.722 160.646 27.3697C160.7 27.35 160.755 27.3325 160.81 27.3171C160.812 27.3166 160.814 27.3161 160.815 27.3156C161.079 27.2429 161.342 27.1684 161.605 27.093C161.605 27.093 161.605 27.093 161.605 27.093C161.342 27.1684 161.079 27.2429 160.815 27.3156C160.814 27.3161 160.812 27.3166 160.81 27.3171C160.755 27.3322 160.699 27.3452 160.642 27.3566C159.645 27.5611 158.469 27.2069 157.474 27.436C157.465 27.4381 157.456 27.4402 157.447 27.4423C154.416 28.1448 151.352 28.746 148.378 29.7418C148.35 29.7513 148.322 29.7608 148.294 29.7703C147.413 30.0713 146.547 30.4359 145.703 30.8048C145.277 30.9902 144.857 31.1768 144.446 31.349C144.241 31.4346 144.036 31.5171 143.847 31.5858C143.68 31.6525 143.42 31.7123 143.5 31.7007C143.528 31.702 143.57 31.6918 143.723 31.7262C143.79 31.7424 143.909 31.78 144.036 31.8624C144.174 31.9496 144.32 32.0995 144.406 32.2656C144.419 32.2908 144.431 32.3161 144.442 32.3412C144.622 32.7609 144.516 33.1135 144.458 33.2583C144.395 33.4122 144.342 33.4792 144.305 33.5315C144.23 33.6272 144.196 33.6543 144.168 33.6813C144.118 33.7261 144.103 33.7346 144.092 33.7428C144.074 33.7556 144.082 33.7495 144.093 33.7432C144.117 33.7289 144.16 33.7047 144.205 33.6805C144.297 33.6312 144.404 33.5769 144.514 33.5208Z" fill="white"/>
<path d="M143.837 36.0425C143.832 36.4814 144.003 36.9039 144.31 37.2172C144.618 37.5305 145.037 37.7089 145.476 37.713C145.915 37.7172 146.337 37.5469 146.65 37.2395C146.964 36.9321 147.142 36.5128 147.146 36.074C147.146 36.074 147.146 36.074 147.146 36.074C147.15 35.6158 147.156 35.169 147.155 34.6833C147.155 34.622 147.154 34.5654 147.152 34.4803C147.152 34.4784 147.152 34.4764 147.152 34.4745C147.139 34.3901 147.182 34.3507 147.043 33.9311C146.998 33.819 146.937 33.6652 146.76 33.4516C146.592 33.2465 146.228 32.9524 145.736 32.8842C145.246 32.8104 144.827 32.9832 144.612 33.1236C144.386 33.2698 144.284 33.3933 144.208 33.4837C144.131 33.5804 144.103 33.6313 144.097 33.6394C144.085 33.6579 144.075 33.6749 144.066 33.6908C144.048 33.7224 144.033 33.7492 144.021 33.7729C143.997 33.8201 143.982 33.855 143.97 33.8839C143.924 33.9956 143.916 34.0329 143.905 34.0678C143.888 34.1279 143.891 34.121 143.886 34.1409C143.879 34.1697 143.875 34.1869 143.873 34.1967C143.868 34.2197 143.864 34.238 143.861 34.2513C143.855 34.283 143.851 34.3028 143.846 34.3283C143.837 34.3724 143.828 34.4168 143.82 34.4579C143.803 34.5418 143.787 34.6237 143.77 34.704C143.735 34.8668 143.7 35.0271 143.662 35.187C143.588 35.5073 143.508 35.8249 143.427 36.1424C143.264 36.7782 143.096 37.4128 142.956 38.0531C142.953 38.0685 142.95 38.084 142.946 38.0995C142.288 41.2219 141.603 44.3 141.276 47.6254C141.275 47.6352 141.274 47.6451 141.273 47.6549C141.2 48.6123 141.199 49.69 141.679 50.8897C141.683 50.8998 141.687 50.9099 141.692 50.9201C142.042 51.8581 143.039 52.805 143.959 53.1191L144.269 53.212C144.277 53.2136 144.285 53.2152 144.292 53.2168C147.378 53.5672 148.89 52.2206 150.646 51.2619L150.705 51.233C150.707 51.2317 150.709 51.2305 150.711 51.2292C151.114 50.9576 151.492 50.6358 151.84 50.2943C152.2 49.9422 152.523 49.5724 152.835 49.2297C152.963 49.0897 153.034 48.8852 153.045 48.6789C153.056 48.4716 153.007 48.2795 152.896 48.1271C152.785 47.9747 152.617 47.8694 152.416 47.8166C152.216 47.7649 152 47.77 151.828 47.8485C151.828 47.8485 151.828 47.8485 151.828 47.8485C151.405 48.0432 150.989 48.2081 150.584 48.3499C150.19 48.4882 149.804 48.6086 149.422 48.7434C149.42 48.744 149.418 48.7446 149.417 48.7452L149.476 48.7163C147.861 49.2257 145.758 49.4592 145.105 49.3001C145.104 49.2999 145.103 49.2998 145.102 49.2996L145.412 49.3925C145.3 49.325 145.438 49.4514 145.378 49.3662C145.377 49.3653 145.377 49.3642 145.376 49.3632C145.265 49.1121 145.204 48.5835 145.259 47.9951C145.259 47.9891 145.26 47.9831 145.26 47.977C145.548 45.0181 146.043 41.8789 146.565 38.8009C146.568 38.7856 146.57 38.7702 146.573 38.7549C146.685 38.101 146.763 37.4407 146.843 36.7812C146.882 36.452 146.922 36.1228 146.967 35.7944C146.99 35.6305 147.013 35.4668 147.039 35.3042C147.051 35.2241 147.064 35.143 147.078 35.0647C147.084 35.0266 147.091 34.9862 147.097 34.9528C147.101 34.934 147.104 34.9194 147.106 34.907C147.107 34.9023 147.108 34.8972 147.107 34.9015C147.106 34.9035 147.106 34.9076 147.101 34.9268C147.097 34.9413 147.1 34.9331 147.085 34.9858C147.075 35.0173 147.068 35.052 147.023 35.162C147.011 35.1905 146.996 35.225 146.972 35.2719C146.96 35.2954 146.946 35.3221 146.928 35.3536C146.919 35.3694 146.908 35.3863 146.897 35.4048C146.891 35.4129 146.863 35.4636 146.786 35.5601C146.711 35.6504 146.608 35.7738 146.383 35.9199C146.168 36.0602 145.749 36.233 145.259 36.1593C144.767 36.0911 144.403 35.797 144.235 35.592C144.058 35.3786 143.997 35.2248 143.952 35.1129C143.813 34.6939 143.857 34.6559 143.844 34.5734C143.844 34.5738 143.844 34.5742 143.844 34.5747C143.844 34.5997 143.845 34.6521 143.845 34.7C143.846 35.1253 143.841 35.5896 143.837 36.0425Z" fill="white"/>
<path d="M143.974 40.4833C144.2 40.4144 144.389 40.2586 144.5 40.0502C144.611 39.8418 144.634 39.5979 144.565 39.3721C144.496 39.1463 144.341 38.9571 144.132 38.8461C143.924 38.7352 143.68 38.7116 143.454 38.7805C143.454 38.7805 143.454 38.7805 143.454 38.7805C143.234 38.8476 143.015 38.916 142.795 38.9865C142.273 39.1643 141.888 39.2533 141.194 39.5836L141.847 41.2228C141.847 41.2228 141.847 41.2227 141.847 41.2227C144.712 40.2121 147.201 39.2796 149.826 38.2012C149.827 38.2008 149.827 38.2007 149.828 38.2007C150.526 37.9082 151.207 37.5767 151.872 37.2012C152.071 37.0889 152.267 36.9728 152.462 36.8534C152.637 36.7458 152.78 36.5853 152.852 36.3897C152.924 36.1941 152.921 35.9817 152.841 35.7949C152.761 35.6082 152.61 35.4592 152.418 35.3768C152.226 35.2942 152.012 35.2871 151.813 35.3395C151.813 35.3395 151.813 35.3395 151.813 35.3395C151.592 35.3981 151.375 35.4594 151.158 35.524C150.433 35.7397 149.722 35.9915 149.025 36.2834C149.025 36.2834 149.025 36.2834 149.025 36.2835C146.476 37.3369 143.822 38.6312 141.415 39.4955C141.415 39.4955 141.415 39.4955 141.415 39.4955L142.068 41.1347C142.119 41.1067 142.424 40.9891 142.635 40.9166C142.866 40.8361 143.102 40.758 143.339 40.6817C143.55 40.6142 143.761 40.5482 143.974 40.4833Z" fill="white"/>
<path d="M158.476 34.8435C158.416 35.1506 158.479 35.4693 158.653 35.7294C158.828 35.9896 159.098 36.1699 159.405 36.2307C159.712 36.2915 160.031 36.2278 160.291 36.0536C160.551 35.8795 160.731 35.6091 160.792 35.302C160.792 35.302 160.792 35.302 160.792 35.302C160.884 34.8316 160.968 34.3542 161.012 33.8274C161.022 33.3094 161.163 32.8373 160.741 31.9054C160.739 31.9029 160.738 31.9004 160.737 31.8979C160.475 31.1733 159.383 30.2409 158.65 30.3874C158.646 30.3879 158.641 30.3885 158.636 30.3891C155.549 31.1852 155.046 33.0936 154.245 34.5405C154.245 34.5409 154.245 34.5414 154.244 34.5419C152.85 37.6575 152.497 41.421 153.78 44.8177C153.786 44.832 153.791 44.8462 153.797 44.8604C154.616 46.654 155.901 47.0529 156.896 47.4188L157.195 47.5172C157.204 47.5186 157.214 47.5199 157.224 47.5212C159.334 47.7946 161.193 47.0347 162.744 46.2571L162.793 46.2398C162.795 46.2383 162.798 46.2369 162.8 46.2354C163.177 46.0204 163.538 45.7987 163.886 45.5727C164.283 45.3151 164.663 45.0524 165.034 44.7869C165.146 44.706 165.225 44.5752 165.258 44.4323C165.291 44.2888 165.276 44.145 165.21 44.0233C165.145 43.9017 165.033 43.8096 164.895 43.7583C164.757 43.7076 164.604 43.7018 164.475 43.7514C164.475 43.7514 164.475 43.7514 164.475 43.7514C164.05 43.9152 163.633 44.0821 163.219 44.2256C162.856 44.3516 162.495 44.4595 162.133 44.5343C162.13 44.5348 162.128 44.5353 162.125 44.5358L162.174 44.5185C160.633 44.758 159.13 44.4951 158.036 44.022C158.031 44.0198 158.026 44.0176 158.02 44.0154L158.318 44.1138C157.75 43.7869 157.388 43.239 157.517 43.3915C157.518 43.3927 157.518 43.394 157.519 43.3953C156.672 41.1514 156.844 38.4879 157.887 36.1367C157.887 36.1364 157.887 36.136 157.888 36.1356C158.141 35.5524 158.404 34.9894 158.677 34.5464C158.937 34.0918 159.269 33.8571 159.162 33.864C159.161 33.864 159.16 33.864 159.16 33.864C159.109 33.8629 158.953 33.727 158.836 33.5287C158.709 33.3289 158.7 33.1039 158.665 33.0302C158.665 33.0297 158.665 33.0292 158.664 33.0287C158.623 32.9357 158.668 33.0355 158.67 33.1607C158.678 33.2902 158.674 33.4586 158.659 33.6351C158.628 34.0108 158.559 34.4258 158.476 34.8435Z" fill="white"/>
<path d="M160.758 27.9384C160.378 28.076 160.067 28.3591 159.896 28.7254C159.724 29.0917 159.705 29.5112 159.842 29.8917C159.98 30.2722 160.263 30.5824 160.629 30.7542C160.996 30.926 161.415 30.9452 161.796 30.8076C161.796 30.8076 161.796 30.8076 161.796 30.8076C162.214 30.6575 162.694 30.5121 163.172 30.3727C165.929 29.5848 168.79 28.9041 171.636 28.2283C171.636 28.2283 171.636 28.2283 171.636 28.2282C175.446 27.3376 179.283 26.3528 183.121 25.3981C183.121 25.3981 183.121 25.3981 183.121 25.3981C185.156 24.894 187.021 23.4854 189.1 23.1487C189.1 23.1487 189.1 23.1487 189.1 23.1487C189.351 23.1078 189.602 23.0676 189.853 23.0283C190.361 22.9485 190.869 22.8744 191.378 22.804C191.378 22.804 191.378 22.804 191.378 22.804C190.869 22.8744 190.361 22.9485 189.853 23.0283C189.602 23.0676 189.351 23.1078 189.1 23.1487C189.1 23.1487 189.1 23.1487 189.1 23.1487C187.032 23.4834 184.772 22.8665 182.68 23.1828C182.68 23.1828 182.68 23.1828 182.68 23.1828C178.761 23.7786 174.831 24.3483 170.936 25.2587C170.935 25.2587 170.935 25.2587 170.935 25.2588C168.063 25.9414 165.211 26.6175 162.32 27.4431C161.808 27.5929 161.306 27.7424 160.758 27.9384Z" fill="white"/>
<path d="M172.768 30.9358C172.86 30.4705 172.763 29.9878 172.499 29.5939C172.235 29.2 171.825 28.9273 171.36 28.8356C170.894 28.7439 170.412 28.8408 170.018 29.105C169.624 29.3692 169.351 29.7791 169.259 30.2444C169.259 30.2444 169.259 30.2444 169.259 30.2444C169.18 30.6467 169.098 31.0648 169.023 31.4879C168.752 33.0112 168.589 34.5208 168.454 36.0094C168.454 36.0095 168.454 36.0096 168.454 36.0098C168.149 39.5606 167.991 43.0661 167.898 46.6134L167.897 46.6574C167.897 46.6574 167.897 46.6574 167.897 46.6574C167.921 48.9724 168.457 51.365 169.323 53.6495C169.323 53.6495 169.323 53.6496 169.323 53.6496L169.33 53.6783C169.385 53.8061 169.458 53.9282 169.544 54.0444C169.819 54.4195 170.216 54.7154 170.531 55.0309C170.531 55.0309 170.531 55.0309 170.531 55.0309C170.548 54.5818 170.652 54.1098 170.69 53.6983C170.702 53.569 170.706 53.4444 170.696 53.3236L170.703 53.3523C170.703 53.3522 170.703 53.3522 170.703 53.3521C170.623 51.1573 171.224 48.9454 171.27 46.6979C171.27 46.6979 171.27 46.6979 171.27 46.6979L171.268 46.7419C171.465 43.2802 171.72 39.7684 172.017 36.3295C172.017 36.3294 172.017 36.3293 172.017 36.3292C172.147 34.8901 172.301 33.4814 172.545 32.1116C172.613 31.7265 172.689 31.3387 172.768 30.9358Z" fill="white"/>
</svg>
