<svg width="192" height="86" viewBox="0 0 192 86" fill="none" xmlns="http://www.w3.org/2000/svg">
<path d="M24.9042 12.4809C25.0682 12.1936 25.1112 11.853 25.024 11.534C24.9368 11.2149 24.7264 10.9436 24.4391 10.7797C24.1519 10.6158 23.8113 10.5727 23.4922 10.6599C23.1732 10.7472 22.9019 10.9576 22.738 11.2448C22.738 11.2448 22.738 11.2448 22.738 11.2448C22.1999 12.1856 21.6498 13.1597 21.1235 14.0565C21.1225 14.0582 21.1215 14.0598 21.1206 14.0614C21.1194 14.0634 21.1207 14.0609 21.1309 14.0452C21.1424 14.0291 21.1515 14.0098 21.2161 13.9325C21.2333 13.9134 21.2059 13.9412 21.2723 13.8711C21.3492 13.8146 21.3765 13.6967 21.8332 13.5426C22.0535 13.4698 22.5465 13.4676 22.8999 13.7421C23.2492 14.0064 23.3362 14.3149 23.3721 14.4541C23.4049 14.5948 23.406 14.6819 23.4065 14.7485C23.3977 14.9938 23.3726 15.0167 23.3646 15.063C23.3302 15.1784 23.3453 15.1236 23.3471 15.1226C23.3561 15.0994 23.3723 15.0586 23.3862 15.0239C23.4161 14.949 23.4479 14.8689 23.4785 14.7906C23.5408 14.6315 23.6022 14.4691 23.661 14.3058C23.7786 13.9788 23.8879 13.6435 23.9806 13.2911C24.1128 12.7842 24.2163 12.2441 24.2219 11.6394C24.2225 11.4957 24.216 11.3542 24.205 11.2206C23.9665 9.23643 23.24 7.47528 21.462 6.11049C21.3376 6.02154 21.2102 5.93908 21.081 5.86304C18.6196 4.54523 16.3294 4.86232 14.2682 5.27814C14.1532 5.30443 14.0393 5.33193 13.925 5.36103C11.8729 5.8769 9.94416 6.84026 8.28787 8.01466C8.19754 8.07831 8.10819 8.14243 8.01983 8.20702C5.45798 10.1097 3.16835 12.5869 2.10212 16.0049C2.04641 16.1951 2.00553 16.3901 1.98024 16.5871C1.79476 18.7164 2.92652 19.9664 3.94767 20.8444C4.07322 20.9461 4.20718 21.0443 4.34693 21.1357C6.77328 22.4645 8.31842 22.0744 9.94274 22.179C10.038 22.1792 10.1353 22.1792 10.2327 22.1789C13.4575 22.1724 16.7803 21.9613 19.4178 22.4077C19.4867 22.4215 19.5476 22.4348 19.6066 22.449C19.8755 22.5055 20.0311 22.6114 19.9168 22.5338C19.8659 22.4956 19.7765 22.3859 19.7414 22.3017C19.7031 22.2162 19.7073 22.1827 19.7094 22.216C19.7401 22.3883 19.5811 23.1414 19.3402 23.8008C18.855 25.1702 18.1614 26.6311 17.457 28.0725C17.4443 28.0984 17.4315 28.1244 17.4187 28.1505C13.0669 36.8154 8.17013 45.3644 3.52538 54.045C3.52148 54.0523 3.5176 54.0596 3.51371 54.0668C2.28513 56.3937 1.50729 58.9408 0.670228 61.5392C0.428187 62.3337 0.142756 63.2237 0.0555648 64.1697C0.0553678 64.1716 0.0551711 64.1735 0.0549747 64.1753C-0.0603602 65.1763 0.0244836 66.2258 0.137942 67.1232C0.169669 67.3939 0.30761 67.6408 0.521419 67.8098C0.735228 67.9787 1.00739 68.0558 1.27803 68.0241C1.54868 67.9924 1.79563 67.8544 1.96457 67.6406C2.13351 67.4268 2.2106 67.1546 2.17887 66.884C2.17887 66.884 2.17887 66.884 2.17887 66.884C2.06644 65.9789 2.00841 65.2011 2.09856 64.3907C2.09872 64.3892 2.09887 64.3877 2.09903 64.3862C2.15655 63.7356 2.44357 63.1007 2.80451 62.4226C4.01197 60.2298 5.72364 58.1822 6.94179 55.9058C6.94565 55.8987 6.94952 55.8915 6.95339 55.8843C11.6088 47.2845 16.5445 38.8004 21.0075 29.917C21.0208 29.8899 21.0341 29.8628 21.0474 29.8359C21.7817 28.3269 22.5064 26.8305 23.1165 25.1197C23.4004 24.225 23.755 23.3875 23.698 21.9148C23.6791 21.2011 23.247 20.0439 22.4628 19.4487C21.7087 18.8497 21.0656 18.6976 20.5412 18.5597C20.4238 18.5315 20.3156 18.5081 20.203 18.4855C16.5119 17.8888 13.3852 18.1948 10.2221 18.179C10.1307 18.1792 10.0402 18.1792 9.95235 18.179C8.53779 18.1918 6.81106 18.0561 6.53696 17.7885C6.5132 17.7729 6.48986 17.756 6.46373 17.7349C6.27168 17.5814 6.09882 17.3768 6.01747 17.2289C5.92984 17.0744 5.95417 17.0284 5.94763 17.0968C5.94627 17.1076 5.94378 17.1193 5.94096 17.1289C6.57972 14.998 8.32609 12.9304 10.3804 11.4362C10.4512 11.3845 10.5229 11.3329 10.5954 11.2815C11.9635 10.3091 13.3947 9.55777 14.9347 9.11794C15.0205 9.09328 15.1061 9.06951 15.1926 9.04635C16.7397 8.62188 18.4742 8.46857 19.4146 8.90292C19.4646 8.92514 19.5122 8.94827 19.5576 8.97232C20.3209 9.35903 21.1756 10.5345 21.3953 11.5704C21.4088 11.6328 21.4198 11.6939 21.4279 11.7468C21.4667 12.0344 21.4595 12.3877 21.4099 12.7529C21.3755 13.0074 21.3216 13.2687 21.2499 13.5302C21.2141 13.6609 21.1736 13.7924 21.1286 13.9241C21.1064 13.9892 21.0826 14.0554 21.0567 14.125C21.0443 14.1585 21.0303 14.195 21.0129 14.2416C21.0004 14.2788 21.0012 14.2613 20.9572 14.4102C20.9472 14.4637 20.9211 14.4919 20.9123 14.7402C20.9128 14.8076 20.914 14.8953 20.9468 15.0366C20.9829 15.1763 21.0702 15.4853 21.4198 15.7498C21.7735 16.0245 22.267 16.0224 22.4877 15.9495C22.9455 15.7951 22.9741 15.6761 23.0528 15.6178C23.1216 15.5452 23.0935 15.5738 23.1115 15.5538C23.1803 15.4715 23.1953 15.4441 23.2142 15.4167C23.2326 15.3886 23.244 15.3697 23.2552 15.3513C23.2567 15.3488 23.2582 15.3464 23.2597 15.3439C23.8382 14.3585 24.3592 13.4334 24.9042 12.4809Z" fill="black"/>
<path d="M27.2725 11.3928C27.2557 11.6919 27.3584 11.9853 27.558 12.2087C27.7576 12.432 28.0377 12.567 28.3368 12.5838C28.6359 12.6006 28.9294 12.4979 29.1527 12.2983C29.3761 12.0987 29.511 11.8185 29.5278 11.5195C29.5278 11.5195 29.5278 11.5195 29.5278 11.5195C29.5682 10.8071 29.6253 10.1017 29.7209 9.42489C29.7762 9.03682 29.8452 8.65562 29.936 8.3197C30.0077 7.9993 30.2086 7.64202 30.1599 7.72474C30.1602 7.72452 30.1604 7.7243 30.1606 7.72408C30.1852 7.69891 30.3207 7.69297 30.6062 7.67173C30.6081 7.67173 30.6099 7.67175 30.6116 7.6718C30.665 7.67059 30.6344 7.71595 30.4866 7.73253C30.3396 7.75243 30.1241 7.69218 30.0258 7.64431C29.8245 7.54297 29.8497 7.59128 29.8737 7.67683C29.8749 7.67974 29.8762 7.68265 29.8774 7.68556C30.5452 9.27263 30.1987 11.7395 29.5995 13.9263C29.5979 13.9319 29.5964 13.9375 29.5948 13.9431C29.1182 15.6079 28.2225 17.4452 27.5503 19.3352C27.5485 19.3402 27.5467 19.3451 27.5449 19.35C26.5372 22.1554 25.4894 24.9153 24.6317 27.9449C24.6309 27.9477 24.6301 27.9505 24.6294 27.9533C24.4482 28.6347 24.2723 29.3211 24.1805 30.1771C24.1402 30.6069 24.1126 31.0956 24.2201 31.7036C24.3143 32.306 24.6679 33.0564 25.0865 33.5157C25.0869 33.5162 25.0873 33.5167 25.0877 33.5172L25.4919 33.8736C28.7968 35.7208 31.5095 34.5933 34.0121 33.9569L34.0507 33.9512C34.0516 33.9509 34.0525 33.9506 34.0534 33.9503C34.4219 33.8243 34.7817 33.6625 35.1305 33.4773C35.8288 33.1088 36.4614 32.6441 37.0946 32.226C36.333 32.2595 35.564 32.2305 34.8325 32.1896C34.4645 32.1703 34.1041 32.1513 33.747 32.1487C33.7461 32.1487 33.7453 32.1487 33.7444 32.1487L33.783 32.143C31.4042 32.0331 28.775 31.2736 27.7093 30.5445L28.1135 30.9009C28.1135 30.9009 28.1135 30.9009 28.1135 30.9009C28.1033 30.8744 28.1715 31.0196 28.1547 30.9835C28.1471 30.9559 28.1375 30.7876 28.1605 30.5765C28.2039 30.1438 28.3345 29.5723 28.4897 29.0012C28.4903 28.9988 28.491 28.9964 28.4916 28.994C29.2501 26.3054 30.3026 23.4972 31.3055 20.713C31.3073 20.7081 31.3091 20.7032 31.3109 20.6982C31.968 18.8279 32.6317 16.9784 33.1005 14.7616C33.102 14.7542 33.1035 14.7468 33.1049 14.7394C33.5439 12.131 34.0242 9.31045 32.5233 6.31361C32.5201 6.30806 32.517 6.30254 32.5138 6.29702C32.3563 6.04109 32.174 5.75041 31.6609 5.41445C31.4075 5.25123 31.0045 5.11611 30.6639 5.12448C30.3221 5.12783 30.099 5.21401 29.9659 5.26271C29.9615 5.2644 29.9571 5.26608 29.9528 5.26775C29.6068 5.41596 29.0987 5.63361 28.6348 6.05849C28.6308 6.06217 28.6268 6.06588 28.6228 6.06961C27.9697 6.75575 27.9151 7.24337 27.7558 7.72887C27.6275 8.20648 27.549 8.65931 27.4846 9.10695C27.3753 9.88307 27.3156 10.6384 27.2725 11.3928Z" fill="black"/>
<path d="M19.9321 22.0301C19.6824 22.1444 19.4883 22.3532 19.3926 22.6105C19.2968 22.8678 19.3072 23.1527 19.4214 23.4023C19.5357 23.652 19.7445 23.8461 20.0018 23.9418C20.2591 24.0376 20.544 24.0272 20.7936 23.913C20.7936 23.913 20.7936 23.913 20.7936 23.913C21.364 23.652 21.9336 23.3913 22.503 23.1324C24.945 22.0248 27.3864 20.9312 29.8622 20.0382C29.8624 20.0381 29.8626 20.0381 29.8628 20.038C32.7913 18.9636 35.8704 18.4167 39.0126 17.8492C39.0127 17.8492 39.0127 17.8492 39.0128 17.8492C43.3538 17.0718 47.5541 15.2875 51.9294 14.5899C51.9294 14.5899 51.9295 14.5899 51.9295 14.5899C52.8912 14.4373 53.8463 14.2864 54.805 14.1402C55.4234 14.0459 56.0458 13.9543 56.6664 13.8716C56.6664 13.8716 56.6664 13.8716 56.6664 13.8716C56.0458 13.9543 55.4234 14.0459 54.805 14.1402C53.8463 14.2864 52.8912 14.4373 51.9295 14.5899C51.9295 14.5899 51.9294 14.5899 51.9294 14.5899C47.5553 15.2873 43.0061 14.9191 38.6257 15.7035C38.6256 15.7035 38.6255 15.7035 38.6254 15.7035C35.4742 16.2724 32.2506 16.9562 29.1635 18.089C29.1633 18.0891 29.1631 18.0892 29.1629 18.0892C26.5763 19.0229 24.1029 20.1337 21.6459 21.2475C21.0735 21.5078 20.5024 21.7692 19.9321 22.0301Z" fill="black"/>
<path d="M47.2093 21.002C47.6555 21.0097 48.0864 20.8399 48.4073 20.5299C48.7282 20.2199 48.9128 19.7951 48.9205 19.349C48.9282 18.9029 48.7584 18.472 48.4484 18.151C48.1384 17.8301 47.7136 17.6455 47.2675 17.6378C47.2675 17.6378 47.2675 17.6378 47.2675 17.6378C46.1031 17.6181 44.9224 17.6718 43.7335 17.8415C41.1042 18.2166 38.1888 19.2191 36.2187 21.6127C36.2155 21.6166 36.2123 21.6205 36.2091 21.6244C34.0927 24.2401 34.077 27.4468 34.0542 29.9242C34.0541 29.933 34.0541 29.9417 34.0541 29.9504C34.0403 31.2448 34.4973 32.6241 35.2741 33.6709C35.2782 33.6766 35.2823 33.6822 35.2864 33.6879C36.0336 34.6825 37.0611 35.2011 38.2143 35.5683C38.22 35.57 38.2256 35.5716 38.2313 35.5733C39.0783 35.8799 40.287 35.6601 40.9437 35.2044C40.9465 35.2027 40.9493 35.201 40.9521 35.1994C42.74 34.0358 43.4148 32.3456 44.1708 30.8675C44.1726 30.8638 44.1744 30.8601 44.1762 30.8564C45.4747 27.753 46.0313 24.8023 46.8577 21.8324C46.858 21.8314 46.8582 21.8304 46.8585 21.8294C46.9696 21.4049 47.2122 21.0122 47.459 20.6175C47.5822 20.4212 47.7067 20.2232 47.8161 20.0194C47.8709 19.9171 47.922 19.8127 47.9678 19.7016C47.991 19.6445 48.0125 19.588 48.0337 19.5203C48.0447 19.4842 48.0549 19.4496 48.067 19.3982C48.0729 19.3724 48.0797 19.3411 48.0877 19.2936C48.0921 19.266 48.0975 19.2323 48.1033 19.1724C48.107 19.1316 48.1112 19.0822 48.1116 18.9988C48.1107 18.9678 48.115 18.8484 48.0803 18.6564C48.057 18.548 48.0444 18.4469 47.9329 18.2001C47.8185 17.9609 47.5349 17.481 46.8652 17.2395C46.1876 16.999 45.565 17.2329 45.3096 17.3927C44.9658 17.6055 44.8687 17.7549 44.7828 17.8558C44.7068 17.9532 44.6563 18.0402 44.6481 18.0536C44.6135 18.112 44.5922 18.1538 44.5748 18.1888C44.5367 18.2676 44.5342 18.2759 44.5197 18.3094C43.8727 20.2174 43.7026 21.2537 43.4337 22.7071C43.4322 22.7164 43.4306 22.7257 43.429 22.7351C42.8269 26.4131 42.3116 30.0321 41.9216 33.7657C41.9212 33.7693 41.9209 33.7728 41.9205 33.7763C41.8308 35.3289 41.5881 36.6828 42.2649 38.8953C42.2934 38.9701 42.3232 39.0433 42.353 39.1122C42.3535 39.1135 42.3541 39.1147 42.3546 39.116C42.7093 39.9358 43.8563 40.2365 44.4847 40.6736C44.4848 40.6737 44.4849 40.6737 44.485 40.6738C44.9927 41.0502 45.6079 41.214 46.0285 41.3159C46.2666 41.3754 46.5186 41.3379 46.7291 41.2116C46.9396 41.0853 47.0913 40.8806 47.1508 40.6425C47.2104 40.4044 47.1728 40.1523 47.0466 39.9419C46.9203 39.7314 46.7156 39.5797 46.4774 39.5202C46.4774 39.5202 46.4774 39.5202 46.4774 39.5202C46.0395 39.4142 45.7805 39.3285 45.569 39.1734C45.5689 39.1734 45.5689 39.1734 45.5688 39.1733C45.4173 39.0643 45.4207 38.7774 45.494 38.5272C45.563 38.2712 45.685 38.0487 45.6454 37.8844C45.6453 37.8838 45.6452 37.8833 45.645 37.8828C45.6377 37.8524 45.6321 37.8246 45.6275 37.7984C45.5151 37.1598 45.7702 35.5257 45.9013 34.1684C45.9016 34.165 45.9019 34.1617 45.9023 34.1584C46.2726 30.6041 46.7909 26.9526 47.3737 23.3982C47.3752 23.3892 47.3767 23.3802 47.3782 23.3712C47.4896 22.7076 47.5891 22.0469 47.6902 21.3926C47.7403 21.0685 47.7918 20.741 47.8448 20.4271C47.8713 20.2699 47.899 20.1128 47.9263 19.9668C47.9402 19.8931 47.9539 19.8228 47.9666 19.7602C47.9708 19.719 48.0189 19.5726 47.9564 19.727C47.9462 19.7503 47.9456 19.754 47.9133 19.8207C47.8983 19.8509 47.8791 19.8885 47.8465 19.9436C47.8389 19.9561 47.791 20.0388 47.7165 20.1344C47.6322 20.2333 47.5365 20.3813 47.194 20.5933C46.9396 20.7525 46.318 20.9862 45.6412 20.746C44.9723 20.5048 44.6894 20.0256 44.5755 19.7876C44.4646 19.5419 44.4523 19.4419 44.4293 19.3351C44.3952 19.1457 44.3997 19.0326 44.3988 19.0039C44.3991 18.9261 44.4031 18.8835 44.406 18.8509C44.4107 18.8034 44.4143 18.7841 44.4167 18.7707C44.4211 18.7483 44.423 18.746 44.4242 18.7469C44.4264 18.7501 44.4263 18.7677 44.426 18.7879C44.4253 18.828 44.4239 18.8775 44.4234 18.9295C44.4226 19.0324 44.4252 19.1442 44.4316 19.2566C44.4442 19.4816 44.4704 19.7159 44.4968 19.9477C44.5488 20.4145 44.5996 20.8793 44.5218 21.3173C44.5216 21.3183 44.5214 21.3194 44.5212 21.3204C43.9553 24.3165 43.6431 27.5134 42.5569 30.0792C42.5556 30.082 42.5542 30.0848 42.5529 30.0876C41.8686 31.5032 41.0305 32.9393 39.9765 33.5166C39.9749 33.5175 39.9733 33.5184 39.9717 33.5192C39.5532 33.7314 39.3755 33.6634 39.0513 33.4686C39.0492 33.4673 39.0471 33.4659 39.045 33.4645C38.556 33.1515 38.1999 32.433 37.973 31.9495C37.9716 31.9467 37.9703 31.9439 37.9689 31.9411C37.6499 31.3025 37.5525 30.6668 37.5521 29.9545C37.5521 29.9497 37.5521 29.9449 37.5522 29.9401C37.5359 27.4391 37.6295 25.1609 38.8129 23.7556C38.8148 23.7531 38.8168 23.7507 38.8188 23.7483C39.9972 22.2919 42.0292 21.4764 44.2103 21.1723C45.1834 21.0331 46.1917 20.9845 47.2093 21.002Z" fill="black"/>
<path d="M47.7125 17.4919C47.5145 17.7862 47.4415 18.147 47.5097 18.4951C47.5778 18.8431 47.7814 19.1499 48.0756 19.3478C48.3699 19.5458 48.7308 19.6188 49.0788 19.5506C49.4269 19.4825 49.7336 19.2789 49.9316 18.9847C49.9316 18.9847 49.9316 18.9847 49.9316 18.9847C50.2222 18.5527 50.5159 18.1309 50.8183 17.719C51.2572 17.1226 51.713 16.545 52.1806 16.057C52.4129 15.815 52.6527 15.5955 52.8556 15.4532C53.0459 15.2908 53.2465 15.3366 52.9018 15.3166C52.8904 15.3144 52.8792 15.3118 52.8683 15.3091C52.5421 15.1937 52.584 15.207 52.5604 15.3789C52.5509 15.539 52.5395 15.7645 52.5803 15.985C52.5816 15.9929 52.5831 16.0009 52.5846 16.0088C52.8823 17.7431 51.9701 20.6161 51.3869 23.1876C51.3842 23.1991 51.3814 23.2107 51.3786 23.2223C50.7605 25.8084 50.0757 28.4051 49.4722 31.0787C49.4709 31.0843 49.4697 31.0898 49.4685 31.0953C49.2293 32.3185 49.0227 33.3919 49.1654 35.1412C49.1659 35.1447 49.1663 35.1483 49.1668 35.1519C49.217 35.7786 49.9402 36.9094 50.9265 37.1204C50.9282 37.1209 50.93 37.1213 50.9317 37.1217C51.5023 37.2535 51.9236 36.9594 52.2584 36.7746C52.4631 36.658 52.6427 36.5664 52.8207 36.5697C52.8215 36.5697 52.8224 36.5698 52.8232 36.5698C53.1779 36.5797 53.5323 36.5543 53.8846 36.5155C53.8846 36.5155 53.8846 36.5155 53.8846 36.5155C53.5323 36.5543 53.1779 36.5797 52.8232 36.5698C52.8224 36.5698 52.8215 36.5697 52.8207 36.5697C52.643 36.5647 52.4668 36.4527 52.3181 36.2924C52.0728 36.0331 51.9042 35.614 51.9696 35.4397C51.9698 35.4392 51.97 35.4387 51.9702 35.4382C52.014 35.2927 52.2157 35.2535 52.3414 35.2102C52.4723 35.1654 52.563 35.0845 52.5808 34.9567C52.581 34.9554 52.5812 34.9541 52.5814 34.9527C52.6714 34.3153 53.1178 33.0616 53.3575 31.9616C53.3587 31.9563 53.3598 31.951 53.361 31.9457C53.942 29.3697 54.586 26.7452 55.1645 24.0823C55.1671 24.0702 55.1697 24.0582 55.1723 24.0462C55.6407 21.3338 56.6242 18.8295 55.8797 15.1547C55.8744 15.1364 55.869 15.1182 55.8633 15.1C55.7366 14.7039 55.5127 14.3219 55.1947 13.9206C54.8639 13.5447 54.4828 12.9987 53.5238 12.7161C53.4909 12.7078 53.4575 12.7003 53.4238 12.6936C52.2959 12.5325 51.7538 12.9964 51.3178 13.2651C50.8861 13.5716 50.5603 13.8858 50.2526 14.2034C49.6469 14.8374 49.145 15.4823 48.6629 16.1356C48.3326 16.5854 48.0194 17.0357 47.7125 17.4919Z" fill="black"/>
<path d="M54.861 18.1133C54.6536 18.3206 54.5371 18.6019 54.5371 18.8952C54.5371 19.1885 54.6536 19.4698 54.861 19.6772C55.0684 19.8846 55.3496 20.0011 55.6429 20.0011C55.9362 20.0011 56.2175 19.8846 56.4249 19.6772C56.5653 19.5368 56.7007 19.4016 56.8342 19.2729C57.5 18.6208 58.1979 18.1267 59.0262 17.6916C59.0267 17.6913 59.0272 17.691 59.0277 17.6908C60.5175 16.9204 62.1703 16.1821 63.8157 15.4391C63.8161 15.4389 63.8165 15.4387 63.8169 15.4385C64.5116 15.1237 65.1255 14.535 65.7046 13.9512C65.8555 13.799 66.003 13.648 66.153 13.5044C65.9485 13.5407 65.7401 13.5654 65.5314 13.5816C64.7354 13.6428 63.9267 13.5834 63.2006 13.8101C63.2002 13.8102 63.1998 13.8103 63.1994 13.8104C61.4718 14.3489 59.7174 14.848 57.9954 15.7347C57.9948 15.735 57.9943 15.7353 57.9937 15.7356C57.0335 16.2336 56.0716 16.9172 55.2992 17.6805C55.1469 17.8273 55.0013 17.9729 54.861 18.1133Z" fill="black"/>
<path d="M67.0356 6.50918C67.0199 6.98735 67.1948 7.45218 67.5218 7.80141C67.8488 8.15064 68.3011 8.35567 68.7793 8.37138C69.2575 8.3871 69.7223 8.21222 70.0715 7.88521C70.4208 7.55821 70.6258 7.10586 70.6415 6.62769C70.6415 6.62769 70.6415 6.62769 70.6415 6.62769C70.6697 5.76717 70.6986 4.90578 70.7205 4.03275C70.7291 3.67989 70.7368 3.32318 70.7404 2.95986C70.7422 2.77762 70.743 2.59328 70.741 2.39919C70.7351 2.18755 70.7467 2.06305 70.7003 1.6519C70.6974 1.63069 70.6941 1.60833 70.6901 1.58419C70.6721 1.49716 70.6815 1.47144 70.5936 1.20922C70.5632 1.13342 70.5667 1.11821 70.4637 0.926582C70.3512 0.757228 70.2734 0.542269 69.7645 0.230121C69.4535 0.0459855 68.9581 -0.0522445 68.5598 0.0287734C68.3646 0.0625272 68.1763 0.136612 68.0644 0.194197C67.9765 0.23848 67.9014 0.285123 67.8365 0.330685C67.5792 0.516031 67.471 0.666914 67.3902 0.776968C67.2094 1.04706 67.196 1.13113 67.1633 1.20169C67.1326 1.28107 67.1229 1.31188 67.1085 1.3555C67.0614 1.50327 67.0409 1.5881 67.0193 1.67095C66.9776 1.83527 66.9445 1.97798 66.912 2.11699C66.8471 2.39569 66.7864 2.65927 66.7238 2.92554C66.5988 3.45909 66.4724 3.97946 66.3447 4.50183C66.0895 5.5458 65.8321 6.58674 65.6125 7.64219C65.599 7.70746 65.5854 7.77337 65.5719 7.8399C64.2576 14.3133 62.8835 20.78 61.6463 27.3172C61.6398 27.3523 61.6333 27.3872 61.6268 27.422C61.1862 30.0716 60.5447 32.5057 60.6363 35.6999C60.6377 35.7244 60.6392 35.7488 60.6407 35.7731C60.7392 36.727 60.7531 37.7711 61.6887 39.1472C61.7099 39.1755 61.7315 39.2037 61.7538 39.2318C62.1661 39.7963 63.0496 40.262 63.7385 40.2728C64.4342 40.3064 64.9213 40.1133 65.3382 39.9577C65.3529 39.952 65.3677 39.9462 65.3824 39.9405C66.8465 39.3194 67.682 38.2121 68.7654 37.5355C68.7708 37.532 68.7762 37.5285 68.7816 37.525C69.1982 37.2579 69.5939 36.9624 69.9712 36.6506C70.6519 36.0882 71.2725 35.4747 71.8848 34.8709C71.9559 34.8007 71.9962 34.7052 71.9969 34.6054C71.9976 34.5056 71.9585 34.4095 71.8884 34.3385C71.8183 34.2674 71.7228 34.2271 71.623 34.2264C71.5231 34.2257 71.4271 34.2647 71.356 34.3349C71.356 34.3349 71.356 34.3349 71.356 34.3349C70.7437 34.939 70.1382 35.5362 69.4917 36.0701C69.1332 36.3664 68.7621 36.643 68.375 36.8913C68.37 36.8946 68.3649 36.8978 68.3599 36.9009C67.3529 37.5355 65.9054 37.4978 64.9356 37.3434C64.9265 37.3417 64.9176 37.3399 64.9088 37.3381C64.6566 37.2905 64.4512 37.1432 64.4816 37.0266C64.5043 36.895 64.7876 36.9573 64.8023 36.9698C64.8039 36.97 64.8051 36.9698 64.8061 36.9693C64.8019 36.9304 64.6599 36.2219 64.6328 35.5209C64.6316 35.5026 64.6305 35.4842 64.6294 35.4656C64.5356 33.397 65.1179 30.6694 65.5593 28.1538C65.5656 28.1197 65.572 28.0854 65.5785 28.0509C66.799 21.6009 68.174 15.1259 69.4921 8.63502C69.5057 8.56811 69.5189 8.50174 69.5319 8.43594C69.7416 7.37211 69.9053 6.30485 70.0681 5.24008C70.1495 4.70791 70.2303 4.17738 70.3187 3.64829C70.3627 3.38545 70.4079 3.1257 70.4559 2.87678C70.4794 2.75489 70.505 2.62956 70.5271 2.53402C70.5366 2.4911 70.5511 2.43871 70.5442 2.46071C70.541 2.46995 70.5394 2.47657 70.5228 2.51922C70.5016 2.56065 70.5041 2.60839 70.3391 2.85613C70.2646 2.95716 70.1625 3.10152 69.911 3.28281C69.8476 3.32735 69.7739 3.37313 69.6874 3.4167C69.5773 3.47335 69.3915 3.54652 69.1984 3.57992C68.8044 3.66017 68.3131 3.56268 68.0061 3.38076C67.5038 3.07254 67.4303 2.86296 67.3228 2.70221C67.2255 2.52126 67.2301 2.50959 67.2028 2.44195C67.1272 2.21561 67.141 2.21533 67.1297 2.16746C67.1279 2.15624 67.1267 2.14761 67.1257 2.14092C67.1207 2.07788 67.1337 2.30455 67.1334 2.43865C67.135 2.59295 67.1344 2.7582 67.1328 2.92443C67.1294 3.25741 67.1222 3.6012 67.1137 3.94344C67.0925 4.79235 67.0638 5.64929 67.0356 6.50918Z" fill="black"/>
<path d="M80.767 14.1631C81.167 14.3046 81.6069 14.2812 81.9898 14.0983C82.3727 13.9154 82.6673 13.5879 82.8087 13.1878C82.9501 12.7877 82.9268 12.3478 82.7439 11.9649C82.561 11.582 82.2335 11.2875 81.8334 11.1461C81.8334 11.1461 81.8334 11.1461 81.8334 11.1461C81.0999 10.8868 80.3657 10.6273 79.6305 10.3685C75.2509 8.84232 70.8843 7.27307 66.2498 6.13368C66.2497 6.13365 66.2496 6.13362 66.2495 6.13359C62.7832 5.24957 58.9349 4.89619 55.4204 5.19562C55.4203 5.19562 55.4203 5.19562 55.4203 5.19562C51.9429 5.43641 48.5144 5.79899 45.0598 6.30125C45.0595 6.3013 45.0592 6.30134 45.0589 6.30139L45.0012 6.31095C42.5157 6.78156 40.1049 7.78664 37.8197 9.12801C37.4761 9.33556 37.1399 9.55374 36.8097 9.7992C36.8096 9.79927 36.8095 9.79934 36.8094 9.79941L36.7867 9.81285C36.4404 10.0901 36.2947 10.6781 36.1675 11.1091C36.1675 11.1091 36.1675 11.1091 36.1675 11.1091C36.6208 10.9714 37.1259 11.066 37.4726 10.9194L37.4499 10.9328C37.45 10.9328 37.4501 10.9328 37.4501 10.9327C37.768 10.8127 38.1036 10.7187 38.4491 10.6387C40.7664 10.1335 43.2433 10.1543 45.6236 9.70535L45.5659 9.71491C45.5662 9.71487 45.5665 9.71483 45.5668 9.71478C48.8936 9.23052 52.2905 8.87094 55.6505 8.63892C55.6505 8.63891 55.6506 8.63891 55.6506 8.63891C59.0583 8.36355 62.2271 8.4295 65.5065 9.24614C65.5066 9.24616 65.5067 9.24619 65.5068 9.24621C69.8582 10.3132 74.2169 11.8683 78.5681 13.3871C79.3007 13.6449 80.0335 13.9039 80.767 14.1631Z" fill="black"/>
<path d="M90.0067 29.44C89.7477 29.6884 89.5981 30.0295 89.5906 30.3883C89.5832 30.747 89.7186 31.094 89.967 31.353C90.2154 31.6119 90.5565 31.7616 90.9152 31.769C91.274 31.7764 91.621 31.6411 91.8799 31.3927C91.8799 31.3927 91.8799 31.3927 91.8799 31.3927C92.6143 30.6892 93.3973 30.0478 94.1961 29.5951C94.936 29.1687 95.6992 28.961 96.172 29.0753C96.1682 29.0745 96.1644 29.0737 96.1605 29.0728C95.9064 29.0224 95.7234 28.8208 95.7021 28.8014C95.6669 28.7694 95.6791 28.8371 95.675 28.9329C95.6727 29.1314 95.6389 29.4332 95.5884 29.7432C95.4881 30.3721 95.3384 31.0706 95.3419 31.8198C95.342 31.8567 95.3424 31.8935 95.3432 31.9304C95.3644 35.6703 94.8347 39.7894 94.4803 43.787C94.4776 43.8153 94.4748 43.8437 94.4721 43.8722C93.475 54.1734 92.3725 64.4912 91.4074 74.8339C91.4071 74.8381 91.4067 74.8422 91.4063 74.8463C91.1741 77.6078 91.0024 80.2408 91.1021 83.2621C91.158 83.7099 91.0812 84.2266 91.5675 85.1581C91.5682 85.1594 91.569 85.1607 91.5698 85.162C91.7948 85.5628 92.5326 85.7098 93.0698 85.5126C93.6273 85.3324 93.8965 84.9238 94.0965 84.9348C94.0967 84.9348 94.097 84.9348 94.0973 84.9349C94.3883 84.9483 94.6724 84.8655 94.9424 84.7645C94.6724 84.8655 94.3883 84.9483 94.0973 84.9349C94.097 84.9348 94.0967 84.9348 94.0965 84.9348C93.8776 84.9332 93.723 84.4339 93.9154 84.0424C94.0863 83.6365 94.5329 83.4595 94.5543 83.4932C94.5544 83.4933 94.5545 83.4933 94.5545 83.4934C94.6662 83.7482 94.5855 83.4697 94.6063 83.1615C94.7177 80.7221 95.1583 77.8908 95.3896 75.211C95.39 75.2069 95.3904 75.2028 95.3908 75.1987C96.3508 64.909 97.4538 54.585 98.4538 44.2548C98.4565 44.2262 98.4592 44.1977 98.462 44.1693C98.8154 40.1012 99.3058 36.1772 99.2477 31.8278C99.2464 31.7865 99.2446 31.7454 99.2424 31.7046C99.2029 31.0289 99.0568 30.2992 98.8561 29.5055C98.752 29.1044 98.6436 28.6943 98.463 28.2012C98.3674 27.9524 98.2631 27.6814 98.039 27.3438C97.8348 27.0243 97.367 26.5596 96.7599 26.4341C96.7502 26.4319 96.7405 26.4298 96.7308 26.4277C95.173 26.1225 93.884 26.6784 92.8658 27.2388C91.7622 27.8681 90.8513 28.6347 90.0067 29.44Z" fill="black"/>
<path d="M81.7935 36.9682C81.7103 37.3896 81.7979 37.8268 82.037 38.1836C82.2761 38.5405 82.6472 38.7877 83.0686 38.8709C83.49 38.9541 83.9272 38.8666 84.2841 38.6274C84.6409 38.3883 84.8881 38.0172 84.9713 37.5958C84.9713 37.5958 84.9713 37.5958 84.9713 37.5958C85.2245 36.3164 85.5247 35.0602 85.9126 33.864C86.4591 32.1818 87.1974 30.5872 88.2421 29.508C88.2426 29.5075 88.243 29.5071 88.2435 29.5066C89.0851 28.6403 90.5042 27.9873 91.9205 27.3352C91.9217 27.3347 91.9229 27.3341 91.9241 27.3336C93.628 26.5551 95.4489 25.9523 97.2937 25.5736C97.2945 25.5734 97.2953 25.5733 97.2961 25.5731C99.2097 25.1757 101.034 25.1035 102.666 25.5962C102.667 25.5965 102.668 25.5968 102.669 25.5971C104.362 26.0995 106.022 27.2405 106.949 28.5296C106.95 28.5308 106.951 28.532 106.952 28.5332C107.752 29.6341 107.996 31.0651 107.864 32.7455C107.864 32.748 107.864 32.7505 107.863 32.753C107.731 34.635 107.106 36.3581 106.048 37.9936C106.047 37.9952 106.046 37.9968 106.045 37.9984C104.667 40.1065 102.734 42.0966 100.684 43.7342C100.683 43.7353 100.681 43.7364 100.68 43.7375C98.9279 45.133 97.0185 46.1761 94.873 47.009C94.8719 47.0095 94.8707 47.01 94.8695 47.0104C92.8446 47.8064 90.745 48.4778 88.5969 49.0214C88.5963 49.0216 88.5957 49.0217 88.5951 49.0219C86.6721 49.5064 84.746 50.0681 82.7878 50.5011C82.7878 50.5011 82.7877 50.5011 82.7877 50.5012C82.1875 50.6331 81.5989 50.9541 80.9872 51.2532C80.2753 51.6021 79.5232 51.9251 78.7819 51.8504C78.7817 51.8504 78.7814 51.8504 78.7811 51.8503C78.1774 51.7923 77.5785 51.6579 77.0261 51.4048C77.5785 51.6579 78.1774 51.7923 78.7811 51.8503C78.7814 51.8504 78.7817 51.8504 78.7819 51.8504C79.5152 51.9244 80.2479 52.2668 81.0174 52.5841C81.673 52.8543 82.3477 53.1018 83.01 53.1271C83.01 53.1271 83.0101 53.1271 83.0102 53.1271C85.159 53.2067 87.3108 53.1038 89.4124 52.6968C89.4131 52.6966 89.4138 52.6965 89.4145 52.6964C91.7528 52.2408 94.0793 51.6188 96.3337 50.7328C96.335 50.7323 96.3363 50.7318 96.3376 50.7313C98.7165 49.8148 101.117 48.5131 103.16 46.8756C103.162 46.8743 103.163 46.873 103.165 46.8717C105.552 44.9514 107.658 42.8192 109.409 40.1631C109.41 40.161 109.411 40.159 109.413 40.1569C110.756 38.11 111.69 35.5712 111.852 33.0552C111.852 33.0519 111.852 33.0486 111.853 33.0453C112.04 30.897 111.689 28.2394 110.145 26.2028C110.143 26.2006 110.141 26.1984 110.14 26.1962C108.433 23.973 106.159 22.7004 103.654 22.0121C103.652 22.0117 103.651 22.0113 103.649 22.0109C101.216 21.367 98.7216 21.6246 96.5518 22.123C96.5509 22.1232 96.55 22.1234 96.5491 22.1237C94.4459 22.6021 92.4086 23.2859 90.4566 24.2275C90.4552 24.2282 90.4538 24.2289 90.4525 24.2295C88.9472 24.9833 87.3786 25.7914 85.9159 27.2539C85.915 27.2547 85.9142 27.2556 85.9134 27.2565C84.3061 28.9445 83.4684 30.9434 82.8319 32.8632C82.3883 34.2323 82.0644 35.6013 81.7935 36.9682Z" fill="black"/>
<path d="M112.181 34.9744C112.087 35.2635 112.111 35.5784 112.249 35.8497C112.386 36.1209 112.626 36.3264 112.915 36.4208C113.205 36.5152 113.519 36.4909 113.791 36.3532C114.062 36.2155 114.267 35.9756 114.362 35.6865C114.362 35.6865 114.362 35.6865 114.362 35.6865C114.502 35.2585 114.661 34.8481 114.846 34.4765C115.145 33.8723 115.516 33.3996 115.89 33.2133C115.89 33.2131 115.891 33.213 115.891 33.2129C115.896 33.2074 115.886 33.2462 115.751 33.2974C115.628 33.3543 115.297 33.3546 115.082 33.2465C114.667 33.0217 114.671 32.9771 114.652 33.0062C114.652 33.0064 114.652 33.0066 114.652 33.0067C114.985 34.8886 114.204 37.9519 113.878 40.6172C113.878 40.6173 113.878 40.6174 113.878 40.6174C113.411 43.9192 112.629 47.2874 112.111 50.8511C112.11 50.8546 112.11 50.8581 112.109 50.8616C112.022 51.5102 112.005 52.1757 112.049 52.8878C112.072 53.2472 112.107 53.6147 112.183 54.0483C112.291 54.4629 112.278 55.07 113.018 55.8759C113.025 55.8826 113.032 55.8891 113.039 55.8956C113.3 56.1431 113.744 56.2438 114.09 56.1487C114.442 56.0599 114.68 55.8216 114.825 55.5987C115.038 55.27 115.095 54.9742 115.249 54.917C115.249 54.9169 115.249 54.9168 115.25 54.9168C115.557 54.8014 115.831 54.6152 116.092 54.4194C116.092 54.4194 116.092 54.4194 116.092 54.4194C115.831 54.6152 115.557 54.8014 115.25 54.9168C115.249 54.9168 115.249 54.9169 115.249 54.917C115.098 54.9766 114.839 54.7738 114.725 54.4746C114.646 54.2717 114.654 54.0211 114.791 53.866C114.92 53.7056 115.167 53.6832 115.274 53.7667C115.277 53.7687 115.279 53.7707 115.282 53.7729C115.434 53.9013 115.492 54.0299 115.514 54.0144C115.538 54.0093 115.551 53.9318 115.572 53.8389C115.611 53.6472 115.668 53.3857 115.73 53.1198C115.854 52.5831 115.99 51.999 116.072 51.4049C116.073 51.4018 116.073 51.3987 116.073 51.3956C116.55 48.0918 117.268 44.6673 117.685 41.0851C117.685 41.085 117.685 41.085 117.685 41.0849C117.887 38.2235 118.407 35.6308 117.373 32.0441C117.372 32.0437 117.372 32.0432 117.372 32.0428C117.252 31.7991 117.133 31.4685 116.471 31.0771C116.133 30.8877 115.647 30.8636 115.38 30.9451C115.1 31.0197 114.953 31.1177 114.828 31.1797C114.825 31.1815 114.821 31.1834 114.818 31.1853C113.773 31.7446 113.2 32.6523 112.793 33.4524C112.541 33.9598 112.347 34.4668 112.181 34.9744Z" fill="black"/>
<path d="M115.344 34.0309C115.107 34.2805 114.979 34.6141 114.988 34.9582C114.997 35.3024 115.142 35.6289 115.391 35.866C115.641 36.1031 115.975 36.2313 116.319 36.2225C116.663 36.2137 116.989 36.0685 117.226 35.8189C117.226 35.8189 117.226 35.8189 117.226 35.8189C117.677 35.3448 118.135 34.8889 118.608 34.4563C119.76 33.382 121.339 32.2634 122.173 32.2821C122.177 32.2822 122.181 32.2824 122.185 32.2827C122.12 32.286 121.986 32.2633 121.905 32.2333C121.821 32.2046 121.788 32.1994 121.773 32.2376C121.747 32.3131 121.76 32.5146 121.809 32.7418C121.811 32.7483 121.812 32.7548 121.814 32.7614C122.054 33.8577 121.511 35.4772 120.849 37.0105C120.842 37.0272 120.834 37.0439 120.827 37.0606C119.972 39.0512 118.733 41.0037 117.302 41.6418C117.295 41.645 117.288 41.6485 117.28 41.6522C117.41 41.5945 117.563 41.5228 117.879 41.4933C118.025 41.4804 118.257 41.4888 118.474 41.551C118.718 41.617 118.967 41.7521 119.154 41.9188C119.547 42.2763 119.639 42.61 119.692 42.8133C119.741 43.0265 119.739 43.1626 119.736 43.2666C119.704 43.6701 119.627 43.7708 119.566 43.9055C119.437 44.1412 119.291 44.2817 119.111 44.4037C118.746 44.6521 118.298 44.6533 118.094 44.6016C118.091 44.5999 118.089 44.5987 118.086 44.5982C118.009 44.5094 118.616 45.08 118.988 45.7322C119.405 46.3924 119.824 47.145 120.32 47.864L120.311 47.8518C120.322 47.8672 120.332 47.8827 120.343 47.8981C122.326 50.3897 123.371 53.1504 127.882 54.866L128.149 54.8954C128.159 54.8954 128.17 54.8954 128.18 54.8954C128.873 54.8895 129.458 54.7822 130.021 54.6608C130.734 54.5033 131.401 54.3089 132.059 54.1361C132.386 54.0495 132.674 53.8256 132.864 53.5298C133.053 53.233 133.129 52.8885 133.07 52.556C133.011 52.2234 132.823 51.9255 132.543 51.7115C132.264 51.4984 131.916 51.3868 131.579 51.4173C131.579 51.4173 131.579 51.4173 131.579 51.4173C130.903 51.4792 130.237 51.5232 129.608 51.5444C129.118 51.5605 128.639 51.5622 128.268 51.5318C128.262 51.5314 128.256 51.5309 128.251 51.5304L128.517 51.5598C128.12 51.4657 126.917 50.2925 126.121 49.222C125.257 48.108 124.434 46.8913 123.6 45.673C123.59 45.6583 123.58 45.6437 123.57 45.629L123.562 45.6168C123.062 44.9036 122.504 44.2156 121.85 43.4977C121.143 42.8229 120.607 41.8887 118.804 41.3509C118.763 41.3419 118.722 41.3331 118.681 41.3244C118.283 41.2362 117.624 41.2668 117.099 41.6334C116.839 41.8136 116.627 42.0302 116.453 42.3543C116.37 42.5334 116.276 42.6808 116.242 43.1344C116.238 43.2503 116.237 43.3993 116.288 43.6244C116.344 43.8396 116.442 44.185 116.844 44.5509C117.237 44.9153 117.838 45.0255 118.154 44.9866C118.482 44.9561 118.646 44.8806 118.787 44.8171C118.791 44.8155 118.796 44.8135 118.801 44.8111C121.75 43.3183 122.983 40.7538 124.04 38.4439C124.049 38.4243 124.057 38.4046 124.065 38.385C124.795 36.5622 125.546 34.4568 124.854 31.9177C124.851 31.9075 124.848 31.8973 124.844 31.887C124.726 31.5237 124.538 31.1349 124.182 30.6896C123.865 30.2599 123.075 29.6747 122.28 29.6879C122.262 29.6874 122.245 29.6869 122.227 29.6866C119.5 29.9102 118.281 31.3711 116.855 32.5409C116.327 33.0241 115.829 33.5208 115.344 34.0309Z" fill="black"/>
<path d="M133.26 35.4941C133.591 35.1171 133.758 34.6242 133.725 34.124C133.692 33.6238 133.461 33.1572 133.084 32.8268C132.707 32.4964 132.214 32.3294 131.714 32.3624C131.214 32.3955 130.747 32.6258 130.417 33.0029C130.417 33.0029 130.417 33.0029 130.417 33.0029C129.994 33.4853 129.585 33.9823 129.192 34.4953C127.372 36.9084 125.75 39.6814 125.336 43.0705C125.334 43.0894 125.332 43.1084 125.33 43.1273C125.073 45.0895 125.742 47.4847 127.324 48.9684C127.344 48.9879 127.364 49.0072 127.384 49.0262C128.387 49.9583 129.56 49.9538 130.259 49.9265C130.288 49.9252 130.317 49.9237 130.345 49.922C131.328 49.9183 132.567 49.3017 133.175 48.5785C133.201 48.5505 133.226 48.5222 133.252 48.4934C134.985 46.4522 135.153 44.0974 135.198 42.1083C135.198 42.0785 135.198 42.0489 135.199 42.0193C135.203 40.7117 135.092 39.4162 134.913 38.1533C134.824 37.5222 134.717 36.8995 134.615 36.3046C134.565 36.0108 134.516 35.7152 134.483 35.469C134.466 35.3477 134.456 35.2334 134.452 35.1885C134.449 35.1697 134.453 35.1635 134.435 35.2499C134.425 35.2915 134.408 35.3701 134.351 35.4957C134.286 35.6317 134.157 35.8617 133.86 36.0646L133.105 36.3342C133.112 36.3334 133.119 36.3325 133.126 36.3317C133.973 36.2288 134.841 35.8405 135.724 35.4169C135.907 35.3284 136.091 35.2375 136.275 35.1445L136.314 35.1362C136.316 35.1349 136.319 35.1336 136.321 35.1323C136.806 34.8861 137.067 34.3166 137.287 33.9004C137.287 33.9004 137.287 33.9004 137.287 33.9004C136.785 33.9021 136.301 33.7383 135.966 33.6729C135.964 33.6726 135.962 33.6724 135.96 33.6721L135.999 33.6639C135.826 33.6375 135.65 33.6018 135.474 33.562C134.62 33.3678 133.738 33.0889 132.841 33.1444C132.834 33.1448 132.826 33.1453 132.819 33.1457L132.361 33.2003L132.063 33.4154C131.337 33.9737 131.355 34.413 131.282 34.6246C131.234 34.864 131.23 35.0052 131.224 35.1444C131.218 35.4055 131.23 35.5925 131.242 35.7778C131.268 36.1381 131.304 36.4547 131.338 36.7636C131.407 37.3807 131.473 37.9652 131.526 38.5508C131.634 39.718 131.69 40.8632 131.685 42.0061C131.685 42.0308 131.685 42.0554 131.684 42.0801C131.683 43.7469 131.367 45.3528 130.621 46.1639C130.614 46.1718 130.608 46.1792 130.601 46.1862C130.404 46.3641 130.463 46.3004 130.236 46.3049C130.222 46.3045 130.208 46.3041 130.194 46.3035C130.02 46.2977 129.898 46.2597 129.872 46.2327C129.841 46.2035 129.934 46.2132 130.006 46.2823C129.997 46.2735 129.988 46.2646 129.979 46.2558C129.277 45.5654 128.97 44.6583 129.09 43.5228C129.091 43.5103 129.092 43.4977 129.094 43.4851C129.35 41.2151 130.612 38.8602 132.194 36.7934C132.533 36.3511 132.889 35.9178 133.26 35.4941Z" fill="black"/>
<path d="M142.489 30.5889C142.707 30.1469 142.741 29.6363 142.583 29.1694C142.425 28.7024 142.087 28.3174 141.645 28.0991C141.203 27.8807 140.693 27.8469 140.226 28.005C139.759 28.1632 139.374 28.5003 139.156 28.9423C139.156 28.9423 139.156 28.9423 139.156 28.9423C138.715 29.8332 138.322 30.7495 137.982 31.6874C137.325 33.4938 136.877 35.3818 136.632 37.2736C136.349 39.4283 136.184 41.5802 136.25 43.6688C136.321 45.9022 136.484 48.0612 136.51 50.1539C136.513 50.3544 136.514 50.5546 136.514 50.7543C136.514 52.4108 136.336 54.049 135.947 55.6145C135.27 58.3732 133.869 60.9762 131.839 62.606C130.494 63.6967 128.872 64.282 127.438 64.081C125.631 63.8901 123.741 62.5589 122.554 60.3184C122.31 59.8616 121.745 59.5525 121.248 59.102L121.254 59.1255C121.211 59.085 121.169 59.0441 121.128 59.0021C120.848 58.7145 120.629 58.3846 120.595 58.0329C120.539 57.4622 120.528 56.8866 120.574 56.3153C120.574 56.3153 120.574 56.3153 120.574 56.3153C120.528 56.8866 120.539 57.4622 120.595 58.0329C120.629 58.3833 120.515 58.7531 120.377 59.1566C120.357 59.2153 120.336 59.2742 120.316 59.3341L120.321 59.3576C120.135 60.026 119.896 60.7003 120.08 61.3133C120.839 64.1323 123.097 67.562 126.91 68.0459C129.739 68.4227 132.4 67.2969 134.344 65.725C137.283 63.3406 138.985 59.9634 139.83 56.5785C140.307 54.6559 140.514 52.6967 140.514 50.7543C140.514 50.5361 140.513 50.3188 140.51 50.1023C140.48 47.8425 140.314 45.6596 140.249 43.5435C140.185 41.5672 140.071 39.6374 140.318 37.7549C140.532 36.1072 140.914 34.503 141.477 32.9546C141.768 32.1509 142.106 31.3623 142.489 30.5889Z" fill="black"/>
<path d="M144.514 33.521C144.799 33.3754 145.015 33.1225 145.114 32.8178C145.213 32.5131 145.186 32.1816 145.041 31.8962C144.895 31.6109 144.642 31.395 144.338 31.2962C144.033 31.1973 143.701 31.2236 143.416 31.3691C143.416 31.3691 143.416 31.3691 143.416 31.3691C143.305 31.4257 143.191 31.4838 143.064 31.5515C143 31.5859 142.934 31.6216 142.852 31.6707C142.81 31.6963 142.765 31.7231 142.696 31.7715C142.66 31.7979 142.621 31.8247 142.547 31.8902C142.507 31.9281 142.462 31.9659 142.378 32.0739C142.336 32.1325 142.279 32.206 142.213 32.367C142.152 32.5191 142.045 32.8798 142.228 33.3066C142.241 33.3376 142.256 33.3687 142.273 33.3995C142.378 33.6022 142.551 33.7813 142.725 33.8915C142.883 33.9949 143.047 34.0488 143.149 34.0735C143.386 34.1276 143.508 34.1184 143.616 34.1162C146.147 33.5442 147.384 33.0322 149.208 32.4747C149.236 32.4656 149.263 32.4564 149.29 32.4472C152.203 31.4718 155.072 30.2335 157.96 29.0779C157.969 29.0745 157.977 29.0711 157.985 29.0677C158.931 28.6917 159.688 27.7222 160.646 27.37C160.7 27.3503 160.755 27.3327 160.81 27.3173C160.812 27.3168 160.814 27.3164 160.815 27.3159C161.079 27.2431 161.342 27.1686 161.605 27.0933C161.605 27.0933 161.605 27.0933 161.605 27.0933C161.342 27.1686 161.079 27.2431 160.815 27.3159C160.814 27.3164 160.812 27.3168 160.81 27.3173C160.755 27.3325 160.699 27.3455 160.642 27.3568C159.645 27.5613 158.469 27.2071 157.474 27.4363C157.465 27.4384 157.456 27.4404 157.447 27.4425C154.416 28.1451 151.352 28.7462 148.378 29.742C148.35 29.7515 148.322 29.761 148.294 29.7706C147.413 30.0716 146.547 30.4362 145.702 30.805C145.277 30.9904 144.857 31.177 144.446 31.3492C144.241 31.4348 144.036 31.5174 143.847 31.586C143.68 31.6527 143.42 31.7125 143.5 31.701C143.528 31.7022 143.57 31.6921 143.723 31.7265C143.79 31.7426 143.909 31.7803 144.036 31.8626C144.174 31.9498 144.32 32.0998 144.406 32.2659C144.419 32.2911 144.431 32.3164 144.442 32.3415C144.622 32.7611 144.516 33.1137 144.458 33.2586C144.395 33.4125 144.342 33.4794 144.305 33.5317C144.23 33.6275 144.196 33.6546 144.168 33.6816C144.117 33.7264 144.103 33.7348 144.092 33.7431C144.074 33.7559 144.082 33.7498 144.093 33.7434C144.117 33.7291 144.16 33.7049 144.205 33.6808C144.297 33.6315 144.404 33.5772 144.514 33.521Z" fill="black"/>
<path d="M143.837 36.0427C143.832 36.4816 144.003 36.9042 144.31 37.2175C144.618 37.5308 145.037 37.7091 145.476 37.7133C145.915 37.7175 146.337 37.5471 146.65 37.2397C146.964 36.9323 147.142 36.5131 147.146 36.0742C147.146 36.0742 147.146 36.0742 147.146 36.0742C147.15 35.616 147.156 35.1692 147.155 34.6835C147.155 34.6222 147.154 34.5656 147.152 34.4806C147.152 34.4786 147.152 34.4767 147.152 34.4747C147.139 34.3903 147.182 34.351 147.043 33.9314C146.998 33.8193 146.937 33.6654 146.76 33.4519C146.592 33.2467 146.228 32.9526 145.736 32.8844C145.246 32.8107 144.827 32.9835 144.612 33.1239C144.386 33.2701 144.284 33.3936 144.208 33.484C144.131 33.5806 144.103 33.6315 144.097 33.6397C144.085 33.6582 144.075 33.6752 144.066 33.691C144.048 33.7226 144.033 33.7495 144.021 33.7732C143.997 33.8204 143.982 33.8552 143.97 33.8842C143.924 33.9958 143.916 34.0331 143.905 34.068C143.888 34.1282 143.891 34.1212 143.886 34.1412C143.879 34.1699 143.875 34.1872 143.873 34.1969C143.868 34.22 143.864 34.2383 143.861 34.2515C143.855 34.2832 143.851 34.303 143.846 34.3286C143.837 34.3727 143.828 34.417 143.82 34.4581C143.803 34.5421 143.787 34.6239 143.77 34.7042C143.735 34.867 143.699 35.0273 143.662 35.1872C143.588 35.5075 143.508 35.8252 143.427 36.1426C143.264 36.7785 143.096 37.4131 142.956 38.0533C142.953 38.0688 142.95 38.0842 142.946 38.0997C142.287 41.2221 141.603 44.3002 141.276 47.6256C141.275 47.6355 141.274 47.6453 141.273 47.6551C141.2 48.6126 141.199 49.6902 141.679 50.8899C141.683 50.9 141.687 50.9102 141.692 50.9203C142.041 51.8584 143.039 52.8052 143.959 53.1194L144.269 53.2122C144.277 53.2139 144.285 53.2154 144.292 53.217C147.378 53.5675 148.889 52.2209 150.646 51.2621L150.705 51.2332C150.707 51.232 150.709 51.2307 150.71 51.2295C151.113 50.9579 151.492 50.636 151.84 50.2945C152.2 49.9425 152.522 49.5726 152.835 49.23C152.963 49.0899 153.033 48.8854 153.045 48.6791C153.056 48.4718 153.007 48.2797 152.896 48.1273C152.785 47.9749 152.617 47.8696 152.416 47.8168C152.216 47.7651 152 47.7702 151.827 47.8487C151.827 47.8487 151.827 47.8487 151.827 47.8487C151.405 48.0434 150.989 48.2084 150.583 48.3501C150.19 48.4885 149.804 48.6088 149.422 48.7436C149.42 48.7442 149.418 48.7449 149.417 48.7455L149.476 48.7166C147.861 49.226 145.758 49.4595 145.104 49.3004C145.104 49.3002 145.103 49.3 145.102 49.2998L145.412 49.3927C145.3 49.3253 145.438 49.4516 145.378 49.3665C145.377 49.3655 145.377 49.3645 145.376 49.3635C145.265 49.1123 145.204 48.5838 145.259 47.9954C145.259 47.9894 145.26 47.9833 145.26 47.9772C145.548 45.0183 146.043 41.8791 146.565 38.8012C146.568 38.7858 146.57 38.7705 146.573 38.7551C146.685 38.1013 146.763 37.4409 146.843 36.7814C146.882 36.4522 146.922 36.1231 146.967 35.7947C146.99 35.6308 147.013 35.4671 147.039 35.3044C147.051 35.2244 147.064 35.1432 147.078 35.0649C147.084 35.0268 147.091 34.9865 147.097 34.953C147.101 34.9343 147.103 34.9197 147.106 34.9073C147.107 34.9026 147.108 34.8974 147.107 34.9018C147.106 34.9037 147.106 34.9079 147.101 34.927C147.097 34.9416 147.1 34.9334 147.085 34.986C147.075 35.0175 147.068 35.0522 147.023 35.1622C147.011 35.1907 146.996 35.2252 146.972 35.2721C146.96 35.2956 146.946 35.3224 146.928 35.3538C146.919 35.3696 146.908 35.3866 146.897 35.405C146.891 35.4131 146.863 35.4639 146.786 35.5604C146.71 35.6506 146.608 35.774 146.383 35.9201C146.168 36.0605 145.749 36.2333 145.259 36.1596C144.767 36.0913 144.403 35.7973 144.235 35.5922C144.058 35.3788 143.997 35.225 143.952 35.1131C143.813 34.6942 143.857 34.6561 143.844 34.5737C143.844 34.574 143.844 34.5745 143.844 34.5749C143.844 34.5999 143.845 34.6523 143.845 34.7003C143.846 35.1255 143.841 35.5898 143.837 36.0427Z" fill="black"/>
<path d="M143.974 40.4836C144.2 40.4147 144.389 40.2589 144.5 40.0505C144.611 39.8421 144.634 39.5981 144.565 39.3723C144.496 39.1465 144.341 38.9573 144.132 38.8464C143.924 38.7354 143.68 38.7118 143.454 38.7807C143.454 38.7807 143.454 38.7807 143.454 38.7807C143.234 38.8478 143.015 38.9162 142.795 38.9867C142.273 39.1645 141.888 39.2536 141.194 39.5839L141.847 41.2231C141.847 41.223 141.847 41.223 141.847 41.2229C144.712 40.2124 147.201 39.2798 149.826 38.2015C149.827 38.201 149.827 38.201 149.827 38.2009C150.526 37.9084 151.207 37.577 151.872 37.2014C152.071 37.0891 152.267 36.973 152.462 36.8536C152.637 36.7461 152.78 36.5856 152.852 36.3899C152.924 36.1944 152.921 35.9819 152.841 35.7952C152.761 35.6084 152.609 35.4595 152.418 35.3771C152.226 35.2945 152.012 35.2874 151.813 35.3397C151.813 35.3397 151.813 35.3397 151.813 35.3397C151.592 35.3983 151.375 35.4597 151.158 35.5242C150.433 35.7399 149.722 35.9918 149.025 36.2836C149.025 36.2836 149.025 36.2837 149.025 36.2837C146.476 37.3371 143.821 38.6314 141.415 39.4957C141.415 39.4957 141.415 39.4957 141.415 39.4957L142.068 41.1349C142.119 41.107 142.424 40.9894 142.635 40.9169C142.866 40.8364 143.102 40.7582 143.339 40.6819C143.55 40.6145 143.761 40.5485 143.974 40.4836Z" fill="black"/>
<path d="M158.476 34.8438C158.416 35.1509 158.479 35.4696 158.653 35.7297C158.828 35.9898 159.098 36.1701 159.405 36.2309C159.712 36.2917 160.031 36.228 160.291 36.0539C160.551 35.8797 160.731 35.6093 160.792 35.3022C160.792 35.3022 160.792 35.3022 160.792 35.3022C160.884 34.8319 160.967 34.3544 161.012 33.8277C161.022 33.3096 161.163 32.8375 160.741 31.9056C160.739 31.9031 160.738 31.9007 160.737 31.8982C160.475 31.1736 159.383 30.2412 158.65 30.3876C158.646 30.3882 158.641 30.3888 158.636 30.3893C155.549 31.1855 155.046 33.0938 154.245 34.5407C154.245 34.5412 154.245 34.5417 154.244 34.5421C152.85 37.6577 152.497 41.4212 153.78 44.818C153.785 44.8322 153.791 44.8465 153.797 44.8606C154.616 46.6542 155.901 47.0532 156.896 47.419L157.195 47.5175C157.204 47.5188 157.214 47.5201 157.224 47.5214C159.334 47.7948 161.193 47.035 162.744 46.2574L162.793 46.2401C162.795 46.2386 162.798 46.2371 162.8 46.2357C163.177 46.0207 163.538 45.7989 163.886 45.573C164.283 45.3153 164.663 45.0526 165.033 44.7871C165.146 44.7063 165.225 44.5755 165.258 44.4325C165.291 44.2891 165.276 44.1452 165.21 44.0236C165.144 43.9019 165.033 43.8098 164.895 43.7586C164.757 43.7078 164.604 43.7021 164.475 43.7516C164.475 43.7516 164.475 43.7516 164.475 43.7516C164.05 43.9155 163.633 44.0823 163.219 44.2259C162.856 44.3518 162.495 44.4597 162.133 44.5345C162.13 44.535 162.128 44.5355 162.125 44.536L162.173 44.5187C160.633 44.7582 159.13 44.4954 158.036 44.0223C158.031 44.02 158.025 44.0178 158.02 44.0156L158.318 44.1141C157.75 43.7871 157.388 43.2392 157.517 43.3917C157.518 43.3929 157.518 43.3942 157.519 43.3955C156.672 41.1516 156.844 38.4881 157.887 36.137C157.887 36.1366 157.887 36.1362 157.887 36.1359C158.141 35.5526 158.404 34.9897 158.677 34.5467C158.936 34.092 159.269 33.8574 159.162 33.8643C159.161 33.8643 159.16 33.8642 159.16 33.8642C159.109 33.8632 158.953 33.7273 158.836 33.5289C158.709 33.3291 158.699 33.1041 158.665 33.0305C158.665 33.0299 158.664 33.0295 158.664 33.029C158.623 32.9359 158.668 33.0357 158.67 33.161C158.678 33.2904 158.674 33.4589 158.659 33.6354C158.628 34.011 158.559 34.426 158.476 34.8438Z" fill="black"/>
<path d="M160.758 27.9387C160.378 28.0762 160.067 28.3593 159.896 28.7256C159.724 29.0919 159.705 29.5115 159.842 29.892C159.98 30.2724 160.263 30.5827 160.629 30.7544C160.995 30.9262 161.415 30.9454 161.795 30.8079C161.795 30.8079 161.795 30.8079 161.795 30.8079C162.213 30.6578 162.694 30.5123 163.172 30.373C165.929 29.5851 168.789 28.9043 171.636 28.2285C171.636 28.2285 171.636 28.2285 171.636 28.2285C175.446 27.3378 179.283 26.353 183.121 25.3983C183.121 25.3983 183.121 25.3983 183.121 25.3983C185.156 24.8942 187.021 23.4857 189.1 23.1489C189.1 23.1489 189.1 23.1489 189.1 23.1489C189.351 23.108 189.602 23.0678 189.853 23.0286C190.361 22.9487 190.869 22.8746 191.378 22.8042C191.378 22.8042 191.378 22.8042 191.378 22.8042C190.869 22.8746 190.361 22.9487 189.853 23.0286C189.602 23.0678 189.351 23.108 189.1 23.1489C189.1 23.1489 189.1 23.1489 189.1 23.1489C187.032 23.4836 184.772 22.8668 182.68 23.183C182.68 23.183 182.68 23.183 182.68 23.1831C178.761 23.7789 174.831 24.3486 170.935 25.259C170.935 25.259 170.935 25.259 170.935 25.259C168.063 25.9416 165.211 26.6177 162.32 27.4434C161.808 27.5931 161.306 27.7426 160.758 27.9387Z" fill="black"/>
<path d="M172.768 30.936C172.86 30.4707 172.763 29.988 172.499 29.5942C172.235 29.2003 171.825 28.9275 171.36 28.8358C170.894 28.7441 170.412 28.8411 170.018 29.1053C169.624 29.3695 169.351 29.7793 169.259 30.2446C169.259 30.2446 169.259 30.2446 169.259 30.2446C169.18 30.647 169.098 31.065 169.023 31.4881C168.752 33.0114 168.589 34.521 168.454 36.0097C168.454 36.0098 168.454 36.0099 168.454 36.01C168.149 39.5609 167.991 43.0663 167.898 46.6136L167.897 46.6577C167.897 46.6577 167.897 46.6577 167.897 46.6577C167.921 48.9727 168.457 51.3653 169.323 53.6497C169.323 53.6498 169.323 53.6498 169.323 53.6499L169.33 53.6785C169.385 53.8064 169.458 53.9284 169.544 54.0446C169.818 54.4198 170.216 54.7156 170.531 55.0311C170.531 55.0311 170.531 55.0311 170.531 55.0311C170.548 54.582 170.652 54.1101 170.69 53.6985C170.702 53.5692 170.706 53.4446 170.696 53.3239L170.703 53.3525C170.703 53.3525 170.703 53.3524 170.703 53.3524C170.623 51.1576 171.224 48.9456 171.269 46.6981C171.269 46.6981 171.269 46.6981 171.269 46.6981L171.268 46.7422C171.465 43.2804 171.72 39.7686 172.016 36.3297C172.016 36.3296 172.016 36.3295 172.017 36.3294C172.146 34.8903 172.301 33.4816 172.545 32.1118C172.613 31.7267 172.689 31.3389 172.768 30.936Z" fill="black"/>
</svg>
