<svg width="142" height="118" viewBox="0 0 142 118" fill="none" xmlns="http://www.w3.org/2000/svg">
<path d="M26.4195 26.5369C26.4651 26.0085 26.299 25.4835 25.9576 25.0775C25.6162 24.6716 25.1276 24.4178 24.5991 24.3722C24.0706 24.3265 23.5457 24.4926 23.1397 24.834C22.7337 25.1754 22.48 25.6641 22.4343 26.1926C22.4343 26.1926 22.4343 26.1926 22.4343 26.1926C22.3689 26.9495 22.3073 27.7252 22.2507 28.4861C21.8519 33.9264 21.6049 39.3435 21.4003 44.7623C21.2327 49.3418 21.0952 53.9225 21.0324 58.514C21.0156 59.9908 21.0119 61.4762 21.0642 62.9855C21.1802 64.7228 21.148 66.5115 22.2634 68.666C22.552 69.1824 22.9511 69.7241 23.452 70.1656C23.6095 70.3055 23.7925 70.4153 23.9862 70.4934C25.0921 70.9325 26.2172 70.332 27.0666 70.0615C26.4582 69.3724 26.1232 68.2567 26.0025 67.7863C25.9736 67.6986 25.9434 67.63 25.8995 67.5792C25.7625 67.4199 25.6532 67.2348 25.5414 66.9729C25.1558 66.1 25.1243 64.4238 25.0616 62.8431C25.013 61.4466 25.0155 60.0029 25.0321 58.5619C25.0939 54.0357 25.231 49.4605 25.3975 44.9107C25.6008 39.5249 25.8473 34.1338 26.2396 28.783C26.2953 28.0354 26.3557 27.2752 26.4195 26.5369Z" fill="black"/>
<path d="M0.220648 39.6313C-0.00209844 40.0262 -0.0588127 40.4935 0.062982 40.9304C0.184777 41.3672 0.475103 41.7377 0.870094 41.9604C1.26508 42.1832 1.73238 42.2399 2.16919 42.1181C2.60599 41.9963 2.97653 41.706 3.19927 41.311C3.19927 41.311 3.19927 41.311 3.19927 41.311C3.70832 40.4083 4.40175 39.5471 5.19009 38.7424C7.74332 36.1715 11.0718 34.1449 14.4673 32.335C14.4683 32.3345 14.4692 32.334 14.4702 32.3335C18.3536 30.2899 22.5148 28.676 26.6233 26.9288C26.6241 26.9284 26.6249 26.9281 26.6257 26.9278C31.2838 24.9492 35.995 23.1526 40.7937 21.5994C40.7941 21.5993 40.7945 21.5991 40.7949 21.599C45.6888 20.0221 50.6673 18.5688 55.6497 17.366L55.5776 17.3806C55.5777 17.3805 55.5777 17.3805 55.5778 17.3805C58.9727 16.7264 62.287 15.6733 65.6952 15.0349C66.2914 14.9248 66.8931 14.8296 67.4947 14.7573C67.4939 14.7573 67.494 14.7573 67.494 14.7573C68.1143 14.6846 68.733 14.3785 69.3554 14.1934C68.7341 14.0073 68.109 13.7063 67.4854 13.6436C67.4853 13.6436 67.4853 13.6436 67.4852 13.6435C66.8611 13.5826 66.2329 13.5327 65.6073 13.4922C62.0337 13.2727 58.4336 13.2955 54.9428 13.8768C54.9428 13.8768 54.9427 13.8768 54.9427 13.8768L54.8706 13.8914C49.6988 15.0024 44.6419 16.372 39.6236 17.9881C39.6231 17.9883 39.6227 17.9884 39.6223 17.9885C34.7088 19.5787 29.8779 21.4284 25.1469 23.4486C25.1461 23.449 25.1453 23.4493 25.1445 23.4496C21.0045 25.2204 16.9267 27.1775 12.8718 29.3104C12.8708 29.311 12.8698 29.3115 12.8688 29.312C9.31154 31.2194 5.78268 33.3108 2.74749 36.3492C1.8082 37.3099 0.926867 38.3825 0.220648 39.6313Z" fill="black"/>
<path d="M40.7048 16.9318C40.722 16.4266 40.5377 15.9353 40.1926 15.566C39.8475 15.1966 39.3698 14.9795 38.8646 14.9624C38.3594 14.9453 37.8681 15.1295 37.4988 15.4746C37.1295 15.8198 36.9124 16.2974 36.8953 16.8026C36.8953 16.8026 36.8953 16.8026 36.8953 16.8026C36.8666 17.6475 36.8344 18.5193 36.8012 19.3737C36.6334 23.6581 36.4319 27.9378 36.2316 32.2239C35.8537 40.4938 35.5072 48.761 35.4073 57.0884C35.3985 58.1784 35.3972 59.2661 35.4098 60.3546C35.4539 62.2638 36.4575 64.1892 37.2695 66.0103C37.3562 66.1788 37.4393 66.3439 37.5736 66.4931C37.6376 66.5629 37.7429 66.6401 37.8548 66.625C37.9631 66.6105 38.0337 66.5467 38.1007 66.4912C38.221 66.3883 38.3282 66.2747 38.4256 66.1532C38.6526 65.8704 38.7909 65.5311 38.9282 65.1985C38.7909 65.5311 38.6526 65.8704 38.4256 66.1532C38.3282 66.2747 38.2095 66.3789 38.0765 66.4577C37.7101 66.7234 37.6426 66.2181 37.6431 65.9156C37.7278 64.0533 38.8228 62.1933 38.8137 60.345C38.8206 59.2883 38.8421 58.2218 38.8714 57.1497C39.1286 48.9428 39.6612 40.6666 40.0392 32.4024C40.2396 28.1144 40.4413 23.83 40.6101 19.5218C40.6435 18.6625 40.6759 17.7846 40.7048 16.9318Z" fill="black"/>
<path d="M38.2683 40.6832C37.902 40.9917 37.6732 41.4331 37.6323 41.9103C37.5915 42.3875 37.7418 42.8614 38.0504 43.2278C38.3589 43.5941 38.8003 43.8229 39.2775 43.8637C39.7547 43.9046 40.2286 43.7543 40.5949 43.4457C40.5949 43.4457 40.5949 43.4457 40.5949 43.4457C41.196 42.9395 41.8456 42.469 42.5277 42.0278C44.8007 40.5301 47.243 39.618 50.1087 38.068C50.1536 38.0411 50.198 38.014 50.2421 37.9866C52.8228 36.0972 52.7808 33.7041 53.0428 31.8469C53.2018 29.9146 53.133 28.0814 53.1242 26.3023C53.124 26.2619 53.1237 26.2218 53.1236 26.1817C53.1208 26.1141 53.1291 26.0548 53.0895 25.8348C53.0552 25.7159 53.0625 25.5595 52.7959 25.1644C52.724 25.0664 52.626 24.9521 52.4812 24.8368C52.33 24.7093 51.993 24.5244 51.6553 24.4865C50.9273 24.4001 50.4744 24.7521 50.2953 24.9139C49.933 25.278 49.9431 25.3881 49.8856 25.4851C49.846 25.5756 49.8299 25.6278 49.8281 25.632C49.8174 25.6631 49.8095 25.6883 49.8027 25.7109C49.7767 25.798 49.7619 25.8632 49.7548 25.8927C49.737 25.9682 49.72 26.0495 49.7088 26.1038C49.6812 26.2398 49.6623 26.3397 49.6383 26.469C49.5971 26.6912 49.557 26.9193 49.5172 27.15C49.4387 27.6064 49.3678 28.0344 49.294 28.4875C49.15 29.3716 49.0096 30.2614 48.8724 31.1463C48.598 32.9175 48.3337 34.6874 48.083 36.4623C47.5826 40.0084 47.1391 43.5536 46.8211 47.1229L46.8187 47.1522C46.8156 47.1938 46.8126 47.2352 46.8096 47.2763C46.6843 49.3531 48.0408 51.5985 48.6304 53.6194C48.7095 53.8497 48.7901 54.0779 48.8852 54.2957C48.8871 54.3001 48.8891 54.3046 48.891 54.3091C49.1183 54.9241 49.7592 55.2367 50.3706 55.3502C49.7592 55.2367 49.1183 54.9241 48.891 54.3091C48.8891 54.3046 48.8872 54.3001 48.8852 54.2956C48.7914 54.0765 48.7536 53.835 48.7525 53.5984C48.8439 51.5121 50.678 49.5987 50.799 47.5677C50.8019 47.5275 50.8049 47.487 50.8078 47.4463L50.8055 47.4756C51.1165 43.9452 51.4008 40.4228 51.7415 36.8978C51.9123 35.134 52.0966 33.3746 52.309 31.6213C52.4152 30.7456 52.5291 29.8666 52.6525 29.0012C52.7159 28.5582 52.7781 28.1408 52.8481 27.7055C52.8834 27.4862 52.9195 27.2709 52.9547 27.0735C52.9751 26.9599 52.9914 26.8721 53.011 26.7741C53.0186 26.7359 53.03 26.6821 53.0348 26.6616C53.0363 26.6541 53.0416 26.637 53.0291 26.68C53.0258 26.6909 53.0212 26.7057 53.0137 26.7277C53.0122 26.7307 53.0019 26.7667 52.9663 26.8481C52.9131 26.9356 52.9268 27.0395 52.5678 27.4006C52.3904 27.5609 51.939 27.9123 51.2122 27.826C50.8752 27.7882 50.539 27.6036 50.3883 27.4766C50.2439 27.3616 50.1463 27.2478 50.0748 27.1503C49.8099 26.7575 49.8186 26.605 49.7854 26.4918C49.748 26.2831 49.7576 26.2419 49.7549 26.1993C49.7551 26.2401 49.7554 26.281 49.7556 26.3221C49.7668 28.1195 49.7645 29.8661 49.5723 31.4973C49.422 33.0873 48.8316 34.7222 48.3338 34.9202C48.3086 34.9358 48.2819 34.9521 48.2538 34.9689C46.071 36.1612 43.1064 37.3225 40.5663 38.995C39.7788 39.5045 39.0067 40.0615 38.2683 40.6832Z" fill="black"/>
<path d="M54.2594 50.3311C54.2092 50.7776 54.3384 51.2258 54.6186 51.577C54.8988 51.9282 55.307 52.1538 55.7535 52.204C56.2 52.2542 56.6482 52.125 56.9994 51.8448C57.3506 51.5646 57.5762 51.1563 57.6264 50.7098C57.6264 50.7098 57.6264 50.7098 57.6264 50.7098C57.7541 49.5756 57.8822 48.4302 57.9941 47.2791C58.1809 45.3722 58.3188 43.4515 58.4049 41.5349C58.405 41.5334 58.405 41.532 58.4051 41.5305C58.5709 37.7883 58.6162 34.0647 58.7299 30.4043C58.73 30.4013 58.7301 30.3982 58.7302 30.3952C58.7969 28.6876 58.9927 27.019 59.6932 26.2387C59.6946 26.2369 59.696 26.235 59.6974 26.2332C59.8654 26.0119 60.0651 25.823 60.2367 25.698C60.3204 25.6366 60.4012 25.5905 60.4277 25.5858C60.439 25.5838 60.4381 25.5934 60.3818 25.6231C60.3152 25.6474 60.232 25.7247 59.8193 25.7388C59.8163 25.7388 59.8132 25.7388 59.81 25.7387C59.4969 25.7485 59.0334 25.6094 58.7733 25.4233C58.4995 25.2367 58.392 25.0891 58.3155 24.991C58.1763 24.7955 58.1671 24.7439 58.1481 24.7078C58.1242 24.6502 58.1416 24.6906 58.1542 24.7338C58.183 24.8265 58.223 24.9749 58.26 25.1191C58.3355 25.4133 58.4126 25.7341 58.4885 26.0503C58.6411 26.688 58.7938 27.3333 58.9494 27.9826C58.9515 27.9914 58.9536 28.0002 58.9557 28.0089C60.0488 32.5842 61.1153 37.1845 62.3433 41.7918C62.3452 41.7987 62.347 41.8057 62.3489 41.8126C63.1379 44.6813 63.9531 47.6538 65.4504 50.5205C65.4531 50.5256 65.4557 50.5307 65.4584 50.5357C66.4576 52.4575 67.7578 54.3165 69.3771 55.8742C69.3805 55.8774 69.3838 55.8807 69.3872 55.8839C70.5266 56.9782 71.8516 57.768 73.2392 58.4186C73.536 58.5568 73.8364 58.6882 74.1461 58.8138C74.1501 58.8155 74.1541 58.8171 74.1581 58.8187C74.5931 58.991 75.1886 59.0147 75.8456 58.8529C76.5298 58.7003 77.017 58.2067 77.2772 57.8143C76.1061 57.6758 76.272 56.5324 75.6237 56.116C75.621 56.114 75.6182 56.112 75.6155 56.11C75.4013 55.9508 75.1867 55.7805 74.9746 55.605C73.9763 54.7756 73.0506 53.8582 72.1649 53.0057C72.1623 53.0031 72.1596 53.0006 72.157 52.998C70.8869 51.7744 69.8528 50.313 69.0037 48.6835C69.0014 48.6792 68.9992 48.6749 68.997 48.6706C67.7565 46.3142 66.9755 43.571 66.2114 40.7729C66.2096 40.7662 66.2078 40.7595 66.206 40.7527C65.0069 36.2552 63.9419 31.6669 62.8458 27.0776C62.8437 27.0688 62.8416 27.0599 62.8395 27.0511C62.6848 26.4057 62.5335 25.7667 62.3784 25.1182C62.3006 24.7945 62.2224 24.468 62.134 24.1229C62.089 23.9491 62.0427 23.7703 61.9754 23.5512C61.9384 23.4351 61.9039 23.318 61.8151 23.1101C61.7619 22.9961 61.7171 22.8716 61.5289 22.6089C61.4276 22.4776 61.2929 22.2998 60.9839 22.0896C60.6893 21.8803 60.1852 21.729 59.8303 21.7388C59.8259 21.7388 59.8214 21.7388 59.8169 21.7388C58.6909 21.8236 58.5181 22.1243 58.1916 22.3108C57.9119 22.5159 57.7105 22.7139 57.5273 22.9115C57.1673 23.3048 56.8961 23.6953 56.6361 24.0818C56.6341 24.0848 56.6321 24.0878 56.6301 24.0908C55.1719 26.2869 55.3322 28.4632 55.2333 30.2996C55.2333 30.3028 55.2332 30.3059 55.2332 30.3091C55.1673 34.0437 55.1823 37.7277 55.0203 41.3773C55.0203 41.3787 55.0202 41.3801 55.0201 41.3815C54.9364 43.2438 54.8036 45.0949 54.6219 46.9507C54.5129 48.0715 54.3871 49.1966 54.2594 50.3311Z" fill="black"/>
<path d="M50.9072 42.8372C50.4547 43.1141 50.1308 43.5593 50.0067 44.075C49.8826 44.5907 49.9684 45.1346 50.2453 45.5871C50.5222 46.0395 50.9674 46.3634 51.4831 46.4875C51.9988 46.6117 52.5427 46.5258 52.9952 46.249C52.9952 46.249 52.9952 46.249 52.9952 46.249C53.3017 46.0614 53.6083 45.8752 53.916 45.69C57.4538 43.5641 61.0779 41.5587 64.7715 39.8054L64.7837 39.7996C64.7837 39.7996 64.7837 39.7996 64.7837 39.7996C66.6116 38.9219 68.2311 37.6193 69.9272 36.5114L69.9147 36.5172C69.9147 36.5172 69.9147 36.5172 69.9147 36.5172C70.1972 36.3364 70.4734 36.1369 70.7509 35.9324C71.0469 35.7143 71.3443 35.4904 71.649 35.2779C71.7993 35.1725 71.9101 34.9937 71.9655 34.8009C72.0204 34.6069 72.0155 34.4146 71.9432 34.2465C71.8709 34.0784 71.7348 33.9425 71.5562 33.8489C71.3781 33.7564 71.1721 33.7139 70.9922 33.7504C70.9922 33.7504 70.9922 33.7504 70.9922 33.7504C70.6284 33.8253 70.2575 33.8889 69.8871 33.963C69.5399 34.0325 69.1934 34.1113 68.856 34.2157C68.856 34.2157 68.856 34.2157 68.856 34.2157L68.8436 34.2215C66.8846 34.8484 64.8712 35.3204 63.0499 36.1949C63.0499 36.1949 63.0499 36.1949 63.0498 36.1949L63.062 36.1891C59.1955 38.0252 55.4878 40.0796 51.8526 42.2633C51.5367 42.4535 51.2219 42.6446 50.9072 42.8372Z" fill="black"/>
<path d="M73.7039 24.7807C73.6855 24.2506 73.4572 23.7495 73.0694 23.3877C72.6815 23.0258 72.1658 22.8329 71.6357 22.8513C71.1055 22.8697 70.6045 23.098 70.2426 23.4858C69.8808 23.8737 69.6879 24.3894 69.7063 24.9195C69.7063 24.9195 69.7063 24.9195 69.7063 24.9195C69.721 25.342 69.735 25.7643 69.7485 26.1863C69.8536 29.4553 69.9203 32.7258 69.9818 36.0099C69.9819 36.0137 69.9819 36.0175 69.982 36.0213C70.0149 37.9409 70.2714 39.8165 70.5736 41.6056C70.5746 41.6114 70.5756 41.6172 70.5766 41.623L70.5862 41.6758C71.1079 44.2313 72.1108 46.608 73.2414 49.1382C73.2866 49.2324 73.3343 49.331 73.3917 49.4426C73.4665 49.5712 73.4574 49.6201 73.7093 49.9467C73.7233 49.9629 73.7388 49.9798 73.7563 49.9974L73.8488 50.1543L74.4315 50.3163C74.7986 50.33 75.0509 50.1532 75.1541 50.0443C75.2672 49.9259 75.3004 49.833 75.3198 49.7515C75.3524 49.5901 75.3097 49.469 75.2566 49.3535C75.1456 49.126 74.9697 48.9306 74.8662 48.7574C74.6702 48.7991 74.4032 48.8197 74.1853 48.8007C74.0783 48.789 73.9782 48.7703 73.9401 48.7025C73.9238 48.6676 73.9187 48.6186 73.9852 48.5366C74.0429 48.4633 74.2387 48.314 74.5467 48.3239L75.2219 48.6428C75.2346 48.6553 75.2453 48.6666 75.2545 48.6769C75.3941 48.8551 75.3182 48.7287 75.3223 48.6835C75.3109 48.6196 75.2972 48.5412 75.2853 48.463C74.9546 46.0603 75.0097 43.3874 74.5109 40.903L74.5205 40.9558C74.5196 40.9502 74.5187 40.9447 74.5177 40.9392C74.2289 39.2304 74.0089 37.5767 73.9813 35.945C73.9812 35.9412 73.9811 35.9374 73.9811 35.9336C73.9195 32.6502 73.8524 29.355 73.7465 26.0587C73.7329 25.633 73.7187 25.207 73.7039 24.7807Z" fill="black"/>
<path d="M74.7459 26.0151C74.9421 25.5634 74.9508 25.0523 74.7702 24.5942C74.5895 24.136 74.2343 23.7684 73.7826 23.5722C73.3309 23.376 72.8197 23.3673 72.3616 23.548C71.9034 23.7286 71.5358 24.0839 71.3396 24.5356C71.3396 24.5356 71.3396 24.5356 71.3396 24.5356C71.0464 25.2835 71.0744 25.6516 71.0482 26.0548C71.0383 26.4417 71.0575 26.7828 71.086 27.1135C71.1447 27.7724 71.2458 28.3853 71.3649 28.9879C71.8558 31.3991 72.6143 33.636 73.4863 35.8337C73.4889 35.8404 73.4916 35.8471 73.4943 35.8539C74.7881 39.0024 76.3362 42.0064 78.9965 44.5792C79.0049 44.5869 79.0133 44.5946 79.0217 44.6022C80.1056 45.5492 81.2352 45.9253 82.4592 46.0861C82.473 46.0876 82.4869 46.0891 82.5008 46.0906C82.9815 46.1404 83.6369 46.127 84.3077 45.8342C84.9819 45.5457 85.4733 45.0306 85.7552 44.6229C85.7614 44.6141 85.7676 44.6052 85.7737 44.5963C87.1657 42.1663 86.6437 40.6152 86.6291 39.0655C86.5029 37.5301 86.2948 36.0728 86.0737 34.6156C86.0727 34.6088 86.0717 34.602 86.0706 34.5952C85.0208 28.4043 83.3657 22.6115 81.6578 16.7551C81.6572 16.7532 81.6566 16.7512 81.656 16.7492C80.4338 12.569 78.1936 8.69388 76.7966 4.72274C76.7965 4.72233 76.7964 4.72192 76.7962 4.72151C76.7299 4.52202 76.6674 4.32799 76.6067 4.13142C76.2878 3.06974 76.0401 2.17538 76.131 1.20604C76.1472 0.902777 76.0423 0.605501 75.8393 0.379614C75.6363 0.153728 75.3519 0.0177333 75.0486 0.00154865C74.7453 -0.014636 74.4481 0.0903146 74.2222 0.293313C73.9963 0.496311 73.8603 0.780728 73.8441 1.084C73.8441 1.084 73.8441 1.084 73.8441 1.084C73.7238 2.38196 74.0841 3.71575 74.4185 4.80748C74.4849 5.02208 74.5522 5.23091 74.6229 5.44373C74.623 5.44416 74.6232 5.4446 74.6233 5.44503C76.0735 9.56776 76.8148 13.7512 77.9506 17.8264C77.9512 17.8284 77.9517 17.8303 77.9522 17.8322C79.5569 23.5898 81.1503 29.4765 82.117 35.2028C82.118 35.2089 82.1189 35.215 82.1198 35.2211C82.3342 36.6295 82.5317 38.0351 82.6418 39.3842C82.777 40.6645 82.6634 42.2342 82.4853 42.3189C82.4848 42.3196 82.4843 42.3203 82.4838 42.3211C82.4543 42.3592 82.539 42.2395 82.709 42.1675C82.8777 42.0953 82.9693 42.118 82.9095 42.1115C82.908 42.1113 82.9065 42.1112 82.9049 42.111C82.4459 42.0653 81.899 41.8298 81.7068 41.6374C81.7051 41.6359 81.7035 41.6344 81.7018 41.6329C79.777 39.7967 78.0348 37.1919 76.9418 34.4729C76.9394 34.4671 76.9371 34.4612 76.9347 34.4554C76.1233 32.4169 75.4235 30.3194 75.0074 28.2641C74.9068 27.7573 74.8264 27.2531 74.7855 26.7892C74.7652 26.5591 74.7555 26.3363 74.7605 26.1563C74.7542 25.9946 74.824 25.7889 74.7459 26.0151Z" fill="black"/>
<path d="M87.4542 22.7249C87.4492 23.2553 87.6552 23.7659 88.0267 24.1445C88.3983 24.523 88.905 24.7385 89.4354 24.7434C89.9658 24.7484 90.4765 24.5424 90.8551 24.1709C91.2336 23.7993 91.4491 23.2926 91.454 22.7622C91.454 22.7622 91.454 22.7622 91.454 22.7622C91.455 22.6527 91.456 22.5442 91.4573 22.4396C91.4579 22.3889 91.4587 22.3349 91.4596 22.2942C91.459 22.2885 91.4639 22.2108 91.4568 22.3255C91.4556 22.3369 91.4564 22.3463 91.4453 22.4325C91.4381 22.478 91.4342 22.529 91.3959 22.6777C91.3728 22.7564 91.3514 22.8554 91.2453 23.0695C91.1913 23.1147 91.1605 23.4656 90.4085 23.9228C90.0361 24.142 89.3657 24.2407 88.874 24.0706C88.3765 23.9114 88.1117 23.6472 87.9558 23.4727C87.6576 23.1091 87.6312 22.9483 87.58 22.8294C87.5397 22.714 87.5252 22.6494 87.5133 22.598C87.492 22.5018 87.4856 22.4459 87.4832 22.4299C87.4807 22.4117 87.4791 22.3975 87.4777 22.3854C87.4751 22.3615 87.4737 22.346 87.4727 22.3339C87.469 22.2851 87.4701 22.2956 87.4696 22.2883C87.4694 22.2834 87.4697 22.2904 87.47 22.2989C87.475 22.468 87.4784 22.7041 87.4816 22.9169C87.4905 23.5442 87.4974 24.1766 87.5042 24.8165C87.5049 24.8857 87.5057 24.9566 87.5064 25.0292C87.5605 30.1054 87.5983 35.1778 87.7229 40.285L87.7252 40.3417C87.7264 40.364 87.7277 40.3862 87.7289 40.4083C87.7883 41.4636 87.8752 42.5164 88.0084 43.6028C88.1996 44.7372 88.1276 45.6176 88.9436 47.351C89.0643 47.5655 89.24 47.8131 89.4379 48.0175L89.8416 48.3419C89.8472 48.3452 89.8529 48.3485 89.8585 48.3518C90.9045 48.8956 91.5394 48.6134 91.8293 48.5831C92.2243 48.5014 92.5921 48.2455 92.854 47.9047C93.1157 47.562 93.25 47.1623 93.2253 46.7607C93.2007 46.359 93.0184 45.9788 92.7167 45.6707C92.4151 45.3646 92.0187 45.1556 91.6167 45.1229C91.6167 45.1229 91.6167 45.1229 91.6167 45.1229C91.4599 45.1114 91.3578 45.0806 91.3659 45.0528C91.3669 45.0264 91.5314 45.0102 91.7466 45.1311C91.7491 45.1325 91.7515 45.1339 91.7539 45.1353L92.1576 45.4597C92.1889 45.4878 92.2211 45.532 92.2248 45.5341C92.221 45.5326 92.0932 45.054 92.0434 44.631C91.9824 44.1857 91.9388 43.7017 91.9018 43.211C91.828 42.2216 91.78 41.2066 91.7227 40.1862C91.7215 40.1648 91.7203 40.1433 91.7191 40.1217L91.7215 40.1784C91.5985 35.1434 91.5601 30.062 91.5062 24.9874C91.5055 24.9147 91.5047 24.8436 91.504 24.7741C91.4971 24.1316 91.4903 23.499 91.4812 22.8589C91.4776 22.6314 91.4755 22.4295 91.4677 22.1639C91.4669 22.1405 91.4667 22.1309 91.4648 22.0916C91.4635 22.0693 91.4644 22.0728 91.4592 22.0052C91.4579 21.9896 91.4563 21.971 91.4533 21.9445C91.4519 21.9312 91.45 21.9157 91.4475 21.8965C91.4449 21.8795 91.4381 21.8211 91.4166 21.7238C91.4045 21.6718 91.3899 21.6067 91.3494 21.4909C91.2981 21.3716 91.2716 21.2106 90.9732 20.8468C90.8173 20.6722 90.5524 20.4079 90.0548 20.2488C89.5631 20.0786 88.8926 20.1773 88.5201 20.3966C87.7681 20.8539 87.737 21.205 87.683 21.2503C87.5768 21.4647 87.5553 21.564 87.532 21.6433C87.4934 21.793 87.4892 21.8455 87.4818 21.8929C87.4701 21.9833 87.4706 21.9979 87.4692 22.0112C87.4585 22.1793 87.4625 22.1578 87.4606 22.2063C87.4591 22.2745 87.4584 22.333 87.4576 22.39C87.4562 22.5049 87.4552 22.615 87.4542 22.7249Z" fill="black"/>
<path d="M101.084 23.3784C101.327 22.9806 101.403 22.5024 101.294 22.0488C101.185 21.5952 100.901 21.2035 100.503 20.9598C100.105 20.7161 99.6269 20.6403 99.1734 20.7493C98.7198 20.8582 98.3281 21.1428 98.0844 21.5406C98.0844 21.5406 98.0844 21.5406 98.0844 21.5406C97.7039 22.1616 97.3116 22.7775 96.9095 23.3882C96.0444 24.7018 95.1345 25.9929 94.1898 27.258C93.7198 27.8871 93.2364 28.516 92.7473 29.1309C92.5033 29.4376 92.2581 29.7407 92.0094 30.0406C91.883 30.1928 91.7654 30.333 91.6394 30.4795C91.5786 30.5503 91.5205 30.617 91.4624 30.6821C91.4394 30.7078 91.4054 30.7451 91.3944 30.7566C91.3884 30.7635 91.3757 30.7746 91.4157 30.7363C91.4335 30.7201 91.4559 30.6977 91.5237 30.6443C91.5596 30.6169 91.6046 30.5815 91.7001 30.524C91.6833 30.5345 91.7919 30.4659 91.9226 30.4123C92.0674 30.3614 92.2676 30.2546 92.7551 30.2853C93.2287 30.2691 94.0712 30.8289 94.2293 31.3865C94.423 31.9226 94.3444 32.1899 94.323 32.3614C94.2588 32.674 94.1756 32.7946 94.1845 32.7861C94.1785 32.7988 94.1729 32.8102 94.1676 32.8206C94.0875 32.973 94.074 32.9797 94.0626 32.9992C94.0526 33.0139 94.035 33.0335 94.0185 33.0473C93.9394 33.1033 94.0029 33.0234 94.184 33.022C94.0405 33.0186 93.9411 32.9829 93.9011 32.966C93.7862 32.8937 94.0535 33.1259 94.2233 33.4086C94.4139 33.6964 94.6111 34.0464 94.8278 34.397C94.8763 34.4769 94.9249 34.5569 94.9743 34.6366C96.0475 36.3595 96.4982 38.7499 96.877 41.1899C96.8886 41.266 96.9003 41.3449 96.9118 41.4238C97.3044 44.1707 97.4949 47.0649 98.0599 50.0915L98.1043 50.2733C98.1187 50.3222 98.1331 50.3708 98.1475 50.4191C98.9933 53.0424 100.105 56.0861 103.16 58.0043L103.322 58.0947C103.337 58.1013 103.351 58.1079 103.365 58.1144C103.668 58.251 103.969 58.3601 104.264 58.4514C105.096 58.7067 105.879 58.8308 106.617 58.9735C106.989 59.0445 107.388 58.9586 107.721 58.7509C108.055 58.5423 108.296 58.229 108.395 57.8636C108.494 57.4983 108.445 57.1062 108.263 56.7575C108.081 56.4097 107.78 56.1338 107.423 56.0066C107.423 56.0066 107.423 56.0066 107.423 56.0066C106.716 55.7557 106.051 55.4918 105.48 55.2209C105.277 55.1248 105.086 55.0281 104.91 54.9323C104.902 54.9278 104.894 54.9232 104.885 54.9186L105.047 55.009C103.55 53.9785 102.686 51.6231 101.98 49.273C101.967 49.2305 101.954 49.1877 101.942 49.1445L101.986 49.3264C101.488 46.682 101.288 43.8076 100.87 40.8467C100.857 40.7591 100.844 40.6705 100.831 40.5841C100.402 37.9942 99.9231 35.199 98.2416 32.5541C98.1646 32.4357 98.0832 32.3196 97.9983 32.2064C97.324 31.4293 96.9481 30.6852 95.2411 29.7688C94.9681 29.6541 94.6198 29.5558 94.2237 29.5497C93.4681 29.5377 92.5531 29.6897 91.7477 30.3608C91.5298 30.5446 91.3343 30.7605 91.1738 30.992C91.1412 31.0418 91.1139 31.0704 91.0269 31.2364C91.0073 31.3136 91.0409 31.0778 90.8666 31.7079C90.8449 31.8809 90.7664 32.1492 90.9604 32.686C91.1188 33.2444 91.9619 33.8047 92.4363 33.7885C92.9247 33.8193 93.126 33.7123 93.2723 33.6607C93.4041 33.6068 93.5158 33.5364 93.4985 33.5471C93.5967 33.488 93.645 33.4502 93.6848 33.4199C93.7603 33.3604 93.7928 33.3292 93.823 33.3013C93.9008 33.2271 93.9151 33.2102 93.9535 33.1701C93.9973 33.1237 94.0513 33.0641 94.0844 33.027C94.1676 32.9339 94.2353 32.8558 94.3065 32.7731C94.4522 32.6036 94.58 32.4513 94.7167 32.2866C94.985 31.9631 95.2435 31.6434 95.5002 31.3207C96.0142 30.6744 96.518 30.0191 97.008 29.3631C97.9925 28.0446 98.9404 26.6999 99.8476 25.3225C100.269 24.6821 100.682 24.0344 101.084 23.3784Z" fill="black"/>
<path d="M67.2785 68.5875C67.1049 68.8278 67.034 69.1272 67.0812 69.4199C67.1284 69.7125 67.2899 69.9744 67.5302 70.1479C67.7706 70.3215 68.07 70.3924 68.3626 70.3452C68.6552 70.298 68.9171 70.1365 69.0907 69.8961C69.0907 69.8961 69.0907 69.8961 69.0907 69.8961C69.7359 68.975 70.7037 67.8954 71.1209 67.8219C71.1209 67.8219 71.121 67.8219 71.1211 67.8219C71.1456 67.8192 71.1112 68.0465 70.9801 68.2246C70.86 68.4083 70.7092 68.5543 70.761 68.6187C70.7612 68.619 70.7614 68.6193 70.7617 68.6196C70.7707 68.6311 70.7801 68.6434 70.7899 68.6566C71.9774 70.5151 72.6996 74.2554 73.7004 77.3741C73.7015 77.3775 73.7025 77.3808 73.7035 77.3842C74.2874 79.5902 76.2422 82.0014 78.626 82.7579C78.6317 82.76 78.6375 82.7621 78.6432 82.7641C81.8801 83.6362 83.5444 81.9023 85.0168 80.9861C85.0284 80.978 85.04 80.9698 85.0516 80.9617C87.0909 79.48 87.7199 77.2762 88.3863 75.4446C88.3916 75.4298 88.3968 75.4151 88.4018 75.4004C88.9947 71.4524 88.0394 68.7769 87.8306 65.5763C87.8293 65.5634 87.8279 65.5505 87.8266 65.5376C87.5762 62.9839 87.7101 60.3082 88.4703 58.1991C88.4713 58.1975 88.4722 58.1959 88.4732 58.1944C88.4807 58.1787 88.6315 58.157 88.6499 58.3692C88.6451 58.4299 88.6426 58.506 88.519 58.6759C88.4534 58.7578 88.3586 58.881 88.0908 59.0336C87.8572 59.1827 87.1834 59.3685 86.5853 59.1167C86.0071 58.8736 85.8155 58.56 85.697 58.4044C85.5796 58.2292 85.539 58.1348 85.5023 58.0575C85.4365 57.9109 85.4182 57.854 85.4036 57.8088C85.3979 57.7939 85.3941 57.778 85.3932 57.7685C85.3024 59.7886 84.9817 63.0146 84.7482 65.6726C84.7475 65.6812 84.7467 65.6898 84.7459 65.6984C83.8988 75.0405 83.0079 84.3883 82.282 93.7782C82.2812 93.7899 82.2803 93.8015 82.2794 93.8131C82.0116 98.0179 81.5385 102.174 82.0172 106.7C82.0197 106.722 82.0222 106.744 82.0248 106.767C82.2503 108.695 82.6059 110.615 83.1711 112.559C83.3522 113.172 83.5568 113.796 83.8192 114.437C83.9516 114.758 84.0962 115.081 84.2833 115.427C84.3774 115.599 84.483 115.78 84.6196 115.978C84.6866 116.074 84.7676 116.184 84.8685 116.301C84.923 116.365 84.9828 116.43 85.06 116.505C85.163 116.594 85.191 116.653 85.5188 116.846C85.5226 116.848 85.5265 116.85 85.5304 116.852L86.3459 117.345L87.285 116.738C87.9213 116.203 87.8556 115.95 87.9179 115.78C87.9475 115.607 87.9329 115.503 87.9118 115.41C87.8662 115.229 87.7785 115.115 87.6901 115.013C87.5112 114.814 87.3209 114.687 87.2915 114.535C87.2913 114.534 87.2911 114.533 87.2909 114.532C87.1887 114.004 87.037 113.607 86.9055 113.217C86.8221 112.975 86.646 112.776 86.416 112.664C86.186 112.552 85.9209 112.536 85.679 112.619C85.4371 112.702 85.2383 112.879 85.1262 113.109C85.0142 113.339 84.9981 113.604 85.0815 113.846C85.0815 113.846 85.0815 113.846 85.0815 113.846C85.2134 114.228 85.3424 114.602 85.3928 114.878C85.3929 114.879 85.393 114.879 85.3931 114.88C85.4053 114.958 85.2443 115.063 85.0733 115.098C84.9885 115.113 84.8993 115.116 84.8404 115.052C84.8124 115.017 84.7883 114.97 84.8012 114.854C84.809 114.795 84.8242 114.719 84.8814 114.595C84.9438 114.474 85.0313 114.283 85.3479 114.045L87.1026 113.931C87.1059 113.932 87.1091 113.934 87.1123 113.936C87.3741 114.091 87.351 114.103 87.397 114.137C87.4235 114.161 87.4332 114.171 87.4382 114.175C87.4469 114.181 87.4363 114.162 87.4241 114.138C87.3977 114.086 87.3565 114.001 87.3176 113.908C87.2378 113.719 87.1581 113.49 87.0856 113.249C86.9395 112.763 86.8184 112.227 86.7155 111.688C86.3905 109.965 86.2077 108.139 85.999 106.313C85.9967 106.293 85.9944 106.273 85.9922 106.253C85.5694 102.447 85.9941 98.2503 86.2681 94.1132C86.269 94.1017 86.2699 94.0902 86.2707 94.0787C86.9911 84.7594 87.8818 75.4071 88.7296 66.0595C88.7303 66.0509 88.7311 66.0423 88.7319 66.0338C88.9613 63.1461 89.3024 60.8834 89.3717 57.3551C89.3681 57.3192 89.3602 57.2703 89.3506 57.2291C89.3275 57.1264 89.2984 57.0143 89.2148 56.8138C89.1688 56.7093 89.1178 56.5893 88.9852 56.3892C88.8522 56.2099 88.6413 55.8734 88.0366 55.6192C87.4121 55.356 86.7076 55.547 86.449 55.7088C86.1561 55.8738 86.0383 56.0165 85.9534 56.1178C85.7896 56.3283 85.7543 56.4514 85.7197 56.5602C85.6207 56.9672 85.6929 57.1611 85.6356 57.3629C85.6325 57.3753 85.6294 57.3877 85.6263 57.4002C85.0106 60.4019 85.5751 63.0845 85.8137 65.7446C85.8151 65.758 85.8165 65.7713 85.8178 65.7847C86.0762 68.8169 86.7552 72.4054 86.3454 74.6756C86.344 74.6792 86.3426 74.6826 86.3413 74.6859C85.7184 76.3132 84.4 77.5444 83.2455 78.0672C83.2387 78.0704 83.2319 78.0737 83.2252 78.0769C81.8321 78.8468 80.1873 79.219 80.0099 79.0049C80.0094 79.0047 80.0088 79.0045 80.0082 79.0042C78.7193 78.5348 77.9859 77.6637 77.5244 76.2007C77.5238 76.1985 77.5231 76.1964 77.5224 76.1942C76.4427 73.0747 76.2634 70.0734 73.9647 66.2745C73.9346 66.2345 73.9039 66.1948 73.8725 66.1553C73.8712 66.1537 73.87 66.1521 73.8687 66.1505C73.2748 65.3601 71.6035 65.3126 70.6126 65.6452C70.6119 65.6453 70.6112 65.6455 70.6105 65.6457C68.6117 66.3715 68.121 67.5697 67.2785 68.5875Z" fill="black"/>
<path d="M89.9149 72.1286C89.8692 72.3888 89.9287 72.6565 90.0804 72.8728C90.232 73.0891 90.4634 73.2363 90.7236 73.2821C90.9838 73.3278 91.2515 73.2683 91.4678 73.1166C91.6841 72.9649 91.8313 72.7336 91.877 72.4734C91.877 72.4734 91.877 72.4734 91.877 72.4734C91.9294 72.117 92.0242 71.8599 92.0218 71.8911C92.0218 71.8912 92.0217 71.8912 92.0217 71.8913C92.05 71.8024 92.5451 71.6807 93.185 71.654C93.2447 71.6495 93.3069 71.6445 93.3713 71.6386C93.3719 71.6387 93.3724 71.6387 93.373 71.6388C93.4113 71.6399 93.4382 71.7444 93.3196 71.8165C93.2197 71.8975 92.8609 71.8553 92.6706 71.5901C92.6704 71.5899 92.6701 71.5896 92.6699 71.5893C92.5115 71.3431 92.5988 71.451 92.5256 71.7123C92.4698 71.9681 92.3587 72.3054 92.2272 72.6502C91.9606 73.3473 91.6206 74.0964 91.2849 74.8603C90.6087 76.3881 89.9362 77.9976 89.434 79.6907C89.4167 79.7488 89.4 79.807 89.3836 79.8653C88.5272 83.0417 88.6784 86.0625 88.7751 88.8998C88.7771 88.9514 88.7796 89.0021 88.7826 89.0533C88.8127 90.0725 89.2223 91.4639 89.9312 92.3615C89.964 92.4064 89.9977 92.451 90.0325 92.4958C90.6313 93.3087 91.686 93.9515 92.5449 94.1853C92.5892 94.1987 92.6336 94.2115 92.6781 94.2238C95.1462 94.8957 97.4279 93.9069 99.0148 92.7366C99.0391 92.7187 99.0633 92.7007 99.0875 92.6826C101.421 90.8589 102.553 88.5541 103.622 86.4149C103.629 86.4002 103.636 86.3856 103.643 86.3709C105.229 82.8277 104.457 79.4143 103.714 76.4797C103.714 76.4774 103.713 76.4751 103.713 76.4729C102.759 72.7678 99.4123 70.277 96.0821 69.4677L95.9621 69.442C95.9534 69.4404 95.9448 69.4388 95.9361 69.4373C95.4668 69.3528 94.9353 69.6863 94.4584 70.0879C93.8807 70.5674 93.4022 71.136 92.9305 71.1995C92.9281 71.1998 92.9256 71.2001 92.9231 71.2004C92.3953 71.2593 91.891 71.4464 91.4231 71.6928C91.891 71.4464 92.3953 71.2593 92.9231 71.2004C92.9256 71.2001 92.9281 71.1998 92.9306 71.1995C93.4233 71.1454 93.9211 71.7171 94.3124 72.2603C94.6482 72.7167 94.9255 73.1526 95.2578 73.2121C95.264 73.2132 95.2702 73.2143 95.2764 73.2155L95.1564 73.1897C97.4873 73.7751 99.4947 75.3633 100.027 77.4776C100.028 77.4789 100.028 77.4803 100.029 77.4816C100.751 80.1035 101.12 82.8724 100.216 84.7392C100.212 84.7472 100.208 84.7552 100.204 84.7631C99.2646 86.7087 98.1146 88.5681 96.7633 89.5434C96.7497 89.5533 96.736 89.5631 96.7223 89.5727C95.672 90.3263 94.5218 90.6072 93.7457 90.3689C93.7305 90.3647 93.7152 90.3603 93.7 90.3557C93.3776 90.2474 93.3345 90.2087 93.1865 90.0356C93.1783 90.025 93.1699 90.0139 93.1612 90.002C93.0088 89.7914 92.9507 89.6746 92.8901 89.4968C92.8328 89.3234 92.7915 89.094 92.7758 88.8207C92.7743 88.7943 92.773 88.7677 92.7719 88.7401C92.659 85.9319 92.5348 83.1965 93.1048 80.8568C93.1153 80.8141 93.1261 80.7716 93.137 80.7295C93.5326 79.2104 94.0209 77.6908 94.5441 76.1128C94.8045 75.3182 95.0756 74.5182 95.316 73.6269C95.4338 73.1772 95.5483 72.7123 95.6101 72.14C95.6443 71.5918 95.7572 70.7934 95.11 69.8508C95.109 69.8494 95.108 69.848 95.107 69.8467C94.7707 69.3731 94.1714 69.2068 93.8252 69.2416C93.4585 69.2657 93.2297 69.3833 93.0195 69.4237C93.0166 69.4243 93.0137 69.4248 93.0108 69.4254C92.958 69.4387 92.9017 69.4522 92.8438 69.466C92.2252 69.6457 91.2906 69.7006 90.4615 70.6526C90.4601 70.6543 90.4587 70.656 90.4574 70.6577C90.0036 71.2756 89.9928 71.7749 89.9149 72.1286Z" fill="black"/>
<path d="M103.245 69.4318C102.963 69.6711 102.787 70.0128 102.756 70.3818C102.726 70.7508 102.843 71.1168 103.082 71.3994C103.321 71.682 103.663 71.8579 104.032 71.8885C104.401 71.9192 104.767 71.8019 105.05 71.5627C105.05 71.5627 105.05 71.5627 105.05 71.5627C106.09 70.6847 107.128 69.7923 108.153 69.0133C108.248 68.942 108.341 68.8733 108.434 68.8063C108.55 68.7228 108.688 68.6755 108.821 68.652C108.945 68.6306 109.068 68.6285 109.152 68.6423C109.229 68.6549 109.298 68.691 109.135 68.7373C109.073 68.7514 108.971 68.7722 108.796 68.7595C108.626 68.7488 108.359 68.6795 108.137 68.5327C107.674 68.2101 107.622 67.9257 107.59 67.8829C107.549 67.7964 107.563 67.9428 107.524 68.1339C107.49 68.3289 107.432 68.5785 107.362 68.8416C107.221 69.3712 107.038 69.9595 106.867 70.5639C106.769 70.9104 106.668 71.2608 106.568 71.6176C105.999 73.6345 105.515 75.6844 105.173 77.7824C105.069 78.4227 104.977 79.0672 104.901 79.7167C104.847 80.1822 104.815 80.6664 104.824 81.1746C104.839 82.1043 105.048 83.1456 105.555 84.0934C105.708 84.3821 105.883 84.6482 106.071 84.8938C106.775 85.7983 107.72 86.3349 108.718 86.7088C108.776 86.7302 108.835 86.7509 108.895 86.7703C111.374 87.4395 112.997 86.4015 114.663 85.8775C116.998 84.9245 119.321 83.9731 120.89 81.311C121.012 81.0452 121.11 80.7523 121.182 80.4987C121.68 78.6014 122.369 76.8704 122.527 75.0341C122.665 73.1951 122.719 71.3697 122.556 69.4926C122.489 68.825 122.444 68.2287 122.246 67.3717C122.224 67.2822 122.178 67.1109 122.118 66.9466C122.08 66.8505 122.072 66.8112 121.964 66.5986C121.915 66.5061 121.854 66.4015 121.761 66.2773C121.714 66.2153 121.659 66.1483 121.589 66.0765C121.505 65.9948 121.493 65.9642 121.255 65.7939C120.883 65.4985 119.996 65.297 119.378 65.5615C119.23 65.6153 119.082 65.6947 118.993 65.7516C118.926 65.7936 118.866 65.8365 118.812 65.8791C118.704 65.9644 118.619 66.0479 118.549 66.1255C118.283 66.4214 118.17 66.7033 118.137 66.7739C118.052 66.9712 118.005 67.132 117.964 67.2872C117.912 67.484 117.863 67.739 117.836 67.9013C117.808 68.0671 117.781 68.2536 117.758 68.4385C117.597 69.7465 117.531 70.9781 117.466 72.2528C117.095 75.1741 115.412 79.1429 114.459 82.924C114.044 84.5521 113.901 86.296 114.112 88.1593C114.232 89.0833 114.426 90.0586 114.971 91.0224C115.494 92.0024 116.589 92.7531 117.593 92.9537C117.606 92.9568 117.619 92.9598 117.632 92.9628C118.395 93.1319 119.07 93.109 119.74 93.0331C120.241 92.9718 120.457 91.9076 120.873 91.8048C121.194 91.7251 121.532 91.628 121.889 91.5127C121.532 91.628 121.194 91.7251 120.873 91.8048C120.432 91.9136 119.865 91.0043 119.504 91.0471C118.984 91.1084 118.502 91.1094 118.078 91.0132C118.071 91.0116 118.063 91.0099 118.056 91.0082C116.932 90.762 116.842 89.5691 117.112 88.1972C117.387 86.8262 117.949 85.4125 118.33 83.9321C119.213 80.2699 120.82 77.1224 121.461 72.447C121.522 71.2281 121.593 70.0086 121.725 68.948C121.744 68.8028 121.764 68.6668 121.781 68.5633C121.798 68.4596 121.826 68.3267 121.834 68.2974C121.84 68.2713 121.843 68.2804 121.806 68.3662C121.792 68.3903 121.742 68.5506 121.517 68.8068C121.458 68.872 121.384 68.9449 121.287 69.0214C121.239 69.0596 121.184 69.0986 121.123 69.137C121.042 69.189 120.904 69.2628 120.765 69.3133C120.186 69.5637 119.337 69.3685 119.002 69.0989C118.788 68.945 118.78 68.9198 118.707 68.8499C118.649 68.789 118.604 68.7343 118.567 68.6861C118.495 68.5895 118.455 68.5184 118.426 68.465C118.367 68.3484 118.373 68.3492 118.362 68.3243C118.349 68.2872 118.36 68.317 118.366 68.3432C118.446 68.6678 118.523 69.2993 118.572 69.854C118.718 71.5174 118.863 73.2591 118.947 74.9723C119.017 76.6524 119.588 78.4378 119.249 79.9856C119.203 80.1788 119.142 80.3837 119.086 80.5206C118.333 82.0694 116.076 83.4549 114.057 84.195C112.643 84.73 110.786 84.5595 110.132 83.9788C110.109 83.9616 110.085 83.9439 110.062 83.926C109.649 83.6118 109.354 83.1065 109.151 82.7291C109.094 82.6254 109.05 82.5232 109.018 82.4271C108.887 82.0567 108.833 81.6258 108.823 81.0985C108.818 80.8136 108.836 80.5054 108.874 80.183C108.943 79.5977 109.026 79.0109 109.121 78.4239C109.435 76.4997 109.86 74.5714 110.367 72.6588C110.46 72.3098 110.554 71.9594 110.649 71.6003C110.815 70.971 110.969 70.3237 111.085 69.6001C111.165 68.8517 111.396 68.1405 110.985 66.7619C110.887 66.5191 110.738 66.0304 110.095 65.5881C109.425 65.158 108.783 65.2387 108.481 65.3008C107.628 65.5271 107.482 65.8788 107.201 66.154C107.068 66.3031 106.945 66.4377 106.803 66.5399C106.689 66.6217 106.581 66.702 106.473 66.7834C105.324 67.6583 104.292 68.5492 103.245 69.4318Z" fill="black"/>
<path d="M128.608 27.5823C129.703 26.7677 131.325 27.2023 131.866 28.4553L132.544 30.026C132.84 30.7097 133.491 31.1946 134.249 31.2943L135.99 31.5233C137.379 31.706 138.231 33.1123 137.702 34.3482L137.039 35.8974C136.751 36.5718 136.866 37.3515 137.34 37.937L138.429 39.282C139.298 40.355 138.881 41.9092 137.593 42.404L135.977 43.0242C135.273 43.2942 134.784 43.912 134.697 44.6403L134.496 46.3135C134.336 47.6482 132.895 48.4399 131.601 47.9037L129.979 47.2316C129.273 46.9391 128.466 47.0331 127.868 47.4776L126.496 48.4988C125.4 49.3134 123.779 48.8788 123.237 47.6257L122.559 46.055C122.264 45.3713 121.612 44.8865 120.854 44.7868L119.114 44.5577C117.725 44.375 116.872 42.9688 117.401 41.7329L118.064 40.1836C118.353 39.5093 118.238 38.7295 117.764 38.1441L116.675 36.799C115.806 35.726 116.222 34.1719 117.511 33.6771L119.127 33.0568C119.83 32.7868 120.32 32.169 120.407 31.4407L120.607 29.7675C120.767 28.4328 122.209 27.6412 123.503 28.1773L125.125 28.8494C125.831 29.1419 126.638 29.0479 127.235 28.6034L128.608 27.5823Z" fill="#007AFF"/>
<path d="M127.439 28.0968C128.715 27.1059 130.586 27.6068 131.196 29.1035L131.858 30.7297C132.102 31.3289 132.651 31.7502 133.293 31.831L135.036 32.0503C136.639 32.2521 137.607 33.9287 136.98 35.4183L136.299 37.0374C136.048 37.6337 136.138 38.3194 136.535 38.8305L137.612 40.2181C138.603 41.4948 138.102 43.3652 136.605 43.9752L134.979 44.6374C134.38 44.8816 133.959 45.4302 133.878 46.0722L133.658 47.815C133.457 49.4186 131.78 50.3866 130.29 49.7596L128.671 49.0781C128.075 48.8271 127.389 48.9176 126.878 49.3144L125.492 50.3916C124.215 51.3829 122.345 50.8816 121.735 49.3849L121.071 47.7584C120.827 47.1592 120.279 46.738 119.637 46.6572L117.894 46.4379C116.29 46.2359 115.322 44.5594 115.949 43.0698L116.631 41.4508C116.882 40.8545 116.792 40.169 116.395 39.6579L115.317 38.2711C114.326 36.9945 114.827 35.1241 116.324 34.5139L117.951 33.851C118.55 33.6068 118.971 33.0579 119.052 32.416L119.271 30.6732C119.473 29.0699 121.149 28.1019 122.639 28.7286L124.258 29.4101C124.854 29.6612 125.54 29.5706 126.051 29.1738L127.439 28.0968Z" stroke="black" stroke-width="0.65"/>
<path d="M44.2708 80.3779C43.9738 78.9807 45.6383 78.0197 46.6998 78.9755L49.2984 81.3153C49.7732 81.7428 50.4692 81.8159 51.0224 81.4965L54.0507 79.7481C55.2878 79.0339 56.7161 80.32 56.1351 81.6249L54.7128 84.8194C54.453 85.403 54.5985 86.0875 55.0733 86.515L57.6719 88.8548C58.7334 89.8106 57.9517 91.5664 56.5311 91.4171L53.0534 91.0516C52.4181 90.9848 51.812 91.3348 51.5522 91.9184L50.1299 95.1128C49.5489 96.4178 47.6375 96.2169 47.3405 94.8197L46.6134 91.3993C46.4806 90.7744 45.9605 90.3061 45.3252 90.2394L41.8476 89.8738C40.4269 89.7245 40.0273 87.8445 41.2644 87.1303L44.2927 85.3819C44.846 85.0625 45.1306 84.4232 44.9978 83.7983L44.2708 80.3779Z" fill="#007AFF"/>
<path d="M43.3195 78.5308C43.9321 78.1827 44.7511 78.2346 45.3857 78.846L47.9885 81.3543C48.3732 81.7251 48.8962 81.7921 49.282 81.5728L52.1619 79.9361C52.9037 79.5147 53.71 79.7537 54.2277 80.2526C54.7448 80.7511 55.029 81.5572 54.712 82.3519L53.441 85.5387C53.2613 85.9897 53.3857 86.5555 53.7725 86.9284L56.3753 89.4368C57.0059 90.0444 57.1213 90.88 56.8597 91.5361C56.5955 92.1983 55.9391 92.6847 55.0793 92.5479L51.6909 92.0093C51.222 91.9348 50.7919 92.1792 50.616 92.6201L49.3458 95.8065C49.0233 96.6152 48.2686 96.9308 47.5646 96.8188C46.8671 96.7078 46.209 96.1805 46.0096 95.328L45.1864 91.8083C45.0639 91.285 44.6407 90.889 44.1612 90.8128L40.7728 90.2741C39.9279 90.1397 39.3815 89.4827 39.2178 88.7832C39.0541 88.083 39.2611 87.2681 40.003 86.8464L42.8829 85.2097C43.2686 84.9903 43.4787 84.5067 43.3571 83.9865L42.5339 80.4668C42.3334 79.6088 42.7072 78.879 43.3195 78.5308Z" stroke="black" stroke-width="0.65"/>
<path d="M122.112 36.9198C122.311 36.6701 122.737 36.3622 123.248 36.1276C123.424 36.0467 123.474 36.1467 123.515 36.3362C123.556 36.5257 123.598 36.828 123.62 37.1442C123.642 37.4603 123.642 37.7811 123.525 38.4472C123.409 39.1134 123.176 40.1152 123.052 40.6757C122.929 41.2362 122.921 41.3251 122.935 41.3603C122.951 41.4046 123.187 41.118 123.731 40.4984C124.085 40.0957 124.681 39.5842 125.288 39.1011C125.895 38.6181 126.517 38.197 127.36 37.7369C128.203 37.2769 129.248 36.7906 130.374 36.3575C131.5 35.9244 132.675 35.5592 134.143 35.236C135.611 34.9129 137.335 34.6429 139.112 34.3647" stroke="black" stroke-width="2" stroke-linecap="round"/>
</svg>
