<svg width="57" height="36" viewBox="0 0 57 36" fill="none" xmlns="http://www.w3.org/2000/svg">
<path d="M4.36063 6.36653C4.27391 6.56812 4.27081 6.7959 4.35204 6.99977C4.43326 7.20364 4.59214 7.3669 4.79373 7.45362C4.99532 7.54035 5.2231 7.54344 5.42697 7.46222C5.63084 7.38099 5.7941 7.22211 5.88082 7.02052C5.88082 7.02052 5.88082 7.02052 5.88082 7.02052C6.20741 6.26189 6.55017 5.51047 6.91725 4.78455C7.46034 3.71992 8.16833 2.45322 8.80702 1.99031C8.80744 1.99004 8.80786 1.98978 8.80827 1.98953C8.98439 1.86719 9.32051 1.85139 9.22789 1.90988C9.22243 1.91132 9.21563 1.91274 9.20766 1.91397C9.15859 1.91955 9.02825 1.92399 8.86177 1.84238C8.69413 1.76126 8.58499 1.6209 8.54689 1.55625C8.47149 1.42042 8.49468 1.45245 8.49596 1.4906C8.49682 1.49628 8.49766 1.50218 8.49857 1.50892C8.4948 2.87935 8.24508 4.93032 8.08603 6.66622C8.0855 6.67166 8.08496 6.67709 8.08442 6.68254C7.49241 12.6922 6.83816 18.7035 6.41316 24.7692C6.4089 24.8348 6.40475 24.8997 6.4007 24.9638C6.37782 27.1837 5.79351 29.2042 6.8988 31.9076C6.94615 31.9963 6.99587 32.0846 7.04823 32.1721C7.44399 32.8409 8.03297 33.4929 8.79305 33.902C8.8823 33.9506 8.97419 33.9963 9.06825 34.0385C9.88404 34.413 10.7974 34.4383 11.5509 34.3252C11.6122 34.3165 11.6733 34.3068 11.7338 34.2964C12.7896 34.105 13.6945 33.6879 14.569 33.1788C14.5912 33.1657 14.6132 33.1525 14.6351 33.1394C15.3747 32.6991 15.9327 31.9891 16.4927 31.4052C16.5192 31.3779 16.5458 31.3509 16.5726 31.3242C16.578 31.3188 16.5833 31.3135 16.5887 31.3081C17.1827 30.7191 17.6917 30.0807 18.1896 29.461C18.2761 29.3531 18.3163 29.2153 18.3012 29.0778C18.2862 28.9403 18.2171 28.8144 18.1092 28.7278C18.0013 28.6412 17.8635 28.601 17.726 28.6161C17.5885 28.6312 17.4626 28.7002 17.376 28.8081C17.376 28.8081 17.376 28.8081 17.376 28.8081C16.8782 29.4284 16.3913 30.0355 15.8545 30.5672C15.8496 30.572 15.8447 30.5768 15.8398 30.5816C15.8153 30.6055 15.7903 30.6289 15.7649 30.6518C15.2136 31.1517 14.5002 31.3614 13.8564 31.626C13.837 31.6341 13.8174 31.6422 13.7977 31.6502C13.0165 31.9647 12.1631 32.1894 11.3957 32.3252C11.3522 32.3326 11.3091 32.3395 11.2669 32.3455C10.7268 32.4234 10.2729 32.3895 9.88711 32.2139C9.84112 32.1932 9.79544 32.1705 9.74987 32.1457C9.35911 31.9342 9.03211 31.5937 8.76457 31.1454C8.7298 31.0872 8.69607 31.0274 8.66336 30.9661C8.02413 29.643 8.30959 27.1421 8.39673 25.0898C8.4007 25.0269 8.40477 24.9633 8.40895 24.899C8.82803 18.914 9.48208 12.8926 10.0747 6.87901C10.0753 6.87355 10.0758 6.86809 10.0764 6.86264C10.2306 4.99841 10.5043 3.47211 10.4808 1.24306C10.4785 1.22556 10.4761 1.20874 10.4733 1.19044C10.4463 1.05076 10.4352 0.902061 10.2742 0.60597C10.1931 0.462344 10.0227 0.250231 9.77464 0.126933C9.5281 0.00247502 9.30499 -0.00539041 9.16591 0.00224406C9.13962 0.003874 9.11381 0.00622034 9.08988 0.00900459C8.42104 0.131878 8.24164 0.412282 7.92975 0.587051C7.92821 0.588021 7.92667 0.588992 7.92513 0.589963C6.51107 1.69913 6.09459 2.86238 5.44068 4.03726C5.05235 4.80534 4.69735 5.58449 4.36063 6.36653Z" fill="black"/>
<path d="M0.031448 15.3569C0.0549352 15.4667 0.121096 15.5628 0.215375 15.6238C0.309655 15.6849 0.42433 15.706 0.534174 15.6825C0.644018 15.659 0.740033 15.5929 0.801096 15.4986C0.86216 15.4043 0.88327 15.2896 0.859783 15.1798C0.859783 15.1798 0.859783 15.1798 0.859783 15.1798C0.842155 15.0973 0.847003 15.108 0.847625 15.0934C0.849164 15.0807 0.861395 15.0427 0.886767 14.9961C0.937731 14.901 1.02608 14.7843 1.1216 14.6723C1.12813 14.6646 1.1348 14.6568 1.14163 14.649C1.43811 14.31 1.79842 13.9894 2.16556 13.6958C2.52476 13.4101 2.90119 13.1452 3.28461 12.9161C3.30283 12.9052 3.32101 12.8945 3.33916 12.8839C4.04061 12.4714 4.80774 12.2248 5.60426 12.0713C5.62424 12.0674 5.6441 12.0635 5.66385 12.0598C6.26155 11.9439 6.85231 11.8976 7.47969 11.8849C7.49549 11.8846 7.51129 11.8842 7.52711 11.8839C8.15737 11.8707 8.79327 11.8779 9.43432 11.9086C9.44459 11.9091 9.45485 11.9096 9.46512 11.9101C10.3572 11.9512 11.236 12.0783 12.1376 12.1741C12.14 12.1743 12.1424 12.1746 12.1448 12.1748C13.6979 12.3413 15.2647 12.5408 16.8531 12.6889C16.8639 12.6899 16.8747 12.6909 16.8854 12.6919C17.9473 12.7889 19.0458 12.8609 20.1502 12.8174C20.1712 12.8167 20.1922 12.8159 20.2132 12.8151C21.1905 12.7802 22.1889 12.659 23.1484 12.4555C23.1768 12.4495 23.2054 12.4435 23.2341 12.4373C24.3667 12.1909 25.4572 11.882 26.5475 11.4778C26.5807 11.4654 26.6138 11.4529 26.6466 11.4403C27.4195 11.1453 28.2087 10.7771 28.931 10.2721C28.9608 10.2514 28.9906 10.2304 29.02 10.2094C29.5473 9.83184 30.0558 9.38113 30.4755 8.81439C30.4928 8.79088 30.5102 8.76697 30.5272 8.74309C30.901 8.23759 31.1947 7.53055 31.2353 6.85768C31.2361 6.8473 31.2368 6.83691 31.2376 6.82651C31.2793 6.06146 31.1663 5.35766 30.8134 4.63098C30.8053 4.61507 30.7971 4.59924 30.7888 4.58349C30.4524 3.90396 29.7585 3.38611 29.1581 3.15041C29.1364 3.1413 29.1146 3.13232 29.0927 3.12349C28.2655 2.79654 27.4476 2.74888 26.6717 2.76685C26.6565 2.76727 26.6412 2.76773 26.6259 2.76822C25.5379 2.80506 24.499 3.04926 23.5078 3.37269C23.5021 3.37456 23.4964 3.37643 23.4907 3.37831C22.2997 3.77142 21.2588 4.46933 20.1488 4.92013C20.1485 4.92025 20.1482 4.92038 20.1479 4.9205C19.7506 5.08223 19.3578 5.25456 18.9682 5.43387C18.2167 5.77976 17.4773 6.15124 16.738 6.52237C17.4773 6.15124 18.2167 5.77976 18.9682 5.43387C19.3578 5.25456 19.7506 5.08223 20.1479 4.9205C20.1482 4.92038 20.1485 4.92025 20.1488 4.92013C21.2666 4.46594 22.52 4.40765 23.6842 4.30738C23.6899 4.30689 23.6955 4.30641 23.7011 4.30594C24.6795 4.22332 25.6533 4.24056 26.5776 4.3361C26.5906 4.33746 26.6036 4.33885 26.6165 4.34026C27.2769 4.41223 27.911 4.55211 28.4237 4.76495C28.4373 4.77061 28.4508 4.77632 28.464 4.78207C28.852 4.95252 29.0618 5.12835 29.2142 5.41439C29.2179 5.42136 29.2216 5.42844 29.2252 5.43563C29.3985 5.77542 29.4917 6.28353 29.4615 6.70202C29.4611 6.70776 29.4607 6.71348 29.4603 6.71917C29.431 7.08654 29.3206 7.3802 29.0834 7.71476C29.0724 7.73024 29.0611 7.74582 29.0498 7.76119C28.7764 8.13167 28.4077 8.46857 27.9895 8.76719C27.966 8.78394 27.9423 8.80065 27.9187 8.81708C27.3517 9.21366 26.7084 9.51933 26.014 9.78451C25.9846 9.79574 25.9549 9.80701 25.9249 9.81823C24.9392 10.1844 23.8972 10.4952 22.8662 10.7194C22.84 10.725 22.814 10.7305 22.7881 10.736C21.9128 10.9209 21.0421 11.0269 20.1451 11.0595C20.1258 11.0603 20.1065 11.061 20.0872 11.0617C19.085 11.1012 18.0778 11.0393 17.0406 10.9496C17.0302 10.9487 17.0197 10.9478 17.0092 10.9469C15.4572 10.8098 13.8909 10.6362 12.3066 10.4963C12.3041 10.4961 12.3016 10.4959 12.2992 10.4957C11.3792 10.4159 10.4321 10.4013 9.49493 10.4124C9.48426 10.4125 9.47361 10.4126 9.46296 10.4127C8.79931 10.4185 8.1296 10.4293 7.45645 10.4818C7.43957 10.4831 7.42269 10.4844 7.40582 10.4858C6.7383 10.5369 6.03546 10.6424 5.37175 10.8313C5.34975 10.8374 5.32768 10.8437 5.30551 10.8501C4.41899 11.1012 3.56015 11.5158 2.8012 12.0362C2.78144 12.0497 2.76166 12.0633 2.74187 12.077C2.3277 12.3651 1.94802 12.681 1.58264 13.0106C1.20767 13.3518 0.848703 13.6983 0.500852 14.095C0.492691 14.1044 0.484644 14.1138 0.476714 14.1231C0.360809 14.2609 0.245959 14.4026 0.140313 14.5957C0.0889608 14.6925 0.0364572 14.8086 0.0116398 14.9569C-0.0164507 15.1045 0.0128942 15.2805 0.031448 15.3569Z" fill="black"/>
<path d="M11.3081 8.42681C11.2879 8.5182 11.3048 8.61389 11.3551 8.69282C11.4054 8.77176 11.485 8.82747 11.5764 8.8477C11.6678 8.86793 11.7635 8.85103 11.8424 8.80072C11.9214 8.7504 11.9771 8.67079 11.9973 8.57939C11.9973 8.57939 11.9973 8.57939 11.9973 8.57939C12.1006 8.11336 12.2578 7.65611 12.4574 7.21775C12.7175 6.64702 13.0496 6.10736 13.4419 5.61769C13.4504 5.607 13.4591 5.59634 13.4677 5.58572C14.0173 4.85006 15.0822 4.34195 15.4061 4.72452C15.5264 4.82621 15.5852 5.02415 15.6256 5.23664C15.7111 5.677 15.5883 6.20181 15.4477 6.69842C15.4338 6.74962 15.4201 6.80106 15.4069 6.85303C15.0769 8.09359 14.6653 9.41512 14.3414 10.7182C14.3298 10.7641 14.3181 10.8106 14.3064 10.8576C13.6177 13.648 12.9465 16.4309 12.5143 19.3375C12.5094 19.3717 12.5047 19.4057 12.5 19.4395C12.2798 21.1329 12.123 22.8777 12.5049 24.7244C12.5117 24.7553 12.5185 24.7858 12.5255 24.8158C12.6564 25.2883 12.8308 25.904 13.5608 26.4041C13.6387 26.4522 13.7161 26.4909 13.7859 26.521C13.8138 26.533 13.8416 26.5444 13.8693 26.5552C14.2672 26.7082 14.7568 26.1076 14.9951 26.0947C15.0034 26.0944 15.0114 26.0947 15.0195 26.0956C15.1826 26.1155 15.3475 26.1116 15.5107 26.0953C15.3475 26.1116 15.1826 26.1155 15.0195 26.0956C15.0114 26.0947 15.0036 26.0931 14.9956 26.0908C14.7152 26.0136 14.6901 25.2726 14.6282 25.1734C14.621 25.1649 14.6142 25.1565 14.6077 25.148C14.5906 25.1261 14.5836 25.1086 14.5815 25.0943C14.6086 25.0342 14.552 24.7303 14.4739 24.3643C14.4688 24.3424 14.4637 24.3199 14.4586 24.2966C14.1606 22.8974 14.2696 21.2836 14.4813 19.7129C14.4856 19.6813 14.49 19.6496 14.4946 19.6177C14.9014 16.8736 15.5658 14.0965 16.2467 11.3424C16.2584 11.2959 16.2698 11.2498 16.2811 11.2043C16.5995 9.89953 16.9145 8.63185 17.2045 7.26018C17.2161 7.20206 17.2268 7.1438 17.2366 7.08525C17.3624 6.32867 17.2882 5.51662 16.9225 4.74149C16.7367 4.35901 16.4198 3.99203 15.9875 3.76085C15.279 3.3746 14.5089 3.66459 14.0651 3.99053C13.5937 4.32677 13.2511 4.73314 12.9192 5.14119C12.9098 5.15289 12.9004 5.16458 12.891 5.17629C12.4618 5.71224 12.0999 6.3003 11.815 6.92517C11.5965 7.40523 11.4232 7.90761 11.3081 8.42681Z" fill="black"/>
<path d="M14.5433 17.7394C14.6615 17.7959 14.7974 17.8031 14.9209 17.7594C15.0445 17.7158 15.1456 17.6248 15.2021 17.5065C15.2586 17.3883 15.2658 17.2525 15.2222 17.1289C15.1785 17.0053 15.0875 16.9042 14.9693 16.8477C14.9693 16.8477 14.9693 16.8477 14.9693 16.8477C14.8732 16.8287 14.8661 16.7007 15.0047 16.981C15.0056 16.9842 15.0064 16.9875 15.0072 16.9907C15.022 17.0754 14.9811 17.0754 15.0588 17.0006C15.5491 16.584 16.5464 16.3303 17.3833 16.1461C17.3815 16.1468 17.3796 16.1475 17.3776 16.1481C17.3245 16.1864 17.0986 16.1684 17.0337 16.1604C16.9564 16.1597 16.9244 16.2081 16.9288 16.2659C16.9288 16.2663 16.9289 16.2667 16.9289 16.2671C16.9661 16.5694 16.928 17.1496 16.9118 17.6332C16.9118 17.6352 16.9117 17.6372 16.9117 17.6392C16.8878 18.3937 16.7519 19.2433 16.6376 20.0935C16.6367 20.1003 16.6358 20.107 16.6348 20.1138C16.4495 21.4842 16.2443 22.8372 16.169 24.3089C16.1684 24.325 16.1678 24.341 16.1672 24.357C16.1716 25.0111 16.3422 25.872 17.1371 26.5281C17.1568 26.5422 17.1763 26.5556 17.1963 26.5689C17.5034 26.7743 17.9104 26.656 18.1625 26.6029C18.2295 26.5909 18.2917 26.5849 18.3511 26.5921C18.3592 26.5931 18.3671 26.5943 18.3749 26.5958C18.5748 26.6344 18.7788 26.643 18.982 26.6413C18.982 26.6413 18.982 26.6413 18.982 26.6413C18.7788 26.643 18.5748 26.6344 18.3749 26.5958C18.3671 26.5943 18.3593 26.5925 18.3514 26.5904C18.2937 26.5749 18.2394 26.5425 18.1911 26.4988C17.9869 26.3225 17.9542 25.9848 17.9294 25.849C17.9267 25.8391 17.9244 25.8294 17.9223 25.8194C17.8844 25.499 18.1511 24.9855 18.1659 24.4283C18.1664 24.4152 18.1669 24.402 18.1674 24.3886C18.231 23.1144 18.4313 21.7413 18.6159 20.3884C18.6168 20.3816 18.6178 20.3749 18.6187 20.3681C18.7314 19.5155 18.8765 18.6645 18.9107 17.7C18.9108 17.6975 18.9109 17.695 18.911 17.6925C18.916 17.0574 18.8684 16.4967 18.5901 15.7181C18.5896 15.7168 18.5891 15.7155 18.5885 15.7142C18.5124 15.5328 18.3749 15.3438 18.1267 15.1548C17.896 14.9551 17.3995 14.8343 17.098 14.9389C17.0876 14.9415 17.0773 14.9442 17.0671 14.9471C16.1398 15.2726 15.2639 15.497 14.3413 16.3063C14.1874 16.4671 13.9439 16.8006 14.0476 17.2266C14.0489 17.2322 14.0504 17.2378 14.0519 17.2433C14.1251 17.4875 14.2774 17.5835 14.3539 17.6373C14.4384 17.6915 14.4977 17.7171 14.5433 17.7394Z" fill="black"/>
<path d="M25.4694 13.5188C25.4928 13.3669 25.4549 13.212 25.364 13.088C25.2731 12.9641 25.1368 12.8814 24.9849 12.858C24.833 12.8346 24.678 12.8725 24.5541 12.9634C24.4302 13.0543 24.3474 13.1907 24.3241 13.3425C24.3241 13.3425 24.3241 13.3425 24.3241 13.3425C24.247 13.8417 24.1646 14.3402 24.0704 14.8286C24.0321 15.0252 23.9832 15.2646 23.9467 15.3871C23.9462 15.3886 23.9453 15.3885 23.9446 15.386C23.963 15.3277 23.9195 15.1608 24.2234 15.0586C24.2693 15.0474 24.324 15.04 24.3857 15.0428C24.4409 15.0507 24.2719 15.0047 24.134 14.9554C23.9857 14.9057 23.8174 14.8558 23.6463 14.8186C23.3015 14.7427 22.9459 14.7164 22.6027 14.7272C22.5696 14.7282 22.536 14.7295 22.502 14.7312C21.3184 14.7087 19.9909 15.6564 19.5576 16.6965C19.5403 16.7295 19.5232 16.7626 19.5117 16.7837C19.4305 16.9418 19.3572 17.1678 19.3813 17.4339C19.4021 17.7 19.5376 17.9534 19.6806 18.1052C19.7677 18.2006 19.856 18.2689 19.9396 18.3227C21.1798 19.0725 22.3906 18.4989 23.1961 18.2158C23.2559 18.1946 23.3133 18.1747 23.3577 18.1611C23.3438 18.1551 23.4228 18.1784 23.1631 18.1707C23.1189 18.1652 23.062 18.1545 22.992 18.1261C22.927 18.1035 22.7685 18.0091 22.6833 17.8748C22.5001 17.5608 22.5745 17.4147 22.5888 17.3177C22.6276 17.1902 22.6507 17.1744 22.6568 17.1604C22.6819 17.1251 22.6346 17.1837 22.5999 17.2167C22.5203 17.2968 22.4219 17.3876 22.3229 17.4777C22.1239 17.6584 21.9124 17.8453 21.7024 18.038C21.2824 18.4312 20.8563 18.8111 20.4617 19.3956C20.4309 19.4432 20.4016 19.4915 20.3735 19.5411C20.1143 20.0931 19.7558 20.667 20.3046 21.6775C20.3676 21.7651 20.4449 21.8493 20.5348 21.9224C21.2148 22.4039 21.7029 22.1858 22.0038 22.1233C22.3217 22.0274 22.5696 21.9066 22.8088 21.7857C23.282 21.5417 23.7023 21.2857 24.1328 21.0607C24.067 21.0905 24.0024 21.1326 23.8085 21.1389C23.641 21.1539 23.3616 21.021 23.2773 20.9108C23.0594 20.6371 23.1187 20.5941 23.0979 20.5548C23.093 20.5196 23.094 20.5161 23.0931 20.5156C23.0921 20.5175 23.0891 20.5432 23.0837 20.5722C23.073 20.6311 23.0546 20.7074 23.0327 20.7843C22.9885 20.9403 22.9307 21.1047 22.8692 21.2698C22.7458 21.6006 22.6073 21.9358 22.4954 22.2797C22.478 22.3343 22.4617 22.3893 22.4466 22.4448C22.2498 23.1659 22.1772 23.8725 22.1259 24.5343C22.1225 24.5802 22.1191 24.6274 22.1161 24.6734C22.0489 25.7392 22.0208 26.7851 22.0923 27.889C22.0952 27.9302 22.0983 27.971 22.1017 28.0115C22.2266 29.1011 22.4337 30.2829 23.5648 31.2943C23.6443 31.3571 23.7303 31.417 23.8258 31.4725L23.9308 31.5289C23.9628 31.5417 23.9947 31.5535 24.0264 31.5646C24.4188 31.6965 24.83 30.9791 25.0613 30.9454C25.0706 30.9442 25.0795 30.9439 25.0886 30.9446C25.254 30.9577 25.42 30.9613 25.5858 30.9606C25.42 30.9613 25.254 30.9577 25.0886 30.9446C25.0795 30.9439 25.0708 30.9422 25.0618 30.9396C24.798 30.8667 24.7105 30.0753 24.639 30.0231C24.6298 30.0178 24.621 30.0126 24.6127 30.0073L24.7177 30.0637C24.7051 30.0507 24.6887 30.0334 24.6707 30.012C24.3346 29.6304 24.1562 28.6973 24.0948 27.8465C24.0922 27.8143 24.0897 27.7816 24.0873 27.7486C24.025 26.8031 24.0485 25.7906 24.1116 24.8073C24.1144 24.7649 24.1174 24.7214 24.1204 24.6793C24.1656 24.0458 24.2097 23.451 24.3274 22.9091C24.3366 22.8661 24.3456 22.823 24.3546 22.7795C24.4329 22.4149 24.4801 22.0405 24.5244 21.6576C24.5464 21.4652 24.5677 21.2729 24.5895 21.067C24.6003 20.9635 24.6114 20.8584 24.6202 20.7357C24.6245 20.6719 24.6287 20.609 24.6281 20.5176C24.6272 20.4723 24.6266 20.4237 24.6152 20.3411C24.5878 20.2582 24.6379 20.166 24.3894 19.8581C24.2931 19.7344 23.9926 19.5917 23.8069 19.6074C23.5915 19.6143 23.5119 19.6621 23.4259 19.702C22.9875 19.9274 22.5471 20.1371 22.1311 20.3018C21.9257 20.3827 21.7209 20.4525 21.5665 20.4844C21.4917 20.5006 21.4279 20.5038 21.4235 20.5002C21.4115 20.4971 21.513 20.4942 21.6248 20.5848C21.6563 20.6103 21.6823 20.6395 21.7001 20.6649C21.7952 20.8419 21.7082 20.7121 21.7219 20.636C21.7213 20.5446 21.7458 20.4267 21.8022 20.3082C21.8127 20.2859 21.8241 20.2635 21.8366 20.2406C22.0313 19.894 22.3888 19.483 22.7481 19.1015C22.9306 18.9079 23.1214 18.7157 23.3187 18.5175C23.4184 18.4168 23.5173 18.3185 23.6303 18.1972C23.6879 18.1321 23.7392 18.0864 23.8408 17.9379C23.8633 17.8992 23.908 17.8462 23.9541 17.6908C23.9734 17.573 24.0491 17.4137 23.8564 17.0837C23.7669 16.9426 23.599 16.8418 23.5273 16.8167C23.4508 16.7856 23.3862 16.7731 23.3329 16.7665C23.0039 16.7542 23.0214 16.7973 22.9333 16.8134C22.8534 16.8391 22.7886 16.8625 22.7248 16.885C21.9132 17.2013 21.1736 17.1596 20.8611 16.903C20.8762 16.9123 20.9009 16.9294 20.933 16.9645C20.9854 17.018 21.0576 17.1452 21.0667 17.2771C21.0781 17.4091 21.0408 17.5005 21.0197 17.5391C21.0401 17.4964 21.0564 17.46 21.0707 17.4275C21.3836 16.6591 21.8198 16.2407 22.6139 16.1365C22.6377 16.1336 22.661 16.131 22.684 16.1288C22.9225 16.1054 23.1503 16.1128 23.3766 16.1531C23.4904 16.1732 23.6026 16.2013 23.7318 16.2391C23.8713 16.2727 23.9768 16.3389 24.3227 16.368C24.401 16.3715 24.4725 16.3623 24.5344 16.3471C24.9503 16.2152 24.9822 15.9454 25.0387 15.7822C25.0419 15.7687 25.0452 15.7563 25.0491 15.7444C25.1332 15.4563 25.1622 15.2739 25.208 15.0493C25.307 14.536 25.3906 14.0289 25.4694 13.5188Z" fill="black"/>
<path d="M26.2423 15.4757C26.309 15.5799 26.4144 15.6534 26.5353 15.6799C26.6562 15.7064 26.7827 15.6838 26.8869 15.6171C26.9912 15.5504 27.0646 15.445 27.0911 15.3241C27.1177 15.2032 27.0951 15.0767 27.0283 14.9725C27.0283 14.9725 27.0283 14.9725 27.0283 14.9725C26.9343 14.8408 26.9422 14.7751 26.9426 14.8646C26.9427 14.8644 26.9427 14.8642 26.9427 14.8639C26.9465 14.8396 26.9519 14.8175 26.9588 14.7969C27.0235 14.5797 27.3349 14.4653 27.8422 14.384C27.8379 14.3853 27.8333 14.3867 27.8283 14.3879C27.7505 14.4441 27.4189 14.3486 27.3618 14.2871C27.2788 14.2366 27.2497 14.2507 27.2452 14.2709C27.2452 14.2715 27.2453 14.2721 27.2453 14.2728C27.2791 14.8071 27.1116 15.6973 27.0209 16.4898C27.0203 16.4942 27.0198 16.4987 27.0192 16.5031C26.9243 17.2312 26.7555 18.0184 26.6574 18.8155C26.6564 18.8231 26.6555 18.8306 26.6546 18.8382C26.5453 19.7349 26.4281 20.6138 26.3541 21.5678C26.3533 21.5798 26.3524 21.5916 26.3517 21.6034C26.3406 21.7817 26.3478 21.9632 26.3842 22.1942C26.4041 22.3118 26.4275 22.4428 26.4921 22.625C26.5485 22.8009 26.7109 23.0634 26.8584 23.1832C26.8774 23.2 26.8963 23.216 26.9151 23.2309C27.1297 23.3986 27.4199 23.3007 27.6262 23.2176C27.7423 23.1722 27.8383 23.1318 27.9187 23.1438C27.9253 23.1448 27.9318 23.1461 27.9381 23.1477C28.0939 23.1925 28.2892 23.191 28.4175 23.176C28.488 23.1697 28.553 23.1357 28.5984 23.0815C28.6438 23.0272 28.6658 22.9572 28.6595 22.8867C28.6532 22.8163 28.6192 22.7512 28.565 22.7058C28.5107 22.6605 28.4407 22.6385 28.3702 22.6448C28.3702 22.6448 28.3702 22.6448 28.3702 22.6448C28.2395 22.6575 28.1692 22.6565 28.0722 22.6316C28.0685 22.6306 28.0648 22.6292 28.0611 22.6273C28.0151 22.6043 27.9876 22.5187 27.9839 22.4196C27.9728 22.2384 28.0547 22.0161 28.0973 22.0175C28.1006 22.0174 28.1045 22.0179 28.1088 22.0191C28.1446 22.0224 28.2288 22.1382 28.2455 22.1582C28.2689 22.1841 28.2778 22.1543 28.2903 22.1108C28.3137 22.02 28.3377 21.879 28.3473 21.7361C28.3479 21.7265 28.3486 21.7167 28.3492 21.7068C28.4134 20.872 28.531 19.9695 28.6393 19.0847C28.6402 19.0772 28.6412 19.0697 28.6421 19.0621C28.7358 18.2796 28.8075 17.492 28.8341 16.6332C28.8343 16.6279 28.8344 16.6226 28.8345 16.6174C28.8304 15.7838 28.9153 15.0294 28.6674 13.9476C28.667 13.946 28.6665 13.9444 28.666 13.9428C28.6313 13.8351 28.5634 13.7206 28.4059 13.5608C28.3263 13.4833 28.2044 13.3833 28.0377 13.3299C27.8709 13.2748 27.7043 13.2922 27.5983 13.3183C27.5863 13.3211 27.5746 13.3241 27.5632 13.3274C27.1249 13.4625 26.3035 13.7174 26.0642 14.5244C26.045 14.5896 26.0307 14.655 26.0204 14.7208C26.0203 14.7214 26.0202 14.7221 26.0202 14.7227C25.9721 15.1312 26.1731 15.3493 26.2423 15.4757Z" fill="black"/>
<path d="M27.4732 16.5374C27.3941 16.6894 27.3787 16.8666 27.4303 17.03C27.4818 17.1934 27.5962 17.3296 27.7482 17.4087C27.9002 17.4878 28.0774 17.5033 28.2408 17.4517C28.4042 17.4001 28.5405 17.2858 28.6195 17.1337C28.6195 17.1337 28.6195 17.1337 28.6195 17.1337C28.7295 16.9224 28.8443 16.7153 28.965 16.5145C29.5 15.6229 30.1581 14.8582 31.0086 14.5764C31.0236 14.5712 31.0394 14.5688 31.056 14.5685C31.0127 14.6115 30.8005 14.6652 30.6507 14.6111C30.5046 14.5653 30.4485 14.5233 30.4356 14.5093C30.4321 14.5044 30.4303 14.5024 30.4292 14.5022C30.4193 14.4822 30.436 14.6753 30.4162 14.8721C30.4004 15.0746 30.3731 15.3013 30.3453 15.53C30.2888 15.9893 30.2298 16.4632 30.1907 16.9386C30.1897 16.951 30.1887 16.9634 30.1876 16.9759C30.05 18.6717 29.9455 20.3612 29.8558 22.0651C29.8558 22.0658 29.8557 22.0665 29.8557 22.0673C29.8405 22.6505 29.8622 23.0949 30.0511 23.8998C30.0744 23.9792 30.1106 24.0771 30.1531 24.158C30.1579 24.1672 30.1628 24.1765 30.1679 24.1859C30.2531 24.3643 30.5574 24.5404 30.7905 24.4936C31.0244 24.457 31.1598 24.3032 31.2681 24.2021C31.2681 24.2021 31.2681 24.2021 31.2681 24.2021C31.18 24.0831 31.1164 23.894 31.1744 23.7654C31.2301 23.6287 31.4016 23.6427 31.41 23.6397C31.4108 23.6395 31.4116 23.6391 31.4123 23.6385C31.419 23.6333 31.4294 23.6413 31.435 23.6293C31.4928 23.3443 31.6446 22.6913 31.6798 22.1788C31.6798 22.1781 31.6799 22.1774 31.6799 22.1766C31.8038 20.5029 31.9541 18.8107 32.0909 17.1333C32.092 17.121 32.093 17.1087 32.094 17.0964C32.1328 16.6245 32.1585 16.1532 32.1733 15.6657C32.1578 15.1498 32.293 14.7688 31.9972 13.8667C31.9803 13.8274 31.9611 13.7868 31.9384 13.7443C31.8619 13.6062 31.7221 13.4448 31.4566 13.3235C31.1882 13.1919 30.8221 13.2375 30.6466 13.3267C30.6265 13.3385 30.6058 13.3484 30.5842 13.356C29.2973 13.7931 28.4519 14.8617 27.8578 15.8484C27.721 16.0759 27.5937 16.3059 27.4732 16.5374Z" fill="black"/>
<path d="M30.1527 16.7125C30.1068 16.8099 30.1015 16.9215 30.1379 17.0228C30.1744 17.1241 30.2495 17.2068 30.3469 17.2527C30.4443 17.2986 30.5559 17.3039 30.6572 17.2675C30.7585 17.2311 30.8412 17.1559 30.8871 17.0585C30.8871 17.0585 30.8871 17.0585 30.8871 17.0585C31.0253 16.7651 31.1671 16.474 31.3142 16.1882C31.5972 15.6422 31.8979 15.0979 32.2529 14.6476C32.2537 14.6466 32.2545 14.6456 32.2552 14.6446C32.6353 14.1698 33.1926 13.8411 33.777 13.5467C33.7885 13.5409 33.7999 13.5352 33.8114 13.5295C34.1744 13.3502 34.6424 13.2825 34.9012 13.3478C34.913 13.3518 34.9223 13.3594 34.9247 13.3688C34.8257 13.3874 34.6385 13.3356 34.5458 13.2644C34.4491 13.1957 34.4172 13.1523 34.4023 13.1376C34.394 13.1282 34.39 13.1278 34.3868 13.1323C34.3557 13.1446 34.3103 13.4715 34.2783 13.7284C34.2758 13.7524 34.2732 13.7758 34.2704 13.8002C34.1672 14.6687 33.9809 15.5988 33.8284 16.5176C33.8254 16.5354 33.8224 16.5534 33.8193 16.5714C33.5438 18.2014 33.2392 19.8333 32.9779 21.5039C32.9772 21.5087 32.9764 21.5134 32.9757 21.5181C32.8834 22.2807 32.7375 23.0248 32.9699 24.0705C32.9704 24.0726 32.971 24.0747 32.9715 24.0768C33.0547 24.3946 33.3242 24.6358 33.5585 24.8465C33.6829 24.9591 33.7974 25.0662 33.8904 25.1975C33.8924 25.2003 33.8944 25.2031 33.8964 25.2059C34.0215 25.404 34.2961 25.6385 34.4794 25.7286C34.5866 25.7904 34.714 25.8072 34.8335 25.7751C34.953 25.743 35.0549 25.6648 35.1168 25.5576C35.1786 25.4504 35.1954 25.323 35.1633 25.2035C35.1312 25.0839 35.053 24.982 34.9458 24.9202C34.9458 24.9202 34.9458 24.9202 34.9458 24.9202C34.7827 24.8273 34.7549 24.7972 34.6607 24.6703C34.6596 24.6686 34.6584 24.667 34.6573 24.6653C34.6031 24.5838 34.5905 24.4639 34.6024 24.3435C34.6234 24.1102 34.7319 23.8821 34.7153 23.7176C34.7152 23.7164 34.7151 23.7153 34.7149 23.7142C34.6689 23.2827 34.8487 22.5287 34.9527 21.8206C34.9534 21.8161 34.9541 21.8116 34.9548 21.807C35.2073 20.192 35.5126 18.5529 35.7914 16.9044C35.7945 16.8861 35.7976 16.8678 35.8006 16.8497C35.9561 15.9081 36.0863 14.9734 36.1574 13.9634C36.1592 13.9346 36.1609 13.9068 36.1626 13.878C36.1694 13.5347 36.1878 13.2471 36.0099 12.67C35.9907 12.6183 35.9682 12.5625 35.9376 12.4992C35.8849 12.3942 35.8044 12.2631 35.6367 12.1261C35.4739 11.986 35.1905 11.8933 34.9933 11.9085C34.9405 11.9153 34.8946 11.9231 34.8506 11.9291C34.1657 12.0523 33.7401 12.3607 33.2931 12.6541C33.2818 12.6619 33.2705 12.6697 33.2592 12.6775C32.6768 13.0782 32.0965 13.5443 31.6215 14.1374C31.6205 14.1386 31.6196 14.1397 31.6186 14.1409C31.1949 14.681 30.889 15.2474 30.5924 15.8167C30.4397 16.1135 30.2941 16.4125 30.1527 16.7125Z" fill="black"/>
<path d="M42.3035 11.7298C42.3195 11.5542 42.2651 11.3795 42.1523 11.244C42.0394 11.1086 41.8774 11.0235 41.7019 11.0075C41.5263 10.9915 41.3516 11.0459 41.2161 11.1587C41.0806 11.2715 40.9956 11.4335 40.9796 11.6091C40.9796 11.6091 40.9796 11.6091 40.9796 11.6091C40.9439 11.9885 40.9041 12.4176 40.8449 12.7023C40.8445 12.7043 40.844 12.7061 40.8436 12.7079C40.8437 12.7077 40.8437 12.7075 40.8437 12.7074C40.8667 12.5614 41.038 12.4116 41.0782 12.4034C41.1265 12.3814 41.1077 12.3914 41.076 12.3929C41.0081 12.3995 40.8849 12.4002 40.7608 12.3976C40.5074 12.3923 40.2189 12.3817 39.9271 12.391C39.34 12.4068 38.7098 12.5076 38.1232 12.7545C38.1075 12.7612 38.0919 12.7681 38.0764 12.775C37.3389 13.0735 36.7758 13.8642 36.5955 14.4512C36.595 14.4526 36.5945 14.4539 36.594 14.4553C36.4378 14.8626 36.5525 15.3675 36.7264 15.6596C36.7276 15.6618 36.7289 15.664 36.7301 15.6662C37.5328 16.8451 38.5416 16.5893 39.067 16.7352C39.0741 16.7367 39.0801 16.738 39.0828 16.7387C39.0747 16.7358 39.0618 16.7372 38.9981 16.7043C38.9534 16.6805 38.7891 16.5804 38.7232 16.3496C38.6657 16.1249 38.7333 15.9968 38.7507 15.953C38.7749 15.9033 38.7835 15.8962 38.7844 15.893C38.7814 15.8957 38.6958 15.9712 38.6136 16.0291C38.4411 16.1539 38.2318 16.2852 38.0193 16.4204C37.589 16.7155 37.1486 16.9028 36.6407 17.5473C36.5226 17.7164 36.4374 17.9477 36.4204 18.1629C36.4018 18.3711 36.4281 18.5551 36.4597 18.6946C36.5107 18.9156 36.6597 19.1614 36.8298 19.3055C36.9695 19.428 37.1104 19.4929 37.2308 19.5349C37.3606 19.5789 37.4904 19.6048 37.6128 19.628C39.1234 19.7592 39.8048 19.0899 40.6085 18.9148C40.5285 18.9416 40.3354 18.9474 40.1929 18.87C40.0015 18.7646 39.9582 18.6896 39.9098 18.6766C39.8656 18.6596 39.8306 18.6732 39.8051 18.6914C39.7862 18.6977 39.773 18.7045 39.7716 18.7151C39.7654 18.8192 39.72 19.1294 39.6835 19.4013C39.6794 19.433 39.6754 19.4657 39.6715 19.4987C39.5872 20.1963 39.4737 20.9435 39.3999 21.7065C39.3971 21.736 39.3943 21.7655 39.3916 21.7949C39.3258 22.5372 39.2829 23.2781 39.3478 24.0918L39.3596 24.1808C39.3641 24.2065 39.3688 24.232 39.3737 24.2573C39.4867 24.8507 39.8319 25.4432 40.3347 25.8958C40.5517 26.0908 40.7979 26.2571 41.059 26.3809L41.0912 26.4035C41.1009 26.4072 41.1106 26.4108 41.1203 26.4144C41.3377 26.5008 41.6686 26.3116 41.8582 26.1836C41.8582 26.1836 41.8582 26.1836 41.8582 26.1836C41.7151 25.9761 41.7214 25.6654 41.65 25.5663C41.6463 25.5615 41.6425 25.5566 41.6387 25.5516L41.6709 25.5741C41.5777 25.4294 41.5204 25.2644 41.4838 25.0952C41.3998 24.7011 41.4179 24.2946 41.3384 23.8836C41.3351 23.866 41.3318 23.8482 41.3286 23.8302L41.3404 23.9192C41.291 23.3226 41.3223 22.6445 41.383 21.9795C41.3855 21.9528 41.388 21.9262 41.3906 21.8995C41.458 21.1997 41.5654 20.4926 41.6579 19.7318C41.6622 19.6948 41.6661 19.6574 41.6697 19.6203C41.6953 19.2818 41.7208 18.9773 41.6458 18.4699C41.6345 18.4048 41.608 18.3365 41.5715 18.2689C41.5202 18.1803 41.4529 18.088 41.3609 17.9719C41.2646 17.8611 41.156 17.6897 40.8653 17.5336C40.6503 17.4188 40.3708 17.4224 40.213 17.4713C39.2774 17.7407 38.2915 18.1078 37.9618 17.9782C37.9422 17.9713 37.9327 17.9539 37.9294 17.9396C37.9336 17.9306 37.9626 17.9314 38.0069 17.9698C38.0609 18.0129 38.1229 18.1246 38.131 18.1977C38.1195 18.1929 38.1201 18.2254 38.1123 18.2827C38.1057 18.342 38.0729 18.421 38.0406 18.4594C38.1108 18.2914 38.5236 17.9196 38.8871 17.6283C39.0782 17.4728 39.2762 17.3206 39.4938 17.1373C39.6046 17.0404 39.7144 16.9554 39.8673 16.7697C39.9101 16.7144 39.9523 16.6599 40.0042 16.5531C40.0479 16.4548 40.1336 16.2616 40.0594 15.9776C39.9778 15.6865 39.7589 15.5401 39.6643 15.4897C39.5411 15.4252 39.4788 15.4114 39.4022 15.3917C39.3822 15.3869 39.3621 15.3826 39.3446 15.379C38.9634 15.3114 38.7283 15.2453 38.5221 15.1296C38.3165 15.0203 38.266 14.8748 38.3232 14.8909C38.3233 14.8909 38.3235 14.8908 38.3236 14.8908C38.3446 14.8744 38.4183 15.0089 38.3827 15.0902C38.3826 15.0905 38.3826 15.0907 38.3825 15.091C38.5343 14.6697 38.6106 14.4959 38.8534 14.3289C38.8587 14.3254 38.8641 14.322 38.8696 14.3186C39.2288 14.1118 39.6261 13.9566 40.0795 13.8679C40.3059 13.8228 40.5433 13.7955 40.8115 13.7723C40.9475 13.7594 41.0879 13.7512 41.278 13.7197C41.376 13.701 41.4858 13.6841 41.6527 13.6062C41.8112 13.5441 42.0852 13.2948 42.1363 13.0182C42.1364 13.0179 42.1365 13.0175 42.1366 13.0172C42.1378 13.0121 42.139 13.0071 42.1401 13.002C42.2401 12.5071 42.2622 12.1412 42.3035 11.7298Z" fill="black"/>
<path d="M18.0921 34.8949C18.0753 35.0059 18.1033 35.1191 18.17 35.2095C18.2367 35.2999 18.3366 35.3601 18.4476 35.3769C18.5587 35.3937 18.6719 35.3656 18.7623 35.299C18.8527 35.2323 18.9129 35.1324 18.9296 35.0214C18.9296 35.0214 18.9296 35.0214 18.9296 35.0214C18.998 34.4885 19.4509 33.9915 19.9479 33.5371C19.9569 33.5289 19.966 33.5207 19.9753 33.5124C20.0496 33.4458 20.1272 33.3804 20.2068 33.3163C20.9552 32.7214 21.8144 32.2229 22.648 31.7025C22.6629 31.6932 22.6778 31.6839 22.6928 31.6746C24.0701 30.8174 25.52 30.0875 26.9826 29.3591C26.9972 29.3518 27.0119 29.3445 27.0266 29.3372C29.2699 28.2238 31.567 27.2035 33.8938 26.2707C33.8992 26.2685 33.9046 26.2664 33.9099 26.2642C36.2987 25.3124 38.7306 24.4497 41.1882 23.7141C41.1999 23.7106 41.2116 23.7071 41.2232 23.7036C42.7362 23.2549 44.2611 22.8642 45.8031 22.5834C45.8302 22.5784 45.857 22.5736 45.8834 22.5688C46.6798 22.4292 47.6038 22.2813 48.2004 22.3451C48.2183 22.348 48.2318 22.3514 48.2318 22.3515C48.1868 22.338 48.1291 22.3153 48.0645 22.2698C47.9887 22.2175 47.9087 22.1273 47.8645 22.0262C47.7742 21.806 47.823 21.6823 47.8338 21.63C47.8713 21.5181 47.8815 21.5258 47.8835 21.5182C47.8852 21.5168 47.8589 21.5487 47.8295 21.5783C47.7689 21.6403 47.6871 21.7135 47.6036 21.7841C47.4351 21.9263 47.2487 22.0694 47.0607 22.208C46.6821 22.4865 46.2867 22.7545 45.885 23.0126C45.8754 23.0188 45.8658 23.025 45.8563 23.0311C45.3692 23.3547 44.8207 23.8538 44.6764 24.627C44.6692 24.6651 44.6636 24.7041 44.6601 24.744C44.6435 24.9165 44.6773 25.1033 44.7442 25.2579C44.7647 25.307 44.7887 25.3538 44.8165 25.3992C45.0493 25.7609 45.375 25.8506 45.6053 25.9063C45.847 25.9578 46.0616 25.965 46.2697 25.9648C46.6832 25.9612 47.0684 25.917 47.4471 25.8804C47.4831 25.8768 47.5201 25.8731 47.556 25.8693C48.4002 25.7747 49.2056 25.6301 50.0105 25.558C50.0349 25.5558 50.0594 25.5537 50.0838 25.5517C50.8341 25.4902 51.5893 25.5823 52.3451 25.6253C52.8633 25.6547 53.3982 25.5441 53.9383 25.4673C54.3207 25.4129 54.7036 25.3752 55.0772 25.4155C55.0824 25.4161 55.0876 25.4166 55.0928 25.4172C55.5374 25.4677 55.9811 25.5227 56.4232 25.5915C55.9811 25.5227 55.5374 25.4677 55.0928 25.4172C55.0876 25.4166 55.0824 25.416 55.0772 25.4154C54.704 25.3708 54.34 25.2483 53.9747 25.1162C53.4601 24.9299 52.9386 24.7242 52.398 24.6935C51.6096 24.6487 50.8138 24.7283 50.0217 24.7934C49.9957 24.7956 49.9698 24.7977 49.9438 24.8C49.1068 24.8734 48.283 24.9865 47.4848 25.0429C47.4515 25.0451 47.4175 25.047 47.3849 25.0486C47.0133 25.0671 46.6449 25.0746 46.3061 25.0433C45.9822 25.0351 45.6118 24.8542 45.7109 24.8778C45.714 24.8808 45.7173 24.8842 45.7203 24.8872C45.7228 24.874 45.7337 24.8773 45.7388 24.8715C45.7401 24.87 45.7416 24.8681 45.7435 24.8655C45.8286 24.584 46.1542 24.3318 46.5373 24.0898C46.5445 24.0853 46.5517 24.0807 46.5591 24.0762C46.9833 23.8102 47.4003 23.5348 47.8119 23.2377C48.0172 23.089 48.222 22.9349 48.427 22.7639C48.5301 22.6774 48.6334 22.5878 48.7438 22.4763C48.8005 22.4177 48.8556 22.3615 48.9289 22.2604C48.9676 22.2 49.009 22.1595 49.0653 21.9869C49.0841 21.9069 49.1375 21.75 49.0345 21.5015C48.9842 21.3867 48.8944 21.2849 48.8053 21.2232C48.7293 21.1696 48.6579 21.1405 48.5964 21.1221C48.525 21.1011 48.4662 21.0895 48.4104 21.0801C47.3059 20.9771 46.5364 21.1723 45.6565 21.3107C45.6292 21.3156 45.6015 21.3206 45.5735 21.3257C43.9754 21.6168 42.4035 22.0121 40.8573 22.4705C40.8454 22.474 40.8335 22.4776 40.8215 22.4811C38.3137 23.232 35.8584 24.1074 33.4344 25.0775C33.429 25.0797 33.4235 25.0819 33.4181 25.0841C31.0583 26.0347 28.7412 27.0759 26.4671 28.2227C26.4522 28.2302 26.4374 28.2378 26.4225 28.2453C24.9415 28.9968 23.4966 29.8463 22.1181 30.7947C22.1031 30.805 22.0882 30.8153 22.0733 30.8256C21.2509 31.3971 20.4553 32.0009 19.6647 32.6603C19.5797 32.7322 19.4948 32.8056 19.4099 32.8816C19.3993 32.8911 19.3888 32.9006 19.3784 32.91C18.8521 33.404 18.2329 33.9933 18.0921 34.8949Z" fill="black"/>
</svg>
