<svg width="24" height="24" viewBox="0 0 24 24" fill="none" xmlns="http://www.w3.org/2000/svg">
<path d="M21 12C21 16.9706 16.9706 21 12 21C7.02944 21 3 16.9706 3 12C3 7.02944 7.02944 3 12 3C16.9706 3 21 7.02944 21 12ZM5.7 12C5.7 15.4794 8.52061 18.3 12 18.3C15.4794 18.3 18.3 15.4794 18.3 12C18.3 8.52061 15.4794 5.7 12 5.7C8.52061 5.7 5.7 8.52061 5.7 12Z" fill="white"/>
<path d="M12 5C10.1435 5 8.36301 5.7375 7.05025 7.05025C5.7375 8.36301 5 10.1435 5 12C5 13.8565 5.7375 15.637 7.05025 16.9497C8.36301 18.2625 10.1435 19 12 19L12 12V5Z" fill="white"/>
</svg>
