<svg width="91" height="45" viewBox="0 0 91 45" fill="none" xmlns="http://www.w3.org/2000/svg">
<path d="M13.4375 2.37729C13.5376 1.85638 13.4266 1.31706 13.129 0.877963C12.8314 0.438869 12.3716 0.135973 11.8507 0.0359095C11.3298 -0.0641541 10.7905 0.0468107 10.3514 0.344393C9.91229 0.641976 9.60939 1.1018 9.50933 1.62271C9.50933 1.62271 9.50933 1.62271 9.50933 1.62271C9.37175 2.33889 9.23403 3.05584 9.09698 3.7737C8.28744 8.0397 7.47527 12.3277 6.94007 16.7286C6.94001 16.7291 6.93995 16.7296 6.93989 16.7301C6.52493 20.2876 6.28369 23.8372 6.471 27.5244C6.47106 27.5254 6.47112 27.5265 6.47118 27.5275C6.51091 28.1752 6.56629 28.8281 6.70356 29.5613C6.8556 30.2556 7.02921 31.276 7.97879 32.232C7.98029 32.2334 7.9818 32.2349 7.98331 32.2364C8.45153 32.7481 9.5248 33.1921 10.3162 33.0709C11.1084 32.9808 11.5869 32.6764 11.9936 32.4244C11.9949 32.4235 11.9962 32.4226 11.9976 32.4218C13.549 31.3368 14.3925 30.084 15.2603 28.7906C15.2606 28.7901 15.261 28.7895 15.2613 28.789C16.1666 27.376 16.6187 25.8005 17.3676 24.4365C17.3677 24.4364 17.3678 24.4362 17.3678 24.4361C17.551 24.101 17.7262 23.7627 17.8931 23.4196C18.2131 22.7645 18.4963 22.0917 18.7742 21.4177C18.4963 22.0917 18.2131 22.7645 17.8931 23.4196C17.7262 23.7627 17.551 24.101 17.3678 24.4361C17.3678 24.4362 17.3677 24.4364 17.3676 24.4365C16.6153 25.8118 15.3388 26.8692 14.1461 27.778C14.1457 27.7783 14.1452 27.7787 14.1447 27.779C13.0544 28.605 11.703 29.329 10.6561 29.5352C10.6553 29.5354 10.6545 29.5355 10.6538 29.5356C10.4221 29.5772 10.2174 29.512 10.301 29.4282C10.3828 29.3242 10.7668 29.4442 10.7439 29.4511C10.7439 29.4511 10.7439 29.4511 10.7439 29.4511C10.759 29.4544 10.7794 29.5009 10.7359 29.3825C10.6994 29.2753 10.652 29.0773 10.6159 28.8536C10.5417 28.4005 10.4972 27.851 10.4643 27.2933C10.4643 27.2924 10.4642 27.2915 10.4642 27.2906C10.2947 24.0122 10.5151 20.5738 10.9115 17.2054C10.9116 17.2049 10.9117 17.2045 10.9117 17.204C11.4216 13.0036 12.2198 8.76797 13.026 4.5238C13.1625 3.80894 13.2999 3.09347 13.4375 2.37729Z" fill="black"/>
<path d="M22.8788 3.42908C22.7244 3.84214 22.7403 4.29964 22.9232 4.70091C23.1061 5.10219 23.4409 5.41438 23.854 5.56881C24.267 5.72324 24.7245 5.70725 25.1258 5.52437C25.5271 5.34148 25.8393 5.00668 25.9937 4.59362C25.9937 4.59362 25.9937 4.59362 25.9937 4.59362C26.2049 4.02051 26.4204 3.48159 26.6334 2.76809C26.6622 2.66658 26.691 2.56195 26.7212 2.42106C26.7361 2.35008 26.7517 2.27098 26.7657 2.15902C26.7722 2.0291 26.8183 1.94067 26.7436 1.49787C26.743 1.49505 26.7424 1.49221 26.7418 1.48936C26.7083 1.34806 26.6761 1.20272 26.5302 0.951146C26.4084 0.732546 26.0883 0.385011 25.6832 0.237543C24.8347 -0.0318294 24.5089 0.23106 24.3159 0.290377C23.9669 0.465555 23.8971 0.557004 23.7953 0.637259C23.6241 0.788603 23.5343 0.885903 23.4427 0.979722C23.2679 1.16207 23.1285 1.31287 22.9933 1.46221C22.7254 1.75995 22.4874 2.04592 22.3056 2.36005C22.2903 2.38638 22.2754 2.41314 22.2608 2.44035C20.9169 5.09515 20.0222 7.50483 19.0064 10.027C19.0002 10.0427 18.994 10.0584 18.9878 10.0741C16.8075 15.6348 14.6483 21.1908 12.5286 26.7855C12.5268 26.7902 12.5251 26.7949 12.5233 26.7996C12.057 28.0604 12.3888 29.6035 12.2568 30.993C12.2415 31.1573 12.2204 31.3193 12.1923 31.484C12.1774 31.5695 12.162 31.6506 12.1437 31.744C12.1339 31.7938 12.1248 31.8389 12.1139 31.9037C12.1091 31.9338 12.1031 31.9692 12.098 32.0245C12.1076 32.092 12.0406 32.0928 12.1655 32.441C12.2132 32.548 12.3343 32.7067 12.5163 32.786C12.9057 32.9353 13.0998 32.7789 13.1723 32.7484C13.2573 32.6973 13.2882 32.6658 13.3188 32.6383C13.374 32.5855 13.3987 32.5537 13.423 32.5236C13.4677 32.4667 13.4955 32.4246 13.522 32.3842C13.5735 32.3046 13.614 32.2352 13.6531 32.167C13.7307 32.0313 13.7999 31.9028 13.8683 31.7768C13.9555 31.6158 13.9752 31.4268 13.923 31.2514C13.8709 31.0759 13.7512 30.9283 13.5902 30.8411C13.4293 30.7539 13.2403 30.7342 13.0648 30.7864C12.8893 30.8385 12.7418 30.9582 12.6546 31.1192C12.6546 31.1192 12.6546 31.1192 12.6546 31.1192C12.5865 31.2448 12.5198 31.3683 12.4552 31.4811C12.4234 31.5368 12.391 31.5914 12.3647 31.6317C12.3522 31.6512 12.3394 31.6687 12.3402 31.6675C12.3419 31.6659 12.3436 31.6612 12.3729 31.633C12.3902 31.6178 12.4078 31.5977 12.477 31.5559C12.5347 31.534 12.71 31.3852 13.0823 31.5269C13.2555 31.6022 13.3704 31.754 13.4135 31.8513C13.5239 32.1653 13.4611 32.1217 13.4734 32.1541C13.4721 32.1699 13.4728 32.1654 13.4746 32.1601C13.4786 32.1465 13.4866 32.121 13.497 32.0918C13.5174 32.0347 13.5443 31.9714 13.5756 31.9048C13.6372 31.7752 13.713 31.6421 13.797 31.511C14.5236 30.3858 15.7937 29.4499 16.266 28.2109C16.2678 28.2062 16.2696 28.2016 16.2713 28.197C18.3756 22.6427 20.5386 17.0768 22.7106 11.5373C22.7168 11.5216 22.7229 11.506 22.7291 11.4904C23.7139 9.02771 24.6399 6.38451 25.6788 4.23142C25.6896 4.21029 25.6999 4.18925 25.7098 4.16827C25.8284 3.91749 25.907 3.64757 25.9873 3.40831C26.0257 3.29119 26.0693 3.17681 26.0937 3.11029C26.1024 3.07987 26.1182 3.0542 26.0628 3.09809C26.0204 3.1243 26.0129 3.16318 25.7351 3.30385C25.579 3.34616 25.2939 3.59595 24.4836 3.34063C24.0972 3.2001 23.7927 2.86801 23.6804 2.66564C23.5452 2.43235 23.5184 2.30382 23.4897 2.18412C23.4892 2.18173 23.4887 2.17935 23.4882 2.17698C23.4284 1.81223 23.4674 1.80554 23.4647 1.75601C23.4689 1.72295 23.4698 1.7237 23.4681 1.73117C23.4645 1.74888 23.4521 1.79817 23.4366 1.85176C23.3075 2.29105 23.0852 2.87458 22.8788 3.42908Z" fill="black"/>
<path d="M28.2104 12.7273C28.2955 12.2481 28.1868 11.7547 27.9082 11.3556C27.6295 10.9565 27.2037 10.6844 26.7245 10.5993C26.2452 10.5141 25.7518 10.6228 25.3527 10.9015C24.9536 11.1801 24.6816 11.6059 24.5964 12.0852C24.5964 12.0852 24.5964 12.0852 24.5964 12.0852C24.5457 12.3705 24.4898 12.658 24.43 12.9467C23.8887 15.517 23.1022 18.1298 22.2775 20.7215C22.2769 20.7235 22.2762 20.7255 22.2756 20.7275L22.2679 20.7521C21.4715 23.5249 20.8108 26.1139 20.6151 29.4155C20.6152 29.4195 20.6152 29.4236 20.6153 29.4277L20.6303 29.6894C20.6345 29.7122 20.6393 29.735 20.6447 29.7577C20.7146 30.0607 20.9405 30.5145 21.3751 30.8087C21.8127 31.1002 22.1841 31.073 22.3407 31.0574C22.5215 31.036 22.7253 30.9245 22.8931 30.7895C23.0617 30.6521 23.1806 30.5025 23.2377 30.3312C23.2948 30.1599 23.2894 29.9689 23.237 29.7578C23.1837 29.5491 23.0877 29.3376 22.9558 29.2121C22.9558 29.2121 22.9558 29.2121 22.9558 29.2121C22.8203 29.0996 22.8871 28.9692 23.1013 29.0404C23.3106 29.1173 23.4239 29.2649 23.4409 29.2644C23.4425 29.2652 23.4436 29.2657 23.4444 29.2658L23.4594 29.5275C23.4597 29.5255 23.46 29.5235 23.4602 29.5215C23.8462 27.2229 25.0052 24.4386 25.7792 21.8216L25.7716 21.8462C25.7722 21.8441 25.7729 21.8421 25.7735 21.84C26.6175 19.1829 27.4283 16.5127 28.0241 13.6918C28.0902 13.3732 28.1527 13.0521 28.2104 12.7273Z" fill="black"/>
<path d="M38.4452 17.1219C38.2092 17.0896 37.9701 17.1523 37.7804 17.2963C37.5906 17.4402 37.4659 17.6537 37.4335 17.8897C37.4012 18.1256 37.4639 18.3648 37.6079 18.5545C37.7518 18.7442 37.9653 18.869 38.2013 18.9014C38.2013 18.9014 38.2013 18.9014 38.2013 18.9014C39.6348 19.123 40.9469 18.2606 41.6775 17.3646C41.6778 17.3643 41.678 17.3639 41.6783 17.3636C41.98 17.0073 42.2096 16.6421 42.4064 16.2734C42.5753 15.9543 42.7176 15.6315 42.831 15.2958C42.8314 15.2949 42.8317 15.2939 42.832 15.2929C42.8815 15.1205 42.9679 14.9197 42.9644 14.5367C42.9884 14.1622 42.6669 13.5137 42.2958 13.2641C41.5799 12.7669 41.2148 12.7677 40.8557 12.7315C40.8479 12.7312 40.84 12.731 40.8322 12.7308C37.5986 12.678 34.7367 13.8917 32.2332 15.5533C32.232 15.5541 32.2309 15.5548 32.2298 15.5556C30.2468 16.9119 28.6194 18.9065 27.9507 21.3911C27.9504 21.3924 27.9501 21.3937 27.9497 21.3951C27.7996 21.91 27.8015 22.7005 28.0408 23.2871C28.2705 23.8813 28.5888 24.255 28.8686 24.548C29.4399 25.122 29.9534 25.4435 30.4514 25.7812C30.4535 25.7825 30.4555 25.7839 30.4576 25.7853C32.7395 27.2373 34.9412 28.2213 37.0665 29.3978C37.0674 29.3983 37.0683 29.3988 37.0692 29.3994C38.3073 30.0869 39.6155 30.8254 40.361 31.5685C40.3614 31.569 40.3618 31.5694 40.3623 31.5698C40.5644 31.7511 40.6129 31.9535 40.5333 31.6985C40.5024 31.5737 40.5381 31.3699 40.5716 31.3085C40.6037 31.2396 40.5981 31.2673 40.5466 31.3178C40.5457 31.3187 40.5448 31.3196 40.5439 31.3205C39.2522 32.3677 35.9415 33.2607 33.3761 34.0207C33.3747 34.0211 33.3733 34.0215 33.3718 34.0219C26.6312 35.9201 19.8119 37.8958 13.0225 39.9102C13.022 39.9103 13.0215 39.9105 13.021 39.9106C9.88476 40.8456 6.94041 42.4735 3.86729 43.5423C3.65701 43.6158 3.44551 43.6869 3.23315 43.7548C3.23303 43.7548 3.23291 43.7548 3.23279 43.7549C2.14695 44.101 1.06833 44.4647 0 44.8587C1.06833 44.4647 2.14695 44.101 3.23279 43.7549C3.23291 43.7548 3.23303 43.7548 3.23315 43.7548C3.44551 43.6869 3.65936 43.6231 3.87393 43.5635C7.01881 42.6946 10.3742 42.6765 13.553 41.9765C13.5535 41.9763 13.554 41.9762 13.5545 41.9761C20.458 40.4648 27.4129 39.1376 34.283 37.2039C34.2844 37.2034 34.2859 37.203 34.2873 37.2026C37.1175 36.2442 39.6509 36.0655 42.8791 33.5768C42.8829 33.5728 42.8867 33.5689 42.8904 33.565C43.2919 33.1676 43.942 32.2179 43.7153 31.1036C43.4815 30.0776 42.9917 29.6647 42.6583 29.2961C42.6575 29.2953 42.6567 29.2945 42.6559 29.2937C41.2841 27.9784 39.9569 27.3248 38.6448 26.5602C38.6439 26.5597 38.6429 26.5591 38.642 26.5586C36.4825 25.3466 34.2624 24.1678 32.4574 22.8965C32.4558 22.8953 32.4542 22.8942 32.4527 22.893C32.0794 22.6221 31.742 22.3071 31.5954 22.0941C31.5221 21.9932 31.5243 21.9309 31.5733 22.0231C31.6282 22.111 31.627 22.3471 31.6154 22.3508C31.6154 22.3509 31.6154 22.3509 31.6154 22.3509C32.0003 20.8902 32.959 19.4312 34.2841 18.4258C34.285 18.4251 34.2859 18.4244 34.2867 18.4238C36.2162 16.9731 38.58 15.8658 40.8305 15.7594C40.8341 15.7592 40.8376 15.7591 40.8411 15.7589C40.9817 15.7322 41.1448 15.7493 40.8683 15.5118C40.7139 15.3922 40.5367 14.9802 40.5882 14.857C40.617 14.7244 40.6643 14.7777 40.6647 14.8516C40.6647 14.852 40.6647 14.8525 40.6647 14.8529C40.6612 15.0872 40.6417 15.3271 40.5947 15.5489C40.541 15.8051 40.4458 16.0411 40.3105 16.1996C40.3103 16.1998 40.3101 16.2 40.3099 16.2003C39.7536 16.8609 39.0896 17.2213 38.4452 17.1219Z" fill="black"/>
<path d="M43.6603 14.9622C43.4418 15.1116 43.2916 15.3417 43.2428 15.6018C43.1939 15.862 43.2504 16.1309 43.3997 16.3494C43.5491 16.5679 43.7792 16.7181 44.0394 16.767C44.2995 16.8158 44.5684 16.7594 44.7869 16.61C44.7869 16.61 44.7869 16.61 44.7869 16.61C45.7813 15.9344 46.7963 15.2312 47.7691 14.6552C47.9049 14.5766 48.0413 14.5019 48.1554 14.4477C48.2613 14.3911 48.388 14.3699 48.2713 14.3869C48.2679 14.387 48.2643 14.3873 48.2607 14.3877C47.8208 14.3863 47.652 14.1815 47.5772 14.1733C47.4957 14.1431 47.4473 14.1698 47.3942 14.2034C47.293 14.2754 47.1993 14.3809 47.2105 14.4578C47.2106 14.4581 47.2106 14.4585 47.2107 14.4589C47.1883 14.3067 47.1919 14.6258 47.147 14.841C47.1081 15.0786 47.0529 15.3469 46.9926 15.6162C46.8715 16.1561 46.728 16.7208 46.5822 17.2827C46.2878 18.4134 45.9783 19.556 45.6753 20.7069C45.6738 20.7127 45.6723 20.7186 45.6707 20.7244C44.9914 23.3735 44.4117 26.1232 44.7048 29.1232C44.7069 29.1427 44.709 29.1622 44.7113 29.1816C44.9203 30.9305 46.3021 31.9827 47.5194 32.3594C47.5457 32.3678 47.5721 32.3759 47.5984 32.3838C49.2883 32.8696 50.5753 32.1044 51.4148 31.5135C52.2882 30.8766 52.9603 30.1798 53.6477 29.5305C53.6535 29.5249 53.6594 29.5194 53.6652 29.5138C55.5646 27.6925 56.6853 25.463 57.8193 23.3562C57.8274 23.3411 57.8354 23.326 57.8434 23.3108C58.7036 21.6539 59.1936 19.9502 59.674 18.2665C59.6806 18.243 59.6871 18.2196 59.6937 18.1962C60.3588 15.8406 60.9824 13.3656 61.441 11.022C61.4469 10.9985 61.4539 10.9701 61.4591 10.9542C61.4589 10.9572 61.4583 10.9629 61.4554 10.9793C61.4521 10.9952 61.4577 10.9742 61.4422 11.0405C61.4315 11.0756 61.4336 11.0997 61.3683 11.257C61.3491 11.2995 61.3251 11.3534 61.2698 11.4411C61.2086 11.5273 61.1396 11.6601 60.8675 11.8473C60.6345 12.0463 59.8861 12.1818 59.451 11.8886C59.026 11.6256 58.9464 11.3791 58.88 11.2508C58.8221 11.1145 58.8073 11.0371 58.7949 10.9808C58.7902 10.9575 58.7867 10.9376 58.784 10.92C58.7785 10.8849 58.7756 10.8587 58.7735 10.8368C58.7695 10.7934 58.7687 10.7668 58.768 10.7455C58.7673 10.6044 58.7709 10.6301 58.7702 10.618C58.7704 10.612 58.7703 10.6095 58.7701 10.6085C58.7691 10.607 58.7668 10.6173 58.7644 10.628C58.7598 10.6475 58.7541 10.6739 58.7483 10.7004C58.7369 10.7521 58.7246 10.8064 58.7115 10.8635C58.6856 10.9761 58.6588 11.0849 58.6302 11.1992C58.5735 11.4241 58.5122 11.6525 58.4489 11.8789C58.3222 12.3322 58.1861 12.7855 58.0506 13.2411C57.7807 14.1463 57.5137 15.059 57.3257 15.9821C57.3206 16.007 57.3156 16.032 57.3106 16.0571C56.6396 19.4514 55.9505 22.8368 55.3894 26.3066C55.3876 26.3179 55.3858 26.3291 55.3841 26.3403C55.2225 27.9008 54.7054 29.0911 55.2353 31.5815C55.2367 31.5862 55.2381 31.5909 55.2395 31.5956C55.2402 31.5978 55.2409 31.6 55.2416 31.6023C55.5666 32.6734 56.9521 33.0131 57.6048 33.447C57.6068 33.4485 57.6088 33.4499 57.6109 33.4514C58.2433 33.9056 58.9264 34.1119 59.4603 34.2821C59.7281 34.3669 60.0185 34.3418 60.2677 34.2124C60.5169 34.0829 60.7045 33.8598 60.7893 33.5921C60.874 33.3244 60.8489 33.034 60.7195 32.7847C60.5901 32.5355 60.3669 32.3479 60.0992 32.2632C60.0992 32.2632 60.0992 32.2632 60.0992 32.2632C59.5539 32.094 59.1374 31.9443 58.8441 31.7299C58.8431 31.7292 58.8421 31.7285 58.8412 31.7278C58.6669 31.6003 58.6776 31.2827 58.7804 31.0339C58.8779 30.7772 59.0486 30.5993 59.0169 30.4848C59.0167 30.4842 59.0166 30.4837 59.0165 30.4832C59.0162 30.482 59.0159 30.4809 59.0156 30.4798C58.8652 30.0753 59.1219 28.3009 59.3352 26.9638C59.3368 26.9531 59.3385 26.9424 59.3402 26.9316C59.8817 23.5778 60.4912 20.164 61.0812 16.7586C61.0856 16.7333 61.0899 16.7081 61.0941 16.683C61.2543 15.7339 61.3228 14.7624 61.3652 13.7935C61.387 13.3057 61.4021 12.8192 61.4189 12.3316C61.4272 12.0879 61.4362 11.8422 61.446 11.5971C61.4511 11.4725 61.4557 11.3535 61.4615 11.2262C61.4645 11.1613 61.4672 11.099 61.4701 11.0338C61.4717 11 61.4733 10.9654 61.4748 10.9299C61.476 10.9082 61.4765 10.8928 61.4785 10.859C61.4791 10.8497 61.4797 10.8398 61.4803 10.8278C61.4799 10.8121 61.4846 10.8232 61.4836 10.6776C61.483 10.6556 61.4821 10.6284 61.478 10.5846C61.4759 10.5625 61.473 10.5361 61.4676 10.5008C61.4648 10.4831 61.4613 10.4632 61.4566 10.4398C61.4442 10.3833 61.4293 10.3057 61.3714 10.1694C61.3049 10.0409 61.2252 9.7944 60.8001 9.53137C60.3651 9.23807 59.6166 9.37363 59.3835 9.57268C59.1114 9.75989 59.0423 9.89282 58.981 9.97915C58.9256 10.0669 58.9015 10.121 58.8823 10.1636C58.8166 10.3217 58.8183 10.3472 58.8071 10.3844C58.7901 10.4568 58.7958 10.4356 58.7918 10.4553C58.7876 10.478 58.7856 10.4919 58.7836 10.5051C58.7792 10.5464 58.7744 10.5944 58.7718 10.6292C58.6548 13.0998 58.4596 15.4144 57.9533 17.7665C57.9484 17.7897 57.9434 17.8128 57.9384 17.8359C57.5754 19.4901 57.1578 21.1478 56.4228 22.5578C56.415 22.5725 56.4072 22.5873 56.3993 22.602C55.3015 24.6622 54.0017 26.6339 52.3114 27.9604C52.3055 27.9651 52.2996 27.9697 52.2937 27.9744C51.0249 29.0743 48.9022 29.768 48.7354 29.2863C48.7296 29.2823 48.7237 29.2783 48.7178 29.2742C48.5693 29.174 48.4381 29.0191 48.3987 28.9149C48.3548 28.8037 48.3929 28.787 48.39 28.7691C48.3884 28.7547 48.3869 28.7402 48.3853 28.7257C48.1543 26.4807 48.4115 23.9579 48.929 21.5024C48.9302 21.4966 48.9315 21.4907 48.9327 21.4849C49.1794 20.3308 49.4341 19.1808 49.6796 18.0057C49.8012 17.4198 49.9218 16.8253 50.0272 16.2072C50.0796 15.8966 50.1294 15.5774 50.1665 15.233C50.1917 14.8598 50.2704 14.5813 50.1441 13.8484C50.1438 13.8474 50.1436 13.8463 50.1433 13.8452C50.0904 13.6184 49.9133 13.423 49.6895 13.2091C49.5744 13.1007 49.4543 12.9881 49.277 12.8352C49.1082 12.7073 48.8078 12.3882 48.2076 12.3915C48.1942 12.3921 48.1807 12.3928 48.1673 12.3935C47.704 12.4331 47.5043 12.5568 47.299 12.6447C47.1023 12.7386 46.9325 12.8334 46.7691 12.9277C45.6551 13.5887 44.6738 14.275 43.6603 14.9622Z" fill="black"/>
<path d="M60.3909 29.5329C60.3025 29.7818 60.3166 30.0557 60.4302 30.2942C60.5437 30.5327 60.7473 30.7164 60.9963 30.8048C61.2452 30.8932 61.5191 30.8791 61.7576 30.7656C61.9962 30.6521 62.1798 30.4484 62.2682 30.1995C62.5516 29.4013 62.8623 28.6146 63.2016 27.8396C63.7743 26.5295 64.4297 25.2529 65.1438 24.0003C65.1475 23.9938 65.1513 23.9873 65.155 23.9807C65.9874 22.5167 66.9058 21.1339 67.6949 19.7052C67.7011 19.694 67.7072 19.6829 67.7134 19.6718C68.9347 17.4598 70.1765 15.2741 71.5662 13.2016C71.5778 13.1844 71.5894 13.1671 71.601 13.1499C71.9335 12.658 72.2991 12.1938 72.6835 11.7833C72.8757 11.5784 73.0734 11.3868 73.2612 11.2312C73.3538 11.1545 73.4469 11.0855 73.5119 11.0478C73.5435 11.0291 73.5704 11.0182 73.5596 11.0304C73.5525 11.0369 73.5383 11.0493 73.4837 11.0746C73.4247 11.0946 73.3554 11.1515 73.0394 11.165C72.933 11.1664 72.7592 11.1544 72.5639 11.0844C72.2931 10.9991 72.0367 10.7607 71.9408 10.6023C71.8359 10.4388 71.8183 10.3567 71.8019 10.3143C71.7772 10.2344 71.7803 10.2847 71.7686 10.3461C71.7491 10.4828 71.7086 10.6984 71.6594 10.9197C71.56 11.3683 71.432 11.8613 71.309 12.3585C71.0605 13.3551 70.8258 14.3868 70.6836 15.4353C70.6802 15.4602 70.6768 15.4854 70.6734 15.5107C70.2466 18.6069 69.6996 21.77 69.3729 25.0237C69.3713 25.0405 69.3696 25.0573 69.368 25.0741C69.1608 27.4086 68.9471 29.6795 69.2437 32.3133C69.2452 32.3245 69.2467 32.3356 69.2482 32.3467C69.3314 32.9057 69.5376 33.5113 70.0014 34.2108C70.4418 34.9359 71.4113 35.5566 72.0447 35.76C72.0478 35.7613 72.0509 35.7625 72.054 35.7637C72.3224 35.8679 72.5718 35.9379 72.8099 35.9939C73.8856 36.2327 74.7851 36.2567 75.6589 36.3164C76.068 36.3413 76.4701 36.2027 76.777 35.9311C77.0838 35.6595 77.2702 35.2771 77.2951 34.8681C77.3201 34.4591 77.1815 34.0569 76.9099 33.7501C76.6383 33.4432 76.2559 33.2568 75.8469 33.2319C75.8469 33.2319 75.8469 33.2319 75.8469 33.2319C74.9867 33.1791 74.1382 33.1297 73.5141 32.985C73.3808 32.954 73.2629 32.9184 73.1758 32.8843C73.1748 32.8839 73.1738 32.8835 73.1728 32.8831C72.9322 32.7665 73.1326 32.7534 73.1758 32.629C73.2284 32.4904 73.2578 32.1644 73.2114 31.8054C73.2104 31.7982 73.2095 31.791 73.2085 31.7837C72.9863 29.9127 73.1442 27.6326 73.3489 25.464C73.3505 25.4481 73.352 25.4322 73.3536 25.4163C73.6615 22.3329 74.132 19.206 74.5033 15.9823C74.5062 15.9555 74.5092 15.9289 74.512 15.9024C74.6167 14.9176 74.6899 13.929 74.7642 12.9074C74.8006 12.3936 74.8385 11.8785 74.8653 11.3119C74.8773 11.0231 74.89 10.7385 74.8744 10.3571C74.8628 10.1637 74.8552 9.95863 74.774 9.62784C74.7284 9.46056 74.6706 9.25789 74.4968 8.98452C74.3329 8.71721 73.9775 8.39073 73.5845 8.26223C73.3647 8.18319 73.1604 8.16729 73.0277 8.16897C72.633 8.18325 72.4834 8.26631 72.3538 8.31498C72.2245 8.37108 72.1413 8.41968 72.0655 8.46614C71.9179 8.55833 71.816 8.63862 71.7202 8.71775C71.5363 8.87188 71.3917 9.0171 71.2565 9.16071C70.9889 9.44709 70.7649 9.7271 70.5503 10.011C70.1257 10.5761 69.7544 11.1456 69.3951 11.7187C69.3836 11.737 69.3721 11.7554 69.3607 11.7737C67.9805 13.9789 66.7181 16.2353 65.5506 18.5242C65.5447 18.5358 65.5388 18.5474 65.5329 18.559C64.7796 20.0375 64.2158 21.5954 63.4245 22.9937C63.4207 23.0004 63.4168 23.0072 63.413 23.014C62.6711 24.3152 61.9814 25.6572 61.3765 27.041C61.0182 27.8594 60.6895 28.6916 60.3909 29.5329Z" fill="black"/>
<path d="M57.5545 23.352C57.1856 23.4995 56.8904 23.7876 56.7339 24.1528C56.5774 24.518 56.5724 24.9304 56.72 25.2992C56.8675 25.6681 57.1556 25.9633 57.5208 26.1198C57.8859 26.2763 58.2983 26.2813 58.6672 26.1337C58.6672 26.1337 58.6672 26.1337 58.6672 26.1337C59.0817 25.9679 59.493 25.8034 59.9021 25.6432C62.1809 24.7381 64.4448 24.0239 66.8139 23.5249C66.8143 23.5248 66.8147 23.5247 66.8151 23.5246C70.5126 22.7529 74.3147 21.7465 78.1782 21.2995C78.1785 21.2994 78.1789 21.2994 78.1792 21.2993C79.8136 21.1119 81.4433 20.928 83.0744 20.7522C83.5179 20.7044 83.9613 20.657 84.4053 20.6097C84.6535 20.5832 84.881 20.4592 85.0378 20.265C85.1946 20.0708 85.2678 19.8222 85.2413 19.574C85.2148 19.3258 85.0909 19.0983 84.8966 18.9415C84.7024 18.7847 84.4538 18.7115 84.2056 18.738C84.2056 18.738 84.2056 18.738 84.2056 18.738C83.7617 18.7853 83.3174 18.8327 82.8725 18.8807C81.2357 19.0571 79.6013 19.2416 77.9647 19.4292C77.9644 19.4293 77.9641 19.4293 77.9638 19.4294C74.0868 19.8795 70.1277 19.7753 66.1894 20.5946C66.189 20.5947 66.1886 20.5948 66.1882 20.5949C63.6713 21.1224 61.1663 21.9152 58.8093 22.8535C58.3871 23.0189 57.969 23.1862 57.5545 23.352Z" fill="black"/>
<path d="M83.1834 7.65231C82.7622 7.73645 82.3917 7.98447 82.1533 8.34182C81.915 8.69916 81.8283 9.13656 81.9124 9.55779C81.9966 9.97901 82.2446 10.3496 82.602 10.5879C82.9593 10.8263 83.3967 10.9129 83.8179 10.8288C83.5919 10.8764 83.2716 10.8725 82.9754 10.7562C82.6887 10.6473 82.4851 10.4631 82.3814 10.3424C82.1638 10.0778 82.1497 9.96715 82.1169 9.88876C82.0744 9.75041 82.0858 9.75408 82.0843 9.76092C82.0877 9.78781 82.0908 9.89504 82.087 10.0039C82.0801 10.229 82.0558 10.5005 82.0246 10.7721C81.9152 11.7049 81.737 12.6907 81.5443 13.6722C81.5384 13.7018 81.5325 13.7314 81.5265 13.7609C81.2286 15.2333 80.382 16.5907 79.8469 18.1258C79.8381 18.151 79.8294 18.1762 79.8208 18.2014C79.2956 19.7413 78.7145 21.2869 78.1323 22.8578C78.1246 22.8787 78.1169 22.8997 78.1091 22.9206C77.1466 25.6027 76.259 28.3164 76.0882 31.4924C76.0872 31.5195 76.0865 31.5466 76.0861 31.5739C75.9937 32.3035 76.5837 33.7222 77.4246 34.1777C78.2025 34.6682 78.7454 34.7289 79.2023 34.8206L79.4066 34.8444C79.4206 34.8454 79.4347 34.8463 79.4488 34.8471C82.5143 34.9844 85.1045 33.7256 87.6362 32.6858L87.6513 32.6821C87.6545 32.6807 87.6576 32.6793 87.6608 32.6779C87.9971 32.5286 88.3257 32.3533 88.6468 32.1629C89.1951 31.8393 89.7142 31.4691 90.2354 31.1264C89.6117 31.1735 88.9818 31.1835 88.3673 31.1932C88.0062 31.1996 87.6487 31.2082 87.2954 31.2332C87.2921 31.2334 87.2887 31.2337 87.2854 31.2339L87.3005 31.2303C84.6572 31.3502 81.9477 30.9709 79.6962 30.8548C79.6861 30.8542 79.676 30.8535 79.6659 30.8529L79.8702 30.8767C79.6317 30.8464 79.464 30.7499 79.6443 30.8501C79.729 30.9012 79.9064 31.0708 79.9938 31.2665C80.0851 31.4615 80.0858 31.601 80.0857 31.6342C80.0856 31.6368 80.0855 31.6391 80.0855 31.641C80.1941 29.3368 80.9669 26.7549 81.8618 24.3054C81.8689 24.286 81.8761 24.2667 81.8832 24.2474C82.4604 22.6893 83.0544 21.1113 83.6066 19.4927C83.6157 19.4662 83.6246 19.4396 83.6335 19.413C84.1459 17.8648 84.3521 16.1287 84.7011 14.4046C84.7082 14.3697 84.7152 14.3347 84.7221 14.2997C84.924 13.268 85.1127 12.2432 85.2427 11.1414C85.2798 10.8137 85.3125 10.4807 85.3248 10.1016C85.3296 9.90905 85.3332 9.71167 85.3074 9.43825C85.2901 9.29338 85.2805 9.15112 85.1908 8.86706C85.1326 8.7138 85.0894 8.53561 84.8218 8.21239C84.6945 8.06433 84.4591 7.8546 84.138 7.73279C83.8058 7.60266 83.4486 7.59691 83.1834 7.65231Z" fill="black"/>
</svg>
