<svg width="32" height="32" viewBox="0 0 32 32" fill="none" xmlns="http://www.w3.org/2000/svg">
<g clip-path="url(#clip0_7028_2419)">
<rect width="32" height="32" fill="#007AFF"/>
<path d="M-0.540368 15.2555C-0.576391 15.3988 -0.554006 15.5506 -0.478139 15.6774C-0.402272 15.8042 -0.279137 15.8957 -0.135822 15.9317C0.00749211 15.9677 0.159247 15.9453 0.286057 15.8694C0.412867 15.7936 0.504346 15.6704 0.540368 15.5271C0.718264 14.7933 0.91069 14.1636 1.30349 13.6517C1.36223 13.5736 1.42601 13.4964 1.49363 13.4205C1.71151 13.1761 1.97347 12.9523 2.25233 12.7448C2.60331 12.484 2.98254 12.2474 3.36943 12.0173C3.55442 11.9074 3.7408 11.7996 3.92858 11.6914C4.69622 11.2511 5.50802 10.8307 6.30765 10.386C6.5991 10.2247 6.89262 10.0595 7.18335 9.89039C8.45235 9.14953 9.71015 8.34594 10.8545 7.33481C11.2617 6.97276 11.6446 6.58708 12.0043 6.17978C12.6876 5.3966 13.3 4.57019 13.7725 3.5751C13.9019 3.28617 14.0284 2.98544 14.0819 2.57649C14.1623 2.19258 13.9685 1.51997 13.6396 1.23768C13.4686 1.06071 13.2636 0.915624 13.0504 0.811674C12.7337 0.656799 12.4079 0.583982 12.1014 0.554831C11.5758 0.499262 11.0205 0.612679 10.578 0.806803C10.3449 0.906853 10.1303 1.02369 9.92883 1.14824C9.70756 1.28539 9.50241 1.43185 9.30605 1.58463C8.73971 2.02777 8.23611 2.51972 7.77566 3.05789C7.63666 3.22091 7.50231 3.3883 7.3729 3.56076C6.70902 4.44184 6.22426 5.42613 5.83612 6.40006C5.74171 6.63633 5.65242 6.87246 5.56638 7.10907C5.1472 8.26429 4.80178 9.43531 4.50231 10.6149C4.40832 10.9858 4.31916 11.3578 4.23454 11.7307C3.90945 13.1634 3.65289 14.6125 3.47 16.0715C3.43161 16.3779 3.39648 16.6845 3.36463 16.9917C3.20365 18.596 3.106 20.1883 3.14996 21.8312C3.15526 21.9864 3.16273 22.1428 3.1734 22.3008C3.22262 22.8782 3.25631 23.4881 3.58884 24.1805C3.66682 24.3331 3.75848 24.4936 3.91798 24.6676C4.07206 24.8326 4.34047 25.0549 4.74612 25.0854C4.95128 25.1128 5.32026 25.0154 5.51118 24.8164C5.70626 24.626 5.76627 24.4584 5.81283 24.3299C5.89539 24.0716 5.9035 23.8948 5.91386 23.7215C5.92633 22.8631 5.828 22.1751 5.60431 21.3698C5.57721 21.2804 5.54699 21.1927 5.51247 21.1047C5.21402 20.2655 4.41695 19.5799 3.70117 19.2853C3.53853 19.2105 3.3661 19.1549 3.19806 19.1191C3.08537 19.0947 2.97358 19.0799 2.87835 19.0708C2.83166 19.0662 2.78798 19.0627 2.7646 19.0607C2.75409 19.0684 2.69878 19.0245 2.91651 19.1216C3.00563 19.1687 3.15078 19.2754 3.23761 19.4622C3.32626 19.6513 3.31182 19.8282 3.29543 19.913C3.25321 20.1001 3.21521 20.1287 3.19397 20.169C3.15175 20.231 3.1425 20.2351 3.13528 20.2435C3.12379 20.2543 3.13356 20.2431 3.14452 20.2328C3.16854 20.2097 3.20536 20.1777 3.24345 20.1457C3.42627 19.9933 3.62483 19.8127 3.83242 19.6519C3.86258 19.6286 3.89629 19.6033 3.92726 19.5808C4.58462 19.1049 5.25563 18.6441 5.93267 18.1944C6.46179 17.8432 6.99346 17.4964 7.53279 17.1649C7.67753 17.076 7.86983 16.9725 8.04578 16.8807C8.31238 16.742 8.59679 16.6086 8.87116 16.4754C9.2564 16.2885 9.63879 16.1075 10.0255 15.9235C11.5197 15.2133 13.0225 14.5179 14.527 13.819C15.609 13.3165 16.6706 12.781 17.7326 12.2315C18.2209 11.9778 18.7038 11.7281 19.2007 11.4548C19.2528 11.4253 19.3311 11.3738 19.3805 11.3282C19.745 10.9907 19.9903 10.4445 20.3366 10.132C20.3489 10.1201 20.3608 10.1081 20.3727 10.0961C20.4679 10.0004 20.5561 9.89807 20.64 9.79245C20.64 9.79245 20.64 9.79245 20.64 9.79245C20.5561 9.89807 20.4679 10.0004 20.3727 10.0961C20.3608 10.1081 20.3489 10.1201 20.3366 10.132C19.9733 10.4555 19.3612 10.3449 18.9056 10.4851C18.8661 10.4899 18.788 10.5192 18.7386 10.5409C18.2558 10.7564 17.7439 10.9653 17.2412 11.1738C16.1411 11.6278 15.0418 12.0816 13.9556 12.5768C12.4446 13.2658 10.9369 13.9564 9.43017 14.6725C9.03994 14.8582 8.65544 15.0456 8.26421 15.2401C7.98527 15.3789 7.70078 15.529 7.41832 15.676C7.22943 15.7748 7.02902 15.8795 6.82636 16.0001C6.26697 16.3351 5.7135 16.6772 5.16865 17.0315C4.4712 17.4854 3.78636 17.9528 3.10568 18.4355C3.07356 18.4583 3.03782 18.483 3.00511 18.505C2.77991 18.6573 2.54823 18.7872 2.3117 18.9627C2.2598 19.0017 2.20844 19.0406 2.14565 19.0935C2.11362 19.1209 2.08105 19.1483 2.03026 19.2005C2.00344 19.2297 1.97548 19.2549 1.91743 19.341C1.88822 19.3938 1.84338 19.4345 1.79827 19.6359C1.78062 19.7273 1.76621 19.912 1.85798 20.1075C1.94782 20.3008 2.09843 20.4123 2.19413 20.463C2.48489 20.5964 2.51294 20.5599 2.58294 20.5784C2.64032 20.5859 2.67787 20.5899 2.71218 20.5943C2.77943 20.6026 2.82863 20.6108 2.8755 20.6208C2.94424 20.6356 3.00335 20.6552 3.06122 20.6816C3.59609 20.9216 3.90248 21.2111 4.0825 21.6654C4.10147 21.7139 4.11857 21.7633 4.13428 21.8151C4.29575 22.3686 4.39343 23.098 4.37942 23.6522C4.3765 23.7476 4.35876 23.8415 4.3572 23.8395C4.36064 23.8378 4.36116 23.7953 4.45797 23.6983C4.55199 23.5941 4.78041 23.5373 4.85182 23.5531C5.00646 23.5671 5.05548 23.637 5.04289 23.6217C5.03339 23.6128 4.9952 23.5598 4.96124 23.4907C4.81026 23.2004 4.73953 22.6977 4.7059 22.1973C4.6966 22.0596 4.68988 21.9197 4.68507 21.7789C4.64363 20.2624 4.73691 18.69 4.89245 17.1501C4.92315 16.8539 4.95703 16.5581 4.99408 16.2626C5.17052 14.8549 5.41825 13.4553 5.73246 12.0706C5.81433 11.7098 5.90052 11.3502 5.99125 10.9921C6.28016 9.85377 6.61323 8.72687 7.00992 7.63394C7.09142 7.40981 7.17513 7.18856 7.26244 6.97007C7.62263 6.06645 8.04569 5.22027 8.60153 4.48259C8.71081 4.33694 8.82535 4.19418 8.94444 4.0545C9.33807 3.5937 9.78039 3.16322 10.2499 2.79643C10.4118 2.67033 10.5772 2.55161 10.741 2.44786C10.8911 2.35282 11.0416 2.2693 11.1883 2.20322C11.4746 2.075 11.722 2.0083 11.9946 2.01754C12.1623 2.02293 12.31 2.05382 12.4224 2.10707C12.4987 2.1431 12.5603 2.18629 12.614 2.23972C12.6919 2.33957 12.6657 2.2524 12.6671 2.41426C12.6535 2.55633 12.5812 2.77475 12.4842 2.99021C12.1227 3.77951 11.5667 4.56339 10.9592 5.26115C10.6379 5.62835 10.2951 5.97589 9.9324 6.30012C8.90808 7.21173 7.71645 7.98249 6.49007 8.70485C6.20864 8.87033 5.92371 9.03487 5.63818 9.19888C4.85402 9.65166 4.06196 10.0906 3.26513 10.5792C3.07066 10.699 2.87815 10.8244 2.68834 10.9548C2.29198 11.2271 1.90397 11.5204 1.52828 11.8413C1.22939 12.0975 0.937335 12.3705 0.661565 12.6792C0.575896 12.7754 0.492594 12.8759 0.41286 12.9819C-0.121509 13.6753 -0.364886 14.5309 -0.540368 15.2555Z" fill="black"/>
<path d="M8.35404 10.606C8.25459 10.6901 8.1926 10.8102 8.1817 10.9399C8.17081 11.0696 8.2119 11.1984 8.29593 11.2978C8.37997 11.3973 8.50007 11.4593 8.62981 11.4702C8.75955 11.4811 8.88831 11.44 8.98776 11.356C8.98776 11.356 8.98776 11.356 8.98776 11.356C9.69192 10.761 10.3955 10.1662 11.1015 9.57697C12.0379 8.79933 12.9789 8.01144 13.9385 7.31002C13.9624 7.29282 13.9858 7.27607 14.0087 7.25975C14.2275 7.10467 14.4533 6.95838 14.6655 6.85152C14.7677 6.79958 14.8781 6.75765 14.9239 6.75223C14.9463 6.74801 14.9383 6.75939 14.8853 6.74701C14.8306 6.73491 14.7858 6.6886 14.8016 6.70643C14.8165 6.72481 14.8308 6.74321 14.8445 6.76164C15.3303 7.40973 15.1161 8.24017 14.8402 9.40213C14.8347 9.44707 14.8267 9.49996 14.83 9.59141C14.8383 9.67507 14.8366 9.85127 15.0271 10.0499C15.2288 10.2401 15.4348 10.2364 15.5265 10.2352C15.6284 10.2302 15.6881 10.2141 15.7444 10.1991C16.2452 10.0256 16.4553 9.8216 16.7599 9.622C16.8665 9.54763 16.9729 9.47373 17.0815 9.40209C18.464 8.48185 19.799 7.52255 21.1485 6.60383C21.264 6.52543 21.3757 6.45094 21.4912 6.37546C22.0899 5.9841 22.9052 5.51561 23.2864 5.50879C23.229 5.51126 23.102 5.48487 23.0117 5.4071C22.9214 5.331 22.8946 5.25882 22.8827 5.22793C22.863 5.1639 22.8729 5.18561 22.8702 5.21185C22.8698 5.23303 22.8689 5.25397 22.8675 5.27533C22.862 5.35937 22.8055 5.43777 22.7837 5.5218C22.7399 5.69264 22.6676 5.86868 22.5768 6.06609C22.5314 6.16567 22.4812 6.26951 22.4278 6.39692C22.3806 6.534 22.2963 6.64851 22.2952 7.00705C22.2966 7.1961 22.4235 7.4337 22.5464 7.53421C22.6684 7.64226 22.7606 7.67723 22.8313 7.70529C22.9713 7.75529 23.0533 7.76366 23.1289 7.77431C23.2762 7.79166 23.3846 7.79261 23.4904 7.79376C23.5458 7.79408 23.5988 7.79376 23.6503 7.79331C23.8685 7.79196 24.0853 7.77559 24.286 7.75812C25.5335 7.63864 26.7252 7.47745 27.9384 7.31872C28.1015 7.297 28.2747 7.27373 28.4398 7.25138C32.8917 6.6481 37.2819 5.64387 41.736 5.12836C41.8212 5.11871 41.9058 5.10932 41.9899 5.10021C44.9272 4.7788 47.8773 4.63642 50.8338 4.63529C50.8614 4.63512 50.8887 4.63494 50.9158 4.63476C51.3693 4.63174 51.8232 4.59714 52.2769 4.56047C52.8019 4.51742 53.327 4.47468 53.8514 4.46279C53.859 4.46261 53.8667 4.46243 53.8743 4.46226C54.2633 4.45423 54.6523 4.4306 55.0402 4.39813C54.6523 4.4306 54.2633 4.45423 53.8743 4.46226C53.8667 4.46243 53.859 4.46259 53.8514 4.46274C53.3267 4.47204 52.8018 4.42322 52.2773 4.3791C51.8239 4.34045 51.3703 4.30298 50.9168 4.29745C50.8897 4.29711 50.8623 4.29678 50.8347 4.29646C47.8709 4.24277 44.9014 4.39266 41.9458 4.63245C41.8612 4.63922 41.776 4.64603 41.6901 4.65289C37.209 5.01999 32.7017 5.25755 28.2515 5.86059C28.0867 5.8829 27.914 5.90636 27.7514 5.92845C26.5493 6.08924 25.3357 6.26568 24.1626 6.38427C23.9757 6.4015 23.8046 6.41344 23.6336 6.41559C23.5842 6.41635 23.5361 6.41705 23.4905 6.41738C23.4052 6.41815 23.3219 6.41714 23.2789 6.41416C23.2602 6.41412 23.246 6.40765 23.2961 6.42551C23.3219 6.43715 23.3704 6.45108 23.4566 6.52704C23.5435 6.59588 23.6468 6.78817 23.6461 6.92892C23.6371 7.05454 23.6389 6.94381 23.6702 6.86466C23.6989 6.77505 23.74 6.66465 23.7808 6.54844C23.8633 6.31454 23.9466 6.05098 23.9943 5.76529C24.0183 5.62222 23.9917 5.47031 23.9959 5.32267C23.997 5.28452 23.9973 5.24671 23.9966 5.20811C23.993 5.12422 23.9975 5.03404 23.9429 4.86478C23.9133 4.782 23.8593 4.65912 23.7262 4.5476C23.5936 4.43393 23.4101 4.39179 23.2977 4.39411C22.1153 4.55458 21.6248 5.0831 20.9152 5.49982C20.7943 5.57993 20.6782 5.6585 20.5586 5.74079C19.2 6.67868 17.8689 7.64802 16.5176 8.54739C16.4124 8.61675 16.306 8.68156 16.2001 8.74242C15.9318 8.89697 15.5785 9.07435 15.4416 9.11578C15.4385 9.11721 15.4407 9.1136 15.4826 9.11123C15.5153 9.11243 15.6555 9.09933 15.814 9.24669C15.9608 9.4024 15.9472 9.51487 15.9527 9.53931C15.9534 9.57053 15.9515 9.56328 15.9537 9.54873C16.1341 8.7318 16.5568 7.22444 15.6654 6.12958C15.6414 6.09908 15.6165 6.06892 15.5906 6.03913C15.5175 5.94998 15.3598 5.81043 15.1693 5.76084C14.9811 5.70967 14.8301 5.73138 14.7151 5.75578C14.489 5.80948 14.3408 5.88989 14.1975 5.96649C13.9157 6.12344 13.6783 6.29121 13.4401 6.45937C13.4153 6.47699 13.3901 6.495 13.3645 6.51342C12.3516 7.25436 11.4169 8.03928 10.4725 8.82309C9.76302 9.41516 9.05823 10.011 8.35404 10.606Z" fill="black"/>
<path d="M5.39405 15.5852C5.34604 15.6681 5.33296 15.7668 5.35767 15.8594C5.38239 15.952 5.44288 16.031 5.52584 16.079C5.60881 16.127 5.70744 16.1401 5.80005 16.1154C5.89266 16.0907 5.97166 16.0302 6.01967 15.9472C6.01967 15.9472 6.01967 15.9472 6.01967 15.9472C6.38008 15.324 6.74276 14.6994 7.09128 14.0621C7.42138 13.4447 7.75935 12.8456 7.99646 12.1222C7.99709 12.1201 7.99773 12.118 7.99836 12.116C8.06068 11.8533 8.20001 11.5723 8.00874 11.1235C7.90094 10.9026 7.67416 10.7655 7.50959 10.7121C7.33864 10.6539 7.19287 10.6375 7.05849 10.6258C7.05556 10.6255 7.05264 10.6253 7.04971 10.6251C5.41264 10.5503 4.09999 11.4009 2.92451 12.1955C2.92057 12.1983 2.91664 12.201 2.9127 12.2038C1.88413 12.9562 1.13852 13.8899 0.446413 14.8552C0.442797 14.8604 0.439192 14.8655 0.435594 14.8706C-0.0212498 15.5297 -0.449466 16.2834 -0.566042 17.1945C-0.567154 17.2036 -0.568227 17.2126 -0.569261 17.2217C-0.644789 17.7304 -0.544342 18.5627 0.0701255 18.9981C0.0808047 19.0061 0.0915852 19.014 0.102462 19.0219C1.04867 19.608 1.86137 19.4134 2.60267 19.3338C2.61333 19.3322 2.62404 19.3305 2.63477 19.3288C4.04638 19.0884 5.33806 18.6144 6.64041 18.1525C6.65264 18.1481 6.66484 18.1437 6.67702 18.1393C7.79089 17.7385 8.86591 17.2446 9.93941 16.7907C9.95336 16.7849 9.9673 16.7791 9.98121 16.7733C11.07 16.3383 12.3604 15.7951 13.2987 15.8261C13.305 15.8277 13.3101 15.8294 13.3139 15.8309C13.2716 15.8218 13.1877 15.7744 13.1474 15.6998C13.1082 15.629 13.1108 15.5805 13.1103 15.5601C13.1127 15.5177 13.1133 15.5279 13.1062 15.5364C13.093 15.5579 13.0638 15.5999 13.0313 15.6392C12.9653 15.7198 12.8828 15.8039 12.7978 15.8852C12.6267 16.0485 12.442 16.2061 12.2686 16.3713C12.2637 16.3759 12.2588 16.3806 12.2539 16.3853C11.5219 17.0723 10.6485 17.6979 9.80971 18.345C9.80565 18.3481 9.80159 18.3512 9.79752 18.3543C8.49794 19.3483 7.23702 20.3938 5.97148 21.4558C5.97004 21.457 5.9686 21.4582 5.96717 21.4595C5.77389 21.623 5.58332 21.7886 5.39487 21.9585C4.84879 22.4461 4.32899 22.9881 3.85324 23.5289C3.78366 23.6069 3.7479 23.7093 3.75383 23.8137C3.75976 23.918 3.80689 24.0157 3.88486 24.0853C3.96283 24.1549 4.06525 24.1906 4.16959 24.1847C4.27393 24.1788 4.37164 24.1316 4.44122 24.0537C4.44122 24.0537 4.44122 24.0537 4.44122 24.0537C4.91644 23.5141 5.39464 23.016 5.92248 22.5439C6.10379 22.3805 6.28828 22.2201 6.47628 22.061C6.47768 22.0598 6.47908 22.0586 6.48047 22.0575C7.71878 21.0186 9.06704 20.0883 10.3638 19.0966C10.3679 19.0935 10.372 19.0904 10.376 19.0873C11.218 18.4361 12.0769 17.8191 12.8913 17.0468C12.8967 17.0415 12.9022 17.0362 12.9076 17.0308C13.0995 16.8413 13.2654 16.6286 13.4197 16.4002C13.4968 16.2852 13.5709 16.1678 13.6436 16.035C13.6798 15.9674 13.7164 15.8983 13.7518 15.8036C13.7691 15.7525 13.7906 15.7017 13.7969 15.5956C13.7981 15.5446 13.7971 15.4618 13.7423 15.3638C13.6862 15.2608 13.575 15.1954 13.5009 15.1773C13.4786 15.1713 13.4562 15.1663 13.4339 15.1621C11.9126 15.1842 10.9397 15.8227 9.76604 16.2593C9.75207 16.2651 9.73809 16.271 9.72409 16.2769C8.64719 16.7322 7.55941 17.1269 6.45056 17.4449C6.43842 17.4485 6.42626 17.452 6.41408 17.4555C5.121 17.8219 3.77421 18.079 2.48715 18.2308C2.47748 18.2319 2.46785 18.2329 2.45827 18.2339C1.80783 18.3072 1.06507 18.3055 0.786914 18.0802C0.783345 18.0775 0.77987 18.0749 0.776486 18.0722C0.617726 17.9516 0.560934 17.7384 0.602676 17.356C0.603373 17.3499 0.604095 17.3438 0.604842 17.3377C0.677491 16.7332 0.988239 16.1068 1.38046 15.5172C1.38372 15.5123 1.38699 15.5074 1.39027 15.5025C2.0117 14.5829 2.69618 13.6624 3.51089 13.0201C3.51449 13.0173 3.51808 13.0146 3.52167 13.0119C4.58629 12.2108 5.79561 11.4466 7.00161 11.4623C7.00392 11.4624 7.00623 11.4625 7.00853 11.4626C7.22859 11.4617 7.35584 11.5187 7.33104 11.494C7.36124 11.4869 7.37233 11.7153 7.30616 11.9077C7.30568 11.9094 7.30519 11.911 7.3047 11.9126C7.11404 12.5018 6.77854 13.1189 6.4569 13.7156C6.11502 14.3409 5.75436 14.9621 5.39405 15.5852Z" fill="white"/>
<path d="M12.1589 12.1162C12.1287 12.1807 12.1254 12.2546 12.1496 12.3216C12.1738 12.3885 12.2237 12.4431 12.2882 12.4734C12.3527 12.5036 12.4266 12.5069 12.4935 12.4827C12.5605 12.4584 12.6151 12.4086 12.6453 12.3441C12.6453 12.3441 12.6453 12.3441 12.6453 12.3441C12.7571 12.104 12.8647 11.8624 12.9533 11.5976C12.9862 11.4971 13.017 11.3926 13.0376 11.2748C13.0492 11.1542 13.0985 11.0289 12.9805 10.8006C12.9653 10.776 12.9466 10.7513 12.9249 10.7286C12.5255 10.3741 12.1342 10.4015 11.8061 10.4104C11.7838 10.4124 11.762 10.4145 11.7399 10.4169C10.7192 10.4811 9.75804 11.2604 9.31152 12.0598C9.29412 12.0867 9.27756 12.1123 9.26353 12.1334C9.20614 12.221 9.14485 12.3248 9.11176 12.4854C9.0742 12.64 9.11195 12.8897 9.23223 13.0396C9.29897 13.1293 9.37271 13.1873 9.43978 13.2297C10.0079 13.6019 10.8836 13.6218 11.4532 13.2622C11.4635 13.2567 11.4725 13.2518 11.4785 13.2487C11.4807 13.2476 11.4829 13.2467 11.4767 13.2495C11.4729 13.251 11.4709 13.2527 11.4497 13.2597C11.4394 13.263 11.4254 13.2672 11.4016 13.2709C11.3756 13.272 11.2271 13.3052 11.0949 13.1437C11.1715 13.2744 11.1641 13.2459 11.0954 13.3543C11.0151 13.4534 10.8469 13.5649 10.6705 13.6583C10.4918 13.7537 10.2964 13.8398 10.0911 13.935C9.988 13.9831 9.88294 14.0325 9.76936 14.096C9.65447 14.1764 9.53628 14.1828 9.35481 14.4799C9.31423 14.5615 9.27382 14.66 9.26078 14.7932C9.24485 14.93 9.28043 15.1156 9.36779 15.2479C9.45331 15.3821 9.55674 15.4616 9.64638 15.5175L9.82264 15.5731C9.87679 15.5831 9.93099 15.591 9.98552 15.5953C11.3451 15.6962 12.6509 15.2419 13.7605 14.578C13.7734 14.5702 13.7824 14.5644 13.7914 14.5586C13.8426 14.5254 13.8927 14.4893 13.9413 14.4512C14.1515 14.287 14.3323 14.0825 14.5208 13.8987C14.274 13.9941 14.0152 14.0622 13.7729 14.1483C13.7166 14.1685 13.6609 14.19 13.6066 14.2134C13.5971 14.2175 13.5875 14.2216 13.5778 14.2257C12.4421 14.6646 11.2041 14.7422 10.0607 14.6547C10.0141 14.6509 9.96748 14.6495 9.92045 14.6487L10.0967 14.7043C10.0595 14.6789 10.148 14.8021 10.1243 14.8575C10.1199 14.8767 10.117 14.8654 10.125 14.8439C10.0492 14.9458 10.1317 14.8337 10.2004 14.796C10.2752 14.7439 10.3651 14.6897 10.4576 14.6352C10.6441 14.5255 10.8434 14.414 11.0437 14.2834C11.2433 14.1487 11.4527 14.0122 11.6411 13.758C11.7322 13.6317 11.8173 13.4467 11.8084 13.2413C11.8006 13.0366 11.7114 12.8713 11.6204 12.7503C11.4869 12.5869 11.3352 12.6196 11.3057 12.6214C11.2798 12.6253 11.2635 12.6302 11.2504 12.6343C11.2231 12.6433 11.2162 12.6471 11.2078 12.6507C11.1913 12.6582 11.1834 12.6624 11.176 12.6662C11.1601 12.6746 11.1519 12.6791 11.1418 12.6845C10.7212 12.922 10.3004 12.7599 9.95131 12.4716C9.95335 12.47 9.96798 12.4758 9.9892 12.5016C10.0303 12.544 10.0459 12.6513 10.0371 12.677C10.0315 12.7074 10.034 12.692 10.0509 12.67C10.0732 12.6378 10.0933 12.6072 10.1124 12.5776C10.5503 11.8405 11.063 11.3143 11.85 11.1598C11.8684 11.1561 11.8864 11.1526 11.9046 11.1492C12.1649 11.0948 12.469 11.0255 12.5389 11.103C12.5324 11.096 12.5272 11.0889 12.5236 11.083C12.5178 11.0168 12.5059 11.28 12.4433 11.4292C12.3678 11.6556 12.266 11.8869 12.1589 12.1162Z" fill="white"/>
<path d="M12.9743 11.7927C12.9144 11.8632 12.885 11.9546 12.8925 12.0468C12.9 12.1391 12.9439 12.2245 13.0144 12.2844C13.0849 12.3443 13.1763 12.3738 13.2685 12.3662C13.3608 12.3587 13.4462 12.3149 13.5061 12.2444C13.5061 12.2444 13.5061 12.2444 13.5061 12.2444C13.7631 11.9419 14.0228 11.6401 14.2841 11.3454C14.6108 10.9806 15.0248 10.5145 15.2837 10.3298C15.2826 10.3304 15.2789 10.3322 15.2714 10.3351C15.2426 10.359 15.0742 10.3476 15.0226 10.2851C14.9733 10.237 14.982 10.2299 14.9824 10.2388C14.9891 10.2589 14.9994 10.3189 15.0035 10.379C15.0125 10.5026 15.0089 10.6458 15.0006 10.7882C14.9832 11.0753 14.9469 11.371 14.9088 11.6681C14.834 12.2648 14.7364 12.8583 14.7318 13.5087C14.7325 13.6367 14.7637 13.7549 14.8045 13.8503C14.9175 14.1038 15.0741 14.2325 15.1897 14.3336C15.2535 14.3895 15.3279 14.4428 15.4106 14.4864C15.5358 14.5536 15.6822 14.577 15.7928 14.5761C15.8644 14.5761 15.9654 14.5769 16.0782 14.5506C16.242 14.5143 16.3712 14.4072 16.4439 14.3204C16.4889 14.2664 16.5291 14.2126 16.5694 14.1618C17.0167 13.5133 17.1313 12.9253 17.354 12.3359C17.3682 12.2945 17.3826 12.252 17.3969 12.2098C17.6495 11.4638 17.8981 10.7063 18.1675 9.98748C18.18 9.95494 18.1916 9.92548 18.2031 9.89832C18.2123 9.87487 18.2355 9.82972 18.2181 9.87097C18.2143 9.87821 18.2101 9.88764 18.1938 9.91146C18.1752 9.93108 18.1676 9.97267 18.0316 10.0566C17.9848 10.0938 17.75 10.1609 17.5884 10.0822C17.4502 10.0227 17.3933 9.94454 17.3576 9.894C17.308 9.81592 17.3047 9.78829 17.2964 9.76644C17.2786 9.70252 17.2845 9.72031 17.2821 9.72263C17.28 9.75756 17.2756 9.83687 17.2696 9.90637C17.2576 10.0512 17.2417 10.2035 17.2266 10.355C17.1962 10.6591 17.1682 10.9628 17.1605 11.2718C17.1596 11.3057 17.159 11.3402 17.1587 11.3752C17.14 13.6044 17.1385 15.8266 17.1349 18.0487C17.1349 18.0596 17.1348 18.0703 17.1348 18.081C17.1342 18.6596 17.1413 19.2384 17.1517 19.8212C17.1563 20.0433 17.1589 20.2633 17.1727 20.5068C17.1728 20.5089 17.173 20.511 17.1731 20.513C17.1865 20.7078 17.5315 20.8814 17.7476 21.0402C17.7618 21.0481 17.7849 21.0527 17.8056 21.0551C17.8266 21.0573 17.8435 21.0571 17.8588 21.0524C17.8741 21.0478 17.8883 21.0387 17.9046 21.0252C17.9205 21.0118 17.9371 20.9951 17.9446 20.9807C17.9446 20.9807 17.9446 20.9807 17.9446 20.9807C18.0737 20.7964 18.4028 20.6134 18.3965 20.4558C18.3965 20.4541 18.3964 20.4524 18.3964 20.4507C18.3906 20.2544 18.3941 20.0348 18.3965 19.8174C18.4042 19.2416 18.4142 18.6607 18.4148 18.0828C18.4148 18.0721 18.4149 18.0613 18.4149 18.0505C18.4185 15.8297 18.42 13.6054 18.4386 11.3874C18.4389 11.3526 18.439 11.3184 18.4388 11.2848C18.4373 10.9779 18.4175 10.6763 18.3946 10.3688C18.3829 10.2148 18.3708 10.0614 18.3574 9.89995C18.35 9.81648 18.3451 9.74461 18.33 9.62616C18.3242 9.59263 18.3261 9.57037 18.2981 9.47049C18.2869 9.43874 18.2801 9.40194 18.2257 9.31655C18.1868 9.26123 18.1267 9.18004 17.9847 9.11891C17.8188 9.03815 17.5779 9.10667 17.5278 9.14596C17.3844 9.23393 17.3696 9.28437 17.3461 9.31094C17.324 9.34308 17.3149 9.36079 17.3068 9.37588C17.2538 9.48559 17.2525 9.51271 17.2363 9.56083C17.2239 9.60193 17.2143 9.63716 17.204 9.67449C16.9983 10.4576 16.8167 11.2169 16.6238 11.9829C16.613 12.026 16.6022 12.0694 16.5918 12.1117C16.438 12.6989 16.3246 13.3742 16.0506 13.7497C16.0288 13.7771 16.0016 13.7971 15.9732 13.811C15.941 13.822 15.941 13.7921 15.9613 13.7763C15.973 13.7653 15.971 13.7556 15.9424 13.7376C15.8972 13.7096 15.8902 13.6848 15.8782 13.6725C15.8701 13.6639 15.861 13.6532 15.8487 13.6371C15.7615 13.5462 15.7152 13.4693 15.7157 13.4631C15.7152 13.4616 15.7206 13.4756 15.7203 13.4979C15.713 12.9447 15.7364 12.3326 15.743 11.7268C15.7467 11.4216 15.7499 11.1153 15.7421 10.7988C15.7376 10.64 15.7317 10.4802 15.7099 10.3041C15.6974 10.214 15.6862 10.1257 15.6426 10.0017C15.618 9.94139 15.5918 9.86101 15.4884 9.76417C15.3792 9.64771 15.1304 9.62809 15.0273 9.68139C15.0056 9.68947 14.9853 9.69881 14.9692 9.707C14.3758 10.1224 14.1386 10.483 13.7622 10.8823C13.4958 11.1828 13.2335 11.4877 12.9743 11.7927Z" fill="white"/>
<path d="M21.5017 10.6043C21.4673 10.4544 21.3749 10.3243 21.2446 10.2426C21.1144 10.1609 20.957 10.1342 20.8071 10.1686C20.6572 10.2029 20.5271 10.2953 20.4454 10.4256C20.3637 10.5558 20.3371 10.7132 20.3714 10.8631C20.3714 10.8631 20.3714 10.8631 20.3714 10.8631C20.3895 10.9423 20.4075 11.0208 20.4251 11.0989C20.5489 11.6399 20.6442 12.1589 20.6938 12.6929C20.6938 12.6933 20.6939 12.6937 20.6939 12.6941C20.761 13.3865 21.3439 14.1151 21.3968 14.8468C21.3968 14.8476 21.3969 14.8484 21.397 14.8492C21.4114 15.0087 21.427 15.1687 21.4737 15.322C21.4972 15.3996 21.5386 15.4724 21.5986 15.5276C21.5986 15.5276 21.5986 15.5276 21.5986 15.5276C21.5386 15.4724 21.4972 15.3996 21.4737 15.322C21.427 15.1687 21.4114 15.0087 21.397 14.8492C21.3969 14.8484 21.3968 14.8476 21.3968 14.8468C21.3433 14.1088 21.9205 13.3598 21.8482 12.5843C21.8482 12.5838 21.8482 12.5834 21.8481 12.5829C21.7938 11.9935 21.6842 11.4016 21.5562 10.8437C21.5381 10.7633 21.5198 10.6835 21.5017 10.6043Z" fill="white"/>
<path d="M9.88068 21.7289C9.96236 21.6368 10.0041 21.5159 9.99668 21.393C9.98928 21.2701 9.93334 21.1552 9.84119 21.0735C9.74904 20.9918 9.62821 20.9501 9.50529 20.9575C9.38237 20.9649 9.26742 21.0208 9.18574 21.113C9.18574 21.113 9.18574 21.113 9.18574 21.113C8.85607 21.485 8.51705 21.867 8.20344 22.2847C7.85015 22.754 7.53173 23.2736 7.30355 23.8381C7.30347 23.8383 7.3034 23.8385 7.30333 23.8387C6.86845 24.9466 6.69481 26.0875 6.73182 27.2585C6.73187 27.2597 6.73192 27.2608 6.73197 27.262C6.77093 27.9266 6.86216 28.7815 7.56603 29.3749C7.56845 29.3769 7.57087 29.3789 7.5733 29.3809C9.18963 30.3911 10.5708 29.5124 11.7628 29.0786C11.7689 29.0759 11.775 29.0732 11.7811 29.0705C12.6276 28.6879 13.3083 28.1142 13.9281 27.5297C13.9321 27.5258 13.9362 27.522 13.9402 27.5181C14.5138 26.9762 15.0681 26.2788 15.2979 25.4276C15.2993 25.4227 15.3007 25.4177 15.302 25.4128C15.5264 24.5545 15.4936 23.6525 15.1202 22.8125C15.1183 22.8083 15.1164 22.8042 15.1145 22.8001C14.743 21.9819 14.0042 21.411 13.2716 21.0834C13.2686 21.082 13.2656 21.0807 13.2627 21.0793C12.4439 20.7113 11.5753 20.5481 10.7096 20.5196C10.7076 20.5195 10.7055 20.5195 10.7035 20.5194C9.84023 20.4887 8.92093 20.6505 8.13049 21.063C8.12975 21.0634 8.129 21.0638 8.12826 21.0642C7.48286 21.4007 7.07496 22.0036 6.63672 22.4997C6.54641 22.6028 6.45331 22.7036 6.35674 22.7993C6.35664 22.7994 6.35653 22.7995 6.35643 22.7996C6.09564 23.0551 5.8416 23.3601 5.69404 23.7031C5.6811 23.7301 5.67942 23.7611 5.68937 23.7894C5.69932 23.8176 5.72009 23.8408 5.74711 23.8537C5.77412 23.8667 5.80517 23.8683 5.83342 23.8584C5.86167 23.8484 5.88482 23.8277 5.89776 23.8006C5.89776 23.8006 5.89776 23.8006 5.89776 23.8006C6.03971 23.474 6.25963 23.2129 6.51545 22.96C6.51555 22.9599 6.51566 22.9598 6.51576 22.9597C6.60915 22.8672 6.71352 22.7834 6.82282 22.7085C7.35917 22.3422 8.01338 22.1673 8.54375 21.9393C8.54437 21.9391 8.54499 21.9388 8.54561 21.9385C9.20914 21.652 9.92499 21.551 10.6669 21.5829C10.6686 21.583 10.6704 21.5831 10.6721 21.5832C11.4167 21.6146 12.1623 21.7665 12.8168 22.0621C12.8192 22.0632 12.8215 22.0643 12.8239 22.0654C13.4202 22.3345 13.9155 22.7214 14.1658 23.2479C14.1671 23.2506 14.1684 23.2534 14.1697 23.2561C14.4344 23.8116 14.4932 24.5293 14.3281 25.1492C14.3271 25.1528 14.3262 25.1563 14.3252 25.1599C14.1632 25.7704 13.7593 26.3071 13.2478 26.7912C13.2442 26.7946 13.2406 26.798 13.237 26.8014C12.6566 27.3517 12.0414 27.8537 11.3721 28.1537C11.3673 28.1558 11.3625 28.1579 11.3577 28.16C10.2715 28.6389 8.85692 29.1155 8.21166 28.5995C8.21048 28.5986 8.20929 28.5976 8.20811 28.5966C7.88901 28.351 7.75618 27.8015 7.72461 27.2115C7.72455 27.2105 7.7245 27.2095 7.72444 27.2085C7.67591 26.1968 7.79443 25.118 8.16378 24.1879C8.16384 24.1877 8.1639 24.1876 8.16397 24.1874C8.35614 23.7124 8.62628 23.2673 8.94612 22.8422C9.22966 22.4642 9.55082 22.1009 9.88068 21.7289Z" fill="white"/>
<path d="M16.5271 22.529C16.5224 22.6407 16.5623 22.7497 16.638 22.8321C16.7137 22.9144 16.819 22.9633 16.9307 22.968C17.0425 22.9726 17.1515 22.9328 17.2338 22.8571C17.3161 22.7814 17.365 22.6761 17.3697 22.5644C17.3697 22.5644 17.3697 22.5644 17.3697 22.5644C17.3714 22.5234 17.3731 22.4857 17.3754 22.4634C17.3761 22.4533 17.3784 22.4445 17.3748 22.4607C17.3717 22.4704 17.3716 22.4836 17.3457 22.5337C17.3312 22.5583 17.3108 22.5981 17.2458 22.651C17.1852 22.7053 17.0454 22.7503 16.9516 22.7343C16.9517 22.7343 16.9518 22.7343 16.9519 22.7343C16.9718 22.7416 16.9435 22.721 16.9687 22.75C16.989 22.7785 17.0192 22.8581 17.035 22.9497C17.1497 23.952 16.7647 25.1626 16.5032 26.3577C16.5032 26.3579 16.5035 26.3554 16.5057 26.347C16.5071 26.3421 16.507 26.34 16.5147 26.3174C16.5352 26.2835 16.4912 26.306 16.6224 26.1474C16.67 26.0725 16.9657 25.939 17.1669 26.0596C17.2589 26.1068 17.3049 26.162 17.334 26.2004C17.3472 26.2185 17.3537 26.2291 17.361 26.2414C17.3879 26.2881 17.3961 26.3152 17.4029 26.3354C17.415 26.3759 17.4151 26.3857 17.4164 26.3914C17.4185 26.4043 17.4187 26.4084 17.4188 26.4091C17.4189 26.41 17.418 26.3907 17.4179 26.3728C17.4298 25.6105 17.4999 24.7625 17.6169 23.987C17.6314 23.8947 17.646 23.8066 17.6618 23.7163C17.7269 23.3463 17.8032 22.9824 17.905 22.6362C17.9554 22.4658 18.0136 22.2967 18.0797 22.1489C18.1128 22.075 18.1479 22.0068 18.1826 21.9522C18.2046 21.9039 18.289 21.8446 18.1923 21.909C18.0297 21.9932 17.8699 21.9256 17.8488 21.9095C17.8139 21.8884 17.82 21.888 17.826 21.8955C17.9925 22.0866 18.1852 22.5723 18.3307 22.9669C18.3529 23.027 18.3745 23.0877 18.3956 23.1489C18.6852 23.9372 18.7313 24.788 19.1846 25.7739C19.2367 25.8755 19.3237 25.9915 19.4497 26.0767C19.7415 26.2692 20.0264 26.2078 20.1835 26.151C20.3516 26.0881 20.4677 26.0047 20.5773 25.9201C20.6246 25.8829 20.6702 25.8445 20.7145 25.8059C21.3355 25.2322 21.4962 24.5387 21.701 23.9209L21.7141 23.8695C21.7181 23.8416 21.722 23.814 21.726 23.7867C21.8256 23.0836 21.9374 22.3901 21.9859 21.658C21.9874 21.438 22.0357 21.2651 21.9226 20.9258L21.885 20.8313L21.7835 20.7793C21.7692 20.7724 21.7543 20.7664 21.7392 20.7616C21.4919 20.7129 21.4459 20.8176 21.4005 20.8505C21.3597 20.8958 21.3405 20.9381 21.3244 20.9802C21.2938 21.0641 21.2827 21.1462 21.2618 21.2196C21.2564 21.2399 21.2598 21.2662 21.2674 21.2896C21.2753 21.3133 21.2867 21.3321 21.303 21.3451C21.3193 21.3581 21.3402 21.365 21.365 21.3674C21.3896 21.3695 21.4159 21.367 21.4345 21.3572C21.4345 21.3572 21.4345 21.3572 21.4345 21.3572C21.4986 21.324 21.5745 21.3014 21.6389 21.2877C21.6705 21.2813 21.7007 21.2767 21.7149 21.2816C21.7236 21.2766 21.7424 21.3385 21.5635 21.3089C21.5528 21.3055 21.5422 21.3013 21.5322 21.2965L21.393 21.1499C21.4109 21.1935 21.4079 21.4375 21.3892 21.6147C21.3214 22.2895 21.1929 22.9851 21.0582 23.6717C21.0528 23.6985 21.0474 23.7256 21.0418 23.7529L21.0549 23.7015C20.84 24.2756 20.5413 24.8497 20.1554 25.0961C20.1285 25.1135 20.1003 25.1281 20.0715 25.1403C20.0088 25.1667 19.9404 25.1787 19.9106 25.1716C19.873 25.1696 19.9316 25.1218 20.0502 25.1952C20.0973 25.2269 20.1234 25.2667 20.1316 25.2833C19.8221 24.6501 19.6908 23.6873 19.3572 22.8042C19.3312 22.7338 19.3036 22.6636 19.2743 22.5936C19.0706 22.1447 18.9347 21.7524 18.5107 21.2369C18.4656 21.1915 18.4164 21.141 18.3169 21.0828C18.2327 21.0301 17.9924 20.9417 17.7622 21.0617C17.4964 21.2213 17.4637 21.3295 17.3811 21.4406C17.3104 21.5516 17.2591 21.6539 17.2119 21.7575C17.1193 21.9626 17.05 22.165 16.9901 22.363C16.8703 22.7632 16.7871 23.1559 16.7175 23.5509C16.7006 23.6471 16.6852 23.7407 16.6699 23.8382C16.5437 24.6963 16.478 25.5023 16.4718 26.3912C16.4726 26.421 16.4732 26.4484 16.477 26.4921C16.4781 26.5048 16.4799 26.5228 16.4836 26.545C16.4855 26.5544 16.4871 26.5725 16.501 26.6186C16.5087 26.6417 16.5178 26.6709 16.5456 26.7193C16.5532 26.7321 16.5599 26.743 16.5734 26.7615C16.6032 26.8008 16.6499 26.8565 16.7426 26.9041C16.9451 27.0254 17.2422 26.8915 17.2914 26.815C17.4262 26.6522 17.3832 26.6716 17.4062 26.6311C17.4164 26.601 17.4176 26.5942 17.4202 26.5848C17.4248 26.5667 17.4278 26.5524 17.4305 26.5385C17.6526 25.3803 18.043 24.2108 17.8696 22.7879C17.8368 22.6315 17.7898 22.4561 17.6661 22.2727C17.5506 22.088 17.2878 21.9147 17.0503 21.8968C17.0494 21.8967 17.0486 21.8966 17.0477 21.8965C16.9436 21.8791 16.7932 21.9274 16.7244 21.9882C16.6513 22.0475 16.6248 22.0962 16.6054 22.1298C16.5696 22.1982 16.5636 22.2313 16.5555 22.2612C16.5422 22.3178 16.5394 22.3502 16.5361 22.3815C16.5304 22.4418 16.529 22.4871 16.5271 22.529Z" fill="white"/>
<path d="M22.26 20.9026C22.2272 20.9582 22.2179 21.0246 22.234 21.0871C22.2501 21.1496 22.2904 21.2032 22.3461 21.236C22.4017 21.2688 22.4681 21.2781 22.5306 21.262C22.5931 21.2458 22.6466 21.2055 22.6794 21.1499C22.6794 21.1499 22.6794 21.1499 22.6794 21.1499C22.7605 21.0125 22.8434 20.8779 22.93 20.7477C23.123 20.4549 23.393 20.1127 23.5833 20.0662C23.5829 20.0663 23.5825 20.0663 23.5821 20.0664C23.5284 20.0644 23.5688 20.0837 23.5881 20.1703C23.6096 20.2505 23.6201 20.3516 23.6415 20.4531L23.632 20.3882C23.632 20.3905 23.6321 20.3928 23.6322 20.3951C23.6928 22.3077 23.58 24.2094 23.6356 26.159L23.6393 26.2027C23.6396 26.2044 23.6398 26.206 23.64 26.2077C23.6739 26.607 23.9713 27.1025 24.3441 27.2751C24.5085 27.3642 24.6806 27.4221 24.8629 27.4675C24.8105 27.2873 24.7519 27.1179 24.7014 26.9623C24.5796 26.6046 24.5825 26.4049 24.5378 26.0853C24.5376 26.084 24.5374 26.0827 24.5372 26.0815L24.541 26.1251C24.4864 24.2343 24.4581 22.2885 24.314 20.3614C24.3138 20.359 24.3137 20.3567 24.3135 20.3543L24.3039 20.2894C24.264 20.1452 24.1922 20.0042 24.082 19.8674C23.9748 19.7465 23.804 19.541 23.4862 19.5891C23.4829 19.5897 23.4797 19.5904 23.4764 19.5911C22.9241 19.7863 22.7636 20.1608 22.5246 20.478C22.4314 20.6181 22.3444 20.7596 22.26 20.9026Z" fill="white"/>
<path d="M25.9796 19.3644C25.9687 19.2694 25.9206 19.1825 25.8457 19.1229C25.7708 19.0634 25.6753 19.036 25.5802 19.0468C25.4852 19.0576 25.3983 19.1058 25.3387 19.1807C25.2792 19.2556 25.2518 19.351 25.2626 19.4461C25.2626 19.4461 25.2626 19.4461 25.2626 19.4461C25.3093 19.8548 25.3656 20.2631 25.4354 20.6708C25.6183 21.6312 25.7756 22.5998 26.3705 23.5338C26.4038 23.5813 26.4423 23.629 26.4832 23.6727C26.893 24.0873 27.3673 23.9311 27.6864 23.8892C27.7515 23.8784 27.8153 23.8656 27.8777 23.8517C28.3909 23.7025 28.5697 23.3071 28.7451 22.9915C28.9107 22.6595 29.0279 22.3222 29.1325 21.9832C29.3393 21.3062 29.4822 20.6202 29.6344 19.9501C29.652 19.8737 29.6704 19.7968 29.689 19.7253C29.698 19.6907 29.7058 19.6645 29.7126 19.6446C29.7172 19.6308 29.721 19.6219 29.7221 19.6205C29.7067 19.6212 29.7813 19.6104 29.6051 19.7253C29.5205 19.7721 29.3629 19.7249 29.3252 19.6748C29.2906 19.6399 29.2892 19.6315 29.2801 19.6173C29.267 19.5931 29.266 19.5854 29.2653 19.5846C29.2645 19.583 29.266 19.5906 29.2675 19.603C29.27 19.6241 29.2723 19.6528 29.2739 19.6842C29.28 19.8086 29.2786 19.9332 29.2759 20.0699C29.2698 20.3328 29.2553 20.6018 29.2381 20.8706C29.2034 21.4057 29.1568 21.945 29.1122 22.4842C29.025 23.564 28.9317 24.6438 28.9673 25.7556C28.9712 25.8611 28.9766 25.9673 28.9835 26.0726C29.0862 27.5549 29.3169 28.9917 29.6035 30.4271C29.6126 30.4718 29.6216 30.5156 29.6308 30.5593C29.7828 31.2807 30.3972 31.8867 30.7873 32.4979C30.8603 32.6125 30.926 32.7281 30.9813 32.8482C30.9856 32.8577 30.9898 32.867 30.9939 32.8762C31.1015 33.1152 31.2176 33.3571 31.4033 33.5458C31.2176 33.3571 31.1015 33.1152 30.9939 32.8762C30.9898 32.867 30.9858 32.8576 30.9818 32.848C30.9307 32.726 30.897 32.5969 30.8761 32.4641C30.7629 31.7423 31.0255 30.9683 30.8835 30.2968C30.8749 30.2555 30.8664 30.2142 30.8578 30.172C30.5794 28.7836 30.3442 27.371 30.2199 25.9803C30.2115 25.8818 30.2033 25.7831 30.1956 25.6857C30.1191 24.6499 30.0532 23.5682 29.9863 22.494C29.9536 21.9558 29.9238 21.4153 29.8974 20.8754C29.8839 20.6039 29.8717 20.3322 29.8566 20.0597C29.8484 19.9164 29.8412 19.7897 29.8255 19.6381C29.8211 19.5984 29.8165 19.5605 29.809 19.5176C29.8043 19.4913 29.7992 19.4664 29.7912 19.4387C29.7859 19.4209 29.777 19.3907 29.757 19.3544C29.744 19.3333 29.7403 19.3212 29.6997 19.2803C29.6542 19.2228 29.4884 19.1736 29.395 19.2241C29.2539 19.3031 29.282 19.3175 29.2528 19.3505C29.2351 19.3805 29.2284 19.3981 29.2239 19.4088C29.2137 19.4336 29.2058 19.4575 29.198 19.4833C29.1871 19.5201 29.1782 19.5556 29.1683 19.5986C29.1507 19.6759 29.1333 19.7559 29.1163 19.8343C28.9711 20.5163 28.8368 21.1862 28.6423 21.8345C28.4572 22.4424 28.1676 23.2336 27.7672 23.3569C27.7122 23.3692 27.6577 23.3801 27.6039 23.3889C27.3165 23.4449 27.049 23.3134 27.0293 23.2177C27.0077 23.1864 26.9845 23.1527 26.9612 23.1194C26.5118 22.4309 26.3108 21.4597 26.1466 20.5489C26.0795 20.157 26.0248 19.7614 25.9796 19.3644Z" fill="white"/>
<path d="M30.6712 20.2507C30.6343 20.3402 30.6344 20.4408 30.6717 20.5302C30.7089 20.6196 30.7801 20.6905 30.8696 20.7274C30.9592 20.7643 31.0597 20.7642 31.1491 20.7269C31.2386 20.6897 31.3095 20.6185 31.3464 20.529C31.3464 20.529 31.3464 20.529 31.3464 20.529C31.3874 20.4296 31.4287 20.3318 31.4714 20.2351C31.5304 20.1016 31.5917 19.9698 31.656 19.8493C31.7093 19.7385 31.8252 19.5895 31.8011 19.6181C31.801 19.6181 31.8009 19.6182 31.8008 19.6183C31.78 19.631 31.759 19.669 31.6964 19.6892C31.6359 19.711 31.5479 19.6905 31.5175 19.6582C31.5174 19.6581 31.5173 19.658 31.5172 19.6579C31.4791 19.6115 31.5235 19.7135 31.5251 19.8264C31.5327 19.9425 31.5317 20.0798 31.5284 20.2198C31.5212 20.5015 31.5071 20.7993 31.5083 21.0994C31.5083 21.0966 31.5083 21.0994 31.5083 21.1022C31.5072 21.7782 31.616 22.47 31.8079 23.1828C31.8086 23.1852 31.8093 23.1875 31.8099 23.1898C31.8908 23.4904 32.1097 23.8552 32.4247 23.9829C32.5372 24.0338 32.6493 24.0629 32.7591 24.0897C32.7591 24.0897 32.7591 24.0897 32.7591 24.0897C32.6765 24.0128 32.5999 23.9283 32.5443 23.8393C32.3928 23.5995 32.4315 23.3634 32.4304 23.0966C32.4304 23.0946 32.4305 23.0927 32.4305 23.0907C32.447 22.4579 32.6028 21.7875 32.605 21.109C32.6051 21.1061 32.6051 21.1033 32.6051 21.1005C32.6033 20.797 32.5925 20.4986 32.5656 20.1836C32.5515 20.0254 32.5344 19.8641 32.4998 19.6848C32.4554 19.5068 32.4418 19.2982 32.2034 19.0249C32.2029 19.0243 32.2024 19.0238 32.2019 19.0233C32.1076 18.9211 31.9313 18.8518 31.7759 18.8652C31.6187 18.8761 31.5017 18.9421 31.4018 19.0066C31.4013 19.0069 31.4008 19.0072 31.4003 19.0075C31.1318 19.2201 31.1057 19.3532 31.012 19.5049C30.9334 19.6524 30.8668 19.7965 30.8032 19.9403C30.7574 20.0441 30.7139 20.147 30.6712 20.2507Z" fill="white"/>
<path d="M31.5498 16.6592C31.5446 16.6785 31.5393 16.6978 31.5341 16.7171C31.4683 16.9743 31.382 17.2307 31.3753 17.498C31.3754 17.4994 31.3754 17.5008 31.3755 17.5022C31.3691 17.5974 31.4513 17.6819 31.5473 17.6738C31.5673 17.6748 31.5873 17.6748 31.6073 17.6748C31.6073 17.6748 31.6073 17.6748 31.6073 17.6748C31.5873 17.6748 31.5673 17.6748 31.5473 17.6738C31.4513 17.6819 31.3691 17.5974 31.3755 17.5022C31.3754 17.5008 31.3754 17.4994 31.3753 17.498C31.382 17.2307 31.4683 16.9743 31.5341 16.7171C31.5393 16.6978 31.5446 16.6785 31.5498 16.6592Z" fill="white"/>
<path d="M23.3616 19.0358C23.2558 19.0624 23.1648 19.1299 23.1087 19.2236C23.0527 19.3173 23.0361 19.4294 23.0627 19.5353C23.0893 19.6411 23.1569 19.7321 23.2505 19.7882C23.3442 19.8442 23.4563 19.8608 23.5622 19.8342C23.5622 19.8342 23.5622 19.8342 23.5622 19.8342C23.9816 19.7288 24.4008 19.6236 24.8199 19.5189C25.899 19.2496 26.9777 18.9852 28.0591 18.7342C28.0591 18.7342 28.0591 18.7342 28.0591 18.7342C30.0276 18.2753 32.0094 17.8722 33.9977 17.4739C33.9977 17.4739 33.9977 17.4739 33.9977 17.4739C37.1186 16.8512 40.1791 15.8712 43.3089 15.2794C43.3089 15.2794 43.3089 15.2794 43.3089 15.2794C44.741 15.0089 46.1692 14.7397 47.5999 14.4714C48.0245 14.3918 48.4499 14.3121 48.8748 14.2325C48.4499 14.3121 48.0245 14.3918 47.5999 14.4714C46.1692 14.7397 44.741 15.0089 43.3089 15.2794C43.3089 15.2794 43.3089 15.2794 43.3089 15.2794C40.1792 15.8712 36.9722 16.0762 33.8416 16.681C33.8416 16.681 33.8416 16.681 33.8416 16.681C31.848 17.0677 29.8552 17.4702 27.8729 17.9323C27.8729 17.9323 27.8729 17.9323 27.8729 17.9323C26.7852 18.1848 25.7017 18.4503 24.6206 18.7202C24.2006 18.825 23.781 18.9304 23.3616 19.0358Z" fill="white"/>
<path d="M-1.55259 31.2715C-1.66092 31.3437 -1.73612 31.456 -1.76166 31.5837C-1.78719 31.7114 -1.76096 31.844 -1.68874 31.9523C-1.61652 32.0606 -1.50422 32.1358 -1.37655 32.1614C-1.24888 32.1869 -1.11629 32.1607 -1.00796 32.0885C-1.00796 32.0885 -1.00796 32.0885 -1.00796 32.0885C-0.154009 31.517 0.727667 30.9982 1.63877 30.5177C2.57897 30.021 3.54426 29.5576 4.51609 29.1052C4.83144 28.9586 5.12495 28.8237 5.44125 28.6803C6.04108 28.4082 6.66496 28.1535 7.27608 27.9014C8.48408 27.405 9.72329 26.9341 10.9502 26.5334C11.4313 26.3801 11.9272 26.1768 12.3478 26.1281C12.419 26.1135 12.5391 26.1439 12.416 26.1081C12.3917 26.0995 12.2789 26.0395 12.22 25.917C12.1544 25.7923 12.1787 25.6531 12.1884 25.6276C12.2178 25.5417 12.2173 25.5684 12.202 25.5825C12.1297 25.6702 11.9724 25.8004 11.8131 25.9183C11.4938 26.1542 11.1378 26.379 10.773 26.5995C9.7464 27.2274 8.75598 27.8287 7.82932 28.6334C7.74855 28.7049 7.60404 28.8416 7.51079 28.9419C7.46059 28.9952 7.41365 29.0481 7.36984 29.1009C7.31304 29.1695 7.25624 29.2454 7.2084 29.3195C7.15812 29.399 7.12401 29.4555 7.07668 29.567C7.02887 29.6833 6.99539 29.8119 6.99322 29.9525C6.98758 30.0921 7.03532 30.2919 7.12754 30.4302C7.22942 30.5835 7.31106 30.647 7.41621 30.721C8.19235 31.1316 8.65963 31.0434 9.24013 31.0814C9.37015 31.0833 9.50665 31.1272 9.64827 31.1278C10.409 31.131 11.1896 31.0993 11.9222 31.0258C12.2001 30.9977 12.4947 30.9632 12.7602 30.9319C14.3285 30.7464 15.8858 30.527 17.4395 30.2984C22.5693 29.5361 27.6295 28.4767 32.7678 27.9034C33.3632 27.8371 33.9622 27.7762 34.5563 27.7216C37.3229 27.4684 40.094 27.2504 42.8638 27.051C43.3753 27.0144 43.8857 26.9525 44.3968 26.8929C44.9972 26.8231 45.5973 26.7563 46.1994 26.7397C46.6365 26.7279 47.0842 26.7192 47.5197 26.72C47.0842 26.7192 46.6365 26.7279 46.1994 26.7397C45.5974 26.7563 44.9942 26.7365 44.3891 26.7205C43.8741 26.7069 43.3591 26.6961 42.8458 26.7142C40.0663 26.8135 37.2888 26.9814 34.5127 27.1467C33.9139 27.1825 33.3101 27.2229 32.7095 27.2661C27.5313 27.6392 22.3564 28.1488 17.2345 28.9099C15.6847 29.138 14.1366 29.3726 12.5959 29.5624C12.3352 29.5944 12.0464 29.6267 11.7758 29.6573C11.0632 29.7374 10.3143 29.8453 9.61173 29.8935C9.48153 29.902 9.35802 29.9501 9.24025 29.952C8.75782 29.9637 8.17987 29.92 8.01133 29.8202C7.98633 29.7934 8.07429 29.8972 8.06161 29.9614C8.05329 30.014 8.06108 29.948 8.10218 29.8875C8.20612 29.7245 8.35061 29.577 8.5309 29.412C9.32446 28.7117 10.3086 28.0936 11.3065 27.4804C11.6867 27.2482 12.0574 27.0139 12.4256 26.741C12.6181 26.5924 12.7829 26.4781 12.9977 26.2277C13.0575 26.1465 13.1118 26.0978 13.1749 25.9033C13.1975 25.838 13.2263 25.627 13.1365 25.4597C13.0588 25.2938 12.8874 25.1925 12.8223 25.168C12.4881 25.0552 12.4067 25.1059 12.2498 25.1088C11.6272 25.1849 11.1271 25.3002 10.6044 25.463C9.31492 25.8845 8.08301 26.4159 6.86945 26.9485C6.25632 27.2187 5.64134 27.5114 5.03577 27.7861C4.7164 27.9309 4.42021 28.067 4.10209 28.2149C3.12176 28.6713 2.14385 29.1405 1.1798 29.6497C0.246589 30.1417 -0.672978 30.6827 -1.55259 31.2715Z" fill="black"/>
</g>
<defs>
<clipPath id="clip0_7028_2419">
<rect width="32" height="32" fill="white"/>
</clipPath>
</defs>
</svg>
