<svg width="78" height="43" viewBox="0 0 78 43" fill="none" xmlns="http://www.w3.org/2000/svg">
<path d="M30.0277 11.728C29.7635 11.9599 29.6022 12.2873 29.5794 12.6381C29.5565 12.9889 29.674 13.3344 29.9059 13.5986C30.1378 13.8628 30.4651 14.0241 30.8159 14.0469C31.1667 14.0698 31.5122 13.9523 31.7764 13.7204C31.7764 13.7204 31.7764 13.7204 31.7764 13.7204C33.4591 12.2485 35.243 10.8949 37.1466 9.94518C38.0811 9.48236 39.0464 9.12673 39.9889 8.97558C39.9984 8.97406 40.0078 8.97257 40.0173 8.9711C41.8039 8.67534 43.6049 9.25143 44.6427 10.4328C44.643 10.4342 44.6434 10.4355 44.6438 10.437C44.6805 10.417 44.7389 11.1057 44.4828 11.8043C44.4533 11.8963 44.421 11.9885 44.3853 12.0824C43.9523 13.1923 43.1057 14.3901 42.1757 15.3536C42.0063 15.5283 41.8325 15.6964 41.6551 15.8562C40.7096 16.7114 39.5877 17.3581 38.3267 17.876C38.0874 17.9748 37.8431 18.0689 37.5945 18.1597C36.359 18.611 35.0774 18.9539 33.774 19.241C33.5594 19.2882 33.344 19.3335 33.128 19.3768C31.1588 19.7689 29.125 19.9904 27.1631 19.9659C27.04 19.9639 26.9171 19.9622 26.7975 19.9602C26.8062 19.9628 26.798 19.9567 26.9243 19.9797C26.9666 19.9894 26.9965 19.9916 27.1268 20.0362C27.1909 20.0618 27.2586 20.078 27.4438 20.1929C27.5342 20.2577 27.6218 20.2961 27.8257 20.5403C28.0037 20.7604 28.2107 21.1742 28.1592 21.6807C28.136 21.9179 28.0595 22.1253 27.9753 22.2796C27.9029 22.4105 27.8503 22.4775 27.7904 22.5495C27.6779 22.6824 27.5627 22.7703 27.5087 22.8088C27.4023 22.8844 27.3204 22.9245 27.2717 22.9476C27.1858 22.9873 27.1349 23.003 27.108 23.0117C26.9284 23.0598 27.027 23.027 27.0528 23.0245C27.1397 23.0078 27.2718 22.9905 27.4024 22.9764C27.6677 22.9479 27.9575 22.9278 28.2453 22.9187C28.3246 22.9162 28.3973 22.9141 28.4776 22.9122C31.2243 22.8589 34.0368 22.9117 36.7488 23.2088C36.792 23.2137 36.835 23.2186 36.8779 23.2237C39.6061 23.5288 42.1954 24.1921 44.7241 25.2494C44.8463 25.2998 44.9702 25.3517 45.0923 25.4035C47.6215 26.493 50.1404 27.8552 52.2686 29.4316C52.3735 29.5111 52.4752 29.5903 52.5741 29.6696C53.5814 30.4359 54.2988 31.4347 54.1601 31.7763C54.1596 31.781 54.1589 31.7856 54.1583 31.7902C54.1611 32.1613 53.395 32.8744 52.3998 33.3527C52.3529 33.3766 52.3058 33.4001 52.2574 33.4238C50.1685 34.4243 47.5269 34.8197 44.9263 35.0699C44.8977 35.0726 44.869 35.0752 44.8402 35.0778C40.5969 35.4405 36.241 35.3169 31.9558 35.1093C31.7324 35.0978 31.5114 35.0859 31.2889 35.0735C27.781 34.88 24.3005 34.4869 20.8536 33.8413C20.4805 33.7718 20.1086 33.6997 19.738 33.6246C17.4177 33.1495 15.1124 32.5759 13.0454 31.7255C12.6438 31.5586 12.2581 31.3813 11.8958 31.19C10.8248 30.6217 9.89517 30.125 9.19739 29.2439C8.99102 28.9841 8.80514 28.687 8.65008 28.3652C8.17371 27.3736 7.78602 26.1768 7.83523 24.951C7.83635 24.9256 7.83766 24.9003 7.83916 24.875C7.84849 24.7194 7.86593 24.5638 7.8919 24.4091C8.07497 23.2654 8.61966 22.1042 9.46885 21.222C9.48891 21.2009 9.50895 21.1801 9.52896 21.1597C10.1304 20.5358 10.8182 20.0039 11.5321 19.5156C11.5321 19.5156 11.5321 19.5156 11.5321 19.5156C10.8182 20.0039 10.1304 20.5358 9.52896 21.1597C9.50895 21.1801 9.48875 21.2007 9.46837 21.2215C8.61666 22.0855 7.72171 22.9875 7.18757 24.1912C7.11588 24.3522 7.04814 24.5163 6.98514 24.6838C6.97493 24.7108 6.96482 24.738 6.95482 24.7654C6.48276 26.0746 6.24429 27.5416 6.52206 29.0233C6.61407 29.5001 6.74467 29.981 6.93346 30.4582C7.5483 32.079 8.89539 33.4295 10.2883 34.1726C10.764 34.4327 11.2413 34.6581 11.7182 34.8629C14.149 35.8917 16.5955 36.4973 19.0361 37.0194C19.4249 37.1013 19.8138 37.1799 20.2026 37.2556C23.7929 37.959 27.4447 38.4124 31.0916 38.6131C31.323 38.626 31.5528 38.6376 31.785 38.6481C36.2406 38.8339 40.6589 38.6806 45.1372 38.2797C45.1677 38.2768 45.1982 38.2739 45.2286 38.271C47.9998 37.9759 50.8372 37.6347 53.6651 36.298C53.7303 36.266 53.7943 36.2339 53.8586 36.2009C55.1289 35.4986 56.8316 34.4978 57.21 32.1642C57.2129 32.1394 57.2156 32.1145 57.2181 32.0896C57.3321 29.4559 55.5777 28.2502 54.463 27.2836C54.3392 27.1866 54.2143 27.0918 54.0874 26.998C51.5779 25.1961 48.9646 23.902 46.2329 22.7181C46.1015 22.6622 45.9679 22.6063 45.8357 22.5519C43.1164 21.4088 40.1422 20.6475 37.2169 20.3258C37.1708 20.3204 37.1246 20.315 37.0783 20.3098C34.1782 19.9905 31.334 19.8397 28.4389 19.8277C28.3515 19.8279 28.2718 19.8283 28.1842 19.8291C27.865 19.8322 27.5401 19.8319 27.1966 19.843C27.0228 19.8492 26.8492 19.8564 26.6356 19.879C26.5106 19.8974 26.4555 19.8857 26.13 19.978C26.087 19.9918 26.0144 20.0154 25.9138 20.0622C25.8562 20.0894 25.7646 20.1349 25.6519 20.2151C25.5943 20.256 25.4742 20.3481 25.359 20.4843C25.2976 20.558 25.244 20.6264 25.1704 20.7594C25.0849 20.9161 25.0077 21.1259 24.9842 21.3654C24.9323 21.8767 25.1408 22.2945 25.322 22.5185C25.5295 22.7671 25.6202 22.8077 25.7145 22.8751C25.9082 22.9954 25.9844 23.015 26.0573 23.0438C26.2079 23.0954 26.2536 23.1011 26.3158 23.1147C26.5164 23.1517 26.585 23.1506 26.6709 23.1565C26.8164 23.165 26.9626 23.1707 27.1074 23.1733C29.3797 23.2031 31.5776 22.9611 33.7591 22.5298C33.9948 22.4826 34.2305 22.4332 34.466 22.3813C35.8966 22.0662 37.3142 21.6398 38.7005 21.1071C38.9785 21.0003 39.2579 20.8884 39.5375 20.7701C41.0085 20.1536 42.4935 19.3042 43.7419 18.1614C43.974 17.9504 44.1965 17.733 44.4109 17.51C45.5896 16.2559 46.5861 14.9223 47.2783 13.1733C47.332 13.0302 47.382 12.8861 47.4288 12.7371C47.7301 11.6306 48.1185 10.1074 46.8772 8.52327C46.8411 8.48219 46.8039 8.442 46.7655 8.40282C44.8356 6.45079 42.0005 5.95133 39.6088 6.35177C39.5957 6.35382 39.5826 6.35589 39.5695 6.35799C38.2633 6.56987 37.0722 7.02576 35.9699 7.56966C33.734 8.68952 31.8206 10.1638 30.0277 11.728Z" fill="white"/>
<path d="M52.9842 10.2597C52.7458 10.6233 52.6615 11.0666 52.7499 11.4923C52.8384 11.9179 53.0923 12.291 53.4558 12.5295C53.8193 12.7679 54.2627 12.8522 54.6883 12.7637C55.114 12.6753 55.4871 12.4214 55.7255 12.0579C55.7255 12.0579 55.7255 12.0579 55.7255 12.0579C55.9198 11.7617 56.1121 11.4684 56.3032 11.1825C56.4509 10.9616 56.5984 10.7442 56.742 10.5418C56.8738 10.3526 57.0638 10.1107 57.0774 10.1016C57.02 10.1591 56.9442 10.2283 56.8298 10.3042C56.7107 10.3759 56.5866 10.4695 56.235 10.5421C55.9172 10.6112 55.463 10.534 55.2026 10.3861C54.9214 10.2401 54.7455 10.0433 54.6518 9.91593C54.3762 9.49682 54.4232 9.42903 54.3907 9.34471C54.3536 9.11211 54.3783 9.25186 54.3701 9.29754C54.3672 9.36685 54.3608 9.44936 54.3515 9.54129C54.3333 9.72051 54.3056 9.91724 54.273 10.1154C54.2076 10.5134 54.1227 10.9223 54.0309 11.3283C53.8458 12.1467 53.6315 12.9637 53.4384 13.7875C53.4225 13.855 53.4066 13.9223 53.3908 13.9894C52.8948 16.1755 52.034 18.2699 51.3954 20.8045L51.3699 20.928C51.3627 20.9698 51.3555 21.0115 51.3484 21.0532C51.0774 22.687 51.2004 24.3691 51.4755 26.0866C51.4837 26.1359 51.4922 26.1868 51.5009 26.2366C51.5031 26.2493 51.5057 26.2619 51.5086 26.2746L51.5266 26.4286C51.595 26.6536 51.7383 26.9051 51.9868 27.1765C52.2249 27.4533 52.6487 27.6815 52.8098 27.6905C52.9788 27.716 53.1989 27.6667 53.3916 27.5918C53.586 27.5147 53.7371 27.4182 53.8417 27.2852C53.9464 27.1523 54.0048 26.9828 54.0342 26.7757C54.0618 26.5709 54.0581 26.3453 53.9937 26.187C53.9937 26.187 53.9937 26.187 53.9937 26.187C53.9176 26.0172 54.121 26.0324 54.2282 26.0391C54.3422 26.0436 54.4132 26.0027 54.4308 25.9335L54.4488 26.0876C54.4503 26.0777 54.4515 26.0677 54.4523 26.0578C54.4556 26.0188 54.4591 25.9787 54.463 25.9396C54.6032 24.5583 55.0547 23.1415 55.2922 21.7214C55.2984 21.6849 55.3047 21.6482 55.311 21.6116L55.2856 21.735C55.7981 19.6457 56.6342 17.2631 57.0968 14.7748C57.1115 14.6979 57.1257 14.6206 57.1395 14.5428C57.2942 13.6597 57.3952 12.7707 57.4799 11.8671C57.5216 11.4175 57.5596 10.9637 57.5938 10.4963C57.6107 10.262 57.6268 10.0253 57.6392 9.77315C57.6455 9.64167 57.6506 9.51747 57.6524 9.36366C57.6471 9.19171 57.6752 9.11061 57.5985 8.66781C57.5555 8.53551 57.5904 8.42353 57.2906 7.97048C57.1897 7.83303 57.0045 7.62756 56.7141 7.47687C56.4449 7.32423 55.9791 7.24488 55.65 7.31623C55.2857 7.39131 55.1533 7.48959 55.0252 7.56705C54.9019 7.6488 54.8167 7.7258 54.7496 7.79311C54.1174 8.4921 53.9219 8.86739 53.5777 9.36046C53.375 9.66378 53.1787 9.96334 52.9842 10.2597Z" fill="white"/>
<path d="M54.3752 4.75651C54.0455 4.59282 53.6641 4.56684 53.3152 4.6843C52.9662 4.80175 52.6783 5.05301 52.5146 5.38281C52.3509 5.7126 52.3249 6.09392 52.4424 6.44286C52.5598 6.79181 52.8111 7.0798 53.1409 7.24349C53.1409 7.24349 53.1409 7.24349 53.1409 7.24349C53.8853 7.61335 54.6262 8.04714 55.3529 8.51026C57.0526 9.59714 58.6927 10.8446 60.2933 12.149C60.298 12.1528 60.3027 12.1566 60.3074 12.1605C61.8048 13.3879 63.0923 14.8607 64.3625 16.2483C64.4054 16.2953 64.4483 16.3425 64.4907 16.3894C65.3947 17.3913 66.2297 18.4432 66.6905 19.4731C66.7501 19.6069 66.8025 19.7395 66.847 19.8695C67.0811 20.6461 67.0332 20.8051 66.6976 21.3831C66.5811 21.5624 66.4245 21.7573 66.2386 21.9555C64.938 23.2923 62.9432 24.5375 61.0082 25.552C60.7171 25.703 60.4235 25.8496 60.1281 25.9915C57.9445 27.0442 55.619 27.8295 53.218 28.5484C52.9971 28.6149 52.7764 28.6846 52.556 28.7568C50.347 29.4803 48.1794 30.4671 45.8889 30.8836C45.7821 30.9029 45.6745 30.9222 45.5679 30.9409C44.5322 31.1233 43.4922 31.2769 42.4452 31.4091C41.5617 31.521 40.6728 31.6184 39.7783 31.716C39.5529 31.7406 39.3465 31.8538 39.2045 32.0306C39.0626 32.2073 38.9966 32.4333 39.0212 32.6587C39.0459 32.8841 39.159 33.0905 39.3358 33.2324C39.5126 33.3744 39.7385 33.4403 39.9639 33.4157C39.9639 33.4157 39.9639 33.4157 39.9639 33.4157C40.8583 33.3181 41.7581 33.2196 42.6599 33.1053C43.7285 32.9705 44.7992 32.8124 45.864 32.6249C45.9735 32.6056 46.084 32.5859 46.1935 32.5661C48.5344 32.1405 50.9547 32.0612 53.2993 31.594C53.5323 31.5475 53.7652 31.4969 53.997 31.4415C56.5156 30.8421 59.0613 30.0613 61.504 28.9686C61.8334 28.8217 62.1605 28.6701 62.4854 28.5138C64.6762 27.4229 66.7904 26.3318 68.7818 24.3714C69.0823 24.0572 69.375 23.71 69.6428 23.2992C70.5559 22.1115 70.6495 19.895 70.073 18.6908C69.9874 18.4647 69.8934 18.2469 69.7936 18.0364C69.0188 16.4377 67.9861 15.2239 66.9225 14.1107C66.8736 14.0601 66.8241 14.0094 66.7746 13.9591C65.3083 12.4736 63.6346 11.2948 62.0635 10.0099C62.0587 10.006 62.0538 10.002 62.049 9.99805C60.3919 8.64841 58.6856 7.34656 56.8457 6.16925C56.0572 5.66704 55.2406 5.18674 54.3752 4.75651Z" fill="white"/>
</svg>
