<svg width="78" height="43" viewBox="0 0 78 43" fill="none" xmlns="http://www.w3.org/2000/svg">
<path d="M30.027 11.728C29.7628 11.9599 29.6015 12.2873 29.5787 12.6381C29.5558 12.9889 29.6732 13.3344 29.9051 13.5986C30.137 13.8628 30.4644 14.0241 30.8152 14.0469C31.166 14.0698 31.5115 13.9523 31.7757 13.7204C31.7757 13.7204 31.7757 13.7204 31.7757 13.7204C33.4583 12.2485 35.2422 10.8949 37.1458 9.94518C38.0803 9.48236 39.0457 9.12673 39.9882 8.97558C39.9977 8.97406 40.0071 8.97257 40.0165 8.9711C41.8031 8.67534 43.6041 9.25143 44.6419 10.4328C44.6423 10.4342 44.6426 10.4355 44.6431 10.437C44.6798 10.417 44.7381 11.1057 44.4821 11.8043C44.4526 11.8963 44.4202 11.9885 44.3846 12.0824C43.9516 13.1923 43.1049 14.3901 42.1749 15.3536C42.0056 15.5283 41.8317 15.6964 41.6543 15.8562C40.7088 16.7114 39.587 17.3581 38.3259 17.876C38.0867 17.9748 37.8424 18.0689 37.5938 18.1597C36.3583 18.611 35.0766 18.9539 33.7733 19.241C33.5587 19.2882 33.3433 19.3335 33.1273 19.3768C31.158 19.7689 29.1242 19.9904 27.1624 19.9659C27.0392 19.9639 26.9164 19.9622 26.7967 19.9602C26.8055 19.9628 26.7973 19.9567 26.9236 19.9797C26.9659 19.9894 26.9958 19.9916 27.1261 20.0362C27.1902 20.0618 27.2579 20.078 27.443 20.1929C27.5334 20.2577 27.621 20.2961 27.825 20.5403C28.003 20.7604 28.21 21.1742 28.1584 21.6807C28.1352 21.9179 28.0587 22.1253 27.9746 22.2796C27.9022 22.4105 27.8496 22.4775 27.7897 22.5495C27.6771 22.6824 27.562 22.7703 27.5079 22.8088C27.4015 22.8844 27.3197 22.9245 27.2709 22.9476C27.1851 22.9873 27.1341 23.003 27.1072 23.0117C26.9276 23.0598 27.0263 23.027 27.0521 23.0245C27.1389 23.0078 27.271 22.9905 27.4017 22.9764C27.667 22.9479 27.9568 22.9278 28.2446 22.9187C28.3239 22.9162 28.3966 22.9141 28.4768 22.9122C31.2235 22.8589 34.036 22.9117 36.7481 23.2088C36.7913 23.2137 36.8343 23.2186 36.8772 23.2237C39.6053 23.5288 42.1947 24.1921 44.7233 25.2494C44.8456 25.2998 44.9694 25.3517 45.0916 25.4035C47.6207 26.493 50.1396 27.8552 52.2678 29.4316C52.3728 29.5111 52.4744 29.5903 52.5734 29.6696C53.5807 30.4359 54.298 31.4347 54.1594 31.7763C54.1588 31.781 54.1582 31.7856 54.1576 31.7902C54.1604 32.1613 53.3942 32.8744 52.399 33.3527C52.3522 33.3766 52.3051 33.4001 52.2566 33.4238C50.1678 34.4243 47.5261 34.8197 44.9255 35.0699C44.8969 35.0726 44.8683 35.0752 44.8395 35.0778C40.5962 35.4405 36.2403 35.3169 31.9551 35.1093C31.7316 35.0978 31.5106 35.0859 31.2881 35.0735C27.7802 34.88 24.2997 34.4869 20.8528 33.8413C20.4798 33.7718 20.1079 33.6997 19.7373 33.6246C17.417 33.1495 15.1116 32.5759 13.0446 31.7255C12.6431 31.5586 12.2573 31.3813 11.895 31.19C10.8241 30.6217 9.89444 30.125 9.19666 29.2439C8.99029 28.9841 8.80441 28.687 8.64935 28.3652C8.17298 27.3736 7.78529 26.1768 7.8345 24.951C7.83561 24.9256 7.83692 24.9003 7.83842 24.875C7.84776 24.7194 7.8652 24.5638 7.89117 24.4091C8.07424 23.2654 8.61893 22.1042 9.46812 21.222C9.48818 21.2009 9.50822 21.1801 9.52823 21.1597C10.1296 20.5358 10.8175 20.0039 11.5313 19.5156C11.5313 19.5156 11.5313 19.5156 11.5313 19.5156C10.8175 20.0039 10.1296 20.5358 9.52823 21.1597C9.50822 21.1801 9.48802 21.2007 9.46764 21.2215C8.61593 22.0855 7.72098 22.9875 7.18684 24.1912C7.11515 24.3522 7.04741 24.5163 6.98441 24.6838C6.97419 24.7108 6.96409 24.738 6.95409 24.7654C6.48203 26.0746 6.24355 27.5416 6.52133 29.0233C6.61333 29.5001 6.74394 29.981 6.93273 30.4582C7.54757 32.079 8.89465 33.4295 10.2875 34.1726C10.7633 34.4327 11.2405 34.6581 11.7174 34.8629C14.1483 35.8917 16.5948 36.4973 19.0354 37.0194C19.4242 37.1013 19.813 37.1799 20.2019 37.2556C23.7922 37.959 27.4439 38.4124 31.0909 38.6131C31.3223 38.626 31.5521 38.6376 31.7843 38.6481C36.2399 38.8339 40.6582 38.6806 45.1365 38.2797C45.167 38.2768 45.1974 38.2739 45.2278 38.271C47.9991 37.9759 50.8365 37.6347 53.6644 36.298C53.7296 36.266 53.7936 36.2339 53.8578 36.2009C55.1282 35.4986 56.8309 34.4978 57.2092 32.1642C57.2122 32.1394 57.2149 32.1145 57.2174 32.0896C57.3314 29.4559 55.577 28.2502 54.4622 27.2836C54.3385 27.1866 54.2136 27.0918 54.0866 26.998C51.5772 25.1961 48.9639 23.902 46.2322 22.7181C46.1007 22.6622 45.9671 22.6063 45.835 22.5519C43.1156 21.4088 40.1415 20.6475 37.2162 20.3258C37.1701 20.3204 37.1239 20.315 37.0776 20.3098C34.1775 19.9905 31.3333 19.8397 28.4381 19.8277C28.3507 19.8279 28.2711 19.8283 28.1835 19.8291C27.8642 19.8322 27.5393 19.8319 27.1959 19.843C27.022 19.8492 26.8485 19.8564 26.6349 19.879C26.5099 19.8974 26.4548 19.8857 26.1292 19.978C26.0862 19.9918 26.0137 20.0154 25.913 20.0622C25.8555 20.0894 25.7639 20.1349 25.6511 20.2151C25.5936 20.256 25.4734 20.3481 25.3582 20.4843C25.2968 20.558 25.2432 20.6264 25.1697 20.7594C25.0842 20.9161 25.007 21.1259 24.9835 21.3654C24.9316 21.8767 25.1401 22.2945 25.3212 22.5185C25.5287 22.7671 25.6195 22.8077 25.7138 22.8751C25.9075 22.9954 25.9837 23.015 26.0566 23.0438C26.2072 23.0954 26.2529 23.1011 26.315 23.1147C26.5157 23.1517 26.5843 23.1506 26.6702 23.1565C26.8157 23.165 26.9619 23.1707 27.1067 23.1733C29.379 23.2031 31.5769 22.9611 33.7584 22.5298C33.9941 22.4826 34.2298 22.4332 34.4653 22.3813C35.8958 22.0662 37.3134 21.6398 38.6997 21.1071C38.9778 21.0003 39.2572 20.8884 39.5368 20.7701C41.0077 20.1536 42.4928 19.3042 43.7412 18.1614C43.9733 17.9504 44.1958 17.733 44.4102 17.51C45.5889 16.2559 46.5854 14.9223 47.2776 13.1733C47.3313 13.0302 47.3812 12.8861 47.4281 12.7371C47.7294 11.6306 48.1177 10.1074 46.8765 8.52327C46.8404 8.48219 46.8032 8.442 46.7648 8.40282C44.8348 6.45079 41.9998 5.95133 39.608 6.35177C39.5949 6.35382 39.5818 6.35589 39.5687 6.35799C38.2625 6.56987 37.0714 7.02576 35.9692 7.56966C33.7332 8.68952 31.8199 10.1638 30.027 11.728Z" fill="black"/>
<path d="M52.9835 10.2597C52.745 10.6233 52.6607 11.0666 52.7492 11.4923C52.8376 11.9179 53.0915 12.291 53.4551 12.5295C53.8186 12.7679 54.2619 12.8522 54.6876 12.7637C55.1132 12.6753 55.4863 12.4214 55.7248 12.0579C55.7248 12.0579 55.7248 12.0579 55.7248 12.0579C55.9191 11.7617 56.1114 11.4684 56.3024 11.1825C56.4502 10.9616 56.5976 10.7442 56.7412 10.5418C56.8731 10.3526 57.063 10.1107 57.0767 10.1016C57.0193 10.1591 56.9435 10.2283 56.8291 10.3042C56.7099 10.3759 56.5859 10.4695 56.2342 10.5421C55.9165 10.6112 55.4622 10.534 55.2019 10.3861C54.9206 10.2401 54.7447 10.0433 54.6511 9.91593C54.3754 9.49682 54.4224 9.42903 54.39 9.34471C54.3529 9.11211 54.3775 9.25186 54.3694 9.29754C54.3665 9.36685 54.3601 9.44936 54.3508 9.54129C54.3325 9.72051 54.3048 9.91724 54.2723 10.1154C54.2069 10.5134 54.1219 10.9223 54.0302 11.3283C53.8451 12.1467 53.6308 12.9637 53.4377 13.7875C53.4217 13.855 53.4059 13.9223 53.3901 13.9894C52.894 16.1755 52.0332 18.2699 51.3946 20.8045L51.3692 20.928C51.3619 20.9698 51.3548 21.0115 51.3477 21.0532C51.0767 22.687 51.1996 24.3691 51.4748 26.0866C51.483 26.1359 51.4915 26.1868 51.5001 26.2366C51.5023 26.2493 51.5049 26.2619 51.5079 26.2746L51.5259 26.4286C51.5943 26.6536 51.7376 26.9051 51.9861 27.1765C52.2241 27.4533 52.648 27.6815 52.809 27.6905C52.9781 27.716 53.1982 27.6667 53.3908 27.5918C53.5853 27.5147 53.7363 27.4182 53.841 27.2852C53.9457 27.1523 54.0041 26.9828 54.0334 26.7757C54.0611 26.5709 54.0573 26.3453 53.993 26.187C53.993 26.187 53.993 26.187 53.993 26.187C53.9168 26.0172 54.1202 26.0324 54.2275 26.0391C54.3415 26.0436 54.4125 26.0027 54.4301 25.9335L54.4481 26.0876C54.4496 26.0777 54.4508 26.0677 54.4516 26.0578C54.4549 26.0188 54.4584 25.9787 54.4623 25.9396C54.6025 24.5583 55.0539 23.1415 55.2915 21.7214C55.2977 21.6849 55.3039 21.6482 55.3103 21.6116L55.2848 21.735C55.7974 19.6457 56.6335 17.2631 57.096 14.7748C57.1107 14.6979 57.125 14.6206 57.1387 14.5428C57.2935 13.6597 57.3945 12.7707 57.4792 11.8671C57.5208 11.4175 57.5588 10.9637 57.593 10.4963C57.61 10.262 57.6261 10.0253 57.6385 9.77315C57.6448 9.64167 57.6499 9.51747 57.6517 9.36366C57.6464 9.19171 57.6744 9.11061 57.5977 8.66781C57.5548 8.53551 57.5896 8.42353 57.2899 7.97048C57.1889 7.83303 57.0038 7.62756 56.7134 7.47687C56.4441 7.32423 55.9784 7.24488 55.6493 7.31623C55.2849 7.39131 55.1526 7.48959 55.0245 7.56705C54.9011 7.6488 54.816 7.7258 54.7489 7.79311C54.1167 8.4921 53.9212 8.86739 53.577 9.36046C53.3742 9.66378 53.1779 9.96334 52.9835 10.2597Z" fill="black"/>
<path d="M54.3755 4.75651C54.0457 4.59282 53.6644 4.56684 53.3154 4.6843C52.9665 4.80175 52.6785 5.05301 52.5148 5.38281C52.3511 5.7126 52.3251 6.09392 52.4426 6.44286C52.5601 6.79181 52.8113 7.0798 53.1411 7.24349C53.1411 7.24349 53.1411 7.24349 53.1411 7.24349C53.8855 7.61335 54.6265 8.04714 55.3532 8.51026C57.0528 9.59714 58.6929 10.8446 60.2935 12.149C60.2982 12.1528 60.3029 12.1566 60.3076 12.1605C61.805 13.3879 63.0926 14.8607 64.3627 16.2483C64.4056 16.2953 64.4485 16.3425 64.4909 16.3894C65.395 17.3913 66.23 18.4432 66.6907 19.4731C66.7503 19.6069 66.8027 19.7395 66.8473 19.8695C67.0814 20.6461 67.0335 20.8051 66.6978 21.3831C66.5814 21.5624 66.4247 21.7573 66.2389 21.9555C64.9383 23.2923 62.9435 24.5375 61.0085 25.552C60.7173 25.703 60.4237 25.8496 60.1283 25.9915C57.9447 27.0442 55.6193 27.8295 53.2182 28.5484C52.9973 28.6149 52.7766 28.6846 52.5562 28.7568C50.3473 29.4803 48.1796 30.4671 45.8891 30.8836C45.7823 30.9029 45.6747 30.9222 45.5682 30.9409C44.5325 31.1233 43.4924 31.2769 42.4455 31.4091C41.562 31.521 40.6731 31.6184 39.7785 31.716C39.5531 31.7406 39.3467 31.8538 39.2048 32.0306C39.0628 32.2073 38.9969 32.4333 39.0215 32.6587C39.0461 32.8841 39.1593 33.0905 39.336 33.2324C39.5128 33.3744 39.7388 33.4403 39.9642 33.4157C39.9642 33.4157 39.9642 33.4157 39.9642 33.4157C40.8586 33.3181 41.7583 33.2196 42.6601 33.1053C43.7287 32.9705 44.7995 32.8124 45.8642 32.6249C45.9737 32.6056 46.0842 32.5859 46.1938 32.5661C48.5347 32.1405 50.9549 32.0612 53.2995 31.594C53.5326 31.5475 53.7654 31.4969 53.9972 31.4415C56.5159 30.8421 59.0615 30.0613 61.5042 28.9686C61.8337 28.8217 62.1607 28.6701 62.4857 28.5138C64.6765 27.4229 66.7907 26.3318 68.782 24.3714C69.0825 24.0572 69.3752 23.71 69.6431 23.2992C70.5562 22.1115 70.6498 19.895 70.0733 18.6908C69.9876 18.4647 69.8937 18.2469 69.7939 18.0364C69.019 16.4377 67.9863 15.2239 66.9227 14.1107C66.8738 14.0601 66.8243 14.0094 66.7749 13.9591C65.3086 12.4736 63.6348 11.2948 62.0638 10.0099C62.0589 10.006 62.0541 10.002 62.0492 9.99805C60.3922 8.64841 58.6859 7.34656 56.846 6.16925C56.0575 5.66704 55.2408 5.18674 54.3755 4.75651Z" fill="black"/>
</svg>
