<svg width="166" height="45" viewBox="0 0 166 45" fill="none" xmlns="http://www.w3.org/2000/svg">
<path d="M0.438676 8.08702C0.193038 8.28873 0.0375879 8.57975 0.00652444 8.89608C-0.024539 9.2124 0.0713283 9.5281 0.273037 9.77374C0.474745 10.0194 0.765772 10.1748 1.08209 10.2059C1.39842 10.237 1.71412 10.1411 1.95976 9.93938C1.95976 9.93938 1.95976 9.93938 1.95976 9.93938C2.75702 9.28477 3.55331 8.63985 4.35775 8.00353C6.74138 6.14797 9.20144 4.19705 11.7277 3.05858C12.0231 2.93392 12.3233 2.84634 12.5969 2.80573C13.2065 2.71544 13.9184 2.77754 14.5615 2.87929C15.0098 2.94791 15.4807 3.0984 15.6761 3.23051C15.7718 3.33856 15.5994 3.16438 15.6639 3.28636C15.7132 3.43166 15.7293 3.8973 15.6975 4.3849C15.5731 6.55849 14.6131 9.06194 13.7658 11.4686C13.6292 11.8437 13.4923 12.2145 13.3498 12.5958C10.7637 19.441 7.93169 26.2593 5.29254 33.1884C5.24041 33.3262 5.19124 33.4626 5.14488 33.5975C4.41576 35.7835 4.06184 38.054 3.72327 40.4681C3.67921 40.8682 3.65054 41.3117 3.68784 41.7506C3.69012 41.7795 3.69259 41.8077 3.69519 41.8352C3.74095 42.5611 4.07228 43.3833 4.41239 43.9271C4.50739 44.0933 4.6645 44.2148 4.84915 44.2651C5.03379 44.3154 5.23085 44.2903 5.39698 44.1953C5.5631 44.1003 5.68468 43.9432 5.73496 43.7585C5.78525 43.5739 5.76013 43.3768 5.66512 43.2107C5.66512 43.2107 5.66512 43.2107 5.66512 43.2107C5.33757 42.6604 5.18339 42.2597 5.13189 41.699C5.12994 41.6784 5.12814 41.6579 5.12653 41.6374C5.10175 41.3421 5.14153 41.0473 5.22099 40.7223C5.78086 38.6944 7.135 36.7436 7.98011 34.6761C8.03421 34.5468 8.08764 34.4146 8.14012 34.2793C10.8117 27.4422 13.7137 20.6609 16.3462 13.7171C16.4921 13.328 16.6325 12.9485 16.7728 12.5633C17.6353 10.0511 18.67 7.62685 18.8925 4.56423C18.9143 3.97025 18.9795 3.33336 18.7456 2.42461C18.5822 1.64064 17.7566 0.684215 16.9946 0.416772C16.1538 0.0779461 15.4859 0.0372739 14.8069 0.00347078C13.8573 -0.0238752 12.9492 0.11095 12.0028 0.394522C11.568 0.528986 11.176 0.690534 10.7966 0.849922C7.70603 2.26179 5.33639 4.22164 2.87088 6.12359C2.05156 6.77169 1.24457 7.42532 0.438676 8.08702Z" fill="white"/>
<path d="M22.69 13.4491C22.7518 13.0293 22.6444 12.6021 22.3913 12.2615C22.1382 11.9209 21.7602 11.6948 21.3404 11.6329C20.9206 11.571 20.4934 11.6785 20.1528 11.9316C19.8122 12.1847 19.586 12.5627 19.5242 12.9825C19.5242 12.9825 19.5242 12.9825 19.5242 12.9825C19.4649 13.385 19.4056 13.7869 19.3461 14.1883C18.8808 17.319 18.4003 20.4217 17.7093 23.4387C17.7047 23.4588 17.7001 23.4789 17.6954 23.499C17.0642 26.264 16.2126 28.9611 15.3887 31.8134C15.3839 31.8308 15.3791 31.8481 15.3743 31.8653C15.102 32.9488 14.7972 34.0068 14.9321 35.5346C14.9355 35.5637 14.9392 35.5925 14.9433 35.6233C14.9651 35.7864 15.0425 35.9781 15.1765 36.1696C15.4025 36.5054 15.8094 36.7619 16.1711 36.8208C16.5371 36.8902 16.8661 36.8389 17.1412 36.8236C17.1412 36.8236 17.1412 36.8236 17.1412 36.8236C17.0996 36.5522 17.1264 36.2262 17.2389 35.9762C17.3465 35.7178 17.5638 35.6037 17.6944 35.5436C17.7709 35.504 17.8175 35.459 17.8197 35.3852C17.8201 35.3715 17.8206 35.3574 17.8211 35.342C17.8431 34.7238 18.1917 33.6931 18.4572 32.7227C18.4617 32.7068 18.4661 32.6908 18.4706 32.6747C19.2552 29.9556 20.1535 27.1108 20.8137 24.2177C20.8185 24.1966 20.8234 24.1754 20.8283 24.1543C21.5542 20.9821 22.0432 17.8049 22.5114 14.658C22.5713 14.2546 22.6307 13.8516 22.69 13.4491Z" fill="white"/>
<path d="M21.3124 14.0312C21.2789 14.2281 21.3249 14.4302 21.4404 14.5931C21.5559 14.756 21.7314 14.8664 21.9282 14.8999C22.1251 14.9335 22.3272 14.8874 22.4901 14.772C22.653 14.6565 22.7634 14.481 22.7969 14.2841C22.8217 14.1377 22.8449 14.0077 22.8697 13.9182C22.8889 13.828 22.9365 13.7928 22.8596 13.8769C22.8567 13.8796 22.8537 13.8823 22.8506 13.885C22.7555 13.9779 22.5975 14.0507 22.5367 14.0903C22.4926 14.1193 22.4733 14.1454 22.4844 14.1631C22.4871 14.1672 22.4905 14.1721 22.4946 14.1778C23.1266 15.0063 23.3985 17.1934 23.7325 18.9241C23.7331 18.9274 23.7338 18.9307 23.7344 18.934C24.3394 22.1687 24.2275 25.4337 24.4302 28.9718C24.4393 29.096 24.4496 29.2186 24.4613 29.3424C24.642 31.1659 25.0417 33.0158 25.9863 34.7879C26.1429 35.0774 26.3429 35.3283 26.5524 35.5321C27.2548 36.1933 28.018 36.2923 28.6554 36.2958C28.8107 36.2999 28.9633 36.2939 29.1124 36.2799C29.6005 36.2365 30.0219 35.6639 30.3035 35.3005C30.3918 35.1912 30.4745 35.1003 30.5625 35.0447C30.5943 35.0247 30.6264 35.0094 30.6606 34.9989C30.9746 34.9067 31.2614 34.7432 31.5345 34.5655C31.5345 34.5655 31.5345 34.5655 31.5345 34.5655C31.2614 34.7432 30.9746 34.9067 30.6606 34.9989C30.6264 35.0094 30.5909 35.0132 30.5536 35.0115C30.4505 35.0067 30.3391 34.9576 30.2324 34.8814C29.8632 34.6281 29.6171 34.0702 29.4518 33.9325C29.3953 33.8888 29.3442 33.8422 29.2981 33.7946C28.9865 33.5502 28.7996 33.2683 28.7861 33.2407C28.7777 33.2323 28.7878 33.2409 28.7994 33.2625C28.1509 32.0591 27.7911 30.5573 27.647 29.0399C27.6372 28.9366 27.6282 28.8339 27.62 28.7296C27.4093 25.4524 27.195 21.829 26.3027 18.3724C26.3018 18.3688 26.3009 18.3652 26.3 18.3617C25.7162 16.5253 25.6552 14.7138 23.7744 12.6999C23.7407 12.673 23.7059 12.6466 23.6697 12.6208C23.5148 12.5112 23.3126 12.4301 23.0684 12.396C22.712 12.3374 22.1991 12.4399 21.8655 12.7459C21.8548 12.7552 21.8443 12.7646 21.834 12.7742C21.2997 13.3821 21.3975 13.7323 21.3124 14.0312Z" fill="white"/>
<path d="M35.0193 14.2484C35.0695 13.827 34.9503 13.403 34.6879 13.0695C34.4254 12.7361 34.0412 12.5205 33.6199 12.4703C33.1985 12.4201 32.7745 12.5394 32.441 12.8018C32.1076 13.0643 31.892 13.4484 31.8418 13.8698C31.8418 13.8698 31.8418 13.8698 31.8418 13.8698C31.7873 14.3277 31.7327 14.7853 31.6781 15.243C31.1225 19.8624 30.5825 24.4879 29.8845 29.0399C29.8786 29.0781 29.8726 29.1163 29.8667 29.1542C29.4467 31.8937 28.9017 34.5389 28.3267 37.3385C28.3172 37.3878 28.308 37.4364 28.299 37.4841C28.1651 38.2639 29.114 39.327 29.5833 40.063C29.6358 40.1393 29.6853 40.2112 29.7302 40.2804C29.7595 40.3257 29.7869 40.3702 29.8128 40.4156C29.9751 40.7078 30.2736 40.8825 30.5582 41.0394C30.5582 41.0394 30.5582 41.0394 30.5582 41.0394C30.2736 40.8825 29.9751 40.7078 29.8128 40.4156C29.7869 40.3702 29.7691 40.3203 29.7594 40.2686C29.7446 40.1893 29.7491 40.1059 29.7698 40.0252C30.0105 39.2462 31.3256 38.7886 31.4438 38.0759C31.4519 38.0326 31.4604 37.9884 31.469 37.9433C32.019 35.2686 32.6027 32.4332 33.0282 29.649C33.0343 29.61 33.0404 29.5709 33.0465 29.5317C33.7596 24.8794 34.2987 20.2497 34.8556 15.6222C34.9102 15.164 34.9648 14.7063 35.0193 14.2484Z" fill="white"/>
<path d="M37.5819 16.0367C37.5558 16.4219 37.6837 16.8017 37.9376 17.0926C38.1914 17.3834 38.5504 17.5615 38.9356 17.5877C39.3208 17.6139 39.7006 17.486 39.9915 17.2321C40.2823 16.9783 40.4605 16.6192 40.4866 16.2341C40.4866 16.2341 40.4866 16.2341 40.4866 16.2341C40.5007 16.0272 40.5147 15.8204 40.5288 15.6133C40.5358 15.5102 40.5428 15.4061 40.5498 15.3026C40.5533 15.2506 40.5568 15.1991 40.5603 15.1466C40.562 15.1204 40.5638 15.094 40.5655 15.0679C40.5664 15.0538 40.5673 15.0405 40.5682 15.0268C40.5687 15.0188 40.5691 15.0127 40.5697 15.003C40.57 14.9983 40.5701 14.9966 40.5712 14.9763C40.5715 14.9692 40.5719 14.9651 40.5727 14.9357C40.5718 14.9106 40.5777 14.9259 40.5673 14.7735C40.5497 14.703 40.6026 14.7462 40.4597 14.3392C40.4082 14.2319 40.35 14.0548 40.0666 13.7988C39.9195 13.6721 39.6975 13.5332 39.3984 13.474C39.1046 13.4118 38.7747 13.4646 38.563 13.5563C38.1118 13.7601 37.9986 13.9745 37.908 14.0922C37.8274 14.2143 37.796 14.2904 37.7722 14.3459C37.6921 14.5546 37.7008 14.5775 37.6889 14.6222C37.6819 14.6583 37.6793 14.6763 37.6771 14.6908C37.6605 14.8235 37.6687 14.7667 37.6665 14.783C37.666 14.7894 37.6657 14.7933 37.6654 14.7974C37.663 14.8287 37.6617 14.8449 37.6596 14.8703C37.6592 14.8749 37.6588 14.8797 37.6583 14.8849C37.5161 16.3514 37.175 17.8905 36.9717 19.4176C36.9667 19.4548 36.9617 19.4923 36.9568 19.5301C36.3424 24.2094 35.6864 28.8952 35.079 33.5987C35.07 33.6687 35.0613 33.7377 35.0526 33.8056C34.9602 34.5353 34.9281 35.2735 34.929 36.0315C34.9305 36.4081 34.9383 36.7936 34.9618 37.2048C34.9745 37.415 34.9883 37.6216 35.024 37.8906C35.0436 38.026 35.0651 38.1753 35.1257 38.384C35.1806 38.5847 35.333 38.93 35.579 39.1602C35.7781 39.3554 36.0171 39.4835 36.2291 39.5518C36.5958 39.6681 36.9074 39.4564 37.0861 39.2047C37.3149 38.8909 37.379 38.5188 37.4915 38.3889C37.5061 38.3723 37.5216 38.359 37.539 38.3494C37.7795 38.2235 37.9264 37.9827 38.0405 37.7448C38.0405 37.7448 38.0405 37.7448 38.0405 37.7448C37.9264 37.9827 37.7795 38.2235 37.539 38.3494C37.5216 38.359 37.5017 38.3642 37.48 38.3651C37.3023 38.3745 37.0505 38.0895 36.9586 37.806C36.8759 37.5776 36.9181 37.3504 37.037 37.3754C37.1015 37.3892 37.2028 37.4334 37.2929 37.5145C37.4095 37.613 37.4871 37.7874 37.4992 37.8086C37.5176 37.8411 37.5214 37.8073 37.5312 37.7602C37.549 37.6598 37.5761 37.5071 37.6082 37.35C37.6727 37.0335 37.7531 36.6826 37.8303 36.3389C37.9866 35.6416 38.1358 34.9291 38.2271 34.2092C38.2356 34.1421 38.2443 34.0739 38.2532 34.0046C38.8564 29.3332 39.5126 24.6449 40.1298 19.9446C40.1348 19.9065 40.1396 19.8687 40.1444 19.8312C40.3375 18.2743 40.4036 16.7559 40.5592 15.1327C40.5597 15.1261 40.5602 15.1198 40.5607 15.1138C40.5632 15.0842 40.5664 15.0445 40.568 15.0229C40.568 15.0225 40.568 15.023 40.5677 15.0269C40.5656 15.0426 40.5741 14.9823 40.5576 15.1141C40.5554 15.1285 40.5528 15.1464 40.5458 15.1826C40.5339 15.2272 40.5426 15.2501 40.4625 15.4588C40.4387 15.5143 40.4073 15.5904 40.3267 15.7125C40.2361 15.8302 40.1229 16.0446 39.6717 16.2483C39.4601 16.3401 39.1301 16.3929 38.8363 16.3306C38.5372 16.2714 38.3153 16.1326 38.1681 16.0059C37.8847 15.7499 37.8265 15.5728 37.775 15.4655C37.6321 15.0585 37.685 15.1017 37.6674 15.0312C37.657 14.8789 37.6629 14.8944 37.6621 14.8696C37.6628 14.8407 37.6632 14.8375 37.6634 14.8317C37.6642 14.8166 37.6638 14.8241 37.6638 14.8241C37.6636 14.828 37.6632 14.8332 37.6628 14.8396C37.6621 14.8508 37.6613 14.8631 37.6604 14.8763C37.6588 14.901 37.6571 14.9268 37.6554 14.9525C37.6519 15.0039 37.6485 15.0551 37.645 15.1068C37.6381 15.2097 37.631 15.3135 37.6241 15.4164C37.61 15.6231 37.596 15.8298 37.5819 16.0367Z" fill="white"/>
<path d="M36.9653 14.8187C36.6166 14.9063 36.3171 15.1287 36.1325 15.4372C35.948 15.7456 35.8935 16.1147 35.981 16.4634C36.0686 16.812 36.2911 17.1115 36.5995 17.2961C36.908 17.4807 37.2771 17.5352 37.6257 17.4476C37.6257 17.4476 37.6257 17.4476 37.6257 17.4476C38.4989 17.2282 39.3694 17.0094 40.2378 16.7976C42.6541 16.2181 45.1054 15.6223 47.4141 15.441C47.6152 15.4273 47.8203 15.4207 48.0134 15.4226C49.3858 15.4439 50.1941 15.8146 50.7 16.6207C50.7986 16.7667 50.8954 16.9341 50.9916 17.1204C51.6838 18.4447 51.8625 19.9493 51.6691 21.537C51.6626 21.5912 51.6556 21.646 51.6482 21.7012C51.3038 24.0981 50.2665 26.5747 48.8143 28.5603C48.7253 28.6809 48.6343 28.7997 48.5411 28.9172C47.0755 30.7745 45.0539 32.2312 42.8495 33.5551C42.6878 33.6526 42.5256 33.7491 42.3628 33.845C40.2943 35.0605 38.1338 36.1566 35.9313 37.1635C35.8252 37.2119 35.7208 37.2593 35.6152 37.307C34.3294 37.8855 33.497 39.5547 32.2316 40.3365C32.0805 40.4296 31.9239 40.5092 31.7616 40.5709C31.7197 40.5867 31.68 40.6006 31.6377 40.614C30.9878 40.8227 30.3197 40.9803 29.6387 41.0394C29.6387 41.0394 29.6387 41.0394 29.6387 41.0394C30.3197 40.9803 30.9878 40.8227 31.6377 40.614C31.68 40.6006 31.7204 40.5888 31.7636 40.577C31.9311 40.5316 32.1039 40.4995 32.281 40.4777C33.7448 40.2974 35.5806 40.8318 36.9316 40.2237C37.0416 40.174 37.1503 40.1247 37.2605 40.0744C39.5474 39.0287 41.7966 37.8891 43.9854 36.603C44.1578 36.5016 44.3297 36.3993 44.5013 36.2958C46.8279 34.8951 49.2119 33.2266 51.048 30.906C51.1641 30.7597 51.2777 30.6114 51.389 30.4605C53.1844 27.9763 54.3614 25.2039 54.8194 22.1294C54.829 22.058 54.838 21.987 54.8465 21.9164C55.109 19.8709 54.8038 17.5583 53.7175 15.6501C53.5712 15.387 53.4065 15.1167 53.2104 14.8458C52.0434 13.04 49.5487 12.5752 47.9743 12.6976C47.7239 12.7059 47.4712 12.7202 47.2298 12.7367C44.5174 12.9564 42.0649 13.5773 39.5953 14.1642C38.7146 14.3791 37.8385 14.5993 36.9653 14.8187Z" fill="white"/>
<path d="M57.3162 16.0648C57.1352 16.2669 57.042 16.5326 57.0569 16.8034C57.0719 17.0743 57.1938 17.3281 57.3959 17.509C57.598 17.69 57.8637 17.7832 58.1345 17.7683C58.4053 17.7533 58.6591 17.6314 58.8401 17.4293C59.7154 16.4576 60.5914 15.4519 61.4718 14.6213C61.5487 14.5503 61.6242 14.4829 61.6978 14.4208C61.7384 14.3865 61.7817 14.3585 61.8236 14.3379C61.9338 14.2783 62.1251 14.2644 62.005 14.3719C61.9659 14.3968 61.8913 14.4341 61.738 14.4392C61.5902 14.4476 61.3411 14.3856 61.167 14.2565C60.8154 13.9771 60.8244 13.8125 60.8015 13.7825C60.7898 13.7392 60.7944 13.7823 60.7899 13.8372C60.652 15.4393 59.6272 17.5991 58.9009 19.6407C58.8742 19.7136 58.8473 19.787 58.8204 19.8607C57.6561 23.1156 57.2335 26.4443 57.0741 29.7325C57.0733 29.7507 57.0725 29.7689 57.0717 29.7871C57.0218 30.8809 57.1277 32.2218 57.7867 33.4207C57.7887 33.4243 57.7906 33.4279 57.7926 33.4316C58.2133 34.2379 59.0522 34.9252 59.9115 35.2136C59.965 35.2327 60.0186 35.2502 60.0723 35.2662C60.9168 35.5307 61.842 35.3954 62.5349 35.1549C62.6789 35.1073 62.8171 35.0531 62.9498 34.994C64.549 34.2667 65.6121 32.9912 66.6312 31.8733C66.7926 31.6962 66.948 31.5144 67.0974 31.3292C68.7006 28.6939 69.0595 25.9762 69.8102 23.2832C69.8586 23.0891 69.9068 22.899 69.9568 22.7049C70.7144 19.9074 70.8981 16.8616 70.6985 14.0151C70.6925 13.8858 70.6919 13.7573 70.6962 13.631C70.6931 13.5976 70.6895 13.5629 70.6782 13.5073C70.6707 13.472 70.6606 13.4304 70.6412 13.3751C70.6239 13.3346 70.5945 13.2175 70.4456 13.0434C70.4074 13.0003 70.3598 12.9537 70.2989 12.9077C70.2233 12.8495 70.1017 12.7798 69.9669 12.7425C69.701 12.6517 69.3379 12.7507 69.2483 12.808C69.0138 12.9279 68.9252 13.0594 68.8799 13.1153C68.8124 13.2061 68.7798 13.2778 68.7661 13.3054C68.7045 13.4421 68.7016 13.4674 68.6856 13.5103C68.6597 13.5876 68.6448 13.6358 68.6293 13.6848C68.5996 13.7791 68.5745 13.8613 68.5499 13.9389C68.5005 14.0973 68.4533 14.2461 68.4059 14.3926C68.3113 14.6847 68.2159 14.9763 68.1279 15.2621C67.9522 15.8365 67.805 16.4122 67.7745 16.989C67.7707 17.0605 67.7669 17.1335 67.7632 17.2078C67.5507 21.6307 67.3822 26.0248 67.3106 30.4683C67.3103 30.4975 67.3099 30.5266 67.3096 30.5555C67.3202 32.558 67.2679 34.5524 68.013 36.8427C68.1829 37.3262 68.4282 37.8325 68.7071 38.2659L68.9297 38.5424C69.0402 38.6521 69.1703 38.7636 69.3263 38.8675C69.6941 39.1266 70.3242 39.1299 70.7217 38.9181C71.1325 38.7145 71.3214 38.4151 71.507 38.2604C71.5407 38.2318 71.5746 38.2068 71.61 38.186C72.1955 37.8239 72.5258 37.4344 72.8766 37.0863C73.0267 36.9328 73.1096 36.726 73.1071 36.5113C73.1047 36.2967 73.017 36.0918 72.8635 35.9417C72.71 35.7917 72.5031 35.7088 72.2885 35.7112C72.0738 35.7137 71.869 35.8013 71.7189 35.9549C71.7189 35.9549 71.7189 35.9549 71.7189 35.9549C71.3831 36.2995 71.0439 36.6422 70.79 36.7902C70.7759 36.7985 70.7598 36.8014 70.7429 36.7992C70.6452 36.7925 70.5242 36.6036 70.6137 36.414C70.6902 36.2186 70.998 36.125 71.1001 36.2042C71.1439 36.2334 71.1701 36.2575 71.1845 36.2717L71.4071 36.5482C71.2445 36.293 71.131 36.0585 71.0276 35.7694C70.5506 34.3789 70.4972 32.4276 70.5095 30.5899C70.5097 30.5628 70.5101 30.5356 70.5104 30.5083C70.5803 26.1531 70.749 21.7373 70.959 17.3701C70.9627 17.2977 70.9664 17.2268 70.97 17.1573C70.9996 16.5973 70.9204 16.0299 70.831 15.4684C70.7862 15.1896 70.7395 14.9054 70.7039 14.6342C70.6862 14.4989 70.6717 14.363 70.6623 14.2376C70.6573 14.1772 70.6543 14.115 70.6511 14.0701C70.6491 14.0488 70.6486 14.0272 70.641 14.0356C70.634 14.0459 70.6407 14.0367 70.5939 14.1399C70.5831 14.161 70.5565 14.2214 70.4929 14.3071C70.4504 14.3592 70.3658 14.4866 70.1343 14.6052C70.0462 14.6617 69.6861 14.7599 69.4221 14.6698C69.2884 14.6329 69.1679 14.5638 69.0932 14.5063C69.0331 14.4608 68.9861 14.4149 68.9485 14.3725C68.8023 14.2011 68.7756 14.09 68.7593 14.0526C68.7412 14.0011 68.7324 13.9639 68.726 13.9337C68.7164 13.8862 68.7141 13.8599 68.7121 13.8366C68.7429 13.9666 68.7705 14.0968 68.7934 14.227C69.3462 17.0003 69.6225 19.7399 68.9865 22.4712C68.9428 22.6661 68.8989 22.8567 68.853 23.0506C68.1754 25.6864 67.6735 28.623 66.3741 30.7463C66.236 30.9177 66.0929 31.0854 65.9448 31.2479C64.9937 32.3014 63.58 32.8152 62.3411 32.9084C62.2488 32.9151 62.1596 32.9182 62.0743 32.9179C61.6403 32.9169 61.3621 32.7372 61.1316 32.5689C61.1153 32.5575 61.0994 32.5462 61.0839 32.535C60.8344 32.3494 60.7501 32.1642 60.6063 31.9074C60.6054 31.9057 60.6044 31.904 60.6035 31.9023C60.3246 31.401 60.2331 30.7465 60.2687 29.9269C60.2694 29.9097 60.2702 29.8925 60.2709 29.8753C60.4164 26.7781 60.742 23.6707 61.6685 20.8587C61.6929 20.7861 61.7172 20.7137 61.7415 20.6416C62.3874 18.5359 63.315 16.6347 63.4101 13.8242C63.404 13.6634 63.3974 13.4918 63.3413 13.2377C63.2784 13.0264 63.2222 12.6706 62.7209 12.2718C62.4728 12.0839 62.1304 11.9903 61.8888 11.9936C61.6414 11.9931 61.4728 12.0467 61.3425 12.098C60.861 12.3186 60.7415 12.5289 60.5515 12.698C60.494 12.7546 60.437 12.8083 60.3789 12.8573C60.2739 12.9459 60.1776 13.0322 60.0835 13.1191C59.0508 14.0965 58.2021 15.0839 57.3162 16.0648Z" fill="white"/>
<path d="M86.2824 18.2109C86.0472 18.15 85.7974 18.1851 85.588 18.3083C85.3787 18.4316 85.2269 18.633 85.166 18.8682C85.1051 19.1034 85.1401 19.3532 85.2634 19.5625C85.3867 19.7719 85.5881 19.9237 85.8233 19.9846C85.8233 19.9846 85.8233 19.9846 85.8233 19.9846C86.1944 20.0796 86.591 20.1411 87.0317 20.1124C87.5233 20.0814 88.1149 19.913 88.5732 19.4775C89.0368 19.0462 89.2596 18.4191 89.2776 17.8688C89.2997 16.3182 88.3215 15.2136 87.2833 14.5624C86.7078 14.2054 86.1007 13.8951 85.466 13.7263C85.315 13.6854 85.162 13.6517 85.0087 13.6275C82.1208 13.2063 79.4066 13.8616 76.9023 14.8208C76.8238 14.8516 76.7456 14.8827 76.6679 14.9142C75.3837 15.424 74.136 16.3323 73.2986 17.5076C73.2311 17.6007 73.1659 17.6947 73.1028 17.79C72.2163 19.1659 71.7346 20.7714 72.0185 22.5551C72.0202 22.5646 72.0218 22.5741 72.0236 22.5836C72.5644 25.0675 74.2003 26.1857 75.3724 27.331C75.414 27.3682 75.456 27.4057 75.4984 27.4433C77.6455 29.3391 79.8627 31.0563 81.7799 32.8843C81.8039 32.9075 81.8276 32.9306 81.851 32.9534C82.8396 33.8709 83.6566 35.0659 83.4933 35.34C83.4896 35.3698 83.4838 35.4009 83.4754 35.4334C83.4027 35.7875 82.9163 36.3138 82.249 36.5759C82.1742 36.6068 82.0974 36.6356 82.0192 36.6621C79.9895 37.3403 77.1455 36.5294 74.6629 35.4198C74.573 35.3796 74.4779 35.3504 74.3791 35.3305L74.5378 35.415C73.7509 35.2166 72.0617 35.5513 71.5874 34.4592C71.578 34.4356 71.5689 34.4121 71.5601 34.3884C71.5387 34.3312 71.519 34.2736 71.501 34.2155C71.2125 33.2995 71.3961 32.3287 71.568 31.4064C71.3961 32.3287 71.2125 33.2995 71.501 34.2155C71.519 34.2736 71.5387 34.3312 71.5601 34.3884C71.5689 34.4121 71.578 34.4356 71.5874 34.4592C71.9132 35.3586 71.8965 37.1879 72.9121 38.0873L73.0708 38.1717C73.1603 38.2386 73.2556 38.2958 73.3565 38.341C76.1749 39.5243 79.3483 40.7887 83.0476 39.6924C83.1893 39.6443 83.3309 39.5913 83.4708 39.5334C84.7635 38.9896 86.0925 37.9812 86.5748 36.2295C86.6161 36.0688 86.6479 35.9036 86.6688 35.7354C86.8003 32.9145 85.084 31.797 84.0863 30.6635C84.0593 30.6371 84.032 30.6107 84.0045 30.5841C81.8758 28.5593 79.662 26.8548 77.6231 25.0504C77.5835 25.0153 77.5446 24.9806 77.5061 24.9462C76.3504 23.9163 75.2555 22.807 75.1726 22.0146C75.1719 22.0108 75.1712 22.0071 75.1706 22.0033C75.0357 21.2778 75.2744 20.2735 75.7588 19.5344C75.797 19.4755 75.836 19.4179 75.8761 19.3613C76.3756 18.6543 77.0273 18.1097 77.867 17.7278C77.9327 17.6981 77.9989 17.6687 78.0655 17.6396C80.1851 16.7211 82.5193 16.1331 84.6359 16.3503C84.7481 16.3624 84.8606 16.3714 84.9726 16.3794C85.382 16.4045 85.8004 16.4322 86.1495 16.5919C86.781 16.8629 87.2784 17.4191 87.3177 17.8515C87.3337 18.0007 87.309 18.0843 87.2658 18.1435C87.2236 18.2029 87.1076 18.2714 86.9065 18.2845C86.7323 18.2969 86.5141 18.2712 86.2824 18.2109Z" fill="white"/>
<path d="M82.418 9.95929C82.0015 10.0406 81.6344 10.2841 81.3974 10.6361C81.1604 10.9881 81.0729 11.4198 81.1543 11.8363C81.2356 12.2528 81.479 12.6199 81.831 12.8569C82.183 13.0938 82.6148 13.1813 83.0312 13.1C83.0312 13.1 83.0312 13.1 83.0312 13.1C83.865 12.9372 84.6989 12.7743 85.5323 12.6117C95.8945 10.6027 106.256 8.5291 116.618 6.80732C116.634 6.80484 116.649 6.80236 116.664 6.79988C120.9 6.15334 124.934 3.81376 129.312 3.97302C129.313 3.97306 129.314 3.97311 129.315 3.97315C129.702 3.99225 130.086 4.01854 130.471 4.0572C131.316 4.1369 132.153 4.30678 132.967 4.54543C132.967 4.54543 132.967 4.54543 132.967 4.54543C132.153 4.30678 131.316 4.1369 130.471 4.0572C130.086 4.01854 129.702 3.99225 129.315 3.97315C129.314 3.97311 129.313 3.97306 129.312 3.97302C125.025 3.8054 120.467 2.98055 116.152 3.64106C116.137 3.64356 116.121 3.64608 116.106 3.6486C105.635 5.38889 95.2912 7.46035 84.9192 9.47094C84.0857 9.63364 83.2517 9.79649 82.418 9.95929Z" fill="white"/>
<path d="M100.367 14.5383C100.494 14.1335 100.455 13.6947 100.259 13.3185C100.062 12.9424 99.7243 12.6596 99.3195 12.5325C98.9146 12.4054 98.4758 12.4444 98.0997 12.6408C97.7235 12.8372 97.4408 13.175 97.3137 13.5798C97.3137 13.5798 97.3137 13.5798 97.3137 13.5798C97.1557 14.0831 96.9972 14.5878 96.8397 15.0946C96.047 17.6312 95.3068 20.2157 94.6669 22.8127C94.6667 22.8136 94.6665 22.8146 94.6662 22.8155C93.7131 26.7055 92.8893 30.5854 92.162 34.5201L92.1547 34.5641C92.1524 34.5787 92.1502 34.5933 92.148 34.6078C91.7831 37.4092 91.6507 40.3163 92.6303 43.3569L92.688 43.5078C92.7141 43.5509 92.7411 43.5929 92.7692 43.6345C92.8166 43.7046 92.8706 43.77 92.93 43.8306C93.465 44.373 94.2074 44.3393 94.7626 44.412C94.7626 44.412 94.7626 44.412 94.7626 44.412C94.4292 43.9278 94.2577 43.3061 94.197 42.9653C94.1866 42.9237 94.1756 42.8847 94.1621 42.8472C94.1541 42.8249 94.1468 42.8025 94.1399 42.7797L94.1976 42.9306C93.9644 40.4931 94.9429 37.7755 95.3113 35.0909C95.3134 35.0768 95.3156 35.0627 95.3178 35.0486L95.3104 35.0926C96.0207 31.2475 96.8421 27.3795 97.7724 23.5845C97.7727 23.5836 97.7729 23.5827 97.7731 23.5818C98.3981 21.0461 99.1124 18.5507 99.8955 16.0443C100.051 15.5432 100.209 15.0416 100.367 14.5383Z" fill="white"/>
<path d="M101.578 19.4267C101.375 19.7045 101.29 20.0519 101.342 20.3923C101.395 20.7328 101.58 21.0384 101.858 21.242C102.136 21.4456 102.483 21.5305 102.824 21.4779C103.164 21.4254 103.47 21.2398 103.674 20.9619C103.674 20.9619 103.674 20.9619 103.674 20.9619C103.961 20.5704 104.243 20.1833 104.517 19.8417C104.669 19.6483 104.872 19.4274 104.907 19.4042C104.902 19.4047 104.901 19.4231 104.749 19.4912C104.652 19.5294 104.532 19.5699 104.336 19.5742C104.133 19.5802 103.881 19.5129 103.702 19.3992C103.331 19.1484 103.301 18.965 103.258 18.8914C103.2 18.7339 103.222 18.7614 103.219 18.7847C103.224 18.8475 103.221 18.9979 103.211 19.1389C103.19 19.4378 103.145 19.7694 103.092 20.1053C102.985 20.7798 102.846 21.4704 102.7 22.1645C102.407 23.5513 102.087 24.9455 101.82 26.3561C101.805 26.4306 101.791 26.5058 101.777 26.5818C101.153 29.8309 100.304 33.0878 99.6349 36.4827C99.609 36.6177 99.5848 36.7464 99.5599 36.8811C99.3568 38.3593 98.8725 39.5603 99.3119 41.7838C99.3862 42.0457 99.494 42.326 99.6587 42.6072C100.063 43.3279 101.117 43.4195 101.623 43.3333C101.635 43.3323 101.648 43.3314 101.66 43.3305C101.816 43.3196 101.959 43.3187 102.091 43.3495C102.531 43.4517 102.942 43.4763 103.308 43.5021C103.514 43.5162 103.717 43.448 103.873 43.3124C104.028 43.1768 104.124 42.985 104.138 42.7791C104.152 42.5733 104.084 42.3702 103.948 42.2147C103.813 42.0591 103.621 41.9638 103.415 41.9496C103.415 41.9496 103.415 41.9496 103.415 41.9496C103.048 41.925 102.722 41.8996 102.445 41.8341C102.361 41.8147 102.291 41.7532 102.239 41.6695C102.235 41.6629 102.231 41.6563 102.228 41.6496C102.14 41.4987 102.146 41.2939 102.222 41.1645C102.295 41.0306 102.421 40.9869 102.419 40.9885C102.419 40.9883 102.405 40.9633 102.391 40.9111C102.225 40.3622 102.47 38.7354 102.707 37.4619C102.73 37.3348 102.753 37.2126 102.778 37.084C103.412 33.8496 104.244 30.5483 104.862 27.1523C104.876 27.072 104.89 26.9923 104.904 26.9131C105.146 25.4965 105.339 24.0734 105.516 22.6295C105.603 21.9047 105.686 21.1817 105.755 20.4312C105.789 20.0534 105.82 19.6796 105.833 19.2568C105.838 19.0486 105.843 18.8272 105.814 18.5359C105.794 18.3824 105.79 18.2277 105.665 17.9043C105.59 17.7515 105.514 17.4851 105.065 17.1853C104.848 17.0482 104.554 16.969 104.304 16.9756C104.064 16.9808 103.903 17.0311 103.76 17.0884C103.492 17.2049 103.387 17.298 103.283 17.377C102.871 17.7253 102.706 17.9578 102.492 18.2141C102.157 18.6325 101.867 19.0331 101.578 19.4267Z" fill="white"/>
<path d="M104.995 23.4917C105.221 23.5762 105.472 23.5675 105.691 23.4674C105.911 23.3674 106.082 23.1842 106.166 22.9582C106.251 22.7322 106.242 22.4819 106.142 22.2623C106.042 22.0427 105.859 21.8719 105.633 21.7874C105.633 21.7874 105.633 21.7874 105.633 21.7874C105.129 21.6004 104.498 21.3591 104.311 21.2222C104.309 21.2214 104.309 21.221 104.31 21.2212C104.31 21.2266 104.382 21.2455 104.468 21.4443C104.558 21.6564 104.49 21.9078 104.471 21.9514C104.43 22.0567 104.526 21.954 104.618 21.8789C104.626 21.8717 104.635 21.8642 104.643 21.8565C104.759 21.7505 104.903 21.6395 105.058 21.5315C106.392 20.6362 108.102 19.9563 109.766 19.3559C109.77 19.3546 109.774 19.3532 109.778 19.3519C111.722 18.6631 113.89 18.5563 116.1 18.6341C116.229 18.6385 116.359 18.645 116.488 18.6531C117.056 18.6912 117.573 18.9003 117.861 19.1346C117.923 19.1834 117.973 19.2336 118.012 19.2812C118.071 19.3682 118.083 19.4222 118.095 19.5595C118.104 19.6938 118.083 19.9059 118.018 20.152C118.01 20.1826 118.002 20.2129 117.993 20.2445C117.705 21.2234 116.837 22.3221 115.873 23.2894C115.816 23.3467 115.756 23.4061 115.698 23.4631C114.002 25.1063 111.992 26.5739 109.956 27.9566C109.819 28.0495 109.683 28.141 109.55 28.2311C108.412 28.9983 107.294 29.7789 106.159 30.564C105.594 30.9556 105.028 31.346 104.453 31.7424C104.166 31.9408 103.877 32.1404 103.579 32.3532C103.426 32.4638 103.28 32.5683 103.1 32.7117C102.999 32.7975 102.931 32.8336 102.72 33.0664C102.686 33.1071 102.647 33.1545 102.605 33.218C102.583 33.2498 102.561 33.2857 102.537 33.3281C102.504 33.3887 102.462 33.4726 102.427 33.5808C102.392 33.6894 102.36 33.8291 102.359 34.0051C102.354 34.2337 102.436 34.5583 102.609 34.793C102.691 34.9102 102.796 35.0129 102.879 35.0777C102.948 35.1315 103.015 35.1736 103.078 35.2073C103.203 35.2743 103.31 35.3087 103.399 35.3312C103.915 35.4232 103.914 35.3561 104.049 35.3519C104.249 35.3171 104.527 35.3145 104.822 35.3407C106.085 35.4643 107.529 35.9014 108.922 36.3483C109.173 36.4298 109.422 36.513 109.67 36.598C113.065 37.7279 116.242 39.3723 119.949 40.5246L120.019 40.543C120.171 40.5791 120.323 40.614 120.474 40.6475C121.887 40.9571 123.439 40.1861 124.845 40.0519C125.052 40.032 125.256 40.0256 125.458 40.0377C125.514 40.0412 125.568 40.0457 125.624 40.052C126.487 40.1521 127.358 40.2055 128.227 40.1963C128.227 40.1963 128.227 40.1963 128.227 40.1963C127.358 40.2055 126.487 40.1521 125.624 40.052C125.568 40.0457 125.515 40.0379 125.459 40.0282C125.26 39.9932 125.064 39.9365 124.87 39.8639C123.541 39.3651 122.372 38.1415 121.091 37.86C120.952 37.8293 120.813 37.7976 120.676 37.7654L120.746 37.7838C117.475 36.7873 114.07 35.1951 110.525 34.0522C110.263 33.9659 110.001 33.8812 109.736 33.7982C108.251 33.347 106.797 32.8844 105.052 32.7028C104.627 32.6673 104.175 32.6491 103.659 32.7187C103.699 32.7275 103.616 32.6717 104.049 32.7465C104.126 32.766 104.222 32.7966 104.339 32.8591C104.398 32.8904 104.461 32.9301 104.526 32.9812C104.606 33.0427 104.707 33.1411 104.785 33.2538C104.951 33.4797 105.031 33.7934 105.026 34.0106C105.025 34.1779 104.995 34.3081 104.963 34.4064C104.892 34.6115 104.843 34.665 104.815 34.7122C104.783 34.7589 104.759 34.7882 104.741 34.8094C104.645 34.9139 104.708 34.8465 104.747 34.8223C104.84 34.7531 104.971 34.6648 105.106 34.5767C105.374 34.4019 105.665 34.2214 105.954 34.0435C106.537 33.6861 107.13 33.3296 107.721 32.97C108.91 32.2478 110.085 31.5173 111.24 30.739C111.376 30.6476 111.513 30.5546 111.652 30.46C113.787 28.9992 115.852 27.4435 117.766 25.5476C117.833 25.481 117.901 25.4114 117.967 25.3437C119.062 24.181 120.193 22.9186 120.752 21.0117C120.769 20.9503 120.784 20.8898 120.799 20.8268C121.051 19.8794 120.983 18.3192 119.921 17.3553C119.738 17.183 119.543 17.0364 119.346 16.9119C118.405 16.3331 117.429 16.2262 116.538 16.2322C116.403 16.2348 116.268 16.2367 116.132 16.2375C113.813 16.2513 111.353 16.4081 109.018 17.3109C109.014 17.3125 109.011 17.314 109.007 17.3155C107.263 18.013 105.548 18.7 103.869 19.888C103.665 20.0402 103.462 20.204 103.256 20.405C103.241 20.4198 103.226 20.4348 103.211 20.45C103.085 20.5944 102.955 20.7117 102.768 21.0926C102.679 21.2729 102.575 21.6887 102.719 22.0487C102.857 22.3955 103.041 22.5297 103.161 22.6331C103.178 22.6468 103.195 22.6599 103.212 22.6726C103.97 23.1722 104.443 23.267 104.995 23.4917Z" fill="white"/>
<path d="M124.764 18.6428C124.579 19.0247 124.553 19.4644 124.692 19.8653C124.831 20.2662 125.124 20.5954 125.506 20.7805C125.887 20.9657 126.327 20.9915 126.728 20.8524C127.129 20.7133 127.458 20.4206 127.643 20.0388C127.643 20.0388 127.643 20.0388 127.643 20.0388C127.665 19.9939 127.686 19.9517 127.691 19.9413C127.688 19.9444 127.708 19.9197 127.633 20.0361C127.61 20.0649 127.583 20.1241 127.423 20.2821C127.354 20.3449 127.25 20.4462 127.017 20.5611C126.9 20.617 126.742 20.6775 126.528 20.7051C126.252 20.7516 125.771 20.6791 125.453 20.4564C125.125 20.2394 124.964 19.9732 124.88 19.7933C124.824 19.6684 124.811 19.6205 124.791 19.5508C124.756 19.4235 124.746 19.3357 124.739 19.2665C124.725 18.8984 124.75 18.9615 124.75 18.9096C124.771 18.8054 124.736 18.9633 124.715 19.0305C124.667 19.1993 124.608 19.395 124.551 19.5833C124.372 20.1637 124.183 20.7574 123.991 21.3551C123.967 21.4301 123.942 21.5071 123.916 21.586C122.45 26.1212 120.943 30.6588 119.485 35.2241C119.471 35.2692 119.457 35.314 119.443 35.3584C119.189 36.1581 118.959 36.9725 118.748 37.8007C118.642 38.2163 118.54 38.6353 118.445 39.0786C118.397 39.3008 118.351 39.5302 118.311 39.7925C118.282 40.0626 118.196 40.3492 118.308 40.9655C118.331 41.073 118.364 41.1917 118.418 41.3237C118.504 41.5374 118.741 41.7705 119.042 41.8696C119.343 41.9741 119.656 41.918 119.85 41.7894C120.232 41.5342 120.281 41.1521 120.382 41.0368C120.4 41.014 120.42 40.9989 120.441 40.993C120.699 40.9227 120.934 40.791 121.167 40.6617C121.167 40.6617 121.167 40.6617 121.167 40.6617C120.934 40.791 120.699 40.9227 120.441 40.993C120.42 40.9989 120.395 40.9948 120.37 40.9819C120.238 40.9191 120.041 40.5698 120.187 40.2639C120.258 40.1088 120.454 39.9991 120.66 40.0207C120.866 40.0375 121.035 40.161 121.074 40.2593C121.1 40.3205 121.113 40.3656 121.121 40.3979C121.154 40.6019 121.141 40.4639 121.184 40.3252C121.22 40.1799 121.272 39.9983 121.328 39.8174C121.441 39.4514 121.572 39.0644 121.704 38.6784C121.968 37.9051 122.242 37.1163 122.493 36.3264C122.507 36.2826 122.521 36.2383 122.535 36.1936C123.982 31.6602 125.488 27.124 126.962 22.5678C126.988 22.4883 127.013 22.4105 127.037 22.3347C127.231 21.7297 127.423 21.132 127.61 20.5206C127.672 20.3196 127.734 20.1142 127.796 19.8955C127.83 19.7646 127.852 19.7246 127.909 19.4196C127.913 19.343 127.943 19.3798 127.927 18.9869C127.92 18.9141 127.909 18.8232 127.874 18.6934C127.853 18.6224 127.84 18.5736 127.783 18.4474C127.698 18.2654 127.536 17.9979 127.207 17.78C126.888 17.5564 126.405 17.4836 126.127 17.5303C125.912 17.5581 125.753 17.6189 125.634 17.6755C125.399 17.7916 125.292 17.8953 125.22 17.9609C125.053 18.1253 125.016 18.1985 124.987 18.2359C124.883 18.3948 124.879 18.4172 124.852 18.4645C124.811 18.5454 124.787 18.5956 124.764 18.6428Z" fill="white"/>
<path d="M127.801 17.6419C127.634 17.2522 127.318 16.9451 126.923 16.7882C126.529 16.6314 126.089 16.6376 125.699 16.8054C125.309 16.9733 125.002 17.2892 124.845 17.6834C124.689 18.0777 124.695 18.5182 124.863 18.9079C124.863 18.9079 124.863 18.9079 124.863 18.9079C125.038 19.3151 125.213 19.7222 125.389 20.1292C126.729 23.2429 128.057 26.352 129.337 29.4781C129.338 29.48 129.339 29.4819 129.34 29.4838C130.709 32.8211 132.028 36.1783 133.41 39.5545C133.415 39.5666 133.42 39.5786 133.425 39.5906C133.799 40.4842 135.225 40.9463 135.967 41.6459C136.092 41.7618 136.201 41.8816 136.288 42.014C136.293 42.0209 136.297 42.0278 136.302 42.0348C136.448 42.2693 136.601 42.4993 136.76 42.7258C136.601 42.4993 136.448 42.2693 136.302 42.0348C136.297 42.0278 136.293 42.0208 136.289 42.0137C136.207 41.8776 136.158 41.7224 136.135 41.5573C136.009 40.5561 136.722 39.252 136.361 38.3822C136.356 38.3705 136.352 38.3588 136.347 38.347C134.997 35.0222 133.68 31.6304 132.301 28.2703C132.3 28.2684 132.299 28.2664 132.298 28.2645C131.007 25.1116 129.67 21.9816 128.328 18.8639C128.152 18.4564 127.977 18.0491 127.801 17.6419Z" fill="white"/>
<path d="M119.613 31.9098C119.204 31.9323 118.821 32.1162 118.548 32.4212C118.274 32.7261 118.134 33.127 118.156 33.5358C118.179 33.9445 118.362 34.3276 118.667 34.6008C118.972 34.8739 119.373 35.0147 119.782 34.9922C119.782 34.9922 119.782 34.9922 119.782 34.9922C120.182 34.9705 120.607 34.9458 121.029 34.9097C122.519 34.7815 123.943 34.5429 125.347 34.2935C125.355 34.2921 125.362 34.2908 125.37 34.2894C129.241 33.5794 132.948 32.309 136.757 31.5492C136.758 31.5491 136.758 31.5489 136.759 31.5488C138.639 31.1737 140.509 30.8166 142.391 30.4946C142.785 30.4269 143.18 30.3602 143.576 30.2933C143.856 30.2459 144.106 30.0889 144.271 29.857C144.436 29.625 144.502 29.3371 144.455 29.0565C144.407 28.7759 144.25 28.5257 144.018 28.3608C143.786 28.196 143.498 28.13 143.218 28.1774C143.218 28.1774 143.218 28.1774 143.218 28.1774C142.822 28.2443 142.425 28.3114 142.028 28.3797C140.124 28.7054 138.229 29.0673 136.339 29.4444C136.338 29.4445 136.338 29.4447 136.337 29.4448C132.517 30.2069 128.605 30.5615 124.824 31.251C124.817 31.2523 124.81 31.2536 124.802 31.2549C123.439 31.4976 122.08 31.7217 120.768 31.8337C120.392 31.8659 120.013 31.8881 119.613 31.9098Z" fill="white"/>
<path d="M145.276 18.6769C145.159 18.282 144.89 17.9497 144.528 17.7531C144.166 17.5565 143.741 17.5117 143.346 17.6286C142.951 17.7455 142.618 18.0145 142.422 18.3764C142.225 18.7383 142.18 19.1635 142.297 19.5584C142.297 19.5584 142.297 19.5584 142.297 19.5584C142.31 19.5752 142.346 19.9035 142.339 20.1888C142.337 20.4889 142.316 20.8199 142.287 21.1536C142.131 22.8177 141.811 24.5628 141.476 26.2962C141.423 26.5705 141.37 26.8418 141.318 27.1144C140.741 30.3063 140.049 33.3119 139.904 36.8712C139.882 37.5922 140.066 39.0125 141.083 39.8473C141.125 39.8836 141.165 39.9173 141.207 39.9509C142.225 40.7291 143.229 40.8475 144.065 40.9253C146.735 41.0496 148.917 40.5031 151.161 40.0301L151.206 40.0198C151.638 39.909 152.068 39.7951 152.496 39.6794C155.385 38.8955 157.875 36.7748 160.695 35.8662C160.828 35.8233 160.957 35.7846 161.09 35.7477C161.756 35.563 162.425 35.3778 163.093 35.1935C163.795 34.9999 164.497 34.8074 165.199 34.6157C165.199 34.6157 165.199 34.6157 165.199 34.6157C164.497 34.8074 163.795 34.9999 163.093 35.1935C162.425 35.3778 161.756 35.563 161.09 35.7477C160.957 35.7846 160.827 35.8177 160.69 35.8497C157.804 36.5241 154.581 35.9921 151.729 36.6826C151.306 36.7846 150.883 36.8854 150.463 36.9833L150.508 36.973C148.372 37.3915 146.128 37.8383 144.304 37.7342C143.755 37.7021 143.299 37.5461 143.2 37.4468C143.195 37.4431 143.191 37.4399 143.188 37.437C143.154 37.3999 143.178 37.4441 143.149 37.3697C143.124 37.2987 143.097 37.1069 143.096 36.8578C143.184 34.0412 143.801 30.7722 144.368 27.6985C144.42 27.4299 144.472 27.1624 144.525 26.8917C144.868 25.1037 145.199 23.3362 145.381 21.428C145.424 20.6118 145.573 19.9604 145.276 18.6769Z" fill="white"/>
</svg>
