<svg width="80" height="54" viewBox="0 0 80 54" fill="none" xmlns="http://www.w3.org/2000/svg">
<path d="M0.275702 17.1091C0.0561666 17.402 -0.038044 17.7701 0.0137953 18.1324C0.0656346 18.4947 0.259277 18.8215 0.552124 19.0411C0.844971 19.2606 1.21303 19.3548 1.57534 19.303C1.93765 19.2511 2.26453 19.0575 2.48406 18.7647C2.48406 18.7647 2.48406 18.7647 2.48406 18.7647C4.55874 15.9973 7.34069 13.2579 10.1154 12.2416C10.1157 12.2415 10.1159 12.2415 10.1159 12.2415C10.119 12.2329 10.0475 12.3075 9.73921 12.2493C9.41264 12.1889 9.13446 11.8801 9.08285 11.8006C9.00018 11.6887 8.99762 11.7261 8.99112 11.7883C8.99107 11.7895 8.99102 11.7908 8.99097 11.792C8.97339 12.4819 8.67453 13.6922 8.46756 14.7378C8.46656 14.7429 8.46556 14.7479 8.46455 14.753C7.86264 17.6266 7.01633 20.6586 6.27432 23.6395C6.27116 23.652 6.26799 23.6645 6.26481 23.6771C4.73322 29.7405 3.19123 35.7957 1.75041 41.9163C1.74419 41.9429 1.73801 41.9695 1.73186 41.996C1.26896 44.2235 0.637376 46.0306 0.538378 48.9151C0.540101 48.9588 0.542385 49.0044 0.54485 49.0462C0.563177 49.3039 0.576829 49.5648 0.684531 49.9784C0.750346 50.1896 0.804777 50.4469 1.11719 50.8681C1.27637 51.0734 1.54354 51.3354 1.93408 51.5032C2.32234 51.6748 2.75474 51.6941 3.0495 51.6466C3.24878 51.6167 3.40385 51.5673 3.53318 51.5171C4.73883 50.9712 5.06586 50.3307 5.46476 49.8185C5.83075 49.2889 6.10691 48.7903 6.36787 48.2986C6.8828 47.3177 7.31804 46.3693 7.75775 45.4369C7.76742 45.4163 7.77711 45.3957 7.78681 45.3751C9.20594 42.0605 9.46372 39.1598 10.0784 36.1526C10.0838 36.1224 10.0894 36.0921 10.0949 36.0617C11.3455 29.0894 12.4264 22.1201 13.6245 15.1979C13.6325 15.1525 13.6403 15.1075 13.6482 15.0628C13.8776 13.7586 14.1234 12.4763 14.4252 11.232C14.5749 10.6191 14.7413 10.0078 14.9298 9.46728C15.0242 9.19727 15.1243 8.94831 15.2216 8.7558C15.3149 8.56247 15.4088 8.46994 15.3541 8.52467C15.3486 8.5293 15.3427 8.53355 15.3417 8.53426C15.1972 8.6387 14.934 8.75334 14.6697 8.76974C14.4047 8.78987 14.195 8.7286 14.0786 8.68028C13.8458 8.5748 13.8528 8.53846 13.8638 8.55772C13.8689 8.56294 13.8777 8.57216 13.8886 8.58457C14.9221 10.0622 15.3407 14.0884 15.7078 17.1435C15.7136 17.1956 15.7194 17.2479 15.7252 17.3006C16.2962 23.1592 16.297 29.2795 16.2836 35.3136C16.2831 35.3795 16.2827 35.4451 16.2823 35.5103C16.25 38.502 16.1829 41.6743 15.7655 44.3526C15.7559 44.4025 15.7448 44.4534 15.7391 44.476C15.7369 44.4853 15.7351 44.4904 15.7402 44.4733C15.7566 44.4397 15.7175 44.4785 15.8622 44.1976C15.8843 44.1587 15.9121 44.1127 15.9518 44.0562C16.0132 43.9718 16.1125 43.8323 16.3315 43.6644C16.4424 43.5811 16.5897 43.4886 16.7894 43.4147C17.0786 43.3016 17.522 43.2592 17.8993 43.3733C18.277 43.4784 18.5597 43.7067 18.6961 43.8517C18.7907 43.9501 18.8566 44.0395 18.9071 44.1172C19.1006 44.4327 19.1064 44.5539 19.1275 44.6098C19.1457 44.6783 19.1541 44.7246 19.1601 44.7601C19.1754 44.8593 19.1727 44.871 19.1738 44.8784C19.1731 44.8813 19.1738 44.7693 19.1785 44.6782C19.1879 44.4769 19.2055 44.2539 19.2261 44.0257C19.2678 43.5678 19.3212 43.0989 19.3797 42.6252C19.4969 41.6821 19.6344 40.728 19.7818 39.7702C19.7887 39.7253 19.7957 39.6801 19.8027 39.6346C20.7309 33.8173 21.8324 27.958 23.1003 22.2124C23.1076 22.1802 23.1148 22.1482 23.122 22.1162C23.844 18.9537 24.6115 15.8807 25.8653 13.0383C25.8749 13.0161 25.8845 12.9939 25.8941 12.9718C27.1845 9.98725 28.8161 7.17308 30.7334 4.515C30.7425 4.50239 30.7515 4.48986 30.7605 4.47739C30.9729 4.1837 31.1971 3.90274 31.3999 3.68977C31.4982 3.58555 31.5978 3.49667 31.6363 3.469C31.6523 3.4559 31.6566 3.46049 31.5802 3.49702C31.5023 3.52136 31.3282 3.64441 30.8321 3.57836C30.7189 3.55946 30.5759 3.52068 30.4307 3.45194C30.1577 3.32748 29.9384 3.10664 29.8421 2.96896C29.7368 2.82228 29.7018 2.73225 29.6773 2.67231C29.6361 2.56051 29.6433 2.55588 29.6442 2.56989C29.6511 2.60653 29.6629 2.73087 29.6677 2.8583C29.6784 3.12638 29.6742 3.44076 29.6643 3.76163C29.6436 4.40708 29.6008 5.08275 29.5531 5.75429C29.4555 7.10839 29.3345 8.46643 29.2069 9.84236C29.2037 9.87668 29.2005 9.91115 29.1973 9.94577C28.2972 19.3831 27.2422 28.8421 26.3109 38.317C26.3096 38.3303 26.3083 38.3435 26.307 38.3568C26.1018 40.4875 25.8996 42.592 25.7549 44.7628C25.6865 46.256 25.4976 47.7468 25.8791 49.6265C25.8803 49.6322 25.8816 49.6378 25.8828 49.6435C26.1949 50.9147 26.6989 52.2067 28.1115 53.2883C28.1154 53.2911 28.1194 53.2939 28.1233 53.2967C28.5908 53.6395 29.3698 53.7205 29.9502 53.5273C30.5428 53.3435 30.8987 53.0108 31.2631 52.8759C31.2646 52.8753 31.2661 52.8748 31.2676 52.8742C32.1308 52.5361 32.7847 52.0512 33.4288 51.6161C33.5908 51.5047 33.702 51.3336 33.7379 51.1404C33.7737 50.9471 33.7313 50.7475 33.62 50.5855C33.5087 50.4234 33.3376 50.3123 33.1443 50.2764C32.951 50.2406 32.7514 50.283 32.5894 50.3943C32.5894 50.3943 32.5894 50.3943 32.5894 50.3943C31.9527 50.8305 31.3322 51.2628 30.7428 51.4879C30.7418 51.4882 30.7408 51.4886 30.7398 51.489C30.4882 51.5865 30.1861 51.413 30.1172 51.1817C30.0362 50.9463 30.1831 50.7532 30.1304 50.6905C30.1299 50.6899 30.1295 50.6894 30.1291 50.6888C29.8887 50.4192 29.5527 49.6306 29.3974 48.8642C29.3967 48.8607 29.3959 48.8572 29.3951 48.8537C29.1685 47.871 29.2647 46.3987 29.3473 44.9955C29.4856 42.9172 29.6864 40.8189 29.8901 38.7052C29.8914 38.692 29.8927 38.6789 29.894 38.6657C30.8216 29.2264 31.8761 19.7739 32.7817 10.2803C32.785 10.2454 32.7882 10.2106 32.7914 10.1759C32.9203 8.78594 33.0428 7.4134 33.1439 6.01096C33.1934 5.31263 33.2388 4.60848 33.2625 3.87408C33.2734 3.50366 33.281 3.13807 33.2646 2.71085C33.2548 2.49729 33.2441 2.27874 33.1942 1.97219C33.1659 1.81464 33.136 1.64117 33.0335 1.36989C32.9317 1.13066 32.7159 0.567219 31.9661 0.195781C31.7787 0.107156 31.5914 0.0553975 31.4321 0.0287063C30.727 -0.0713972 30.3433 0.115706 30.0759 0.226407C29.8088 0.351156 29.6374 0.470505 29.4848 0.58266C29.1871 0.80697 28.9837 1.00861 28.7928 1.20722C28.4182 1.60304 28.1235 1.9826 27.8439 2.36716C27.8321 2.38339 27.8204 2.39966 27.8087 2.41597C25.77 5.24032 23.9839 8.31459 22.5913 11.5395C22.5809 11.5635 22.5705 11.5875 22.5602 11.6115C21.1661 14.7795 20.347 18.1001 19.6103 21.3237C19.6029 21.3565 19.5955 21.3894 19.5881 21.4224C18.2922 27.2984 17.194 33.1409 16.2452 39.083C16.238 39.1296 16.2308 39.176 16.2237 39.2221C16.0725 40.2055 15.9306 41.1882 15.8071 42.1824C15.7452 42.6833 15.6881 43.1815 15.6407 43.7009C15.6173 43.963 15.5963 44.2177 15.5823 44.5136C15.5765 44.6652 15.5682 44.793 15.5777 45.0464C15.5816 45.1143 15.5838 45.1921 15.6079 45.3445C15.6168 45.3983 15.6285 45.4604 15.6504 45.5423C15.6743 45.6091 15.6866 45.7508 15.8875 46.0773C15.94 46.1578 16.0077 46.2497 16.1042 46.3501C16.2435 46.4981 16.5301 46.7291 16.9114 46.8351C17.2925 46.9504 17.7397 46.9077 18.0329 46.7931C18.2351 46.7183 18.3851 46.6243 18.4988 46.5389C18.7232 46.367 18.8288 46.2204 18.8955 46.1285C18.9387 46.067 18.97 46.0154 18.9957 45.97C19.1004 45.7771 19.1084 45.7339 19.1367 45.6635C19.1624 45.5928 19.1707 45.565 19.1836 45.5234C19.2091 45.4387 19.219 45.3994 19.2337 45.3405C19.2614 45.2285 19.2823 45.1272 19.2995 45.0388C19.8226 41.6536 19.8366 38.675 19.8822 35.5348C19.8826 35.4689 19.8831 35.4027 19.8835 35.3361C19.8936 29.2152 19.9084 23.1491 19.3036 16.9064C19.2976 16.8525 19.2917 16.7988 19.2858 16.7455C18.7058 13.3478 19.1662 10.3454 16.5919 6.20716C16.5397 6.14783 16.4842 6.0877 16.4227 6.02553C16.2121 5.82261 15.9738 5.57926 15.4498 5.35164C14.9707 5.08995 13.8286 5.12722 13.2895 5.57644C13.2136 5.62911 13.1342 5.68876 13.056 5.75365C11.9567 6.77638 11.831 7.55338 11.5317 8.27875C11.2798 9.00365 11.0951 9.69698 10.9277 10.3791C10.5944 11.7547 10.3403 13.0898 10.1022 14.4417C10.0942 14.487 10.0863 14.5325 10.0782 14.5784C8.87151 21.5513 7.79031 28.5207 6.55288 35.4181C6.54741 35.4482 6.54196 35.4782 6.53652 35.508C5.9694 38.4099 5.53369 41.5971 4.52878 43.8437C4.51901 43.8644 4.50926 43.8852 4.49953 43.9059C4.05922 44.8409 3.62983 45.7706 3.18395 46.6185C2.96176 47.0395 2.73167 47.4431 2.50933 47.763C2.3173 48.0794 1.97855 48.307 2.22146 48.1645C2.29119 48.1376 2.38558 48.106 2.52253 48.0854C2.72319 48.0521 3.05786 48.0636 3.35873 48.1971C3.66157 48.3274 3.8558 48.5247 3.95674 48.6552C4.15302 48.9249 4.14176 48.9993 4.1571 49.029C4.16668 49.0754 4.14383 48.9564 4.13864 48.8349C4.13738 48.8135 4.13633 48.7923 4.13556 48.7727C4.16535 47.2807 4.7833 44.8484 5.2384 42.811C5.24446 42.7849 5.25054 42.7587 5.25666 42.7325C6.68097 36.6816 8.22528 30.615 9.75461 24.561C9.75778 24.5485 9.76095 24.536 9.76411 24.5235C10.5108 21.5176 11.3047 18.5952 11.9435 15.4272C11.9446 15.4216 11.9456 15.4159 11.9467 15.4103C12.1555 14.172 12.3028 13.0617 12.1046 11.4238C12.1038 11.4192 12.1031 11.4146 12.1023 11.4101C12.0578 11.1688 11.9973 10.8998 11.7837 10.5095C11.623 10.1941 11.1531 9.6711 10.5703 9.53728C10.0079 9.40251 9.66532 9.51504 9.41567 9.5718C9.40585 9.57437 9.39609 9.57699 9.38639 9.57965C5.18705 11.1611 2.65425 14.0682 0.275702 17.1091Z" fill="black"/>
<path d="M34.5525 25.8716C34.9802 25.9014 35.4021 25.76 35.7256 25.4786C36.049 25.1972 36.2475 24.7989 36.2772 24.3712C36.307 23.9435 36.1656 23.5215 35.8842 23.1981C35.6028 22.8746 35.2045 22.6762 34.7768 22.6465C34.7768 22.6465 34.7768 22.6465 34.7768 22.6465C34.6427 22.6371 34.517 22.6283 34.4191 22.6187C34.3718 22.6141 34.3288 22.6085 34.3209 22.607C34.3183 22.6068 34.3224 22.6063 34.3654 22.6172C34.3881 22.6233 34.4207 22.6315 34.4855 22.6558C34.5563 22.6892 34.6434 22.6974 34.9069 22.9054C35.0254 23.0109 35.2268 23.1824 35.3771 23.5853C35.5334 23.9843 35.4578 24.5099 35.3308 24.7603C35.0757 25.2575 34.9396 25.277 34.8544 25.3616C34.8436 25.3697 34.8358 25.375 34.8309 25.3782C36.6107 24.6851 40.3133 24.1231 43.1637 23.4466L43.126 23.4546C43.1379 23.4523 43.1497 23.4499 43.1614 23.4475C44.5257 23.174 45.8552 22.7736 47.2133 22.5066C47.2165 22.506 47.2197 22.5054 47.2229 22.5047C47.5132 22.4461 47.7894 22.3011 47.8955 22.1714C47.9427 22.1152 47.932 22.0458 47.9499 21.9781C47.967 21.91 48.044 21.888 48.1288 21.931C48.2262 22.0076 48.3741 22.0493 48.5175 22.0599C48.6621 22.0698 48.7904 22.0479 48.8967 21.9858C49.003 21.9237 49.085 21.8227 49.1474 21.6918C49.2084 21.5616 49.2447 21.4123 49.2257 21.2898C49.2257 21.2898 49.2257 21.2898 49.2257 21.2898C49.1748 21.1 49.0803 20.86 48.8738 20.6386C48.6691 20.4159 48.3927 20.2662 48.173 20.1736C47.6582 19.9669 47.3092 19.8965 46.9804 19.8901C46.9769 19.8901 46.9734 19.8901 46.9699 19.8901C45.4724 19.8868 43.9644 19.9459 42.5166 20.2363C42.5041 20.2388 42.4916 20.2413 42.4791 20.2439L42.4414 20.2519C39.3846 21.0466 36.9206 21.0655 33.0533 22.6778C33.009 22.707 32.9641 22.7382 32.9184 22.7724C32.8071 22.877 32.6473 22.9168 32.3785 23.4429C32.2449 23.7079 32.1675 24.25 32.3293 24.6638C32.485 25.0819 32.6972 25.2654 32.8276 25.3809C33.1171 25.6104 33.2358 25.6326 33.3382 25.6783C33.4339 25.7143 33.4993 25.7322 33.5549 25.7469C33.6631 25.7745 33.7346 25.7867 33.798 25.7974C33.9231 25.8176 34.015 25.8272 34.1019 25.836C34.2735 25.8527 34.4168 25.862 34.5525 25.8716Z" fill="black"/>
<path d="M38.9207 23.4749C38.7915 23.0289 38.4905 22.6526 38.0838 22.4286C37.6771 22.2046 37.1981 22.1513 36.7522 22.2804C36.3062 22.4096 35.9298 22.7106 35.7058 23.1173C35.4818 23.524 35.4286 24.003 35.5577 24.4489C35.5577 24.4489 35.5577 24.4489 35.5577 24.4489C35.6386 24.7263 35.6927 25.07 35.7219 25.444C35.8148 26.7124 35.6828 28.1936 35.5123 29.6439C35.5118 29.6478 35.5114 29.6518 35.5109 29.6558C35.176 33.3837 34.074 36.015 34.0201 40.9914C34.0205 40.9934 34.0209 40.9955 34.0214 40.9976C34.0982 41.4064 34.3497 41.9089 34.6931 42.235C35.0339 42.5678 35.383 42.7312 35.6557 42.8318C36.2067 43.0225 36.5639 43.0347 36.8699 43.0623L37.273 43.0459C37.2779 43.0451 37.2828 43.0444 37.2877 43.0436C40.0567 42.5918 42.4356 41.2522 44.5861 39.6556L44.6508 39.6115C44.6514 39.6109 44.6521 39.6104 44.6527 39.6098C44.7112 39.5598 44.7669 39.5057 44.8205 39.4476C45.2008 39.0491 45.4576 38.3995 45.5918 37.9443C45.6352 37.8113 45.6212 37.6425 45.5735 37.4902C45.5245 37.3371 45.4457 37.2131 45.3338 37.1303C45.222 37.0474 45.0803 37.0082 44.9196 37.006C44.7601 37.0047 44.5945 37.0406 44.4799 37.121C44.4799 37.121 44.4799 37.121 44.4799 37.121C44.0868 37.4085 43.7209 37.4363 43.375 37.5906C43.3263 37.6121 43.2785 37.6358 43.2316 37.6627C43.2311 37.663 43.2306 37.6633 43.23 37.6636L43.2947 37.6196C41.2229 38.6355 38.8765 39.1464 36.7353 39.4862C36.7314 39.4868 36.7276 39.4874 36.7238 39.488L37.1269 39.4715C36.9417 39.4622 36.8021 39.4245 36.8866 39.4488C36.9281 39.4653 37.0539 39.5102 37.2183 39.6692C37.3843 39.8233 37.5177 40.0965 37.5457 40.2636C37.5458 40.264 37.5459 40.2644 37.546 40.2648C37.6629 38.0056 38.6166 33.5661 38.9871 30.0734C38.9876 30.0691 38.9881 30.0649 38.9886 30.0606C39.1664 28.4964 39.3333 26.9363 39.2123 25.1689C39.1696 24.6376 39.0926 24.0713 38.9207 23.4749Z" fill="black"/>
<path d="M33.6175 35.2244C34.0586 35.0828 34.4254 34.7716 34.6372 34.3595C34.8489 33.9473 34.8883 33.468 34.7466 33.0268C34.6049 32.5857 34.2937 32.2189 33.8816 32.0071C33.4695 31.7954 32.9901 31.756 32.5489 31.8977C32.5489 31.8977 32.5489 31.8977 32.5489 31.8977C32.5363 31.9024 32.4615 31.9236 32.5537 31.8978C32.5706 31.8935 32.5921 31.8876 32.6429 31.8772C32.6559 31.8745 32.671 31.8716 32.6899 31.8683C32.7021 31.8722 32.7187 31.8413 33.0615 31.8444C33.1573 31.8505 33.2829 31.8537 33.5167 31.9251C33.7314 32.0004 34.1777 32.156 34.5197 32.7523C34.8674 33.364 34.7101 34.0678 34.5662 34.3354C34.3888 34.6738 34.3713 34.6455 34.3161 34.7227C34.1249 34.9378 34.0405 34.9803 33.975 35.0297C33.7448 35.1771 33.7698 35.1467 33.7452 35.1625C33.7285 35.1705 33.7178 35.1753 33.7096 35.179C33.6826 35.1909 33.6854 35.1894 33.6837 35.1902C33.6837 35.1902 33.6938 35.1861 33.7036 35.1822C33.7471 35.165 33.8025 35.1437 33.857 35.1228C33.9668 35.0806 34.0811 35.0371 34.1936 34.9942C34.9128 34.7207 35.6332 34.4465 36.357 34.1698L36.3731 34.1636C36.4099 34.1491 36.4468 34.1346 36.4836 34.1201C38.7402 33.2332 40.7728 31.7238 43.078 30.9206C44.1317 30.5532 45.1895 30.1944 46.2501 29.8427C46.4799 29.7665 46.71 29.6906 46.941 29.6148C47.2025 29.5289 47.4191 29.3427 47.5433 29.0971C47.6675 28.8515 47.689 28.5666 47.6031 28.3052C47.5172 28.0437 47.331 27.827 47.0854 27.7029C46.8398 27.5787 46.555 27.5572 46.2935 27.6431C46.2935 27.6431 46.2935 27.6431 46.2935 27.6431C46.0606 27.7195 45.8287 27.7961 45.5969 27.8729C44.5274 28.2275 43.4595 28.5898 42.3948 28.961C40.0726 29.77 37.5097 29.9625 35.206 30.8679C35.1686 30.8827 35.1311 30.8974 35.0936 30.9121L35.1096 30.9059C34.3875 31.182 33.6724 31.4541 32.9503 31.7288C32.8365 31.7721 32.7215 31.8159 32.6044 31.8609C32.5446 31.8839 32.4889 31.9053 32.4175 31.9334C32.3999 31.9404 32.3791 31.9487 32.354 31.959C32.336 31.9665 32.3275 31.9697 32.2851 31.9884C32.273 31.9939 32.2589 32.0003 32.2393 32.0096C32.2128 32.0264 32.2319 31.9988 31.9992 32.1479C31.9331 32.1977 31.8483 32.2406 31.6569 32.456C31.6015 32.5333 31.584 32.505 31.4065 32.8436C31.2625 33.1113 31.1053 33.8152 31.453 34.427C31.7951 35.0234 32.2415 35.1791 32.4563 35.2545C32.6902 35.326 32.8162 35.3292 32.9122 35.3353C33.256 35.3384 33.2756 35.307 33.2877 35.3109C33.3073 35.3075 33.3231 35.3045 33.3368 35.3017C33.3906 35.2906 33.416 35.2838 33.4378 35.2782C33.5868 35.2368 33.5705 35.2387 33.6175 35.2244Z" fill="black"/>
<path d="M52.9395 21.1009C52.6372 20.7314 52.2005 20.4972 51.7255 20.4497C51.2505 20.4022 50.776 20.5453 50.4065 20.8476C50.0371 21.1499 49.8028 21.5866 49.7553 22.0616C49.7078 22.5366 49.8509 23.0111 50.1532 23.3806C49.9556 23.1218 49.971 23.0389 49.9636 23.0377C49.964 23.0364 49.9749 23.0994 49.98 23.1793C50.0238 24.1987 49.7725 25.7786 49.5433 27.175L49.5469 27.1541C49.5462 27.1585 49.5454 27.1628 49.5446 27.1672C49.0284 30.0269 48.4715 32.89 47.9651 35.8036C47.9642 35.8086 47.9634 35.8135 47.9626 35.8185C47.8556 36.5875 47.8307 37.2522 48.2747 38.4607C48.376 38.7067 48.5441 39.0407 48.8271 39.2859C49.1102 39.531 49.3916 39.5916 49.5959 39.5999C49.76 39.5866 49.9228 39.565 50.0665 39.51C50.2103 39.4547 50.3247 39.3681 50.3958 39.2505C50.467 39.1329 50.4905 38.9914 50.4727 38.8383C50.4548 38.6855 50.3983 38.5313 50.3338 38.3798C50.3338 38.3798 50.3338 38.3798 50.3338 38.3798C50.2936 38.24 50.3377 38.1296 50.4558 38.1392C50.5721 38.1497 50.6621 38.201 50.7292 38.1621C51.074 37.8994 51.3951 37.1053 51.5111 36.4249C51.5119 36.4201 51.5127 36.4154 51.5135 36.4106C52.0072 33.57 52.5661 30.6937 53.0876 27.8052C53.0884 27.8008 53.0892 27.7963 53.09 27.7919L53.0936 27.771C53.3258 26.2347 53.6279 24.8849 53.5713 22.9298C53.4999 22.5098 53.6248 22.0774 52.9395 21.1009Z" fill="black"/>
<path d="M54.6901 20.1937C54.551 19.8086 54.2646 19.4944 53.8938 19.3204C53.5231 19.1464 53.0984 19.1268 52.7133 19.266C52.3281 19.4051 52.014 19.6915 51.84 20.0622C51.666 20.4329 51.6464 20.8576 51.7855 21.2428C51.7855 21.2428 51.7855 21.2428 51.7855 21.2428C51.8683 21.4722 51.9523 21.7041 52.0364 21.9354C53.3364 25.4063 54.4428 28.7677 56.3004 32.3295C56.3006 32.3298 56.3007 32.3301 56.3009 32.3304C56.4696 32.6254 56.9328 32.8563 57.4278 32.8543C57.935 32.8623 58.3128 32.5877 58.5163 32.4387C58.5176 32.4378 58.519 32.4369 58.5203 32.436C59.069 31.9784 59.0589 31.4832 59.3566 31.1828C59.3568 31.1827 59.3569 31.1825 59.357 31.1824C59.3836 31.1523 59.4094 31.1217 59.4344 31.0905C59.5902 30.901 59.7001 30.6788 59.7847 30.4495C59.7847 30.4495 59.7847 30.4495 59.7847 30.4495C59.7001 30.6788 59.5902 30.901 59.4344 31.0905C59.4094 31.1217 59.3836 31.1523 59.357 31.1824C59.3569 31.1825 59.3568 31.1827 59.3566 31.1828C59.1025 31.4805 58.4691 31.5729 58.233 31.3762C58.2326 31.3758 58.2322 31.3753 58.2318 31.3749C58.1508 31.3049 58.2122 31.0129 58.4568 30.8805C58.6876 30.7408 58.9501 30.738 58.9706 30.778C58.9705 30.7778 58.9704 30.7776 58.9702 30.7774C57.4417 27.8575 56.1908 24.2549 54.9389 20.8807C54.8556 20.6514 54.7723 20.4214 54.6901 20.1937Z" fill="black"/>
<path d="M62.0077 18.4529C62.3814 18.1558 62.6217 17.7225 62.6759 17.2481C62.73 16.7738 62.5935 16.2974 62.2965 15.9238C61.9994 15.5501 61.566 15.3097 61.0917 15.2556C60.6174 15.2014 60.141 15.3379 59.7673 15.635C59.7673 15.635 59.7673 15.635 59.7673 15.635C59.6162 15.7517 59.2837 16.0283 59.0512 16.3303C58.812 16.6328 58.6503 16.9304 58.5259 17.1988C57.8518 18.8228 57.7604 20.0129 57.555 21.3109C57.5537 21.3205 57.5523 21.3301 57.551 21.3397C56.9447 26.2009 56.7122 30.9233 56.5956 35.7678C56.5954 35.7807 56.5952 35.7936 56.5951 35.8064C56.612 36.927 56.7187 37.8754 57.3134 39.3572C57.4441 39.6252 57.7224 40.1768 58.3549 40.4017C58.9503 40.5802 59.2247 40.439 59.4416 40.3984C59.6415 40.3407 59.8232 40.1922 59.9489 40.0061C60.0744 39.8188 60.1336 39.6092 60.1112 39.4028C60.0889 39.1965 59.9861 39.0044 59.8234 38.8483C59.6608 38.6934 59.4515 38.5873 59.2438 38.5738C59.2438 38.5738 59.2438 38.5738 59.2438 38.5738C59.0724 38.5708 58.9399 38.4812 59.1661 38.5077C59.2732 38.5269 59.3961 38.6153 59.4409 38.6501C59.4912 38.6878 59.5042 38.6791 59.5175 38.6461C59.6063 38.0718 59.8902 36.8809 59.9257 35.8944C59.9261 35.8823 59.9266 35.87 59.9271 35.8578C60.1492 31.2005 60.5447 26.4046 61.1179 21.827C61.1191 21.8182 61.1203 21.8094 61.1215 21.8005C61.2788 20.6593 61.5007 19.3629 61.7946 18.7074C61.8358 18.6174 61.8676 18.572 61.8723 18.5667C61.8819 18.5587 61.8502 18.5778 62.0077 18.4529Z" fill="black"/>
<path d="M62.2288 22.2379C62.1579 22.5357 62.2083 22.8494 62.3687 23.1101C62.5292 23.3707 62.7867 23.557 63.0844 23.6278C63.3822 23.6987 63.6959 23.6483 63.9566 23.4879C64.2173 23.3274 64.4035 23.07 64.4743 22.7722C64.4743 22.7722 64.4743 22.7722 64.4743 22.7722C64.5651 22.3912 64.6732 22.0226 64.8022 21.7132C64.9136 21.4098 65.1385 21.1516 65.0797 21.2176C65.0788 21.2182 65.0777 21.2188 65.0766 21.2195C65.0449 21.2146 65.4751 21.2974 65.7813 21.4759C65.924 21.5474 66.0683 21.623 66.2175 21.6866C66.2241 21.6893 66.2306 21.6922 66.2372 21.695C66.0004 21.6477 65.7844 21.4469 65.7369 21.3838C65.6774 21.3128 65.6847 21.3399 65.6837 21.4063C65.6888 21.5451 65.6892 21.8139 65.6745 22.0955C65.6468 22.6701 65.5871 23.3376 65.5793 24.035C65.5792 24.0421 65.5791 24.0493 65.579 24.0566C65.352 26.8304 63.8402 30.4478 62.6615 33.732C62.6574 33.743 62.6534 33.7539 62.6493 33.7649C62.3009 34.7938 61.8267 35.8609 61.9463 37.4931C61.9489 37.5202 61.9517 37.547 61.9546 37.5727C61.9942 37.9102 62.0646 38.3151 62.2945 38.7833C62.5152 39.2503 62.9657 39.7338 63.4184 39.9869C63.4671 40.0154 63.5152 40.0417 63.5635 40.0666C65.3509 40.7963 66.2293 40.2046 67.0731 39.9295C67.8967 39.5814 68.5933 39.1674 69.2952 38.7909C69.3184 38.7784 69.3417 38.7658 69.3649 38.7532C72.5478 37.1034 73.2729 33.7034 74.3446 31.3576C74.3537 31.337 74.3628 31.3164 74.3718 31.2958C75.5512 28.5547 76.6219 25.8545 77.7014 23.1502C77.718 23.1082 77.7346 23.0668 77.7511 23.0258C78.3992 21.3536 79.2086 19.8283 79.5796 17.7792C79.5904 17.7098 79.6006 17.6371 79.6096 17.5672C79.6146 17.5206 79.6198 17.4685 79.6211 17.385C79.6192 17.3569 79.6306 17.2687 79.5904 17.0477C79.5649 16.9345 79.5374 16.7784 79.3851 16.5213C79.3494 16.4258 78.8969 15.8534 78.2792 15.7834C77.6584 15.6967 77.2759 15.9444 77.0984 16.0685C76.8783 16.2412 76.9248 16.219 76.8735 16.2667C76.8409 16.3013 76.8149 16.3318 76.7927 16.3592C76.7486 16.4139 76.7192 16.4563 76.6953 16.4925C76.6479 16.565 76.6233 16.6122 76.6131 16.6305C76.5867 16.6795 76.5688 16.7166 76.5529 16.7506C76.505 16.8538 76.4818 16.9128 76.4577 16.9721C76.4124 17.0849 76.3774 17.1776 76.3413 17.2753C76.2712 17.4651 76.2107 17.6354 76.1482 17.8148C76.0259 18.166 75.9087 18.5148 75.7942 18.8611C75.5652 19.5543 75.3457 20.2429 75.1306 20.9389C74.7045 22.3172 74.3005 23.7112 73.935 25.1052C73.9205 25.1606 73.9062 25.2157 73.8921 25.2706C73.3769 27.2386 73.0482 29.3451 72.889 31.3304C72.8854 31.3718 72.8818 31.4132 72.8783 31.4546C72.5851 35.0767 72.8575 38.6024 73.263 42.0634C73.2648 42.0786 73.2666 42.0937 73.2684 42.1088C73.3851 43.0436 73.5826 44.0039 73.9862 44.983C74.328 45.7745 74.7541 46.5941 75.6655 47.3432L75.9465 47.5259C75.9556 47.5307 75.9647 47.5354 75.9739 47.5401C76.7147 47.937 77.8113 47.1526 78.2789 46.7195C78.2822 46.7171 78.2855 46.7148 78.2887 46.7125C78.9465 46.1867 79.0404 45.7469 79.2318 45.4092C79.3455 45.1772 79.3624 44.9096 79.2788 44.6652C79.1951 44.4207 79.0178 44.2195 78.7858 44.1058C78.5538 43.9921 78.2862 43.9752 78.0417 44.0588C77.7973 44.1425 77.5961 44.3198 77.4824 44.5518C77.4824 44.5518 77.4824 44.5518 77.4824 44.5518C77.3329 44.8854 77.122 45.1839 77.1625 45.1227C77.1629 45.1225 77.1632 45.1222 77.1635 45.1219C77.1788 45.1049 77.1617 44.8775 77.2739 44.671C77.3743 44.4634 77.5618 44.3065 77.6152 44.336C77.6166 44.3367 77.618 44.3375 77.6193 44.3382L77.9003 44.5208C77.7615 44.4214 77.4862 44.0421 77.3103 43.601C77.0808 43.0496 76.9276 42.3756 76.8418 41.6714C76.8404 41.66 76.839 41.6485 76.8376 41.6371C76.4446 38.3062 76.2027 34.9656 76.4656 31.757C76.4687 31.7204 76.4718 31.6838 76.475 31.6473C76.6312 29.7402 76.9094 27.9754 77.3796 26.1637C77.3924 26.1137 77.4053 26.0634 77.4185 26.0127C77.776 24.6319 78.1154 23.2378 78.453 21.8599C78.6237 21.1647 78.7931 20.4761 78.9679 19.792C79.0551 19.4508 79.1444 19.1082 79.2346 18.7768C79.2806 18.6086 79.3248 18.4495 79.3707 18.2934C79.3938 18.215 79.4163 18.1411 79.4335 18.0867C79.4409 18.0619 79.4518 18.0333 79.4383 18.0603C79.4332 18.0704 79.4252 18.0872 79.4077 18.1195C79.4008 18.1315 79.3843 18.164 79.3435 18.2265C79.3229 18.2576 79.2967 18.2957 79.2555 18.3468C79.2348 18.3723 79.2102 18.4012 79.1789 18.4344C79.1293 18.4805 79.1757 18.4579 78.9601 18.6271C78.786 18.7486 78.4065 18.9954 77.7883 18.9091C77.1731 18.8392 76.7235 18.2699 76.6886 18.1759C76.538 17.9217 76.5119 17.7696 76.4874 17.6617C76.4494 17.4505 76.4611 17.3822 76.4592 17.3601C76.4603 17.295 76.464 17.2662 76.4661 17.2477C76.4635 17.2921 76.4602 17.3383 76.4564 17.3835C76.3109 18.7945 75.9189 20.5716 75.4261 22.2006C75.413 22.2431 75.3997 22.286 75.3861 22.3293C74.5132 25.1007 73.7131 27.915 72.5989 30.5141C72.5894 30.5355 72.58 30.5568 72.5707 30.5781C71.4722 33.1431 70.272 35.5829 68.1869 36.2593C68.1646 36.2682 68.1423 36.277 68.1201 36.2858C67.4529 36.549 66.7586 36.7313 66.1342 36.8249C65.8256 36.8709 65.5317 36.8916 65.3239 36.8791C65.1166 36.8767 65.0164 36.7866 65.2143 36.8678C65.2219 36.8716 65.2304 36.8761 65.2398 36.8816C65.3284 36.9249 65.4804 37.0883 65.5166 37.1777C65.5592 37.269 65.5397 37.2567 65.5328 37.1775C65.5316 37.1663 65.5305 37.1554 65.5295 37.1451C65.4644 36.7548 65.7042 35.8685 66.0245 35.0172C66.0286 35.0062 66.0326 34.9952 66.0367 34.9842C67.2212 31.5344 68.7597 28.5083 69.1785 24.1158C69.1788 24.1006 69.1789 24.0853 69.1791 24.0701C69.1826 23.412 69.1702 22.723 69.0852 21.942C69.0382 21.5471 68.9844 21.1365 68.8268 20.6159C68.7427 20.3546 68.6383 20.0569 68.3977 19.6983C68.1723 19.3491 67.688 18.9072 67.1225 18.7645C67.1104 18.7616 67.0983 18.7589 67.0862 18.7561C66.8092 18.6935 66.5196 18.6678 66.223 18.67C65.5242 18.702 64.8593 18.7336 63.9112 19.227C63.9013 19.2327 63.8916 19.2386 63.8819 19.2445C62.4674 20.3753 62.5323 21.3202 62.2288 22.2379Z" fill="black"/>
</svg>
