<svg width="203" height="71" viewBox="0 0 203 71" fill="none" xmlns="http://www.w3.org/2000/svg">
<path d="M27.2337 13.7341C27.4228 13.5987 27.5503 13.3939 27.5883 13.1646C27.6262 12.9352 27.5715 12.7002 27.4362 12.5112C27.3009 12.3222 27.0961 12.1947 26.8667 12.1567C26.6374 12.1187 26.4024 12.1734 26.2134 12.3087C26.2134 12.3087 26.2134 12.3087 26.2134 12.3087C26.0116 12.4531 25.8122 12.596 25.6594 12.6851C25.604 12.7285 25.466 12.7513 25.6716 12.7119C25.731 12.7083 25.8586 12.6954 26.048 12.7847C26.2419 12.8728 26.3844 13.0785 26.4194 13.186C26.4908 13.4084 26.4539 13.4124 26.461 13.4178C26.4637 13.3944 26.4668 13.3708 26.4702 13.3471C26.585 12.5526 27.0768 11.7187 27.6776 10.9755C28.8294 9.566 30.3491 8.38367 31.8968 7.28541C31.9193 7.26966 31.9419 7.25395 31.9647 7.2383C33.4857 6.20315 35.4042 5.55856 37.3527 4.99652C37.3749 4.99021 37.397 4.98393 37.4192 4.97768C39.4746 4.40175 41.6131 4.06229 43.6423 4.14547C43.6563 4.14609 43.6703 4.14673 43.6842 4.14739C45.5104 4.22502 46.7618 4.74003 47.3858 6.04138C47.3894 6.04851 47.393 6.05568 47.3966 6.06289C48.3761 8.15107 48.2123 11.1856 47.3536 13.6627C47.3526 13.6654 47.3517 13.668 47.3508 13.6707C46.2236 16.9009 43.7463 19.6991 40.9794 22.0985C40.9717 22.1052 40.9639 22.1119 40.9562 22.1186C37.531 25.0825 33.5583 27.4124 29.364 29.2904C29.3377 29.3022 29.3113 29.314 29.285 29.3257C24.5826 31.4157 19.6841 33.142 14.6822 34.1224C11.7203 34.6932 8.72937 35.1583 5.7504 35.0528C5.61845 35.0479 5.48685 35.0429 5.35562 35.0375C3.85295 34.9763 2.32831 34.8704 0.856022 34.4902C0.694717 34.4481 0.516286 34.4743 0.362783 34.5552C0.209118 34.6365 0.0929611 34.7659 0.0370662 34.9227C-0.0188287 35.0796 -0.0106884 35.2533 0.0568967 35.4134C0.124644 35.5732 0.246294 35.7063 0.397884 35.7757C0.397884 35.7757 0.397884 35.7757 0.397884 35.7757C1.89769 36.455 3.50041 36.9796 5.13413 37.2344C5.27646 37.2566 5.4194 37.2768 5.5629 37.295C8.79711 37.6998 12.0684 37.5559 15.2217 36.9778C20.538 35.9835 25.6292 34.2312 30.5083 32.065C30.5359 32.0527 30.5634 32.0404 30.5909 32.028C34.9786 30.0633 39.2181 27.5895 42.9173 24.3888C42.9257 24.3816 42.934 24.3744 42.9424 24.3672C45.9092 21.7781 48.7565 18.6917 50.1848 14.6547C50.186 14.6513 50.1871 14.648 50.1883 14.6447C51.2056 11.5096 51.5716 8.12268 50.032 4.73078C50.0256 4.7183 50.0192 4.70586 50.0128 4.69344C48.9228 2.25046 45.8382 1.25009 43.7745 1.3253C43.7573 1.32497 43.7401 1.32466 43.7229 1.32439C41.2513 1.2975 38.9104 1.79208 36.668 2.51314C36.6439 2.521 36.6197 2.52888 36.5957 2.5368C34.5743 3.21565 32.4858 3.9662 30.6064 5.38219C30.5783 5.40377 30.5503 5.42549 30.5225 5.44735C28.9298 6.71529 27.4279 8.12597 26.1868 9.85433C25.5438 10.7799 24.9359 11.8069 24.7351 13.0976C24.7296 13.1364 24.7245 13.1752 24.7199 13.2141C24.7135 13.3439 24.6697 13.4779 24.7847 13.819C24.8417 13.985 25.0251 14.2434 25.276 14.3586C25.5216 14.4756 25.7159 14.4666 25.8363 14.4571C26.2922 14.3854 26.3786 14.2796 26.5405 14.2005C26.8204 14.035 27.0269 13.8807 27.2337 13.7341Z" fill="white"/>
<path d="M30.25 0.267131C29.9227 0.448954 29.681 0.753354 29.5781 1.11337C29.4752 1.47338 29.5196 1.85951 29.7014 2.18683C29.8832 2.51414 30.1876 2.75582 30.5476 2.85869C30.9077 2.96157 31.2938 2.91722 31.6211 2.7354C31.6211 2.7354 31.6211 2.7354 31.6211 2.7354C31.5714 2.76654 31.3404 2.86517 31.0567 2.80474C30.7766 2.74343 30.6586 2.60652 30.6355 2.58275C30.5962 2.52534 30.7009 2.68712 30.7602 2.86607C30.8971 3.2444 31.0056 3.74941 31.09 4.25659C31.484 6.80095 31.5361 9.57043 31.5676 12.2912C31.5684 12.3854 31.5691 12.4796 31.5698 12.5739C31.6232 17.9449 31.3892 23.2921 31.1813 28.6786C31.1788 28.744 31.1763 28.8097 31.1738 28.8756C30.8064 38.2613 30.8389 47.689 30.4608 57.096C30.4601 57.1149 30.4593 57.1338 30.4586 57.1526C30.3625 59.6768 30.2699 62.2105 30.2583 64.7571C30.253 65.8933 30.2814 67.0526 30.3376 68.1793C30.3494 68.4364 30.4628 68.6783 30.653 68.8518C30.8431 69.0253 31.0944 69.1162 31.3516 69.1044C31.6087 69.0926 31.8507 68.9791 32.0242 68.789C32.1977 68.5988 32.2885 68.3475 32.2767 68.0904C32.2767 68.0904 32.2767 68.0904 32.2767 68.0904C32.2211 66.9688 32.1946 65.8792 32.1995 64.7626C32.2107 62.2697 32.3025 59.7415 32.3983 57.2283C32.399 57.2095 32.3998 57.1907 32.4005 57.1719C32.7819 47.7851 33.8029 38.409 34.1715 28.9909C34.1741 28.9247 34.1766 28.8587 34.1791 28.7931C34.3835 23.3906 34.4473 17.9712 34.3932 12.5534C34.3925 12.4586 34.3918 12.3639 34.3911 12.2693C34.3543 9.47353 34.3216 6.70818 33.8753 3.79337C33.7717 3.1903 33.6581 2.58974 33.4138 1.90138C33.279 1.55535 33.1526 1.18731 32.7476 0.70893C32.5357 0.471954 32.1835 0.15717 31.6261 0.0392169C31.0655 -0.0801029 30.5475 0.0968686 30.25 0.267131Z" fill="white"/>
<path d="M42.7928 28.0758C42.7543 27.6798 42.5602 27.3153 42.253 27.0625C41.9458 26.8097 41.5508 26.6893 41.1549 26.7277C40.7589 26.7662 40.3944 26.9603 40.1416 27.2675C39.8888 27.5747 39.7684 27.9697 39.8068 28.3656C39.8068 28.3656 39.8068 28.3656 39.8068 28.3656C39.8407 28.7146 39.8746 29.0634 39.9083 29.4119C40.2218 32.6742 40.5331 35.9262 40.682 39.1499C40.6833 39.1781 40.6846 39.2062 40.6859 39.2342L40.6845 39.1843C40.8449 42.2728 40.936 44.9714 42.3211 48.4925C42.3765 48.5576 42.4545 48.6404 42.5816 48.7118C42.717 48.7914 42.9244 48.8341 43.0978 48.7974L43.2017 48.7702C43.2043 48.769 43.2068 48.7679 43.2094 48.7668C43.6271 48.5725 43.6175 48.0557 43.695 47.7311C43.3461 47.7643 42.9041 47.6227 42.7927 47.6226C42.7918 47.6228 42.791 47.6229 42.7901 47.623L42.894 47.5958C42.9968 47.5711 43.1369 47.5996 43.2105 47.6427C43.281 47.681 43.308 47.7122 43.3217 47.7229C43.1151 45.4807 43.7409 42.0325 43.6841 39.1518L43.6827 39.1019C43.6815 39.0728 43.6803 39.0437 43.6789 39.0146C43.5246 35.6799 43.2084 32.3947 42.8943 29.1232C42.8606 28.7739 42.8267 28.4247 42.7928 28.0758Z" fill="white"/>
<path d="M38.0422 31.5377C37.8474 31.7118 37.7297 31.9562 37.715 32.2171C37.7003 32.478 37.7899 32.734 37.964 32.9289C38.1381 33.1237 38.3825 33.2415 38.6434 33.2561C38.9043 33.2708 39.1604 33.1812 39.3552 33.0071C39.3552 33.0071 39.3552 33.0071 39.3552 33.0071C40.0134 32.419 40.6808 31.8469 41.3605 31.2964C43.394 29.6835 45.6939 27.951 47.8743 27.559C47.8899 27.557 47.9054 27.5553 47.9207 27.5537C48.0468 27.5684 47.8881 27.5503 47.9369 27.6335C47.9708 27.7283 48.0408 27.9757 48.1067 28.2546C48.1104 28.2696 48.1141 28.2847 48.1177 28.3001C48.8565 31.4357 47.1647 34.944 44.9612 37.6004C44.9533 37.6098 44.9454 37.6191 44.9375 37.6283C44.7861 37.8031 44.5261 38.0182 44.247 38.2471C44.1056 38.364 43.9566 38.4864 43.793 38.6381C43.625 38.8099 43.4617 38.9092 43.1873 39.3938C43.1661 39.4352 43.1447 39.4805 43.1242 39.5299C43.0395 39.7319 42.9512 40.0668 43.0286 40.4563C43.1049 40.842 43.3074 41.1093 43.4467 41.256C43.734 41.5429 43.8827 41.5982 44.0138 41.6771C44.2603 41.8088 44.4222 41.8759 44.5819 41.9495C44.8946 42.0904 45.1681 42.2191 45.4379 42.361C45.9763 42.6432 46.4845 42.9671 46.9793 43.3313L46.9118 43.2787C46.951 43.3113 46.991 43.3445 47.0318 43.3785C49.8459 45.7484 53.2177 47.6101 56.1554 49.9198C56.177 49.9368 56.1985 49.9538 56.2201 49.9708C58.528 51.7986 60.9269 53.5079 63.3502 55.1586C64.0908 55.6639 64.833 56.165 65.5744 56.6655C65.7063 56.7545 65.8682 56.7875 66.0244 56.7572C66.1806 56.7269 66.3184 56.6358 66.4074 56.5039C66.4964 56.372 66.5294 56.2101 66.4991 56.0539C66.4688 55.8977 66.3777 55.7599 66.2458 55.6709C66.2458 55.6709 66.2458 55.6709 66.2458 55.6709C65.5044 55.1704 64.7638 54.6704 64.0266 54.1674C61.6139 52.5239 59.2438 50.8347 56.9643 49.0294C56.943 49.0126 56.9218 48.9958 56.9006 48.9788C53.9924 46.6608 51.7793 43.578 48.8902 41.1445C48.8476 41.1091 48.8055 41.0742 48.7641 41.0401L48.6966 40.9875C48.0796 40.5364 47.4119 40.1353 46.7161 39.8022C46.3721 39.6366 46.0125 39.4858 45.6926 39.3573C45.5382 39.2953 45.3769 39.2286 45.3219 39.2027C45.3003 39.1996 45.2982 39.1688 45.4648 39.332C45.5442 39.416 45.6981 39.6091 45.7577 39.9099C45.818 40.2137 45.7457 40.4636 45.6947 40.5834C45.684 40.6088 45.6741 40.6293 45.6655 40.6458C45.5633 40.8081 45.6578 40.6444 45.742 40.555C45.8337 40.4475 45.9503 40.3211 46.0738 40.1884C46.3232 39.9182 46.5998 39.6375 46.9129 39.2522C46.9217 39.2411 46.9306 39.2299 46.9395 39.2187C49.3326 36.1093 51.4055 32.0954 50.3309 27.736C50.325 27.7136 50.3189 27.6912 50.3126 27.6688C50.1897 27.2494 50.017 26.7928 49.6011 26.3121C49.2143 25.8079 48.2975 25.4743 47.6989 25.595C47.6735 25.5981 47.6481 25.6013 47.6226 25.6046C44.421 26.2422 42.3171 28.0817 40.1203 29.765C39.4114 30.3392 38.7208 30.9314 38.0422 31.5377Z" fill="white"/>
<path d="M56.8023 26.3277C56.8618 25.9945 56.7864 25.6512 56.5928 25.3735C56.3991 25.0958 56.1031 24.9064 55.7698 24.847C55.4366 24.7875 55.0933 24.8629 54.8156 25.0566C54.5379 25.2502 54.3485 25.5462 54.2891 25.8795C54.2891 25.8795 54.2891 25.8795 54.2891 25.8795C54.1643 26.5789 54.0394 27.2795 53.916 27.9811C53.3854 31.2073 52.7075 34.312 52.6832 37.8666C52.6833 37.8703 52.6834 37.8739 52.6835 37.8776C52.7348 38.6021 52.6997 39.3524 53.3265 40.3706C53.6395 40.8817 54.3834 41.3413 54.9761 41.3957C55.5702 41.4733 55.9996 41.3796 56.3612 41.307C56.3645 41.3063 56.3677 41.3056 56.371 41.3049C59.2134 40.6928 61.1988 38.4361 62.3018 36.1631C62.3021 36.1623 62.3025 36.1615 62.3029 36.1607C63.2226 34.0648 62.9977 32.1281 62.3597 30.329C62.3588 30.3267 62.3579 30.3243 62.357 30.322C61.4667 28.0401 59.5572 26.7378 57.9441 25.7361C57.9438 25.7359 57.9435 25.7357 57.9431 25.7355C55.8011 24.4393 53.4364 23.7447 51.4426 22.5892C51.4406 22.588 51.4385 22.5868 51.4365 22.5856C51.3465 22.532 51.2601 22.4794 51.1752 22.4263C50.8994 22.2537 50.6314 22.0705 50.4348 21.9001C50.3374 21.8162 50.263 21.7362 50.2298 21.6885C50.195 21.6332 50.1996 21.6556 50.1438 21.4842C50.062 21.2303 49.8826 21.0193 49.6451 20.8977C49.4077 20.7761 49.1317 20.7538 48.8778 20.8356C48.6239 20.9175 48.4129 21.0969 48.2913 21.3344C48.1696 21.5718 48.1473 21.8478 48.2292 22.1017C48.2292 22.1017 48.2292 22.1017 48.2292 22.1017C48.2773 22.2691 48.4169 22.6256 48.5925 22.8575C48.7664 23.099 48.946 23.2705 49.1161 23.4194C49.4576 23.7128 49.7838 23.9271 50.108 24.1317C50.2072 24.1937 50.306 24.2538 50.4073 24.3142C50.4096 24.3155 50.4119 24.3169 50.4142 24.3183C52.5523 25.5539 54.5132 26.9189 56.4218 28.1559C56.4221 28.1561 56.4224 28.1563 56.4227 28.1565C57.8962 29.1123 59.1607 30.1465 59.6154 31.387C59.6159 31.3883 59.6164 31.3897 59.617 31.391C60.0876 32.5859 60.3961 34.1258 59.9657 35.0217C59.9655 35.022 59.9654 35.0224 59.9652 35.0227C59.0784 36.8809 57.5977 38.4123 55.8211 38.7878C55.8191 38.7883 55.817 38.7887 55.8149 38.7892C55.5661 38.8471 55.366 38.8584 55.337 38.8506C55.3061 38.8296 55.4708 38.9318 55.4382 38.9184C55.3741 38.8704 55.2389 38.3164 55.2352 37.7971C55.2351 37.7944 55.235 37.7917 55.235 37.7889C55.2449 34.8598 55.9004 31.577 56.4303 28.4233C56.553 27.7258 56.6776 27.0271 56.8023 26.3277Z" fill="white"/>
<path d="M67.5466 24.0314C67.4799 23.6741 67.274 23.3578 66.9742 23.1523C66.6744 22.9467 66.3052 22.8687 65.9479 22.9354C65.5906 23.002 65.2743 23.2079 65.0688 23.5077C64.8632 23.8075 64.7852 24.1767 64.8519 24.534C64.8519 24.534 64.8519 24.534 64.8519 24.534C64.9629 25.1292 65.0739 25.7244 65.185 26.3197C65.7264 29.2188 66.2708 32.1197 66.8326 35.0195C66.8327 35.0199 66.8327 35.0203 66.8328 35.0208C67.4184 38.1082 67.9854 41.2297 68.1433 44.1554C68.1433 44.1555 68.1433 44.1556 68.1433 44.1557C68.2237 45.9283 68.0157 47.5921 67.2258 48.8954C67.2256 48.8957 67.2255 48.896 67.2253 48.8963L67.3709 48.6921C65.9371 50.387 64.2922 52.0548 62.0307 52.7766C62.0306 52.7766 62.0304 52.7767 62.0303 52.7767L62.0788 52.7697C61.7608 52.8469 61.4399 52.9451 61.1075 53.0463C60.5316 53.2228 59.9173 53.4051 59.3037 53.5302C59.8988 53.7216 60.4948 53.9676 61.1297 54.1182C61.4941 54.2051 61.8692 54.2603 62.2442 54.2605L62.2927 54.2535C62.2929 54.2535 62.2931 54.2534 62.2932 54.2534C65.0343 54.0911 67.8498 52.7902 69.6596 50.6315L69.8052 50.4273C69.8055 50.4269 69.8057 50.4264 69.806 50.426C71.0218 48.4037 71.2306 46.0617 71.1283 44.0163C71.1283 44.0162 71.1283 44.0161 71.1283 44.016C70.9218 40.6468 70.1054 37.5954 69.524 34.4994C69.5239 34.499 69.5238 34.4986 69.5237 34.4981C68.964 31.6089 68.4207 28.7139 67.8796 25.8165C67.7686 25.2216 67.6576 24.6265 67.5466 24.0314Z" fill="white"/>
<path d="M57.2534 25.3039C57.0908 25.4314 56.9854 25.6184 56.9606 25.8236C56.9358 26.0288 56.9935 26.2355 57.1211 26.3982C57.2486 26.5608 57.4356 26.6662 57.6408 26.691C57.846 26.7158 58.0527 26.6581 58.2153 26.5305C58.2153 26.5305 58.2153 26.5305 58.2153 26.5305C58.5652 26.2595 59.033 25.999 59.4984 25.7583C62.0672 24.4774 64.8654 23.4696 67.6351 22.4676C67.6358 22.4674 67.6365 22.4671 67.6372 22.4669C71.201 21.2044 74.8516 20.1189 78.5048 19.1104C78.5051 19.1103 78.5053 19.1102 78.5056 19.1101C80.9764 18.4343 83.3814 17.4208 85.9212 16.9971C85.9212 16.9971 85.9213 16.9971 85.9213 16.9971C86.442 16.9105 86.9602 16.8314 87.4789 16.7678C88.0171 16.7008 88.5508 16.6583 89.0991 16.6247C89.1972 16.6184 89.2888 16.5734 89.3537 16.4996C89.4186 16.4258 89.4515 16.3292 89.4452 16.2311C89.4389 16.1331 89.3939 16.0415 89.3201 15.9766C89.2463 15.9117 89.1497 15.8788 89.0516 15.8851C89.0516 15.8851 89.0516 15.8851 89.0516 15.8851C88.5033 15.9186 87.9414 15.9632 87.3889 16.0321C86.855 16.0976 86.3273 16.1783 85.7997 16.2659C85.7997 16.2659 85.7996 16.2659 85.7996 16.266C83.2384 16.6928 80.5994 16.8666 78.0798 17.5557C78.0795 17.5557 78.0792 17.5558 78.0789 17.5559C74.3847 18.576 70.7346 19.7162 67.1129 20.9988C67.1122 20.9991 67.1115 20.9993 67.1108 20.9996C64.3091 22.0153 61.5245 23.0086 58.7851 24.3723C58.2749 24.6389 57.7748 24.9043 57.2534 25.3039Z" fill="white"/>
<path d="M71.4205 22.5797C71.4205 22.9183 71.555 23.243 71.7943 23.4823C72.0337 23.7217 72.3584 23.8562 72.697 23.8562C73.0355 23.8562 73.3602 23.7217 73.5996 23.4823C73.8389 23.243 73.9734 22.9183 73.9734 22.5797C73.9734 22.4987 73.9735 22.4147 73.9722 22.3188C73.9714 22.2699 73.9705 22.2202 73.9673 22.1532C73.9654 22.1186 73.9637 22.0827 73.9572 22.0206C73.9534 21.9876 73.9502 21.9523 73.9351 21.8749C73.9252 21.8313 73.9204 21.7903 73.8755 21.6651C73.849 21.6043 73.8301 21.5183 73.6834 21.3209C73.583 21.2073 73.4969 21.0644 73.1198 20.907C72.7578 20.7595 72.2975 20.8405 72.0654 20.9789C72.0365 20.9944 72.0082 21.0106 71.9806 21.0272C71.2046 21.5534 71.0781 22.0641 70.8985 22.4665C69.8305 26.4631 70.1642 29.7357 70.1399 33.241C70.1439 33.469 70.1488 33.7016 70.1541 33.9273C70.1611 34.3884 70.3086 35.0161 70.7151 35.5123C71.1165 36.01 71.6267 36.2583 72.0262 36.3908C72.3529 36.4982 72.6423 36.5458 72.9085 36.5757L73.1329 36.5845C77.3311 35.9401 79.801 33.8615 82.7129 32.0723C82.7687 32.0354 82.8247 31.9981 82.8807 31.9606L82.8957 31.9513C83.9283 31.2352 84.9219 30.4547 85.8913 29.662C86.2825 29.3427 86.6701 29.0224 87.0583 28.7062C87.1983 28.592 87.2889 28.4204 87.3147 28.2355C87.3402 28.0501 87.2986 27.8665 87.1949 27.7188C87.0912 27.5712 86.9325 27.4698 86.7495 27.431C86.5667 27.3924 86.3746 27.4196 86.2197 27.5125C86.2197 27.5125 86.2197 27.5125 86.2197 27.5125C85.7906 27.7706 85.3609 28.0242 84.9305 28.2734C83.8635 28.8923 82.7897 29.4782 81.7212 30.0777L81.7362 30.0684C81.6786 30.0996 81.6211 30.1308 81.5639 30.1618C78.7588 31.6467 75.4452 33.3032 73.0256 33.5907L73.25 33.5995C73.1227 33.5839 73.0198 33.5602 72.9701 33.5432C72.9014 33.5213 72.9588 33.5213 73.048 33.6301C73.1387 33.7397 73.1476 33.8662 73.1414 33.8327C73.1323 33.6063 73.1223 33.3739 73.1119 33.147C72.9954 29.7968 72.5932 26.0549 73.2965 23.3619C73.3484 23.1638 73.5159 23.0417 73.3002 23.2127C73.292 23.2177 73.2833 23.2226 73.2741 23.2275C73.0446 23.3646 72.5866 23.4453 72.2271 23.2987C71.8525 23.1423 71.7679 23.0009 71.6692 22.8895C71.5255 22.6959 71.5088 22.615 71.484 22.5586C71.4427 22.4432 71.4401 22.4117 71.4322 22.3781C71.421 22.3203 71.4204 22.3052 71.4188 22.2923C71.4165 22.2704 71.4173 22.2746 71.4175 22.2803C71.4182 22.2941 71.4191 22.3246 71.4195 22.3567C71.4205 22.4222 71.4205 22.4994 71.4205 22.5797Z" fill="white"/>
<path d="M73.3658 27.1975C73.1596 27.3065 73.0052 27.493 72.9365 27.7159C72.8678 27.9388 72.8904 28.1798 72.9994 28.386C73.1084 28.5922 73.2949 28.7466 73.5178 28.8153C73.7406 28.8841 73.9817 28.8614 74.1879 28.7524C74.1879 28.7524 74.1879 28.7524 74.1879 28.7524C74.3996 28.6405 74.6121 28.5295 74.825 28.4196C78.0322 26.7648 81.3618 25.3433 84.775 24.1703C85.3192 23.9834 85.5955 22.9659 86.1555 22.7883C86.2774 22.7496 86.3993 22.7113 86.5214 22.6733C86.7529 22.6012 86.9849 22.5302 87.217 22.4604C86.9849 22.5302 86.7529 22.6012 86.5214 22.6733C86.3993 22.7113 86.2774 22.7496 86.1555 22.7883C85.6004 22.9643 84.7658 22.3138 84.2036 22.5069C80.7088 23.708 77.3026 25.1622 74.0183 26.8567C73.8003 26.9692 73.5827 27.0829 73.3658 27.1975Z" fill="white"/>
<path d="M92.8678 18.2629C92.7992 18.0457 92.6472 17.8646 92.4451 17.7595C92.243 17.6544 92.0075 17.6339 91.7903 17.7024C91.5731 17.771 91.392 17.923 91.2869 18.1251C91.1818 18.3272 91.1612 18.5627 91.2298 18.78C91.2298 18.78 91.2298 18.78 91.2298 18.78C91.3741 19.2363 91.5179 19.695 91.6746 20.1614C91.7325 20.333 91.7916 20.5044 91.8583 20.6837C91.9371 20.8771 91.9579 20.9992 92.1595 21.3377C92.1751 21.3612 92.1935 21.3876 92.2159 21.4162C92.2818 21.483 92.2808 21.549 92.5786 21.7135C92.6797 21.7605 92.8179 21.8076 93.0082 21.799C93.222 21.7952 93.463 21.6676 93.5661 21.5622C93.672 21.4625 93.7279 21.3672 93.765 21.2915C93.7929 21.2333 93.8088 21.1874 93.8215 21.1453C93.8907 20.8619 93.8643 20.8204 93.8683 20.7222C93.8632 20.5621 93.8488 20.4452 93.8338 20.3262C93.8031 20.094 93.7649 19.8795 93.7208 19.6634C93.615 19.2179 93.5771 18.8564 93.2486 18.2516C93.178 18.1353 93.0948 18.0222 93.0009 17.9175C92.386 17.2382 91.56 17.0421 90.9483 16.9887C90.7719 16.9794 90.6136 16.9945 90.4709 17.0205C88.3633 17.7025 87.7469 18.8343 86.7772 19.8838C86.7273 19.9455 86.6789 20.0078 86.6319 20.071C85.1537 22.1075 85.1168 24.4535 85.1318 26.3824C85.1329 26.4409 85.1348 26.4994 85.1376 26.5575C85.2204 27.7784 85.5362 28.9514 86.5216 30.0222L86.8749 30.2996C86.9167 30.3208 86.9587 30.3412 87.001 30.361C89.7316 31.4328 91.8773 30.3701 93.8641 29.6533L93.8843 29.6481C93.8949 29.6434 93.9055 29.6386 93.9161 29.6339C94.314 29.4553 94.7009 29.2502 95.0731 29.0267C95.498 28.7723 95.9001 28.4937 96.302 28.2211C96.302 28.2211 96.302 28.2211 96.302 28.2211C95.8294 28.3354 95.3543 28.4397 94.8833 28.5196C94.4698 28.5904 94.0593 28.6447 93.6501 28.6943C93.6392 28.6957 93.6283 28.697 93.6174 28.6983L93.6376 28.6931C91.6261 28.8486 89.3774 28.6085 88.2555 27.9105C88.2384 27.8999 88.2217 27.8892 88.2055 27.8784L88.5587 28.1559C88.2893 27.806 88.0347 27.0666 88.0108 26.4184C88.0092 26.3873 88.0081 26.3562 88.0074 26.3254C87.9608 24.4817 87.9846 22.7385 88.7555 21.5812C88.78 21.5437 88.8052 21.5067 88.8312 21.4701C89.1895 20.9754 89.5619 20.4997 89.9495 20.0822C90.3084 19.6761 90.8319 19.2823 90.9372 19.2487C90.9403 19.2443 90.9296 19.2425 90.901 19.2363C91.2691 19.202 91.5057 19.2115 91.5899 19.2678C91.606 19.2782 91.622 19.2905 91.6388 19.3074C91.7173 19.3781 91.8924 19.7889 91.9882 20.102C92.0403 20.2678 92.086 20.4396 92.1167 20.5953C92.132 20.6714 92.1432 20.751 92.146 20.7859C92.1527 20.7892 92.1287 20.8453 92.1724 20.6584C92.1954 20.6049 92.1985 20.503 92.394 20.305C92.4887 20.2077 92.7175 20.0862 92.9188 20.0828C93.0979 20.0748 93.2249 20.1192 93.3133 20.1602C93.5689 20.3032 93.5367 20.333 93.568 20.3568C93.58 20.3721 93.5874 20.3829 93.5921 20.3901C93.612 20.4302 93.5144 20.2172 93.4678 20.0837C93.4116 19.9329 93.3567 19.7742 93.3024 19.6131C93.1544 19.1729 93.0118 18.7186 92.8678 18.2629Z" fill="white"/>
<path d="M89.6906 14.6792C89.9966 14.5759 90.249 14.3553 90.3923 14.0659C90.5356 13.7765 90.5581 13.4421 90.4548 13.1361C90.3515 12.8301 90.1309 12.5777 89.8415 12.4344C89.5521 12.2911 89.2177 12.2686 88.9117 12.3719C88.9117 12.3719 88.9117 12.3719 88.9117 12.3719C88.8304 12.3993 88.7582 12.4233 88.6782 12.4496C88.6383 12.4626 88.5997 12.4751 88.5615 12.4874C88.5482 12.4918 88.5484 12.4916 88.5274 12.4984C88.5081 12.5053 88.5678 12.4835 88.4622 12.5214C88.4267 12.5405 88.4718 12.4989 88.2351 12.6368C88.1972 12.6622 88.148 12.693 88.0626 12.7722C87.9868 12.8615 87.8146 12.9597 87.7012 13.4314C87.6507 13.6617 87.6886 14.0129 87.8426 14.2668C87.9947 14.5272 88.1884 14.6592 88.3226 14.732C88.5995 14.8696 88.7146 14.8598 88.802 14.8725C89.0927 14.882 89.0735 14.8581 89.122 14.8554C89.2249 14.8342 89.2077 14.8354 89.2237 14.8317C89.2393 14.8274 89.2451 14.8256 89.2451 14.8256C89.2461 14.8253 89.2471 14.825 89.248 14.8247C89.2499 14.8242 89.2516 14.8237 89.2532 14.8232C89.2592 14.8214 89.2673 14.819 89.2728 14.8173C89.2888 14.8125 89.3145 14.8048 89.3312 14.7997C89.4935 14.751 89.6499 14.705 89.8146 14.6569C90.1347 14.5635 90.4659 14.4686 90.7903 14.3765C92.6529 13.8485 94.507 13.3454 96.3859 12.8413C96.4617 12.821 96.5384 12.8005 96.6159 12.78C103.755 10.9449 111.019 9.23456 118.265 7.59856C118.29 7.59291 118.315 7.58727 118.341 7.58166C121.076 6.99177 123.709 5.78123 126.522 5.55321C126.635 5.54575 126.747 5.54024 126.859 5.53599C126.864 5.53582 126.868 5.53566 126.872 5.5355C127.438 5.51488 128.004 5.49573 128.57 5.49805C128.57 5.49805 128.57 5.49805 128.57 5.49805C128.004 5.49573 127.438 5.51488 126.872 5.5355C126.868 5.53566 126.864 5.53582 126.859 5.53598C126.747 5.54007 126.635 5.54336 126.521 5.5467C123.719 5.66905 120.829 5.61554 118.044 6.06927C118.019 6.07363 117.993 6.07802 117.967 6.08243C110.623 7.3507 103.278 8.554 95.9919 10.426C95.9123 10.4471 95.8335 10.4681 95.7555 10.489C93.8692 10.9951 92.0092 11.4998 90.125 12.0338C89.7964 12.1271 89.4604 12.2234 89.1324 12.3192C88.9633 12.3685 88.8025 12.4158 88.631 12.4673C88.6135 12.4725 88.5858 12.4809 88.5708 12.4854C88.5655 12.487 88.5583 12.4892 88.5567 12.4896C88.5562 12.4898 88.556 12.4898 88.5562 12.4898C88.5563 12.4897 88.5565 12.4897 88.5569 12.4896C88.557 12.4896 88.5579 12.4892 88.5727 12.4851C88.588 12.4816 88.5703 12.483 88.673 12.4618C88.7215 12.4591 88.7022 12.4352 88.9929 12.4447C89.0803 12.4574 89.1955 12.4475 89.4723 12.5852C89.6065 12.6579 89.8002 12.7899 89.9523 13.0504C90.1063 13.3042 90.1442 13.6555 90.0937 13.8858C89.9804 14.3574 89.8081 14.4556 89.7323 14.545C89.6469 14.6241 89.5977 14.6549 89.5598 14.6803C89.3232 14.8182 89.3684 14.7766 89.333 14.7957C89.2326 14.8317 89.2936 14.8096 89.2799 14.8146C89.2897 14.8114 89.2954 14.8096 89.3081 14.8055C89.3493 14.7922 89.3926 14.7782 89.4362 14.7639C89.5241 14.7351 89.6025 14.709 89.6906 14.6792Z" fill="white"/>
<path d="M99.427 11.3728C99.4139 11.0251 99.2632 10.6969 99.008 10.4604C98.7529 10.2239 98.4143 10.0984 98.0666 10.1115C97.719 10.1247 97.3908 10.2754 97.1543 10.5305C96.9177 10.7857 96.7922 11.1243 96.8054 11.4719C96.8054 11.4719 96.8054 11.4719 96.8054 11.4719C96.8271 12.0452 96.8487 12.6181 96.8704 13.1914C97.0776 18.7214 97.2925 24.2567 97.456 29.775C97.456 29.775 97.456 29.775 97.456 29.7751L97.4557 29.7629C97.5188 33.7843 98.9497 37.7881 98.7505 41.8241C98.7505 41.8241 98.7505 41.8241 98.7505 41.8241C98.6878 42.5805 98.6068 43.3349 98.5218 44.0892C98.4575 44.659 98.3902 45.2287 98.3231 45.7984C98.3231 45.7984 98.3231 45.7984 98.3231 45.7984C98.3902 45.2287 98.4575 44.659 98.5218 44.0892C98.6068 43.3349 98.6878 42.5805 98.7505 41.8241C98.7505 41.8241 98.7505 41.8241 98.7505 41.8241C98.9497 37.8129 100.142 33.7508 100.079 29.7117L100.078 29.6995C100.078 29.6995 100.078 29.6995 100.078 29.6995C99.9142 24.1578 99.6993 18.6244 99.4921 13.0924C99.4704 12.519 99.4487 11.946 99.427 11.3728Z" fill="white"/>
<path d="M112.127 15.2897C111.93 15.4203 111.792 15.6242 111.744 15.8565C111.696 16.0888 111.743 16.3305 111.874 16.5284C112.004 16.7264 112.208 16.8643 112.441 16.9119C112.673 16.9595 112.915 16.9128 113.113 16.7822C113.113 16.7822 113.113 16.7822 113.113 16.7822C113.977 16.2202 114.154 15.1881 114.113 14.516C114.113 14.5127 114.113 14.5094 114.112 14.5061C114.103 14.2976 114.088 14.0846 114.048 13.8691C113.98 13.4844 113.824 13.0881 113.564 12.7918C113.56 12.7868 113.555 12.7819 113.551 12.7769C111.809 11.2226 110.205 11.695 108.824 11.7979C108.817 11.7989 108.81 11.7999 108.803 11.8009C105.886 12.2634 103.755 14.2703 102.212 16.2992C102.209 16.3031 102.206 16.307 102.203 16.3109C101.434 17.2885 101.262 18.7632 101.642 19.8544C101.645 19.8647 101.648 19.875 101.652 19.8852C102.433 21.6561 103.458 21.9255 104.324 22.4832C105.213 22.9618 106.098 23.3331 106.977 23.6772C108.739 24.3598 110.495 24.922 112.247 25.4821C112.256 25.485 112.265 25.4878 112.273 25.4906C112.623 25.6023 112.972 25.7273 113.243 25.8487C113.373 25.9048 113.496 25.9801 113.485 25.968C113.48 25.9519 113.405 25.927 113.295 25.6589C113.244 25.5281 113.218 25.3218 113.248 25.1595C113.275 24.9952 113.332 24.892 113.364 24.8397L113.959 24.316C113.951 24.3196 113.944 24.3232 113.937 24.3268C111.241 25.5645 107.896 26.1938 104.712 26.34C104.519 26.3456 104.326 26.3478 104.137 26.3464C104.137 26.3464 104.136 26.3464 104.135 26.3464L104.179 26.3517C103.723 26.2884 103.255 26.6804 102.792 26.3294C102.824 26.9095 103.499 27.4538 103.99 27.563L104.034 27.5683C104.035 27.5684 104.036 27.5686 104.037 27.5687C104.24 27.5995 104.448 27.6263 104.654 27.6495C108.071 27.9557 111.467 27.8811 114.942 26.6736C114.951 26.6699 114.961 26.6661 114.971 26.6623L115.395 26.4569L115.565 26.1386C115.743 25.901 115.914 25.2173 115.707 24.7476C115.525 24.2917 115.306 24.1194 115.15 23.9755C114.827 23.7081 114.599 23.5992 114.368 23.4816C113.918 23.2638 113.511 23.1184 113.108 22.9784C113.097 22.975 113.087 22.9715 113.077 22.968C111.357 22.3779 109.649 21.7742 108.016 21.0963C107.204 20.7575 106.403 20.3961 105.692 19.9982C105.338 19.8001 105.002 19.5863 104.746 19.3801C104.484 19.1835 104.328 18.934 104.37 19.0007C104.369 18.9969 104.368 18.9931 104.366 18.9893C104.24 18.5618 104.269 18.269 104.471 17.9541C104.473 17.9507 104.476 17.9473 104.478 17.944C105.718 16.1569 107.353 14.6174 109.226 14.2302C109.231 14.2291 109.237 14.2279 109.242 14.2268C110.354 13.9693 111.73 13.9603 111.999 14.2368C112 14.2379 112.002 14.239 112.003 14.24C112.077 14.3019 112.176 14.3376 112.251 14.4216C112.292 14.4671 112.322 14.5256 112.326 14.5899C112.326 14.5918 112.326 14.5936 112.326 14.5954C112.346 15.0152 112.235 15.23 112.127 15.2897Z" fill="white"/>
<path d="M127.473 17.4895C127.435 17.3658 127.349 17.2624 127.235 17.202C127.12 17.1415 126.986 17.1291 126.863 17.1674C126.739 17.2056 126.636 17.2914 126.575 17.406C126.515 17.5205 126.502 17.6543 126.541 17.778C126.541 17.778 126.541 17.778 126.541 17.778C126.577 17.8966 126.612 18.0275 126.641 18.1517C126.675 18.2943 126.389 18.499 126.398 18.6376C126.415 18.9101 126.427 19.1818 126.442 19.4622C126.472 20.0753 126.459 20.707 126.421 21.3414C126.281 23.6343 125.847 25.9262 125.42 28.2886C125.369 28.5856 125.314 28.8825 125.272 29.2215C125.296 29.1353 125.236 28.9583 125.589 28.5654C125.773 28.3791 126.046 28.2744 126.228 28.256C126.401 28.2351 126.512 28.2563 126.574 28.268C126.811 28.3296 126.751 28.3286 126.742 28.312C126.691 28.2752 126.573 28.1866 126.454 28.0986C126.207 27.918 125.916 27.7086 125.529 27.5269C125.257 27.402 124.928 27.279 124.503 27.2484C120.652 27.0768 118.023 29.8323 116.299 32.4005C116.172 32.5969 116.042 32.8002 115.919 33.0026C115.508 33.7023 115.579 34.5177 115.768 35.021C115.91 35.4138 116.1 35.7199 116.36 36.0161C116.993 36.7602 118.074 37.1534 118.919 37.1272C119.78 37.1204 120.484 36.8859 121.133 36.6496C121.325 36.5792 121.542 36.4865 121.669 36.4318C121.713 36.4121 121.771 36.3954 121.704 36.4127C121.674 36.4177 121.622 36.4374 121.459 36.4365C121.432 36.4354 121.276 36.4346 121.094 36.3656C120.91 36.3024 120.618 36.1105 120.471 35.8014C120.215 35.1967 120.436 34.8975 120.478 34.7812C120.631 34.5263 120.619 34.5896 120.627 34.5715C120.613 34.5882 120.501 34.686 120.407 34.763C120.212 34.9237 119.997 35.0942 119.782 35.2663C119.354 35.6082 118.916 35.9626 118.486 36.3318C117.628 37.0867 116.765 37.8151 116.015 38.968C115.929 39.1077 115.847 39.2596 115.773 39.4363C115.64 39.7956 115.36 40.3444 115.717 41.1472C115.907 41.5256 116.195 41.7508 116.439 41.8802C116.947 42.1352 117.357 42.1275 117.73 42.0991C117.867 42.0845 118 42.0675 118.134 42.0517C119.152 41.9311 120.067 41.5782 120.873 41.2139C121.277 41.0323 121.659 40.8443 122.002 40.6959C122.328 40.5441 122.702 40.4602 122.645 40.4907C122.527 40.4918 122.293 40.4394 122.135 40.3372C121.975 40.238 121.895 40.1376 121.854 40.0839C121.774 39.9703 121.782 39.9625 121.78 39.9695C122.022 41.0561 122.027 42.9543 122.199 44.4873C122.211 44.5995 122.224 44.7144 122.238 44.8316C122.949 50.8181 123.634 56.8368 124.544 62.8675C124.55 62.9025 124.555 62.9372 124.561 62.9718C124.804 64.5042 125.61 65.9681 126.353 67.3914C126.744 68.1147 127.087 68.8449 127.539 69.4825C127.541 69.4861 127.544 69.4897 127.546 69.4932C127.807 69.88 128.199 70.1954 128.667 70.2748C128.199 70.1954 127.807 69.88 127.546 69.4932C127.544 69.4897 127.541 69.4861 127.539 69.4824C127.084 68.8298 127.029 68.0105 127.03 67.2243C127.052 65.6687 127.392 64.0942 127.192 62.5942C127.188 62.5604 127.184 62.5263 127.179 62.4921C126.434 56.5397 125.933 50.5035 125.216 44.4732C125.202 44.3545 125.187 44.2382 125.171 44.1246C124.91 42.4603 124.689 41.1227 124.1 39.0875C124.051 38.9714 124.007 38.8445 123.85 38.6248C123.771 38.52 123.645 38.3698 123.43 38.2368C123.217 38.1001 122.918 38.0308 122.735 38.03C121.834 38.0491 121.425 38.3306 120.994 38.5179C120.58 38.7215 120.223 38.9183 119.871 39.0925C119.173 39.4419 118.508 39.6985 117.863 39.7735C117.779 39.7836 117.695 39.7852 117.611 39.7821C117.526 39.7756 117.463 39.715 117.559 39.7574C117.603 39.7816 117.709 39.8555 117.791 40.0327C117.906 40.3785 117.746 40.3803 117.803 40.2835C117.82 40.242 117.85 40.1849 117.888 40.1231C118.322 39.4386 119.132 38.7042 119.927 38.0466C120.332 37.7131 120.754 37.3872 121.182 37.0614C121.399 36.8961 121.616 36.7336 121.845 36.5542C121.969 36.4555 122.067 36.3853 122.251 36.2105C122.304 36.1472 122.348 36.1528 122.528 35.8479C122.581 35.7105 122.805 35.3952 122.544 34.7791C122.393 34.4637 122.096 34.267 121.904 34.2008C121.714 34.1286 121.541 34.1262 121.509 34.1252C121.322 34.1236 121.232 34.1491 121.163 34.1638C120.975 34.2114 120.909 34.2415 120.81 34.2783C120.61 34.358 120.494 34.4037 120.346 34.4542C119.886 34.6136 119.411 34.6498 119.088 34.5686C118.753 34.4804 118.669 34.3505 118.546 34.1716C118.53 34.138 118.498 34.0671 118.495 34.0542C118.487 34.0154 118.526 34.1955 118.406 34.3817C118.487 34.2157 118.578 34.045 118.674 33.8834C120.002 31.6718 122.166 29.6707 124.356 29.7714C124.336 29.765 124.402 29.7698 124.499 29.8112C124.641 29.8689 124.837 29.9795 125.068 30.126C125.188 30.2003 125.308 30.2809 125.505 30.3931C125.62 30.4487 125.688 30.5217 126.068 30.6169C126.163 30.6359 126.314 30.6615 126.52 30.6363C126.74 30.6133 127.046 30.4945 127.257 30.2823C127.662 29.8355 127.616 29.5886 127.647 29.4258C127.656 29.1893 127.684 28.8973 127.714 28.6155C127.984 26.2823 128.308 23.8576 128.309 21.3938C128.307 20.7068 128.28 20.0132 128.2 19.313C128.163 18.9925 128.105 18.6779 128.021 18.3588C127.977 18.1917 127.63 18.0875 127.592 17.9282C127.558 17.7851 127.517 17.6316 127.473 17.4895Z" fill="white"/>
<path d="M149.066 18.3861C148.851 18.5387 148.705 18.7704 148.661 19.0303C148.617 19.2902 148.677 19.5571 148.83 19.7721C148.983 19.9872 149.214 20.1328 149.474 20.177C149.734 20.2213 150.001 20.1604 150.216 20.0079C150.216 20.0079 150.216 20.0079 150.216 20.0079C151.398 19.1674 152.592 18.3302 153.764 17.4013C154.362 16.9217 154.956 16.4305 155.53 15.8104C155.535 15.8047 155.54 15.799 155.545 15.7933C155.913 15.3797 156.314 14.9382 156.587 14.2527C156.886 13.5752 156.78 12.5838 156.466 12.0088C156.462 12.0002 156.458 11.9915 156.454 11.9828C155.057 8.71058 150.829 7.81319 147.973 8.4795C144.061 9.26719 140.63 11.2516 137.949 14.2086C136.742 15.6155 135.605 17.3262 135.429 19.5696C135.425 19.631 135.422 19.6925 135.42 19.7541C135.338 21.9076 136.048 24.0418 137.188 25.7546C137.215 25.7949 137.242 25.8351 137.269 25.8753C138.914 28.2544 141.026 29.8654 143.055 31.4318C143.084 31.4536 143.113 31.4755 143.142 31.4973C145.677 33.4158 148.308 35.1676 150.596 37.0826C150.615 37.0988 150.634 37.1149 150.653 37.131C151.794 38.0953 152.892 39.3052 152.974 40.0969C152.976 40.1081 152.977 40.1191 152.979 40.1301C153.005 40.394 152.977 40.505 152.865 40.6916C152.752 40.8753 152.494 41.1153 152.148 41.3304C152.134 41.3392 152.12 41.3481 152.105 41.357C150.721 42.1829 148.687 42.5929 146.737 42.8692C146.721 42.8714 146.705 42.8736 146.689 42.8758C143.818 43.2495 140.821 43.5666 137.972 43.4706C137.964 43.4702 137.956 43.4699 137.947 43.4696C137.188 43.4389 136.413 43.6392 135.594 43.7132C134.819 43.7873 133.966 43.7161 133.345 43.2198C133.342 43.2178 133.34 43.2157 133.337 43.2136C132.806 42.8104 132.423 42.237 132.215 41.6064C132.215 41.6064 132.215 41.6064 132.215 41.6064C132.423 42.237 132.806 42.8104 133.337 43.2136C133.34 43.2157 133.342 43.2178 133.345 43.2198C133.948 43.7032 134.554 44.2789 135.276 44.7938C136.02 45.3265 136.856 45.7805 137.719 45.9035C137.729 45.9048 137.738 45.9061 137.747 45.9073C140.918 46.2888 143.984 46.2451 147.095 45.8481C147.113 45.8457 147.13 45.8433 147.147 45.841C149.285 45.5117 151.45 45.1955 153.675 43.9135C153.699 43.8989 153.722 43.8843 153.746 43.8695C154.314 43.5075 154.917 43.0416 155.392 42.3081C155.878 41.5844 156.076 40.5661 155.955 39.7547C155.951 39.7211 155.946 39.6874 155.941 39.6537C155.425 37.1533 153.861 36.0242 152.605 34.8535C152.584 34.8353 152.563 34.817 152.541 34.7987C150.015 32.6891 147.411 30.97 144.95 29.1037C144.922 29.0826 144.894 29.0616 144.867 29.0406C142.912 27.5477 140.98 25.9947 139.756 24.1977C139.735 24.1673 139.715 24.1368 139.695 24.1064C138.835 22.8066 138.365 21.3319 138.419 19.8533C138.42 19.8221 138.421 19.7907 138.423 19.7591C138.491 18.6047 139.231 17.282 140.199 16.1576C142.307 13.7452 145.354 11.8236 148.493 11.1051C150.905 10.5494 153.352 10.9983 154.402 13.0358C154.406 13.0416 154.409 13.0474 154.412 13.0532C154.55 13.3214 154.591 13.3555 154.567 13.59C154.534 13.8187 154.346 14.1607 154.073 14.457C154.069 14.4612 154.066 14.4653 154.062 14.4695C153.632 14.937 153.083 15.4011 152.526 15.8457C151.425 16.7183 150.246 17.5474 149.066 18.3861Z" fill="white"/>
<path d="M154.241 24.2876C154.162 24.6775 154.241 25.0829 154.461 25.4144C154.681 25.746 155.023 25.9766 155.413 26.0556C155.803 26.1346 156.208 26.0554 156.54 25.8356C156.871 25.6157 157.102 25.2732 157.181 24.8833C157.181 24.8833 157.181 24.8833 157.181 24.8833C157.186 24.8508 157.205 24.7987 157.162 24.9408C157.143 24.9863 157.143 25.027 157.027 25.2226C156.97 25.3001 156.886 25.4864 156.522 25.7131C156.316 25.84 155.971 25.9405 155.664 25.9126C155.362 25.8939 155.091 25.7654 154.955 25.6723C154.718 25.5141 154.611 25.3564 154.572 25.3047C154.522 25.2358 154.486 25.1705 154.473 25.1458C154.439 25.0803 154.424 25.0425 154.416 25.0213C154.369 24.8864 154.406 24.9937 154.413 25.039C154.439 25.1617 154.467 25.32 154.494 25.4776C154.562 25.8873 154.622 26.3072 154.683 26.7392C154.69 26.7894 154.697 26.8408 154.705 26.8934C155.185 30.3963 155.597 33.926 156.2 37.5033C156.204 37.525 156.208 37.5466 156.212 37.5681C156.335 38.2636 156.498 38.9579 156.731 39.6821C157.005 40.3625 157.128 41.3107 158.31 42.1528C158.323 42.1611 158.336 42.1694 158.349 42.1776C159.165 42.6742 160.104 42.1323 160.665 42.0255C160.67 42.0245 160.676 42.0237 160.681 42.0228C160.948 41.9826 161.198 41.9142 161.433 41.8353C161.797 41.7128 162.126 41.5663 162.442 41.4283C162.592 41.3626 162.709 41.2399 162.769 41.0873C162.829 40.9347 162.825 40.7647 162.759 40.6147C162.694 40.4646 162.571 40.3469 162.418 40.2873C162.266 40.2277 162.096 40.2312 161.946 40.297C161.946 40.297 161.946 40.297 161.946 40.297C161.631 40.4352 161.329 40.5671 161.04 40.6644C160.853 40.7272 160.671 40.7752 160.498 40.8013C160.494 40.8018 160.49 40.8023 160.487 40.8028C160.278 40.8287 160.068 40.667 159.96 40.4828C159.845 40.2968 159.842 40.1116 159.782 40.0501C159.779 40.0478 159.777 40.0454 159.775 40.0431C159.734 39.9974 159.77 40.013 159.754 39.9732C159.742 39.9365 159.71 39.8555 159.679 39.75C159.613 39.5371 159.548 39.248 159.492 38.9523C159.378 38.3522 159.281 37.6983 159.166 37.0479C159.163 37.0278 159.159 37.0074 159.155 36.987C158.576 33.5575 158.161 30.0211 157.676 26.4812C157.669 26.4274 157.661 26.3746 157.654 26.3229C157.591 25.8764 157.529 25.4456 157.452 24.9826C157.422 24.7998 157.391 24.6219 157.345 24.4059C157.315 24.2834 157.316 24.2229 157.208 23.9258C157.193 23.8865 157.169 23.826 157.125 23.7432C157.108 23.7114 157.065 23.6327 157.01 23.5565C156.966 23.498 156.849 23.3289 156.604 23.1664C156.464 23.0703 156.187 22.9394 155.881 22.9205C155.568 22.8921 155.218 22.994 155.007 23.1238C154.634 23.3553 154.542 23.5521 154.48 23.6375C154.353 23.8526 154.346 23.9134 154.32 23.9784C154.249 24.2036 154.254 24.2354 154.241 24.2876Z" fill="white"/>
<path d="M163.942 23.7183C163.938 23.3205 163.777 22.9404 163.493 22.6615C163.209 22.3827 162.827 22.228 162.429 22.2315C162.031 22.235 161.651 22.3964 161.372 22.6801C161.093 22.9639 160.938 23.3468 160.942 23.7446C160.942 23.7446 160.942 23.7446 160.942 23.7446C160.945 24.0498 160.948 24.3491 160.953 24.6535C161.089 28.9219 161.103 33.1223 162.558 37.6002L162.575 37.6442C162.575 37.6447 162.576 37.6451 162.576 37.6455C162.894 38.4206 163.279 39.2374 163.765 39.9945C163.766 39.9948 163.766 39.9951 163.766 39.9954C163.989 40.3665 164.461 40.8214 164.906 41.0013C165.253 41.1544 165.611 41.2226 165.994 41.2424C166.161 41.2463 166.327 41.2431 166.477 41.2062C166.628 41.169 166.752 41.0985 166.838 40.9916C166.923 40.8848 166.965 40.7482 166.969 40.5934C166.973 40.4389 166.94 40.2763 166.9 40.1138C166.9 40.1138 166.9 40.1138 166.9 40.1138C166.816 39.7585 166.716 39.4443 166.629 39.1865C166.504 38.8358 166.484 38.6782 166.298 38.3861C166.298 38.3859 166.297 38.3856 166.297 38.3854C165.929 37.8111 165.633 37.1916 165.35 36.5046C165.35 36.5042 165.35 36.5038 165.35 36.5034L165.367 36.5475C164.198 33.0263 164.056 28.6899 163.953 24.6036C163.948 24.3074 163.944 24.0158 163.942 23.7183Z" fill="white"/>
<path d="M151.788 38.2612C151.788 38.2612 151.788 38.2612 151.788 38.2612C152.113 38.0644 152.437 37.8676 152.762 37.6708C157.353 34.8888 161.942 32.0964 166.551 29.3478C166.551 29.3478 166.551 29.3478 166.551 29.3477C167.812 28.6003 169.067 27.8523 170.35 27.1519C170.684 26.971 171.021 26.7978 171.361 26.6289C171.361 26.6289 171.361 26.6289 171.361 26.6289C171.021 26.7978 170.684 26.971 170.35 27.1519C169.067 27.8523 167.812 28.6003 166.551 29.3477C166.551 29.3478 166.551 29.3478 166.551 29.3478C161.942 32.0964 157.353 34.8888 152.762 37.6708C152.437 37.8676 152.113 38.0644 151.788 38.2612Z" fill="white"/>
<path d="M155.711 33.3547C155.988 33.1748 156.265 32.9948 156.542 32.8149C160.338 30.3506 164.132 27.8815 167.937 25.4354C167.937 25.4354 167.937 25.4354 167.937 25.4353C169.136 24.667 170.33 23.9018 171.544 23.1619C171.826 22.9904 172.109 22.821 172.393 22.6523C172.109 22.821 171.826 22.9904 171.544 23.1619C170.33 23.9018 169.136 24.667 167.937 25.4353C167.937 25.4354 167.937 25.4354 167.937 25.4354C164.132 27.8815 160.338 30.3506 156.542 32.8149C156.265 32.9948 155.988 33.1748 155.711 33.3547Z" fill="white"/>
<path d="M153.771 34.583C153.771 34.583 153.771 34.583 153.771 34.583C154.008 34.4255 154.246 34.2679 154.483 34.1105C157.639 32.019 160.791 29.9231 163.961 27.854C163.961 27.8539 163.961 27.8539 163.961 27.8539C165.088 27.121 166.216 26.3905 167.366 25.694C167.609 25.5464 167.854 25.4006 168.099 25.2549C167.854 25.4006 167.609 25.5464 167.366 25.694C166.216 26.3905 165.088 27.121 163.961 27.8539C163.961 27.8539 163.961 27.8539 163.961 27.854C160.791 29.9231 157.639 32.019 154.483 34.1105C154.246 34.2679 154.008 34.4255 153.771 34.583Z" fill="white"/>
<path d="M146.908 34.9009C146.648 35.0671 146.464 35.3299 146.398 35.6316C146.331 35.9332 146.387 36.2489 146.553 36.5093C146.72 36.7697 146.983 36.9533 147.284 37.0199C147.586 37.0865 147.902 37.0305 148.162 36.8643C148.162 36.8643 148.162 36.8643 148.162 36.8643C148.518 36.6367 148.875 36.4093 149.231 36.1823C151.921 34.4708 154.606 32.7644 157.355 31.2502C157.355 31.2502 157.355 31.2502 157.355 31.2502C159.669 29.9765 161.999 28.7265 164.42 27.5777C164.42 27.5777 164.421 27.5777 164.421 27.5776C165.756 26.9406 166.84 25.6547 168.241 25.1424C168.241 25.1424 168.241 25.1424 168.241 25.1424C168.465 25.0608 168.69 24.9802 168.915 24.9023C169.315 24.7634 169.718 24.6347 170.122 24.5107C169.718 24.6347 169.315 24.7634 168.915 24.9023C168.69 24.9802 168.465 25.0608 168.241 25.1424C168.241 25.1424 168.241 25.1424 168.241 25.1424C166.849 25.6512 165.171 25.4789 163.758 25.9801C163.758 25.9802 163.758 25.9802 163.758 25.9802C161.204 26.8793 158.637 27.8854 156.234 29.2081C156.234 29.2081 156.234 29.2081 156.234 29.2081C153.388 30.7766 150.678 32.5012 147.979 34.218C147.622 34.4456 147.265 34.6733 146.908 34.9009Z" fill="white"/>
<path d="M172.775 24.8093C172.825 24.4343 172.723 24.0549 172.493 23.7546C172.263 23.4542 171.923 23.2576 171.548 23.2079C171.173 23.1583 170.794 23.2596 170.493 23.4897C170.193 23.7198 169.996 24.0597 169.947 24.4348C169.947 24.4348 169.947 24.4348 169.947 24.4348C169.861 25.0809 169.784 25.7188 169.713 26.3668C169.501 28.367 169.35 30.3872 169.407 32.4672C169.621 34.5159 169.229 36.8024 171.694 39.0776C171.711 39.0893 171.727 39.1008 171.744 39.1123C173.236 40.1387 175.022 39.8456 176.208 39.3726C176.22 39.3678 176.232 39.363 176.245 39.3581C177.884 38.6622 179.08 37.6384 180.089 36.2263C180.094 36.2186 180.1 36.211 180.105 36.2033C180.944 35.0206 181.313 33.3569 181.058 31.9709L180.929 31.5562C180.927 31.5522 180.925 31.5481 180.923 31.5441C178.955 27.8969 175.407 25.3321 171.561 24.4068L171.537 24.4C171.536 24.3996 171.534 24.3993 171.532 24.399C171.463 24.386 171.393 24.3762 171.323 24.3693C170.655 24.2975 169.917 24.498 169.296 24.6968C169.95 24.864 170.481 25.2545 171.049 25.4918C171.108 25.5164 171.169 25.5395 171.231 25.5606C171.232 25.5611 171.234 25.5616 171.235 25.5621L171.211 25.5553C174.554 26.8988 177.167 29.638 178.58 32.7253C178.582 32.7288 178.583 32.7322 178.585 32.7357L178.457 32.3209C178.542 33.2177 178.381 33.9634 177.878 34.6663C177.875 34.6708 177.871 34.6752 177.868 34.6797C177.241 35.5395 176.166 36.3464 175.213 36.7173C175.206 36.7199 175.199 36.7225 175.192 36.7251C174.377 37.0378 173.707 37.0203 173.354 36.7569C173.349 36.7537 173.344 36.7504 173.34 36.747C172.703 36.3617 172.278 34.1451 172.259 32.381C172.206 30.5183 172.345 28.5917 172.55 26.6733C172.617 26.0507 172.692 25.4351 172.775 24.8093Z" fill="white"/>
<path d="M166.664 19.8797C166.412 20.063 166.242 20.3391 166.194 20.6473C166.145 20.9555 166.22 21.2704 166.403 21.5229C166.587 21.7754 166.863 21.9447 167.171 21.9936C167.479 22.0425 167.794 21.967 168.047 21.7837C168.047 21.7837 168.047 21.7837 168.047 21.7837C168.354 21.5639 168.912 21.3017 169.427 21.0819C172.083 19.9841 174.968 19.1158 177.82 18.2529C177.821 18.2528 177.821 18.2526 177.822 18.2525C183.096 16.7163 188.516 15.3298 193.92 14.0488C193.921 14.0487 193.921 14.0486 193.921 14.0486C196.168 13.5399 198.299 12.3267 200.64 12.2269C200.695 12.225 200.751 12.2237 200.805 12.223C200.805 12.223 200.805 12.223 200.805 12.223C201.355 12.2168 201.907 12.2153 202.454 12.2842C202.454 12.2842 202.454 12.2842 202.454 12.2842C201.907 12.2153 201.355 12.2168 200.805 12.223C200.805 12.223 200.805 12.223 200.805 12.223C200.751 12.2237 200.695 12.2242 200.64 12.2244C198.33 12.2498 195.892 11.9913 193.58 12.3893C193.579 12.3893 193.579 12.3894 193.579 12.3894C188.074 13.3936 182.579 14.4173 177.148 15.998C177.148 15.9981 177.147 15.9983 177.146 15.9984C174.252 16.8765 171.39 17.7273 168.504 18.9176C167.912 19.179 167.349 19.4061 166.664 19.8797Z" fill="white"/>
<path d="M184.174 19.5716C184.155 19.1743 183.979 18.8006 183.685 18.5329C183.39 18.2653 183.002 18.1254 182.604 18.1443C182.207 18.1631 181.833 18.339 181.566 18.6333C181.298 18.9276 181.158 19.3161 181.177 19.7135C181.177 19.7135 181.177 19.7135 181.177 19.7135C181.192 20.0384 181.208 20.3574 181.224 20.6805C181.453 24.855 181.605 28.9726 182.259 33.2731L182.268 33.3169C182.268 33.3184 182.268 33.3199 182.268 33.3214C182.518 34.4943 182.899 35.6141 183.62 36.8159C183.622 36.8182 183.623 36.8204 183.624 36.8227C183.925 37.3562 184.752 37.8713 185.399 37.8474C185.827 37.8597 186.199 37.7794 186.557 37.7404C186.557 37.7404 186.557 37.7404 186.557 37.7404C186.309 37.4833 186.081 37.1722 185.946 36.8717C185.722 36.39 185.891 36.1189 185.78 35.7679C185.78 35.7664 185.779 35.7649 185.779 35.7634C185.54 34.8991 185.425 33.7767 185.209 32.7283C185.209 32.7269 185.209 32.7255 185.208 32.7242L185.217 32.7679C184.618 28.8566 184.442 24.6491 184.22 20.5326C184.204 20.2116 184.189 19.8946 184.174 19.5716Z" fill="white"/>
<path d="M196.433 21.5114C196.426 21.2135 196.301 20.9306 196.086 20.725C195.87 20.5193 195.581 20.4078 195.284 20.4148C194.986 20.4219 194.703 20.547 194.497 20.7627C194.292 20.9783 194.18 21.2668 194.187 21.5647C194.187 21.5647 194.187 21.5647 194.187 21.5647C194.207 22.3882 194.224 23.2148 194.266 24.0622C194.299 24.5968 194.308 25.0754 194.439 25.755C194.447 25.7927 194.458 25.8399 194.469 25.8831C194.493 25.9726 194.519 26.0654 194.575 26.1962C194.65 26.3264 194.659 26.5136 195.105 26.8288C195.331 26.9885 195.792 27.062 196.073 26.966C196.359 26.8817 196.497 26.7593 196.592 26.6787C196.778 26.5057 196.837 26.4 196.9 26.3032C197.114 25.9405 197.181 25.7132 197.266 25.4564C197.274 25.4285 197.283 25.4008 197.291 25.3728C197.503 24.6199 197.611 23.8951 197.518 23.0417C197.512 22.9904 197.505 22.9386 197.497 22.8864C197.411 22.2297 197.026 21.4077 196.437 20.9283C196.379 20.878 196.32 20.8304 196.26 20.7854C194.589 19.6495 193.031 19.8864 191.71 20.044C191.629 20.0565 191.55 20.0696 191.47 20.0834C188.11 21.0188 186.952 23.3479 185.495 25.2047C185.43 25.2984 185.364 25.3922 185.299 25.4858C184.664 26.3516 184.293 27.6921 184.51 28.8312C184.539 29.0153 184.579 29.1936 184.625 29.3638C185.248 31.2908 186.667 31.9134 187.709 32.4755C188.814 33.0083 189.894 33.3659 190.967 33.6946C191.131 33.7446 191.294 33.7926 191.459 33.8406C192.551 34.1586 193.616 34.5041 194.577 34.9162C195.065 35.127 195.51 35.3497 195.844 35.5814C196.005 35.6887 196.125 35.8173 196.108 35.7929C196.103 35.7785 196.045 35.6896 196.034 35.4993C196.019 35.2973 196.115 35.0656 196.186 34.9842C196.383 34.7921 196.173 35.0137 195.929 35.088C195.673 35.1877 195.366 35.2709 195.029 35.339C194.367 35.4731 193.641 35.5468 192.907 35.571C191.436 35.6153 189.908 35.4728 188.459 35.013C188.243 34.944 188.033 34.8684 187.827 34.7817C187.682 34.721 187.54 34.655 187.401 34.5827C186.85 34.3021 186.257 33.9844 185.699 33.6116C186.079 34.1582 186.437 34.757 186.983 35.2057C187.119 35.318 187.259 35.4256 187.403 35.5284C187.607 35.675 187.817 35.8113 188.03 35.9407C189.454 36.7993 191.043 37.4096 192.718 37.7353C193.558 37.8949 194.419 37.9848 195.322 37.9456C195.787 37.922 196.237 37.8729 196.748 37.7383C197.252 37.5722 197.822 37.483 198.501 36.6606C198.746 36.3405 198.94 35.8284 198.905 35.3278C198.892 35.0949 198.842 34.8826 198.769 34.6869C198.701 34.5068 198.627 34.3677 198.539 34.2279C198.209 33.723 197.878 33.4639 197.565 33.2225C196.934 32.7606 196.378 32.4852 195.779 32.2086C194.62 31.6859 193.47 31.3059 192.298 30.9608C192.142 30.9153 191.991 30.8702 191.837 30.8237C190.844 30.5213 189.867 30.1877 189.024 29.7789C188.179 29.3938 187.522 28.7934 187.521 28.5785C187.499 28.4996 187.483 28.4247 187.471 28.3537C187.408 27.9229 187.481 27.6184 187.766 27.194C187.827 27.1049 187.889 27.016 187.951 26.9277C189.182 25.16 190.749 23.1718 191.989 22.9118C192.053 22.8992 192.116 22.8873 192.179 22.8759C193.211 22.6743 194.304 22.6862 194.688 22.9556C194.706 22.9666 194.722 22.9774 194.737 22.9879C194.873 23.0892 194.954 23.1283 195.039 23.3786C195.045 23.3979 195.051 23.4184 195.056 23.4398C195.15 23.8081 195.153 24.34 195.058 24.7807C195.054 24.7975 195.05 24.8139 195.047 24.8303C195.017 24.9693 194.953 25.1385 194.959 25.1321C194.968 25.1236 194.968 25.1032 195.078 25.0008C195.135 24.9537 195.229 24.8629 195.465 24.7925C195.697 24.7111 196.102 24.7763 196.285 24.9082C196.644 25.1672 196.601 25.2568 196.635 25.2938C196.65 25.3305 196.646 25.3268 196.643 25.3137C196.641 25.3064 196.638 25.293 196.635 25.2794C196.57 24.9616 196.535 24.4254 196.51 23.9491C196.471 23.1523 196.453 22.3333 196.433 21.5114Z" fill="white"/>
</svg>
