<svg width="125" height="53" viewBox="0 0 125 53" fill="none" xmlns="http://www.w3.org/2000/svg">
<path d="M26.1721 2.57682C26.3666 2.12837 26.375 1.621 26.1955 1.16634C26.016 0.711668 25.6632 0.34694 25.2147 0.152389C24.7663 -0.0421622 24.2589 -0.0505998 23.8043 0.128932C23.3496 0.308464 22.9849 0.661259 22.7903 1.10971C22.7903 1.10971 22.7903 1.10971 22.7903 1.10971C22.4242 1.95349 22.0584 2.79685 21.6922 3.64074C18.223 11.6305 14.7603 19.6317 11.2438 27.5825C11.242 27.5867 11.2401 27.5909 11.2383 27.5951C9.38523 31.8256 7.4947 35.9936 5.80565 40.4046C5.80315 40.4112 5.80066 40.4179 5.79818 40.4245C4.7441 43.2585 5.20415 46.5572 4.36133 49.3697C4.36034 49.373 4.35935 49.3763 4.35836 49.3797C4.28439 49.6293 4.21171 49.8801 4.14136 50.1313C3.89298 51.0151 3.67244 51.9193 3.55513 52.8332C3.55247 52.8518 3.55729 52.8706 3.56851 52.8856C3.57974 52.9006 3.59646 52.9105 3.61499 52.9131C3.63352 52.9158 3.65235 52.911 3.66733 52.8997C3.68231 52.8885 3.69222 52.8718 3.69487 52.8533C3.69487 52.8533 3.69487 52.8533 3.69487 52.8533C3.81173 51.9437 4.02943 51.0519 4.27731 50.1694C4.34742 49.919 4.41991 49.6689 4.49372 49.4198C4.49471 49.4165 4.49569 49.4131 4.49668 49.4098C5.34597 46.5768 7.7419 44.2966 8.87005 41.6542C8.87273 41.648 8.8754 41.6417 8.87807 41.6355C10.6685 37.4906 12.7509 33.3264 14.6084 29.0887C14.6103 29.0845 14.6121 29.0803 14.614 29.0761C18.1421 21.0988 21.6037 13.1002 25.0739 5.10798C25.4401 4.264 25.806 3.4206 26.1721 2.57682Z" fill="white"/>
<path d="M13.6334 11.5805C13.4307 11.7953 13.3216 12.0819 13.3302 12.3771C13.3388 12.6724 13.4643 12.9521 13.6791 13.1549C13.894 13.3576 14.1805 13.4666 14.4758 13.4581C14.7711 13.4495 15.0508 13.324 15.2535 13.1091C15.2535 13.1091 15.2535 13.1091 15.2535 13.1091C16.1516 12.1576 17.0419 11.2128 17.9524 10.3094C19.0499 9.22414 20.1801 8.17979 21.3818 7.36638C21.4009 7.3535 21.4201 7.34071 21.4392 7.32801C23.0345 6.24455 24.8549 5.73852 26.8875 5.45497C26.9075 5.45198 26.9276 5.449 26.9476 5.44603C28.8774 5.16076 30.8257 5.00734 32.751 5.02434C32.7579 5.02441 32.7649 5.02448 32.7718 5.02455C34.4623 5.04405 36.1499 5.2139 37.6152 5.69556C37.6184 5.69662 37.6216 5.69768 37.6248 5.69874C38.7524 6.06095 39.611 6.66905 39.8051 7.33074C39.8058 7.33277 39.8065 7.33481 39.8072 7.33684C40.0675 8.08162 39.7398 9.17741 39.1116 9.99939C39.0957 10.0208 39.0797 10.042 39.0635 10.0631C37.8233 11.6427 34.8074 12.7397 32.2108 13.8214C32.1725 13.8367 32.1341 13.8522 32.0954 13.8677C26.408 16.1139 20.5908 18.3103 14.7931 20.458C14.7717 20.4659 14.7503 20.4737 14.7291 20.4816C11.9781 21.4925 9.61017 23.6507 6.77997 24.4747C6.76991 24.4777 6.75984 24.4807 6.74975 24.4836C5.75679 24.7742 4.76436 25.0629 3.77066 25.3513C2.5142 25.716 1.25698 26.0799 0 26.4437C0 26.4437 0 26.4437 0 26.4437C1.25698 26.0799 2.5142 25.716 3.77066 25.3513C4.76436 25.0629 5.75679 24.7742 6.74975 24.4836C6.75984 24.4807 6.76992 24.4778 6.78 24.4748C9.59528 23.6751 12.7975 23.9761 15.6161 23.1125C15.6378 23.1058 15.6597 23.0991 15.6816 23.0924C21.6204 21.256 27.5542 19.4381 33.403 17.129C33.4431 17.113 33.4829 17.097 33.5225 17.081C36.2523 15.8423 39.2125 15.0946 41.7333 12.0195C41.7619 11.9794 41.7899 11.9393 41.8174 11.899C42.8653 10.3484 43.3708 8.24494 42.5192 6.21897C42.5167 6.21336 42.5142 6.20775 42.5117 6.20214C41.647 4.28569 39.8234 3.51183 38.4011 3.11417C38.3968 3.11301 38.3926 3.11185 38.3884 3.1107C36.4618 2.59422 34.5854 2.54338 32.7548 2.57755C32.7473 2.57772 32.7398 2.57789 32.7323 2.57807C30.6586 2.6287 28.6157 2.85553 26.5951 3.18312C26.5742 3.18653 26.5532 3.18996 26.5323 3.19339C24.4225 3.50886 22.0955 4.17385 20.2063 5.47284C20.1836 5.48794 20.1609 5.50315 20.1381 5.51846C18.7239 6.47884 17.5303 7.59717 16.3839 8.72786C15.4363 9.66826 14.5318 10.6287 13.6334 11.5805Z" fill="white"/>
<path d="M25.2357 25.1431C25.3486 24.6248 25.2511 24.0829 24.9644 23.6366C24.6778 23.1902 24.2256 22.8761 23.7073 22.7631C23.1891 22.6502 22.6472 22.7478 22.2008 23.0344C21.7545 23.3211 21.4403 23.7732 21.3274 24.2915C21.3274 24.2915 21.3274 24.2915 21.3274 24.2915C21.2572 24.6138 21.187 24.9361 21.1168 25.2584C20.3048 28.9893 19.4899 32.7148 18.6927 36.4597C18.6926 36.4604 18.6924 36.4612 18.6923 36.4619L18.6895 36.4754C18.283 38.5886 18.4316 40.7799 18.7515 43.1474C18.7595 43.1938 18.7677 43.2438 18.7764 43.2904L18.7808 43.3682C18.7809 43.3685 18.7809 43.3688 18.781 43.3691C18.8661 43.7629 19.5459 44.038 19.9355 44.0915C19.9355 44.0915 19.9355 44.0915 19.9355 44.0915C20.0311 43.6509 20.5238 43.3691 20.5602 43.1891C20.5602 43.1889 20.5602 43.1887 20.5602 43.1886L20.5647 43.2664C20.5722 43.2308 20.5801 43.1924 20.5885 43.1567C21.067 41.2829 22.2071 39.3252 22.608 37.2785L22.6052 37.292C22.6054 37.2912 22.6055 37.2905 22.6057 37.2898C23.3978 33.5683 24.2136 29.8386 25.0251 26.1099C25.0953 25.7876 25.1655 25.4653 25.2357 25.1431Z" fill="white"/>
<path d="M21.854 22.9465C21.6099 23.1847 21.4703 23.5102 21.4661 23.8513C21.462 24.1925 21.5934 24.5213 21.8317 24.7654C22.0699 25.0096 22.3954 25.1491 22.7365 25.1533C23.0776 25.1575 23.4064 25.026 23.6506 24.7878C23.6506 24.7878 23.6506 24.7878 23.6506 24.7878C24.0275 24.4161 24.1622 24.3231 24.4987 24.191C24.8214 24.0705 25.2562 23.9937 25.7154 23.9527C26.0005 23.9271 26.2986 23.9137 26.6008 23.9089C26.6098 23.9088 26.6189 23.9087 26.6281 23.9085C29.4778 23.9269 32.6767 24.2624 35.3048 24.9815C35.3097 24.9831 35.3146 24.9847 35.3195 24.9862C35.4699 25.0346 35.6113 25.0884 35.7034 25.133C35.793 25.1633 35.8381 25.2574 35.6697 25.0521C35.5866 24.9501 35.4871 24.6616 35.5199 24.4503C35.5465 24.2394 35.6087 24.1634 35.6211 24.1399C35.6522 24.1013 35.5721 24.1967 35.4715 24.2752C35.0324 24.6277 34.3353 25.0221 33.6782 25.386C33.6619 25.395 33.6456 25.404 33.6291 25.413C30.535 27.0919 27.2755 28.5962 24.0496 30.2053C24.0464 30.2069 24.0431 30.2086 24.0398 30.2102C23.5915 30.4353 23.154 30.6587 22.6979 30.9051C22.4693 31.0293 22.2423 31.154 21.9872 31.3119C21.8553 31.3958 21.7299 31.4709 21.5304 31.6346C21.4282 31.7331 21.307 31.7885 21.0824 32.1713C20.9762 32.3529 20.8393 32.7828 20.9374 33.1912C21.0324 33.5908 21.1981 33.763 21.2634 33.8507C21.2815 33.8726 21.2997 33.8938 21.3181 33.9143C22.1667 34.7129 22.6023 34.7013 23.1005 34.9104C23.5812 35.0709 24.0323 35.1954 24.482 35.3154C25.3759 35.5516 26.2462 35.7592 27.1197 35.9607C27.1377 35.9648 27.1558 35.9689 27.1739 35.973C29.7659 36.533 32.257 36.8206 34.766 36.98C34.7784 36.9808 34.7907 36.9815 34.803 36.9822C37.9202 37.157 41.0093 37.1088 44.1251 36.9489C44.1298 36.9486 44.1344 36.9484 44.139 36.9481C45.9841 36.846 47.835 36.1692 49.6662 35.798C49.6667 35.7979 49.6671 35.7978 49.6676 35.7977C49.9584 35.7403 50.2472 35.678 50.5346 35.6112C51.5963 35.3652 52.629 35.0591 53.6414 34.7581C53.8608 34.6929 54.0452 34.5433 54.1542 34.3421C54.2633 34.141 54.2879 33.9047 54.2227 33.6854C54.1576 33.466 54.0079 33.2816 53.8068 33.1725C53.6056 33.0635 53.3694 33.0389 53.15 33.1041C53.15 33.1041 53.15 33.1041 53.15 33.1041C52.1369 33.4054 51.1418 33.6994 50.1443 33.9304C49.8741 33.9932 49.6042 34.0515 49.3334 34.1049C49.333 34.105 49.3326 34.1051 49.3322 34.1052C47.6137 34.4505 45.8381 33.967 44.0692 33.9528C44.0647 33.9528 44.0603 33.9528 44.0559 33.9527C41.0469 33.9167 38.002 33.7528 35.0012 33.584C34.9893 33.5834 34.9774 33.5827 34.9655 33.582C32.523 33.4323 30.0491 33.4 27.762 33.0272C27.7463 33.0245 27.7306 33.0218 27.7149 33.0192C26.8403 32.8657 25.9697 32.7211 25.1311 32.5524C24.7121 32.4675 24.3006 32.3761 23.9322 32.2704C23.7503 32.2182 23.5759 32.1602 23.4464 32.1063C23.3212 32.0633 23.219 31.9652 23.3478 32.0895C23.3534 32.0958 23.3593 32.1027 23.3654 32.1102C23.392 32.151 23.521 32.2711 23.6029 32.6105C23.687 32.9588 23.5663 33.3252 23.4891 33.4537C23.3243 33.7285 23.2952 33.7004 23.2857 33.7195C23.277 33.7245 23.3544 33.6679 23.4308 33.6206C23.5915 33.5196 23.7933 33.4062 23.9959 33.2957C24.4066 33.0725 24.8323 32.8538 25.2668 32.6308C25.2699 32.6292 25.2731 32.6276 25.2763 32.6259C28.4501 31.0054 31.6699 29.4213 34.8757 27.6813C34.893 27.6718 34.9102 27.6623 34.9273 27.6529C35.6353 27.2535 36.3238 26.8967 37.1091 26.2795C37.3089 26.1106 37.5259 25.9362 37.7754 25.5745C37.8962 25.3876 38.0454 25.1321 38.0934 24.7258C38.1493 24.3194 37.9891 23.8323 37.792 23.5705C37.3946 23.0481 37.0833 22.941 36.8259 22.8008C36.566 22.6767 36.3356 22.5951 36.1145 22.5231C36.1075 22.5209 36.1004 22.5186 36.0933 22.5163C32.8152 21.6345 29.8538 21.3769 26.5918 21.3362C26.5812 21.3364 26.5706 21.3365 26.56 21.3367C26.2085 21.3424 25.8506 21.3577 25.4845 21.3906C24.8936 21.4465 24.2744 21.5344 23.6044 21.7789C22.9378 21.9984 22.2139 22.5641 21.854 22.9465Z" fill="white"/>
<path d="M46.0417 21.9681C46.332 21.6334 46.4773 21.197 46.4458 20.7551C46.4143 20.3131 46.2086 19.9018 45.8738 19.6115C45.539 19.3213 45.1027 19.1759 44.6607 19.2074C44.2188 19.2389 43.8074 19.4447 43.5172 19.7795C43.5172 19.7795 43.5172 19.7795 43.5172 19.7795C43.0881 20.2745 42.6686 20.7775 42.2582 21.2949C40.7431 23.2434 39.2658 25.2876 38.4159 27.9523C38.4125 27.9638 38.409 27.9754 38.4056 27.9869C38.0897 29.0616 37.8736 30.2367 38.1249 31.4869C38.1313 31.5175 38.138 31.5481 38.1451 31.579C38.2667 32.1375 38.5776 32.8795 39.1527 33.4193C39.7213 33.9621 40.3675 34.2142 40.897 34.3531C40.9177 34.3585 40.9383 34.3637 40.959 34.3689C44.213 35.094 46.9691 33.859 49.2635 32.4628C49.2788 32.4531 49.2941 32.4433 49.3094 32.4336C50.4667 31.7367 51.4211 30.4076 51.7122 29.0893C51.7174 29.0682 51.7224 29.0472 51.7274 29.0261C52.4382 25.6082 50.3141 23.1419 48.6858 21.4269L48.6641 21.4053C48.6607 21.4019 48.6573 21.3986 48.6538 21.3952C47.5659 20.3287 46.2891 19.4879 45.1598 18.6106C45.1589 18.6099 45.158 18.6092 45.157 18.6085C45.1015 18.565 45.0427 18.5276 44.9802 18.4939C44.4447 18.2058 43.6615 18.2154 43.0502 17.7378C43.0502 17.7378 43.0502 17.7378 43.0502 17.7378C42.9278 18.4312 42.9019 19.4742 43.234 20.1053C43.2718 20.1803 43.3137 20.2502 43.362 20.3159C43.3628 20.317 43.3636 20.3181 43.3644 20.3192C44.3145 21.5942 45.2463 22.7762 46.2945 23.8051C46.2977 23.8083 46.301 23.8115 46.3043 23.8147L46.2826 23.7931C47.7549 25.2563 48.848 27.0103 48.4901 28.2652C48.4879 28.2748 48.4856 28.2843 48.4832 28.2938C48.3308 28.8896 48.0478 29.2665 47.5263 29.5904C47.5141 29.5979 47.5019 29.6054 47.4897 29.6128C45.6568 30.7355 43.4281 31.4066 41.8288 30.9645C41.8183 30.9617 41.808 30.9589 41.7976 30.956C41.6154 30.9066 41.5625 30.8508 41.5967 30.878C41.6324 30.9066 41.6242 30.9462 41.5845 30.7871C41.5827 30.7791 41.5808 30.7707 41.5788 30.7619C41.4648 30.2488 41.4162 29.5805 41.609 28.9364C41.6111 28.9296 41.6131 28.9227 41.6152 28.9158C42.1936 27.0479 43.4854 25.1341 44.876 23.3711C45.2524 22.8967 45.641 22.4303 46.0417 21.9681Z" fill="white"/>
<path d="M54.6249 22.3341C54.4578 22.5181 54.3706 22.7609 54.3825 23.0092C54.3945 23.2575 54.5046 23.4909 54.6886 23.658C54.8726 23.8251 55.1155 23.9123 55.3638 23.9003C55.6121 23.8884 55.8454 23.7783 56.0125 23.5943C56.0125 23.5943 56.0125 23.5943 56.0125 23.5943C56.2431 23.3405 56.4744 23.0919 56.7091 22.8491C57.0124 22.5356 57.3217 22.23 57.6313 21.9562C57.786 21.8196 57.9419 21.6905 58.0885 21.584C58.2259 21.4794 58.4036 21.3882 58.3904 21.3986C58.3842 21.4003 58.3678 21.4054 58.3322 21.4094C58.3087 21.4341 57.9874 21.3664 57.885 21.2144C57.7852 21.0846 57.8141 21.0936 57.8064 21.1485C57.8051 21.2668 57.7687 21.5056 57.7066 21.7363C57.5821 22.2087 57.3782 22.7199 57.1618 23.2224C56.7243 24.2358 56.2203 25.2522 55.8596 26.3535C55.8428 26.4044 55.8261 26.4564 55.8095 26.5088C55.2681 28.2125 54.709 29.9553 54.2129 31.7896C54.2065 31.8137 54.2002 31.8376 54.1939 31.8613C53.9452 32.8054 54.3777 33.9734 54.2779 34.9351C54.2769 34.9436 54.2759 34.952 54.2748 34.9604C54.2482 35.1671 54.2239 35.3743 54.2018 35.5809C54.1637 35.9362 54.1323 36.2895 54.1015 36.6377C54.0854 36.82 54.1424 37.0013 54.2599 37.1416C54.3775 37.282 54.5459 37.3699 54.7283 37.386C54.9106 37.4021 55.0919 37.3451 55.2322 37.2276C55.3726 37.1101 55.4605 36.9416 55.4766 36.7593C55.4766 36.7593 55.4766 36.7593 55.4766 36.7593C55.5073 36.4109 55.5379 36.0678 55.5744 35.7278C55.5955 35.5301 55.6186 35.3331 55.6439 35.1367C55.6449 35.1287 55.646 35.1207 55.6472 35.1127C55.7693 34.2088 56.6936 33.5571 56.9863 32.7072C56.9937 32.6857 57.0012 32.6641 57.0088 32.6423C57.5965 30.9745 58.2976 29.2684 58.8674 27.478C58.8851 27.4222 58.9023 27.3664 58.9188 27.3111C59.2413 26.2316 59.4538 25.0728 59.6092 23.876C59.6849 23.276 59.7527 22.6686 59.7806 22.0079C59.7902 21.6712 59.804 21.3364 59.7301 20.8861C59.6837 20.6646 59.6393 20.3778 59.3611 20.0241C59.0829 19.6408 58.4527 19.4834 58.145 19.5433C58.037 19.5546 57.9463 19.5757 57.8683 19.5983C56.4671 20.2126 56.0822 20.8744 55.3613 21.5463C55.1097 21.8066 54.866 22.0686 54.6249 22.3341Z" fill="white"/>
<path d="M59.4003 18.2277C59.1239 18.1585 58.8313 18.2019 58.5869 18.3484C58.3424 18.4949 58.1662 18.7325 58.0969 19.0089C58.0277 19.2854 58.0711 19.578 58.2176 19.8224C58.3641 20.0669 58.6017 20.2431 58.8782 20.3123C58.8782 20.3123 58.8782 20.3123 58.8782 20.3123C59.6096 20.4956 60.336 20.6935 61.0556 20.9088C63.186 21.5473 65.2659 22.3337 67.1899 23.3624C67.1951 23.3652 67.2004 23.368 67.2056 23.3708C68.9833 24.3157 70.4322 25.9325 70.947 27.5756C70.9474 27.5793 70.9476 27.5827 70.9477 27.5857C70.928 27.6629 70.907 27.5327 70.7858 27.6707C70.6592 27.7874 70.4041 27.9877 70.1183 28.2017C70.0995 28.2159 70.0804 28.2304 70.0608 28.2452C68.3494 29.4713 65.6703 30.296 63.2007 31.0911C63.1735 31.0996 63.1462 31.1082 63.1189 31.1167C58.4601 32.5465 53.8241 34.7107 48.9706 35.6889C48.9635 35.6903 48.9564 35.6918 48.9493 35.6932C48.2721 35.8285 47.6014 35.9626 46.9268 36.0978C46.173 36.2491 45.4208 36.3985 44.668 36.5538C44.668 36.5538 44.668 36.5538 44.668 36.5538C45.4208 36.3985 46.173 36.2491 46.9268 36.0978C47.6014 35.9626 48.2721 35.8285 48.9493 35.6932C48.9564 35.6918 48.9635 35.6904 48.9706 35.6889C53.8298 34.7157 58.9195 34.9542 63.8548 33.8914C63.884 33.8849 63.913 33.8785 63.942 33.8721C66.6228 33.2155 69.2841 32.6854 72.0023 30.8087C72.0352 30.7837 72.0675 30.7586 72.0991 30.7333C72.5438 30.3719 72.9828 29.9312 73.3515 29.2555C73.7326 28.6153 73.9053 27.4761 73.553 26.6723C73.5411 26.6411 73.5286 26.6102 73.5158 26.5797C72.3714 24.0961 70.2994 22.6111 68.2216 21.4771C68.2159 21.4741 68.2102 21.471 68.2045 21.468C66.1085 20.3481 63.9026 19.5192 61.6715 18.8499C60.918 18.6245 60.1605 18.4182 59.4003 18.2277Z" fill="white"/>
<path d="M72.6501 20.2153C72.4303 20.3149 72.259 20.4977 72.174 20.7235C72.0889 20.9493 72.0971 21.1996 72.1966 21.4194C72.2961 21.6392 72.4789 21.8105 72.7047 21.8956C72.9305 21.9806 73.1809 21.9725 73.4007 21.8729C73.4007 21.8729 73.4007 21.8729 73.4007 21.8729C74.2392 21.4945 75.0752 21.11 75.8892 20.7955C76.1777 20.6852 76.4744 20.5814 76.71 20.5271C76.7403 20.5201 76.7696 20.5157 76.7943 20.5143C76.8536 20.5096 76.9045 20.5263 76.8681 20.5439C76.8517 20.5644 76.6038 20.5534 76.4123 20.3337C76.2414 20.123 76.249 20.0328 76.2196 20.0404C76.1973 20.0431 76.1726 20.1013 76.1458 20.1725C76.1323 20.2095 76.1169 20.2507 76.1002 20.2952C75.7834 21.1114 75.2679 22.0489 75.0012 23.0076C74.9831 23.0715 74.9657 23.1326 74.9475 23.1969C74.4404 24.9999 73.9368 26.7919 73.5134 28.6735C73.4946 28.7584 73.4757 28.8459 73.4578 28.931C73.3002 29.8163 73.0499 30.6003 73.212 31.9696C73.2364 32.1203 73.2778 32.2764 73.3312 32.4221C73.5227 32.9591 73.9446 33.5435 74.5319 33.9305C74.7056 34.047 74.8923 34.1412 75.0803 34.2108C76.1453 34.5599 76.7206 34.1802 77.1525 33.9853C77.5878 33.7513 77.9217 33.4938 78.239 33.2352C78.8659 32.7158 79.4027 32.1828 79.9485 31.6632C80.048 31.5681 80.1462 31.4728 80.2448 31.3762C81.7395 29.9137 82.9763 28.27 84.1936 26.6615C84.3029 26.5172 84.4127 26.3731 84.5224 26.2298C85.9489 24.368 87.1122 22.2707 87.8441 20.0001C87.9092 19.8011 87.9772 19.588 88.0392 19.4258C88.0515 19.3929 88.0997 19.2892 88.0507 19.4364C88.0305 19.4776 88.0444 19.4741 87.9505 19.6192C87.9104 19.6753 87.8566 19.7507 87.7363 19.8519C87.6186 19.9475 87.405 20.0937 87.0627 20.1198C86.2762 20.1346 86.0141 19.6293 85.9303 19.4873C85.7683 19.1142 85.8319 19.1879 85.8097 19.1262C85.8038 19.0909 85.8015 19.0712 85.7996 19.0581C85.7939 19.023 85.7911 19.0402 85.7864 19.0521C85.7685 19.1205 85.7419 19.2477 85.714 19.3575C85.657 19.5907 85.59 19.835 85.5197 20.0774C85.3783 20.5644 85.2213 21.0536 85.0657 21.5418C84.7538 22.5154 84.4492 23.4914 84.2455 24.4394C84.2362 24.4827 84.2271 24.5265 84.2182 24.5708C83.796 26.7142 83.4614 28.799 83.1634 30.9406L83.1547 31.015C83.1521 31.0414 83.1495 31.0677 83.147 31.0939C83.0601 32.0592 83.1578 33.059 83.4581 34.1652C83.6412 34.8027 83.9033 35.5458 84.453 36.2135L84.6288 36.4295C84.6473 36.4447 84.666 36.4596 84.6847 36.4741C85.3325 36.9584 85.9481 36.8586 86.3326 36.8376C86.5005 36.8255 86.6859 36.7323 86.838 36.6113C86.9908 36.4885 87.0979 36.3478 87.1456 36.1875C87.1933 36.0272 87.1805 35.8509 87.1197 35.6645C87.0584 35.4801 86.9542 35.3007 86.8202 35.1988C86.8202 35.1988 86.8202 35.1988 86.8202 35.1988C86.4845 34.9624 86.3424 34.645 86.4293 34.6048C86.4309 34.6034 86.4327 34.602 86.4346 34.6007L86.6104 34.8167C86.5784 34.5872 86.6168 34.256 86.6928 33.8425C86.8244 33.1354 87.0497 32.3175 87.1289 31.4745C87.1311 31.4514 87.1333 31.4282 87.1356 31.4048L87.1269 31.4792C87.4105 29.4361 87.7373 27.3422 88.1128 25.3338C88.1206 25.2928 88.1281 25.2522 88.1354 25.2121C88.3306 24.1367 88.3484 23.0714 88.3268 22.0022C88.3155 21.4667 88.2929 20.9331 88.2702 20.3946C88.2587 20.1252 88.2473 19.8561 88.2348 19.5732C88.2279 19.4329 88.2225 19.2939 88.2112 19.1062C88.2078 19.0658 88.2055 18.9984 88.1962 18.91C88.1931 18.8769 88.1892 18.8397 88.1812 18.7898C88.1566 18.714 88.2194 18.7745 88.0486 18.3819C87.9609 18.2326 87.695 17.7237 86.9027 17.7386C86.5576 17.7649 86.3411 17.9125 86.2202 18.0107C86.0967 18.1145 86.0396 18.1938 85.996 18.2548C85.8918 18.4155 85.9026 18.4192 85.8752 18.4765C85.7765 18.7457 85.7977 18.7559 85.7739 18.8642C85.7416 19.0894 85.7199 19.2695 85.6869 19.4612C85.3409 21.5451 84.607 23.614 83.3427 25.3477C83.2378 25.4914 83.1317 25.6345 83.0245 25.7759C81.8314 27.354 80.5051 28.806 79.024 30.0208C78.9225 30.1044 78.8219 30.1862 78.7208 30.2675C78.1693 30.7102 77.5845 31.1105 77.0044 31.4136C76.7174 31.5629 76.425 31.6879 76.1908 31.7435C75.9661 31.8232 75.7715 31.6862 76.146 31.75C76.1487 31.7393 76.1591 31.7324 76.1709 31.7284C76.2138 31.7142 76.2847 31.683 76.2951 31.5759C76.2981 31.5454 76.3002 31.5209 76.2966 31.4907C76.2486 31.1986 76.3925 30.3313 76.5564 29.5905C76.5729 29.5142 76.5903 29.4346 76.6075 29.3568C77.0008 27.6066 77.4743 25.8057 77.946 24.0189C77.963 23.9548 77.9792 23.894 77.9961 23.8303C78.2478 22.8568 78.323 21.8816 78.4108 20.7382C78.4149 20.6743 78.4189 20.6082 78.4228 20.5367C78.4295 20.3961 78.4317 20.241 78.4089 20.0294C78.3776 19.8252 78.3578 19.5097 78.0594 19.1238C77.7411 18.7263 77.2705 18.6395 77.0437 18.6423C76.7918 18.641 76.6304 18.6815 76.4771 18.7137C76.4179 18.727 76.3598 18.7406 76.3048 18.7531C75.896 18.8497 75.569 18.9715 75.2387 19.0961C74.3328 19.4468 73.4924 19.8357 72.6501 20.2153Z" fill="white"/>
<path d="M94.9209 23.6187C95.2232 23.8534 95.6064 23.9585 95.9861 23.9108C96.3659 23.863 96.7111 23.6664 96.9459 23.3641C97.1807 23.0618 97.2857 22.6786 97.238 22.2989C97.1902 21.9191 96.9936 21.5739 96.6913 21.3391C96.6913 21.3391 96.6913 21.3391 96.6913 21.3391C96.2953 21.0573 95.68 20.4422 94.5239 20.362C94.0315 20.3369 93.558 20.4621 93.1974 20.6273C93.194 20.6288 93.1906 20.6303 93.1872 20.6319C90.0858 22.1833 88.7998 24.9735 87.5847 27.1996C87.5623 27.244 87.5406 27.2883 87.5191 27.333C86.9985 28.4083 86.7115 29.6152 86.6983 30.7653C86.6972 30.8396 86.6974 30.916 86.6993 30.9948C86.7106 31.5597 86.8183 32.3395 87.2277 33.0592C87.6312 33.7811 88.2275 34.2783 88.744 34.5973C88.8261 34.6483 88.9084 34.6964 88.9889 34.741C90.8135 35.6742 92.372 35.766 93.9979 35.7977C94.0488 35.7977 94.0996 35.7974 94.1504 35.7969C96.1231 35.7745 97.8887 34.848 99.6271 34.4598C99.6482 34.4551 99.6693 34.4504 99.6905 34.4458C100.993 34.1639 102.256 33.7836 103.491 33.3822C103.982 33.2225 104.469 33.0594 104.954 32.8972C105.177 32.8226 105.361 32.6625 105.466 32.4522C105.571 32.2418 105.588 31.9984 105.514 31.7755C105.439 31.5526 105.279 31.3684 105.069 31.2635C104.858 31.1587 104.615 31.1416 104.392 31.2162C104.392 31.2162 104.392 31.2162 104.392 31.2162C103.907 31.3785 103.424 31.54 102.943 31.6964C101.732 32.0901 100.528 32.4512 99.3153 32.7134C99.2957 32.7177 99.276 32.7218 99.2562 32.7258C97.5943 33.0641 95.8682 32.523 94.3641 32.2897C94.3243 32.2836 94.2846 32.2774 94.2449 32.2711C93.0082 32.0743 91.6498 31.6904 90.9065 31.2843C90.8782 31.2686 90.8523 31.2534 90.8301 31.2396C90.6743 31.1426 90.6581 31.096 90.6734 31.122C90.6887 31.1487 90.657 31.1217 90.6511 30.897C90.6504 30.8677 90.6499 30.8359 90.6498 30.8016C90.6495 30.0977 90.7138 29.4437 90.9365 28.8165C90.9457 28.7906 90.9551 28.7648 90.9648 28.7388C91.8608 26.411 92.7353 24.0179 94.3805 23.26C94.3822 23.2592 94.3839 23.2584 94.3857 23.2576C94.4412 23.2336 94.4254 23.2477 94.3909 23.2452C94.2807 23.2137 94.5194 23.2848 94.9209 23.6187Z" fill="white"/>
<path d="M97.8135 15.7794C97.5195 16.0309 97.3374 16.3889 97.3073 16.7746C97.2772 17.1604 97.4016 17.5423 97.6531 17.8363C97.9046 18.1303 98.2626 18.3124 98.6483 18.3424C99.0341 18.3725 99.4159 18.2481 99.71 17.9966C100.063 17.6948 100.404 17.4033 100.745 17.1287C102.069 16.0435 103.492 15.2314 105.092 14.587C105.105 14.5817 105.118 14.5764 105.131 14.5712C108.287 13.3363 111.735 12.3355 115.157 11.4359C115.167 11.4332 115.177 11.4305 115.188 11.4279C117.403 10.8552 119.509 9.46585 121.828 9.19745C121.831 9.19699 121.835 9.19654 121.839 9.1961C122.43 9.12692 123.02 9.06273 123.612 9.0071C124.074 8.9635 124.537 8.92627 125 8.89014C125 8.89014 125 8.89014 125 8.89014C124.537 8.92627 124.074 8.9635 123.612 9.0071C123.02 9.06273 122.43 9.12692 121.839 9.1961C121.835 9.19654 121.831 9.19699 121.828 9.19743C119.535 9.45539 117.057 8.85328 114.729 9.23217C114.718 9.23392 114.707 9.23567 114.697 9.23742C111.12 9.83921 107.563 10.4926 104.04 11.8654C104.025 11.8713 104.01 11.8773 103.995 11.8833C102.203 12.5979 100.414 13.6202 98.9126 14.858C98.5307 15.1661 98.1661 15.4778 97.8135 15.7794Z" fill="white"/>
<path d="M111.726 18.0243C111.828 17.544 111.735 17.043 111.467 16.6316C111.199 16.2201 110.779 15.9318 110.299 15.8302C109.818 15.7286 109.317 15.8219 108.906 16.0897C108.495 16.3574 108.206 16.7777 108.105 17.258C108.105 17.258 108.105 17.258 108.105 17.258C108.02 17.6598 107.934 18.0626 107.85 18.4664C107.168 21.7108 106.513 25.0339 106.207 28.45C106.207 28.452 106.206 28.454 106.206 28.456C105.899 31.8637 106.707 35.2206 106.712 38.4659C106.712 38.4662 106.712 38.4665 106.712 38.4668C106.707 39.2527 106.692 40.0435 106.621 40.771C106.584 41.1484 106.529 41.4714 106.443 41.8703C106.383 42.1553 106.439 42.4524 106.598 42.6963C106.757 42.9401 107.007 43.1107 107.292 43.1705C107.577 43.2303 107.874 43.1745 108.118 43.0153C108.362 42.856 108.532 42.6065 108.592 42.3214C108.592 42.3214 108.592 42.3214 108.592 42.3214C108.68 41.918 108.765 41.4305 108.806 40.9893C108.89 40.12 108.902 39.2979 108.908 38.4784C108.908 38.4781 108.908 38.4778 108.908 38.4775C108.901 35.1573 109.607 31.9275 109.893 28.7875C109.893 28.7857 109.894 28.7839 109.894 28.782C110.177 25.616 110.796 22.4434 111.473 19.2272C111.557 18.8271 111.641 18.4261 111.726 18.0243Z" fill="white"/>
</svg>
