<svg width="125" height="53" viewBox="0 0 125 53" fill="none" xmlns="http://www.w3.org/2000/svg">
<path d="M26.1718 2.57633C26.3664 2.12788 26.3748 1.62052 26.1953 1.16585C26.0157 0.711179 25.6629 0.346452 25.2145 0.151901C24.766 -0.0426505 24.2587 -0.0510881 23.804 0.128444C23.3493 0.307975 22.9846 0.66077 22.7901 1.10922C22.7901 1.10922 22.7901 1.10922 22.7901 1.10922C22.424 1.953 22.0581 2.79636 21.692 3.64026C18.2228 11.6301 14.7601 19.6313 11.2436 27.5821C11.2417 27.5862 11.2399 27.5904 11.238 27.5946C9.38499 31.8251 7.49445 35.9931 5.8054 40.4041C5.80291 40.4107 5.80042 40.4174 5.79794 40.424C4.74385 43.258 5.2039 46.5567 4.36109 49.3692C4.36009 49.3725 4.3591 49.3758 4.35812 49.3792C4.28415 49.6288 4.21146 49.8796 4.14112 50.1308C3.89274 51.0146 3.67219 51.9188 3.55488 52.8328C3.55223 52.8513 3.55704 52.8701 3.56827 52.8851C3.57949 52.9001 3.59621 52.91 3.61474 52.9126C3.63328 52.9153 3.6521 52.9105 3.66709 52.8993C3.68207 52.888 3.69198 52.8713 3.69463 52.8528C3.69463 52.8528 3.69463 52.8528 3.69463 52.8528C3.81149 51.9432 4.02918 51.0514 4.27707 50.1689C4.34718 49.9185 4.41967 49.6684 4.49347 49.4193C4.49446 49.416 4.49545 49.4126 4.49644 49.4093C5.34572 46.5763 7.74165 44.2961 8.86981 41.6537C8.87249 41.6475 8.87516 41.6412 8.87783 41.635C10.6682 37.4901 12.7507 33.3259 14.6082 29.0882C14.61 29.084 14.6119 29.0798 14.6137 29.0756C18.1419 21.0983 21.6034 13.0997 25.0737 5.1075C25.4399 4.26351 25.8058 3.42011 26.1718 2.57633Z" fill="black"/>
<path d="M13.6334 11.58C13.4307 11.7948 13.3216 12.0814 13.3302 12.3766C13.3388 12.6719 13.4643 12.9516 13.6791 13.1544C13.894 13.3571 14.1805 13.4661 14.4758 13.4576C14.7711 13.449 15.0508 13.3235 15.2535 13.1086C15.2535 13.1086 15.2535 13.1086 15.2535 13.1086C16.1516 12.1571 17.0419 11.2123 17.9524 10.3089C19.0499 9.22365 20.1801 8.1793 21.3818 7.36589C21.4009 7.35301 21.4201 7.34022 21.4392 7.32753C23.0345 6.24406 24.8549 5.73803 26.8875 5.45449C26.9075 5.45149 26.9276 5.44851 26.9476 5.44554C28.8774 5.16027 30.8257 5.00685 32.751 5.02386C32.7579 5.02392 32.7649 5.02399 32.7718 5.02406C34.4623 5.04356 36.1499 5.21341 37.6152 5.69507C37.6184 5.69613 37.6216 5.69719 37.6248 5.69825C38.7524 6.06046 39.611 6.66856 39.8051 7.33025C39.8058 7.33228 39.8065 7.33432 39.8072 7.33636C40.0675 8.08113 39.7398 9.17692 39.1116 9.9989C39.0957 10.0203 39.0797 10.0415 39.0635 10.0626C37.8233 11.6422 34.8074 12.7392 32.2108 13.8209C32.1725 13.8362 32.1341 13.8517 32.0954 13.8672C26.408 16.1134 20.5908 18.3098 14.7931 20.4575C14.7717 20.4654 14.7503 20.4733 14.7291 20.4811C11.9781 21.492 9.61017 23.6503 6.77997 24.4743C6.76991 24.4772 6.75984 24.4802 6.74975 24.4832C5.75679 24.7737 4.76436 25.0624 3.77066 25.3508C2.5142 25.7155 1.25698 26.0794 0 26.4432C0 26.4432 0 26.4432 0 26.4432C1.25698 26.0794 2.5142 25.7155 3.77066 25.3508C4.76436 25.0624 5.75679 24.7737 6.74975 24.4832C6.75984 24.4802 6.76992 24.4773 6.78 24.4744C9.59528 23.6746 12.7975 23.9756 15.6161 23.112C15.6378 23.1054 15.6597 23.0986 15.6816 23.0919C21.6204 21.2556 27.5542 19.4376 33.403 17.1285C33.4431 17.1125 33.4829 17.0965 33.5225 17.0805C36.2523 15.8418 39.2125 15.0941 41.7333 12.019C41.7619 11.9789 41.7899 11.9388 41.8174 11.8985C42.8653 10.3479 43.3708 8.24445 42.5192 6.21848C42.5167 6.21287 42.5142 6.20726 42.5117 6.20165C41.647 4.2852 39.8234 3.51134 38.4011 3.11368C38.3968 3.11252 38.3926 3.11136 38.3884 3.11021C36.4618 2.59374 34.5854 2.54289 32.7548 2.57706C32.7473 2.57723 32.7398 2.57741 32.7323 2.57758C30.6586 2.62821 28.6157 2.85504 26.5951 3.18263C26.5742 3.18604 26.5532 3.18947 26.5323 3.19291C24.4225 3.50838 22.0955 4.17336 20.2063 5.47235C20.1836 5.48745 20.1609 5.50266 20.1381 5.51797C18.7239 6.47835 17.5303 7.59668 16.3839 8.72737C15.4363 9.66777 14.5318 10.6282 13.6334 11.58Z" fill="black"/>
<path d="M25.2362 25.1426C25.3491 24.6243 25.2515 24.0824 24.9649 23.6361C24.6783 23.1897 24.2261 22.8756 23.7078 22.7626C23.1895 22.6497 22.6476 22.7473 22.2013 23.0339C21.755 23.3206 21.4408 23.7728 21.3279 24.291C21.3279 24.291 21.3279 24.291 21.3279 24.291C21.2577 24.6133 21.1875 24.9356 21.1172 25.2579C20.3053 28.9888 19.4904 32.7143 18.6932 36.4592C18.6931 36.46 18.6929 36.4607 18.6928 36.4614L18.6899 36.4749C18.2835 38.5881 18.4321 40.7794 18.752 43.1469C18.7599 43.1933 18.7682 43.2434 18.7768 43.2899L18.7813 43.3677C18.7814 43.368 18.7814 43.3683 18.7815 43.3686C18.8666 43.7624 19.5463 44.0375 19.936 44.091C19.936 44.091 19.936 44.091 19.936 44.091C20.0316 43.6504 20.5243 43.3686 20.5607 43.1886C20.5607 43.1884 20.5607 43.1882 20.5607 43.1881L20.5652 43.2659C20.5727 43.2303 20.5806 43.192 20.589 43.1562C21.0675 41.2824 22.2076 39.3248 22.6085 37.278L22.6057 37.2915C22.6058 37.2907 22.606 37.29 22.6062 37.2893C23.3983 33.5678 24.2141 29.8382 25.0256 26.1094C25.0958 25.7871 25.166 25.4649 25.2362 25.1426Z" fill="black"/>
<path d="M21.854 22.946C21.6099 23.1843 21.4703 23.5097 21.4661 23.8509C21.462 24.192 21.5934 24.5208 21.8317 24.7649C22.0699 25.0091 22.3954 25.1486 22.7365 25.1528C23.0776 25.157 23.4064 25.0255 23.6506 24.7873C23.6506 24.7873 23.6506 24.7873 23.6506 24.7873C24.0275 24.4156 24.1622 24.3226 24.4987 24.1905C24.8214 24.07 25.2562 23.9932 25.7154 23.9523C26.0005 23.9266 26.2986 23.9133 26.6008 23.9084C26.6098 23.9083 26.6189 23.9082 26.6281 23.908C29.4778 23.9264 32.6767 24.2619 35.3048 24.9811C35.3097 24.9826 35.3146 24.9842 35.3195 24.9858C35.4699 25.0341 35.6113 25.0879 35.7034 25.1325C35.793 25.1628 35.8381 25.2569 35.6697 25.0516C35.5866 24.9496 35.4871 24.6611 35.5199 24.4498C35.5465 24.2389 35.6087 24.1629 35.6211 24.1394C35.6522 24.1008 35.5721 24.1963 35.4715 24.2747C35.0324 24.6272 34.3353 25.0216 33.6782 25.3855C33.6619 25.3945 33.6456 25.4035 33.6291 25.4125C30.535 27.0914 27.2755 28.5957 24.0496 30.2048C24.0464 30.2064 24.0431 30.2081 24.0398 30.2097C23.5915 30.4348 23.154 30.6582 22.6979 30.9046C22.4693 31.0288 22.2423 31.1535 21.9872 31.3114C21.8553 31.3953 21.7299 31.4704 21.5304 31.6341C21.4282 31.7326 21.307 31.788 21.0824 32.1708C20.9762 32.3524 20.8393 32.7823 20.9374 33.1907C21.0324 33.5903 21.1981 33.7625 21.2634 33.8502C21.2815 33.8721 21.2997 33.8933 21.3181 33.9138C22.1667 34.7124 22.6023 34.7008 23.1005 34.9099C23.5812 35.0704 24.0323 35.1949 24.482 35.3149C25.3759 35.5511 26.2462 35.7587 27.1197 35.9602C27.1377 35.9643 27.1558 35.9684 27.1739 35.9725C29.7659 36.5325 32.257 36.8201 34.766 36.9795C34.7784 36.9803 34.7907 36.981 34.803 36.9817C37.9202 37.1565 41.0093 37.1083 44.1251 36.9484C44.1298 36.9481 44.1344 36.9479 44.139 36.9476C45.9841 36.8455 47.835 36.1687 49.6662 35.7975C49.6667 35.7974 49.6671 35.7973 49.6676 35.7973C49.9584 35.7398 50.2472 35.6775 50.5346 35.6107C51.5963 35.3647 52.629 35.0586 53.6414 34.7576C53.8608 34.6924 54.0452 34.5428 54.1542 34.3416C54.2633 34.1405 54.2879 33.9042 54.2227 33.6849C54.1576 33.4655 54.0079 33.2811 53.8068 33.1721C53.6056 33.063 53.3694 33.0384 53.15 33.1036C53.15 33.1036 53.15 33.1036 53.15 33.1036C52.1369 33.4049 51.1418 33.6989 50.1443 33.93C49.8741 33.9927 49.6042 34.051 49.3334 34.1044C49.333 34.1045 49.3326 34.1046 49.3322 34.1047C47.6137 34.45 45.8381 33.9666 44.0692 33.9524C44.0647 33.9523 44.0603 33.9523 44.0559 33.9522C41.0469 33.9163 38.002 33.7523 35.0012 33.5836C34.9893 33.5829 34.9774 33.5822 34.9655 33.5815C32.523 33.4318 30.0491 33.3995 27.762 33.0267C27.7463 33.024 27.7306 33.0214 27.7149 33.0187C26.8403 32.8652 25.9697 32.7206 25.1311 32.5519C24.7121 32.467 24.3006 32.3756 23.9322 32.2699C23.7503 32.2177 23.5759 32.1597 23.4464 32.1058C23.3212 32.0628 23.219 31.9647 23.3478 32.089C23.3534 32.0953 23.3593 32.1022 23.3654 32.1097C23.392 32.1505 23.521 32.2706 23.6029 32.61C23.687 32.9583 23.5663 33.3247 23.4891 33.4532C23.3243 33.728 23.2952 33.6999 23.2857 33.719C23.277 33.724 23.3544 33.6674 23.4308 33.6201C23.5915 33.5191 23.7933 33.4057 23.9959 33.2952C24.4066 33.072 24.8323 32.8533 25.2668 32.6304C25.2699 32.6287 25.2731 32.6271 25.2763 32.6255C28.4501 31.0049 31.6699 29.4208 34.8757 27.6808C34.893 27.6713 34.9102 27.6618 34.9273 27.6524C35.6353 27.253 36.3238 26.8962 37.1091 26.279C37.3089 26.1101 37.5259 25.9357 37.7754 25.574C37.8962 25.3871 38.0454 25.1317 38.0934 24.7253C38.1493 24.3189 37.9891 23.8318 37.792 23.57C37.3946 23.0476 37.0833 22.9405 36.8259 22.8003C36.566 22.6762 36.3356 22.5946 36.1145 22.5227C36.1075 22.5204 36.1004 22.5181 36.0933 22.5158C32.8152 21.634 29.8538 21.3764 26.5918 21.3357C26.5812 21.3359 26.5706 21.3361 26.56 21.3362C26.2085 21.3419 25.8506 21.3572 25.4845 21.3901C24.8936 21.446 24.2744 21.5339 23.6044 21.7784C22.9378 21.9979 22.2139 22.5637 21.854 22.946Z" fill="black"/>
<path d="M46.0427 21.9676C46.3329 21.6329 46.4783 21.1965 46.4468 20.7546C46.4153 20.3126 46.2095 19.9013 45.8748 19.6111C45.54 19.3208 45.1036 19.1755 44.6617 19.207C44.2197 19.2385 43.8084 19.4442 43.5182 19.779C43.5182 19.779 43.5182 19.779 43.5182 19.779C43.089 20.2741 42.6696 20.777 42.2592 21.2944C40.7441 23.2429 39.2668 25.2871 38.4169 27.9518C38.4134 27.9634 38.41 27.9749 38.4066 27.9864C38.0907 29.0611 37.8746 30.2362 38.1259 31.4864C38.1323 31.517 38.139 31.5477 38.146 31.5785C38.2676 32.137 38.5786 32.879 39.1537 33.4188C39.7223 33.9616 40.3685 34.2137 40.898 34.3526C40.9186 34.358 40.9393 34.3632 40.9599 34.3684C44.2139 35.0935 46.9701 33.8585 49.2644 32.4623C49.2798 32.4526 49.2951 32.4429 49.3104 32.4331C50.4677 31.7362 51.4221 30.4071 51.7132 29.0888C51.7183 29.0678 51.7234 29.0467 51.7284 29.0256C52.4392 25.6078 50.3151 23.1414 48.6868 21.4264L48.6651 21.4048C48.6617 21.4014 48.6582 21.3981 48.6548 21.3947C47.5669 20.3282 46.2901 19.4874 45.1608 18.6101C45.1599 18.6094 45.1589 18.6087 45.158 18.608C45.1025 18.5646 45.0437 18.5272 44.9811 18.4934C44.4457 18.2053 43.6624 18.2149 43.0512 17.7373C43.0512 17.7373 43.0512 17.7373 43.0512 17.7373C42.9288 18.4307 42.9029 19.4738 43.235 20.1048C43.2728 20.1798 43.3147 20.2497 43.363 20.3155C43.3638 20.3165 43.3646 20.3176 43.3654 20.3187C44.3154 21.5937 45.2473 22.7757 46.2954 23.8046C46.2987 23.8078 46.302 23.811 46.3053 23.8142L46.2836 23.7926C47.7559 25.2558 48.849 27.0098 48.4911 28.2647C48.4888 28.2743 48.4865 28.2839 48.4842 28.2934C48.3318 28.8891 48.0488 29.266 47.5273 29.5899C47.5151 29.5974 47.5029 29.6049 47.4906 29.6124C45.6578 30.735 43.4291 31.4061 41.8297 30.964C41.8193 30.9612 41.8089 30.9584 41.7986 30.9555C41.6164 30.9061 41.5635 30.8503 41.5976 30.8775C41.6334 30.9061 41.6252 30.9457 41.5855 30.7866C41.5836 30.7786 41.5817 30.7702 41.5798 30.7614C41.4658 30.2483 41.4172 29.58 41.61 28.9359C41.612 28.9291 41.6141 28.9222 41.6162 28.9153C42.1946 27.0474 43.4864 25.1336 44.877 23.3706C45.2533 22.8962 45.642 22.4299 46.0427 21.9676Z" fill="black"/>
<path d="M54.6259 22.3336C54.4587 22.5176 54.3716 22.7604 54.3835 23.0087C54.3955 23.257 54.5056 23.4904 54.6896 23.6575C54.8736 23.8246 55.1165 23.9118 55.3647 23.8999C55.613 23.8879 55.8464 23.7778 56.0135 23.5938C56.0135 23.5938 56.0135 23.5938 56.0135 23.5938C56.2441 23.34 56.4754 23.0914 56.7101 22.8486C57.0134 22.5351 57.3227 22.2295 57.6323 21.9557C57.787 21.8191 57.9428 21.69 58.0894 21.5835C58.2269 21.4789 58.4046 21.3877 58.3914 21.3981C58.3852 21.3998 58.3687 21.4049 58.3332 21.409C58.3096 21.4336 57.9884 21.3659 57.8859 21.214C57.7862 21.0841 57.815 21.0931 57.8073 21.1481C57.806 21.2663 57.7697 21.5051 57.7076 21.7358C57.5831 22.2082 57.3792 22.7195 57.1628 23.2219C56.7253 24.2354 56.2212 25.2518 55.8605 26.353C55.8438 26.4039 55.827 26.4559 55.8104 26.5083C55.2691 28.212 54.71 29.9548 54.2139 31.7891C54.2075 31.8132 54.2012 31.8371 54.1949 31.8608C53.9462 32.8049 54.3786 33.9729 54.2789 34.9346C54.2779 34.9431 54.2769 34.9515 54.2758 34.9599C54.2492 35.1666 54.2249 35.3738 54.2028 35.5804C54.1647 35.9357 54.1333 36.289 54.1025 36.6372C54.0864 36.8195 54.1434 37.0008 54.2609 37.1412C54.3784 37.2815 54.5469 37.3694 54.7293 37.3855C54.9116 37.4016 55.0929 37.3447 55.2332 37.2271C55.3735 37.1096 55.4614 36.9411 55.4776 36.7588C55.4776 36.7588 55.4776 36.7588 55.4776 36.7588C55.5083 36.4104 55.5389 36.0673 55.5754 35.7273C55.5965 35.5296 55.6196 35.3326 55.6449 35.1362C55.6459 35.1282 55.647 35.1202 55.6481 35.1122C55.7703 34.2083 56.6945 33.5567 56.9872 32.7067C56.9947 32.6853 57.0022 32.6636 57.0097 32.6418C57.5975 30.974 58.2985 29.268 58.8684 27.4775C58.886 27.4217 58.9033 27.3659 58.9198 27.3107C59.2422 26.2312 59.4547 25.0723 59.6102 23.8755C59.6859 23.2755 59.7537 22.6681 59.7816 22.0074C59.7912 21.6707 59.805 21.336 59.7311 20.8856C59.6846 20.6641 59.6402 20.3773 59.3621 20.0236C59.0839 19.6403 58.4537 19.4829 58.146 19.5428C58.038 19.5541 57.9473 19.5753 57.8693 19.5978C56.4681 20.2121 56.0832 20.8739 55.3623 21.5458C55.1107 21.8061 54.867 22.0681 54.6259 22.3336Z" fill="black"/>
<path d="M59.4008 18.2272C59.1244 18.158 58.8318 18.2014 58.5873 18.3479C58.3429 18.4944 58.1667 18.732 58.0974 19.0084C58.0282 19.2849 58.0716 19.5775 58.2181 19.8219C58.3646 20.0664 58.6022 20.2426 58.8786 20.3118C58.8786 20.3118 58.8786 20.3118 58.8786 20.3118C59.6101 20.4951 60.3365 20.6931 61.0561 20.9083C63.1864 21.5468 65.2664 22.3333 67.1904 23.3619C67.1956 23.3647 67.2009 23.3675 67.2061 23.3704C68.9837 24.3152 70.4327 25.932 70.9475 27.5751C70.9479 27.5788 70.9481 27.5822 70.9482 27.5852C70.9285 27.6624 70.9075 27.5322 70.7863 27.6702C70.6596 27.787 70.4046 27.9872 70.1188 28.2012C70.1 28.2154 70.0809 28.2299 70.0613 28.2447C68.3498 29.4708 65.6708 30.2955 63.2012 31.0906C63.174 31.0991 63.1467 31.1077 63.1193 31.1162C58.4606 32.546 53.8246 34.7102 48.9711 35.6884C48.964 35.6899 48.9569 35.6913 48.9498 35.6927C48.2726 35.828 47.6019 35.9622 46.9273 36.0973C46.1735 36.2486 45.4213 36.398 44.6685 36.5533C44.6685 36.5533 44.6685 36.5533 44.6685 36.5533C45.4213 36.398 46.1735 36.2486 46.9273 36.0973C47.6019 35.9622 48.2726 35.828 48.9498 35.6927C48.9569 35.6913 48.964 35.6899 48.9711 35.6884C53.8303 34.7152 58.92 34.9537 63.8553 33.8909C63.8845 33.8845 63.9135 33.878 63.9425 33.8716C66.6233 33.215 69.2845 32.6849 72.0028 30.8082C72.0357 30.7833 72.0679 30.7581 72.0996 30.7328C72.5443 30.3714 72.9833 29.9307 73.352 29.255C73.7331 28.6148 73.9058 27.4756 73.5535 26.6718C73.5416 26.6406 73.5291 26.6098 73.5163 26.5792C72.3718 24.0956 70.2999 22.6106 68.2221 21.4767C68.2164 21.4736 68.2107 21.4705 68.205 21.4675C66.109 20.3476 63.9031 19.5187 61.672 18.8494C60.9185 18.624 60.161 18.4177 59.4008 18.2272Z" fill="black"/>
<path d="M72.6504 20.2149C72.4305 20.3144 72.2593 20.4972 72.1742 20.723C72.0892 20.9488 72.0973 21.1991 72.1968 21.4189C72.2964 21.6387 72.4791 21.81 72.7049 21.8951C72.9308 21.9801 73.1811 21.972 73.4009 21.8725C73.4009 21.8725 73.4009 21.8725 73.4009 21.8725C74.2395 21.494 75.0755 21.1095 75.8894 20.795C76.1779 20.6847 76.4746 20.5809 76.7102 20.5266C76.7405 20.5197 76.7698 20.5152 76.7945 20.5138C76.8538 20.5091 76.9047 20.5258 76.8683 20.5434C76.8519 20.5639 76.604 20.5529 76.4126 20.3332C76.2417 20.1225 76.2493 20.0323 76.2199 20.0399C76.1976 20.0426 76.1729 20.1008 76.1461 20.172C76.1325 20.209 76.1172 20.2502 76.1004 20.2947C75.7836 21.1109 75.2681 22.0485 75.0014 23.0071C74.9833 23.071 74.966 23.1321 74.9478 23.1965C74.4406 24.9994 73.9371 26.7914 73.5136 28.673C73.4949 28.7579 73.476 28.8455 73.4581 28.9305C73.3005 29.8158 73.0501 30.5998 73.2122 31.9691C73.2366 32.1198 73.2781 32.276 73.3315 32.4216C73.5229 32.9586 73.9448 33.543 74.5321 33.93C74.7059 34.0465 74.8926 34.1408 75.0806 34.2103C76.1455 34.5594 76.7209 34.1797 77.1528 33.9848C77.5881 33.7508 77.922 33.4933 78.2392 33.2347C78.8661 32.7154 79.403 32.1823 79.9488 31.6627C80.0482 31.5676 80.1464 31.4724 80.2451 31.3757C81.7398 29.9132 82.9766 28.2695 84.1939 26.661C84.3032 26.5167 84.4129 26.3726 84.5227 26.2293C85.9491 24.3675 87.1125 22.2702 87.8443 19.9996C87.9095 19.8006 87.9774 19.5875 88.0395 19.4253C88.0518 19.3924 88.1 19.2887 88.0509 19.4359C88.0308 19.4772 88.0447 19.4736 87.9507 19.6187C87.9107 19.6748 87.8569 19.7502 87.7365 19.8514C87.6188 19.947 87.4052 20.0932 87.0629 20.1193C86.2764 20.1341 86.0143 19.6288 85.9305 19.4868C85.7686 19.1137 85.8322 19.1874 85.8099 19.1257C85.804 19.0904 85.8017 19.0707 85.7999 19.0576C85.7942 19.0225 85.7913 19.0397 85.7867 19.0516C85.7688 19.12 85.7422 19.2472 85.7142 19.3571C85.6572 19.5902 85.5903 19.8345 85.5199 20.0769C85.3786 20.5639 85.2215 21.0532 85.0659 21.5413C84.7541 22.5149 84.4494 23.4909 84.2457 24.4389C84.2364 24.4822 84.2273 24.526 84.2184 24.5703C83.7962 26.7137 83.4616 28.7985 83.1636 30.9401L83.1549 31.0145C83.1523 31.0409 83.1498 31.0673 83.1473 31.0935C83.0604 32.0587 83.158 33.0585 83.4584 34.1647C83.6414 34.8022 83.9035 35.5453 84.4532 36.213L84.629 36.429C84.6476 36.4442 84.6662 36.4591 84.685 36.4736C85.3328 36.958 85.9484 36.8581 86.3329 36.8371C86.5008 36.825 86.6861 36.7318 86.8383 36.6109C86.991 36.488 87.0981 36.3474 87.1458 36.1871C87.1935 36.0267 87.1807 35.8504 87.12 35.6641C87.0587 35.4796 86.9544 35.3002 86.8204 35.1983C86.8204 35.1983 86.8204 35.1983 86.8204 35.1983C86.4847 34.9619 86.3427 34.6445 86.4295 34.6043C86.4312 34.6029 86.433 34.6015 86.4348 34.6002L86.6106 34.8162C86.5786 34.5867 86.617 34.2555 86.6931 33.842C86.8246 33.1349 87.05 32.3171 87.1291 31.474C87.1313 31.4509 87.1336 31.4277 87.1359 31.4043L87.1272 31.4788C87.4107 29.4356 87.7376 27.3417 88.113 25.3334C88.1209 25.2923 88.1284 25.2517 88.1357 25.2117C88.3308 24.1362 88.3486 23.071 88.3271 22.0017C88.3157 21.4662 88.2932 20.9326 88.2705 20.3941C88.2589 20.1247 88.2476 19.8556 88.2351 19.5727C88.2282 19.4324 88.2228 19.2935 88.2115 19.1057C88.2081 19.0653 88.2057 18.9979 88.1965 18.9095C88.1934 18.8764 88.1894 18.8392 88.1814 18.7893C88.1568 18.7136 88.2196 18.7741 88.0488 18.3814C87.9611 18.2322 87.6952 17.7232 86.903 17.7382C86.5579 17.7644 86.3413 17.9121 86.2204 18.0102C86.0969 18.114 86.0398 18.1933 85.9962 18.2544C85.892 18.4151 85.9029 18.4187 85.8754 18.476C85.7767 18.7452 85.7979 18.7554 85.7741 18.8638C85.7418 19.0889 85.7201 19.269 85.6871 19.4607C85.3412 21.5446 84.6073 23.6135 83.3429 25.3472C83.238 25.4909 83.1319 25.634 83.0247 25.7754C81.8316 27.3535 80.5054 28.8055 79.0242 30.0203C78.9227 30.1039 78.8222 30.1857 78.7211 30.267C78.1695 30.7097 77.5847 31.11 77.0047 31.4131C76.7176 31.5624 76.4253 31.6874 76.191 31.743C75.9664 31.8227 75.7717 31.6857 76.1463 31.7495C76.149 31.7388 76.1594 31.7319 76.1712 31.7279C76.2141 31.7137 76.2849 31.6825 76.2953 31.5754C76.2984 31.5449 76.3004 31.5204 76.2968 31.4902C76.2489 31.1981 76.3927 30.3308 76.5567 29.5901C76.5731 29.5137 76.5905 29.4342 76.6077 29.3563C77.001 27.6061 77.4746 25.8052 77.9463 24.0185C77.9633 23.9544 77.9794 23.8935 77.9964 23.8298C78.248 22.8563 78.3233 21.8811 78.4111 20.7377C78.4151 20.6739 78.4192 20.6078 78.423 20.5363C78.4297 20.3956 78.432 20.2405 78.4091 20.0289C78.3779 19.8247 78.358 19.5092 78.0596 19.1233C77.7413 18.7258 77.2707 18.639 77.044 18.6418C76.7921 18.6405 76.6307 18.6811 76.4773 18.7132C76.4181 18.7265 76.36 18.7401 76.3051 18.7527C75.8962 18.8492 75.5692 18.971 75.2389 19.0956C74.333 19.4463 73.4927 19.8353 72.6504 20.2149Z" fill="black"/>
<path d="M94.9207 23.6182C95.223 23.853 95.6061 23.958 95.9859 23.9103C96.3656 23.8625 96.7109 23.6659 96.9456 23.3636C97.1804 23.0613 97.2855 22.6781 97.2377 22.2984C97.19 21.9186 96.9933 21.5734 96.6911 21.3386C96.6911 21.3386 96.6911 21.3386 96.6911 21.3386C96.295 21.0568 95.6797 20.4417 94.5237 20.3615C94.0313 20.3364 93.5577 20.4616 93.1972 20.6268C93.1938 20.6283 93.1904 20.6299 93.187 20.6314C90.0855 22.1828 88.7995 24.973 87.5845 27.1991C87.5621 27.2436 87.5403 27.2878 87.5189 27.3325C86.9982 28.4078 86.7113 29.6147 86.698 30.7648C86.6969 30.8391 86.6972 30.9155 86.6991 30.9943C86.7103 31.5592 86.8181 32.339 87.2274 33.0587C87.631 33.7806 88.2273 34.2778 88.7438 34.5968C88.8258 34.6478 88.9082 34.6959 88.9886 34.7405C90.8132 35.6737 92.3717 35.7655 93.9977 35.7972C94.0485 35.7972 94.0994 35.7969 94.1501 35.7964C96.1229 35.774 97.8884 34.8475 99.6269 34.4593C99.648 34.4546 99.6691 34.4499 99.6902 34.4453C100.993 34.1635 102.255 33.7832 103.491 33.3817C103.982 33.222 104.469 33.0589 104.954 32.8967C105.177 32.8221 105.361 32.662 105.466 32.4517C105.571 32.2413 105.588 31.9979 105.513 31.775C105.439 31.5521 105.279 31.3679 105.068 31.2631C104.858 31.1582 104.615 31.1412 104.392 31.2157C104.392 31.2157 104.392 31.2157 104.392 31.2157C103.907 31.378 103.424 31.5395 102.943 31.6959C101.732 32.0896 100.528 32.4507 99.3151 32.7129C99.2954 32.7172 99.2757 32.7213 99.256 32.7253C97.5941 33.0636 95.868 32.5225 94.3639 32.2892C94.3241 32.2831 94.2843 32.2769 94.2447 32.2706C93.0079 32.0738 91.6496 31.6899 90.9062 31.2838C90.8779 31.2682 90.852 31.2529 90.8299 31.2391C90.6741 31.1421 90.6579 31.0956 90.6732 31.1215C90.6885 31.1482 90.6568 31.1213 90.6508 30.8965C90.6501 30.8672 90.6497 30.8354 90.6496 30.8011C90.6493 30.0972 90.7135 29.4432 90.9362 28.816C90.9455 28.7901 90.9549 28.7643 90.9646 28.7383C91.8605 26.4105 92.735 24.0174 94.3802 23.2595C94.382 23.2587 94.3837 23.2579 94.3854 23.2571C94.441 23.2331 94.4251 23.2472 94.3906 23.2447C94.2805 23.2132 94.5192 23.2843 94.9207 23.6182Z" fill="black"/>
<path d="M97.8137 15.7789C97.5197 16.0304 97.3376 16.3884 97.3076 16.7742C97.2775 17.1599 97.4019 17.5418 97.6534 17.8358C97.9048 18.1298 98.2628 18.3119 98.6486 18.342C99.0343 18.372 99.4162 18.2476 99.7102 17.9962C100.063 17.6943 100.404 17.4029 100.745 17.1282C102.069 16.043 103.492 15.2309 105.092 14.5865C105.105 14.5812 105.118 14.5759 105.131 14.5707C108.287 13.3358 111.735 12.335 115.157 11.4354C115.167 11.4327 115.178 11.4301 115.188 11.4274C117.403 10.8547 119.51 9.46536 121.828 9.19696C121.832 9.19651 121.836 9.19606 121.839 9.19561C122.431 9.12643 123.02 9.06224 123.613 9.00661C124.075 8.96301 124.537 8.92578 125 8.88965C125 8.88965 125 8.88965 125 8.88965C124.537 8.92578 124.075 8.96301 123.613 9.00661C123.02 9.06224 122.431 9.12643 121.839 9.19561C121.836 9.19606 121.832 9.1965 121.828 9.19694C119.535 9.4549 117.057 8.85279 114.729 9.23168C114.718 9.23343 114.708 9.23518 114.697 9.23693C111.121 9.83872 107.563 10.4921 104.04 11.8649C104.025 11.8708 104.01 11.8768 103.996 11.8828C102.203 12.5975 100.414 13.6197 98.9129 14.8575C98.5309 15.1656 98.1664 15.4773 97.8137 15.7789Z" fill="black"/>
<path d="M111.726 18.0238C111.828 17.5435 111.734 17.0425 111.466 16.6311C111.199 16.2196 110.779 15.9314 110.298 15.8297C109.818 15.7281 109.317 15.8214 108.906 16.0892C108.494 16.357 108.206 16.7772 108.104 17.2575C108.104 17.2575 108.104 17.2575 108.104 17.2575C108.019 17.6593 107.934 18.0621 107.849 18.4659C107.167 21.7103 106.513 25.0334 106.206 28.4495C106.206 28.4515 106.206 28.4535 106.206 28.4555C105.899 31.8632 106.706 35.2201 106.712 38.4654C106.711 38.4657 106.711 38.466 106.711 38.4663C106.706 39.2522 106.691 40.043 106.62 40.7706C106.583 41.148 106.528 41.4709 106.442 41.8698C106.383 42.1548 106.438 42.4519 106.598 42.6958C106.757 42.9396 107.007 43.1102 107.292 43.17C107.577 43.2298 107.874 43.174 108.117 43.0148C108.361 42.8555 108.532 42.606 108.592 42.321C108.592 42.321 108.592 42.321 108.592 42.321C108.68 41.9175 108.764 41.43 108.806 40.9889C108.889 40.1195 108.901 39.2974 108.908 38.4779C108.908 38.4776 108.908 38.4773 108.908 38.477C108.9 35.1568 109.606 31.927 109.893 28.787C109.893 28.7852 109.893 28.7834 109.893 28.7815C110.177 25.6155 110.795 22.4429 111.472 19.2268C111.556 18.8266 111.641 18.4256 111.726 18.0238Z" fill="black"/>
</svg>
