<svg width="237" height="86" viewBox="0 0 237 86" fill="none" xmlns="http://www.w3.org/2000/svg">
<path d="M132.393 18.9948C132.018 19.0891 131.696 19.3286 131.497 19.6607C131.299 19.9927 131.24 20.39 131.334 20.7653C131.429 21.1405 131.668 21.4629 132 21.6615C132.332 21.8601 132.73 21.9187 133.105 21.8244C133.105 21.8244 133.105 21.8244 133.105 21.8244C134.623 21.3709 136.31 21.2698 136.258 21.5618C136.261 21.5661 136.265 21.5708 136.269 21.5761C136.893 22.5156 136.716 25.4121 136.594 27.6177C136.581 27.8374 136.569 28.0581 136.557 28.281C136.556 28.2916 136.556 28.3022 136.555 28.3128C136.316 32.6059 135.944 36.9276 135.662 41.2606C135.66 41.2943 135.658 41.3281 135.655 41.3618C135.424 46.4487 134.761 50.9304 135.431 56.7738C135.468 56.9094 135.515 57.061 135.607 57.2577C135.831 57.8131 136.542 58.3551 137.09 58.4396C137.642 58.551 138.018 58.4629 138.317 58.3807C138.908 58.1977 139.265 57.9484 139.608 57.7129C139.69 57.6545 139.769 57.5956 139.846 57.535C142.66 55.2312 144.041 52.1982 145.237 49.2939C145.272 49.2077 145.306 49.1216 145.339 49.0357C146.751 45.3393 147.144 41.6178 147.736 38.0032C147.755 37.8824 147.774 37.7611 147.792 37.6393C148.259 34.6452 148.515 31.6326 148.802 28.6349C148.817 28.4788 148.832 28.3261 148.847 28.1698C149.256 23.5738 149.805 19.0976 149.788 14.3209C149.783 14.2085 149.778 14.1016 149.765 13.9688C149.76 13.9135 149.751 13.8291 149.739 13.7542C149.71 13.6429 149.752 13.6216 149.576 13.2463C149.481 13.0953 149.479 13.009 149.153 12.7189C149.046 12.6236 148.639 12.3649 148.161 12.437C147.718 12.4887 147.405 12.8014 147.335 12.8889C147.105 13.1716 147.082 13.2857 147.019 13.4273C146.973 13.5434 146.942 13.6427 146.914 13.7408C146.813 14.1106 146.767 14.3867 146.717 14.6903C146.625 15.2735 146.563 15.8334 146.506 16.3908C146.395 17.5059 146.312 18.5999 146.235 19.6989C146.084 21.888 145.968 24.0709 145.865 26.2359C145.859 26.3533 145.854 26.4694 145.849 26.587C145.673 29.8461 145.913 33.2449 146.442 36.4516C146.455 36.5333 146.468 36.6155 146.481 36.6983C147.295 41.5113 148.376 46.1765 149.638 50.8708C149.647 50.906 149.657 50.941 149.667 50.9757C149.892 51.7859 150.16 52.5908 150.487 53.4072C150.652 53.8148 150.829 54.2289 151.057 54.6678C151.3 55.0909 151.529 55.6455 152.285 56.1774C152.324 56.2033 152.363 56.2274 152.406 56.2528C152.828 56.5636 153.853 56.6209 154.326 56.2793C154.815 55.9827 155.004 55.6792 155.213 55.4356C155.227 55.4191 155.24 55.4026 155.254 55.3863C159.285 49.4916 158.863 42.948 159.677 36.8045C159.678 36.7981 159.678 36.7916 159.679 36.7851C160.009 33.5099 159.958 30.2419 160.158 27.0163C160.16 26.9774 160.163 26.9384 160.165 26.8994C160.369 23.6326 160.723 20.3904 161.32 17.1917C161.334 17.1207 161.347 17.0494 161.361 16.978C161.974 13.8513 163.137 10.8242 163.959 7.76098C163.986 7.66221 164.014 7.55917 164.04 7.46357C164.045 7.44471 164.049 7.43479 164.048 7.44046C164.048 7.44346 164.045 7.45649 164.033 7.48757C163.997 7.5314 164.097 7.50523 163.755 7.92196C163.704 7.97474 163.638 8.03586 163.544 8.10077C163.492 8.14633 163.087 8.37965 162.675 8.33849C162.245 8.31429 161.907 8.07201 161.756 7.90284C161.601 7.73852 161.524 7.56047 161.517 7.54674C161.451 7.40163 161.437 7.3282 161.424 7.27439C161.402 7.16375 161.407 7.17174 161.404 7.15222C161.401 7.12678 161.402 7.13983 161.401 7.15123C161.399 7.21401 161.394 7.32523 161.387 7.43853C161.373 7.66409 161.354 7.89346 161.334 8.13369C161.295 8.6079 161.25 9.09334 161.206 9.57584C161.116 10.5433 161.025 11.5128 160.933 12.4883C160.749 14.4282 160.565 16.3812 160.369 18.327C160.357 18.4548 160.344 18.5821 160.332 18.7094C159.988 22.2976 159.836 25.8841 159.845 29.3724C159.845 29.4619 159.845 29.5513 159.846 29.6405C159.891 35.8392 160.245 42.0647 161.263 48.2571L161.346 48.5837C161.354 48.6085 161.363 48.6333 161.371 48.6581C162.26 51.2175 163.421 53.6866 164.807 56.0369C166.772 59.1255 168.519 62.2431 172.136 64.4264C172.137 64.4269 172.139 64.4274 172.14 64.4279L172.187 64.447C172.737 64.6196 173.477 64.2799 173.95 64.002C173.398 63.7601 173.119 63.2123 172.714 63.0204L172.761 63.0395C172.761 63.0392 172.76 63.0389 172.76 63.0386C170.526 61.2003 169.037 57.6369 167.769 54.5721C166.818 52.192 165.992 49.7705 165.15 47.3465C165.142 47.3231 165.134 47.2996 165.126 47.2761L165.209 47.6026C164.237 41.6987 163.833 35.6513 163.736 29.5992C163.735 29.512 163.733 29.4247 163.732 29.3373C163.67 25.8049 163.371 22.3606 163.54 18.94C163.545 18.8188 163.552 18.6976 163.558 18.5761C163.667 16.6266 163.795 14.6714 163.918 12.7232C163.98 11.7431 164.04 10.7685 164.093 9.78647C164.119 9.29606 164.144 8.80204 164.164 8.30407C164.173 8.05017 164.181 7.80873 164.185 7.53893C164.187 7.39594 164.188 7.27503 164.182 7.08807C164.18 7.0418 164.178 6.99288 164.17 6.90428C164.164 6.8552 164.167 6.84137 164.137 6.69152C164.121 6.62173 164.103 6.53573 164.033 6.38148C164.026 6.36629 163.944 6.17974 163.786 6.01282C163.632 5.84023 163.291 5.59613 162.857 5.57169C162.442 5.53003 162.031 5.76588 161.978 5.8127C161.882 5.8789 161.814 5.94168 161.761 5.9965C161.56 6.21621 161.529 6.32026 161.486 6.40311C161.462 6.45626 161.454 6.479 161.442 6.51009C161.421 6.56605 161.406 6.61717 161.396 6.64977C161.381 6.70469 161.369 6.75422 161.357 6.80518C161.335 6.90604 161.312 7.01399 161.29 7.1172C160.626 10.3002 160.459 13.5538 160.019 16.7578C160.009 16.8311 159.999 16.9041 159.989 16.9768C159.528 20.252 159.287 23.5517 159.085 26.8305C159.083 26.8699 159.08 26.9092 159.078 26.9486C158.877 30.2026 158.645 33.4332 158.196 36.6083C158.195 36.6148 158.194 36.6213 158.193 36.6278C157.232 42.6692 157.002 49.5171 153.578 53.9429C153.568 53.9545 153.557 53.9659 153.546 53.9771C153.43 54.1015 153.261 54.1548 153.302 54.0707C153.322 54.0319 153.437 53.9683 153.568 53.9607C153.699 53.951 153.792 53.9828 153.814 53.9879C153.818 53.9891 153.821 53.9894 153.823 53.9889C153.899 54.0381 153.749 53.8148 153.648 53.4988C153.54 53.1879 153.436 52.8195 153.339 52.4504C153.143 51.7044 152.961 50.9189 152.756 50.1407C152.747 50.1073 152.738 50.0736 152.729 50.0396C151.564 45.4791 150.56 40.7871 149.779 36.1598C149.766 36.0805 149.753 36.0019 149.741 35.9238C149.231 32.8169 148.951 29.8123 149.024 26.6763C149.026 26.5624 149.027 26.4496 149.029 26.3352C149.062 24.1447 149.035 21.9615 149.032 19.7944C149.031 18.7082 149.034 17.6296 149.068 16.5637C149.085 16.0337 149.11 15.502 149.157 15.0087C149.181 14.76 149.211 14.5216 149.247 14.3527C149.256 14.3116 149.264 14.2808 149.264 14.275C149.256 14.2757 149.282 14.2767 149.142 14.451C149.103 14.4987 148.866 14.7506 148.482 14.7985C148.286 14.8262 148.081 14.7914 147.936 14.7322C147.774 14.664 147.733 14.6249 147.673 14.5798C147.464 14.3908 147.513 14.3928 147.501 14.3848C147.364 14.0876 147.425 14.1673 147.415 14.1582C147.418 14.1668 147.424 14.2029 147.428 14.2321C147.439 14.3027 147.448 14.3831 147.455 14.47C147.681 18.8378 147.468 23.4892 147.081 28.0065C147.067 28.161 147.053 28.3117 147.038 28.4659C146.754 31.427 146.244 34.3574 145.655 37.2566C145.63 37.3784 145.605 37.4996 145.581 37.6202C144.843 41.2253 144.281 44.8822 142.903 48.0217C142.868 48.1009 142.832 48.1803 142.797 48.2596C141.584 50.9292 140.055 53.5648 137.973 55.0341C137.93 55.0634 137.889 55.0901 137.849 55.1147C137.692 55.2152 137.514 55.2635 137.518 55.2335C137.527 55.2244 137.594 55.1721 137.85 55.2151C138.103 55.2359 138.552 55.5718 138.655 55.8489C138.686 55.9142 138.683 55.9148 138.679 55.8972C138.272 51.8761 138.782 46.3985 139.052 41.5843C139.054 41.5507 139.056 41.5171 139.059 41.4834C139.34 37.1603 139.607 32.8284 139.768 28.4568C139.768 28.4459 139.768 28.4351 139.769 28.4243C139.777 28.1971 139.784 27.971 139.789 27.745C139.684 25.2722 140.35 23.0856 138.588 19.8056C138.562 19.7716 138.536 19.7378 138.508 19.7045C137.53 18.4901 135.951 18.3852 135.023 18.4784C134.021 18.5695 133.188 18.7993 132.393 18.9948Z" fill="black"/>
<path d="M173.925 19.6772C174.207 19.7414 174.502 19.691 174.747 19.5371C174.992 19.3831 175.166 19.1383 175.23 18.8564C175.294 18.5744 175.244 18.2786 175.09 18.0338C174.936 17.7891 174.691 17.6155 174.409 17.5513C174.409 17.5513 174.409 17.5513 174.409 17.5513C173.667 17.3644 172.188 17.068 171.092 17.9223C171.066 17.9415 171.039 17.9611 171.014 17.9811C170.903 18.0663 170.795 18.1579 170.695 18.2495C167.842 21.408 167.542 24.9566 166.599 28.2018C166.596 28.214 166.593 28.2261 166.59 28.2382C165.777 31.5884 165.916 35.3297 167.751 38.5888C167.758 38.6007 167.765 38.6126 167.772 38.6244C168.352 39.6647 169.558 40.1169 170.315 40.1951C171.118 40.297 171.771 40.2272 172.374 40.1607C172.41 40.1565 172.445 40.1523 172.48 40.148C175.935 39.7176 178.469 37.2406 180.041 34.7314C180.096 34.6443 180.15 34.5564 180.204 34.4677C184.452 27.8334 180.033 20.0455 176.061 15.5572L175.593 15.1583C175.54 15.1272 175.486 15.0972 175.429 15.0672C174.946 14.7869 173.966 15.0376 173.569 15.6104C173.149 16.1684 173.225 16.7136 173.026 16.9232C173.018 16.9319 173.01 16.9402 173.002 16.9481C172.942 17.0035 172.884 17.0611 172.828 17.12C172.167 17.8376 171.661 18.6767 171.129 19.4906C171.661 18.6767 172.167 17.8376 172.828 17.12C172.884 17.0611 172.942 17.0035 173.002 16.9481C173.01 16.9402 173.019 16.9329 173.029 16.9262C173.26 16.7483 173.829 16.948 173.98 17.3718C174.152 17.8038 173.776 18.1913 173.805 18.1831C173.807 18.1843 173.811 18.1864 173.816 18.1897L173.348 17.7908C177.267 22.2823 180.434 28.0576 177.423 32.8006C177.381 32.873 177.337 32.9445 177.294 33.0151C176.03 35.0868 174.152 36.7266 172.083 36.9722C172.053 36.976 172.023 36.9798 171.993 36.9834C171.497 37.0458 171.037 37.0704 170.738 37.0299C170.591 37.0118 170.497 36.977 170.48 36.9677C170.46 36.9547 170.506 36.9951 170.504 37.0031C170.499 36.9949 170.494 36.9868 170.489 36.9786C169.135 34.7028 168.795 31.6687 169.356 28.8541C169.358 28.8416 169.361 28.8292 169.363 28.8168C170.057 25.5668 170.332 21.8122 172.174 19.8547C172.23 19.8015 172.29 19.7504 172.349 19.7046C172.358 19.6976 172.367 19.691 172.376 19.6847C172.67 19.4557 173.069 19.4712 173.925 19.6772Z" fill="black"/>
<path d="M185.724 16.3932C185.399 16.6919 185.205 17.1077 185.185 17.5494C185.166 17.991 185.323 18.4221 185.622 18.748C185.921 19.0738 186.337 19.2677 186.778 19.2869C187.22 19.3061 187.651 19.1491 187.977 18.8504C187.977 18.8504 187.977 18.8504 187.977 18.8504C187.897 18.9108 187.79 19.0489 187.365 19.1542C186.94 19.282 186.278 19.0279 186.113 18.8399C185.735 18.4623 185.837 18.4552 185.816 18.4587C185.832 18.4962 185.878 18.7018 185.903 18.8994C186.159 21.385 185.941 24.3767 185.756 27.1884L185.763 27.1126C185.755 27.1812 185.746 27.2501 185.738 27.3194C185.148 32.1254 185.911 37.2643 185.16 42.1284C185.157 42.1458 185.154 42.1631 185.152 42.1803C184.928 43.6488 184.709 45.1166 184.588 46.5948C184.546 47.1148 184.526 47.635 184.514 48.1558C184.526 47.635 184.546 47.1148 184.588 46.5948C184.709 45.1166 184.928 43.6488 185.152 42.1803C185.154 42.1631 185.157 42.1458 185.16 42.1285C185.934 37.2621 188.434 32.6955 189.047 27.7185C189.056 27.6468 189.065 27.5754 189.073 27.5043L189.08 27.4285C189.26 24.4881 189.528 21.7024 189.205 18.4463C189.159 18.1298 189.116 17.8162 188.964 17.3626C188.854 17.1207 188.857 16.8653 188.283 16.3105C188.024 16.0378 187.223 15.7355 186.672 15.8939C186.117 16.0287 185.906 16.2405 185.724 16.3932Z" fill="black"/>
<path d="M186.756 22.9989C186.544 23.2447 186.439 23.5646 186.463 23.8882C186.487 24.2118 186.639 24.5126 186.885 24.7245C187.13 24.9363 187.45 25.0418 187.774 25.0177C188.098 24.9937 188.398 24.842 188.61 24.5962C188.61 24.5962 188.61 24.5962 188.61 24.5962C189.307 23.7877 190.023 23.0114 190.777 22.3076C192.121 21.0504 193.624 20.0189 195.18 19.821C195.187 19.82 195.194 19.8191 195.201 19.8182C196.283 19.6914 197.896 20.393 198.902 21.1523C198.908 21.157 198.914 21.1617 198.92 21.1663C199.177 21.3721 199.276 21.5371 199.32 21.7082C199.367 21.8808 199.36 22.1702 199.26 22.548C199.257 22.5575 199.254 22.5672 199.252 22.5768C198.408 25.8132 194.758 27.5665 191.155 29.6492C191.111 29.6772 191.066 29.7057 191.023 29.7347C190.576 30.0401 190.038 30.47 189.713 31.24C189.378 32.0169 189.511 32.9145 189.75 33.4697C189.771 33.5233 189.794 33.5763 189.819 33.6286C192.389 37.2704 195.197 37.5912 197.863 38.9999C197.894 39.0134 197.925 39.0269 197.956 39.0404C201.747 40.646 205.538 41.6829 209.222 42.9831C209.238 42.9889 209.255 42.9947 209.271 43.0005C212.102 43.9961 215.372 44.0733 218.124 45.3917C218.128 45.394 218.133 45.3963 218.138 45.3986C218.281 45.4675 218.421 45.5346 218.564 45.6042C219.55 46.0803 220.528 46.5745 221.489 47.0996C221.489 47.0996 221.489 47.0996 221.489 47.0996C220.528 46.5745 219.55 46.0803 218.564 45.6042C218.421 45.5346 218.281 45.4675 218.138 45.3986C218.133 45.3963 218.128 45.394 218.124 45.3917C215.396 44.0751 213.089 41.72 210.259 40.4898C210.243 40.4827 210.226 40.4756 210.21 40.4684C206.53 38.868 202.748 37.5567 199.248 36.0702C199.22 36.058 199.192 36.0458 199.164 36.0337C196.675 34.9155 193.316 33.6086 192.511 32.3514C192.506 32.341 192.501 32.3312 192.496 32.3218C192.433 32.1738 192.46 32.2478 192.418 32.3027C192.378 32.3494 192.429 32.2261 192.617 32.1031C192.634 32.0914 192.653 32.0793 192.672 32.067C195.793 30.1284 200.556 28.2307 201.936 23.2867C201.941 23.2703 201.945 23.2538 201.949 23.2373C202.109 22.601 202.215 21.8044 201.972 20.958C201.735 20.1074 201.134 19.4122 200.548 18.9937C200.537 18.986 200.526 18.9782 200.516 18.9705C198.811 17.8638 197.139 17.2292 194.889 17.3912C194.878 17.3925 194.867 17.3939 194.857 17.3953C192.468 17.7237 190.614 19.1257 189.107 20.5182C188.259 21.311 187.491 22.147 186.756 22.9989Z" fill="black"/>
<path d="M211.553 18.9189C211.644 18.5129 211.57 18.0875 211.347 17.7361C211.124 17.3848 210.771 17.1363 210.365 17.0454C209.959 16.9545 209.533 17.0287 209.182 17.2514C208.831 17.4742 208.582 17.8275 208.491 18.2335C208.491 18.2335 208.491 18.2335 208.491 18.2335C208.407 18.612 208.327 18.9704 208.243 19.3487C207.086 24.612 205.971 29.8793 205.148 35.2608L205.131 35.4644C205.127 35.7631 205.138 36.0859 205.208 36.4596C205.289 36.9124 205.644 37.4612 206.153 37.7643C206.663 38.0749 207.172 38.0828 207.545 38.0677C207.822 38.057 208.056 38.0381 208.276 38.0754C208.795 38.1605 209.288 38.1821 209.774 38.1947C210.163 38.2038 210.546 38.2035 210.925 38.2036C211.087 38.2036 211.242 38.1391 211.357 38.0244C211.472 37.9097 211.536 37.754 211.536 37.5918C211.536 37.4295 211.472 37.2739 211.357 37.1592C211.242 37.0445 211.087 36.98 210.925 36.98C210.546 36.98 210.171 36.9802 209.803 36.9715C209.344 36.9602 208.891 36.9371 208.478 36.8686C208.304 36.8398 208.148 36.7343 208.047 36.5952C207.898 36.4028 207.902 36.1452 208.038 36.0441C208.171 35.9387 208.311 35.9541 208.289 35.866C208.275 35.7986 208.265 35.6715 208.268 35.5206L208.251 35.7242C209.05 30.4969 210.157 25.2497 211.306 20.0271C211.389 19.6513 211.469 19.2951 211.553 18.9189Z" fill="black"/>
<path d="M206.972 29.2425C206.678 29.4503 206.479 29.7663 206.418 30.1209C206.357 30.4756 206.44 30.84 206.647 31.1338C206.855 31.4276 207.171 31.6269 207.526 31.6877C207.88 31.7486 208.245 31.666 208.539 31.4583C209.187 31 209.831 30.5444 210.475 30.1006C212.07 29.0167 213.801 27.8325 215.265 27.4038C215.276 27.4007 215.288 27.3978 215.299 27.3949C215.792 27.2707 216.055 27.4267 216.111 27.5832C216.199 27.7389 216.349 28.1217 216.506 28.6352C216.511 28.6521 216.517 28.669 216.522 28.686C217.489 31.8888 216.944 35.9265 216.912 39.938C216.912 39.9538 216.912 39.9696 216.912 39.9854C216.841 44.814 217.256 49.7833 218.65 54.5664C218.651 54.5696 218.652 54.5728 218.653 54.576L218.713 54.757C219.552 56.7571 222.075 57.4776 223.304 58.741C223.306 58.7431 223.308 58.7453 223.31 58.7474C223.496 58.9422 223.685 59.1319 223.879 59.3179C224.45 59.8694 225.076 60.3616 225.714 60.8327C225.714 60.8327 225.714 60.8327 225.714 60.8327C225.076 60.3616 224.45 59.8694 223.879 59.3179C223.685 59.1319 223.496 58.9422 223.31 58.7474C223.308 58.7453 223.306 58.7431 223.304 58.741C221.971 57.3505 222.39 54.9515 221.887 53.5071L221.947 53.6881C221.946 53.6851 221.945 53.6821 221.945 53.6792C220.866 49.284 220.701 44.6826 220.77 40.0393C220.77 40.0241 220.77 40.0089 220.771 39.9937C220.755 36.0975 221.264 31.9983 219.78 27.5493C219.772 27.5254 219.763 27.5016 219.753 27.4778C219.44 26.6858 218.931 25.7477 217.862 25.0844C216.763 24.4047 215.488 24.5373 214.641 24.7622C214.619 24.7677 214.597 24.7733 214.575 24.7791C212.204 25.517 210.642 26.7394 208.936 27.8656C208.272 28.3226 207.62 28.7842 206.972 29.2425Z" fill="black"/>
<path d="M205.642 28.0834C205.642 28.0834 205.642 28.0834 205.642 28.0834C206.1 27.7719 206.557 27.4603 207.014 27.149C211.451 24.1333 215.895 21.1193 220.505 18.3747C220.509 18.3722 220.514 18.3698 220.518 18.3673C224.462 16.0179 228.555 13.9325 232.676 11.912C233.172 11.6679 233.669 11.4243 234.166 11.1807C234.166 11.1807 234.166 11.1807 234.166 11.1807C233.669 11.4243 233.172 11.6679 232.676 11.912C228.555 13.9325 224.462 16.0179 220.518 18.3673C220.514 18.3698 220.509 18.3722 220.505 18.3747C215.895 21.1193 211.451 24.1333 207.014 27.149C206.557 27.4603 206.1 27.7719 205.642 28.0834Z" fill="black"/>
<path d="M209.69 25.8599C209.661 26.1873 209.763 26.5129 209.973 26.7652C210.184 27.0175 210.486 27.1758 210.813 27.2053C211.141 27.2347 211.466 27.133 211.719 26.9223C211.971 26.7117 212.129 26.4095 212.159 26.0821C212.159 26.0821 212.159 26.0821 212.159 26.0821C212.123 26.1152 212.289 25.7861 212.603 25.4679C212.816 25.2412 213.065 25.0085 213.325 24.7781L213.28 24.8164C213.383 24.7331 213.52 24.6243 213.627 24.5398C219.35 20.0852 225.021 15.4717 231.124 11.539C231.405 11.3611 231.696 11.1722 231.973 10.9898C233.106 10.2447 234.195 9.4393 235.292 8.63812C235.722 8.32454 236.152 8.0116 236.585 7.70508C236.103 7.9274 235.617 8.14342 235.13 8.35622C233.886 8.90038 232.639 9.42445 231.42 10.0152C231.117 10.1615 230.802 10.323 230.505 10.4837C224.049 14.0482 217.909 18.067 212.087 22.5972C211.978 22.6841 211.836 22.7966 211.728 22.8838L211.682 22.9221C211.386 23.1851 211.092 23.4575 210.795 23.7729C210.408 24.2236 209.827 24.7502 209.69 25.8599Z" fill="black"/>
<path d="M12.0743 19.0324C12.0823 18.5228 11.8877 18.0309 11.533 17.6649C11.1784 17.2989 10.6929 17.0887 10.1834 17.0806C9.6738 17.0726 9.1819 17.2672 8.81588 17.6219C8.44985 17.9765 8.23969 18.462 8.23163 18.9715C8.23163 18.9715 8.23163 18.9715 8.23163 18.9715C8.21393 20.0894 8.19624 21.207 8.17808 22.3244C8.05827 29.7779 7.90989 37.2182 7.63009 44.6509C7.62999 44.6535 7.62989 44.6561 7.62979 44.6588C7.31972 52.8948 7.41312 61.1724 7.32 69.4439C7.31996 69.4465 7.31993 69.4492 7.3199 69.4518C7.27393 73.1542 7.92157 76.8874 7.66163 80.5746C7.66148 80.5765 7.66134 80.5784 7.6612 80.5804C7.60984 81.2764 7.55303 81.9706 7.49019 82.665C7.38988 83.7784 7.27228 84.8904 7.15295 86.002C7.27228 84.8904 7.38988 83.7784 7.49019 82.665C7.55303 81.9706 7.60984 81.2764 7.6612 80.5804C7.66134 80.5784 7.66149 80.5765 7.66163 80.5746C7.92312 76.8906 8.93587 73.2466 9.31673 69.5645C9.31699 69.5619 9.31726 69.5592 9.31752 69.5566C10.1601 61.3282 11.1583 53.0877 11.4702 44.8026C11.4703 44.8 11.4704 44.7973 11.4705 44.7947C11.7519 37.3199 11.9008 29.8473 12.0207 22.3868C12.0389 21.2684 12.0566 20.1503 12.0743 19.0324Z" fill="black"/>
<path d="M0.0764531 32.0279C-0.0330331 32.3134 -0.0246184 32.6307 0.0998462 32.91C0.224311 33.1893 0.45463 33.4077 0.740136 33.5172C1.02564 33.6267 1.34295 33.6182 1.62225 33.4938C1.90155 33.3693 2.11997 33.139 2.22946 32.8535C2.22946 32.8535 2.22946 32.8535 2.22946 32.8535C3.20024 30.3225 4.15361 27.8345 5.51493 25.6598C5.63803 25.4632 5.76434 25.2695 5.89409 25.0788C5.90459 25.0634 5.91511 25.048 5.92566 25.0326C7.44222 22.8175 9.52573 20.9936 11.8141 19.4606C11.8341 19.4472 11.8541 19.4339 11.874 19.4205C14.0794 17.9448 16.472 16.7842 18.988 15.9586C19.0046 15.9531 19.0212 15.9477 19.0378 15.9422C21.5175 15.132 24.1071 14.6427 26.6866 14.495C26.691 14.4948 26.6953 14.4946 26.6997 14.4943C28.9279 14.372 31.1703 14.5247 33.0916 15.2173C33.0982 15.2197 33.1049 15.2221 33.1116 15.2246C34.7098 15.8004 35.8127 16.7453 36.2547 18.1212C36.2559 18.1247 36.2571 18.1282 36.2582 18.1317C36.815 19.8525 36.5446 22.1418 35.7381 24.0003C35.7327 24.0128 35.7272 24.0253 35.7218 24.0377C34.8324 26.0791 33.1231 27.8313 31.2063 29.4565C31.1888 29.4714 31.1712 29.4862 31.1537 29.5011C28.9878 31.3384 26.6111 32.9568 24.134 34.4801C24.1148 34.4919 24.0956 34.5036 24.0764 34.5154C21.0403 36.3757 17.8409 37.9561 14.6361 39.4485C14.6226 39.4547 14.6092 39.461 14.5957 39.4672C11.8419 40.7493 9.03113 41.8767 6.1127 43.0651C6.10853 43.0669 6.10438 43.0686 6.10024 43.0703C5.79516 43.1988 5.51347 43.3178 5.15651 43.4918C5.06602 43.537 4.97286 43.5826 4.82872 43.6675C4.74463 43.7225 4.68918 43.7365 4.44831 43.9448C4.39929 43.9906 4.28534 44.0938 4.16234 44.2747C4.09259 44.3783 3.97395 44.575 3.90761 44.8538C3.82149 45.1168 3.85068 45.7645 4.10138 46.1401C4.31061 46.4993 4.61708 46.7027 4.75569 46.7781C4.8997 46.8578 5.01458 46.8988 5.10901 46.9278C5.2603 46.9727 5.35708 46.9852 5.42689 46.9943C5.68831 47.0207 5.74827 47.0073 5.84124 47.0051C5.92148 47.0005 5.98419 46.9945 6.04064 46.9886C6.15372 46.9766 6.24738 46.9636 6.33629 46.951C6.44761 46.935 6.55131 46.9187 6.65338 46.9022C8.96663 46.5351 11.3037 46.1169 13.4166 46.0829C13.488 46.0824 13.562 46.0828 13.6319 46.0839C15.0365 46.1147 17.3335 47.3521 19.3081 48.1955C19.3742 48.2249 19.4411 48.2547 19.5088 48.2849C25.8206 51.1356 32.1337 54.2087 38.6228 56.965C38.6708 56.9853 38.7187 57.0055 38.7665 57.0257C43.6883 59.1147 48.8356 60.8746 54.0617 62.0902C54.0917 62.0974 54.1217 62.1044 54.1517 62.1114C57.3818 62.8585 60.8331 62.4848 64.1012 62.7667C64.7075 62.819 65.3084 62.8938 65.9022 63.0024C65.9131 63.0044 65.9239 63.0064 65.9347 63.0083C68 63.3885 70.0729 63.7196 72.153 64.002C72.153 64.002 72.153 64.002 72.153 64.002C70.0729 63.7196 68 63.3885 65.9347 63.0083C65.9239 63.0064 65.9131 63.0044 65.9022 63.0024C65.3084 62.8938 64.7209 62.7459 64.1391 62.5698C60.9916 61.6164 58.0523 59.8522 54.9504 58.984C54.9214 58.9759 54.8923 58.9678 54.8633 58.9599C49.8211 57.6042 44.9727 55.8127 40.1568 53.7482C40.1101 53.7283 40.0633 53.7083 40.0164 53.6882C33.6504 50.9577 27.396 47.8898 20.9787 44.9901C20.9094 44.9592 20.8409 44.9287 20.7732 44.8986C18.5941 44.0372 16.8213 42.9346 13.6744 42.6951C13.5822 42.6942 13.4866 42.6941 13.3956 42.6947C10.7856 42.7454 8.461 43.1639 6.11686 43.5112C6.02688 43.5251 5.93961 43.5381 5.85971 43.5489C5.79684 43.5575 5.73561 43.5648 5.69467 43.5684C5.6751 43.5702 5.65926 43.571 5.66309 43.5704C5.67652 43.5719 5.66302 43.5611 5.84579 43.5787C5.89647 43.5855 5.97259 43.5943 6.107 43.6341C6.19087 43.6599 6.29672 43.6971 6.43327 43.7727C6.56402 43.8439 6.86116 44.0397 7.06636 44.3916C7.3121 44.7594 7.34042 45.3957 7.25659 45.6502C7.19203 45.9209 7.07862 46.1072 7.01437 46.2028C6.89985 46.3707 6.80393 46.4553 6.76649 46.4907C6.58431 46.6471 6.59339 46.6216 6.57696 46.6363C6.56546 46.6434 6.6139 46.6181 6.65953 46.5972C6.86708 46.501 7.14549 46.3871 7.41988 46.2758C7.42371 46.2743 7.42755 46.2727 7.4314 46.2712C10.2604 45.1544 13.2302 44.0305 16.0954 42.6968C16.1095 42.6903 16.1235 42.6837 16.1376 42.6772C19.4925 41.1145 22.6536 39.2179 25.784 37.2957C25.8038 37.2835 25.8236 37.2713 25.8434 37.2592C28.3969 35.6887 30.9301 33.9891 33.2721 32.0032C33.2911 31.9871 33.31 31.9711 33.3289 31.955C35.3806 30.2043 37.4825 28.1313 38.699 25.3344C38.7062 25.3176 38.7135 25.3008 38.7207 25.2839C39.7601 22.7501 40.196 19.9794 39.2886 17.1036C39.2865 17.0976 39.2844 17.0916 39.2823 17.0855C38.5267 14.6694 36.2093 12.9542 34.1233 12.3213C34.1143 12.3183 34.1054 12.3153 34.0964 12.3123C31.5352 11.4756 28.9584 11.4401 26.4929 11.6465C26.4881 11.6469 26.4832 11.6473 26.4784 11.6477C23.6361 11.9022 20.8634 12.5468 18.1992 13.4922C18.1814 13.4985 18.1636 13.5049 18.1458 13.5112C15.4481 14.4718 12.8658 15.7937 10.516 17.4213C10.4947 17.436 10.4735 17.4507 10.4523 17.4654C8.01784 19.1534 5.74942 21.2082 4.02358 23.7291C4.01162 23.7465 3.9997 23.764 3.9878 23.7814C3.84085 23.9974 3.69858 24.2157 3.56064 24.4359C2.038 26.8751 1.0502 29.4978 0.0764531 32.0279Z" fill="black"/>
<path d="M48.36 28.8872C48.3138 28.5534 48.137 28.2516 47.8683 28.0482C47.5997 27.8447 47.2612 27.7564 46.9274 27.8025C46.5936 27.8487 46.2918 28.0255 46.0884 28.2942C45.885 28.5629 45.7966 28.9013 45.8427 29.2351C45.8427 29.2351 45.8427 29.2351 45.8427 29.2351C45.8885 29.5649 45.9343 29.9025 45.9947 30.2604C46.0254 30.4401 46.0592 30.6245 46.1073 30.8289C46.1678 31.0462 46.178 31.2201 46.4113 31.6528C46.417 31.6624 46.4229 31.6721 46.4289 31.682C46.5462 31.8553 46.7573 32.2124 47.3598 32.3753C47.98 32.5109 48.3792 32.2552 48.5577 32.1403C48.926 31.8726 49.0162 31.7087 49.1338 31.5669C49.1418 31.5561 49.1498 31.5454 49.1576 31.5345C49.5436 30.975 49.6206 30.4992 49.6764 30.0689C49.7332 29.5336 49.6967 29.0549 49.6279 28.5954C49.6269 28.5896 49.6259 28.5838 49.6249 28.578C49.5434 28.0756 49.2059 27.6389 48.9384 27.4244C48.6631 27.1965 48.4298 27.0842 48.2245 26.9914C47.8155 26.8146 47.4875 26.7312 47.173 26.6652C47.1675 26.6641 47.1621 26.663 47.1567 26.6619C45.7011 26.3834 44.3725 26.6117 43.1673 26.8724C43.1666 26.8726 43.1659 26.8727 43.1652 26.8729C41.0046 27.3788 39.0197 28.0876 37.0406 29.0583C37.0336 29.0618 37.0267 29.0653 37.0197 29.0688C35.2517 29.9476 33.5752 31.0992 32.1382 32.4365C32.1256 32.4482 32.113 32.4598 32.1004 32.4715C30.4393 34.1587 28.5634 35.7983 28.2706 39.2493C28.2707 39.2952 28.2715 39.3412 28.273 39.3872C28.2817 40.0206 28.5912 40.6693 28.9171 41.0379C29.2453 41.4214 29.5633 41.631 29.8424 41.7947C30.4027 42.1099 30.8645 42.2485 31.3052 42.3698C31.3329 42.3772 31.3605 42.3844 31.3881 42.3915C34.8896 43.1029 37.5423 42.2073 40.238 41.608C40.2652 41.6012 40.2924 41.5941 40.3195 41.5868C40.6451 41.5001 40.9647 41.3745 41.2771 41.243C41.434 41.1772 41.5892 41.1097 41.7401 41.0467C41.8149 41.0154 41.8894 40.985 41.9545 40.9597C42.0032 40.9378 42.1301 40.904 41.9976 40.9348C41.9666 40.9398 41.9393 40.9488 41.8148 40.9561C41.7628 40.9575 41.6596 40.9638 41.4888 40.9328C41.3978 40.9158 41.2356 40.8761 41.0581 40.7786C40.8837 40.6926 40.5759 40.433 40.4383 40.1237C40.3339 39.911 40.3022 39.6638 40.3162 39.4922C40.3287 39.3209 40.3682 39.2122 40.3925 39.1498C40.4491 39.0165 40.4691 39.0059 40.469 39.0017C40.4675 39.0041 40.4005 39.0775 40.3212 39.149C40.1607 39.2961 39.9409 39.4717 39.716 39.644C39.2615 39.9912 38.7648 40.347 38.2689 40.7112C37.2735 41.4403 36.2642 42.2089 35.3043 43.0754C35.2788 43.0985 35.2534 43.1216 35.2282 43.1447C34.1909 44.0917 33.1269 45.1759 32.4181 46.5209C32.4042 46.5473 32.3904 46.5737 32.3768 46.6003C32.1665 47.0199 31.9554 47.4812 31.8313 48.1312C31.7065 48.7419 31.7203 49.8149 32.375 50.6593L32.9357 51.1576C32.9668 51.1757 32.998 51.1934 33.0293 51.2107C37.4907 52.7952 40.0239 51.2084 43.0782 50.5964L43.1474 50.5782C43.161 50.5739 43.1746 50.5695 43.1882 50.5651C45.554 49.8005 47.8373 48.9535 50.1184 48.103C51.2751 47.6702 52.4279 47.2335 53.5788 46.7956C53.8895 46.6772 54.1429 46.4365 54.2848 46.1313C54.4266 45.8257 54.4454 45.4805 54.3354 45.1669C54.2254 44.8533 53.995 44.5956 53.6933 44.4457C53.3918 44.296 53.0436 44.2664 52.7271 44.3681C51.5548 44.7454 50.3849 45.1238 49.2157 45.4967C46.9139 46.2282 44.6067 46.9547 42.3166 47.5432C42.3034 47.5466 42.2903 47.5499 42.2773 47.5532L42.3465 47.535C39.68 48.0957 36.0676 48.421 34.8763 47.8584C34.8731 47.8566 34.8703 47.855 34.8679 47.8536L35.4286 48.3519C35.5174 48.4644 35.5775 48.6321 35.5873 48.721C35.5996 48.8137 35.5873 48.8319 35.5924 48.8008C35.5985 48.7356 35.6671 48.5179 35.7772 48.2878C35.7842 48.273 35.7913 48.2578 35.7986 48.2425C36.2399 47.3145 36.7799 46.3744 37.5673 45.5525C37.5862 45.5328 37.6052 45.513 37.6245 45.4931C38.4108 44.6832 39.2678 43.9125 40.1783 43.1531C40.6342 42.7717 41.1019 42.3967 41.5925 41.9903C41.839 41.7845 42.09 41.5752 42.3661 41.3111C42.5082 41.1723 42.6544 41.0302 42.8361 40.7922C42.9248 40.6699 43.0288 40.5335 43.144 40.2565C43.246 40.0084 43.4008 39.45 43.1127 38.8441C42.973 38.5302 42.6608 38.2665 42.4821 38.1783C42.3006 38.0786 42.1325 38.0371 42.0365 38.0191C41.857 37.9864 41.741 37.9925 41.6799 37.9944C41.5332 38.0028 41.4866 38.0151 41.4351 38.024C41.1549 38.0861 41.1362 38.1026 41.041 38.1261C40.9622 38.1474 40.892 38.1643 40.8223 38.1792C40.6835 38.209 40.5494 38.2303 40.4136 38.2488C40.1437 38.2854 39.8723 38.3093 39.6052 38.3535C39.5784 38.3581 39.5517 38.3629 39.5251 38.3679C36.9773 38.8396 34.1803 39.2908 32.3629 38.79C32.3455 38.7849 32.3284 38.7798 32.3115 38.7747C32.0464 38.6963 31.8059 38.5954 31.7279 38.5443C31.6902 38.5236 31.7061 38.5136 31.7967 38.6158C31.8846 38.7058 32.0359 39.0002 32.0357 39.2641C32.0355 39.2566 32.0353 39.2485 32.0353 39.2399C32.0188 38.2956 33.2582 36.401 34.6172 35.1234C34.6278 35.113 34.6385 35.1027 34.6491 35.0924C35.8576 33.9149 37.1519 32.8905 38.6116 32.061C38.6174 32.0577 38.6232 32.0544 38.629 32.0512C40.2657 31.1305 42.1032 30.3248 43.8947 29.8111C43.8953 29.811 43.8958 29.8108 43.8964 29.8107C44.8913 29.5342 45.8623 29.3908 46.659 29.505C46.6622 29.5054 46.6653 29.5059 46.6685 29.5063C46.8991 29.5385 47.1176 29.5695 47.2274 29.5893C47.2802 29.5961 47.3004 29.6056 47.2428 29.5504C47.192 29.5059 47.0298 29.3075 46.9979 29.0802C46.9975 29.0776 46.9971 29.0751 46.9967 29.0726C47.0599 29.3462 47.0868 29.6166 47.0753 29.8238C47.0728 29.9862 47.0132 30.1148 47.056 30.0508C47.0571 30.0495 47.0582 30.0482 47.0594 30.0469C47.0241 30.1108 46.9548 30.1551 47.1122 30.0372C47.1865 29.9942 47.4561 29.7953 47.9484 29.8999C48.4234 30.0322 48.5426 30.2849 48.5926 30.3492C48.5951 30.3534 48.5975 30.3573 48.5997 30.361C48.67 30.503 48.5987 30.3488 48.5804 30.2446C48.5523 30.1258 48.5251 29.9825 48.5 29.8348C48.4496 29.5374 48.4055 29.2159 48.36 28.8872Z" fill="black"/>
<path d="M65.669 30.3879C65.5166 30.7973 65.533 31.2505 65.7147 31.6477C65.8964 32.045 66.2284 32.3538 66.6378 32.5062C67.0472 32.6586 67.5003 32.6422 67.8976 32.4605C68.2948 32.2789 68.6036 31.9468 68.7561 31.5374C68.7561 31.5374 68.7561 31.5374 68.7561 31.5374C69.0937 30.6277 69.4437 29.7014 69.7514 28.7028C70.0249 27.6533 70.4582 26.707 70.1878 24.9714C70.1621 24.8542 70.1309 24.7393 70.091 24.6199C69.7481 23.4186 68.4716 22.5834 67.6153 22.3837C66.715 22.1332 65.948 22.1258 65.2234 22.1925C65.1457 22.2003 65.0679 22.2095 64.9907 22.22C63.0864 22.4801 61.386 23.2802 59.9619 24.2554C59.9224 24.2825 59.8829 24.3098 59.8435 24.3374C58.0657 25.5898 56.5602 27.0977 55.2785 28.7972C55.2439 28.8433 55.2095 28.8896 55.1753 28.936C53.8599 30.7157 52.7725 32.83 52.3503 35.181C52.3296 35.2957 52.3104 35.4108 52.2929 35.5259C52.0046 37.6941 52.0446 39.994 53.454 42.2862C53.5794 42.4777 53.7161 42.6634 53.8633 42.8413C55.5517 44.8253 57.8028 45.2452 59.5375 45.5401C59.6904 45.5636 59.8436 45.5855 59.9967 45.6058C62.6109 45.9408 65.127 45.4954 67.5783 45.1132C67.6669 45.0992 67.7554 45.0851 67.844 45.0712C70.4429 44.6579 72.9431 43.6933 75.4835 43.3658C75.515 43.3617 75.5464 43.3577 75.5776 43.3538C76.1518 43.2819 76.7258 43.2022 77.2974 43.1116C78.2544 42.9616 79.2051 42.7713 80.153 42.571C80.153 42.571 80.153 42.571 80.153 42.571C79.2051 42.7713 78.2544 42.9616 77.2974 43.1116C76.7258 43.2022 76.1518 43.2819 75.5776 43.3538C75.5464 43.3577 75.515 43.3615 75.4834 43.3651C72.9288 43.6575 70.3039 43.0989 67.7717 42.8606C67.6851 42.8524 67.5986 42.8438 67.5123 42.8348C65.117 42.5827 62.7604 42.0824 60.5693 41.7263C60.4407 41.705 60.3132 41.6828 60.1873 41.6597C58.6827 41.3963 57.435 40.9387 56.9449 40.291C56.8936 40.229 56.8456 40.1639 56.7999 40.0943C56.2182 39.2261 56.0151 37.5832 56.2476 36.1265C56.2594 36.0485 56.2724 35.9706 56.2864 35.8931C56.5726 34.2937 57.3374 32.7404 58.3948 31.3097C58.4223 31.2725 58.4499 31.2353 58.4777 31.1983C59.5114 29.8234 60.7643 28.5785 62.1372 27.6144C62.1675 27.5932 62.1978 27.5722 62.228 27.5513C63.3285 26.7902 64.4563 26.1979 65.5964 25.9675C65.6428 25.958 65.6895 25.9486 65.7359 25.9395C66.1699 25.8517 66.5928 25.7926 66.8403 25.7958C66.963 25.7947 67.0222 25.8059 67.0133 25.7775C67.0042 25.7528 66.9633 25.6688 66.9677 25.667C66.9675 25.6665 66.9685 25.6692 66.97 25.6759C67.0457 25.8982 66.8698 26.9139 66.6018 27.7379C66.339 28.5929 66.0063 29.4808 65.669 30.3879Z" fill="black"/>
<path d="M90.8667 18.3587C90.5715 18.2609 90.2495 18.2844 89.9716 18.4239C89.6937 18.5635 89.4826 18.8077 89.3848 19.1029C89.287 19.3981 89.3104 19.7201 89.45 19.998C89.5896 20.2759 89.8338 20.487 90.129 20.5848C90.129 20.5848 90.129 20.5848 90.129 20.5848C89.9577 20.5311 89.8671 20.3948 89.8844 20.4168C89.8925 20.4276 89.9325 20.5195 89.9616 20.6321C89.9626 20.6357 89.9635 20.6394 89.9645 20.6431C90.0113 20.8269 89.9851 21.0311 89.9289 21.2009C89.9012 21.2849 89.8649 21.3632 89.8341 21.4039C89.8198 21.4221 89.8038 21.4348 89.8088 21.3991C89.8137 21.3786 89.8176 21.3513 89.8668 21.265C89.8951 21.2192 89.9294 21.1593 90.0321 21.0543C90.1392 20.9685 90.3305 20.7076 90.9571 20.6767C91.0489 20.6764 91.1435 20.6858 91.2352 20.7049C91.5044 20.7382 91.7567 20.9996 91.7691 21.0365C91.8033 21.0877 91.7706 21.0134 91.7481 20.9054C91.5778 20.408 91.7116 19.4074 90.6174 18.2107C90.4993 18.0976 90.3699 17.9958 90.2319 17.9077C88.9898 17.2058 88.0985 17.5221 87.435 17.6534C86.7561 17.8316 86.1928 18.0661 85.6473 18.3093C84.567 18.7992 83.5906 19.3384 82.626 19.8724C82.5451 19.9176 82.4648 19.9631 82.3851 20.0089C79.4794 21.689 76.8869 23.9127 74.9714 26.7825C74.931 26.8442 74.8916 26.907 74.8529 26.9714C74.4639 27.6678 73.9034 28.7008 74.3973 30.2093C74.4514 30.3568 74.5203 30.5002 74.5954 30.6276C75.635 32.0537 76.4068 31.9343 76.9902 32.1352C77.5886 32.2579 78.1011 32.2942 78.6033 32.3157C79.6005 32.3521 80.5263 32.3038 81.4438 32.2439C81.5022 32.2402 81.5601 32.2362 81.6176 32.2319C82.4291 32.1713 83.2099 32.0003 83.9314 31.8182C84.2899 31.7283 84.6413 31.6341 84.9354 31.5693C85.0773 31.5372 85.2175 31.5151 85.2558 31.508C85.2702 31.5017 85.2636 31.5097 85.1304 31.4725C85.0626 31.4508 84.9556 31.4162 84.806 31.3117C84.6613 31.2134 84.4874 31.0196 84.4009 30.8216C84.2862 30.5775 84.2931 30.3131 84.3186 30.1955C84.3913 29.922 84.3784 30.0426 84.301 30.1138C84.2261 30.2015 84.1092 30.3183 83.9795 30.4355C83.7178 30.6723 83.3994 30.924 83.0722 31.1798C82.4127 31.7008 81.6978 32.2252 80.9973 33.0007C80.9049 33.1035 80.8149 33.2065 80.7259 33.3114C78.6088 35.7932 77.0738 38.7607 76.0418 41.7643C76.0094 41.8584 75.9785 41.9537 75.9493 42.0505C75.6219 43.1361 75.3465 44.9594 76.6641 46.4889C76.7454 46.5812 76.8319 46.6698 76.9223 46.7536C78.2471 47.8804 79.3922 47.8705 80.3014 47.9733C81.2317 48.0327 82.0674 47.992 82.8916 47.9315C82.9411 47.9278 82.9908 47.9239 83.0409 47.9198C86.9461 47.5601 90.4816 46.2463 94.1403 45.332C94.1649 45.3257 94.1895 45.3194 94.2141 45.3131C96.4822 44.7376 98.718 44.0396 100.909 43.2792C102.161 42.8456 103.4 42.3942 104.631 41.9456C104.979 41.8188 105.262 41.559 105.418 41.2234C105.575 40.8878 105.591 40.5038 105.465 40.1559C105.338 39.808 105.078 39.5247 104.743 39.3684C104.407 39.212 104.023 39.1954 103.675 39.3221C103.675 39.3221 103.675 39.3221 103.675 39.3221C102.444 39.7709 101.219 40.2168 99.9949 40.6408C97.8523 41.3844 95.7039 42.0543 93.5255 42.6072C93.5019 42.6132 93.4782 42.6192 93.4545 42.6252C89.9349 43.4929 86.1853 43.6183 82.718 43.9329C82.6743 43.9364 82.6311 43.9398 82.5883 43.9431C81.8769 43.9969 81.1748 44.0226 80.5707 43.9824C79.9715 43.9665 79.4809 43.741 79.6417 43.8203C79.6485 43.8266 79.6557 43.834 79.6622 43.8415C79.6893 43.8663 79.681 43.9206 79.6621 43.7908C79.6466 43.6701 79.6655 43.4237 79.7402 43.1425C79.7524 43.0957 79.7659 43.0476 79.7808 42.9984C80.6167 40.2734 81.8006 37.7403 83.4785 35.5205C83.5491 35.4268 83.6193 35.3336 83.6905 35.2395C84.0702 34.7277 84.6206 34.1354 85.202 33.5257C85.4944 33.2179 85.8019 32.9026 86.1276 32.5424C86.2911 32.36 86.46 32.1682 86.6432 31.9227C86.8194 31.659 87.0506 31.4272 87.2096 30.7365C87.2687 30.4429 87.2665 29.9935 87.075 29.5855C86.8106 28.9824 86.2072 28.6916 85.932 28.6234C85.6264 28.5386 85.4416 28.5348 85.2767 28.5267C84.9593 28.5184 84.7405 28.5378 84.5305 28.5521C84.1174 28.584 83.7663 28.6165 83.4202 28.6389C82.7331 28.6851 82.0943 28.6955 81.4794 28.6895C81.4359 28.6891 81.3923 28.6884 81.3486 28.6875C80.4908 28.6729 79.6401 28.6393 78.866 28.5555C78.4829 28.5137 78.1134 28.4557 77.8439 28.3833C77.7124 28.349 77.6057 28.3062 77.5928 28.2949C77.57 28.2922 77.7134 28.2927 77.9523 28.6618C77.989 28.7237 78.0243 28.7964 78.0521 28.872C78.1269 29.0775 78.0932 29.191 78.0964 29.1829C78.0962 29.1791 78.1267 29.0893 78.195 28.9777C78.2071 28.9575 78.2203 28.9363 78.2347 28.9141C79.7504 26.6177 81.7689 24.4638 84.1523 22.909C84.2178 22.8663 84.2838 22.8239 84.3503 22.7817C85.2591 22.209 86.1608 21.645 87.0366 21.1835C87.472 20.955 87.9071 20.7527 88.276 20.6314C88.4576 20.5708 88.6218 20.5352 88.7092 20.5249C88.8027 20.5121 88.7665 20.5306 88.6497 20.4519C88.6242 20.4338 88.599 20.4119 88.5783 20.3898C88.5339 20.322 88.6325 20.4168 88.7089 20.658C88.7931 20.8981 88.8592 21.2252 88.9954 21.6808C89.0653 21.8973 89.141 22.1512 89.3494 22.4943C89.5318 22.8221 90.0561 23.3331 90.6651 23.431C90.7624 23.4513 90.8627 23.4613 90.9603 23.461C91.6246 23.4299 91.8493 23.1448 91.9827 23.0332C92.1116 22.9022 92.168 22.812 92.2168 22.7335C92.3061 22.5827 92.3401 22.4886 92.3725 22.3976C92.4316 22.2225 92.4548 22.0884 92.4715 21.9603C92.5022 21.7069 92.4956 21.4872 92.4764 21.2703C92.4359 20.84 92.3382 20.4438 92.2325 20.0464C92.2305 20.0389 92.2285 20.0314 92.2265 20.0239C92.1611 19.7877 92.0819 19.5336 91.9073 19.2304C91.7446 18.9411 91.3872 18.5238 90.8667 18.3587Z" fill="black"/>
<path d="M96.0222 21.0384C96.0318 20.5767 95.8577 20.1301 95.5381 19.7968C95.2184 19.4635 94.7795 19.2708 94.3178 19.2612C93.8561 19.2515 93.4095 19.4256 93.0762 19.7453C92.7429 20.0649 92.5502 20.5038 92.5406 20.9655C92.5406 20.9655 92.5406 20.9655 92.5406 20.9655C92.5339 21.2834 92.5273 21.6012 92.5207 21.9193C92.4607 25.266 92.3544 28.5705 92.4488 32.0252C92.4943 33.4111 92.7696 34.7437 92.9895 35.9051C93.1975 36.9925 94.9324 37.8525 95.116 39.0491C95.1238 39.0982 95.1287 39.1479 95.1306 39.198C95.1404 39.4672 95.1451 39.7311 95.1451 40.002C95.1451 40.004 95.146 40.006 95.1474 40.0075C95.1489 40.0089 95.1509 40.0098 95.153 40.0098C95.155 40.0098 95.157 40.0089 95.1585 40.0075C95.1599 40.006 95.1608 40.004 95.1608 40.002C95.1608 40.002 95.1608 40.002 95.1608 40.002C95.1607 39.7309 95.1561 39.4668 95.1462 39.1974C95.1443 39.1473 95.1453 39.0974 95.1488 39.0476C95.237 37.9152 96.642 36.4613 96.4121 35.2629C96.176 34.0268 95.963 32.9561 95.9287 31.8947C95.8398 28.6846 95.9415 25.3135 96.0023 21.9916C96.0089 21.6739 96.0155 21.3562 96.0222 21.0384Z" fill="black"/>
<path d="M94.2354 20.1206C94.2354 20.4347 94.3602 20.7359 94.5823 20.958C94.8044 21.1801 95.1056 21.3049 95.4197 21.3049C95.7338 21.3049 96.0351 21.1801 96.2572 20.958C96.4793 20.7359 96.604 20.4347 96.604 20.1206C96.604 20.1206 96.604 20.1206 96.604 20.1206C96.604 19.972 96.6042 19.8322 96.6093 19.7293C96.6113 19.6801 96.6167 19.6353 96.6156 19.6445C96.6133 19.6522 96.6152 19.6676 96.5835 19.7561C96.5653 19.801 96.5428 19.8672 96.4579 19.9868C96.3787 20.0965 96.1818 20.3178 95.8308 20.4062C95.8112 20.4111 95.7911 20.4154 95.7706 20.4192C95.5437 20.466 95.2863 20.4037 95.1612 20.3363C95.029 20.2689 94.9798 20.216 94.951 20.1897C94.8977 20.1346 94.9156 20.1509 94.9292 20.1828C94.9631 20.2509 95.0177 20.388 95.0637 20.5299C95.1588 20.8198 95.244 21.1605 95.3241 21.5021C95.466 22.109 95.5995 22.7437 95.7742 23.3768C95.783 23.4087 95.7919 23.4409 95.8009 23.4731C96.6618 26.5612 97.5826 29.6559 98.5964 32.7358C98.6006 32.7484 98.6048 32.7611 98.609 32.7737C98.8683 33.5482 99.1546 34.3267 99.5534 35.1279C100.022 35.9227 100.246 36.7824 101.818 37.6851C101.866 37.7071 101.914 37.7278 101.965 37.747C102.329 37.8937 102.822 37.9345 103.205 37.8511C103.587 37.7742 103.869 37.6203 104.06 37.4955C104.453 37.228 104.63 37.0059 104.791 36.8114C105.093 36.4265 105.258 36.1203 105.415 35.8225C105.718 35.2333 105.935 34.6916 106.135 34.1577C106.531 33.0885 106.842 32.0467 107.12 30.9982C107.135 30.9432 107.149 30.8878 107.163 30.8322C107.856 27.9322 108.007 25.2185 108.125 22.4791C108.126 22.448 108.127 22.4168 108.129 22.3856C108.229 19.6404 108.037 16.7903 107.389 14.0408C107.387 14.032 107.385 14.0231 107.383 14.0143C106.752 11.3357 105.676 8.81138 104.273 6.45432C104.269 6.44778 104.265 6.44125 104.261 6.43471C103.093 4.49356 101.603 2.64372 99.6251 1.29666C99.6145 1.28955 99.604 1.28251 99.5934 1.27554C98.6256 0.637392 97.3371 0.613599 96.2438 0.552589C95.7204 0.521088 95.2283 0.473687 94.7751 0.322283C94.7713 0.321005 94.7674 0.319731 94.7636 0.318462C94.2425 0.148429 93.7064 -0.0176394 93.153 0.00195312C93.7064 -0.0176394 94.2425 0.148429 94.7636 0.318462C94.7674 0.319731 94.7713 0.321005 94.7751 0.322283C95.2292 0.473804 95.6319 0.774282 95.9807 1.13606C96.7283 1.90524 97.1888 2.91565 97.8045 3.53249C97.8115 3.53945 97.8185 3.54638 97.8255 3.55328C99.151 4.85172 100.209 6.46762 101.099 8.20057C101.102 8.20642 101.105 8.21226 101.108 8.21811C102.183 10.3312 102.948 12.6278 103.488 14.9236C103.489 14.9312 103.491 14.9388 103.493 14.9464C104.049 17.3131 104.221 19.7493 104.131 22.2481C104.13 22.2764 104.129 22.3047 104.128 22.333C104.025 24.9155 103.841 27.5599 103.285 29.853C103.274 29.8959 103.263 29.9381 103.252 29.9798C102.994 30.9654 102.731 31.9444 102.434 32.8593C102.287 33.3102 102.125 33.759 101.965 34.1105C101.888 34.2811 101.798 34.4385 101.779 34.4695C101.777 34.4824 101.777 34.4566 101.952 34.3365C102.037 34.282 102.195 34.1897 102.45 34.1382C102.703 34.0818 103.06 34.1115 103.303 34.2114C103.337 34.2244 103.369 34.2381 103.4 34.2525C103.559 34.3541 103.368 34.2548 103.231 34.0806C103.079 33.9056 102.909 33.6622 102.749 33.3963C102.427 32.8605 102.129 32.2326 101.864 31.5812C101.86 31.5705 101.855 31.5598 101.851 31.5491C100.671 28.6129 99.6101 25.6154 98.5279 22.6021C98.5166 22.5706 98.5052 22.5392 98.4938 22.508C98.2767 21.9169 98.0405 21.3219 97.7888 20.7062C97.6448 20.3568 97.4984 20.0006 97.3213 19.615C97.2305 19.4208 97.1365 19.2196 96.9876 18.9742C96.9079 18.8481 96.8245 18.712 96.6436 18.5259C96.5527 18.4366 96.4312 18.323 96.2173 18.2148C96.0105 18.1062 95.6599 18.0255 95.3431 18.0895C95.3143 18.0947 95.286 18.1009 95.2581 18.1078C94.8703 18.2052 94.6439 18.4529 94.5429 18.5928C94.436 18.7427 94.3975 18.8435 94.3662 18.923C94.3082 19.0825 94.2947 19.1704 94.2797 19.2521C94.2543 19.409 94.2489 19.5136 94.2434 19.6142C94.2344 19.8101 94.2357 19.9699 94.2354 20.1206Z" fill="black"/>
<path d="M93.5486 11.5885C93.1737 11.7488 92.8779 12.0514 92.7261 12.4298C92.5744 12.8082 92.5792 13.2314 92.7395 13.6063C92.8998 13.9812 93.2024 14.277 93.5808 14.4288C93.9592 14.5805 94.3824 14.5757 94.7573 14.4154C94.7573 14.4154 94.7573 14.4154 94.7573 14.4154C95.4475 14.1203 96.1371 13.8255 96.8265 13.5316C100.219 12.0877 103.607 10.6564 107.022 9.38512C107.026 9.3838 107.029 9.38248 107.033 9.38116C110.782 7.9752 114.59 6.80825 118.489 5.71655C118.492 5.71552 118.496 5.71449 118.499 5.71345C122.974 4.45575 127.256 2.19698 131.816 1.1665C131.818 1.16624 131.819 1.16598 131.82 1.16572C132.867 0.929776 133.904 0.697266 134.951 0.468321C135.685 0.307666 136.417 0.152217 137.153 0.00195312C137.153 0.00195312 137.153 0.00195312 137.153 0.00195312C136.417 0.152217 135.685 0.307666 134.951 0.468321C133.904 0.697266 132.867 0.929776 131.82 1.16572C131.819 1.16598 131.818 1.16624 131.816 1.1665C127.258 2.19656 122.419 2.03674 117.828 3.06844C117.825 3.06929 117.821 3.07014 117.817 3.07099C113.834 3.96483 109.826 5.04952 105.963 6.49879C105.959 6.50014 105.956 6.5015 105.952 6.50285C102.444 7.80904 99.0254 9.25451 95.621 10.7033C94.9294 10.9981 94.2388 11.2934 93.5486 11.5885Z" fill="black"/>
<path d="M114.318 11.8315C114.345 11.4184 114.207 11.0115 113.934 10.7001C113.662 10.3887 113.276 10.1984 112.863 10.1711C112.45 10.1438 112.043 10.2817 111.732 10.5545C111.421 10.8272 111.23 11.2125 111.203 11.6256C111.203 11.6256 111.203 11.6256 111.203 11.6256C111.161 12.2539 111.12 12.883 111.079 13.5129C110.798 17.7654 110.597 22.0578 110.581 26.347C110.581 26.347 110.581 26.3471 110.581 26.3471C110.56 31.9187 112.323 37.3872 112.454 42.8992C112.454 42.8993 112.454 42.8993 112.454 42.8994C112.487 44.4705 112.513 46.0349 112.474 47.6027C112.458 48.2322 112.424 48.8611 112.382 49.4893C112.424 48.8611 112.458 48.2322 112.474 47.6027C112.513 46.0349 112.487 44.4705 112.454 42.8994C112.454 42.8993 112.454 42.8993 112.454 42.8992C112.323 37.3876 113.681 31.8213 113.703 26.362C113.703 26.362 113.703 26.3619 113.703 26.3619C113.718 22.1462 113.915 17.9453 114.194 13.7141C114.235 13.0873 114.276 12.4598 114.318 11.8315Z" fill="black"/>
</svg>
