<svg width="237" height="86" viewBox="0 0 237 86" fill="none" xmlns="http://www.w3.org/2000/svg">
<path d="M132.393 18.9943C132.018 19.0886 131.696 19.3282 131.497 19.6602C131.298 19.9922 131.24 20.3895 131.334 20.7648C131.429 21.14 131.668 21.4624 132 21.661C132.332 21.8596 132.729 21.9182 133.105 21.8239C133.105 21.8239 133.105 21.8239 133.105 21.8239C134.622 21.3705 136.31 21.2693 136.258 21.5613C136.261 21.5656 136.265 21.5703 136.269 21.5756C136.893 22.5152 136.716 25.4116 136.594 27.6172C136.581 27.8369 136.569 28.0576 136.557 28.2806C136.556 28.2911 136.556 28.3017 136.555 28.3123C136.316 32.6054 135.944 36.9271 135.662 41.2601C135.66 41.2939 135.658 41.3276 135.655 41.3613C135.424 46.4483 134.761 50.93 135.431 56.7733C135.468 56.9089 135.515 57.0606 135.607 57.2572C135.831 57.8126 136.542 58.3546 137.09 58.4391C137.642 58.5505 138.018 58.4625 138.317 58.3802C138.908 58.1972 139.265 57.9479 139.607 57.7124C139.69 57.654 139.769 57.5951 139.846 57.5345C142.659 55.2307 144.041 52.1977 145.237 49.2934C145.272 49.2072 145.306 49.1211 145.339 49.0353C146.751 45.3388 147.144 41.6173 147.736 38.0027C147.755 37.8819 147.773 37.7606 147.792 37.6388C148.259 34.6447 148.515 31.6321 148.802 28.6344C148.817 28.4783 148.832 28.3256 148.847 28.1693C149.256 23.5733 149.804 19.0971 149.788 14.3204C149.783 14.208 149.777 14.1012 149.765 13.9683C149.76 13.913 149.751 13.8287 149.739 13.7537C149.71 13.6424 149.752 13.6211 149.575 13.2458C149.481 13.0948 149.479 13.0085 149.153 12.7184C149.046 12.6231 148.639 12.3644 148.161 12.4366C147.718 12.4882 147.405 12.8009 147.335 12.8884C147.105 13.1711 147.082 13.2852 147.019 13.4268C146.973 13.5429 146.942 13.6422 146.914 13.7403C146.813 14.1101 146.767 14.3862 146.717 14.6898C146.625 15.2731 146.563 15.833 146.506 16.3903C146.394 17.5054 146.312 18.5994 146.235 19.6984C146.084 21.8875 145.968 24.0704 145.865 26.2354C145.859 26.3528 145.854 26.4689 145.849 26.5865C145.673 29.8456 145.913 33.2444 146.441 36.4511C146.455 36.5328 146.468 36.615 146.481 36.6978C147.295 41.5108 148.375 46.176 149.638 50.8703C149.647 50.9055 149.657 50.9405 149.667 50.9752C149.892 51.7854 150.16 52.5903 150.487 53.4067C150.651 53.8143 150.829 54.2285 151.057 54.6673C151.3 55.0904 151.529 55.645 152.285 56.1769C152.324 56.2028 152.363 56.2269 152.406 56.2524C152.828 56.5631 153.853 56.6205 154.326 56.2788C154.815 55.9822 155.004 55.6788 155.213 55.4351C155.227 55.4186 155.24 55.4022 155.254 55.3858C159.285 49.4912 158.862 42.9475 159.677 36.804C159.677 36.7976 159.678 36.7911 159.679 36.7846C160.009 33.5094 159.958 30.2414 160.158 27.0159C160.16 26.9769 160.163 26.9379 160.165 26.8989C160.369 23.6322 160.723 20.3899 161.32 17.1912C161.333 17.1202 161.347 17.0489 161.361 16.9775C161.974 13.8508 163.137 10.8237 163.959 7.7605C163.985 7.66172 164.013 7.55868 164.04 7.46309C164.045 7.44423 164.049 7.4343 164.048 7.43998C164.048 7.44298 164.045 7.456 164.033 7.48708C163.997 7.53091 164.097 7.50474 163.755 7.92147C163.704 7.97425 163.638 8.03537 163.544 8.10028C163.492 8.14584 163.086 8.37916 162.675 8.338C162.245 8.3138 161.907 8.07152 161.756 7.90235C161.601 7.73803 161.523 7.55998 161.517 7.54625C161.451 7.40114 161.437 7.32771 161.424 7.27391C161.402 7.16326 161.407 7.17125 161.404 7.15173C161.401 7.12629 161.402 7.13934 161.401 7.15074C161.399 7.21352 161.394 7.32475 161.387 7.43804C161.372 7.6636 161.354 7.89297 161.334 8.13321C161.294 8.60741 161.25 9.09285 161.206 9.57536C161.116 10.5429 161.025 11.5123 160.933 12.4878C160.749 14.4277 160.565 16.3807 160.369 18.3265C160.357 18.4543 160.344 18.5816 160.332 18.7089C159.988 22.2971 159.836 25.8836 159.845 29.372C159.845 29.4614 159.845 29.5508 159.846 29.64C159.89 35.8387 160.245 42.0642 161.262 48.2566L161.345 48.5832C161.354 48.608 161.363 48.6328 161.371 48.6576C162.26 51.217 163.421 53.6861 164.807 56.0364C166.772 59.125 168.519 62.2426 172.136 64.4259C172.137 64.4264 172.138 64.4269 172.14 64.4274L172.187 64.4465C172.737 64.6191 173.477 64.2794 173.95 64.0015C173.398 63.7596 173.119 63.2118 172.714 63.0199L172.761 63.039C172.761 63.0387 172.76 63.0384 172.76 63.0381C170.525 61.1998 169.037 57.6364 167.769 54.5716C166.818 52.1915 165.992 49.7701 165.15 47.346C165.142 47.3226 165.134 47.2991 165.126 47.2756L165.209 47.6021C164.237 41.6982 163.832 35.6508 163.736 29.5987C163.734 29.5115 163.733 29.4242 163.732 29.3368C163.67 25.8044 163.371 22.3601 163.539 18.9395C163.545 18.8183 163.552 18.6972 163.558 18.5756C163.667 16.6261 163.795 14.6709 163.918 12.7227C163.979 11.7426 164.04 10.768 164.093 9.78598C164.119 9.29557 164.144 8.80155 164.163 8.30358C164.173 8.04968 164.181 7.80824 164.185 7.53844C164.187 7.39545 164.188 7.27455 164.182 7.08758C164.18 7.04132 164.178 6.99239 164.17 6.9038C164.164 6.85471 164.167 6.84088 164.137 6.69103C164.121 6.62124 164.103 6.53524 164.033 6.381C164.026 6.3658 163.943 6.17926 163.786 6.01233C163.632 5.83975 163.29 5.59564 162.857 5.5712C162.442 5.52954 162.031 5.76539 161.978 5.81221C161.882 5.87841 161.814 5.94119 161.761 5.99601C161.56 6.21573 161.529 6.31977 161.486 6.40262C161.462 6.45577 161.454 6.47851 161.442 6.5096C161.421 6.56557 161.406 6.61668 161.396 6.64928C161.381 6.7042 161.369 6.75373 161.357 6.80469C161.335 6.90555 161.312 7.0135 161.29 7.11671C160.626 10.2997 160.459 13.5533 160.019 16.7573C160.009 16.8306 159.999 16.9036 159.989 16.9763C159.528 20.2515 159.286 23.5512 159.085 26.8301C159.082 26.8694 159.08 26.9087 159.078 26.9481C158.877 30.2022 158.645 33.4327 158.196 36.6079C158.195 36.6143 158.194 36.6208 158.193 36.6273C157.232 42.6688 157.002 49.5166 153.578 53.9424C153.567 53.954 153.557 53.9654 153.546 53.9766C153.43 54.101 153.261 54.1543 153.302 54.0702C153.322 54.0314 153.437 53.9678 153.568 53.9602C153.699 53.9505 153.792 53.9823 153.814 53.9874C153.818 53.9886 153.821 53.9889 153.823 53.9884C153.899 54.0377 153.749 53.8144 153.648 53.4983C153.54 53.1874 153.436 52.819 153.339 52.4499C153.143 51.7039 152.961 50.9184 152.756 50.1402C152.747 50.1068 152.738 50.0731 152.729 50.0391C151.564 45.4786 150.56 40.7866 149.779 36.1593C149.766 36.08 149.753 36.0014 149.741 35.9233C149.231 32.8164 148.951 29.8118 149.024 26.6758C149.026 26.5619 149.027 26.4491 149.029 26.3347C149.062 24.1442 149.035 21.961 149.032 19.7939C149.031 18.7077 149.034 17.6291 149.068 16.5632C149.085 16.0332 149.11 15.5015 149.157 15.0082C149.181 14.7595 149.211 14.5211 149.247 14.3522C149.256 14.3111 149.264 14.2803 149.264 14.2746C149.256 14.2752 149.282 14.2762 149.142 14.4505C149.103 14.4982 148.866 14.7501 148.482 14.798C148.286 14.8257 148.081 14.7909 147.936 14.7317C147.774 14.6635 147.733 14.6244 147.673 14.5793C147.464 14.3903 147.513 14.3923 147.5 14.3843C147.364 14.0871 147.425 14.1668 147.415 14.1577C147.417 14.1663 147.424 14.2024 147.428 14.2316C147.439 14.3022 147.447 14.3826 147.455 14.4695C147.681 18.8373 147.468 23.4887 147.081 28.006C147.067 28.1605 147.053 28.3112 147.038 28.4654C146.754 31.4265 146.244 34.3569 145.654 37.2562C145.63 37.3779 145.605 37.4991 145.581 37.6198C144.843 41.2248 144.281 44.8817 142.903 48.0212C142.868 48.1004 142.832 48.1798 142.796 48.2591C141.584 50.9287 140.054 53.5643 137.973 55.0336C137.93 55.0629 137.889 55.0896 137.849 55.1143C137.691 55.2147 137.514 55.263 137.518 55.233C137.527 55.2239 137.593 55.1716 137.85 55.2146C138.103 55.2354 138.552 55.5713 138.655 55.8484C138.686 55.9137 138.683 55.9143 138.679 55.8967C138.272 51.8756 138.782 46.3981 139.052 41.5838C139.054 41.5502 139.056 41.5166 139.059 41.4829C139.34 37.1598 139.606 32.8279 139.768 28.4563C139.768 28.4455 139.768 28.4346 139.769 28.4238C139.777 28.1966 139.783 27.9706 139.789 27.7445C139.683 25.2717 140.35 23.0851 138.588 19.8051C138.562 19.7711 138.535 19.7374 138.508 19.704C137.53 18.4896 135.951 18.3847 135.023 18.4779C134.021 18.569 133.188 18.7988 132.393 18.9943Z" fill="white"/>
<path d="M173.924 19.6767C174.206 19.7409 174.502 19.6905 174.747 19.5366C174.992 19.3827 175.165 19.1378 175.229 18.8559C175.294 18.574 175.243 18.2781 175.089 18.0333C174.935 17.7886 174.691 17.615 174.409 17.5508C174.409 17.5508 174.409 17.5508 174.409 17.5508C173.667 17.3639 172.188 17.0675 171.092 17.9218C171.065 17.941 171.039 17.9606 171.013 17.9806C170.903 18.0658 170.795 18.1574 170.695 18.249C167.842 21.4075 167.542 24.9561 166.599 28.2013C166.596 28.2135 166.593 28.2256 166.59 28.2377C165.777 31.5879 165.916 35.3292 167.751 38.5884C167.758 38.6002 167.765 38.6121 167.772 38.6239C168.351 39.6642 169.558 40.1164 170.315 40.1946C171.117 40.2965 171.771 40.2267 172.374 40.1602C172.409 40.156 172.445 40.1518 172.48 40.1475C175.935 39.7171 178.469 37.2401 180.041 34.7309C180.096 34.6438 180.15 34.556 180.204 34.4672C184.452 27.8329 180.033 20.045 176.061 15.5567L175.593 15.1578C175.54 15.1267 175.486 15.0968 175.428 15.0667C174.946 14.7864 173.966 15.0371 173.568 15.6099C173.149 16.1679 173.225 16.7131 173.026 16.9227C173.018 16.9314 173.01 16.9397 173.002 16.9476C172.942 17.003 172.884 17.0606 172.828 17.1195C172.167 17.8371 171.661 18.6762 171.129 19.4901C171.661 18.6762 172.167 17.8371 172.828 17.1195C172.884 17.0606 172.942 17.003 173.002 16.9476C173.01 16.9397 173.019 16.9324 173.029 16.9257C173.259 16.7478 173.828 16.9475 173.979 17.3713C174.151 17.8033 173.776 18.1908 173.804 18.1827C173.807 18.1838 173.81 18.1859 173.816 18.1892L173.348 17.7903C177.267 22.2818 180.434 28.0571 177.423 32.8001C177.38 32.8725 177.337 32.944 177.293 33.0146C176.03 35.0864 174.151 36.7261 172.083 36.9717C172.053 36.9755 172.023 36.9793 171.993 36.983C171.497 37.0453 171.036 37.0699 170.738 37.0294C170.59 37.0113 170.497 36.9765 170.48 36.9672C170.46 36.9542 170.506 36.9946 170.504 37.0026C170.499 36.9945 170.494 36.9863 170.489 36.9781C169.134 34.7023 168.795 31.6682 169.355 28.8536C169.358 28.8412 169.36 28.8287 169.363 28.8163C170.057 25.5663 170.332 21.8118 172.173 19.8542C172.23 19.801 172.29 19.7499 172.349 19.7041C172.358 19.6972 172.367 19.6905 172.375 19.6842C172.669 19.4552 173.069 19.4707 173.924 19.6767Z" fill="white"/>
<path d="M185.724 16.3924C185.398 16.6911 185.204 17.107 185.185 17.5486C185.166 17.9902 185.323 18.4214 185.622 18.7472C185.92 19.0731 186.336 19.2669 186.778 19.2861C187.22 19.3053 187.651 19.1483 187.977 18.8496C187.977 18.8496 187.977 18.8496 187.977 18.8496C187.897 18.9101 187.79 19.0482 187.365 19.1535C186.94 19.2812 186.278 19.0272 186.112 18.8392C185.734 18.4616 185.837 18.4545 185.816 18.458C185.831 18.4955 185.877 18.7011 185.903 18.8986C186.159 21.3842 185.941 24.376 185.755 27.1877L185.763 27.1118C185.754 27.1804 185.746 27.2494 185.738 27.3187C185.147 32.1247 185.911 37.2635 185.159 42.1277C185.157 42.1451 185.154 42.1623 185.151 42.1796C184.928 43.6481 184.709 45.1158 184.588 46.5941C184.546 47.1141 184.526 47.6343 184.514 48.1551C184.526 47.6343 184.546 47.1141 184.588 46.5941C184.709 45.1158 184.928 43.6481 185.151 42.1796C185.154 42.1623 185.157 42.1451 185.159 42.1277C185.934 37.2613 188.434 32.6948 189.047 27.7178C189.056 27.6461 189.064 27.5746 189.073 27.5035L189.08 27.4277C189.26 24.4874 189.528 21.7017 189.205 18.4456C189.158 18.1291 189.116 17.8154 188.964 17.3619C188.854 17.12 188.857 16.8646 188.283 16.3097C188.024 16.037 187.223 15.7348 186.671 15.8932C186.117 16.0279 185.906 16.2397 185.724 16.3924Z" fill="white"/>
<path d="M186.756 22.9979C186.544 23.2437 186.439 23.5637 186.463 23.8873C186.487 24.2109 186.639 24.5117 186.884 24.7235C187.13 24.9353 187.45 25.0408 187.774 25.0167C188.097 24.9927 188.398 24.8411 188.61 24.5952C188.61 24.5952 188.61 24.5952 188.61 24.5952C189.307 23.7868 190.023 23.0104 190.776 22.3066C192.121 21.0494 193.624 20.0179 195.18 19.82C195.187 19.819 195.194 19.8181 195.201 19.8172C196.282 19.6904 197.896 20.3921 198.902 21.1514C198.908 21.156 198.914 21.1607 198.92 21.1654C199.177 21.3712 199.276 21.5361 199.32 21.7072C199.367 21.8798 199.36 22.1692 199.259 22.547C199.257 22.5566 199.254 22.5662 199.252 22.5759C198.408 25.8122 194.758 27.5655 191.155 29.6482C191.11 29.6762 191.066 29.7047 191.023 29.7337C190.576 30.0391 190.038 30.4691 189.713 31.239C189.377 32.0159 189.511 32.9135 189.75 33.4687C189.771 33.5224 189.794 33.5754 189.819 33.6277C192.388 37.2694 195.197 37.5902 197.863 38.9989C197.894 39.0124 197.924 39.0259 197.955 39.0394C201.747 40.6451 205.538 41.6819 209.222 42.9821C209.238 42.9879 209.255 42.9937 209.271 42.9995C212.102 43.9951 215.372 44.0723 218.124 45.3908C218.128 45.393 218.133 45.3953 218.138 45.3976C218.281 45.4665 218.421 45.5337 218.564 45.6032C219.549 46.0793 220.528 46.5735 221.489 47.0986C221.489 47.0986 221.489 47.0986 221.489 47.0986C220.528 46.5735 219.549 46.0793 218.564 45.6032C218.421 45.5337 218.281 45.4665 218.138 45.3976C218.133 45.3953 218.128 45.393 218.124 45.3907C215.396 44.0741 213.089 41.7191 210.259 40.4888C210.243 40.4817 210.226 40.4746 210.21 40.4675C206.53 38.867 202.748 37.5558 199.248 36.0693C199.22 36.057 199.192 36.0448 199.164 36.0327C196.675 34.9146 193.316 33.6077 192.511 32.3504C192.506 32.3401 192.501 32.3302 192.496 32.3209C192.433 32.1729 192.46 32.2468 192.418 32.3017C192.378 32.3484 192.429 32.2252 192.617 32.1021C192.634 32.0904 192.652 32.0784 192.672 32.066C195.793 30.1274 200.556 28.2297 201.936 23.2857C201.941 23.2693 201.945 23.2528 201.949 23.2363C202.109 22.6 202.215 21.8034 201.971 20.957C201.735 20.1064 201.134 19.4113 200.548 18.9928C200.537 18.985 200.526 18.9772 200.516 18.9695C198.81 17.8629 197.139 17.2282 194.888 17.3902C194.878 17.3915 194.867 17.3929 194.857 17.3943C192.468 17.7227 190.614 19.1247 189.107 20.5173C188.259 21.31 187.491 22.146 186.756 22.9979Z" fill="white"/>
<path d="M211.553 18.9179C211.644 18.5119 211.569 18.0865 211.347 17.7351C211.124 17.3838 210.771 17.1354 210.365 17.0445C209.959 16.9536 209.533 17.0277 209.182 17.2505C208.831 17.4733 208.582 17.8265 208.491 18.2325C208.491 18.2325 208.491 18.2325 208.491 18.2325C208.407 18.611 208.327 18.9695 208.243 19.3477C207.086 24.611 205.971 29.8784 205.148 35.2598L205.131 35.4634C205.127 35.7621 205.137 36.0849 205.208 36.4586C205.289 36.9114 205.643 37.4602 206.153 37.7633C206.662 38.0739 207.172 38.0819 207.545 38.0667C207.822 38.056 208.056 38.0371 208.276 38.0744C208.795 38.1595 209.288 38.1811 209.774 38.1937C210.163 38.2028 210.546 38.2025 210.924 38.2026C211.087 38.2026 211.242 38.1381 211.357 38.0234C211.472 37.9087 211.536 37.7531 211.536 37.5908C211.536 37.4286 211.472 37.273 211.357 37.1582C211.242 37.0435 211.087 36.9791 210.924 36.9791C210.546 36.979 210.171 36.9792 209.803 36.9705C209.344 36.9592 208.891 36.9361 208.477 36.8677C208.304 36.8389 208.148 36.7333 208.047 36.5942C207.898 36.4018 207.902 36.1442 208.038 36.0431C208.17 35.9377 208.311 35.9531 208.289 35.865C208.275 35.7977 208.265 35.6705 208.268 35.5196L208.251 35.7232C209.05 30.496 210.157 25.2488 211.306 20.0261C211.389 19.6503 211.468 19.2941 211.553 18.9179Z" fill="white"/>
<path d="M206.971 29.242C206.678 29.4498 206.478 29.7658 206.418 30.1205C206.357 30.4751 206.439 30.8395 206.647 31.1333C206.855 31.4271 207.171 31.6264 207.525 31.6872C207.88 31.7481 208.244 31.6655 208.538 31.4578C209.186 30.9995 209.831 30.5439 210.475 30.1001C212.069 29.0162 213.8 27.8321 215.264 27.4033C215.276 27.4002 215.288 27.3973 215.299 27.3944C215.792 27.2702 216.054 27.4262 216.111 27.5827C216.199 27.7384 216.349 28.1212 216.505 28.6347C216.511 28.6516 216.516 28.6685 216.522 28.6855C217.489 31.8883 216.944 35.926 216.912 39.9376C216.912 39.9533 216.911 39.9691 216.911 39.9849C216.84 44.8135 217.255 49.7828 218.65 54.5659C218.651 54.5691 218.652 54.5723 218.653 54.5756L218.713 54.7565C219.552 56.7566 222.075 57.4771 223.304 58.7405C223.306 58.7426 223.308 58.7448 223.31 58.7469C223.496 58.9417 223.685 59.1314 223.879 59.3174C224.45 59.8689 225.075 60.3612 225.714 60.8322C225.714 60.8322 225.714 60.8322 225.714 60.8322C225.075 60.3612 224.45 59.8689 223.879 59.3174C223.685 59.1314 223.496 58.9417 223.31 58.7469C223.308 58.7448 223.306 58.7426 223.304 58.7405C221.971 57.35 222.39 54.9511 221.887 53.5066L221.946 53.6876C221.946 53.6846 221.945 53.6816 221.944 53.6787C220.865 49.2835 220.701 44.6821 220.77 40.0388C220.77 40.0236 220.77 40.0084 220.77 39.9932C220.755 36.097 221.264 31.9978 219.78 27.5488C219.771 27.5249 219.762 27.5011 219.753 27.4773C219.439 26.6854 218.931 25.7472 217.862 25.0839C216.763 24.4043 215.488 24.5369 214.641 24.7617C214.619 24.7672 214.597 24.7728 214.575 24.7786C212.204 25.5165 210.642 26.739 208.936 27.8651C208.272 28.3222 207.62 28.7837 206.971 29.242Z" fill="white"/>
<path d="M205.642 28.083C205.642 28.083 205.642 28.083 205.642 28.083C206.099 27.7714 206.557 27.4598 207.014 27.1485C211.45 24.1328 215.895 21.1188 220.505 18.3742C220.509 18.3717 220.513 18.3693 220.517 18.3668C224.462 16.0174 228.555 13.932 232.675 11.9115C233.172 11.6674 233.669 11.4238 234.166 11.1802C234.166 11.1802 234.166 11.1802 234.166 11.1802C233.669 11.4238 233.172 11.6674 232.675 11.9115C228.555 13.932 224.462 16.0174 220.517 18.3668C220.513 18.3693 220.509 18.3717 220.505 18.3742C215.895 21.1188 211.45 24.1328 207.014 27.1485C206.557 27.4598 206.099 27.7714 205.642 28.083Z" fill="white"/>
<path d="M209.69 25.8592C209.661 26.1866 209.762 26.5122 209.973 26.7645C210.184 27.0168 210.486 27.1751 210.813 27.2045C211.141 27.234 211.466 27.1322 211.718 26.9216C211.971 26.711 212.129 26.4087 212.159 26.0814C212.159 26.0814 212.159 26.0814 212.159 26.0814C212.123 26.1145 212.289 25.7854 212.603 25.4672C212.816 25.2405 213.065 25.0078 213.325 24.7774L213.279 24.8157C213.383 24.7323 213.52 24.6235 213.626 24.5391C219.35 20.0844 225.021 15.4709 231.124 11.5383C231.404 11.3604 231.696 11.1715 231.973 10.9891C233.106 10.2439 234.194 9.43857 235.292 8.63739C235.722 8.32381 236.152 8.01087 236.585 7.70435C236.103 7.92667 235.617 8.14268 235.13 8.35549C233.886 8.89965 232.639 9.42371 231.42 10.0145C231.117 10.1608 230.802 10.3223 230.505 10.483C224.048 14.0475 217.908 18.0662 212.087 22.5965C211.977 22.6834 211.836 22.7959 211.728 22.8831L211.682 22.9214C211.386 23.1844 211.092 23.4568 210.795 23.7722C210.407 24.2229 209.827 24.7495 209.69 25.8592Z" fill="white"/>
<path d="M12.0742 19.0319C12.0822 18.5223 11.8875 18.0304 11.5329 17.6644C11.1783 17.2984 10.6928 17.0882 10.1832 17.0801C9.67368 17.0721 9.18178 17.2668 8.81575 17.6214C8.44973 17.976 8.23957 18.4615 8.2315 18.9711C8.2315 18.9711 8.2315 18.9711 8.2315 18.9711C8.21381 20.0889 8.19612 21.2065 8.17796 22.3239C8.05814 29.7774 7.90977 37.2177 7.62996 44.6504C7.62987 44.653 7.62977 44.6557 7.62967 44.6583C7.3196 52.8943 7.413 61.1719 7.31987 69.4434C7.31984 69.446 7.31981 69.4487 7.31978 69.4513C7.27381 73.1538 7.92145 76.8869 7.6615 80.5741C7.66136 80.576 7.66122 80.5779 7.66108 80.5799C7.60972 81.2759 7.55291 81.9701 7.49007 82.6645C7.38975 83.7779 7.27215 84.8899 7.15283 86.0015C7.27215 84.8899 7.38975 83.7779 7.49007 82.6645C7.55291 81.9701 7.60972 81.2759 7.66108 80.5799C7.66122 80.5779 7.66136 80.576 7.66151 80.5741C7.92299 76.8901 8.93575 73.2461 9.3166 69.564C9.31687 69.5614 9.31714 69.5587 9.3174 69.5561C10.16 61.3277 11.1581 53.0872 11.4701 44.8021C11.4702 44.7995 11.4703 44.7968 11.4704 44.7942C11.7518 37.3194 11.9007 29.8468 12.0206 22.3863C12.0388 21.2679 12.0565 20.1498 12.0742 19.0319Z" fill="white"/>
<path d="M0.076331 32.0274C-0.0331552 32.3129 -0.0247405 32.6302 0.0997242 32.9095C0.224189 33.1888 0.454508 33.4072 0.740014 33.5167C1.02552 33.6262 1.34282 33.6178 1.62213 33.4933C1.90143 33.3688 2.11985 33.1385 2.22933 32.853C2.22933 32.853 2.22933 32.853 2.22933 32.853C3.20012 30.322 4.15349 27.834 5.5148 25.6593C5.63791 25.4627 5.76421 25.269 5.89396 25.0783C5.90447 25.0629 5.91499 25.0475 5.92554 25.0321C7.4421 22.817 9.52561 20.9932 11.814 19.4601C11.834 19.4467 11.8539 19.4334 11.8739 19.42C14.0793 17.9443 16.4719 16.7837 18.9879 15.9581C19.0045 15.9526 19.0211 15.9472 19.0377 15.9418C21.5173 15.1315 24.1069 14.6422 26.6865 14.4946C26.6908 14.4943 26.6952 14.4941 26.6996 14.4938C28.9277 14.3715 31.1702 14.5243 33.0914 15.2168C33.0981 15.2192 33.1048 15.2216 33.1114 15.2241C34.7097 15.7999 35.8126 16.7448 36.2546 18.1207C36.2558 18.1242 36.2569 18.1277 36.2581 18.1313C36.8149 19.8521 36.5445 22.1413 35.738 23.9999C35.7326 24.0123 35.7271 24.0248 35.7217 24.0372C34.8323 26.0786 33.123 27.8308 31.2062 29.456C31.1887 29.4709 31.1711 29.4858 31.1535 29.5006C28.9877 31.3379 26.611 32.9563 24.1339 34.4796C24.1147 34.4914 24.0955 34.5032 24.0763 34.5149C21.0402 36.3752 17.8407 37.9556 14.636 39.448C14.6225 39.4542 14.6091 39.4605 14.5956 39.4667C11.8418 40.7488 9.03101 41.8762 6.11257 43.0646C6.10841 43.0664 6.10426 43.0681 6.10012 43.0698C5.79504 43.1983 5.51335 43.3173 5.15639 43.4913C5.06589 43.5365 4.97274 43.5822 4.82859 43.667C4.74451 43.722 4.68906 43.736 4.44819 43.9443C4.39917 43.9901 4.28522 44.0933 4.16222 44.2742C4.09246 44.3778 3.97383 44.5745 3.90749 44.8533C3.82137 45.1163 3.85056 45.764 4.10126 46.1396C4.31049 46.4989 4.61696 46.7022 4.75557 46.7776C4.89958 46.8573 5.01446 46.8983 5.10889 46.9273C5.26017 46.9722 5.35696 46.9847 5.42677 46.9938C5.68819 47.0202 5.74815 47.0068 5.84112 47.0046C5.92135 47 5.98407 46.994 6.04051 46.9881C6.15359 46.9761 6.24726 46.9632 6.33616 46.9505C6.44749 46.9345 6.55119 46.9182 6.65325 46.9017C8.96651 46.5346 11.3036 46.1165 13.4165 46.0824C13.4879 46.0819 13.5618 46.0823 13.6318 46.0834C15.0364 46.1142 17.3334 47.3516 19.3079 48.1951C19.374 48.2244 19.441 48.2542 19.5087 48.2844C25.8205 51.1351 32.1335 54.2082 38.6226 56.9645C38.6706 56.9848 38.7185 57.005 38.7664 57.0252C43.6881 59.1142 48.8355 60.8741 54.0615 62.0897C54.0916 62.0969 54.1216 62.1039 54.1516 62.1109C57.3817 62.858 60.8329 62.4843 64.1011 62.7662C64.7073 62.8185 65.3083 62.8934 65.9021 63.0019C65.9129 63.0039 65.9238 63.0059 65.9346 63.0078C67.9999 63.388 70.0728 63.7191 72.1528 64.0015C72.1528 64.0015 72.1528 64.0015 72.1528 64.0015C70.0728 63.7191 67.9999 63.388 65.9346 63.0078C65.9238 63.0059 65.9129 63.0039 65.9021 63.0019C65.3083 62.8934 64.7207 62.7454 64.139 62.5693C60.9915 61.6159 58.0522 59.8517 54.9502 58.9835C54.9212 58.9754 54.8922 58.9673 54.8632 58.9594C49.821 57.6037 44.9725 55.8122 40.1566 53.7477C40.11 53.7278 40.0632 53.7078 40.0163 53.6877C33.6503 50.9572 27.3959 47.8893 20.9786 44.9896C20.9093 44.9587 20.8408 44.9282 20.773 44.8981C18.594 44.0367 16.8212 42.9341 13.6743 42.6947C13.582 42.6938 13.4864 42.6936 13.3955 42.6942C10.7855 42.7449 8.46088 43.1634 6.11674 43.5107C6.02675 43.5246 5.93949 43.5376 5.85959 43.5484C5.79672 43.557 5.73549 43.5643 5.69455 43.5679C5.67498 43.5697 5.65913 43.5705 5.66297 43.5699C5.6764 43.5714 5.66289 43.5606 5.84567 43.5782C5.89634 43.585 5.97247 43.5938 6.10688 43.6336C6.19074 43.6594 6.2966 43.6967 6.43315 43.7722C6.56389 43.8434 6.86103 44.0392 7.06624 44.3912C7.31198 44.759 7.34029 45.3952 7.25647 45.6497C7.19191 45.9204 7.0785 46.1068 7.01425 46.2023C6.89973 46.3702 6.80381 46.4548 6.76637 46.4902C6.58419 46.6466 6.59327 46.6211 6.57684 46.6358C6.56534 46.6429 6.61378 46.6176 6.6594 46.5967C6.86696 46.5005 7.14537 46.3867 7.41976 46.2754C7.42359 46.2738 7.42743 46.2723 7.43128 46.2707C10.2602 45.1539 13.2301 44.03 16.0953 42.6963C16.1093 42.6898 16.1234 42.6832 16.1375 42.6767C19.4924 41.114 22.6535 39.2174 25.7839 37.2952C25.8037 37.283 25.8235 37.2708 25.8433 37.2587C28.3968 35.6882 30.93 33.9886 33.272 32.0027C33.2909 31.9866 33.3099 31.9706 33.3288 31.9545C35.3805 30.2038 37.4824 28.1308 38.6989 25.3339C38.7061 25.3171 38.7134 25.3003 38.7206 25.2834C39.76 22.7496 40.1959 19.979 39.2885 17.1031C39.2864 17.0971 39.2843 17.0911 39.2822 17.085C38.5266 14.6689 36.2092 12.9537 34.1232 12.3208C34.1142 12.3178 34.1052 12.3148 34.0963 12.3118C31.5351 11.4751 28.9583 11.4396 26.4928 11.646C26.488 11.6464 26.4831 11.6468 26.4783 11.6473C23.6359 11.9018 20.8633 12.5463 18.1991 13.4917C18.1813 13.498 18.1635 13.5044 18.1457 13.5107C15.4479 14.4713 12.8656 15.7932 10.5159 17.4208C10.4946 17.4355 10.4734 17.4502 10.4521 17.4649C8.01772 19.1529 5.7493 21.2077 4.02346 23.7286C4.0115 23.746 3.99958 23.7635 3.98768 23.781C3.84072 23.9969 3.69845 24.2152 3.56052 24.4354C2.03788 26.8746 1.05007 29.4973 0.076331 32.0274Z" fill="white"/>
<path d="M48.3599 28.8867C48.3137 28.5529 48.1369 28.2511 47.8682 28.0477C47.5995 27.8443 47.2611 27.7559 46.9273 27.8021C46.5935 27.8482 46.2916 28.0251 46.0882 28.2937C45.8848 28.5624 45.7965 28.9008 45.8426 29.2347C45.8426 29.2347 45.8426 29.2347 45.8426 29.2347C45.8884 29.5644 45.9341 29.9021 45.9946 30.26C46.0253 30.4396 46.0591 30.624 46.1072 30.8285C46.1677 31.0457 46.1778 31.2196 46.4112 31.6523C46.4169 31.6619 46.4227 31.6717 46.4288 31.6815C46.5461 31.8548 46.7572 32.212 47.3597 32.3748C47.9799 32.5104 48.379 32.2547 48.5576 32.1398C48.9259 31.8721 49.0161 31.7082 49.1337 31.5664C49.1417 31.5557 49.1496 31.5449 49.1575 31.534C49.5435 30.9745 49.6204 30.4988 49.6763 30.0684C49.7331 29.5331 49.6965 29.0544 49.6278 28.5949C49.6268 28.5891 49.6258 28.5833 49.6248 28.5776C49.5433 28.0751 49.2058 27.6384 48.9382 27.4239C48.663 27.196 48.4296 27.0837 48.2244 26.9909C47.8154 26.8141 47.4873 26.7307 47.1728 26.6647C47.1674 26.6636 47.162 26.6625 47.1565 26.6614C45.7009 26.3829 44.3724 26.6112 43.1672 26.8719C43.1664 26.8721 43.1657 26.8723 43.165 26.8724C41.0045 27.3783 39.0196 28.0871 37.0405 29.0578C37.0335 29.0613 37.0265 29.0648 37.0195 29.0683C35.2516 29.9471 33.5751 31.0987 32.1381 32.436C32.1255 32.4477 32.1129 32.4594 32.1003 32.471C30.4391 34.1582 28.5632 35.7978 28.2705 39.2488C28.2706 39.2947 28.2714 39.3407 28.2729 39.3867C28.2816 40.0201 28.5911 40.6688 28.9169 41.0374C29.2452 41.4209 29.5632 41.6306 29.8423 41.7942C30.4026 42.1094 30.8644 42.248 31.3051 42.3693C31.3328 42.3767 31.3604 42.3839 31.388 42.391C34.8895 43.1025 37.5422 42.2068 40.2378 41.6076C40.2651 41.6007 40.2922 41.5936 40.3193 41.5863C40.6449 41.4996 40.9646 41.3741 41.277 41.2426C41.4339 41.1767 41.5891 41.1092 41.74 41.0462C41.8148 41.0149 41.8893 40.9845 41.9544 40.9593C42.0031 40.9373 42.13 40.9035 41.9975 40.9343C41.9665 40.9393 41.9392 40.9483 41.8147 40.9556C41.7627 40.9571 41.6594 40.9633 41.4887 40.9323C41.3977 40.9153 41.2355 40.8756 41.058 40.7781C40.8835 40.6921 40.5758 40.4325 40.4382 40.1232C40.3338 39.9105 40.3021 39.6633 40.3161 39.4917C40.3286 39.3204 40.3681 39.2117 40.3924 39.1493C40.449 39.016 40.4689 39.0054 40.4689 39.0012C40.4674 39.0036 40.4003 39.077 40.3211 39.1485C40.1605 39.2956 39.9408 39.4712 39.7158 39.6435C39.2614 39.9907 38.7647 40.3466 38.2688 40.7107C37.2734 41.4398 36.2641 42.2084 35.3042 43.0749C35.2787 43.0981 35.2533 43.1212 35.2281 43.1442C34.1908 44.0912 33.1267 45.1755 32.418 46.5204C32.4041 46.5468 32.3903 46.5732 32.3767 46.5998C32.1664 47.0194 31.9552 47.4807 31.8312 48.1307C31.7064 48.7414 31.7202 49.8144 32.3748 50.6588L32.9356 51.1571C32.9666 51.1752 32.9978 51.1929 33.0292 51.2102C37.4906 52.7947 40.0238 51.2079 43.0781 50.596L43.1473 50.5777C43.1609 50.5734 43.1745 50.569 43.1881 50.5647C45.5539 49.8 47.8372 48.953 50.1183 48.1025C51.275 47.6697 52.4277 47.233 53.5787 46.7951C53.8894 46.6767 54.1427 46.4361 54.2847 46.1308C54.4265 45.8252 54.4453 45.48 54.3353 45.1664C54.2252 44.8528 53.9949 44.5951 53.6932 44.4452C53.3916 44.2955 53.0435 44.2659 52.7269 44.3676C51.5547 44.7449 50.3848 45.1234 49.2156 45.4962C46.9137 46.2277 44.6065 46.9542 42.3164 47.5427C42.3033 47.5461 42.2902 47.5494 42.2771 47.5527L42.3463 47.5345C39.6799 48.0952 36.0675 48.4205 34.8762 47.8579C34.873 47.8561 34.8702 47.8545 34.8677 47.8531L35.4285 48.3514C35.5173 48.4639 35.5773 48.6316 35.5872 48.7206C35.5995 48.8132 35.5872 48.8314 35.5923 48.8003C35.5984 48.7351 35.6669 48.5174 35.7771 48.2873C35.784 48.2725 35.7912 48.2573 35.7985 48.242C36.2398 47.314 36.7798 46.3739 37.5672 45.552C37.5861 45.5323 37.6051 45.5125 37.6244 45.4926C38.4107 44.6827 39.2676 43.912 40.1782 43.1526C40.6341 42.7712 41.1018 42.3962 41.5924 41.9898C41.8389 41.784 42.0898 41.5748 42.366 41.3106C42.5081 41.1718 42.6543 41.0297 42.836 40.7917C42.9247 40.6694 43.0287 40.533 43.1439 40.256C43.2458 40.008 43.4007 39.4495 43.1125 38.8436C42.9729 38.5297 42.6606 38.266 42.482 38.1778C42.3005 38.0781 42.1324 38.0366 42.0364 38.0186C41.8569 37.9859 41.7409 37.992 41.6798 37.9939C41.5331 38.0023 41.4864 38.0146 41.435 38.0235C41.1547 38.0856 41.1361 38.1021 41.0409 38.1257C40.962 38.1469 40.8919 38.1638 40.8222 38.1787C40.6833 38.2085 40.5493 38.2298 40.4135 38.2483C40.1436 38.2849 39.8721 38.3088 39.605 38.353C39.5783 38.3576 39.5516 38.3624 39.525 38.3674C36.9772 38.8391 34.1801 39.2903 32.3628 38.7895C32.3454 38.7844 32.3283 38.7793 32.3113 38.7742C32.0463 38.6958 31.8058 38.5949 31.7278 38.5439C31.6901 38.5231 31.706 38.5131 31.7966 38.6153C31.8845 38.7053 32.0358 38.9997 32.0356 39.2636C32.0354 39.2561 32.0352 39.248 32.0352 39.2394C32.0187 38.2951 33.2581 36.4005 34.6171 35.1229C34.6277 35.1125 34.6383 35.1022 34.649 35.0919C35.8574 33.9144 37.1518 32.8901 38.6115 32.0606C38.6173 32.0573 38.6231 32.054 38.6289 32.0507C40.2655 31.13 42.103 30.3243 43.8946 29.8107C43.8951 29.8105 43.8957 29.8103 43.8963 29.8102C44.8912 29.5337 45.8622 29.3903 46.6589 29.5045C46.662 29.5049 46.6652 29.5054 46.6683 29.5058C46.899 29.538 47.1174 29.569 47.2273 29.5889C47.2801 29.5956 47.3002 29.6051 47.2427 29.5499C47.1919 29.5055 47.0297 29.307 46.9978 29.0797C46.9974 29.0771 46.997 29.0746 46.9966 29.0721C47.0598 29.3458 47.0867 29.6161 47.0752 29.8233C47.0726 29.9857 47.013 30.1143 47.0559 30.0503C47.057 30.0491 47.0581 30.0477 47.0592 30.0464C47.0239 30.1104 46.9547 30.1546 47.112 30.0367C47.1864 29.9937 47.456 29.7948 47.9482 29.8994C48.4232 30.0317 48.5425 30.2844 48.5925 30.3487C48.595 30.3529 48.5974 30.3568 48.5996 30.3605C48.6698 30.5025 48.5986 30.3483 48.5802 30.2441C48.5522 30.1253 48.525 29.982 48.4999 29.8343C48.4495 29.5369 48.4054 29.2154 48.3599 28.8867Z" fill="white"/>
<path d="M65.6689 30.3875C65.5165 30.7968 65.5329 31.25 65.7146 31.6472C65.8962 32.0445 66.2283 32.3533 66.6377 32.5057C67.047 32.6582 67.5002 32.6417 67.8974 32.46C68.2947 32.2784 68.6035 31.9463 68.7559 31.5369C68.7559 31.5369 68.7559 31.5369 68.7559 31.5369C69.0936 30.6272 69.4436 29.701 69.7513 28.7023C70.0248 27.6528 70.4581 26.7065 70.1877 24.9709C70.162 24.8537 70.1308 24.7388 70.0908 24.6194C69.7479 23.4181 68.4715 22.5829 67.6151 22.3832C66.7149 22.1327 65.9478 22.1253 65.2233 22.192C65.1456 22.1998 65.0677 22.209 64.9906 22.2195C63.0862 22.4797 61.3859 23.2797 59.9618 24.2549C59.9223 24.282 59.8828 24.3093 59.8434 24.3369C58.0655 25.5893 56.5601 27.0972 55.2784 28.7967C55.2438 28.8428 55.2094 28.8891 55.1751 28.9355C53.8598 30.7152 52.7723 32.8295 52.3502 35.1805C52.3294 35.2952 52.3103 35.4103 52.2928 35.5254C52.0044 37.6936 52.0445 39.9936 53.4538 42.2857C53.5793 42.4772 53.716 42.6629 53.8632 42.8408C55.5516 44.8248 57.8027 45.2448 59.5374 45.5396C59.6903 45.5631 59.8435 45.585 59.9966 45.6053C62.6107 45.9403 65.1269 45.495 67.5782 45.1127C67.6668 45.0987 67.7553 45.0847 67.8439 45.0707C70.4428 44.6574 72.943 43.6929 75.4834 43.3653C75.5149 43.3612 75.5463 43.3572 75.5774 43.3533C76.1517 43.2814 76.7257 43.2017 77.2973 43.1111C78.2543 42.9611 79.205 42.7709 80.1528 42.5705C80.1528 42.5705 80.1528 42.5705 80.1528 42.5705C79.205 42.7709 78.2543 42.9611 77.2973 43.1111C76.7257 43.2017 76.1517 43.2814 75.5774 43.3533C75.5463 43.3572 75.5149 43.361 75.4833 43.3646C72.9287 43.657 70.3037 43.0984 67.7716 42.8601C67.685 42.8519 67.5985 42.8433 67.5122 42.8343C65.1169 42.5823 62.7603 42.0819 60.5691 41.7258C60.4405 41.7045 60.3131 41.6823 60.1872 41.6592C58.6825 41.3958 57.4349 40.9382 56.9448 40.2906C56.8935 40.2285 56.8454 40.1634 56.7998 40.0938C56.218 39.2256 56.0149 37.5828 56.2475 36.126C56.2593 36.048 56.2723 35.9701 56.2863 35.8927C56.5724 34.2932 57.3372 32.7399 58.3947 31.3092C58.4222 31.272 58.4498 31.2348 58.4776 31.1978C59.5113 29.8229 60.7642 28.578 62.1371 27.6139C62.1674 27.5927 62.1977 27.5717 62.2279 27.5508C63.3284 26.7897 64.4562 26.1974 65.5962 25.967C65.6427 25.9575 65.6894 25.9482 65.7357 25.939C66.1698 25.8512 66.5927 25.7921 66.8402 25.7953C66.9628 25.7942 67.0221 25.8054 67.0131 25.777C67.0041 25.7523 66.9632 25.6683 66.9676 25.6665C66.9674 25.666 66.9684 25.6688 66.9698 25.6754C67.0456 25.8977 66.8697 26.9134 66.6016 27.7375C66.3389 28.5924 66.0062 29.4803 65.6689 30.3875Z" fill="white"/>
<path d="M90.8665 18.3582C90.5713 18.2604 90.2494 18.2839 89.9715 18.4234C89.6936 18.563 89.4825 18.8072 89.3847 19.1024C89.2869 19.3976 89.3103 19.7196 89.4499 19.9975C89.5895 20.2754 89.8337 20.4865 90.1289 20.5843C90.1289 20.5843 90.1289 20.5843 90.1289 20.5843C89.9576 20.5306 89.867 20.3943 89.8843 20.4163C89.8924 20.4271 89.9324 20.519 89.9615 20.6316C89.9625 20.6352 89.9634 20.6389 89.9644 20.6426C90.0112 20.8264 89.985 21.0306 89.9287 21.2004C89.9011 21.2844 89.8648 21.3627 89.834 21.4034C89.8196 21.4217 89.8037 21.4343 89.8087 21.3986C89.8135 21.3781 89.8175 21.3508 89.8667 21.2645C89.895 21.2188 89.9293 21.1588 90.032 21.0538C90.1391 20.9681 90.3304 20.7071 90.957 20.6762C91.0487 20.6759 91.1434 20.6853 91.2351 20.7045C91.5043 20.7377 91.7566 20.9991 91.769 21.0361C91.8032 21.0872 91.7705 21.013 91.748 20.9049C91.5777 20.4075 91.7115 19.4069 90.6173 18.2103C90.4992 18.0971 90.3698 17.9953 90.2318 17.9072C88.9896 17.2053 88.0984 17.5216 87.4349 17.6529C86.756 17.8311 86.1926 18.0656 85.6472 18.3088C84.5669 18.7987 83.5905 19.3379 82.6259 19.8719C82.545 19.9171 82.4647 19.9626 82.3849 20.0084C79.4793 21.6885 76.8868 23.9122 74.9713 26.782C74.9309 26.8437 74.8914 26.9065 74.8528 26.9709C74.4638 27.6673 73.9033 28.7003 74.3972 30.2088C74.4513 30.3563 74.5201 30.4997 74.5952 30.6271C75.6349 32.0532 76.4067 31.9338 76.99 32.1347C77.5884 32.2575 78.101 32.2937 78.6032 32.3152C79.6004 32.3516 80.5262 32.3033 81.4436 32.2434C81.502 32.2397 81.56 32.2357 81.6175 32.2314C82.429 32.1708 83.2098 31.9998 83.9313 31.8177C84.2897 31.7278 84.6412 31.6336 84.9353 31.5689C85.0772 31.5367 85.2174 31.5146 85.2557 31.5075C85.2701 31.5013 85.2635 31.5092 85.1303 31.472C85.0625 31.4503 84.9555 31.4157 84.8059 31.3112C84.6611 31.2129 84.4873 31.0191 84.4008 30.8211C84.2861 30.577 84.293 30.3126 84.3185 30.195C84.3912 29.9216 84.3783 30.0422 84.3008 30.1133C84.226 30.2011 84.1091 30.3178 83.9794 30.435C83.7177 30.6718 83.3992 30.9235 83.0721 31.1794C82.4126 31.7003 81.6977 32.2247 80.9972 33.0002C80.9048 33.103 80.8147 33.206 80.7258 33.311C78.6087 35.7928 77.0737 38.7602 76.0417 41.7638C76.0093 41.8579 75.9784 41.9532 75.9491 42.05C75.6218 43.1356 75.3463 44.9589 76.6639 46.4885C76.7452 46.5807 76.8317 46.6694 76.9221 46.7531C78.247 47.8799 79.3921 47.87 80.3012 47.9728C81.2315 48.0322 82.0673 47.9915 82.8915 47.9311C82.9409 47.9273 82.9907 47.9234 83.0408 47.9193C86.9459 47.5596 90.4814 46.2458 94.1402 45.3315C94.1648 45.3252 94.1894 45.3189 94.214 45.3126C96.4821 44.7371 98.7179 44.0391 100.909 43.2787C102.161 42.8451 103.4 42.3937 104.631 41.9451C104.979 41.8183 105.262 41.5585 105.418 41.2229C105.575 40.8873 105.591 40.5033 105.465 40.1554C105.338 39.8075 105.078 39.5242 104.742 39.3679C104.407 39.2115 104.023 39.1949 103.675 39.3216C103.675 39.3216 103.675 39.3216 103.675 39.3216C102.443 39.7704 101.219 40.2163 99.9948 40.6403C97.8522 41.3839 95.7038 42.0538 93.5254 42.6067C93.5018 42.6127 93.4781 42.6187 93.4544 42.6247C89.9348 43.4924 86.1852 43.6178 82.7178 43.9324C82.6741 43.9359 82.6309 43.9393 82.5882 43.9426C81.8768 43.9964 81.1746 44.0221 80.5706 43.9819C79.9714 43.9661 79.4808 43.7405 79.6416 43.8198C79.6484 43.8261 79.6556 43.8335 79.6621 43.841C79.6892 43.8659 79.6809 43.9201 79.662 43.7903C79.6465 43.6696 79.6654 43.4232 79.7401 43.142C79.7522 43.0952 79.7658 43.0471 79.7807 42.9979C80.6166 40.2729 81.8005 37.7398 83.4784 35.52C83.549 35.4263 83.6192 35.3331 83.6904 35.239C84.0701 34.7272 84.6205 34.1349 85.2018 33.5252C85.4943 33.2174 85.8018 32.9021 86.1275 32.5419C86.291 32.3595 86.4599 32.1677 86.6431 31.9222C86.8193 31.6586 87.0505 31.4267 87.2095 30.736C87.2686 30.4425 87.2664 29.9931 87.0749 29.585C86.8105 28.9819 86.207 28.6912 85.9319 28.6229C85.6263 28.5381 85.4415 28.5343 85.2766 28.5262C84.9592 28.518 84.7404 28.5374 84.5304 28.5516C84.1173 28.5835 83.7662 28.616 83.4201 28.6384C82.733 28.6846 82.0942 28.695 81.4793 28.689C81.4358 28.6886 81.3922 28.6879 81.3484 28.687C80.4907 28.6724 79.64 28.6389 78.8659 28.5551C78.4828 28.5132 78.1132 28.4552 77.8437 28.3829C77.7123 28.3486 77.6056 28.3057 77.5926 28.2944C77.5699 28.2918 77.7133 28.2923 77.9522 28.6613C77.9889 28.7232 78.0242 28.7959 78.052 28.8715C78.1268 29.077 78.0931 29.1906 78.0963 29.1824C78.0961 29.1786 78.1266 29.0888 78.1949 28.9772C78.207 28.957 78.2202 28.9358 78.2346 28.9136C79.7503 26.6172 81.7687 24.4633 84.1522 22.9085C84.2177 22.8658 84.2837 22.8234 84.3502 22.7812C85.259 22.2085 86.1607 21.6445 87.0365 21.183C87.4719 20.9545 87.907 20.7522 88.2759 20.6309C88.4574 20.5703 88.6217 20.5347 88.709 20.5244C88.8026 20.5116 88.7663 20.5301 88.6496 20.4514C88.6241 20.4333 88.5989 20.4114 88.5782 20.3893C88.5338 20.3215 88.6324 20.4163 88.7088 20.6575C88.793 20.8976 88.8591 21.2247 88.9953 21.6803C89.0652 21.8968 89.1409 22.1507 89.3493 22.4938C89.5316 22.8216 90.056 23.3326 90.665 23.4305C90.7623 23.4508 90.8626 23.4608 90.9601 23.4605C91.6244 23.4294 91.8492 23.1443 91.9826 23.0327C92.1115 22.9018 92.1679 22.8115 92.2167 22.7331C92.3059 22.5822 92.3399 22.4881 92.3724 22.3971C92.4315 22.222 92.4547 22.0879 92.4714 21.9598C92.5021 21.7064 92.4955 21.4867 92.4763 21.2698C92.4358 20.8395 92.3381 20.4433 92.2324 20.046C92.2304 20.0384 92.2284 20.0309 92.2264 20.0234C92.161 19.7873 92.0818 19.5331 91.9071 19.2299C91.7445 18.9407 91.3871 18.5233 90.8665 18.3582Z" fill="white"/>
<path d="M96.022 21.0379C96.0317 20.5762 95.8576 20.1296 95.5379 19.7963C95.2183 19.463 94.7794 19.2703 94.3177 19.2607C93.856 19.251 93.4094 19.4251 93.0761 19.7448C92.7428 20.0644 92.5501 20.5033 92.5404 20.965C92.5404 20.965 92.5404 20.965 92.5404 20.965C92.5338 21.2829 92.5271 21.6007 92.5205 21.9188C92.4606 25.2655 92.3543 28.57 92.4487 32.0248C92.4942 33.4106 92.7695 34.7432 92.9894 35.9046C93.1974 36.992 94.9323 37.8521 95.1158 39.0486C95.1237 39.0977 95.1286 39.1474 95.1305 39.1975C95.1403 39.4667 95.145 39.7306 95.145 40.0015C95.145 40.0035 95.1458 40.0055 95.1473 40.007C95.1488 40.0085 95.1508 40.0093 95.1528 40.0093C95.1549 40.0093 95.1569 40.0085 95.1584 40.007C95.1598 40.0055 95.1606 40.0035 95.1606 40.0015C95.1606 40.0015 95.1606 40.0015 95.1606 40.0015C95.1606 39.7304 95.1559 39.4663 95.1461 39.197C95.1442 39.1468 95.1452 39.0969 95.1487 39.0472C95.2369 37.9147 96.6419 36.4608 96.412 35.2624C96.1759 34.0264 95.9628 32.9556 95.9286 31.8942C95.8396 28.6842 95.9414 25.313 96.0021 21.9911C96.0087 21.6734 96.0154 21.3557 96.022 21.0379Z" fill="white"/>
<path d="M94.2353 20.1201C94.2353 20.4342 94.3601 20.7354 94.5822 20.9575C94.8043 21.1796 95.1055 21.3044 95.4196 21.3044C95.7337 21.3044 96.0349 21.1796 96.257 20.9575C96.4791 20.7354 96.6039 20.4342 96.6039 20.1201C96.6039 20.1201 96.6039 20.1201 96.6039 20.1201C96.6039 19.9715 96.6041 19.8317 96.6091 19.7288C96.6112 19.6796 96.6165 19.6348 96.6155 19.644C96.6132 19.6517 96.6151 19.6672 96.5834 19.7556C96.5652 19.8005 96.5427 19.8667 96.4578 19.9863C96.3786 20.0961 96.1817 20.3173 95.8307 20.4057C95.8111 20.4106 95.791 20.4149 95.7705 20.4187C95.5435 20.4655 95.2862 20.4032 95.161 20.3358C95.0289 20.2685 94.9797 20.2155 94.9509 20.1892C94.8976 20.1341 94.9154 20.1504 94.9291 20.1823C94.963 20.2504 95.0176 20.3876 95.0636 20.5294C95.1587 20.8193 95.2439 21.16 95.324 21.5016C95.4659 22.1085 95.5994 22.7432 95.7741 23.3763C95.7829 23.4083 95.7918 23.4404 95.8008 23.4727C96.6617 26.5607 97.5824 29.6554 98.5962 32.7353C98.6004 32.748 98.6046 32.7606 98.6088 32.7732C98.8681 33.5477 99.1545 34.3263 99.5533 35.1274C100.022 35.9222 100.246 36.7819 101.818 37.6846C101.865 37.7066 101.914 37.7273 101.965 37.7465C102.328 37.8932 102.822 37.934 103.205 37.8506C103.587 37.7737 103.869 37.6198 104.059 37.495C104.453 37.2275 104.63 37.0054 104.791 36.811C105.093 36.426 105.258 36.1198 105.415 35.822C105.718 35.2329 105.935 34.6911 106.135 34.1572C106.53 33.088 106.841 32.0462 107.12 30.9977C107.135 30.9427 107.149 30.8873 107.163 30.8317C107.856 27.9318 108.007 25.2181 108.125 22.4787C108.126 22.4475 108.127 22.4163 108.128 22.3852C108.229 19.6399 108.037 16.7898 107.389 14.0404C107.387 14.0315 107.385 14.0227 107.383 14.0138C106.751 11.3352 105.676 8.81089 104.273 6.45383C104.269 6.44729 104.265 6.44076 104.261 6.43423C103.093 4.49307 101.603 2.64323 99.6249 1.29617C99.6144 1.28906 99.6039 1.28202 99.5933 1.27506C98.6255 0.636903 97.3369 0.613111 96.2437 0.552101C95.7203 0.5206 95.2282 0.473199 94.775 0.321795C94.7711 0.320517 94.7673 0.319243 94.7635 0.317974C94.2424 0.147941 93.7063 -0.0181276 93.1528 0.00146484C93.7063 -0.0181276 94.2424 0.147941 94.7635 0.317974C94.7673 0.319243 94.7711 0.320517 94.775 0.321795C95.229 0.473316 95.6318 0.773793 95.9806 1.13557C96.7282 1.90475 97.1887 2.91516 97.8043 3.532C97.8113 3.53896 97.8184 3.5459 97.8254 3.55279C99.1509 4.85123 100.209 6.46713 101.099 8.20008C101.102 8.20593 101.105 8.21177 101.108 8.21762C102.183 10.3307 102.948 12.6273 103.488 14.9231C103.489 14.9307 103.491 14.9383 103.493 14.9459C104.049 17.3126 104.221 19.7488 104.131 22.2476C104.13 22.2759 104.129 22.3042 104.128 22.3325C104.025 24.915 103.841 27.5594 103.285 29.8526C103.274 29.8954 103.263 29.9376 103.252 29.9793C102.994 30.9649 102.731 31.9439 102.434 32.8588C102.287 33.3098 102.125 33.7585 101.964 34.11C101.888 34.2806 101.798 34.438 101.779 34.469C101.777 34.4819 101.776 34.4561 101.952 34.3361C102.037 34.2815 102.194 34.1892 102.449 34.1377C102.703 34.0814 103.06 34.111 103.303 34.211C103.336 34.2239 103.369 34.2377 103.399 34.252C103.559 34.3536 103.368 34.2544 103.231 34.0801C103.078 33.9052 102.909 33.6617 102.749 33.3958C102.427 32.86 102.129 32.2321 101.864 31.5807C101.86 31.57 101.855 31.5593 101.851 31.5486C100.67 28.6124 99.61 25.615 98.5278 22.6016C98.5164 22.5701 98.5051 22.5387 98.4936 22.5076C98.2766 21.9164 98.0404 21.3214 97.7887 20.7058C97.6447 20.3563 97.4983 20.0001 97.3212 19.6145C97.2303 19.4203 97.1364 19.2191 96.9875 18.9737C96.9077 18.8477 96.8244 18.7115 96.6435 18.5255C96.5526 18.4361 96.4311 18.3225 96.2171 18.2143C96.0103 18.1057 95.6598 18.025 95.343 18.089C95.3142 18.0943 95.2858 18.1004 95.258 18.1074C94.8702 18.2047 94.6437 18.4524 94.5428 18.5923C94.4359 18.7422 94.3974 18.843 94.3661 18.9225C94.3081 19.082 94.2945 19.1699 94.2796 19.2516C94.2542 19.4085 94.2488 19.5131 94.2433 19.6137C94.2342 19.8096 94.2356 19.9694 94.2353 20.1201Z" fill="white"/>
<path d="M93.5485 11.588C93.1736 11.7483 92.8777 12.0509 92.726 12.4293C92.5743 12.8078 92.5791 13.231 92.7394 13.6058C92.8997 13.9807 93.2023 14.2766 93.5807 14.4283C93.9591 14.58 94.3823 14.5752 94.7572 14.4149C94.7572 14.4149 94.7572 14.4149 94.7572 14.4149C95.4474 14.1198 96.1369 13.825 96.8264 13.5311C100.219 12.0872 103.607 10.6559 107.022 9.38463C107.025 9.38331 107.029 9.38199 107.033 9.38067C110.782 7.97471 114.59 6.80776 118.488 5.71606C118.492 5.71503 118.496 5.714 118.499 5.71296C122.974 4.45526 127.256 2.19649 131.816 1.16601C131.818 1.16575 131.819 1.16549 131.82 1.16523C132.867 0.929288 133.904 0.696778 134.951 0.467833C135.684 0.307178 136.417 0.151729 137.153 0.00146484C137.153 0.00146484 137.153 0.00146484 137.153 0.00146484C136.417 0.151729 135.684 0.307178 134.951 0.467833C133.904 0.696778 132.867 0.929288 131.82 1.16523C131.819 1.16549 131.818 1.16575 131.816 1.16601C127.258 2.19607 122.419 2.03625 117.828 3.06795C117.825 3.0688 117.821 3.06965 117.817 3.0705C113.834 3.96434 109.826 5.04903 105.963 6.4983C105.959 6.49966 105.955 6.50101 105.952 6.50237C102.444 7.80855 99.0253 9.25402 95.6209 10.7028C94.9293 10.9976 94.2386 11.2929 93.5485 11.588Z" fill="white"/>
<path d="M114.317 11.831C114.345 11.4179 114.207 11.011 113.934 10.6996C113.661 10.3882 113.276 10.1979 112.863 10.1706C112.45 10.1433 112.043 10.2812 111.732 10.554C111.42 10.8267 111.23 11.212 111.203 11.6251C111.203 11.6251 111.203 11.6251 111.203 11.6251C111.161 12.2534 111.119 12.8825 111.079 13.5124C110.798 17.7649 110.596 22.0573 110.581 26.3465C110.581 26.3465 110.581 26.3466 110.581 26.3466C110.559 31.9182 112.323 37.3867 112.454 42.8987C112.454 42.8988 112.454 42.8988 112.454 42.8989C112.486 44.47 112.513 46.0344 112.474 47.6022C112.458 48.2317 112.423 48.8606 112.381 49.4888C112.423 48.8606 112.458 48.2317 112.474 47.6022C112.513 46.0344 112.486 44.47 112.454 42.8989C112.454 42.8988 112.454 42.8988 112.454 42.8987C112.323 37.3871 113.68 31.8208 113.702 26.3615C113.702 26.3615 113.702 26.3615 113.702 26.3614C113.718 22.1457 113.915 17.9448 114.194 13.7136C114.234 13.0868 114.276 12.4593 114.317 11.831Z" fill="white"/>
</svg>
