<svg width="155" height="77" viewBox="0 0 155 77" fill="none" xmlns="http://www.w3.org/2000/svg">
<path d="M18.8767 20.5358C18.6967 20.847 18.6476 21.2168 18.7403 21.5641C18.833 21.9114 19.0598 22.2077 19.3709 22.3877C19.6821 22.5677 20.0519 22.6168 20.3992 22.5241C20.7465 22.4315 21.0428 22.2046 21.2228 21.8935C21.2228 21.8935 21.2228 21.8935 21.2228 21.8935C22.3491 19.9458 23.4831 17.993 24.5743 15.9976C25.6085 14.0617 26.6654 12.1953 27.4209 9.8928C27.423 9.88611 27.425 9.87943 27.427 9.87275C27.6206 9.02998 28.103 8.13545 27.4549 6.5905C27.0862 5.82942 26.3049 5.35743 25.7588 5.17869C25.1896 4.98259 24.7184 4.92876 24.2892 4.88936C24.2799 4.88857 24.2705 4.88779 24.2612 4.88703C19.0106 4.63476 14.8763 7.31995 11.1683 9.80115C11.1559 9.80979 11.1435 9.81844 11.1311 9.8271C7.84995 12.2127 5.50084 15.1348 3.31591 18.1656C3.3045 18.1817 3.29313 18.1978 3.28178 18.2139C1.83395 20.2952 0.459064 22.6905 0.0810363 25.6334C0.0774491 25.6627 0.073987 25.692 0.0706491 25.7212C-0.175934 27.3501 0.151606 30.1448 2.21422 31.6036C2.24988 31.6304 2.28585 31.6569 2.32212 31.6829C5.48779 33.6275 8.04932 32.9579 10.3943 32.7072C10.428 32.7018 10.4617 32.6964 10.4956 32.6909C14.9458 31.9121 18.9651 30.3629 23.0378 28.8898C23.0761 28.8757 23.1142 28.8616 23.1523 28.8475C26.6347 27.5691 29.9901 25.9948 33.3438 24.577C33.3874 24.5587 33.4309 24.5405 33.4743 24.5224C36.8502 23.1636 40.9818 21.4958 43.732 21.6095C43.7467 21.6136 43.7572 21.6177 43.7633 21.6212C43.5949 21.5841 43.2715 21.4009 43.1156 21.1123C42.9635 20.8383 42.9723 20.6455 42.9708 20.5597C42.981 20.3806 42.9898 20.3997 42.9711 20.4132C42.9368 20.4574 42.8477 20.5803 42.7474 20.6941C42.5431 20.9297 42.2827 21.182 42.0147 21.4255C41.4748 21.9155 40.8917 22.3909 40.3556 22.8994C40.3405 22.9137 40.3253 22.9282 40.3102 22.9426C38.0483 25.0629 35.3143 27.0205 32.6942 29.0416C32.6815 29.0513 32.6688 29.061 32.6561 29.0707C28.5941 32.1776 24.681 35.4808 20.7176 38.8067C20.7131 38.8105 20.7086 38.8143 20.7041 38.8181C20.0985 39.3307 19.501 39.8498 18.9099 40.3826C17.1977 41.9111 15.5603 43.6187 14.0735 45.3092C13.8125 45.6016 13.6784 45.9857 13.7007 46.377C13.7229 46.7682 13.8996 47.1346 14.192 47.3956C14.4844 47.6565 14.8685 47.7906 15.2598 47.7684C15.651 47.7461 16.0174 47.5694 16.2784 47.277C16.2784 47.277 16.2784 47.277 16.2784 47.277C17.7633 45.5912 19.2447 44.0483 20.8885 42.5778C21.4528 42.0692 22.0274 41.5698 22.6133 41.074C22.6176 41.0703 22.622 41.0666 22.6264 41.0629C26.4875 37.8237 30.7282 34.9525 34.7798 31.8542C34.7925 31.8445 34.8052 31.8348 34.8179 31.8251C37.45 29.7887 40.1295 27.8634 42.7001 25.4234C42.7175 25.4065 42.7347 25.3897 42.7518 25.3728C43.3574 24.773 43.8697 24.0909 44.3466 23.3568C44.5852 22.9871 44.8143 22.6096 45.0433 22.1783C45.1578 21.9581 45.2744 21.7338 45.392 21.4151C45.4493 21.2421 45.5234 21.0707 45.5458 20.6926C45.5495 20.511 45.547 20.2112 45.3464 19.8521C45.141 19.4748 44.7324 19.2352 44.4646 19.1701C44.3889 19.1501 44.3138 19.1335 44.2389 19.1194C39.3029 19.205 36.3618 21.2302 32.6674 22.5949C32.6238 22.6132 32.5801 22.6316 32.5363 22.6499C29.1699 24.0733 25.7666 25.2759 22.303 26.2438C22.2651 26.2545 22.2271 26.2652 22.1891 26.2759C18.1511 27.3912 13.9252 28.1267 9.94204 28.5735C9.91214 28.5766 9.88239 28.5796 9.85278 28.5826C7.84856 28.8097 5.54929 28.7429 4.88882 28.1518C4.87995 28.145 4.87137 28.1382 4.86308 28.1316C4.6525 27.9516 4.58139 27.8372 4.4969 27.5356C4.41896 27.2388 4.40127 26.7636 4.46541 26.2246C4.46749 26.2066 4.46963 26.1885 4.47185 26.1703C4.68516 24.3771 5.61953 22.4595 6.82502 20.6386C6.83511 20.6233 6.84522 20.6081 6.85536 20.5928C8.77526 17.7334 10.8952 14.861 13.3743 12.8882C13.3854 12.8796 13.3965 12.871 13.4076 12.8625C16.7 10.3572 20.4468 7.99615 24.0808 8.02676C24.0879 8.02694 24.0949 8.02712 24.1019 8.0273C24.4204 8.03439 24.7031 8.05547 24.8522 8.08087C25.0175 8.1168 24.9273 8.06935 24.9135 7.97972C24.9084 7.8993 24.9863 8.03291 24.978 8.26336C24.9759 8.4937 24.9222 8.78952 24.8313 9.09196C24.8298 9.09685 24.8283 9.10175 24.8268 9.10667C24.2456 10.906 23.1979 12.84 22.1954 14.6984C21.1291 16.6484 20.0027 18.5889 18.8767 20.5358Z" fill="black"/>
<path d="M40.0603 9.73743C39.947 9.9793 39.9344 10.2563 40.0253 10.5074C40.1162 10.7586 40.3031 10.9633 40.545 11.0766C40.7868 11.1899 41.0638 11.2025 41.315 11.1116C41.5661 11.0207 41.7708 10.8338 41.8842 10.5919C41.8842 10.5919 41.8842 10.5919 41.8842 10.5919C42.2351 9.8381 42.5731 9.0801 42.854 8.24058C42.9584 7.92143 43.0567 7.58921 43.1235 7.20749C43.1577 6.81485 43.3341 6.41055 42.9223 5.60901C42.869 5.52263 42.8033 5.43548 42.7265 5.35529C41.3754 4.16094 40.1253 4.23339 39.0788 4.24693C39.0079 4.25289 38.9386 4.25912 38.8683 4.26593C35.6058 4.4383 32.4619 6.95297 31.0638 9.47039C31.0099 9.55369 30.9593 9.63206 30.918 9.69474C30.7261 9.98868 30.5161 10.3407 30.4006 10.9023C30.2688 11.442 30.4034 12.3338 30.8297 12.8621C31.0658 13.1788 31.3239 13.3798 31.555 13.5251C33.3987 14.7146 36.2777 14.7323 38.1043 13.5704C38.1365 13.5531 38.1647 13.5378 38.1805 13.5297C38.1856 13.5269 38.1908 13.5251 38.1642 13.5373C38.1487 13.5436 38.1396 13.5505 38.0583 13.5776C38.0186 13.5899 37.9656 13.606 37.8755 13.6198C37.8163 13.6276 37.6721 13.6494 37.4657 13.6098C37.2635 13.5753 36.9319 13.4298 36.7228 13.1424C36.839 13.2981 36.8469 13.3899 36.8371 13.3868C36.8295 13.3819 36.8281 13.4206 36.7181 13.5515C36.5008 13.8128 35.9884 14.1532 35.4442 14.4323C34.8925 14.7194 34.2833 14.9805 33.6356 15.2735C33.3103 15.4219 32.9772 15.5745 32.6101 15.7766C32.4299 15.8769 32.2347 15.9912 32.0127 16.1558C31.7903 16.34 31.5271 16.4882 31.2087 17.0814C31.0717 17.3552 30.9318 17.6902 30.8857 18.1541C30.829 18.6299 30.9533 19.2873 31.2594 19.753C31.5589 20.225 31.9163 20.5 32.2198 20.6919L32.8808 20.9004C33.0522 20.9343 33.2239 20.961 33.3968 20.9748C37.7132 21.294 41.8147 19.7569 45.2729 17.6124L45.287 17.6051C45.3154 17.5862 45.3435 17.5674 45.3713 17.5488C45.5306 17.4422 45.6854 17.3247 45.8347 17.1999C46.4815 16.6625 47.0223 15.9808 47.593 15.3787C46.8037 15.6492 45.9706 15.8194 45.2032 16.0643C45.0249 16.1217 44.849 16.1844 44.6784 16.2544C44.6485 16.2666 44.6184 16.2789 44.588 16.2913L44.6022 16.284C41.0319 17.592 37.1843 17.7168 33.6788 17.4472C33.5357 17.4358 33.3923 17.4333 33.2475 17.4338L33.9085 17.6423C33.886 17.6533 33.9382 17.6968 34.0252 17.8593C34.1167 18.018 34.1494 18.2912 34.1238 18.3953C34.1048 18.5029 34.0819 18.4946 34.0968 18.4462C33.9328 18.7266 33.9255 18.644 33.9734 18.6082C34.0217 18.5571 34.1201 18.4781 34.2266 18.4015C34.4481 18.2425 34.7243 18.0716 35.0102 17.8992C35.5869 17.5519 36.2111 17.1956 36.8438 16.7764C37.4749 16.3427 38.1422 15.9081 38.7646 15.0654C39.0651 14.6465 39.355 14.0194 39.3241 13.3189C39.2967 12.6205 38.9934 12.0656 38.6937 11.667C38.4825 11.3768 38.1477 11.2294 37.941 11.1941C37.7306 11.1536 37.5796 11.1757 37.5159 11.1843C37.4194 11.199 37.3589 11.217 37.3107 11.232C37.2105 11.2652 37.1861 11.2788 37.156 11.2916C37.0972 11.3184 37.0708 11.3327 37.046 11.3453C36.9932 11.373 36.9679 11.387 36.9365 11.4039C35.6686 12.1079 34.4957 11.5568 33.4733 10.6821C33.5013 10.6901 33.5746 10.7282 33.6684 10.8449C33.8473 11.0374 33.9127 11.4843 33.8708 11.6208C33.8411 11.7755 33.8306 11.755 33.8707 11.7067C33.9428 11.6028 34.0069 11.5055 34.0672 11.4122C35.4328 9.1281 36.8948 7.56304 39.2811 7.05193C39.3376 7.03997 39.3927 7.02864 39.4484 7.01769C40.2404 6.83327 41.1636 6.60362 41.2791 6.75934C41.2499 6.72816 41.2263 6.69587 41.2091 6.66809C41.1056 6.41112 41.1964 6.66344 41.1385 6.86659C41.1005 7.08751 41.0273 7.34914 40.9414 7.60914C40.7097 8.30458 40.3933 9.02418 40.0603 9.73743Z" fill="black"/>
<path d="M42.5957 8.65617C42.3711 8.92062 42.2607 9.26346 42.2889 9.60928C42.317 9.9551 42.4814 10.2756 42.7458 10.5002C43.0103 10.7248 43.3531 10.8352 43.6989 10.807C44.0448 10.7789 44.3652 10.6145 44.5899 10.35C44.5899 10.35 44.5899 10.35 44.5899 10.35C45.3923 9.40564 46.2029 8.46332 47.0179 7.54436C47.5517 6.94318 48.0883 6.34992 48.6303 5.7812C48.8994 5.49927 49.1763 5.21704 49.4431 4.96289C49.5787 4.83383 49.7129 4.71104 49.838 4.60538C49.9519 4.50521 50.1133 4.39634 50.0769 4.42045C50.068 4.4249 50.0489 4.43432 50.0166 4.44651C49.9204 4.47999 49.7873 4.5216 49.5556 4.49367C49.3348 4.46642 49.1283 4.35155 49.017 4.24899C48.8154 4.05334 48.8369 4.00369 48.8309 4.01556C48.8402 4.04588 48.8721 4.22451 48.8822 4.40295C48.9065 4.77285 48.8923 5.21518 48.8621 5.65516C48.8 6.543 48.6761 7.46375 48.5463 8.3896C48.2914 10.2516 47.9631 12.1003 47.9448 14.1634C47.9471 14.6102 48.0563 15.021 48.1963 15.3485C48.5849 16.2179 49.1088 16.6362 49.4791 16.9552C49.6943 17.1425 49.9471 17.3225 50.2289 17.4694C50.6555 17.6966 51.1566 17.7694 51.5228 17.7576C51.7598 17.7519 52.1064 17.7518 52.4978 17.6577C53.0672 17.5282 53.5115 17.1507 53.7513 16.8555C53.897 16.6745 54.0267 16.4955 54.1585 16.3297C55.6106 14.2177 55.9689 12.4077 56.6865 10.5651C56.7321 10.4358 56.7783 10.3032 56.8238 10.1716C57.6319 7.84677 58.4296 5.48013 59.2917 3.25388C59.3313 3.15368 59.3684 3.06344 59.4037 2.98291C59.4306 2.91734 59.5099 2.7706 59.4334 2.94668C59.418 2.97631 59.4004 3.01424 59.3376 3.1062C59.3051 3.15229 59.2734 3.19696 59.2032 3.27576C59.1117 3.37458 58.981 3.51049 58.7231 3.65661C58.5468 3.79693 57.6642 4.04894 57.0567 3.75301C56.5374 3.52934 56.3232 3.23536 56.1884 3.04437C56.0007 2.74931 55.9871 2.64283 55.9553 2.5578C55.8853 2.30688 55.9061 2.36105 55.8963 2.35856C55.8841 2.44162 55.8675 2.69178 55.8445 2.90462C55.7992 3.35208 55.7407 3.82755 55.6853 4.30032C55.5737 5.24959 55.4709 6.19922 55.4441 7.16566C55.441 7.27167 55.439 7.37946 55.4379 7.48897C55.3795 14.4585 55.3748 21.4023 55.3635 28.347C55.3635 28.3808 55.3634 28.4144 55.3634 28.4478C55.3614 30.2561 55.389 32.0641 55.427 33.8877C55.4435 34.5831 55.4538 35.2709 55.4994 36.0466C55.4998 36.0531 55.5002 36.0597 55.5006 36.0663C55.5449 36.6868 56.8335 37.2262 57.6167 37.7145C57.6705 37.7381 57.7574 37.7502 57.8338 37.7553C57.9116 37.7601 57.9725 37.7575 58.0277 37.7408C58.083 37.7242 58.1351 37.6926 58.1973 37.6456C58.258 37.599 58.3238 37.5409 58.3555 37.4914C58.3555 37.4914 58.3555 37.4914 58.3555 37.4914C58.8668 36.9074 60.1059 36.3325 60.0885 35.8518C60.0884 35.8466 60.0882 35.8413 60.0881 35.8361C60.0726 35.2374 60.0856 34.5512 60.0953 33.8733C60.1248 32.0762 60.1614 30.2602 60.1634 28.4544C60.1634 28.4209 60.1635 28.3873 60.1635 28.3535C60.1748 21.4141 60.1796 14.4625 60.2377 7.53469C60.2387 7.42609 60.2388 7.31924 60.2379 7.21421C60.2302 6.2557 60.1535 5.31392 60.0651 4.35198C60.0204 3.86985 59.9738 3.39026 59.9238 2.88054C59.8966 2.61534 59.8782 2.39304 59.8259 1.99679C59.8052 1.88229 59.8133 1.81132 59.7115 1.44799C59.6704 1.33205 59.6462 1.19688 59.4435 0.878986C59.2987 0.673046 59.0745 0.369547 58.5431 0.140816C57.9225 -0.161447 57.0208 0.0949849 56.834 0.24173C56.565 0.394011 56.4227 0.539761 56.3189 0.652005C56.239 0.741564 56.2 0.795669 56.1587 0.854218C56.0775 0.97214 56.045 1.03598 56.0162 1.09011C55.8285 1.48013 55.8311 1.55924 55.7783 1.71733C55.7393 1.85013 55.7098 1.96201 55.6784 2.08018C55.0554 4.54735 54.5091 6.92073 53.9249 9.32101C53.8923 9.45576 53.8596 9.59157 53.8281 9.72405C53.369 11.5586 53.0151 13.6961 52.2129 14.7842C52.1508 14.8625 52.0698 14.9145 51.9863 14.9453C51.8982 14.9561 51.9386 14.8199 52.0597 14.7541C52.1351 14.7082 52.1598 14.6749 52.0838 14.6132C51.9631 14.5165 51.9846 14.4388 51.9825 14.4174C51.9805 14.4015 51.9725 14.3813 51.9501 14.3436C51.6865 14.0625 51.5765 13.8383 51.6134 13.8962C51.6244 13.921 51.6529 14.0059 51.652 14.1228C51.6254 12.4242 51.6754 10.5058 51.6746 8.60972C51.6755 7.65363 51.6752 6.69287 51.643 5.69486C51.6246 5.19355 51.6034 4.68867 51.5313 4.12195C51.4895 3.83114 51.4544 3.54623 51.3063 3.12649C51.222 2.92188 51.1345 2.64334 50.764 2.29545C50.5597 2.11006 50.2511 1.9438 49.912 1.90007C49.5542 1.85696 49.3227 1.91664 49.101 1.99528C49.0243 2.02394 48.9533 2.05664 48.8974 2.08495C46.9387 3.45507 46.2526 4.54917 45.0609 5.80778C44.2266 6.74839 43.4062 7.70227 42.5957 8.65617Z" fill="black"/>
<path d="M69.7614 5.00306C69.6327 4.441 69.286 3.95307 68.7975 3.64662C68.3091 3.34018 67.7189 3.24031 67.1569 3.369C66.5948 3.49769 66.1069 3.84439 65.8004 4.33282C65.494 4.82126 65.3941 5.41143 65.5228 5.9735C65.5228 5.9735 65.5228 5.9735 65.5228 5.9735C65.5795 6.22092 65.6356 6.46601 65.6904 6.70911C66.0759 8.39472 66.3692 9.99356 66.5229 11.6452C66.523 11.6465 66.5231 11.6477 66.5232 11.649C66.7313 13.7865 68.9155 16.0573 69.0804 18.3417C69.0806 18.3442 69.0808 18.3467 69.081 18.3492C69.1262 18.8478 69.1748 19.3477 69.3208 19.8266C69.3942 20.0693 69.5237 20.2966 69.7111 20.4692C69.7111 20.4692 69.7111 20.4692 69.7111 20.4692C69.5237 20.2966 69.3942 20.0693 69.3208 19.8266C69.1748 19.3477 69.1262 18.8478 69.081 18.3492C69.0808 18.3467 69.0806 18.3442 69.0804 18.3417C68.9129 16.0334 71.0794 13.6864 70.8519 11.2369C70.8518 11.2355 70.8516 11.2341 70.8515 11.2327C70.6804 9.37361 70.3332 7.50081 69.932 5.75224C69.8752 5.50017 69.818 5.25048 69.7614 5.00306Z" fill="black"/>
<path d="M33.3083 40.0405C33.6146 39.6949 33.7711 39.2418 33.7433 38.7809C33.7155 38.3199 33.5058 37.8889 33.1602 37.5826C32.8146 37.2763 32.3615 37.1198 31.9006 37.1476C31.4396 37.1753 31.0086 37.3851 30.7023 37.7307C30.7023 37.7307 30.7023 37.7307 30.7023 37.7307C29.6721 38.8933 28.6071 40.0928 27.6177 41.4106C26.5032 42.891 25.493 44.5379 24.7687 46.3301C24.7685 46.3306 24.7682 46.3312 24.768 46.3318C23.3885 49.8497 22.8287 53.4345 22.9407 57.1436C22.9409 57.1473 22.941 57.151 22.9412 57.1546C23.0652 59.255 23.3374 62.022 25.6572 63.9849C25.6651 63.9914 25.6731 63.998 25.6811 64.0045C31.0356 67.3159 35.3414 64.4443 39.0993 63.1028C39.1188 63.0943 39.1382 63.0857 39.1576 63.077C41.8586 61.8557 44.006 60.0404 45.9551 58.203C45.968 58.1909 45.9808 58.1787 45.9936 58.1665C47.8055 56.4548 49.5846 54.2252 50.324 51.4901C50.3284 51.4742 50.3328 51.4583 50.3371 51.4425C51.0569 48.6858 50.9624 45.8093 49.7618 43.0956C49.7556 43.0822 49.7495 43.0688 49.7433 43.0554C48.5444 40.4076 46.1598 38.566 43.8276 37.5238C43.8181 37.5195 43.8086 37.5152 43.7991 37.5109C41.1891 36.338 38.4364 35.8248 35.6932 35.7365C35.6867 35.7364 35.6803 35.7362 35.6738 35.736C32.9382 35.6403 30.0018 36.165 27.492 37.4935C27.4897 37.4948 27.4873 37.496 27.485 37.4972C25.4321 38.5829 24.2344 40.6005 22.8956 42.1916C22.6193 42.5224 22.3319 42.8426 22.0291 43.1428C22.0288 43.1431 22.0285 43.1434 22.0281 43.1437C21.2116 43.9432 20.4071 44.9099 19.9442 45.9867C19.8957 46.088 19.8894 46.2045 19.9267 46.3104C19.964 46.4163 20.0419 46.5031 20.1432 46.5517C20.2445 46.6002 20.3609 46.6065 20.4669 46.5692C20.5728 46.5318 20.6596 46.454 20.7081 46.3527C21.15 45.3369 21.8266 44.5346 22.6245 43.7453C22.6248 43.745 22.6251 43.7447 22.6254 43.7444C22.9163 43.4562 23.246 43.1998 23.5934 42.9744C25.3002 41.8702 27.4216 41.4577 29.043 40.7791C29.0449 40.7783 29.0468 40.7775 29.0487 40.7767C31.0826 39.9205 33.2561 39.6239 35.5366 39.7242C35.5419 39.7244 35.5473 39.7247 35.5526 39.7249C37.8418 39.8241 40.1331 40.2953 42.1271 41.1964C42.1343 41.1997 42.1416 41.203 42.1488 41.2063C43.9697 42.0291 45.4414 43.1807 46.1857 44.7349C46.1896 44.7429 46.1934 44.7509 46.1973 44.759C46.9903 46.4062 47.1823 48.5914 46.6849 50.4541C46.6821 50.4648 46.6792 50.4755 46.6763 50.4861C46.1911 52.3187 44.9759 53.9456 43.3969 55.4406C43.3859 55.4511 43.3749 55.4616 43.3638 55.4721C41.5621 57.181 39.6603 58.7271 37.6239 59.6388C37.6094 59.6453 37.5948 59.6518 37.5802 59.6582C34.219 61.1688 29.7879 62.5325 28.0749 61.0745C28.0716 61.0718 28.0683 61.0691 28.065 61.0664C27.188 60.4076 26.7599 58.7858 26.6636 56.9653C26.6634 56.9622 26.6632 56.9592 26.6631 56.9562C26.5078 53.8442 26.8609 50.4925 27.9947 47.6414C27.9949 47.641 27.9951 47.6405 27.9953 47.64C28.5846 46.1835 29.4136 44.8158 30.4027 43.5012C31.2794 42.3325 32.2774 41.2029 33.3083 40.0405Z" fill="black"/>
<path d="M53.6 42.3375C53.5824 42.7564 53.7319 43.1653 54.0158 43.474C54.2996 43.7827 54.6944 43.966 55.1134 43.9836C55.5324 44.0012 55.9412 43.8516 56.2499 43.5678C56.5586 43.2839 56.7419 42.8891 56.7595 42.4701C56.7595 42.4701 56.7595 42.4701 56.7595 42.4701C56.7647 42.3423 56.7704 42.2268 56.7762 42.169C56.7778 42.1443 56.7848 42.1242 56.7683 42.1976C56.7549 42.2402 56.7529 42.2959 56.6526 42.4893C56.5968 42.5844 56.5184 42.7367 56.2721 42.9369C56.0421 43.1425 55.5147 43.3124 55.1597 43.2518C55.1597 43.2518 55.1597 43.2518 55.1597 43.2518C55.154 43.2713 54.9747 43.1463 55.025 43.1884C55.0565 43.2291 55.1456 43.4478 55.1895 43.7138C55.5294 46.7147 54.3281 50.5105 53.4987 54.2567C53.4994 54.253 53.5016 54.2399 53.5103 54.2053C53.5159 54.1856 53.5161 54.1763 53.5458 54.0892C53.5602 54.0488 53.5793 53.997 53.6162 53.92C53.6348 53.8814 53.6582 53.8362 53.6913 53.781C53.7079 53.7534 53.727 53.7233 53.7498 53.6902C53.7612 53.6736 53.7736 53.6563 53.7871 53.6381C53.8276 53.5839 53.8803 53.5192 53.9517 53.4476C54.0934 53.3084 54.3245 53.1106 54.7245 52.9951C55.1182 52.8721 55.6595 52.9355 55.995 53.1176C56.3402 53.295 56.513 53.502 56.6224 53.6462C56.6721 53.7143 56.6965 53.754 56.724 53.8003C56.825 53.9762 56.8561 54.0783 56.8817 54.1552C56.9278 54.3086 56.9286 54.3481 56.9336 54.3704C56.942 54.4218 56.9433 54.4414 56.9442 54.4478C56.9456 54.4646 56.9427 54.4069 56.9424 54.3545C56.9815 52.012 57.202 49.349 57.5646 46.9512C57.6098 46.6645 57.6552 46.3908 57.7043 46.1106C57.9062 44.9622 58.1423 43.8341 58.4551 42.7691C58.6097 42.2452 58.788 41.727 58.9863 41.2831C59.0853 41.0614 59.1899 40.859 59.287 40.7059C59.3337 40.6317 59.3792 40.5709 59.4009 40.5459C59.4071 40.5247 59.4651 40.5256 59.2013 40.6757C58.9252 40.8237 58.543 40.8664 58.3011 40.8233C58.0544 40.784 57.9256 40.7134 57.8471 40.671C57.6961 40.5803 57.7016 40.5633 57.7082 40.5745C58.1482 41.0704 58.7678 42.6176 59.2045 43.8337C59.2716 44.0184 59.3371 44.2051 59.4017 44.3935C60.2931 46.8273 60.4105 49.4511 61.872 52.6421C62.0534 52.9965 62.3609 53.4079 62.8085 53.7108C63.8486 54.3951 64.8465 54.1694 65.3745 53.9734C65.9433 53.7548 66.3209 53.472 66.6781 53.1894C66.8316 53.0653 66.9796 52.9379 67.1234 52.8106C69.1376 50.9157 69.5966 48.711 70.2334 46.7668L70.2825 46.5741C70.2945 46.4867 70.3064 46.4003 70.3184 46.3147C70.6185 44.1125 70.9629 41.9459 71.1082 39.6403C71.1076 38.9393 71.2729 38.4211 70.8896 37.2686L70.7518 36.9179L70.3679 36.719C70.3156 36.6938 70.261 36.6721 70.2057 36.6545C69.7788 36.5261 69.4735 36.6463 69.3177 36.7214C69.1508 36.8068 69.0654 36.89 68.9942 36.9685C68.8583 37.1257 68.8017 37.2696 68.7564 37.4125C68.6714 37.6967 68.657 37.9718 68.605 38.2137C68.5909 38.2877 68.6093 38.3841 68.6402 38.469C68.6721 38.5546 68.7139 38.6218 68.7723 38.6683C68.8307 38.7148 68.9055 38.7405 68.9961 38.7524C69.0857 38.7635 69.1838 38.7599 69.2528 38.7296C69.2528 38.7296 69.2528 38.7296 69.2528 38.7296C69.4667 38.6386 69.7241 38.5864 69.9358 38.5656C70.0395 38.5566 70.1371 38.5543 70.1733 38.5851C70.1885 38.6009 70.1922 38.6274 70.1244 38.6713C70.0652 38.7063 69.8716 38.802 69.547 38.7067C69.5056 38.6936 69.4645 38.6773 69.4255 38.6585L68.9037 38.1089C68.896 38.0795 68.9367 38.3718 68.9253 38.6261C68.9201 38.8896 68.8986 39.1852 68.8709 39.4777C68.6528 41.5688 68.2462 43.7432 67.8141 45.8836C67.797 45.9672 67.7794 46.0517 67.7615 46.137L67.8106 45.9442C67.1358 47.7246 66.1594 49.4811 65.0268 50.1489C64.9482 50.1968 64.8655 50.235 64.7814 50.265C64.6002 50.3297 64.401 50.3446 64.3514 50.3007C64.3293 50.2809 64.3509 50.2418 64.4741 50.2286C64.5901 50.2137 64.8442 50.254 65.0606 50.405C65.2616 50.5407 65.3787 50.7135 65.4231 50.8025C64.5007 48.9339 64.064 45.8901 63.0076 43.1009C62.9249 42.8781 62.8367 42.6557 62.743 42.4339C62.0881 41.0139 61.6813 39.8173 60.2758 38.1051C60.1226 37.9512 59.9556 37.7774 59.6027 37.571C59.4243 37.4721 59.1869 37.3558 58.8258 37.2994C58.4687 37.2386 57.9686 37.2971 57.5884 37.4985C57.0559 37.79 56.8973 38.0086 56.7034 38.2163C56.5264 38.4218 56.3975 38.6069 56.2814 38.7873C56.0494 39.1519 55.8839 39.4824 55.7319 39.8154C55.4343 40.4743 55.2141 41.117 55.0239 41.7443C54.644 43.0118 54.3821 44.248 54.1629 45.4904C54.1099 45.7929 54.0614 46.0869 54.0134 46.3934C53.6161 49.1007 53.4124 51.6064 53.3948 54.4238C53.3975 54.5204 53.3992 54.6087 53.4122 54.7594C53.4162 54.8031 53.4225 54.8663 53.4358 54.9467C53.4427 54.9806 53.4481 55.0458 53.4998 55.217C53.5282 55.3027 53.5622 55.4117 53.6661 55.5927C53.6944 55.6403 53.7194 55.6811 53.7701 55.7504C53.8815 55.8974 54.0565 56.1063 54.4038 56.2848C54.7415 56.4681 55.285 56.5316 55.681 56.408C56.0832 56.2919 56.3167 56.0926 56.4607 55.951C56.5333 55.8782 56.5872 55.8121 56.6288 55.7563C56.6427 55.7376 56.6555 55.7197 56.6673 55.7026C56.691 55.6683 56.7109 55.637 56.7283 55.608C56.763 55.5502 56.7879 55.502 56.8083 55.4599C56.8484 55.3761 56.8709 55.3159 56.8888 55.2656C56.9264 55.1553 56.9304 55.1311 56.9399 55.0971C56.9564 55.0325 56.9668 54.9825 56.976 54.9349C57.6577 51.327 58.8796 47.6849 58.3194 43.1071C58.2114 42.5982 58.0592 42.02 57.6403 41.3985C57.2511 40.7726 56.3389 40.1703 55.5288 40.1111C55.5259 40.1107 55.523 40.1104 55.5201 40.1101C55.1328 40.0453 54.572 40.2255 54.3169 40.4515C54.0452 40.6718 53.9476 40.8518 53.8765 40.9747C53.7454 41.2255 53.7248 41.3436 53.6957 41.4493C53.6489 41.6491 53.6402 41.7575 53.6288 41.862C53.61 42.0623 53.6059 42.2062 53.6 42.3375Z" fill="black"/>
<path d="M71.6482 37.1887C71.5252 37.3973 71.4901 37.6462 71.5506 37.8806C71.6111 38.115 71.7623 38.3158 71.9708 38.4388C72.1794 38.5618 72.4283 38.5969 72.6627 38.5364C72.8972 38.4759 73.098 38.3247 73.221 38.1162C73.221 38.1162 73.221 38.1162 73.221 38.1162C73.4732 37.6886 73.7309 37.2701 73.9995 36.8661C74.5885 35.959 75.4664 34.8997 75.9478 34.8006C75.9455 34.8012 75.9431 34.8017 75.9408 34.8021C75.8266 34.8276 75.7312 34.7915 75.7346 34.8303C75.7303 34.8656 75.758 34.9576 75.7752 35.0722C75.8145 35.3052 75.8282 35.6085 75.8895 35.9125L75.8537 35.6689C75.8538 35.6762 75.854 35.6835 75.8541 35.6907C76.0175 41.6629 75.621 47.5919 75.795 53.703L75.809 53.8668C75.8098 53.8721 75.8105 53.8774 75.8112 53.8827C75.9136 55.1555 76.937 56.7963 78.1805 57.2777C78.7296 57.5354 79.3031 57.6816 79.9131 57.7812C79.9131 57.7812 79.9131 57.7812 79.9131 57.7812C79.7901 57.1762 79.6423 56.6119 79.5203 56.1049C79.2181 54.9291 79.3209 54.3974 79.1777 53.4237C79.1772 53.4198 79.1767 53.416 79.1761 53.4121L79.1902 53.5759C79.0199 47.6855 78.8876 41.5908 78.411 35.5642C78.4105 35.5568 78.4099 35.5495 78.4093 35.5421L78.3735 35.2986C78.2428 34.8346 77.9995 34.3814 77.6273 33.9364C77.2649 33.5478 76.6902 32.8476 75.5811 33.012C75.5697 33.0143 75.5584 33.0167 75.5471 33.0193C73.708 33.6757 73.2408 34.8561 72.4792 35.8549C72.1861 36.2959 71.9128 36.7402 71.6482 37.1887Z" fill="black"/>
<path d="M83.6279 32.4337C83.5873 32.0772 83.4067 31.7514 83.1259 31.5281C82.8451 31.3047 82.487 31.202 82.1305 31.2427C81.774 31.2833 81.4482 31.4639 81.2249 31.7447C81.0015 32.0255 80.8988 32.3836 80.9394 32.7401C80.9394 32.7401 80.9394 32.7401 80.9394 32.7401C81.0856 34.0209 81.2622 35.3007 81.4811 36.5796C82.0586 39.5967 82.5364 42.6226 84.4408 45.6179C84.5482 45.7711 84.6734 45.9243 84.8072 46.0647C86.2097 47.4601 87.7564 46.882 88.7634 46.7554C88.9705 46.7212 89.1728 46.6807 89.3703 46.6366C91.0784 46.134 91.6282 44.8621 92.1882 43.8652C92.7128 42.814 93.0808 41.7538 93.4099 40.6894C94.0601 38.5647 94.5094 36.4161 94.9871 34.3256C95.0423 34.0874 95.1003 33.8481 95.1588 33.6265C95.1864 33.521 95.2103 33.442 95.2306 33.3851C95.244 33.3459 95.2545 33.3228 95.2549 33.3255C95.2539 33.3279 95.2571 33.3293 95.2265 33.3829C95.211 33.4087 95.1881 33.4452 95.1437 33.4966C95.1213 33.5222 95.0933 33.5516 95.0559 33.5843C95.0367 33.6009 95.0177 33.6165 94.9906 33.6362C94.9409 33.6721 94.8783 33.7103 94.7993 33.7436C94.6448 33.812 94.4062 33.8466 94.1963 33.7952C93.9848 33.7467 93.832 33.6381 93.742 33.5524C93.6103 33.4198 93.6043 33.3871 93.5692 33.3318C93.5177 33.237 93.5117 33.2011 93.5077 33.1929C93.5024 33.1786 93.5059 33.197 93.5096 33.2316C93.5158 33.2906 93.522 33.3775 93.5265 33.4731C93.5426 33.8531 93.5353 34.2419 93.5235 34.6672C93.4977 35.4857 93.444 36.3254 93.3808 37.1644C93.2532 38.8353 93.0837 40.5201 92.9204 42.2055C92.5997 45.5815 92.2583 48.9555 92.3566 52.4535C92.3676 52.7858 92.3839 53.12 92.4047 53.4513C92.7191 58.1118 93.4384 62.6097 94.3367 67.1098C94.3652 67.2502 94.3936 67.3879 94.4224 67.5254C94.9006 69.7953 97.0947 71.6363 98.4002 73.5118C98.6446 73.8642 98.86 74.2213 99.0341 74.5963C99.0478 74.6257 99.061 74.6547 99.0738 74.6835C99.4099 75.4303 99.7727 76.1863 100.353 76.7762C99.7727 76.1863 99.4099 75.4303 99.0738 74.6835C99.061 74.6547 99.0484 74.6254 99.036 74.5955C98.8778 74.2134 98.7823 73.8059 98.7332 73.3854C98.466 71.0952 99.5607 68.6236 99.1203 66.5408C99.0935 66.4127 99.067 66.2844 99.0403 66.1534C98.173 61.829 97.4365 57.4223 97.0412 53.105C97.0144 52.7994 96.9881 52.4932 96.963 52.1915C96.7109 48.9781 96.4552 45.5973 96.1981 42.2423C96.0719 40.5607 95.9548 38.8714 95.853 37.1826C95.8015 36.3332 95.755 35.4834 95.701 34.6288C95.6721 34.1791 95.6468 33.7823 95.5947 33.3001C95.5804 33.1735 95.565 33.0521 95.5399 32.9113C95.5246 32.8249 95.5073 32.7415 95.4795 32.6458C95.4611 32.5844 95.4304 32.4782 95.3573 32.3457C95.3099 32.2689 95.2969 32.2246 95.1464 32.073C95.0443 31.9758 94.8789 31.86 94.6545 31.8085C94.4316 31.754 94.1798 31.79 94.0116 31.8642C93.9257 31.9003 93.8561 31.9426 93.7993 31.9836C93.7684 32.006 93.7462 32.0241 93.7235 32.0438C93.6791 32.0824 93.6441 32.1189 93.6146 32.1527C93.5559 32.2204 93.5183 32.2773 93.4878 32.3279C93.4249 32.4348 93.4023 32.495 93.3867 32.5317C93.3521 32.6165 93.3259 32.6959 93.3006 32.7802C93.2655 32.9006 93.2373 33.0146 93.2058 33.1515C93.1513 33.3948 93.0973 33.6457 93.0444 33.8916C92.5928 36.0263 92.1757 38.1147 91.5719 40.1318C91.0151 42.0198 90.0372 44.4853 88.9556 44.7811C88.7861 44.819 88.6186 44.8524 88.4541 44.8795C88.0229 44.9519 87.5867 44.9019 87.2817 44.7711C86.9626 44.6378 86.8825 44.4571 86.8551 44.3587C86.7934 44.2647 86.7259 44.1636 86.6561 44.0641C85.2971 41.9891 84.6555 38.9534 84.1481 36.1228C83.9393 34.903 83.769 33.6705 83.6279 32.4337Z" fill="black"/>
<path d="M97.8521 35.1415C97.7137 35.4773 97.7143 35.8543 97.8539 36.1896C97.9935 36.5249 98.2606 36.791 98.5964 36.9294C98.9322 37.0678 99.3092 37.0671 99.6445 36.9275C99.9798 36.7879 100.246 36.5209 100.384 36.1851C100.384 36.1851 100.384 36.1851 100.384 36.1851C100.512 35.876 100.64 35.572 100.773 35.2721C100.956 34.8581 101.146 34.4499 101.342 34.0819C101.439 33.9002 101.541 33.7249 101.633 33.5878C101.709 33.4579 101.862 33.3291 101.719 33.4424C101.719 33.4427 101.718 33.4431 101.718 33.4434C101.615 33.5073 101.506 33.6585 101.242 33.7313C100.985 33.8105 100.628 33.7183 100.494 33.5754C100.493 33.5749 100.493 33.5745 100.492 33.574C100.287 33.3291 100.435 33.6143 100.427 33.947C100.442 34.2899 100.434 34.7114 100.418 35.1432C100.385 36.0134 100.333 36.9437 100.336 37.882L100.336 37.8612C100.336 37.8699 100.336 37.8786 100.336 37.8874C100.333 39.999 100.756 42.1677 101.421 44.4203C101.423 44.4277 101.426 44.4351 101.428 44.4425C101.706 45.3925 102.47 46.5727 103.505 46.9364C103.875 47.0836 104.236 47.1573 104.588 47.2256C104.588 47.2256 104.588 47.2256 104.588 47.2256C104.338 46.9696 104.11 46.6883 103.954 46.3981C103.532 45.6138 103.733 44.9162 103.755 44.093C103.755 44.0869 103.755 44.0808 103.755 44.0747C103.872 42.1223 104.442 40.0339 104.449 37.9129C104.449 37.904 104.449 37.8951 104.449 37.8862L104.449 37.8654C104.443 36.9351 104.402 36.0023 104.307 35.0075C104.258 34.5075 104.199 33.996 104.082 33.4157C103.93 32.8395 103.897 32.154 103.066 31.2001C103.064 31.1982 103.062 31.1963 103.06 31.1945C102.727 30.8331 102.093 30.5885 101.54 30.6413C100.98 30.6852 100.572 30.9239 100.222 31.1494C100.22 31.1506 100.218 31.1517 100.216 31.1528C99.6814 31.5359 99.5497 31.8014 99.3591 32.0608C99.1883 32.3162 99.0524 32.5564 98.9268 32.7904C98.6768 33.2596 98.4671 33.7139 98.2669 34.1663C98.1228 34.4929 97.9861 34.8163 97.8521 35.1415Z" fill="black"/>
<path d="M100.81 24.0049C100.81 24.0049 100.81 24.0049 100.81 24.0049C100.794 24.0652 100.777 24.1255 100.761 24.1858C100.555 24.9896 100.285 25.7909 100.265 26.6263C100.265 26.6306 100.265 26.6349 100.265 26.6392C100.272 26.7818 100.301 26.9333 100.403 27.0386C100.506 27.1442 100.661 27.1686 100.802 27.1757C100.864 27.1788 100.927 27.1788 100.989 27.1788C100.989 27.1788 100.989 27.1788 100.989 27.1788C100.927 27.1788 100.864 27.1788 100.802 27.1757C100.661 27.1686 100.506 27.1442 100.403 27.0386C100.301 26.9333 100.272 26.7818 100.265 26.6392C100.265 26.6349 100.265 26.6306 100.265 26.6263C100.285 25.7909 100.555 24.9896 100.761 24.1858C100.777 24.1255 100.794 24.0652 100.81 24.0049Z" fill="black"/>
<path d="M104.116 21.902C103.868 22.1663 103.736 22.5181 103.748 22.8798C103.76 23.2416 103.916 23.5837 104.18 23.8309C104.444 24.0782 104.796 24.2103 105.158 24.1982C105.52 24.1861 105.862 24.0308 106.109 23.7664C106.109 23.7664 106.109 23.7664 106.109 23.7664C106.707 23.1267 107.303 22.4896 107.901 21.8651C108.946 20.7834 110.05 19.6296 111.076 18.8922C111.078 18.8908 111.08 18.8894 111.082 18.8879C111.223 18.7908 111.367 18.7269 111.464 18.7125C111.557 18.692 111.598 18.7628 111.384 18.7859C111.155 18.8165 110.842 18.6132 110.807 18.59C110.748 18.5582 110.774 18.6502 110.799 18.7794C110.801 18.7869 110.803 18.7946 110.804 18.8025C111.006 19.818 110.949 21.4503 110.951 22.9363C110.951 22.9472 110.951 22.9581 110.951 22.9691C110.944 25.3911 110.88 27.8404 110.83 30.2898C110.83 30.2989 110.83 30.308 110.83 30.3171C110.758 33.5852 110.653 36.8788 110.617 40.1725C110.617 40.1792 110.617 40.1859 110.617 40.1926C110.576 44.5856 110.794 48.9689 111.208 53.4298C111.209 53.4329 111.209 53.436 111.209 53.4391C111.385 55.0831 112.638 56.6816 113.363 58.141C113.481 58.376 113.588 58.6078 113.677 58.8467C113.677 58.8473 113.677 58.8479 113.678 58.8485C113.889 59.4319 114.153 59.9959 114.468 60.5305C114.468 60.5305 114.468 60.5305 114.468 60.5305C114.153 59.9959 113.889 59.4319 113.678 58.8485C113.677 58.8479 113.677 58.8473 113.677 58.8467C113.588 58.6078 113.535 58.3559 113.515 58.0983C113.401 56.4608 114.459 54.8325 114.461 53.2821C114.461 53.2791 114.461 53.2761 114.461 53.2732C114.51 48.9835 114.847 44.6033 114.89 40.2415C114.89 40.2348 114.89 40.2282 114.89 40.2215C114.925 36.9406 114.948 33.6652 114.952 30.3615C114.952 30.3523 114.952 30.3431 114.952 30.3339C114.952 27.8576 114.91 25.3811 114.792 22.879C114.791 22.8677 114.791 22.8564 114.79 22.8451C114.682 21.2499 114.664 19.7437 114.018 17.774C114.012 17.7568 114.005 17.7396 113.999 17.7224C113.881 17.4245 113.735 17.0924 113.41 16.6931C113.117 16.3034 112.404 15.8108 111.722 15.7988C110.4 15.8266 110.034 16.3567 109.537 16.6381C109.534 16.6405 109.53 16.6428 109.527 16.6451C108.049 17.7236 107.035 18.847 105.929 19.9777C105.316 20.6185 104.714 21.2621 104.116 21.902Z" fill="black"/>
<path d="M75.1577 31.1825C74.7606 31.2822 74.4195 31.5356 74.2092 31.8868C73.999 32.2381 73.9369 32.6585 74.0367 33.0555C74.1364 33.4525 74.3898 33.7937 74.741 34.0039C75.0923 34.2142 75.5127 34.2762 75.9097 34.1765C75.9097 34.1765 75.9097 34.1765 75.9097 34.1765C77.2203 33.8473 78.5301 33.5183 79.8397 33.1915C83.2112 32.3499 86.5808 31.5242 89.9581 30.7401C89.9581 30.7401 89.9581 30.7401 89.9582 30.7401C96.1054 29.3071 102.295 28.0472 108.507 26.799C108.507 26.799 108.507 26.799 108.507 26.799C118.257 24.8475 127.775 21.5425 137.556 19.6932C137.556 19.6932 137.556 19.6932 137.556 19.6932C142.031 18.8478 146.494 18.0067 150.965 17.1684C152.292 16.9196 153.621 16.6706 154.949 16.4219C154.949 16.4219 154.949 16.4219 154.949 16.4219C153.621 16.6706 152.292 16.9196 150.965 17.1684C146.494 18.0067 142.031 18.8478 137.556 19.6932C137.556 19.6932 137.556 19.6932 137.556 19.6932C127.775 21.5425 117.707 21.941 107.921 23.8255C107.921 23.8255 107.921 23.8255 107.921 23.8255C101.69 25.0305 95.4588 26.288 89.2598 27.733C89.2598 27.733 89.2598 27.733 89.2598 27.7331C85.8589 28.5226 82.4715 29.3527 79.0922 30.1963C77.7796 30.5239 76.4682 30.8533 75.1577 31.1825Z" fill="black"/>
<path d="M123.911 30.1616C124.042 30.5009 124.302 30.7744 124.635 30.9217C124.968 31.069 125.345 31.0782 125.685 30.9471C126.024 30.8161 126.297 30.5555 126.445 30.2229C126.592 29.8902 126.601 29.5127 126.47 29.1733C126.47 29.1733 126.47 29.1733 126.47 29.1733C126.501 29.2675 126.466 29.1515 126.451 29.0629C126.431 28.9643 126.41 28.8437 126.383 28.713C126.326 28.4462 126.279 28.1566 126.083 27.7237C126.077 27.7096 126.07 27.6953 126.063 27.6809C125.735 27.0183 125.113 26.7924 124.827 26.7222C124.505 26.6433 124.289 26.6369 124.093 26.6277C123.709 26.6164 123.419 26.6318 123.152 26.6347C123.038 26.6365 122.931 26.637 122.832 26.6354C122.828 26.6353 122.824 26.6352 122.82 26.6351C120.956 26.6701 119.645 27.7129 118.684 28.6246C118.658 28.6496 118.632 28.6749 118.607 28.7004C116.46 30.8936 115.762 33.6958 115.412 36.1821C115.401 36.2627 115.39 36.3433 115.381 36.4228C115.104 38.5667 115.525 40.7835 116.453 42.6788C116.513 42.8023 116.579 42.9228 116.65 43.0396C117.129 43.8785 117.988 44.5078 118.798 44.838C118.969 44.9109 119.142 44.9697 119.314 45.0171C120.202 45.2606 121.014 45.2107 121.836 45.0995C122.029 45.0712 122.224 45.0299 122.421 44.9708C124.205 44.3877 124.744 42.8366 125.258 41.7328C125.33 41.5685 125.398 41.405 125.465 41.2427C126.645 38.3027 126.832 35.1303 126.918 32.2013C126.928 32.0022 126.943 31.7812 126.97 31.6854C126.977 31.635 126.985 31.5936 126.992 31.5624C126.997 31.5335 127.017 31.4353 127.003 31.562C126.995 31.5958 127.02 31.5103 126.969 31.7056C126.953 31.7542 126.937 31.8164 126.874 31.9404C126.793 32.0523 126.746 32.3084 126.167 32.5832C125.88 32.7114 125.426 32.7157 125.126 32.5797C124.819 32.4498 124.664 32.2764 124.568 32.1592C124.474 32.0378 124.431 31.9511 124.399 31.8839C124.368 31.8132 124.375 31.8276 124.364 31.8021C124.274 31.5425 124.293 31.5255 124.282 31.4793C124.274 31.4092 124.275 31.4311 124.273 31.4241C124.271 31.4215 124.269 31.4439 124.267 31.456C124.262 31.4864 124.258 31.5349 124.252 31.5731C124.232 31.7441 124.208 31.9356 124.182 32.1149C124.131 32.4847 124.072 32.8577 124.011 33.2302C123.888 33.9775 123.753 34.7233 123.622 35.4691C123.36 36.9605 123.121 38.4523 123.018 39.9244C123.011 40.025 123.004 40.1284 122.999 40.2294C122.888 42.5365 122.781 44.8172 123.018 47.3534C123.024 47.4118 123.03 47.4696 123.037 47.5271C123.238 49.0635 123.918 50.7893 125.551 52.1399C125.576 52.1599 125.602 52.1795 125.627 52.1987C125.669 52.2302 125.715 52.2606 125.762 52.2865C126.227 52.5484 126.898 52.5033 127.416 52.3209C127.947 52.1457 128.326 51.8725 128.648 51.9043C128.656 51.9051 128.665 51.9061 128.673 51.9073C129.044 51.9632 129.421 51.9848 129.796 51.9807C129.796 51.9807 129.796 51.9807 129.796 51.9807C129.421 51.9848 129.044 51.9632 128.673 51.9073C128.665 51.9061 128.656 51.9047 128.648 51.9031C128.326 51.8423 128.062 51.4249 127.994 50.9884C127.913 50.5479 128.035 50.1314 128.031 49.9393C128.03 49.9189 128.027 49.9 128.023 49.8836C128.02 49.8737 128.017 49.8636 128.015 49.8534C127.822 49.1664 127.931 48.0922 127.806 46.9818C127.801 46.9405 127.796 46.8986 127.792 46.856C127.603 44.9017 127.677 42.6619 127.774 40.4685C127.779 40.3712 127.783 40.2714 127.786 40.1741C127.839 38.6343 127.706 37.1121 127.536 35.5866C127.451 34.8243 127.355 34.064 127.265 33.2997C127.22 32.9184 127.176 32.5372 127.134 32.1512C127.112 31.9626 127.092 31.7652 127.07 31.5607C127.065 31.5141 127.059 31.4527 127.053 31.3968C127.05 31.3747 127.046 31.3284 127.042 31.2856C127.038 31.2569 127.04 31.2635 127.028 31.1588C127.015 31.0994 127.032 31.0735 126.94 30.8092C126.93 30.7833 126.937 30.7978 126.905 30.7263C126.873 30.6584 126.83 30.5711 126.735 30.4492C126.639 30.3316 126.483 30.1579 126.176 30.0279C125.876 29.8918 125.421 29.8961 125.134 30.0244C124.554 30.2995 124.506 30.5564 124.425 30.6698C124.361 30.7953 124.344 30.8595 124.327 30.9108C124.272 31.1235 124.298 31.0355 124.289 31.0746C124.254 31.3987 124.278 31.3762 124.275 31.5191C124.279 31.8445 124.309 32.0584 124.332 32.2892C124.697 35.2052 125.018 38.0869 124.045 40.6745C123.985 40.8274 123.924 40.9778 123.86 41.125C123.427 42.1737 122.649 43.0518 121.975 43.0479C121.88 43.0563 121.778 43.0585 121.672 43.0543C121.215 43.0381 120.721 42.7737 120.433 42.5022C120.361 42.4411 120.295 42.38 120.235 42.3205C119.941 42.0299 119.877 41.7176 119.782 41.4256C119.746 41.3352 119.709 41.2457 119.669 41.1577C119.046 39.7971 118.817 38.3179 119.004 36.8786C119.013 36.8069 119.022 36.7348 119.032 36.6629C119.323 34.443 119.753 32.2829 120.937 30.9164C120.955 30.8962 120.972 30.8764 120.99 30.8568C121.652 30.1045 122.361 29.5609 122.909 29.515C122.915 29.5146 122.92 29.5142 122.926 29.5138C123.068 29.5043 123.202 29.4915 123.329 29.4783C123.621 29.4474 123.89 29.4137 124.067 29.4058C124.151 29.4 124.217 29.4088 124.168 29.3959C124.143 29.387 124.08 29.373 123.966 29.3022C123.854 29.2356 123.688 29.0774 123.603 28.896C123.603 28.895 123.602 28.8942 123.602 28.8937C123.603 28.8873 123.658 29.0599 123.693 29.2512C123.713 29.3501 123.733 29.4604 123.759 29.5917C123.79 29.7325 123.798 29.848 123.911 30.1616Z" fill="black"/>
<path d="M128.953 41.7831C128.98 42.1691 129.159 42.5286 129.451 42.7827C129.742 43.0367 130.123 43.1643 130.509 43.1376C130.895 43.1108 131.255 42.9318 131.509 42.64C131.763 42.3482 131.89 41.9674 131.864 41.5814C131.864 41.5814 131.864 41.5814 131.864 41.5814C131.848 41.3437 131.833 41.0762 131.819 40.816C131.696 38.3901 131.614 35.9406 131.562 33.5008C131.562 33.4998 131.562 33.4989 131.562 33.498L131.561 33.4781C131.514 31.3948 130.991 29.1748 131.454 27.2719C131.454 27.2717 131.454 27.2716 131.454 27.2715L131.44 27.2996C131.466 27.2268 131.477 27.1477 131.48 27.0624C131.485 26.7999 131.429 26.4722 131.524 26.1699C131.524 26.1699 131.524 26.1699 131.524 26.1699C131.231 26.225 130.837 26.3088 130.568 26.4973C130.482 26.5565 130.408 26.6225 130.352 26.6986L130.338 26.7267C130.338 26.7268 130.338 26.727 130.338 26.7271C129.077 28.926 128.607 31.2757 128.645 33.58L128.645 33.56C128.645 33.5609 128.645 33.5618 128.645 33.5628C128.698 36.0318 128.78 38.4953 128.906 40.9687C128.92 41.2389 128.934 41.5009 128.953 41.7831Z" fill="black"/>
<path d="M130.471 32.1023C130.292 32.3245 130.208 32.6086 130.239 32.8921C130.27 33.1756 130.412 33.4354 130.634 33.6142C130.856 33.7931 131.14 33.8764 131.424 33.8457C131.707 33.8151 131.967 33.6731 132.146 33.451C132.146 33.451 132.146 33.451 132.146 33.451C132.57 32.8852 132.75 32.4944 133.002 32.0507C133.765 30.6538 134.481 29.2571 135.337 28.1183C135.339 28.1166 135.34 28.1149 135.341 28.1133C135.389 28.039 135.603 28.0663 135.505 28.2594C135.457 28.3471 135.232 28.4949 134.882 28.4425C134.531 28.3896 134.3 28.1742 134.234 28.0795C134.234 28.0803 134.234 28.081 134.235 28.0817C134.698 29.2623 134.15 32.4796 133.993 35.107C133.992 35.1179 133.992 35.1287 133.991 35.1396C133.858 37.7531 133.284 40.2365 133.481 43.4788L133.545 43.8368C133.547 43.8443 133.549 43.8517 133.551 43.8591C133.855 45.1578 135.629 46.09 136.86 46.2971C136.862 46.2976 136.864 46.2982 136.866 46.2987C137.643 46.4916 138.27 46.4285 138.83 46.3636C139.388 46.2913 139.887 46.1843 140.362 46.0868C140.714 46.0139 141.023 45.8043 141.22 45.5039C141.418 45.2035 141.488 44.837 141.415 44.485C141.342 44.133 141.133 43.8244 140.832 43.6269C140.532 43.4295 140.165 43.3596 139.813 43.4324C139.813 43.4324 139.813 43.4324 139.813 43.4324C139.34 43.5303 138.891 43.6232 138.487 43.6748C138.086 43.7291 137.721 43.7254 137.551 43.6763C137.551 43.6762 137.55 43.676 137.55 43.6759C137.394 43.6323 137.422 43.3824 137.546 43.2046C137.662 43.0176 137.82 42.8757 137.777 42.722C137.776 42.7202 137.776 42.7183 137.775 42.7164L137.839 43.0744C137.679 40.9304 138.025 38.0491 138.017 35.2788C138.017 35.2669 138.017 35.2551 138.017 35.2432C137.848 32.5686 138.73 30.1564 136.932 26.3606C136.93 26.3566 136.927 26.3526 136.924 26.3487C136.738 26.0655 136.336 25.6853 135.769 25.5667C135.203 25.4467 134.742 25.6331 134.49 25.8065C133.977 26.1772 133.858 26.5284 133.633 26.8064C133.632 26.8086 133.63 26.8107 133.628 26.8127C132.587 28.2066 131.87 29.6454 131.115 31.0187C130.896 31.4189 130.629 31.8999 130.471 32.1023Z" fill="black"/>
</svg>
