<svg width="24" height="24" viewBox="0 0 24 24" fill="none" xmlns="http://www.w3.org/2000/svg">
<path d="M12 21C7.02944 21 3 16.9706 3 12C3 7.02944 7.02944 3 12 3C16.9706 3 21 7.02944 21 12C21 16.9706 16.9706 21 12 21ZM12 5.7C8.52061 5.7 5.7 8.52061 5.7 12C5.7 15.4794 8.52061 18.3 12 18.3C15.4794 18.3 18.3 15.4794 18.3 12C18.3 8.52061 15.4794 5.7 12 5.7Z" fill="#007AFF"/>
<path d="M19 12C19 10.1435 18.2625 8.36301 16.9497 7.05025C15.637 5.7375 13.8565 5 12 5C10.1435 5 8.36301 5.7375 7.05025 7.05025C5.7375 8.36301 5 10.1435 5 12L12 12L19 12Z" fill="#007AFF"/>
</svg>
